<?xml version="1.0" encoding="UTF-8" standalone="no"?>
<!DOCTYPE svg PUBLIC "-//W3C//DTD SVG 1.1//EN"
 "http://www.w3.org/Graphics/SVG/1.1/DTD/svg11.dtd">
<!-- Generated by graphviz version 2.43.0 (0)
 -->
<!-- Title: %3 Pages: 1 -->
<svg width="281pt" height="417pt"
 viewBox="0.00 0.00 281.00 417.00" xmlns="http://www.w3.org/2000/svg" xmlns:xlink="http://www.w3.org/1999/xlink">
<g id="graph0" class="graph" transform="scale(1 1) rotate(0) translate(4 413)">
<title>%3</title>
<!-- x -->
<g id="node1" class="node">
<title>x</title>
<polygon fill="white" stroke="black" points="0,-247.5 0,-283.5 50,-283.5 50,-247.5 0,-247.5"/>
<text text-anchor="middle" x="12.5" y="-262.1" font-family="monospace" font-size="13.00">x</text>
<polyline fill="none" stroke="black" points="25,-247.5 25,-283.5 "/>
<text text-anchor="middle" x="37.5" y="-262.1" font-family="monospace" font-size="13.00">⬤</text>
</g>
<!-- lista1 -->
<g id="node3" class="node">
<title>lista1</title>
<polygon fill="white" stroke="black" points="86,-247.5 86,-283.5 194,-283.5 194,-247.5 86,-247.5"/>
<text text-anchor="middle" x="99.5" y="-262.1" font-family="monospace" font-size="13.00">⬤</text>
<polyline fill="none" stroke="black" points="113,-247.5 113,-283.5 "/>
<text text-anchor="middle" x="126.5" y="-262.1" font-family="monospace" font-size="13.00">⬤</text>
<polyline fill="none" stroke="black" points="140,-247.5 140,-283.5 "/>
<text text-anchor="middle" x="153.5" y="-262.1" font-family="monospace" font-size="13.00">⬤</text>
<polyline fill="none" stroke="black" points="167,-247.5 167,-283.5 "/>
<text text-anchor="middle" x="180.5" y="-262.1" font-family="monospace" font-size="13.00">⬤</text>
</g>
<!-- x&#45;&gt;lista1 -->
<g id="edge8" class="edge">
<title>x:f1&#45;&gt;lista1</title>
<path fill="none" stroke="black" d="M50,-265.5C58.33,-265.5 67.1,-265.5 75.75,-265.5"/>
<polygon fill="black" stroke="black" points="75.82,-269 85.82,-265.5 75.82,-262 75.82,-269"/>
</g>
<!-- y -->
<g id="node2" class="node">
<title>y</title>
<polygon fill="white" stroke="black" points="0,-128.5 0,-164.5 50,-164.5 50,-128.5 0,-128.5"/>
<text text-anchor="middle" x="12.5" y="-143.1" font-family="monospace" font-size="13.00">y</text>
<polyline fill="none" stroke="black" points="25,-128.5 25,-164.5 "/>
<text text-anchor="middle" x="37.5" y="-143.1" font-family="monospace" font-size="13.00">⬤</text>
</g>
<!-- y&#45;&gt;lista1 -->
<g id="edge9" class="edge">
<title>y:f1&#45;&gt;lista1</title>
<path fill="none" stroke="grey" stroke-dasharray="5,2" d="M38,-165.5C38,-199.01 66.42,-225.11 93.11,-242.23"/>
<polygon fill="grey" stroke="grey" points="91.32,-245.24 101.68,-247.47 94.97,-239.26 91.32,-245.24"/>
</g>
<!-- lista2 -->
<g id="node4" class="node">
<title>lista2</title>
<polygon fill="white" stroke="black" points="86,-94.5 86,-130.5 194,-130.5 194,-94.5 86,-94.5"/>
<text text-anchor="middle" x="104" y="-109.1" font-family="monospace" font-size="13.00">⬤</text>
<polyline fill="none" stroke="black" points="122,-94.5 122,-130.5 "/>
<text text-anchor="middle" x="140" y="-109.1" font-family="monospace" font-size="13.00">⬤</text>
<polyline fill="none" stroke="black" points="158,-94.5 158,-130.5 "/>
<text text-anchor="middle" x="176" y="-109.1" font-family="monospace" font-size="13.00">⬤</text>
</g>
<!-- y&#45;&gt;lista2 -->
<g id="edge10" class="edge">
<title>y:f1&#45;&gt;lista2</title>
<path fill="none" stroke="black" d="M50,-146.5C66.55,-146.5 83.77,-141.3 98.59,-134.97"/>
<polygon fill="black" stroke="black" points="100.32,-138.03 107.96,-130.69 97.41,-131.67 100.32,-138.03"/>
</g>
<!-- 66 -->
<g id="node5" class="node">
<title>66</title>
<ellipse fill="white" stroke="black" cx="251.5" cy="-387.5" rx="21.5" ry="21.5"/>
<text text-anchor="middle" x="251.5" y="-384.1" font-family="monospace" font-size="13.00">66</text>
</g>
<!-- lista1&#45;&gt;66 -->
<g id="edge1" class="edge">
<title>lista1:f0&#45;&gt;66</title>
<path fill="none" stroke="black" d="M99,-284.5C99,-342.51 175.89,-370.14 220.12,-381.24"/>
<polygon fill="black" stroke="black" points="219.53,-384.69 230.07,-383.59 221.14,-377.88 219.53,-384.69"/>
</g>
<!-- 77 -->
<g id="node6" class="node">
<title>77</title>
<ellipse fill="white" stroke="black" cx="251.5" cy="-326.5" rx="21.5" ry="21.5"/>
<text text-anchor="middle" x="251.5" y="-323.1" font-family="monospace" font-size="13.00">77</text>
</g>
<!-- lista1&#45;&gt;77 -->
<g id="edge2" class="edge">
<title>lista1:f1&#45;&gt;77</title>
<path fill="none" stroke="black" d="M126,-284.5C126,-323.95 182.81,-329.27 219.68,-328.56"/>
<polygon fill="black" stroke="black" points="220.07,-332.05 229.94,-328.21 219.83,-325.06 220.07,-332.05"/>
</g>
<!-- 88 -->
<g id="node7" class="node">
<title>88</title>
<ellipse fill="white" stroke="black" cx="251.5" cy="-265.5" rx="21.5" ry="21.5"/>
<text text-anchor="middle" x="251.5" y="-262.1" font-family="monospace" font-size="13.00">88</text>
</g>
<!-- lista1&#45;&gt;88 -->
<g id="edge3" class="edge">
<title>lista1:f2&#45;&gt;88</title>
<path fill="none" stroke="black" d="M154,-246.5C154,-218.12 194.68,-234.6 223.21,-249.65"/>
<polygon fill="black" stroke="black" points="221.89,-252.92 232.35,-254.64 225.25,-246.78 221.89,-252.92"/>
</g>
<!-- 99 -->
<g id="node8" class="node">
<title>99</title>
<ellipse fill="white" stroke="black" cx="251.5" cy="-204.5" rx="21.5" ry="21.5"/>
<text text-anchor="middle" x="251.5" y="-201.1" font-family="monospace" font-size="13.00">99</text>
</g>
<!-- lista1&#45;&gt;99 -->
<g id="edge4" class="edge">
<title>lista1:f3&#45;&gt;99</title>
<path fill="none" stroke="black" d="M181,-246.5C181,-226.9 201.49,-216.2 220.22,-210.52"/>
<polygon fill="black" stroke="black" points="221.26,-213.87 230.02,-207.92 219.46,-207.1 221.26,-213.87"/>
</g>
<!-- 1 -->
<g id="node9" class="node">
<title>1</title>
<ellipse fill="white" stroke="black" cx="251.5" cy="-143.5" rx="21.5" ry="21.5"/>
<text text-anchor="middle" x="251.5" y="-140.1" font-family="monospace" font-size="13.00">1</text>
</g>
<!-- lista2&#45;&gt;1 -->
<g id="edge5" class="edge">
<title>lista2:f0&#45;&gt;1</title>
<path fill="none" stroke="black" d="M104,-131.5C104,-178.04 178.35,-164.36 221.12,-152.64"/>
<polygon fill="black" stroke="black" points="222.09,-156 230.74,-149.89 220.17,-149.27 222.09,-156"/>
</g>
<!-- 2 -->
<g id="node10" class="node">
<title>2</title>
<ellipse fill="white" stroke="black" cx="251.5" cy="-82.5" rx="21.5" ry="21.5"/>
<text text-anchor="middle" x="251.5" y="-79.1" font-family="monospace" font-size="13.00">2</text>
</g>
<!-- lista2&#45;&gt;2 -->
<g id="edge6" class="edge">
<title>lista2:f1&#45;&gt;2</title>
<path fill="none" stroke="black" d="M140,-93.5C140,-60.97 188.01,-66.54 220.74,-74.12"/>
<polygon fill="black" stroke="black" points="220.2,-77.6 230.74,-76.61 221.88,-70.8 220.2,-77.6"/>
</g>
<!-- 3 -->
<g id="node11" class="node">
<title>3</title>
<ellipse fill="white" stroke="black" cx="251.5" cy="-21.5" rx="21.5" ry="21.5"/>
<text text-anchor="middle" x="251.5" y="-18.1" font-family="monospace" font-size="13.00">3</text>
</g>
<!-- lista2&#45;&gt;3 -->
<g id="edge7" class="edge">
<title>lista2:f2&#45;&gt;3</title>
<path fill="none" stroke="black" d="M176,-93.5C176,-66.71 201.22,-46.72 222.32,-34.68"/>
<polygon fill="black" stroke="black" points="224.15,-37.67 231.31,-29.87 220.85,-31.5 224.15,-37.67"/>
</g>
</g>
</svg>
