<?xml version="1.0" encoding="UTF-8" standalone="no"?>
<!DOCTYPE svg PUBLIC "-//W3C//DTD SVG 1.1//EN"
 "http://www.w3.org/Graphics/SVG/1.1/DTD/svg11.dtd">
<!-- Generated by graphviz version 14.0.5 (0)
 -->
<!-- Pages: 1 -->
<svg width="269pt" height="200pt"
 viewBox="0.00 0.00 269.00 200.00" xmlns="http://www.w3.org/2000/svg" xmlns:xlink="http://www.w3.org/1999/xlink">
<g id="graph0" class="graph" transform="scale(1 1) rotate(0) translate(4 195.6)">
<!-- y -->
<g id="node1" class="node">
<title>y</title>
<polygon fill="white" stroke="black" points="0,-85 0,-106.6 36,-106.6 36,-85 0,-85"/>
<text xml:space="preserve" text-anchor="middle" x="9" y="-91.25" font-family="monospace" font-size="13.00">y</text>
<polyline fill="none" stroke="black" points="18,-85 18,-106.6"/>
<text xml:space="preserve" text-anchor="middle" x="27" y="-91.25" font-family="monospace" font-size="13.00">⬤</text>
</g>
<!-- lista2 -->
<g id="node9" class="node">
<title>lista2</title>
<polygon fill="white" stroke="black" points="72,-85 72,-106.6 108,-106.6 108,-85 72,-85"/>
<text xml:space="preserve" text-anchor="middle" x="81" y="-91.25" font-family="monospace" font-size="13.00">⬤</text>
<polyline fill="none" stroke="black" points="90,-85 90,-106.6"/>
<text xml:space="preserve" text-anchor="middle" x="99" y="-91.25" font-family="monospace" font-size="13.00">⬤</text>
</g>
<!-- y&#45;&gt;lista2 -->
<g id="edge9" class="edge">
<title>y:f1&#45;&gt;lista2</title>
<path fill="none" stroke="black" d="M36,-95.8C43.94,-95.8 52.56,-95.8 60.48,-95.8"/>
<polygon fill="black" stroke="black" points="60.3,-99.3 70.3,-95.8 60.3,-92.3 60.3,-99.3"/>
</g>
<!-- x -->
<g id="node2" class="node">
<title>x</title>
<polygon fill="white" stroke="black" points="72,-44 72,-65.6 108,-65.6 108,-44 72,-44"/>
<text xml:space="preserve" text-anchor="middle" x="81" y="-50.25" font-family="monospace" font-size="13.00">x</text>
<polyline fill="none" stroke="black" points="90,-44 90,-65.6"/>
<text xml:space="preserve" text-anchor="middle" x="99" y="-50.25" font-family="monospace" font-size="13.00">⬤</text>
</g>
<!-- lista1 -->
<g id="node8" class="node">
<title>lista1</title>
<polygon fill="white" stroke="black" points="144,-85 144,-106.6 194.4,-106.6 194.4,-85 144,-85"/>
<text xml:space="preserve" text-anchor="middle" x="152.5" y="-91.25" font-family="monospace" font-size="13.00">⬤</text>
<polyline fill="none" stroke="black" points="161,-85 161,-106.6"/>
<text xml:space="preserve" text-anchor="middle" x="169.5" y="-91.25" font-family="monospace" font-size="13.00">⬤</text>
<polyline fill="none" stroke="black" points="178,-85 178,-106.6"/>
<text xml:space="preserve" text-anchor="middle" x="186.5" y="-91.25" font-family="monospace" font-size="13.00">⬤</text>
</g>
<!-- x&#45;&gt;lista1 -->
<g id="edge8" class="edge">
<title>x:f1&#45;&gt;lista1</title>
<path fill="none" stroke="black" d="M108,-54.8C124.76,-54.8 140.31,-65.79 151.4,-76.4"/>
<polygon fill="black" stroke="black" points="148.78,-78.72 158.23,-83.51 153.83,-73.87 148.78,-78.72"/>
</g>
<!-- 1 -->
<g id="node3" class="node">
<title>1</title>
<ellipse fill="white" stroke="black" cx="245.9" cy="-179.8" rx="10.8" ry="10.8"/>
<text xml:space="preserve" text-anchor="middle" x="245.9" y="-175.25" font-family="monospace" font-size="13.00">1</text>
</g>
<!-- 2 -->
<g id="node4" class="node">
<title>2</title>
<ellipse fill="white" stroke="black" cx="245.9" cy="-137.8" rx="10.8" ry="10.8"/>
<text xml:space="preserve" text-anchor="middle" x="245.9" y="-133.25" font-family="monospace" font-size="13.00">2</text>
</g>
<!-- 3 -->
<g id="node5" class="node">
<title>3</title>
<ellipse fill="white" stroke="black" cx="245.9" cy="-95.8" rx="10.8" ry="10.8"/>
<text xml:space="preserve" text-anchor="middle" x="245.9" y="-91.25" font-family="monospace" font-size="13.00">3</text>
</g>
<!-- 77 -->
<g id="node6" class="node">
<title>77</title>
<ellipse fill="white" stroke="black" cx="245.9" cy="-53.8" rx="10.8" ry="10.8"/>
<text xml:space="preserve" text-anchor="middle" x="245.9" y="-49.25" font-family="monospace" font-size="13.00">77</text>
</g>
<!-- 99 -->
<g id="node7" class="node">
<title>99</title>
<ellipse fill="white" stroke="black" cx="245.9" cy="-11.8" rx="10.8" ry="10.8"/>
<text xml:space="preserve" text-anchor="middle" x="245.9" y="-7.25" font-family="monospace" font-size="13.00">99</text>
</g>
<!-- lista1&#45;&gt;1 -->
<g id="edge1" class="edge">
<title>lista1:f0&#45;&gt;1</title>
<path fill="none" stroke="grey" stroke-dasharray="5,2" d="M152.5,-107.6C152.5,-144.13 197.9,-164.92 225.05,-174.09"/>
<polygon fill="grey" stroke="grey" points="223.67,-177.33 234.26,-176.96 225.75,-170.64 223.67,-177.33"/>
</g>
<!-- lista1&#45;&gt;2 -->
<g id="edge2" class="edge">
<title>lista1:f1&#45;&gt;2</title>
<path fill="none" stroke="grey" stroke-dasharray="5,2" d="M169.5,-107.6C169.5,-131.17 201.64,-136.83 223.95,-137.93"/>
<polygon fill="grey" stroke="grey" points="223.77,-141.43 233.84,-138.12 223.91,-134.43 223.77,-141.43"/>
</g>
<!-- lista1&#45;&gt;3 -->
<g id="edge5" class="edge">
<title>lista1:f2&#45;&gt;3</title>
<path fill="none" stroke="black" d="M194.4,-95.8C204.05,-95.8 214.75,-95.8 223.8,-95.8"/>
<polygon fill="black" stroke="black" points="223.71,-99.3 233.71,-95.8 223.71,-92.3 223.71,-99.3"/>
</g>
<!-- lista1&#45;&gt;77 -->
<g id="edge4" class="edge">
<title>lista1:f1&#45;&gt;77</title>
<path fill="none" stroke="black" d="M169.5,-84C169.5,-60.43 201.64,-54.77 223.95,-53.67"/>
<polygon fill="black" stroke="black" points="223.91,-57.17 233.84,-53.48 223.77,-50.17 223.91,-57.17"/>
</g>
<!-- lista1&#45;&gt;99 -->
<g id="edge3" class="edge">
<title>lista1:f0&#45;&gt;99</title>
<path fill="none" stroke="black" d="M152.5,-84C152.5,-47.47 197.9,-26.68 225.05,-17.51"/>
<polygon fill="black" stroke="black" points="225.75,-20.96 234.26,-14.64 223.67,-14.27 225.75,-20.96"/>
</g>
<!-- lista2&#45;&gt;lista1 -->
<g id="edge6" class="edge">
<title>lista2:n&#45;&gt;lista1</title>
<path fill="none" stroke="black" d="M81,-107.6C81,-130.73 111.49,-122.38 136.41,-111.69"/>
<polygon fill="black" stroke="black" points="137.6,-114.99 145.27,-107.68 134.71,-108.62 137.6,-114.99"/>
</g>
<!-- lista2&#45;&gt;lista1 -->
<g id="edge7" class="edge">
<title>lista2:f1&#45;&gt;lista1</title>
<path fill="none" stroke="black" d="M108,-95.8C115.86,-95.8 124.31,-95.8 132.31,-95.8"/>
<polygon fill="black" stroke="black" points="132.08,-99.3 142.08,-95.8 132.08,-92.3 132.08,-99.3"/>
</g>
</g>
</svg>
