<?xml version="1.0" encoding="UTF-8" standalone="no"?>
<!DOCTYPE svg PUBLIC "-//W3C//DTD SVG 1.1//EN"
 "http://www.w3.org/Graphics/SVG/1.1/DTD/svg11.dtd">
<!-- Generated by graphviz version 14.1.1 (0)
 -->
<!-- Pages: 1 -->
<svg width="262pt" height="119pt"
 viewBox="0.00 0.00 262.00 119.00" xmlns="http://www.w3.org/2000/svg" xmlns:xlink="http://www.w3.org/1999/xlink">
<g id="graph0" class="graph" transform="scale(1 1) rotate(0) translate(4 114.5)">
<!-- y -->
<g id="node1" class="node">
<title>y</title>
<polygon fill="white" stroke="black" points="0,-44.45 0,-66.05 36,-66.05 36,-44.45 0,-44.45"/>
<text xml:space="preserve" text-anchor="middle" x="9.25" y="-50.7" font-family="monospace" font-size="13.00">y</text>
<polyline fill="none" stroke="black" points="18.5,-43.55 18.5,-66.05"/>
<text xml:space="preserve" text-anchor="middle" x="27.25" y="-49.2" font-family="monospace" font-size="13.00">⬤</text>
</g>
<!-- lista2 -->
<g id="node7" class="node">
<title>lista2</title>
<polygon fill="white" stroke="black" points="72,-44.45 72,-66.05 108,-66.05 108,-44.45 72,-44.45"/>
<text xml:space="preserve" text-anchor="middle" x="81.25" y="-49.7" font-family="monospace" font-size="13.00">⬤</text>
<polyline fill="none" stroke="black" points="90.5,-44.55 90.5,-66.05"/>
<text xml:space="preserve" text-anchor="middle" x="99.25" y="-49.7" font-family="monospace" font-size="13.00">⬤</text>
</g>
<!-- y&#45;&gt;lista2 -->
<g id="edge7" class="edge">
<title>y:f1&#45;&gt;lista2</title>
<path fill="none" stroke="black" d="M36,-54.8C43.94,-54.8 52.56,-54.85 60.48,-54.92"/>
<polygon fill="black" stroke="black" points="60.27,-58.42 70.3,-55.02 60.34,-51.42 60.27,-58.42"/>
</g>
<!-- x -->
<g id="node2" class="node">
<title>x</title>
<polygon fill="white" stroke="black" points="72,-3.45 72,-25.05 108,-25.05 108,-3.45 72,-3.45"/>
<text xml:space="preserve" text-anchor="middle" x="81.25" y="-9.7" font-family="monospace" font-size="13.00">x</text>
<polyline fill="none" stroke="black" points="90.5,-2.55 90.5,-25.05"/>
<text xml:space="preserve" text-anchor="middle" x="99.25" y="-8.2" font-family="monospace" font-size="13.00">⬤</text>
</g>
<!-- lista1 -->
<g id="node6" class="node">
<title>lista1</title>
<polygon fill="white" stroke="black" points="144,-44.45 144,-66.05 194.4,-66.05 194.4,-44.45 144,-44.45"/>
<text xml:space="preserve" text-anchor="middle" x="152.75" y="-49.7" font-family="monospace" font-size="13.00">⬤</text>
<polyline fill="none" stroke="black" points="161.5,-44.55 161.5,-66.05"/>
<text xml:space="preserve" text-anchor="middle" x="169.75" y="-49.7" font-family="monospace" font-size="13.00">⬤</text>
<polyline fill="none" stroke="black" points="178,-44.55 178,-66.05"/>
<text xml:space="preserve" text-anchor="middle" x="186.25" y="-49.7" font-family="monospace" font-size="13.00">⬤</text>
</g>
<!-- x&#45;&gt;lista1 -->
<g id="edge6" class="edge">
<title>x:f1&#45;&gt;lista1</title>
<path fill="none" stroke="black" d="M108,-13.8C125.02,-13.8 140.73,-25.18 151.83,-36.02"/>
<polygon fill="black" stroke="black" points="149.25,-38.37 158.65,-43.26 154.35,-33.58 149.25,-38.37"/>
</g>
<!-- 1 -->
<g id="node3" class="node">
<title>1</title>
<ellipse fill="white" stroke="black" cx="242.15" cy="-98.25" rx="10.8" ry="10.8"/>
<text xml:space="preserve" text-anchor="middle" x="242.15" y="-94.15" font-family="monospace" font-size="13.00">1</text>
</g>
<!-- 3 -->
<g id="node4" class="node">
<title>3</title>
<ellipse fill="white" stroke="black" cx="242.15" cy="-55.25" rx="10.8" ry="10.8"/>
<text xml:space="preserve" text-anchor="middle" x="242.15" y="-51.15" font-family="monospace" font-size="13.00">3</text>
</g>
<!-- 2 -->
<g id="node5" class="node">
<title>2</title>
<ellipse fill="white" stroke="black" cx="242.15" cy="-12.25" rx="10.8" ry="10.8"/>
<text xml:space="preserve" text-anchor="middle" x="242.15" y="-8.15" font-family="monospace" font-size="13.00">2</text>
</g>
<!-- lista1&#45;&gt;1 -->
<g id="edge1" class="edge">
<title>lista1:f0&#45;&gt;1</title>
<path fill="none" stroke="black" d="M152.75,-67.05C152.75,-95.58 194.21,-99.67 220.34,-99.41"/>
<polygon fill="black" stroke="black" points="220.3,-102.91 230.18,-99.07 220.06,-95.92 220.3,-102.91"/>
</g>
<!-- lista1&#45;&gt;3 -->
<g id="edge3" class="edge">
<title>lista1:f2&#45;&gt;3</title>
<path fill="none" stroke="black" d="M194.4,-55.3C202.82,-55.3 212.08,-55.29 220.13,-55.28"/>
<polygon fill="black" stroke="black" points="219.97,-58.78 229.97,-55.27 219.96,-51.78 219.97,-58.78"/>
</g>
<!-- lista1&#45;&gt;2 -->
<g id="edge2" class="edge">
<title>lista1:f1&#45;&gt;2</title>
<path fill="none" stroke="black" d="M169.75,-43.55C169.75,-21.37 199.02,-14.76 220.08,-12.87"/>
<polygon fill="black" stroke="black" points="220.22,-16.37 230.01,-12.31 219.83,-9.38 220.22,-16.37"/>
</g>
<!-- lista2&#45;&gt;lista1 -->
<g id="edge4" class="edge">
<title>lista2:n&#45;&gt;lista1</title>
<path fill="none" stroke="black" d="M81.25,-67.05C81.25,-90.11 111.65,-81.77 136.5,-71.11"/>
<polygon fill="black" stroke="black" points="137.67,-74.42 145.33,-67.1 134.78,-68.05 137.67,-74.42"/>
</g>
<!-- lista2&#45;&gt;lista1 -->
<g id="edge5" class="edge">
<title>lista2:f1&#45;&gt;lista1</title>
<path fill="none" stroke="black" d="M108,-55.3C115.86,-55.3 124.31,-55.3 132.31,-55.29"/>
<polygon fill="black" stroke="black" points="132.09,-58.79 142.08,-55.28 132.08,-51.79 132.09,-58.79"/>
</g>
</g>
</svg>
