<?xml version="1.0" encoding="UTF-8" standalone="no"?>
<!DOCTYPE svg PUBLIC "-//W3C//DTD SVG 1.1//EN"
 "http://www.w3.org/Graphics/SVG/1.1/DTD/svg11.dtd">
<!-- Generated by graphviz version 14.1.1 (0)
 -->
<!-- Pages: 1 -->
<svg width="269pt" height="205pt"
 viewBox="0.00 0.00 269.00 205.00" xmlns="http://www.w3.org/2000/svg" xmlns:xlink="http://www.w3.org/1999/xlink">
<g id="graph0" class="graph" transform="scale(1 1) rotate(0) translate(4 200.5)">
<!-- y -->
<g id="node1" class="node">
<title>y</title>
<polygon fill="white" stroke="black" points="0,-87.45 0,-109.05 36,-109.05 36,-87.45 0,-87.45"/>
<text xml:space="preserve" text-anchor="middle" x="9.25" y="-93.7" font-family="monospace" font-size="13.00">y</text>
<polyline fill="none" stroke="black" points="18.5,-86.55 18.5,-109.05"/>
<text xml:space="preserve" text-anchor="middle" x="27.25" y="-92.2" font-family="monospace" font-size="13.00">⬤</text>
</g>
<!-- lista2 -->
<g id="node9" class="node">
<title>lista2</title>
<polygon fill="white" stroke="black" points="72,-87.45 72,-109.05 108,-109.05 108,-87.45 72,-87.45"/>
<text xml:space="preserve" text-anchor="middle" x="81.25" y="-92.7" font-family="monospace" font-size="13.00">⬤</text>
<polyline fill="none" stroke="black" points="90.5,-87.55 90.5,-109.05"/>
<text xml:space="preserve" text-anchor="middle" x="99.25" y="-92.7" font-family="monospace" font-size="13.00">⬤</text>
</g>
<!-- y&#45;&gt;lista2 -->
<g id="edge9" class="edge">
<title>y:f1&#45;&gt;lista2</title>
<path fill="none" stroke="black" d="M36,-97.8C43.94,-97.8 52.56,-97.85 60.48,-97.92"/>
<polygon fill="black" stroke="black" points="60.27,-101.42 70.3,-98.02 60.34,-94.42 60.27,-101.42"/>
</g>
<!-- x -->
<g id="node2" class="node">
<title>x</title>
<polygon fill="white" stroke="black" points="72,-46.45 72,-68.05 108,-68.05 108,-46.45 72,-46.45"/>
<text xml:space="preserve" text-anchor="middle" x="81.25" y="-52.7" font-family="monospace" font-size="13.00">x</text>
<polyline fill="none" stroke="black" points="90.5,-45.55 90.5,-68.05"/>
<text xml:space="preserve" text-anchor="middle" x="99.25" y="-51.2" font-family="monospace" font-size="13.00">⬤</text>
</g>
<!-- lista1 -->
<g id="node8" class="node">
<title>lista1</title>
<polygon fill="white" stroke="black" points="144,-87.45 144,-109.05 194.4,-109.05 194.4,-87.45 144,-87.45"/>
<text xml:space="preserve" text-anchor="middle" x="152.75" y="-92.7" font-family="monospace" font-size="13.00">⬤</text>
<polyline fill="none" stroke="black" points="161.5,-87.55 161.5,-109.05"/>
<text xml:space="preserve" text-anchor="middle" x="169.75" y="-92.7" font-family="monospace" font-size="13.00">⬤</text>
<polyline fill="none" stroke="black" points="178,-87.55 178,-109.05"/>
<text xml:space="preserve" text-anchor="middle" x="186.25" y="-92.7" font-family="monospace" font-size="13.00">⬤</text>
</g>
<!-- x&#45;&gt;lista1 -->
<g id="edge8" class="edge">
<title>x:f1&#45;&gt;lista1</title>
<path fill="none" stroke="black" d="M108,-56.8C125.02,-56.8 140.73,-68.18 151.83,-79.02"/>
<polygon fill="black" stroke="black" points="149.25,-81.37 158.65,-86.26 154.35,-76.58 149.25,-81.37"/>
</g>
<!-- 1 -->
<g id="node3" class="node">
<title>1</title>
<ellipse fill="white" stroke="black" cx="245.9" cy="-184.25" rx="10.8" ry="10.8"/>
<text xml:space="preserve" text-anchor="middle" x="245.9" y="-180.15" font-family="monospace" font-size="13.00">1</text>
</g>
<!-- 2 -->
<g id="node4" class="node">
<title>2</title>
<ellipse fill="white" stroke="black" cx="245.9" cy="-141.25" rx="10.8" ry="10.8"/>
<text xml:space="preserve" text-anchor="middle" x="245.9" y="-137.15" font-family="monospace" font-size="13.00">2</text>
</g>
<!-- 3 -->
<g id="node5" class="node">
<title>3</title>
<ellipse fill="white" stroke="black" cx="245.9" cy="-98.25" rx="10.8" ry="10.8"/>
<text xml:space="preserve" text-anchor="middle" x="245.9" y="-94.15" font-family="monospace" font-size="13.00">3</text>
</g>
<!-- 77 -->
<g id="node6" class="node">
<title>77</title>
<ellipse fill="white" stroke="black" cx="245.9" cy="-55.25" rx="10.8" ry="10.8"/>
<text xml:space="preserve" text-anchor="middle" x="245.9" y="-51.15" font-family="monospace" font-size="13.00">77</text>
</g>
<!-- 99 -->
<g id="node7" class="node">
<title>99</title>
<ellipse fill="white" stroke="black" cx="245.9" cy="-12.25" rx="10.8" ry="10.8"/>
<text xml:space="preserve" text-anchor="middle" x="245.9" y="-8.15" font-family="monospace" font-size="13.00">99</text>
</g>
<!-- lista1&#45;&gt;1 -->
<g id="edge1" class="edge">
<title>lista1:f0&#45;&gt;1</title>
<path fill="none" stroke="grey" stroke-dasharray="5,2" d="M152.75,-110.05C152.75,-146.91 198.03,-168.55 225.11,-178.2"/>
<polygon fill="grey" stroke="grey" points="223.7,-181.42 234.29,-181.23 225.89,-174.77 223.7,-181.42"/>
</g>
<!-- lista1&#45;&gt;2 -->
<g id="edge2" class="edge">
<title>lista1:f1&#45;&gt;2</title>
<path fill="none" stroke="grey" stroke-dasharray="5,2" d="M169.75,-110.05C169.75,-133.66 201.78,-139.74 224.02,-141.12"/>
<polygon fill="grey" stroke="grey" points="223.76,-144.61 233.87,-141.43 223.99,-137.61 223.76,-144.61"/>
</g>
<!-- lista1&#45;&gt;3 -->
<g id="edge5" class="edge">
<title>lista1:f2&#45;&gt;3</title>
<path fill="none" stroke="black" d="M194.4,-98.3C204.05,-98.3 214.75,-98.29 223.8,-98.28"/>
<polygon fill="black" stroke="black" points="223.71,-101.78 233.71,-98.27 223.7,-94.78 223.71,-101.78"/>
</g>
<!-- lista1&#45;&gt;77 -->
<g id="edge4" class="edge">
<title>lista1:f1&#45;&gt;77</title>
<path fill="none" stroke="black" d="M169.75,-86.55C169.75,-62.93 201.78,-56.81 224.02,-55.41"/>
<polygon fill="black" stroke="black" points="223.99,-58.91 233.87,-55.08 223.76,-51.91 223.99,-58.91"/>
</g>
<!-- lista1&#45;&gt;99 -->
<g id="edge3" class="edge">
<title>lista1:f0&#45;&gt;99</title>
<path fill="none" stroke="black" d="M152.75,-86.55C152.75,-49.67 198.03,-27.99 225.11,-18.32"/>
<polygon fill="black" stroke="black" points="225.9,-21.74 234.29,-15.28 223.7,-15.1 225.9,-21.74"/>
</g>
<!-- lista2&#45;&gt;lista1 -->
<g id="edge6" class="edge">
<title>lista2:n&#45;&gt;lista1</title>
<path fill="none" stroke="black" d="M81.25,-110.05C81.25,-133.11 111.65,-124.77 136.5,-114.11"/>
<polygon fill="black" stroke="black" points="137.67,-117.42 145.33,-110.1 134.78,-111.05 137.67,-117.42"/>
</g>
<!-- lista2&#45;&gt;lista1 -->
<g id="edge7" class="edge">
<title>lista2:f1&#45;&gt;lista1</title>
<path fill="none" stroke="black" d="M108,-98.3C115.86,-98.3 124.31,-98.3 132.31,-98.29"/>
<polygon fill="black" stroke="black" points="132.09,-101.79 142.08,-98.28 132.08,-94.79 132.09,-101.79"/>
</g>
</g>
</svg>
