<?xml version="1.0" encoding="UTF-8" standalone="no"?>
<!DOCTYPE svg PUBLIC "-//W3C//DTD SVG 1.1//EN"
 "http://www.w3.org/Graphics/SVG/1.1/DTD/svg11.dtd">
<!-- Generated by graphviz version 2.43.0 (0)
 -->
<!-- Title: %3 Pages: 1 -->
<svg width="281pt" height="295pt"
 viewBox="0.00 0.00 281.00 295.00" xmlns="http://www.w3.org/2000/svg" xmlns:xlink="http://www.w3.org/1999/xlink">
<g id="graph0" class="graph" transform="scale(1 1) rotate(0) translate(4 291)">
<title>%3</title>
<!-- x -->
<g id="node1" class="node">
<title>x</title>
<polygon fill="white" stroke="black" points="0,-153.5 0,-189.5 50,-189.5 50,-153.5 0,-153.5"/>
<text text-anchor="middle" x="12.5" y="-168.1" font-family="monospace" font-size="13.00">x</text>
<polyline fill="none" stroke="black" points="25,-153.5 25,-189.5 "/>
<text text-anchor="middle" x="37.5" y="-168.1" font-family="monospace" font-size="13.00">⬤</text>
</g>
<!-- lista -->
<g id="node3" class="node">
<title>lista</title>
<polygon fill="white" stroke="black" points="86,-125.5 86,-161.5 194,-161.5 194,-125.5 86,-125.5"/>
<text text-anchor="middle" x="99.5" y="-140.1" font-family="monospace" font-size="13.00">⬤</text>
<polyline fill="none" stroke="black" points="113,-125.5 113,-161.5 "/>
<text text-anchor="middle" x="126.5" y="-140.1" font-family="monospace" font-size="13.00">⬤</text>
<polyline fill="none" stroke="black" points="140,-125.5 140,-161.5 "/>
<text text-anchor="middle" x="153.5" y="-140.1" font-family="monospace" font-size="13.00">⬤</text>
<polyline fill="none" stroke="black" points="167,-125.5 167,-161.5 "/>
<text text-anchor="middle" x="180.5" y="-140.1" font-family="monospace" font-size="13.00">⬤</text>
</g>
<!-- x&#45;&gt;lista -->
<g id="edge6" class="edge">
<title>x:f1&#45;&gt;lista</title>
<path fill="none" stroke="black" d="M50,-171.5C63.3,-171.5 77.21,-168.62 89.99,-164.71"/>
<polygon fill="black" stroke="black" points="91.12,-168.02 99.51,-161.55 88.91,-161.38 91.12,-168.02"/>
</g>
<!-- y -->
<g id="node2" class="node">
<title>y</title>
<polygon fill="white" stroke="black" points="0,-98.5 0,-134.5 50,-134.5 50,-98.5 0,-98.5"/>
<text text-anchor="middle" x="12.5" y="-113.1" font-family="monospace" font-size="13.00">y</text>
<polyline fill="none" stroke="black" points="25,-98.5 25,-134.5 "/>
<text text-anchor="middle" x="37.5" y="-113.1" font-family="monospace" font-size="13.00">⬤</text>
</g>
<!-- y&#45;&gt;lista -->
<g id="edge7" class="edge">
<title>y:f1&#45;&gt;lista</title>
<path fill="none" stroke="black" d="M50,-116.5C62.61,-116.5 75.82,-119.01 88.07,-122.51"/>
<polygon fill="black" stroke="black" points="87.08,-125.87 97.67,-125.49 89.16,-119.18 87.08,-125.87"/>
</g>
<!-- 66 -->
<g id="node4" class="node">
<title>66</title>
<ellipse fill="white" stroke="black" cx="251.5" cy="-265.5" rx="21.5" ry="21.5"/>
<text text-anchor="middle" x="251.5" y="-262.1" font-family="monospace" font-size="13.00">66</text>
</g>
<!-- lista&#45;&gt;66 -->
<g id="edge1" class="edge">
<title>lista:f0&#45;&gt;66</title>
<path fill="none" stroke="black" d="M99,-162.5C99,-220.51 175.89,-248.14 220.12,-259.24"/>
<polygon fill="black" stroke="black" points="219.53,-262.69 230.07,-261.59 221.14,-255.88 219.53,-262.69"/>
</g>
<!-- 77 -->
<g id="node5" class="node">
<title>77</title>
<ellipse fill="white" stroke="black" cx="251.5" cy="-204.5" rx="21.5" ry="21.5"/>
<text text-anchor="middle" x="251.5" y="-201.1" font-family="monospace" font-size="13.00">77</text>
</g>
<!-- lista&#45;&gt;77 -->
<g id="edge2" class="edge">
<title>lista:f1&#45;&gt;77</title>
<path fill="none" stroke="black" d="M126,-162.5C126,-201.95 182.81,-207.27 219.68,-206.56"/>
<polygon fill="black" stroke="black" points="220.07,-210.05 229.94,-206.21 219.83,-203.06 220.07,-210.05"/>
</g>
<!-- 99 -->
<g id="node6" class="node">
<title>99</title>
<ellipse fill="white" stroke="black" cx="251.5" cy="-143.5" rx="21.5" ry="21.5"/>
<text text-anchor="middle" x="251.5" y="-140.1" font-family="monospace" font-size="13.00">99</text>
</g>
<!-- lista&#45;&gt;99 -->
<g id="edge5" class="edge">
<title>lista:f3&#45;&gt;99</title>
<path fill="none" stroke="black" d="M194,-143.5C202.35,-143.5 211.38,-143.5 219.73,-143.5"/>
<polygon fill="black" stroke="black" points="219.84,-147 229.84,-143.5 219.84,-140 219.84,-147"/>
</g>
<!-- 40 -->
<g id="node7" class="node">
<title>40</title>
<ellipse fill="white" stroke="black" cx="251.5" cy="-82.5" rx="21.5" ry="21.5"/>
<text text-anchor="middle" x="251.5" y="-79.1" font-family="monospace" font-size="13.00">40</text>
</g>
<!-- lista&#45;&gt;40 -->
<g id="edge4" class="edge">
<title>lista:f2&#45;&gt;40</title>
<path fill="none" stroke="black" d="M154,-124.5C154,-95.5 191.1,-86.31 219.29,-83.52"/>
<polygon fill="black" stroke="black" points="219.86,-86.99 229.56,-82.74 219.32,-80.01 219.86,-86.99"/>
</g>
<!-- 88 -->
<g id="node8" class="node">
<title>88</title>
<ellipse fill="white" stroke="black" cx="251.5" cy="-21.5" rx="21.5" ry="21.5"/>
<text text-anchor="middle" x="251.5" y="-18.1" font-family="monospace" font-size="13.00">88</text>
</g>
<!-- lista&#45;&gt;88 -->
<g id="edge3" class="edge">
<title>lista:f2&#45;&gt;88</title>
<path fill="none" stroke="grey" stroke-dasharray="5,2" d="M154,-124.5C154,-83.82 194.59,-52.58 223.12,-35.65"/>
<polygon fill="grey" stroke="grey" points="224.93,-38.65 231.89,-30.66 221.47,-32.56 224.93,-38.65"/>
</g>
</g>
</svg>
