<?xml version="1.0" encoding="UTF-8" standalone="no"?>
<!DOCTYPE svg PUBLIC "-//W3C//DTD SVG 1.1//EN"
 "http://www.w3.org/Graphics/SVG/1.1/DTD/svg11.dtd">
<!-- Generated by graphviz version 2.43.0 (0)
 -->
<!-- Title: %3 Pages: 1 -->
<svg width="146pt" height="210pt"
 viewBox="0.00 0.00 146.00 210.00" xmlns="http://www.w3.org/2000/svg" xmlns:xlink="http://www.w3.org/1999/xlink">
<g id="graph0" class="graph" transform="scale(1 1) rotate(0) translate(4 206)">
<title>%3</title>
<!-- y -->
<g id="node1" class="node">
<title>y</title>
<polygon fill="transparent" stroke="transparent" points="54,-130 0,-130 0,-94 54,-94 54,-130"/>
<text text-anchor="middle" x="27" y="-108.6" font-family="monospace" font-size="13.00">y</text>
</g>
<!-- v2 -->
<g id="node5" class="node">
<title>v2</title>
<polygon fill="white" stroke="black" points="38,-40 16,-40 16,-18 38,-18 38,-40"/>
<text text-anchor="middle" x="27" y="-25.6" font-family="monospace" font-size="13.00">⬤</text>
</g>
<!-- y&#45;&gt;v2 -->
<g id="edge3" class="edge">
<title>y&#45;&gt;v2</title>
<path fill="none" stroke="black" d="M27,-93.99C27,-93.99 27,-50.1 27,-50.1"/>
<polygon fill="black" stroke="black" points="30.5,-50.1 27,-40.1 23.5,-50.1 30.5,-50.1"/>
</g>
<!-- x -->
<g id="node2" class="node">
<title>x</title>
<polygon fill="transparent" stroke="transparent" points="138,-202 84,-202 84,-166 138,-166 138,-202"/>
<text text-anchor="middle" x="111" y="-180.6" font-family="monospace" font-size="13.00">x</text>
</g>
<!-- v1 -->
<g id="node6" class="node">
<title>v1</title>
<polygon fill="white" stroke="black" points="122,-123 100,-123 100,-101 122,-101 122,-123"/>
<text text-anchor="middle" x="111" y="-108.6" font-family="monospace" font-size="13.00">⬤</text>
</g>
<!-- x&#45;&gt;v1 -->
<g id="edge1" class="edge">
<title>x&#45;&gt;v1</title>
<path fill="none" stroke="black" d="M111,-165.83C111,-165.83 111,-133.41 111,-133.41"/>
<polygon fill="black" stroke="black" points="114.5,-133.41 111,-123.41 107.5,-133.41 114.5,-133.41"/>
</g>
<!-- lista1 -->
<g id="node3" class="node">
<title>lista1</title>
<polygon fill="white" stroke="black" points="96.5,-0.5 96.5,-57.5 125.5,-57.5 125.5,-0.5 96.5,-0.5"/>
<text text-anchor="middle" x="111" y="-45.5" font-family="monospace" font-size="10.00">99</text>
<polyline fill="none" stroke="black" points="96.5,-38.5 125.5,-38.5 "/>
<text text-anchor="middle" x="111" y="-26.5" font-family="monospace" font-size="10.00">77</text>
<polyline fill="none" stroke="black" points="96.5,-19.5 125.5,-19.5 "/>
<text text-anchor="middle" x="111" y="-7.5" font-family="monospace" font-size="10.00">3</text>
</g>
<!-- lista2 -->
<g id="node4" class="node">
<title>lista2</title>
<polygon fill="white" stroke="black" points="56,-11 56,-47 78,-47 78,-11 56,-11"/>
<text text-anchor="middle" x="67" y="-34.6" font-family="monospace" font-size="13.00">⬤</text>
<polyline fill="none" stroke="black" points="56,-29 78,-29 "/>
<text text-anchor="middle" x="67" y="-16.6" font-family="monospace" font-size="13.00">⬤</text>
</g>
<!-- lista2&#45;&gt;lista1 -->
<g id="edge5" class="edge">
<title>lista2:f0&#45;&gt;lista1</title>
<path fill="none" stroke="black" d="M78.1,-35C78.1,-35 86.24,-35 86.24,-35"/>
<polygon fill="black" stroke="black" points="86.24,-38.5 96.24,-35 86.24,-31.5 86.24,-38.5"/>
</g>
<!-- lista2&#45;&gt;lista1 -->
<g id="edge6" class="edge">
<title>lista2:f1&#45;&gt;lista1</title>
<path fill="none" stroke="black" d="M78.1,-22C78.1,-22 86.24,-22 86.24,-22"/>
<polygon fill="black" stroke="black" points="86.24,-25.5 96.24,-22 86.24,-18.5 86.24,-25.5"/>
</g>
<!-- v2&#45;&gt;lista2 -->
<g id="edge4" class="edge">
<title>v2&#45;&gt;lista2</title>
<path fill="none" stroke="black" d="M38.36,-28C38.36,-28 45.75,-28 45.75,-28"/>
<polygon fill="black" stroke="black" points="45.75,-31.5 55.75,-28 45.75,-24.5 45.75,-31.5"/>
</g>
<!-- v1&#45;&gt;lista1 -->
<g id="edge2" class="edge">
<title>v1&#45;&gt;lista1</title>
<path fill="none" stroke="black" d="M111,-100.81C111,-100.81 111,-67.83 111,-67.83"/>
<polygon fill="black" stroke="black" points="114.5,-67.83 111,-57.83 107.5,-67.83 114.5,-67.83"/>
</g>
</g>
</svg>
