<?xml version="1.0" encoding="UTF-8" standalone="no"?>
<!DOCTYPE svg PUBLIC "-//W3C//DTD SVG 1.1//EN"
 "http://www.w3.org/Graphics/SVG/1.1/DTD/svg11.dtd">
<!-- Generated by graphviz version 14.0.5 (0)
 -->
<!-- Pages: 1 -->
<svg width="282pt" height="417pt"
 viewBox="0.00 0.00 282.00 417.00" xmlns="http://www.w3.org/2000/svg" xmlns:xlink="http://www.w3.org/1999/xlink">
<g id="graph0" class="graph" transform="scale(1 1) rotate(0) translate(4 413.2)">
<!-- x -->
<g id="node1" class="node">
<title>x</title>
<polygon fill="white" stroke="black" points="0,-247.6 0,-283.6 50.4,-283.6 50.4,-247.6 0,-247.6"/>
<text xml:space="preserve" text-anchor="middle" x="12.5" y="-261.25" font-family="monospace" font-size="13.00">x</text>
<polyline fill="none" stroke="black" points="25,-248 25,-283.6"/>
<text xml:space="preserve" text-anchor="middle" x="37.5" y="-261.25" font-family="monospace" font-size="13.00">⬤</text>
</g>
<!-- lista1 -->
<g id="node3" class="node">
<title>lista1</title>
<polygon fill="white" stroke="black" points="86.4,-247.6 86.4,-283.6 194.4,-283.6 194.4,-247.6 86.4,-247.6"/>
<text xml:space="preserve" text-anchor="middle" x="99.9" y="-261.25" font-family="monospace" font-size="13.00">⬤</text>
<polyline fill="none" stroke="black" points="113.4,-248 113.4,-283.6"/>
<text xml:space="preserve" text-anchor="middle" x="126.9" y="-261.25" font-family="monospace" font-size="13.00">⬤</text>
<polyline fill="none" stroke="black" points="140.4,-248 140.4,-283.6"/>
<text xml:space="preserve" text-anchor="middle" x="153.9" y="-261.25" font-family="monospace" font-size="13.00">⬤</text>
<polyline fill="none" stroke="black" points="167.4,-248 167.4,-283.6"/>
<text xml:space="preserve" text-anchor="middle" x="180.9" y="-261.25" font-family="monospace" font-size="13.00">⬤</text>
</g>
<!-- x&#45;&gt;lista1 -->
<g id="edge8" class="edge">
<title>x:f1&#45;&gt;lista1</title>
<path fill="none" stroke="black" d="M50.4,-265.8C58.28,-265.8 66.55,-265.79 74.74,-265.78"/>
<polygon fill="black" stroke="black" points="74.71,-269.28 84.71,-265.76 74.7,-262.28 74.71,-269.28"/>
</g>
<!-- y -->
<g id="node2" class="node">
<title>y</title>
<polygon fill="white" stroke="black" points="0,-137.6 0,-173.6 50.4,-173.6 50.4,-137.6 0,-137.6"/>
<text xml:space="preserve" text-anchor="middle" x="12.5" y="-151.25" font-family="monospace" font-size="13.00">y</text>
<polyline fill="none" stroke="black" points="25,-138 25,-173.6"/>
<text xml:space="preserve" text-anchor="middle" x="37.5" y="-151.25" font-family="monospace" font-size="13.00">⬤</text>
</g>
<!-- y&#45;&gt;lista1 -->
<g id="edge9" class="edge">
<title>y:f1&#45;&gt;lista1</title>
<path fill="none" stroke="grey" stroke-dasharray="5,2" d="M37.5,-174.6C37.5,-204.12 61.59,-226.45 86.35,-241.6"/>
<polygon fill="grey" stroke="grey" points="84.46,-244.55 94.87,-246.5 87.95,-238.48 84.46,-244.55"/>
</g>
<!-- lista2 -->
<g id="node4" class="node">
<title>lista2</title>
<polygon fill="white" stroke="black" points="86.4,-95.6 86.4,-131.6 194.4,-131.6 194.4,-95.6 86.4,-95.6"/>
<text xml:space="preserve" text-anchor="middle" x="104.4" y="-109.25" font-family="monospace" font-size="13.00">⬤</text>
<polyline fill="none" stroke="black" points="122.4,-96 122.4,-131.6"/>
<text xml:space="preserve" text-anchor="middle" x="140.4" y="-109.25" font-family="monospace" font-size="13.00">⬤</text>
<polyline fill="none" stroke="black" points="158.4,-96 158.4,-131.6"/>
<text xml:space="preserve" text-anchor="middle" x="176.4" y="-109.25" font-family="monospace" font-size="13.00">⬤</text>
</g>
<!-- y&#45;&gt;lista2 -->
<g id="edge10" class="edge">
<title>y:s&#45;&gt;lista2</title>
<path fill="none" stroke="black" d="M37.5,-137C37.5,-118.01 54.52,-110.63 74.65,-108.55"/>
<polygon fill="black" stroke="black" points="74.77,-112.05 84.55,-107.98 74.37,-105.06 74.77,-112.05"/>
</g>
<!-- 66 -->
<g id="node5" class="node">
<title>66</title>
<ellipse fill="white" stroke="black" cx="252" cy="-387.6" rx="21.6" ry="21.6"/>
<text xml:space="preserve" text-anchor="middle" x="252" y="-383.05" font-family="monospace" font-size="13.00">66</text>
</g>
<!-- lista1&#45;&gt;66 -->
<g id="edge1" class="edge">
<title>lista1:f0&#45;&gt;66</title>
<path fill="none" stroke="black" d="M99.9,-284.6C99.9,-342.16 175.68,-369.85 219.91,-381.11"/>
<polygon fill="black" stroke="black" points="218.92,-384.47 229.46,-383.39 220.55,-377.66 218.92,-384.47"/>
</g>
<!-- 77 -->
<g id="node6" class="node">
<title>77</title>
<ellipse fill="white" stroke="black" cx="252" cy="-326.6" rx="21.6" ry="21.6"/>
<text xml:space="preserve" text-anchor="middle" x="252" y="-322.05" font-family="monospace" font-size="13.00">77</text>
</g>
<!-- lista1&#45;&gt;77 -->
<g id="edge2" class="edge">
<title>lista1:f1&#45;&gt;77</title>
<path fill="none" stroke="black" d="M126.9,-284.6C126.9,-323.6 182.56,-329.2 219.33,-328.64"/>
<polygon fill="black" stroke="black" points="219.11,-332.15 228.99,-328.33 218.89,-325.16 219.11,-332.15"/>
</g>
<!-- 99 -->
<g id="node7" class="node">
<title>99</title>
<ellipse fill="white" stroke="black" cx="252" cy="-265.6" rx="21.6" ry="21.6"/>
<text xml:space="preserve" text-anchor="middle" x="252" y="-261.05" font-family="monospace" font-size="13.00">99</text>
</g>
<!-- lista1&#45;&gt;99 -->
<g id="edge4" class="edge">
<title>lista1:f3&#45;&gt;99</title>
<path fill="none" stroke="black" d="M194.4,-265.8C202.45,-265.8 211.15,-265.78 219.26,-265.75"/>
<polygon fill="black" stroke="black" points="219.07,-269.25 229.05,-265.71 219.04,-262.25 219.07,-269.25"/>
</g>
<!-- 88 -->
<g id="node8" class="node">
<title>88</title>
<ellipse fill="white" stroke="black" cx="252" cy="-204.6" rx="21.6" ry="21.6"/>
<text xml:space="preserve" text-anchor="middle" x="252" y="-200.05" font-family="monospace" font-size="13.00">88</text>
</g>
<!-- lista1&#45;&gt;88 -->
<g id="edge3" class="edge">
<title>lista1:f2&#45;&gt;88</title>
<path fill="none" stroke="black" d="M153.9,-247C153.9,-218.03 190.65,-208.66 218.94,-205.73"/>
<polygon fill="black" stroke="black" points="219.2,-209.22 228.9,-204.96 218.66,-202.24 219.2,-209.22"/>
</g>
<!-- 1 -->
<g id="node9" class="node">
<title>1</title>
<ellipse fill="white" stroke="black" cx="252" cy="-143.6" rx="21.6" ry="21.6"/>
<text xml:space="preserve" text-anchor="middle" x="252" y="-139.05" font-family="monospace" font-size="13.00">1</text>
</g>
<!-- lista2&#45;&gt;1 -->
<g id="edge5" class="edge">
<title>lista2:f0&#45;&gt;1</title>
<path fill="none" stroke="black" d="M104.4,-132.6C104.4,-178.77 177.61,-165.18 220.56,-153.23"/>
<polygon fill="black" stroke="black" points="221.46,-156.62 230.08,-150.46 219.5,-149.9 221.46,-156.62"/>
</g>
<!-- 3 -->
<g id="node10" class="node">
<title>3</title>
<ellipse fill="white" stroke="black" cx="252" cy="-82.6" rx="21.6" ry="21.6"/>
<text xml:space="preserve" text-anchor="middle" x="252" y="-78.05" font-family="monospace" font-size="13.00">3</text>
</g>
<!-- lista2&#45;&gt;3 -->
<g id="edge7" class="edge">
<title>lista2:f2&#45;&gt;3</title>
<path fill="none" stroke="black" d="M194.4,-113.8C205.89,-113.8 217.25,-108.81 226.74,-102.81"/>
<polygon fill="black" stroke="black" points="228.48,-105.87 234.64,-97.25 224.45,-100.14 228.48,-105.87"/>
</g>
<!-- 2 -->
<g id="node11" class="node">
<title>2</title>
<ellipse fill="white" stroke="black" cx="252" cy="-21.6" rx="21.6" ry="21.6"/>
<text xml:space="preserve" text-anchor="middle" x="252" y="-17.05" font-family="monospace" font-size="13.00">2</text>
</g>
<!-- lista2&#45;&gt;2 -->
<g id="edge6" class="edge">
<title>lista2:f1&#45;&gt;2</title>
<path fill="none" stroke="black" d="M140.4,-95C140.4,-56.55 187.37,-37.04 220.09,-28.12"/>
<polygon fill="black" stroke="black" points="220.66,-31.59 229.5,-25.76 218.95,-24.8 220.66,-31.59"/>
</g>
</g>
</svg>
