<?xml version="1.0" encoding="UTF-8" standalone="no"?>
<!DOCTYPE svg PUBLIC "-//W3C//DTD SVG 1.1//EN"
 "http://www.w3.org/Graphics/SVG/1.1/DTD/svg11.dtd">
<!-- Generated by graphviz version 2.43.0 (0)
 -->
<!-- Title: %3 Pages: 1 -->
<svg width="262pt" height="112pt"
 viewBox="0.00 0.00 262.00 111.50" xmlns="http://www.w3.org/2000/svg" xmlns:xlink="http://www.w3.org/1999/xlink">
<g id="graph0" class="graph" transform="scale(1 1) rotate(0) translate(4 107.5)">
<title>%3</title>
<!-- y -->
<g id="node1" class="node">
<title>y</title>
<polygon fill="white" stroke="black" points="0,-41.5 0,-63.5 36,-63.5 36,-41.5 0,-41.5"/>
<text text-anchor="middle" x="9" y="-49.1" font-family="monospace" font-size="13.00">y</text>
<polyline fill="none" stroke="black" points="18,-41.5 18,-63.5 "/>
<text text-anchor="middle" x="27" y="-49.1" font-family="monospace" font-size="13.00">⬤</text>
</g>
<!-- lista2 -->
<g id="node7" class="node">
<title>lista2</title>
<polygon fill="white" stroke="black" points="72,-41.5 72,-63.5 108,-63.5 108,-41.5 72,-41.5"/>
<text text-anchor="middle" x="81" y="-49.1" font-family="monospace" font-size="13.00">⬤</text>
<polyline fill="none" stroke="black" points="90,-41.5 90,-63.5 "/>
<text text-anchor="middle" x="99" y="-49.1" font-family="monospace" font-size="13.00">⬤</text>
</g>
<!-- y&#45;&gt;lista2 -->
<g id="edge7" class="edge">
<title>y:f1&#45;&gt;lista2</title>
<path fill="none" stroke="black" d="M36,-52.5C44.32,-52.5 53.37,-52.5 61.6,-52.5"/>
<polygon fill="black" stroke="black" points="61.81,-56 71.81,-52.5 61.81,-49 61.81,-56"/>
</g>
<!-- x -->
<g id="node2" class="node">
<title>x</title>
<polygon fill="white" stroke="black" points="72,-0.5 72,-22.5 108,-22.5 108,-0.5 72,-0.5"/>
<text text-anchor="middle" x="81" y="-8.1" font-family="monospace" font-size="13.00">x</text>
<polyline fill="none" stroke="black" points="90,-0.5 90,-22.5 "/>
<text text-anchor="middle" x="99" y="-8.1" font-family="monospace" font-size="13.00">⬤</text>
</g>
<!-- lista1 -->
<g id="node6" class="node">
<title>lista1</title>
<polygon fill="white" stroke="black" points="144,-41.5 144,-63.5 194,-63.5 194,-41.5 144,-41.5"/>
<text text-anchor="middle" x="152.5" y="-49.1" font-family="monospace" font-size="13.00">⬤</text>
<polyline fill="none" stroke="black" points="161,-41.5 161,-63.5 "/>
<text text-anchor="middle" x="169.5" y="-49.1" font-family="monospace" font-size="13.00">⬤</text>
<polyline fill="none" stroke="black" points="178,-41.5 178,-63.5 "/>
<text text-anchor="middle" x="186" y="-49.1" font-family="monospace" font-size="13.00">⬤</text>
</g>
<!-- x&#45;&gt;lista1 -->
<g id="edge6" class="edge">
<title>x:f1&#45;&gt;lista1</title>
<path fill="none" stroke="black" d="M108,-11.5C125.06,-11.5 140.83,-22.93 151.92,-33.72"/>
<polygon fill="black" stroke="black" points="149.69,-36.46 159.12,-41.3 154.76,-31.64 149.69,-36.46"/>
</g>
<!-- 1 -->
<g id="node3" class="node">
<title>1</title>
<ellipse fill="white" stroke="black" cx="242" cy="-92.5" rx="11" ry="11"/>
<text text-anchor="middle" x="242" y="-89.1" font-family="monospace" font-size="13.00">1</text>
</g>
<!-- 2 -->
<g id="node4" class="node">
<title>2</title>
<ellipse fill="white" stroke="black" cx="242" cy="-52.5" rx="11" ry="11"/>
<text text-anchor="middle" x="242" y="-49.1" font-family="monospace" font-size="13.00">2</text>
</g>
<!-- 3 -->
<g id="node5" class="node">
<title>3</title>
<ellipse fill="white" stroke="black" cx="242" cy="-12.5" rx="11" ry="11"/>
<text text-anchor="middle" x="242" y="-9.1" font-family="monospace" font-size="13.00">3</text>
</g>
<!-- lista1&#45;&gt;1 -->
<g id="edge1" class="edge">
<title>lista1:f0&#45;&gt;1</title>
<path fill="none" stroke="black" d="M152,-64.5C152,-93.13 194.43,-95.57 220.69,-94.34"/>
<polygon fill="black" stroke="black" points="221.05,-97.83 230.79,-93.66 220.58,-90.84 221.05,-97.83"/>
</g>
<!-- lista1&#45;&gt;2 -->
<g id="edge2" class="edge">
<title>lista1:f1&#45;&gt;2</title>
<path fill="none" stroke="black" d="M170,-40.5C170,-19.02 201.97,-31.78 223.01,-42.49"/>
<polygon fill="black" stroke="black" points="221.54,-45.67 232.01,-47.28 224.83,-39.49 221.54,-45.67"/>
</g>
<!-- lista1&#45;&gt;3 -->
<g id="edge3" class="edge">
<title>lista1:f2&#45;&gt;3</title>
<path fill="none" stroke="black" d="M194,-52.5C208.88,-52.5 221.45,-40.73 229.83,-29.96"/>
<polygon fill="black" stroke="black" points="232.7,-31.96 235.62,-21.78 226.99,-27.92 232.7,-31.96"/>
</g>
<!-- lista2&#45;&gt;lista1 -->
<g id="edge4" class="edge">
<title>lista2:f0&#45;&gt;lista1</title>
<path fill="none" stroke="black" d="M81,-40.5C81,-29.31 109.6,-34.9 134,-41.7"/>
<polygon fill="black" stroke="black" points="133.19,-45.11 143.77,-44.54 135.14,-38.39 133.19,-45.11"/>
</g>
<!-- lista2&#45;&gt;lista1 -->
<g id="edge5" class="edge">
<title>lista2:f1&#45;&gt;lista1</title>
<path fill="none" stroke="black" d="M108,-52.5C116.28,-52.5 125.19,-52.5 133.56,-52.5"/>
<polygon fill="black" stroke="black" points="133.77,-56 143.77,-52.5 133.77,-49 133.77,-56"/>
</g>
</g>
</svg>
