<?xml version="1.0" encoding="UTF-8" standalone="no"?>
<!DOCTYPE svg PUBLIC "-//W3C//DTD SVG 1.1//EN"
 "http://www.w3.org/Graphics/SVG/1.1/DTD/svg11.dtd">
<!-- Generated by graphviz version 2.43.0 (0)
 -->
<!-- Title: %3 Pages: 1 -->
<svg width="264pt" height="98pt"
 viewBox="0.00 0.00 264.00 98.00" xmlns="http://www.w3.org/2000/svg" xmlns:xlink="http://www.w3.org/1999/xlink">
<g id="graph0" class="graph" transform="scale(1 1) rotate(0) translate(4 94)">
<title>%3</title>
<!-- x -->
<g id="node1" class="node">
<title>x</title>
<polygon fill="transparent" stroke="transparent" points="54,-90 0,-90 0,-54 54,-54 54,-90"/>
<text text-anchor="middle" x="27" y="-68.6" font-family="monospace" font-size="13.00">x</text>
</g>
<!-- v1 -->
<g id="node4" class="node">
<title>v1</title>
<polygon fill="white" stroke="black" points="112,-79 90,-79 90,-57 112,-57 112,-79"/>
<text text-anchor="middle" x="101" y="-64.6" font-family="monospace" font-size="13.00">⬤</text>
</g>
<!-- x&#45;&gt;v1 -->
<g id="edge1" class="edge">
<title>x&#45;&gt;v1</title>
<path fill="none" stroke="black" d="M45.06,-71.05C55.43,-70.48 68.73,-69.74 79.65,-69.13"/>
<polygon fill="black" stroke="black" points="80.15,-72.61 89.94,-68.56 79.76,-65.62 80.15,-72.61"/>
</g>
<!-- y -->
<g id="node2" class="node">
<title>y</title>
<polygon fill="transparent" stroke="transparent" points="54,-36 0,-36 0,0 54,0 54,-36"/>
<text text-anchor="middle" x="27" y="-14.6" font-family="monospace" font-size="13.00">y</text>
</g>
<!-- v2 -->
<g id="node5" class="node">
<title>v2</title>
<polygon fill="white" stroke="black" points="112,-36 90,-36 90,-14 112,-14 112,-36"/>
<text text-anchor="middle" x="101" y="-21.6" font-family="monospace" font-size="13.00">⬤</text>
</g>
<!-- y&#45;&gt;v2 -->
<g id="edge3" class="edge">
<title>y&#45;&gt;v2</title>
<path fill="none" stroke="black" d="M45.06,-19.66C55.43,-20.67 68.73,-21.96 79.65,-23.02"/>
<polygon fill="black" stroke="black" points="79.65,-26.54 89.94,-24.02 80.33,-19.57 79.65,-26.54"/>
</g>
<!-- lista -->
<g id="node3" class="node">
<title>lista</title>
<polygon fill="white" stroke="black" points="148,-27 148,-63 256,-63 256,-27 148,-27"/>
<text text-anchor="start" x="153.5" y="-41.6" font-family="monospace" font-size="13.00">66</text>
<polyline fill="none" stroke="black" points="175,-27 175,-63 "/>
<text text-anchor="start" x="180.5" y="-41.6" font-family="monospace" font-size="13.00">77</text>
<polyline fill="none" stroke="black" points="202,-27 202,-63 "/>
<text text-anchor="start" x="207.5" y="-48.6" font-family="monospace" text-decoration="line-through" font-size="13.00">88</text>
<text text-anchor="start" x="207.5" y="-35.6" font-family="monospace" font-size="13.00">40</text>
<polyline fill="none" stroke="black" points="229,-27 229,-63 "/>
<text text-anchor="start" x="234.5" y="-41.6" font-family="monospace" font-size="13.00">99</text>
</g>
<!-- v1&#45;&gt;lista -->
<g id="edge2" class="edge">
<title>v1&#45;&gt;lista</title>
<path fill="none" stroke="black" d="M112.22,-65.63C118.81,-64.09 127.99,-61.96 137.97,-59.64"/>
<polygon fill="black" stroke="black" points="138.77,-63.05 147.71,-57.38 137.18,-56.23 138.77,-63.05"/>
</g>
<!-- v2&#45;&gt;lista -->
<g id="edge4" class="edge">
<title>v2&#45;&gt;lista</title>
<path fill="none" stroke="black" d="M112.22,-27.07C118.74,-28.38 127.8,-30.21 137.66,-32.2"/>
<polygon fill="black" stroke="black" points="137.22,-35.69 147.71,-34.24 138.61,-28.82 137.22,-35.69"/>
</g>
</g>
</svg>
