<?xml version="1.0" encoding="UTF-8" standalone="no"?>
<!DOCTYPE svg PUBLIC "-//W3C//DTD SVG 1.1//EN"
 "http://www.w3.org/Graphics/SVG/1.1/DTD/svg11.dtd">
<!-- Generated by graphviz version 2.40.1 (20161225.0304)
 -->
<!-- Title: %3 Pages: 1 -->
<svg width="576pt" height="218pt"
 viewBox="0.00 0.00 576.00 218.18" xmlns="http://www.w3.org/2000/svg" xmlns:xlink="http://www.w3.org/1999/xlink">
<g id="graph0" class="graph" transform="scale(2.1818 2.1818) rotate(0) translate(4 96)">
<title>%3</title>
<!-- x -->
<g id="node1" class="node">
<title>x</title>
<polygon fill="transparent" stroke="transparent" points="54,-91.5 0,-91.5 0,-55.5 54,-55.5 54,-91.5"/>
<text text-anchor="middle" x="27" y="-70.1" font-family="monospace" font-size="13.00" fill="#000000">x</text>
</g>
<!-- v1 -->
<g id="node6" class="node">
<title>v1</title>
<polygon fill="#ffffff" stroke="#000000" points="112,-84.5 90,-84.5 90,-62.5 112,-62.5 112,-84.5"/>
<text text-anchor="middle" x="101" y="-70.1" font-family="monospace" font-size="13.00" fill="#000000">⬤</text>
</g>
<!-- x&#45;&gt;v1 -->
<g id="edge2" class="edge">
<title>x&#45;&gt;v1</title>
<path fill="none" stroke="#000000" d="M45.2921,-73.5C55.5842,-73.5 68.4969,-73.5 79.2984,-73.5"/>
<polygon fill="#000000" stroke="#000000" points="79.5921,-77.0001 89.5921,-73.5 79.5921,-70.0001 79.5921,-77.0001"/>
</g>
<!-- y -->
<g id="node2" class="node">
<title>y</title>
<polygon fill="transparent" stroke="transparent" points="54,-36.5 0,-36.5 0,-.5 54,-.5 54,-36.5"/>
<text text-anchor="middle" x="27" y="-15.1" font-family="monospace" font-size="13.00" fill="#000000">y</text>
</g>
<!-- v2 -->
<g id="node5" class="node">
<title>v2</title>
<polygon fill="#ffffff" stroke="#000000" points="112,-29.5 90,-29.5 90,-7.5 112,-7.5 112,-29.5"/>
<text text-anchor="middle" x="101" y="-15.1" font-family="monospace" font-size="13.00" fill="#000000">⬤</text>
</g>
<!-- y&#45;&gt;v2 -->
<g id="edge1" class="edge">
<title>y&#45;&gt;v2</title>
<path fill="none" stroke="#000000" d="M45.2921,-18.5C55.5842,-18.5 68.4969,-18.5 79.2984,-18.5"/>
<polygon fill="#000000" stroke="#000000" points="79.5921,-22.0001 89.5921,-18.5 79.5921,-15.0001 79.5921,-22.0001"/>
</g>
<!-- lista2 -->
<g id="node3" class="node">
<title>lista2</title>
<polygon fill="#ffffff" stroke="#000000" points="148,-.5 148,-36.5 256,-36.5 256,-.5 148,-.5"/>
<text text-anchor="middle" x="166" y="-15.1" font-family="monospace" font-size="13.00" fill="#000000">1</text>
<polyline fill="none" stroke="#000000" points="184,-.5 184,-36.5 "/>
<text text-anchor="middle" x="202" y="-15.1" font-family="monospace" font-size="13.00" fill="#000000">2</text>
<polyline fill="none" stroke="#000000" points="220,-.5 220,-36.5 "/>
<text text-anchor="middle" x="238" y="-15.1" font-family="monospace" font-size="13.00" fill="#000000">3</text>
</g>
<!-- lista1 -->
<g id="node4" class="node">
<title>lista1</title>
<polygon fill="#ffffff" stroke="#000000" points="148,-55.5 148,-91.5 256,-91.5 256,-55.5 148,-55.5"/>
<text text-anchor="middle" x="161.5" y="-70.1" font-family="monospace" font-size="13.00" fill="#000000">66</text>
<polyline fill="none" stroke="#000000" points="175,-55.5 175,-91.5 "/>
<text text-anchor="middle" x="188.5" y="-70.1" font-family="monospace" font-size="13.00" fill="#000000">77</text>
<polyline fill="none" stroke="#000000" points="202,-55.5 202,-91.5 "/>
<text text-anchor="middle" x="215.5" y="-70.1" font-family="monospace" font-size="13.00" fill="#000000">88</text>
<polyline fill="none" stroke="#000000" points="229,-55.5 229,-91.5 "/>
<text text-anchor="middle" x="242.5" y="-70.1" font-family="monospace" font-size="13.00" fill="#000000">99</text>
</g>
<!-- v2&#45;&gt;lista2 -->
<g id="edge4" class="edge">
<title>v2&#45;&gt;lista2</title>
<path fill="none" stroke="#000000" d="M112.1947,-18.5C118.8972,-18.5 128.0173,-18.5 137.887,-18.5"/>
<polygon fill="#000000" stroke="#000000" points="137.9449,-22.0001 147.9449,-18.5 137.9449,-15.0001 137.9449,-22.0001"/>
</g>
<!-- v2&#45;&gt;lista1 -->
<g id="edge5" class="edge">
<title>v2&#45;&gt;lista1</title>
<path fill="none" stroke="#c0c0c0" stroke-dasharray="5,2" d="M112.0719,-25.41C121.5125,-31.2257 135.5003,-39.6638 148,-46.5 150.5433,-47.8909 153.1673,-49.2965 155.8249,-50.6972"/>
<polygon fill="#c0c0c0" stroke="#c0c0c0" points="154.4328,-53.9178 164.9216,-55.413 157.6545,-47.7033 154.4328,-53.9178"/>
</g>
<!-- v1&#45;&gt;lista1 -->
<g id="edge3" class="edge">
<title>v1&#45;&gt;lista1</title>
<path fill="none" stroke="#000000" d="M112.1947,-73.5C118.8972,-73.5 128.0173,-73.5 137.887,-73.5"/>
<polygon fill="#000000" stroke="#000000" points="137.9449,-77.0001 147.9449,-73.5 137.9449,-70.0001 137.9449,-77.0001"/>
</g>
</g>
</svg>
