<?xml version="1.0" encoding="UTF-8" standalone="no"?>
<!DOCTYPE svg PUBLIC "-//W3C//DTD SVG 1.1//EN"
 "http://www.w3.org/Graphics/SVG/1.1/DTD/svg11.dtd">
<!-- Generated by graphviz version 2.43.0 (0)
 -->
<!-- Title: %3 Pages: 1 -->
<svg width="264pt" height="100pt"
 viewBox="0.00 0.00 264.00 100.00" xmlns="http://www.w3.org/2000/svg" xmlns:xlink="http://www.w3.org/1999/xlink">
<g id="graph0" class="graph" transform="scale(1 1) rotate(0) translate(4 96)">
<title>%3</title>
<!-- x -->
<g id="node1" class="node">
<title>x</title>
<polygon fill="transparent" stroke="transparent" points="54,-91.5 0,-91.5 0,-55.5 54,-55.5 54,-91.5"/>
<text text-anchor="middle" x="27" y="-70.1" font-family="monospace" font-size="13.00">x</text>
</g>
<!-- v1 -->
<g id="node6" class="node">
<title>v1</title>
<polygon fill="white" stroke="black" points="112,-84.5 90,-84.5 90,-62.5 112,-62.5 112,-84.5"/>
<text text-anchor="middle" x="101" y="-70.1" font-family="monospace" font-size="13.00">⬤</text>
</g>
<!-- x&#45;&gt;v1 -->
<g id="edge2" class="edge">
<title>x&#45;&gt;v1</title>
<path fill="none" stroke="black" d="M45.06,-73.5C55.43,-73.5 68.73,-73.5 79.65,-73.5"/>
<polygon fill="black" stroke="black" points="79.94,-77 89.94,-73.5 79.94,-70 79.94,-77"/>
</g>
<!-- y -->
<g id="node2" class="node">
<title>y</title>
<polygon fill="transparent" stroke="transparent" points="54,-36.5 0,-36.5 0,-0.5 54,-0.5 54,-36.5"/>
<text text-anchor="middle" x="27" y="-15.1" font-family="monospace" font-size="13.00">y</text>
</g>
<!-- v2 -->
<g id="node5" class="node">
<title>v2</title>
<polygon fill="white" stroke="black" points="112,-29.5 90,-29.5 90,-7.5 112,-7.5 112,-29.5"/>
<text text-anchor="middle" x="101" y="-15.1" font-family="monospace" font-size="13.00">⬤</text>
</g>
<!-- y&#45;&gt;v2 -->
<g id="edge1" class="edge">
<title>y&#45;&gt;v2</title>
<path fill="none" stroke="black" d="M45.06,-18.5C55.43,-18.5 68.73,-18.5 79.65,-18.5"/>
<polygon fill="black" stroke="black" points="79.94,-22 89.94,-18.5 79.94,-15 79.94,-22"/>
</g>
<!-- lista2 -->
<g id="node3" class="node">
<title>lista2</title>
<polygon fill="white" stroke="black" points="166,-0.5 166,-36.5 238,-36.5 238,-0.5 166,-0.5"/>
<text text-anchor="middle" x="178" y="-15.1" font-family="monospace" font-size="13.00">1</text>
<polyline fill="none" stroke="black" points="190,-0.5 190,-36.5 "/>
<text text-anchor="middle" x="202" y="-15.1" font-family="monospace" font-size="13.00">2</text>
<polyline fill="none" stroke="black" points="214,-0.5 214,-36.5 "/>
<text text-anchor="middle" x="226" y="-15.1" font-family="monospace" font-size="13.00">3</text>
</g>
<!-- lista1 -->
<g id="node4" class="node">
<title>lista1</title>
<polygon fill="white" stroke="black" points="148,-55.5 148,-91.5 256,-91.5 256,-55.5 148,-55.5"/>
<text text-anchor="middle" x="161.5" y="-70.1" font-family="monospace" font-size="13.00">66</text>
<polyline fill="none" stroke="black" points="175,-55.5 175,-91.5 "/>
<text text-anchor="middle" x="188.5" y="-70.1" font-family="monospace" font-size="13.00">77</text>
<polyline fill="none" stroke="black" points="202,-55.5 202,-91.5 "/>
<text text-anchor="middle" x="215.5" y="-70.1" font-family="monospace" font-size="13.00">88</text>
<polyline fill="none" stroke="black" points="229,-55.5 229,-91.5 "/>
<text text-anchor="middle" x="242.5" y="-70.1" font-family="monospace" font-size="13.00">99</text>
</g>
<!-- v2&#45;&gt;lista2 -->
<g id="edge4" class="edge">
<title>v2&#45;&gt;lista2</title>
<path fill="none" stroke="black" d="M112.22,-18.5C122.52,-18.5 139.13,-18.5 155.22,-18.5"/>
<polygon fill="black" stroke="black" points="155.65,-22 165.65,-18.5 155.65,-15 155.65,-22"/>
</g>
<!-- v2&#45;&gt;lista1 -->
<g id="edge5" class="edge">
<title>v2&#45;&gt;lista1</title>
<path fill="none" stroke="grey" stroke-dasharray="5,2" d="M112.1,-24.95C121.33,-30.78 135.43,-39.48 148,-46.5 150.49,-47.89 153.07,-49.3 155.67,-50.7"/>
<polygon fill="grey" stroke="grey" points="154.12,-53.84 164.6,-55.42 157.39,-47.65 154.12,-53.84"/>
</g>
<!-- v1&#45;&gt;lista1 -->
<g id="edge3" class="edge">
<title>v1&#45;&gt;lista1</title>
<path fill="none" stroke="black" d="M112.22,-73.5C118.74,-73.5 127.8,-73.5 137.66,-73.5"/>
<polygon fill="black" stroke="black" points="137.71,-77 147.71,-73.5 137.71,-70 137.71,-77"/>
</g>
</g>
</svg>
