<?xml version="1.0" encoding="UTF-8" standalone="no"?>
<!DOCTYPE svg PUBLIC "-//W3C//DTD SVG 1.1//EN"
 "http://www.w3.org/Graphics/SVG/1.1/DTD/svg11.dtd">
<!-- Generated by graphviz version 14.1.1 (0)
 -->
<!-- Pages: 1 -->
<svg width="282pt" height="234pt"
 viewBox="0.00 0.00 282.00 234.00" xmlns="http://www.w3.org/2000/svg" xmlns:xlink="http://www.w3.org/1999/xlink">
<g id="graph0" class="graph" transform="scale(1 1) rotate(0) translate(4 230.2)">
<!-- x -->
<g id="node1" class="node">
<title>x</title>
<polygon fill="white" stroke="black" points="0,-122.6 0,-158.6 50.4,-158.6 50.4,-122.6 0,-122.6"/>
<text xml:space="preserve" text-anchor="middle" x="12.25" y="-136.75" font-family="monospace" font-size="13.00">x</text>
<polyline fill="none" stroke="black" points="24.5,-123.1 24.5,-158.6"/>
<text xml:space="preserve" text-anchor="middle" x="37.25" y="-135.25" font-family="monospace" font-size="13.00">⬤</text>
</g>
<!-- lista -->
<g id="node3" class="node">
<title>lista</title>
<polygon fill="white" stroke="black" points="86.4,-94.6 86.4,-130.6 194.4,-130.6 194.4,-94.6 86.4,-94.6"/>
<text xml:space="preserve" text-anchor="middle" x="99.65" y="-107.25" font-family="monospace" font-size="13.00">⬤</text>
<polyline fill="none" stroke="black" points="112.9,-95.1 112.9,-130.6"/>
<text xml:space="preserve" text-anchor="middle" x="126.65" y="-107.25" font-family="monospace" font-size="13.00">⬤</text>
<polyline fill="none" stroke="black" points="140.4,-95.1 140.4,-130.6"/>
<text xml:space="preserve" text-anchor="middle" x="153.65" y="-107.25" font-family="monospace" font-size="13.00">⬤</text>
<polyline fill="none" stroke="black" points="166.9,-95.1 166.9,-130.6"/>
<text xml:space="preserve" text-anchor="middle" x="180.65" y="-107.25" font-family="monospace" font-size="13.00">⬤</text>
</g>
<!-- x&#45;&gt;lista -->
<g id="edge5" class="edge">
<title>x:f1&#45;&gt;lista</title>
<path fill="none" stroke="black" d="M50.4,-140.85C63.19,-140.85 76.55,-138.17 88.91,-134.46"/>
<polygon fill="black" stroke="black" points="89.64,-137.9 98.04,-131.44 87.45,-131.25 89.64,-137.9"/>
</g>
<!-- y -->
<g id="node2" class="node">
<title>y</title>
<polygon fill="white" stroke="black" points="0,-67.6 0,-103.6 50.4,-103.6 50.4,-67.6 0,-67.6"/>
<text xml:space="preserve" text-anchor="middle" x="12.25" y="-81.75" font-family="monospace" font-size="13.00">y</text>
<polyline fill="none" stroke="black" points="24.5,-68.1 24.5,-103.6"/>
<text xml:space="preserve" text-anchor="middle" x="37.25" y="-80.25" font-family="monospace" font-size="13.00">⬤</text>
</g>
<!-- y&#45;&gt;lista -->
<g id="edge6" class="edge">
<title>y:f1&#45;&gt;lista</title>
<path fill="none" stroke="black" d="M50.4,-85.85C62.02,-85.85 74.14,-87.97 85.56,-91.01"/>
<polygon fill="black" stroke="black" points="84.23,-94.26 94.81,-93.74 86.21,-87.55 84.23,-94.26"/>
</g>
<!-- 66 -->
<g id="node4" class="node">
<title>66</title>
<ellipse fill="white" stroke="black" cx="252" cy="-204.6" rx="21.6" ry="21.6"/>
<text xml:space="preserve" text-anchor="middle" x="252" y="-200.5" font-family="monospace" font-size="13.00">66</text>
</g>
<!-- lista&#45;&gt;66 -->
<g id="edge1" class="edge">
<title>lista:f0&#45;&gt;66</title>
<path fill="none" stroke="black" d="M99.65,-131.6C99.65,-184.24 174.85,-198.94 219.24,-203.03"/>
<polygon fill="black" stroke="black" points="218.84,-206.51 229.08,-203.8 219.38,-199.53 218.84,-206.51"/>
</g>
<!-- 77 -->
<g id="node5" class="node">
<title>77</title>
<ellipse fill="white" stroke="black" cx="252" cy="-143.6" rx="21.6" ry="21.6"/>
<text xml:space="preserve" text-anchor="middle" x="252" y="-139.5" font-family="monospace" font-size="13.00">77</text>
</g>
<!-- lista&#45;&gt;77 -->
<g id="edge2" class="edge">
<title>lista:f1&#45;&gt;77</title>
<path fill="none" stroke="black" d="M126.65,-131.6C126.65,-169.24 183.8,-161.36 220.61,-152.38"/>
<polygon fill="black" stroke="black" points="221.03,-155.89 229.83,-149.99 219.27,-149.11 221.03,-155.89"/>
</g>
<!-- 88 -->
<g id="node6" class="node">
<title>88</title>
<ellipse fill="white" stroke="black" cx="252" cy="-82.6" rx="21.6" ry="21.6"/>
<text xml:space="preserve" text-anchor="middle" x="252" y="-78.5" font-family="monospace" font-size="13.00">88</text>
</g>
<!-- lista&#45;&gt;88 -->
<g id="edge3" class="edge">
<title>lista:f2&#45;&gt;88</title>
<path fill="none" stroke="black" d="M153.65,-94.1C153.65,-66.88 191.66,-69.18 220.18,-74.75"/>
<polygon fill="black" stroke="black" points="219.31,-78.14 229.82,-76.84 220.79,-71.3 219.31,-78.14"/>
</g>
<!-- 99 -->
<g id="node7" class="node">
<title>99</title>
<ellipse fill="white" stroke="black" cx="252" cy="-21.6" rx="21.6" ry="21.6"/>
<text xml:space="preserve" text-anchor="middle" x="252" y="-17.5" font-family="monospace" font-size="13.00">99</text>
</g>
<!-- lista&#45;&gt;99 -->
<g id="edge4" class="edge">
<title>lista:f3&#45;&gt;99</title>
<path fill="none" stroke="black" d="M180.65,-94.1C180.65,-68.71 203.15,-48.85 222.7,-36.39"/>
<polygon fill="black" stroke="black" points="224.41,-39.44 231.22,-31.33 220.83,-33.43 224.41,-39.44"/>
</g>
</g>
</svg>
