<?xml version="1.0" encoding="UTF-8" standalone="no"?>
<!DOCTYPE svg PUBLIC "-//W3C//DTD SVG 1.1//EN"
 "http://www.w3.org/Graphics/SVG/1.1/DTD/svg11.dtd">
<!-- Generated by graphviz version 2.40.1 (20161225.0304)
 -->
<!-- Title: %3 Pages: 1 -->
<svg width="553pt" height="576pt"
 viewBox="0.00 0.00 552.73 576.00" xmlns="http://www.w3.org/2000/svg" xmlns:xlink="http://www.w3.org/1999/xlink">
<g id="graph0" class="graph" transform="scale(2.9091 2.9091) rotate(0) translate(4 194)">
<title>%3</title>
<!-- y -->
<g id="node1" class="node">
<title>y</title>
<polygon fill="transparent" stroke="transparent" points="54,-190 0,-190 0,-154 54,-154 54,-190"/>
<text text-anchor="middle" x="27" y="-168.6" font-family="monospace" font-size="13.00" fill="#000000">y</text>
</g>
<!-- v2 -->
<g id="node5" class="node">
<title>v2</title>
<polygon fill="#ffffff" stroke="#000000" points="38,-110.5 16,-110.5 16,-88.5 38,-88.5 38,-110.5"/>
<text text-anchor="middle" x="27" y="-96.1" font-family="monospace" font-size="13.00" fill="#000000">⬤</text>
</g>
<!-- y&#45;&gt;v2 -->
<g id="edge3" class="edge">
<title>y&#45;&gt;v2</title>
<path fill="none" stroke="#000000" d="M27,-153.7052C27,-153.7052 27,-120.5605 27,-120.5605"/>
<polygon fill="#000000" stroke="#000000" points="30.5001,-120.5605 27,-110.5605 23.5001,-120.5605 30.5001,-120.5605"/>
</g>
<!-- x -->
<g id="node2" class="node">
<title>x</title>
<polygon fill="transparent" stroke="transparent" points="110,-117.5 56,-117.5 56,-81.5 110,-81.5 110,-117.5"/>
<text text-anchor="middle" x="83" y="-96.1" font-family="monospace" font-size="13.00" fill="#000000">x</text>
</g>
<!-- v1 -->
<g id="node6" class="node">
<title>v1</title>
<polygon fill="#ffffff" stroke="#000000" points="94,-33.5 72,-33.5 72,-11.5 94,-11.5 94,-33.5"/>
<text text-anchor="middle" x="83" y="-19.1" font-family="monospace" font-size="13.00" fill="#000000">⬤</text>
</g>
<!-- x&#45;&gt;v1 -->
<g id="edge1" class="edge">
<title>x&#45;&gt;v1</title>
<path fill="none" stroke="#000000" d="M83,-81.2521C83,-81.2521 83,-43.7042 83,-43.7042"/>
<polygon fill="#000000" stroke="#000000" points="86.5001,-43.7041 83,-33.7042 79.5001,-43.7042 86.5001,-43.7041"/>
</g>
<!-- lista1 -->
<g id="node3" class="node">
<title>lista1</title>
<polygon fill="#ffffff" stroke="#000000" points="128,-81.5 128,-117.5 182,-117.5 182,-81.5 128,-81.5"/>
<text text-anchor="middle" x="155" y="-108.1" font-family="monospace" font-size="13.00" fill="#000000">1</text>
<polyline fill="none" stroke="#000000" points="128,-105.5 182,-105.5 "/>
<text text-anchor="middle" x="155" y="-96.1" font-family="monospace" font-size="13.00" fill="#000000">2</text>
<polyline fill="none" stroke="#000000" points="128,-93.5 182,-93.5 "/>
<text text-anchor="middle" x="155" y="-84.1" font-family="monospace" font-size="13.00" fill="#000000">3</text>
</g>
<!-- lista2 -->
<g id="node4" class="node">
<title>lista2</title>
<polygon fill="#ffffff" stroke="#000000" points="0,-.5 0,-44.5 54,-44.5 54,-.5 0,-.5"/>
<text text-anchor="middle" x="27" y="-30.1" font-family="monospace" font-size="13.00" fill="#000000">⬤</text>
<polyline fill="none" stroke="#000000" points="0,-22.5 54,-22.5 "/>
<text text-anchor="middle" x="27" y="-8.1" font-family="monospace" font-size="13.00" fill="#000000">⬤</text>
</g>
<!-- lista2&#45;&gt;v1 -->
<g id="edge5" class="edge">
<title>lista2:f0&#45;&gt;v1</title>
<path fill="none" stroke="#000000" d="M54.0158,-26C54.0158,-26 61.7517,-26 61.7517,-26"/>
<polygon fill="#000000" stroke="#000000" points="61.7518,-29.5001 71.7517,-26 61.7517,-22.5001 61.7518,-29.5001"/>
</g>
<!-- lista2&#45;&gt;v1 -->
<g id="edge6" class="edge">
<title>lista2:f1&#45;&gt;v1</title>
<path fill="none" stroke="#000000" d="M54.0158,-18C54.0158,-18 61.7517,-18 61.7517,-18"/>
<polygon fill="#000000" stroke="#000000" points="61.7518,-21.5001 71.7517,-18 61.7517,-14.5001 61.7518,-21.5001"/>
</g>
<!-- v2&#45;&gt;lista2 -->
<g id="edge4" class="edge">
<title>v2&#45;&gt;lista2</title>
<path fill="none" stroke="#000000" d="M27,-88.4678C27,-88.4678 27,-54.6247 27,-54.6247"/>
<polygon fill="#000000" stroke="#000000" points="30.5001,-54.6247 27,-44.6247 23.5001,-54.6248 30.5001,-54.6247"/>
</g>
<!-- v1&#45;&gt;lista1 -->
<g id="edge2" class="edge">
<title>v1&#45;&gt;lista1</title>
<path fill="none" stroke="#000000" d="M94.25,-22C114.5,-22 155,-22 155,-22 155,-22 155,-71.1336 155,-71.1336"/>
<polygon fill="#000000" stroke="#000000" points="151.5001,-71.1335 155,-81.1336 158.5001,-71.1336 151.5001,-71.1335"/>
</g>
</g>
</svg>
