<?xml version="1.0" encoding="UTF-8" standalone="no"?>
<!DOCTYPE svg PUBLIC "-//W3C//DTD SVG 1.1//EN"
 "http://www.w3.org/Graphics/SVG/1.1/DTD/svg11.dtd">
<!-- Generated by graphviz version 14.1.1 (0)
 -->
<!-- Pages: 1 -->
<svg width="282pt" height="295pt"
 viewBox="0.00 0.00 282.00 295.00" xmlns="http://www.w3.org/2000/svg" xmlns:xlink="http://www.w3.org/1999/xlink">
<g id="graph0" class="graph" transform="scale(1 1) rotate(0) translate(4 291.2)">
<!-- x -->
<g id="node1" class="node">
<title>x</title>
<polygon fill="white" stroke="black" points="0,-153.6 0,-189.6 50.4,-189.6 50.4,-153.6 0,-153.6"/>
<text xml:space="preserve" text-anchor="middle" x="12.25" y="-167.75" font-family="monospace" font-size="13.00">x</text>
<polyline fill="none" stroke="black" points="24.5,-154.1 24.5,-189.6"/>
<text xml:space="preserve" text-anchor="middle" x="37.25" y="-166.25" font-family="monospace" font-size="13.00">⬤</text>
</g>
<!-- lista -->
<g id="node3" class="node">
<title>lista</title>
<polygon fill="white" stroke="black" points="86.4,-125.6 86.4,-161.6 194.4,-161.6 194.4,-125.6 86.4,-125.6"/>
<text xml:space="preserve" text-anchor="middle" x="99.65" y="-138.25" font-family="monospace" font-size="13.00">⬤</text>
<polyline fill="none" stroke="black" points="112.9,-126.1 112.9,-161.6"/>
<text xml:space="preserve" text-anchor="middle" x="126.65" y="-138.25" font-family="monospace" font-size="13.00">⬤</text>
<polyline fill="none" stroke="black" points="140.4,-126.1 140.4,-161.6"/>
<text xml:space="preserve" text-anchor="middle" x="153.65" y="-138.25" font-family="monospace" font-size="13.00">⬤</text>
<polyline fill="none" stroke="black" points="166.9,-126.1 166.9,-161.6"/>
<text xml:space="preserve" text-anchor="middle" x="180.65" y="-138.25" font-family="monospace" font-size="13.00">⬤</text>
</g>
<!-- x&#45;&gt;lista -->
<g id="edge6" class="edge">
<title>x:f1&#45;&gt;lista</title>
<path fill="none" stroke="black" d="M50.4,-171.85C63.19,-171.85 76.55,-169.17 88.91,-165.46"/>
<polygon fill="black" stroke="black" points="89.64,-168.9 98.04,-162.44 87.45,-162.25 89.64,-168.9"/>
</g>
<!-- y -->
<g id="node2" class="node">
<title>y</title>
<polygon fill="white" stroke="black" points="0,-98.6 0,-134.6 50.4,-134.6 50.4,-98.6 0,-98.6"/>
<text xml:space="preserve" text-anchor="middle" x="12.25" y="-112.75" font-family="monospace" font-size="13.00">y</text>
<polyline fill="none" stroke="black" points="24.5,-99.1 24.5,-134.6"/>
<text xml:space="preserve" text-anchor="middle" x="37.25" y="-111.25" font-family="monospace" font-size="13.00">⬤</text>
</g>
<!-- y&#45;&gt;lista -->
<g id="edge7" class="edge">
<title>y:f1&#45;&gt;lista</title>
<path fill="none" stroke="black" d="M50.4,-116.85C62.02,-116.85 74.14,-118.97 85.56,-122.01"/>
<polygon fill="black" stroke="black" points="84.23,-125.26 94.81,-124.74 86.21,-118.55 84.23,-125.26"/>
</g>
<!-- 66 -->
<g id="node4" class="node">
<title>66</title>
<ellipse fill="white" stroke="black" cx="252" cy="-265.6" rx="21.6" ry="21.6"/>
<text xml:space="preserve" text-anchor="middle" x="252" y="-261.5" font-family="monospace" font-size="13.00">66</text>
</g>
<!-- lista&#45;&gt;66 -->
<g id="edge1" class="edge">
<title>lista:f0&#45;&gt;66</title>
<path fill="none" stroke="black" d="M99.65,-162.6C99.65,-220.22 175.56,-247.89 219.86,-259.13"/>
<polygon fill="black" stroke="black" points="218.89,-262.49 229.43,-261.41 220.51,-255.68 218.89,-262.49"/>
</g>
<!-- 77 -->
<g id="node5" class="node">
<title>77</title>
<ellipse fill="white" stroke="black" cx="252" cy="-204.6" rx="21.6" ry="21.6"/>
<text xml:space="preserve" text-anchor="middle" x="252" y="-200.5" font-family="monospace" font-size="13.00">77</text>
</g>
<!-- lista&#45;&gt;77 -->
<g id="edge2" class="edge">
<title>lista:f1&#45;&gt;77</title>
<path fill="none" stroke="black" d="M126.65,-162.6C126.65,-201.77 182.72,-207.27 219.55,-206.66"/>
<polygon fill="black" stroke="black" points="219.36,-210.17 229.23,-206.33 219.12,-203.17 219.36,-210.17"/>
</g>
<!-- 99 -->
<g id="node6" class="node">
<title>99</title>
<ellipse fill="white" stroke="black" cx="252" cy="-143.6" rx="21.6" ry="21.6"/>
<text xml:space="preserve" text-anchor="middle" x="252" y="-139.5" font-family="monospace" font-size="13.00">99</text>
</g>
<!-- lista&#45;&gt;99 -->
<g id="edge5" class="edge">
<title>lista:f3&#45;&gt;99</title>
<path fill="none" stroke="black" d="M194.4,-143.85C202.45,-143.85 211.15,-143.82 219.26,-143.79"/>
<polygon fill="black" stroke="black" points="219.07,-147.29 229.05,-143.74 219.03,-140.29 219.07,-147.29"/>
</g>
<!-- 40 -->
<g id="node7" class="node">
<title>40</title>
<ellipse fill="white" stroke="black" cx="252" cy="-82.6" rx="21.6" ry="21.6"/>
<text xml:space="preserve" text-anchor="middle" x="252" y="-78.5" font-family="monospace" font-size="13.00">40</text>
</g>
<!-- lista&#45;&gt;40 -->
<g id="edge4" class="edge">
<title>lista:f2&#45;&gt;40</title>
<path fill="none" stroke="black" d="M153.65,-125.1C153.65,-95.76 191.24,-86.48 219.71,-83.65"/>
<polygon fill="black" stroke="black" points="219.61,-87.16 229.32,-82.92 219.09,-80.18 219.61,-87.16"/>
</g>
<!-- 88 -->
<g id="node8" class="node">
<title>88</title>
<ellipse fill="white" stroke="black" cx="252" cy="-21.6" rx="21.6" ry="21.6"/>
<text xml:space="preserve" text-anchor="middle" x="252" y="-17.5" font-family="monospace" font-size="13.00">88</text>
</g>
<!-- lista&#45;&gt;88 -->
<g id="edge3" class="edge">
<title>lista:f2&#45;&gt;88</title>
<path fill="none" stroke="grey" stroke-dasharray="5,2" d="M153.65,-125.1C153.65,-84.46 193.98,-53.26 222.72,-36.18"/>
<polygon fill="grey" stroke="grey" points="224.39,-39.25 231.37,-31.28 220.95,-33.16 224.39,-39.25"/>
</g>
</g>
</svg>
