<?xml version="1.0" encoding="UTF-8" standalone="no"?>
<!DOCTYPE svg PUBLIC "-//W3C//DTD SVG 1.1//EN"
 "http://www.w3.org/Graphics/SVG/1.1/DTD/svg11.dtd">
<!-- Generated by graphviz version 2.40.1 (20161225.0304)
 -->
<!-- Title: %3 Pages: 1 -->
<svg width="521pt" height="576pt"
 viewBox="0.00 0.00 521.14 576.00" xmlns="http://www.w3.org/2000/svg" xmlns:xlink="http://www.w3.org/1999/xlink">
<g id="graph0" class="graph" transform="scale(2.7429 2.7429) rotate(0) translate(4 206)">
<title>%3</title>
<!-- y -->
<g id="node1" class="node">
<title>y</title>
<polygon fill="transparent" stroke="transparent" points="54,-130 0,-130 0,-94 54,-94 54,-130"/>
<text text-anchor="middle" x="27" y="-108.6" font-family="monospace" font-size="13.00" fill="#000000">y</text>
</g>
<!-- v2 -->
<g id="node5" class="node">
<title>v2</title>
<polygon fill="#ffffff" stroke="#000000" points="38,-40 16,-40 16,-18 38,-18 38,-40"/>
<text text-anchor="middle" x="27" y="-25.6" font-family="monospace" font-size="13.00" fill="#000000">⬤</text>
</g>
<!-- y&#45;&gt;v2 -->
<g id="edge3" class="edge">
<title>y&#45;&gt;v2</title>
<path fill="none" stroke="#000000" d="M27,-93.9902C27,-93.9902 27,-50.1023 27,-50.1023"/>
<polygon fill="#000000" stroke="#000000" points="30.5001,-50.1022 27,-40.1023 23.5001,-50.1023 30.5001,-50.1022"/>
</g>
<!-- x -->
<g id="node2" class="node">
<title>x</title>
<polygon fill="transparent" stroke="transparent" points="182,-202 128,-202 128,-166 182,-166 182,-202"/>
<text text-anchor="middle" x="155" y="-180.6" font-family="monospace" font-size="13.00" fill="#000000">x</text>
</g>
<!-- v1 -->
<g id="node6" class="node">
<title>v1</title>
<polygon fill="#ffffff" stroke="#000000" points="166,-123 144,-123 144,-101 166,-101 166,-123"/>
<text text-anchor="middle" x="155" y="-108.6" font-family="monospace" font-size="13.00" fill="#000000">⬤</text>
</g>
<!-- x&#45;&gt;v1 -->
<g id="edge1" class="edge">
<title>x&#45;&gt;v1</title>
<path fill="none" stroke="#000000" d="M155,-165.8314C155,-165.8314 155,-133.4086 155,-133.4086"/>
<polygon fill="#000000" stroke="#000000" points="158.5001,-133.4086 155,-123.4086 151.5001,-133.4086 158.5001,-133.4086"/>
</g>
<!-- lista1 -->
<g id="node3" class="node">
<title>lista1</title>
<polygon fill="#ffffff" stroke="#000000" points="128,-.5 128,-57.5 182,-57.5 182,-.5 128,-.5"/>
<text text-anchor="middle" x="155" y="-45.5" font-family="monospace" font-size="10.00" fill="#000000">99</text>
<polyline fill="none" stroke="#000000" points="128,-38.5 182,-38.5 "/>
<text text-anchor="middle" x="155" y="-26.5" font-family="monospace" font-size="10.00" fill="#000000">77</text>
<polyline fill="none" stroke="#000000" points="128,-19.5 182,-19.5 "/>
<text text-anchor="middle" x="155" y="-7.5" font-family="monospace" font-size="10.00" fill="#000000">3</text>
</g>
<!-- lista2 -->
<g id="node4" class="node">
<title>lista2</title>
<polygon fill="#ffffff" stroke="#000000" points="56,-11 56,-47 110,-47 110,-11 56,-11"/>
<text text-anchor="middle" x="83" y="-34.6" font-family="monospace" font-size="13.00" fill="#000000">⬤</text>
<polyline fill="none" stroke="#000000" points="56,-29 110,-29 "/>
<text text-anchor="middle" x="83" y="-16.6" font-family="monospace" font-size="13.00" fill="#000000">⬤</text>
</g>
<!-- lista2&#45;&gt;lista1 -->
<g id="edge5" class="edge">
<title>lista2:f0&#45;&gt;lista1</title>
<path fill="none" stroke="#000000" d="M110.2201,-35C110.2201,-35 117.7414,-35 117.7414,-35"/>
<polygon fill="#000000" stroke="#000000" points="117.7414,-38.5001 127.7414,-35 117.7414,-31.5001 117.7414,-38.5001"/>
</g>
<!-- lista2&#45;&gt;lista1 -->
<g id="edge6" class="edge">
<title>lista2:f1&#45;&gt;lista1</title>
<path fill="none" stroke="#000000" d="M110.2201,-22C110.2201,-22 117.7414,-22 117.7414,-22"/>
<polygon fill="#000000" stroke="#000000" points="117.7414,-25.5001 127.7414,-22 117.7414,-18.5001 117.7414,-25.5001"/>
</g>
<!-- v2&#45;&gt;lista2 -->
<g id="edge4" class="edge">
<title>v2&#45;&gt;lista2</title>
<path fill="none" stroke="#000000" d="M38.0638,-28C38.0638,-28 45.7177,-28 45.7177,-28"/>
<polygon fill="#000000" stroke="#000000" points="45.7177,-31.5001 55.7177,-28 45.7177,-24.5001 45.7177,-31.5001"/>
</g>
<!-- v1&#45;&gt;lista1 -->
<g id="edge2" class="edge">
<title>v1&#45;&gt;lista1</title>
<path fill="none" stroke="#000000" d="M155,-100.8063C155,-100.8063 155,-67.8328 155,-67.8328"/>
<polygon fill="#000000" stroke="#000000" points="158.5001,-67.8328 155,-57.8328 151.5001,-67.8328 158.5001,-67.8328"/>
</g>
</g>
</svg>
