<?xml version="1.0" encoding="UTF-8" standalone="no"?>
<!DOCTYPE svg PUBLIC "-//W3C//DTD SVG 1.1//EN"
 "http://www.w3.org/Graphics/SVG/1.1/DTD/svg11.dtd">
<!-- Generated by graphviz version 2.40.1 (20161225.0304)
 -->
<!-- Title: %3 Pages: 1 -->
<svg width="576pt" height="214pt"
 viewBox="0.00 0.00 576.00 213.82" xmlns="http://www.w3.org/2000/svg" xmlns:xlink="http://www.w3.org/1999/xlink">
<g id="graph0" class="graph" transform="scale(2.1818 2.1818) rotate(0) translate(4 94)">
<title>%3</title>
<!-- x -->
<g id="node1" class="node">
<title>x</title>
<polygon fill="transparent" stroke="transparent" points="54,-90 0,-90 0,-54 54,-54 54,-90"/>
<text text-anchor="middle" x="27" y="-68.6" font-family="monospace" font-size="13.00" fill="#000000">x</text>
</g>
<!-- v1 -->
<g id="node4" class="node">
<title>v1</title>
<polygon fill="#ffffff" stroke="#000000" points="112,-79 90,-79 90,-57 112,-57 112,-79"/>
<text text-anchor="middle" x="101" y="-64.6" font-family="monospace" font-size="13.00" fill="#000000">⬤</text>
</g>
<!-- x&#45;&gt;v1 -->
<g id="edge1" class="edge">
<title>x&#45;&gt;v1</title>
<path fill="none" stroke="#000000" d="M45.2921,-71.0112C55.5842,-70.4549 68.4969,-69.7569 79.2984,-69.1731"/>
<polygon fill="#000000" stroke="#000000" points="79.7956,-72.6514 89.5921,-68.6166 79.4177,-65.6616 79.7956,-72.6514"/>
</g>
<!-- y -->
<g id="node2" class="node">
<title>y</title>
<polygon fill="transparent" stroke="transparent" points="54,-36 0,-36 0,0 54,0 54,-36"/>
<text text-anchor="middle" x="27" y="-14.6" font-family="monospace" font-size="13.00" fill="#000000">y</text>
</g>
<!-- v2 -->
<g id="node5" class="node">
<title>v2</title>
<polygon fill="#ffffff" stroke="#000000" points="112,-36 90,-36 90,-14 112,-14 112,-36"/>
<text text-anchor="middle" x="101" y="-21.6" font-family="monospace" font-size="13.00" fill="#000000">⬤</text>
</g>
<!-- y&#45;&gt;v2 -->
<g id="edge3" class="edge">
<title>y&#45;&gt;v2</title>
<path fill="none" stroke="#000000" d="M45.2921,-19.7303C55.5842,-20.7039 68.4969,-21.9254 79.2984,-22.9471"/>
<polygon fill="#000000" stroke="#000000" points="79.3069,-26.4635 89.5921,-23.9209 79.9662,-19.4946 79.3069,-26.4635"/>
</g>
<!-- lista -->
<g id="node3" class="node">
<title>lista</title>
<polygon fill="#ffffff" stroke="#000000" points="148,-27 148,-63 256,-63 256,-27 148,-27"/>
<text text-anchor="middle" x="161.5" y="-41.6" font-family="monospace" font-size="13.00" fill="#000000">66</text>
<polyline fill="none" stroke="#000000" points="175,-27 175,-63 "/>
<text text-anchor="middle" x="188.5" y="-41.6" font-family="monospace" font-size="13.00" fill="#000000">77</text>
<polyline fill="none" stroke="#000000" points="202,-27 202,-63 "/>
<text text-anchor="middle" x="215.5" y="-41.6" font-family="monospace" font-size="13.00" fill="#000000">88</text>
<polyline fill="none" stroke="#000000" points="229,-27 229,-63 "/>
<text text-anchor="middle" x="242.5" y="-41.6" font-family="monospace" font-size="13.00" fill="#000000">99</text>
</g>
<!-- v1&#45;&gt;lista -->
<g id="edge2" class="edge">
<title>v1&#45;&gt;lista</title>
<path fill="none" stroke="#000000" d="M112.1947,-65.4507C118.8972,-63.9244 128.0173,-61.8476 137.887,-59.6"/>
<polygon fill="#000000" stroke="#000000" points="138.9717,-62.9427 147.9449,-57.3096 137.4174,-56.1174 138.9717,-62.9427"/>
</g>
<!-- v2&#45;&gt;lista -->
<g id="edge4" class="edge">
<title>v2&#45;&gt;lista</title>
<path fill="none" stroke="#000000" d="M112.1947,-27.2168C118.8972,-28.544 128.0173,-30.35 137.887,-32.3044"/>
<polygon fill="#000000" stroke="#000000" points="137.4555,-35.7868 147.9449,-34.296 138.8153,-28.9201 137.4555,-35.7868"/>
</g>
</g>
</svg>
