<?xml version="1.0" encoding="UTF-8" standalone="no"?>
<!DOCTYPE svg PUBLIC "-//W3C//DTD SVG 1.1//EN"
 "http://www.w3.org/Graphics/SVG/1.1/DTD/svg11.dtd">
<!-- Generated by graphviz version 2.43.0 (0)
 -->
<!-- Title: %3 Pages: 1 -->
<svg width="270pt" height="190pt"
 viewBox="0.00 0.00 270.00 190.00" xmlns="http://www.w3.org/2000/svg" xmlns:xlink="http://www.w3.org/1999/xlink">
<g id="graph0" class="graph" transform="scale(1 1) rotate(0) translate(4 186)">
<title>%3</title>
<!-- y -->
<g id="node1" class="node">
<title>y</title>
<polygon fill="white" stroke="black" points="0,-80 0,-102 36,-102 36,-80 0,-80"/>
<text text-anchor="middle" x="9" y="-87.6" font-family="monospace" font-size="13.00">y</text>
<polyline fill="none" stroke="black" points="18,-80 18,-102 "/>
<text text-anchor="middle" x="27" y="-87.6" font-family="monospace" font-size="13.00">⬤</text>
</g>
<!-- lista2 -->
<g id="node9" class="node">
<title>lista2</title>
<polygon fill="white" stroke="black" points="72,-80 72,-102 108,-102 108,-80 72,-80"/>
<text text-anchor="middle" x="81" y="-87.6" font-family="monospace" font-size="13.00">⬤</text>
<polyline fill="none" stroke="black" points="90,-80 90,-102 "/>
<text text-anchor="middle" x="99" y="-87.6" font-family="monospace" font-size="13.00">⬤</text>
</g>
<!-- y&#45;&gt;lista2 -->
<g id="edge9" class="edge">
<title>y:f1&#45;&gt;lista2</title>
<path fill="none" stroke="black" d="M36,-91C44.32,-91 53.37,-91 61.6,-91"/>
<polygon fill="black" stroke="black" points="61.81,-94.5 71.81,-91 61.81,-87.5 61.81,-94.5"/>
</g>
<!-- x -->
<g id="node2" class="node">
<title>x</title>
<polygon fill="white" stroke="black" points="72,-39 72,-61 108,-61 108,-39 72,-39"/>
<text text-anchor="middle" x="81" y="-46.6" font-family="monospace" font-size="13.00">x</text>
<polyline fill="none" stroke="black" points="90,-39 90,-61 "/>
<text text-anchor="middle" x="99" y="-46.6" font-family="monospace" font-size="13.00">⬤</text>
</g>
<!-- lista1 -->
<g id="node8" class="node">
<title>lista1</title>
<polygon fill="white" stroke="black" points="144,-80 144,-102 194,-102 194,-80 144,-80"/>
<text text-anchor="middle" x="152.5" y="-87.6" font-family="monospace" font-size="13.00">⬤</text>
<polyline fill="none" stroke="black" points="161,-80 161,-102 "/>
<text text-anchor="middle" x="169.5" y="-87.6" font-family="monospace" font-size="13.00">⬤</text>
<polyline fill="none" stroke="black" points="178,-80 178,-102 "/>
<text text-anchor="middle" x="186" y="-87.6" font-family="monospace" font-size="13.00">⬤</text>
</g>
<!-- x&#45;&gt;lista1 -->
<g id="edge8" class="edge">
<title>x:f1&#45;&gt;lista1</title>
<path fill="none" stroke="black" d="M108,-50C125.06,-50 140.83,-61.43 151.92,-72.22"/>
<polygon fill="black" stroke="black" points="149.69,-74.96 159.12,-79.8 154.76,-70.14 149.69,-74.96"/>
</g>
<!-- 1 -->
<g id="node3" class="node">
<title>1</title>
<ellipse fill="white" stroke="black" cx="246" cy="-171" rx="11" ry="11"/>
<text text-anchor="middle" x="246" y="-167.6" font-family="monospace" font-size="13.00">1</text>
</g>
<!-- 2 -->
<g id="node4" class="node">
<title>2</title>
<ellipse fill="white" stroke="black" cx="246" cy="-131" rx="11" ry="11"/>
<text text-anchor="middle" x="246" y="-127.6" font-family="monospace" font-size="13.00">2</text>
</g>
<!-- 99 -->
<g id="node5" class="node">
<title>99</title>
<ellipse fill="white" stroke="black" cx="246" cy="-91" rx="11" ry="11"/>
<text text-anchor="middle" x="246" y="-87.6" font-family="monospace" font-size="13.00">99</text>
</g>
<!-- 77 -->
<g id="node6" class="node">
<title>77</title>
<ellipse fill="white" stroke="black" cx="246" cy="-51" rx="11" ry="11"/>
<text text-anchor="middle" x="246" y="-47.6" font-family="monospace" font-size="13.00">77</text>
</g>
<!-- 3 -->
<g id="node7" class="node">
<title>3</title>
<ellipse fill="white" stroke="black" cx="246" cy="-11" rx="11" ry="11"/>
<text text-anchor="middle" x="246" y="-7.6" font-family="monospace" font-size="13.00">3</text>
</g>
<!-- lista1&#45;&gt;1 -->
<g id="edge1" class="edge">
<title>lista1:f0&#45;&gt;1</title>
<path fill="none" stroke="grey" stroke-dasharray="5,2" d="M152,-103C152,-139.02 198.03,-158.01 225.32,-166.11"/>
<polygon fill="grey" stroke="grey" points="224.48,-169.51 235.05,-168.77 226.33,-162.76 224.48,-169.51"/>
</g>
<!-- lista1&#45;&gt;2 -->
<g id="edge2" class="edge">
<title>lista1:f1&#45;&gt;2</title>
<path fill="none" stroke="grey" stroke-dasharray="5,2" d="M170,-103C170,-126.42 202.5,-131.14 224.71,-131.63"/>
<polygon fill="grey" stroke="grey" points="224.9,-135.13 234.89,-131.59 224.87,-128.13 224.9,-135.13"/>
</g>
<!-- lista1&#45;&gt;99 -->
<g id="edge3" class="edge">
<title>lista1:f0&#45;&gt;99</title>
<path fill="none" stroke="black" d="M152,-79C152,-49.12 199.81,-68.26 226.87,-81.48"/>
<polygon fill="black" stroke="black" points="225.58,-84.75 236.08,-86.15 228.74,-78.51 225.58,-84.75"/>
</g>
<!-- lista1&#45;&gt;77 -->
<g id="edge4" class="edge">
<title>lista1:f1&#45;&gt;77</title>
<path fill="none" stroke="black" d="M170,-79C170,-55.58 202.5,-50.86 224.71,-50.37"/>
<polygon fill="black" stroke="black" points="224.87,-53.87 234.89,-50.41 224.9,-46.87 224.87,-53.87"/>
</g>
<!-- lista1&#45;&gt;3 -->
<g id="edge5" class="edge">
<title>lista1:f2&#45;&gt;3</title>
<path fill="none" stroke="black" d="M186,-79C186,-53.55 209.87,-32.96 227.25,-21.35"/>
<polygon fill="black" stroke="black" points="229.42,-24.12 236.04,-15.85 225.71,-18.19 229.42,-24.12"/>
</g>
<!-- lista2&#45;&gt;lista1 -->
<g id="edge6" class="edge">
<title>lista2:f0&#45;&gt;lista1</title>
<path fill="none" stroke="black" d="M81,-79C81,-67.81 109.6,-73.4 134,-80.2"/>
<polygon fill="black" stroke="black" points="133.19,-83.61 143.77,-83.04 135.14,-76.89 133.19,-83.61"/>
</g>
<!-- lista2&#45;&gt;lista1 -->
<g id="edge7" class="edge">
<title>lista2:f1&#45;&gt;lista1</title>
<path fill="none" stroke="black" d="M108,-91C116.28,-91 125.19,-91 133.56,-91"/>
<polygon fill="black" stroke="black" points="133.77,-94.5 143.77,-91 133.77,-87.5 133.77,-94.5"/>
</g>
</g>
</svg>
