<?xml version="1.0" encoding="UTF-8" standalone="no"?>
<!DOCTYPE svg PUBLIC "-//W3C//DTD SVG 1.1//EN"
 "http://www.w3.org/Graphics/SVG/1.1/DTD/svg11.dtd">
<!-- Generated by graphviz version 2.40.1 (20161225.0304)
 -->
<!-- Title: %3 Pages: 1 -->
<svg width="400pt" height="576pt"
 viewBox="0.00 0.00 400.46 576.00" xmlns="http://www.w3.org/2000/svg" xmlns:xlink="http://www.w3.org/1999/xlink">
<g id="graph0" class="graph" transform="scale(2.7429 2.7429) rotate(0) translate(4 206)">
<title>%3</title>
<!-- y -->
<g id="node1" class="node">
<title>y</title>
<polygon fill="transparent" stroke="transparent" points="54,-130 0,-130 0,-94 54,-94 54,-130"/>
<text text-anchor="middle" x="27" y="-108.6" font-family="monospace" font-size="13.00" fill="#000000">y</text>
</g>
<!-- v2 -->
<g id="node5" class="node">
<title>v2</title>
<polygon fill="#ffffff" stroke="#000000" points="38,-40 16,-40 16,-18 38,-18 38,-40"/>
<text text-anchor="middle" x="27" y="-25.6" font-family="monospace" font-size="13.00" fill="#000000">⬤</text>
</g>
<!-- y&#45;&gt;v2 -->
<g id="edge3" class="edge">
<title>y&#45;&gt;v2</title>
<path fill="none" stroke="#000000" d="M27,-93.9902C27,-93.9902 27,-50.1023 27,-50.1023"/>
<polygon fill="#000000" stroke="#000000" points="30.5001,-50.1022 27,-40.1023 23.5001,-50.1023 30.5001,-50.1022"/>
</g>
<!-- x -->
<g id="node2" class="node">
<title>x</title>
<polygon fill="transparent" stroke="transparent" points="138,-202 84,-202 84,-166 138,-166 138,-202"/>
<text text-anchor="middle" x="111" y="-180.6" font-family="monospace" font-size="13.00" fill="#000000">x</text>
</g>
<!-- v1 -->
<g id="node6" class="node">
<title>v1</title>
<polygon fill="#ffffff" stroke="#000000" points="122,-123 100,-123 100,-101 122,-101 122,-123"/>
<text text-anchor="middle" x="111" y="-108.6" font-family="monospace" font-size="13.00" fill="#000000">⬤</text>
</g>
<!-- x&#45;&gt;v1 -->
<g id="edge1" class="edge">
<title>x&#45;&gt;v1</title>
<path fill="none" stroke="#000000" d="M111,-165.8314C111,-165.8314 111,-133.4086 111,-133.4086"/>
<polygon fill="#000000" stroke="#000000" points="114.5001,-133.4086 111,-123.4086 107.5001,-133.4086 114.5001,-133.4086"/>
</g>
<!-- lista1 -->
<g id="node3" class="node">
<title>lista1</title>
<polygon fill="#ffffff" stroke="#000000" points="96.5,-.5 96.5,-57.5 125.5,-57.5 125.5,-.5 96.5,-.5"/>
<text text-anchor="middle" x="111" y="-45.5" font-family="monospace" font-size="10.00" fill="#000000">99</text>
<polyline fill="none" stroke="#000000" points="96.5,-38.5 125.5,-38.5 "/>
<text text-anchor="middle" x="111" y="-26.5" font-family="monospace" font-size="10.00" fill="#000000">77</text>
<polyline fill="none" stroke="#000000" points="96.5,-19.5 125.5,-19.5 "/>
<text text-anchor="middle" x="111" y="-7.5" font-family="monospace" font-size="10.00" fill="#000000">3</text>
</g>
<!-- lista2 -->
<g id="node4" class="node">
<title>lista2</title>
<polygon fill="#ffffff" stroke="#000000" points="56,-11 56,-47 78,-47 78,-11 56,-11"/>
<text text-anchor="middle" x="67" y="-34.6" font-family="monospace" font-size="13.00" fill="#000000">⬤</text>
<polyline fill="none" stroke="#000000" points="56,-29 78,-29 "/>
<text text-anchor="middle" x="67" y="-16.6" font-family="monospace" font-size="13.00" fill="#000000">⬤</text>
</g>
<!-- lista2&#45;&gt;lista1 -->
<g id="edge5" class="edge">
<title>lista2:f0&#45;&gt;lista1</title>
<path fill="none" stroke="#000000" d="M78.1031,-35C78.1031,-35 86.2415,-35 86.2415,-35"/>
<polygon fill="#000000" stroke="#000000" points="86.2416,-38.5001 96.2415,-35 86.2415,-31.5001 86.2416,-38.5001"/>
</g>
<!-- lista2&#45;&gt;lista1 -->
<g id="edge6" class="edge">
<title>lista2:f1&#45;&gt;lista1</title>
<path fill="none" stroke="#000000" d="M78.1031,-22C78.1031,-22 86.2415,-22 86.2415,-22"/>
<polygon fill="#000000" stroke="#000000" points="86.2416,-25.5001 96.2415,-22 86.2415,-18.5001 86.2416,-25.5001"/>
</g>
<!-- v2&#45;&gt;lista2 -->
<g id="edge4" class="edge">
<title>v2&#45;&gt;lista2</title>
<path fill="none" stroke="#000000" d="M38.3554,-28C38.3554,-28 45.7547,-28 45.7547,-28"/>
<polygon fill="#000000" stroke="#000000" points="45.7547,-31.5001 55.7547,-28 45.7546,-24.5001 45.7547,-31.5001"/>
</g>
<!-- v1&#45;&gt;lista1 -->
<g id="edge2" class="edge">
<title>v1&#45;&gt;lista1</title>
<path fill="none" stroke="#000000" d="M111,-100.8063C111,-100.8063 111,-67.8328 111,-67.8328"/>
<polygon fill="#000000" stroke="#000000" points="114.5001,-67.8328 111,-57.8328 107.5001,-67.8328 114.5001,-67.8328"/>
</g>
</g>
</svg>
