<?xml version="1.0" encoding="UTF-8" standalone="no"?>
<!DOCTYPE svg PUBLIC "-//W3C//DTD SVG 1.1//EN"
 "http://www.w3.org/Graphics/SVG/1.1/DTD/svg11.dtd">
<!-- Generated by graphviz version 14.1.1 (0)
 -->
<!-- Pages: 1 -->
<svg width="282pt" height="417pt"
 viewBox="0.00 0.00 282.00 417.00" xmlns="http://www.w3.org/2000/svg" xmlns:xlink="http://www.w3.org/1999/xlink">
<g id="graph0" class="graph" transform="scale(1 1) rotate(0) translate(4 413.2)">
<!-- x -->
<g id="node1" class="node">
<title>x</title>
<polygon fill="white" stroke="black" points="0,-247.6 0,-283.6 50.4,-283.6 50.4,-247.6 0,-247.6"/>
<text xml:space="preserve" text-anchor="middle" x="12.25" y="-261.75" font-family="monospace" font-size="13.00">x</text>
<polyline fill="none" stroke="black" points="24.5,-248.1 24.5,-283.6"/>
<text xml:space="preserve" text-anchor="middle" x="37.25" y="-260.25" font-family="monospace" font-size="13.00">⬤</text>
</g>
<!-- lista1 -->
<g id="node3" class="node">
<title>lista1</title>
<polygon fill="white" stroke="black" points="86.4,-247.6 86.4,-283.6 194.4,-283.6 194.4,-247.6 86.4,-247.6"/>
<text xml:space="preserve" text-anchor="middle" x="99.65" y="-260.25" font-family="monospace" font-size="13.00">⬤</text>
<polyline fill="none" stroke="black" points="112.9,-248.1 112.9,-283.6"/>
<text xml:space="preserve" text-anchor="middle" x="126.65" y="-260.25" font-family="monospace" font-size="13.00">⬤</text>
<polyline fill="none" stroke="black" points="140.4,-248.1 140.4,-283.6"/>
<text xml:space="preserve" text-anchor="middle" x="153.65" y="-260.25" font-family="monospace" font-size="13.00">⬤</text>
<polyline fill="none" stroke="black" points="166.9,-248.1 166.9,-283.6"/>
<text xml:space="preserve" text-anchor="middle" x="180.65" y="-260.25" font-family="monospace" font-size="13.00">⬤</text>
</g>
<!-- x&#45;&gt;lista1 -->
<g id="edge8" class="edge">
<title>x:f1&#45;&gt;lista1</title>
<path fill="none" stroke="black" d="M50.4,-265.85C58.28,-265.85 66.55,-265.84 74.74,-265.82"/>
<polygon fill="black" stroke="black" points="74.71,-269.32 84.71,-265.8 74.7,-262.32 74.71,-269.32"/>
</g>
<!-- y -->
<g id="node2" class="node">
<title>y</title>
<polygon fill="white" stroke="black" points="0,-137.6 0,-173.6 50.4,-173.6 50.4,-137.6 0,-137.6"/>
<text xml:space="preserve" text-anchor="middle" x="12.25" y="-151.75" font-family="monospace" font-size="13.00">y</text>
<polyline fill="none" stroke="black" points="24.5,-138.1 24.5,-173.6"/>
<text xml:space="preserve" text-anchor="middle" x="37.25" y="-150.25" font-family="monospace" font-size="13.00">⬤</text>
</g>
<!-- y&#45;&gt;lista1 -->
<g id="edge9" class="edge">
<title>y:f1&#45;&gt;lista1</title>
<path fill="none" stroke="grey" stroke-dasharray="5,2" d="M37.25,-174.6C37.25,-204.06 61.23,-226.33 85.95,-241.47"/>
<polygon fill="grey" stroke="grey" points="84.06,-244.42 94.47,-246.37 87.55,-238.35 84.06,-244.42"/>
</g>
<!-- lista2 -->
<g id="node4" class="node">
<title>lista2</title>
<polygon fill="white" stroke="black" points="86.4,-95.6 86.4,-131.6 194.4,-131.6 194.4,-95.6 86.4,-95.6"/>
<text xml:space="preserve" text-anchor="middle" x="104.15" y="-108.25" font-family="monospace" font-size="13.00">⬤</text>
<polyline fill="none" stroke="black" points="121.9,-96.1 121.9,-131.6"/>
<text xml:space="preserve" text-anchor="middle" x="140.15" y="-108.25" font-family="monospace" font-size="13.00">⬤</text>
<polyline fill="none" stroke="black" points="158.4,-96.1 158.4,-131.6"/>
<text xml:space="preserve" text-anchor="middle" x="176.15" y="-108.25" font-family="monospace" font-size="13.00">⬤</text>
</g>
<!-- y&#45;&gt;lista2 -->
<g id="edge10" class="edge">
<title>y:s&#45;&gt;lista2</title>
<path fill="none" stroke="black" d="M37.25,-137.1C37.25,-118.06 54.31,-110.66 74.49,-108.56"/>
<polygon fill="black" stroke="black" points="74.64,-112.06 84.42,-107.99 74.24,-105.07 74.64,-112.06"/>
</g>
<!-- 66 -->
<g id="node5" class="node">
<title>66</title>
<ellipse fill="white" stroke="black" cx="252" cy="-387.6" rx="21.6" ry="21.6"/>
<text xml:space="preserve" text-anchor="middle" x="252" y="-383.5" font-family="monospace" font-size="13.00">66</text>
</g>
<!-- lista1&#45;&gt;66 -->
<g id="edge1" class="edge">
<title>lista1:f0&#45;&gt;66</title>
<path fill="none" stroke="black" d="M99.65,-284.6C99.65,-342.22 175.56,-369.89 219.86,-381.13"/>
<polygon fill="black" stroke="black" points="218.89,-384.49 229.43,-383.41 220.51,-377.68 218.89,-384.49"/>
</g>
<!-- 77 -->
<g id="node6" class="node">
<title>77</title>
<ellipse fill="white" stroke="black" cx="252" cy="-326.6" rx="21.6" ry="21.6"/>
<text xml:space="preserve" text-anchor="middle" x="252" y="-322.5" font-family="monospace" font-size="13.00">77</text>
</g>
<!-- lista1&#45;&gt;77 -->
<g id="edge2" class="edge">
<title>lista1:f1&#45;&gt;77</title>
<path fill="none" stroke="black" d="M126.65,-284.6C126.65,-323.77 182.72,-329.27 219.55,-328.66"/>
<polygon fill="black" stroke="black" points="219.36,-332.17 229.23,-328.33 219.12,-325.17 219.36,-332.17"/>
</g>
<!-- 99 -->
<g id="node7" class="node">
<title>99</title>
<ellipse fill="white" stroke="black" cx="252" cy="-265.6" rx="21.6" ry="21.6"/>
<text xml:space="preserve" text-anchor="middle" x="252" y="-261.5" font-family="monospace" font-size="13.00">99</text>
</g>
<!-- lista1&#45;&gt;99 -->
<g id="edge4" class="edge">
<title>lista1:f3&#45;&gt;99</title>
<path fill="none" stroke="black" d="M194.4,-265.85C202.45,-265.85 211.15,-265.82 219.26,-265.79"/>
<polygon fill="black" stroke="black" points="219.07,-269.29 229.05,-265.74 219.03,-262.29 219.07,-269.29"/>
</g>
<!-- 88 -->
<g id="node8" class="node">
<title>88</title>
<ellipse fill="white" stroke="black" cx="252" cy="-204.6" rx="21.6" ry="21.6"/>
<text xml:space="preserve" text-anchor="middle" x="252" y="-200.5" font-family="monospace" font-size="13.00">88</text>
</g>
<!-- lista1&#45;&gt;88 -->
<g id="edge3" class="edge">
<title>lista1:f2&#45;&gt;88</title>
<path fill="none" stroke="black" d="M153.65,-247.1C153.65,-217.76 191.24,-208.48 219.71,-205.65"/>
<polygon fill="black" stroke="black" points="219.61,-209.16 229.32,-204.92 219.09,-202.18 219.61,-209.16"/>
</g>
<!-- 1 -->
<g id="node9" class="node">
<title>1</title>
<ellipse fill="white" stroke="black" cx="252" cy="-143.6" rx="21.6" ry="21.6"/>
<text xml:space="preserve" text-anchor="middle" x="252" y="-139.5" font-family="monospace" font-size="13.00">1</text>
</g>
<!-- lista2&#45;&gt;1 -->
<g id="edge5" class="edge">
<title>lista2:f0&#45;&gt;1</title>
<path fill="none" stroke="black" d="M104.15,-132.6C104.15,-178.85 177.49,-165.23 220.51,-153.25"/>
<polygon fill="black" stroke="black" points="221.43,-156.63 230.05,-150.47 219.47,-149.91 221.43,-156.63"/>
</g>
<!-- 3 -->
<g id="node10" class="node">
<title>3</title>
<ellipse fill="white" stroke="black" cx="252" cy="-82.6" rx="21.6" ry="21.6"/>
<text xml:space="preserve" text-anchor="middle" x="252" y="-78.5" font-family="monospace" font-size="13.00">3</text>
</g>
<!-- lista2&#45;&gt;3 -->
<g id="edge7" class="edge">
<title>lista2:f2&#45;&gt;3</title>
<path fill="none" stroke="black" d="M194.4,-113.85C205.9,-113.85 217.25,-108.85 226.74,-102.85"/>
<polygon fill="black" stroke="black" points="228.49,-105.9 234.65,-97.27 224.46,-100.18 228.49,-105.9"/>
</g>
<!-- 2 -->
<g id="node11" class="node">
<title>2</title>
<ellipse fill="white" stroke="black" cx="252" cy="-21.6" rx="21.6" ry="21.6"/>
<text xml:space="preserve" text-anchor="middle" x="252" y="-17.5" font-family="monospace" font-size="13.00">2</text>
</g>
<!-- lista2&#45;&gt;2 -->
<g id="edge6" class="edge">
<title>lista2:f1&#45;&gt;2</title>
<path fill="none" stroke="black" d="M140.15,-95.1C140.15,-56.58 187.23,-37.05 220.02,-28.12"/>
<polygon fill="black" stroke="black" points="220.61,-31.58 229.46,-25.76 218.91,-24.79 220.61,-31.58"/>
</g>
</g>
</svg>
