<?xml version="1.0" encoding="UTF-8" standalone="no"?>
<!DOCTYPE svg PUBLIC "-//W3C//DTD SVG 1.1//EN"
 "http://www.w3.org/Graphics/SVG/1.1/DTD/svg11.dtd">
<!-- Generated by graphviz version 14.0.5 (0)
 -->
<!-- Pages: 1 -->
<svg width="261pt" height="116pt"
 viewBox="0.00 0.00 261.00 116.00" xmlns="http://www.w3.org/2000/svg" xmlns:xlink="http://www.w3.org/1999/xlink">
<g id="graph0" class="graph" transform="scale(1 1) rotate(0) translate(4 111.6)">
<!-- y -->
<g id="node1" class="node">
<title>y</title>
<polygon fill="white" stroke="black" points="0,-43 0,-64.6 36,-64.6 36,-43 0,-43"/>
<text xml:space="preserve" text-anchor="middle" x="9" y="-49.25" font-family="monospace" font-size="13.00">y</text>
<polyline fill="none" stroke="black" points="18,-43 18,-64.6"/>
<text xml:space="preserve" text-anchor="middle" x="27" y="-49.25" font-family="monospace" font-size="13.00">⬤</text>
</g>
<!-- lista2 -->
<g id="node7" class="node">
<title>lista2</title>
<polygon fill="white" stroke="black" points="72,-43 72,-64.6 108,-64.6 108,-43 72,-43"/>
<text xml:space="preserve" text-anchor="middle" x="81" y="-49.25" font-family="monospace" font-size="13.00">⬤</text>
<polyline fill="none" stroke="black" points="90,-43 90,-64.6"/>
<text xml:space="preserve" text-anchor="middle" x="99" y="-49.25" font-family="monospace" font-size="13.00">⬤</text>
</g>
<!-- y&#45;&gt;lista2 -->
<g id="edge7" class="edge">
<title>y:f1&#45;&gt;lista2</title>
<path fill="none" stroke="black" d="M36,-53.8C43.94,-53.8 52.56,-53.8 60.48,-53.8"/>
<polygon fill="black" stroke="black" points="60.3,-57.3 70.3,-53.8 60.3,-50.3 60.3,-57.3"/>
</g>
<!-- x -->
<g id="node2" class="node">
<title>x</title>
<polygon fill="white" stroke="black" points="72,-2 72,-23.6 108,-23.6 108,-2 72,-2"/>
<text xml:space="preserve" text-anchor="middle" x="81" y="-8.25" font-family="monospace" font-size="13.00">x</text>
<polyline fill="none" stroke="black" points="90,-2 90,-23.6"/>
<text xml:space="preserve" text-anchor="middle" x="99" y="-8.25" font-family="monospace" font-size="13.00">⬤</text>
</g>
<!-- lista1 -->
<g id="node6" class="node">
<title>lista1</title>
<polygon fill="white" stroke="black" points="144,-43 144,-64.6 194.4,-64.6 194.4,-43 144,-43"/>
<text xml:space="preserve" text-anchor="middle" x="152.5" y="-49.25" font-family="monospace" font-size="13.00">⬤</text>
<polyline fill="none" stroke="black" points="161,-43 161,-64.6"/>
<text xml:space="preserve" text-anchor="middle" x="169.5" y="-49.25" font-family="monospace" font-size="13.00">⬤</text>
<polyline fill="none" stroke="black" points="178,-43 178,-64.6"/>
<text xml:space="preserve" text-anchor="middle" x="186.5" y="-49.25" font-family="monospace" font-size="13.00">⬤</text>
</g>
<!-- x&#45;&gt;lista1 -->
<g id="edge6" class="edge">
<title>x:f1&#45;&gt;lista1</title>
<path fill="none" stroke="black" d="M108,-12.8C124.76,-12.8 140.31,-23.79 151.4,-34.4"/>
<polygon fill="black" stroke="black" points="148.78,-36.72 158.23,-41.51 153.83,-31.87 148.78,-36.72"/>
</g>
<!-- 1 -->
<g id="node3" class="node">
<title>1</title>
<ellipse fill="white" stroke="black" cx="241.9" cy="-95.8" rx="10.8" ry="10.8"/>
<text xml:space="preserve" text-anchor="middle" x="241.9" y="-91.25" font-family="monospace" font-size="13.00">1</text>
</g>
<!-- 3 -->
<g id="node4" class="node">
<title>3</title>
<ellipse fill="white" stroke="black" cx="241.9" cy="-53.8" rx="10.8" ry="10.8"/>
<text xml:space="preserve" text-anchor="middle" x="241.9" y="-49.25" font-family="monospace" font-size="13.00">3</text>
</g>
<!-- 2 -->
<g id="node5" class="node">
<title>2</title>
<ellipse fill="white" stroke="black" cx="241.9" cy="-11.8" rx="10.8" ry="10.8"/>
<text xml:space="preserve" text-anchor="middle" x="241.9" y="-7.25" font-family="monospace" font-size="13.00">2</text>
</g>
<!-- lista1&#45;&gt;1 -->
<g id="edge1" class="edge">
<title>lista1:f0&#45;&gt;1</title>
<path fill="none" stroke="black" d="M152.5,-65.6C152.5,-94.03 193.96,-97.69 220.09,-97.16"/>
<polygon fill="black" stroke="black" points="220.09,-100.67 229.93,-96.73 219.78,-93.67 220.09,-100.67"/>
</g>
<!-- lista1&#45;&gt;3 -->
<g id="edge3" class="edge">
<title>lista1:f2&#45;&gt;3</title>
<path fill="none" stroke="black" d="M194.4,-53.8C202.77,-53.8 211.99,-53.8 219.99,-53.8"/>
<polygon fill="black" stroke="black" points="219.77,-57.3 229.77,-53.8 219.77,-50.3 219.77,-57.3"/>
</g>
<!-- lista1&#45;&gt;2 -->
<g id="edge2" class="edge">
<title>lista1:f1&#45;&gt;2</title>
<path fill="none" stroke="black" d="M169.5,-42C169.5,-19.94 198.77,-13.75 219.83,-12.15"/>
<polygon fill="black" stroke="black" points="219.92,-15.65 229.76,-11.71 219.62,-8.65 219.92,-15.65"/>
</g>
<!-- lista2&#45;&gt;lista1 -->
<g id="edge4" class="edge">
<title>lista2:n&#45;&gt;lista1</title>
<path fill="none" stroke="black" d="M81,-65.6C81,-88.73 111.49,-80.38 136.41,-69.69"/>
<polygon fill="black" stroke="black" points="137.6,-72.99 145.27,-65.68 134.71,-66.62 137.6,-72.99"/>
</g>
<!-- lista2&#45;&gt;lista1 -->
<g id="edge5" class="edge">
<title>lista2:f1&#45;&gt;lista1</title>
<path fill="none" stroke="black" d="M108,-53.8C115.86,-53.8 124.31,-53.8 132.31,-53.8"/>
<polygon fill="black" stroke="black" points="132.08,-57.3 142.08,-53.8 132.08,-50.3 132.08,-57.3"/>
</g>
</g>
</svg>
