<?xml version="1.0" encoding="UTF-8" standalone="no"?>
<!DOCTYPE svg PUBLIC "-//W3C//DTD SVG 1.1//EN"
 "http://www.w3.org/Graphics/SVG/1.1/DTD/svg11.dtd">
<!-- Generated by graphviz version 2.43.0 (0)
 -->
<!-- Title: %3 Pages: 1 -->
<svg width="501pt" height="99pt"
 viewBox="0.00 0.00 501.00 99.00" xmlns="http://www.w3.org/2000/svg" xmlns:xlink="http://www.w3.org/1999/xlink">
<g id="graph0" class="graph" transform="scale(1 1) rotate(0) translate(4 95)">
<title>%3</title>
<g id="clust1" class="cluster">
<title>cluster0</title>
<polygon fill="transparent" stroke="black" points="141,-8 141,-83 485,-83 485,-8 141,-8"/>
<text text-anchor="middle" x="313" y="-67.8" font-family="Lato" font-size="14.00">Intérprete</text>
</g>
<!-- F -->
<g id="node1" class="node">
<title>F</title>
<polygon fill="aliceblue" stroke="black" points="107,-52 0,-52 0,-16 113,-16 113,-46 107,-52"/>
<polyline fill="none" stroke="black" points="107,-52 107,-46 "/>
<polyline fill="none" stroke="black" points="113,-46 107,-46 "/>
<text text-anchor="middle" x="56.5" y="-37.6" font-family="Lato" font-size="13.00">Código fuente</text>
<text text-anchor="middle" x="56.5" y="-23.6" font-family="Lato" font-size="13.00">(lenguaje fuente)</text>
</g>
<!-- Analizador -->
<g id="node3" class="node">
<title>Analizador</title>
<polygon fill="white" stroke="black" points="227,-52 149,-52 149,-16 227,-16 227,-52"/>
<text text-anchor="middle" x="188" y="-30.6" font-family="Lato" font-size="13.00">Analizador</text>
</g>
<!-- F&#45;&gt;Analizador -->
<g id="edge3" class="edge">
<title>F&#45;&gt;Analizador</title>
<path fill="none" stroke="black" d="M113.17,-34C121.65,-34 130.35,-34 138.66,-34"/>
<polygon fill="black" stroke="black" points="138.93,-37.5 148.93,-34 138.93,-30.5 138.93,-37.5"/>
</g>
<!-- I -->
<g id="node2" class="node">
<title>I</title>
<polygon fill="aliceblue" stroke="black" points="364,-52 263,-52 263,-16 370,-16 370,-46 364,-52"/>
<polyline fill="none" stroke="black" points="364,-52 364,-46 "/>
<polyline fill="none" stroke="black" points="370,-46 364,-46 "/>
<text text-anchor="middle" x="316.5" y="-30.6" font-family="Lato" font-size="13.00">Árbol sintáctico</text>
</g>
<!-- Emulador -->
<g id="node4" class="node">
<title>Emulador</title>
<polygon fill="white" stroke="black" points="477,-52 406,-52 406,-16 477,-16 477,-52"/>
<text text-anchor="middle" x="441.5" y="-30.6" font-family="Lato" font-size="13.00">Emulador</text>
</g>
<!-- I&#45;&gt;Emulador -->
<g id="edge2" class="edge">
<title>I&#45;&gt;Emulador</title>
<path fill="none" stroke="black" d="M370.02,-34C378.56,-34 387.33,-34 395.67,-34"/>
<polygon fill="black" stroke="black" points="395.94,-37.5 405.94,-34 395.94,-30.5 395.94,-37.5"/>
</g>
<!-- Analizador&#45;&gt;I -->
<g id="edge1" class="edge">
<title>Analizador&#45;&gt;I</title>
<path fill="none" stroke="black" d="M227.3,-34C235.35,-34 244.04,-34 252.72,-34"/>
<polygon fill="black" stroke="black" points="252.86,-37.5 262.86,-34 252.86,-30.5 252.86,-37.5"/>
</g>
</g>
</svg>
