<?xml version="1.0" encoding="UTF-8" standalone="no"?>
<!DOCTYPE svg PUBLIC "-//W3C//DTD SVG 1.1//EN"
 "http://www.w3.org/Graphics/SVG/1.1/DTD/svg11.dtd">
<!-- Generated by graphviz version 14.1.1 (0)
 -->
<!-- Pages: 1 -->
<svg width="498pt" height="101pt"
 viewBox="0.00 0.00 498.00 101.00" xmlns="http://www.w3.org/2000/svg" xmlns:xlink="http://www.w3.org/1999/xlink">
<g id="graph0" class="graph" transform="scale(1 1) rotate(0) translate(4 97)">
<g id="clust1" class="cluster">
<title>cluster0</title>
<polygon fill="none" stroke="black" points="140,-8 140,-85 482.25,-85 482.25,-8 140,-8"/>
<text xml:space="preserve" text-anchor="middle" x="311.12" y="-67.7" font-family="Lato" font-size="14.00">Intérprete</text>
</g>
<!-- F -->
<g id="node1" class="node">
<title>F</title>
<polygon fill="aliceblue" stroke="black" points="106,-54.5 0,-54.5 0,-13.5 112,-13.5 112,-48.5 106,-54.5"/>
<polyline fill="none" stroke="black" points="106,-54.5 106,-48.5"/>
<polyline fill="none" stroke="black" points="112,-48.5 106,-48.5"/>
<text xml:space="preserve" text-anchor="middle" x="56" y="-38.15" font-family="Lato" font-size="13.00">Código fuente</text>
<text xml:space="preserve" text-anchor="middle" x="56" y="-21.65" font-family="Lato" font-size="13.00">(lenguaje fuente)</text>
</g>
<!-- Analizador -->
<g id="node3" class="node">
<title>Analizador</title>
<polygon fill="white" stroke="black" points="225.5,-52 148,-52 148,-16 225.5,-16 225.5,-52"/>
<text xml:space="preserve" text-anchor="middle" x="186.75" y="-29.9" font-family="Lato" font-size="13.00">Analizador</text>
</g>
<!-- F&#45;&gt;Analizador -->
<g id="edge3" class="edge">
<title>F&#45;&gt;Analizador</title>
<path fill="none" stroke="black" d="M112.35,-34C120.22,-34 128.28,-34 136.04,-34"/>
<polygon fill="black" stroke="black" points="136.01,-37.5 146.01,-34 136.01,-30.5 136.01,-37.5"/>
</g>
<!-- I -->
<g id="node2" class="node">
<title>I</title>
<polygon fill="aliceblue" stroke="black" points="361.5,-52 261.5,-52 261.5,-16 367.5,-16 367.5,-46 361.5,-52"/>
<polyline fill="none" stroke="black" points="361.5,-52 361.5,-46"/>
<polyline fill="none" stroke="black" points="367.5,-46 361.5,-46"/>
<text xml:space="preserve" text-anchor="middle" x="314.5" y="-29.9" font-family="Lato" font-size="13.00">Árbol sintáctico</text>
</g>
<!-- Emulador -->
<g id="node4" class="node">
<title>Emulador</title>
<polygon fill="white" stroke="black" points="474.25,-52 403.5,-52 403.5,-16 474.25,-16 474.25,-52"/>
<text xml:space="preserve" text-anchor="middle" x="438.88" y="-29.9" font-family="Lato" font-size="13.00">Emulador</text>
</g>
<!-- I&#45;&gt;Emulador -->
<g id="edge2" class="edge">
<title>I&#45;&gt;Emulador</title>
<path fill="none" stroke="black" d="M367.75,-34C375.69,-34 383.83,-34 391.63,-34"/>
<polygon fill="black" stroke="black" points="391.62,-37.5 401.62,-34 391.62,-30.5 391.62,-37.5"/>
</g>
<!-- Analizador&#45;&gt;I -->
<g id="edge1" class="edge">
<title>Analizador&#45;&gt;I</title>
<path fill="none" stroke="black" d="M225.82,-34C233.39,-34 241.52,-34 249.68,-34"/>
<polygon fill="black" stroke="black" points="249.66,-37.5 259.66,-34 249.66,-30.5 249.66,-37.5"/>
</g>
</g>
</svg>
