<?xml version="1.0" encoding="UTF-8" standalone="no"?>
<!DOCTYPE svg PUBLIC "-//W3C//DTD SVG 1.1//EN"
 "http://www.w3.org/Graphics/SVG/1.1/DTD/svg11.dtd">
<!-- Generated by graphviz version 2.42.4 (0)
 -->
<!-- Pages: 1 -->
<svg width="455pt" height="332pt"
 viewBox="0.00 0.00 454.50 332.00" xmlns="http://www.w3.org/2000/svg" xmlns:xlink="http://www.w3.org/1999/xlink">
<g id="graph0" class="graph" transform="scale(1 1) rotate(0) translate(4 328)">
<!-- frases -->
<g id="node1" class="node">
<title>frases</title>
<polygon fill="transparent" stroke="transparent" points="295,-324 232,-324 232,-288 295,-288 295,-324"/>
<text text-anchor="start" x="240" y="-303.6" font-family="Lato" font-style="italic" font-size="13.00" fill="teal">&lt;frases&gt;</text>
</g>
<!-- frase -->
<g id="node2" class="node">
<title>frase</title>
<polygon fill="transparent" stroke="transparent" points="255.5,-252 197.5,-252 197.5,-216 255.5,-216 255.5,-252"/>
<text text-anchor="start" x="205.5" y="-231.6" font-family="Lato" font-style="italic" font-size="13.00" fill="teal">&lt;frase&gt;</text>
</g>
<!-- frases&#45;&gt;frase -->
<g id="edge1" class="edge">
<title>frases&#45;&gt;frase</title>
<path fill="none" stroke="black" d="M254.35,-287.7C250.1,-279.64 244.94,-269.89 240.23,-260.98"/>
<polygon fill="black" stroke="black" points="243.31,-259.31 235.54,-252.1 237.12,-262.58 243.31,-259.31"/>
</g>
<!-- punto -->
<g id="node10" class="node">
<title>punto</title>
<polygon fill="transparent" stroke="transparent" points="327.5,-252 273.5,-252 273.5,-216 327.5,-216 327.5,-252"/>
<text text-anchor="start" x="296.5" y="-231.6" font-family="monospace" font-weight="bold" font-size="13.00" fill="#268bd2">.</text>
</g>
<!-- frases&#45;&gt;punto -->
<g id="edge2" class="edge">
<title>frases&#45;&gt;punto</title>
<path fill="none" stroke="black" d="M272.65,-287.7C276.9,-279.64 282.06,-269.89 286.77,-260.98"/>
<polygon fill="black" stroke="black" points="289.88,-262.58 291.46,-252.1 283.69,-259.31 289.88,-262.58"/>
</g>
<!-- sujeto -->
<g id="node3" class="node">
<title>sujeto</title>
<polygon fill="transparent" stroke="transparent" points="212.5,-180 148.5,-180 148.5,-144 212.5,-144 212.5,-180"/>
<text text-anchor="start" x="156.5" y="-159.6" font-family="Lato" font-style="italic" font-size="13.00" fill="teal">&lt;sujeto&gt;</text>
</g>
<!-- frase&#45;&gt;sujeto -->
<g id="edge3" class="edge">
<title>frase&#45;&gt;sujeto</title>
<path fill="none" stroke="black" d="M215.13,-215.7C209.78,-207.56 203.3,-197.69 197.39,-188.7"/>
<polygon fill="black" stroke="black" points="200.16,-186.54 191.74,-180.1 194.31,-190.38 200.16,-186.54"/>
</g>
<!-- predicado -->
<g id="node4" class="node">
<title>predicado</title>
<polygon fill="transparent" stroke="transparent" points="362,-180 277,-180 277,-144 362,-144 362,-180"/>
<text text-anchor="start" x="285" y="-159.6" font-family="Lato" font-style="italic" font-size="13.00" fill="teal">&lt;predicado&gt;</text>
</g>
<!-- frase&#45;&gt;predicado -->
<g id="edge4" class="edge">
<title>frase&#45;&gt;predicado</title>
<path fill="none" stroke="black" d="M249.49,-215.7C261.31,-206.8 275.89,-195.82 288.68,-186.2"/>
<polygon fill="black" stroke="black" points="290.89,-188.91 296.78,-180.1 286.68,-183.32 290.89,-188.91"/>
</g>
<!-- articulo -->
<g id="node5" class="node">
<title>articulo</title>
<polygon fill="transparent" stroke="transparent" points="73,-108 0,-108 0,-72 73,-72 73,-108"/>
<text text-anchor="start" x="8" y="-87.6" font-family="Lato" font-style="italic" font-size="13.00" fill="teal">&lt;artículo&gt;</text>
</g>
<!-- sujeto&#45;&gt;articulo -->
<g id="edge5" class="edge">
<title>sujeto&#45;&gt;articulo</title>
<path fill="none" stroke="black" d="M148.18,-145.29C128.23,-135.59 102.36,-123.02 80.55,-112.41"/>
<polygon fill="black" stroke="black" points="82,-109.23 71.48,-108 78.94,-115.52 82,-109.23"/>
</g>
<!-- sustantivo -->
<g id="node6" class="node">
<title>sustantivo</title>
<polygon fill="transparent" stroke="transparent" points="178,-108 91,-108 91,-72 178,-72 178,-108"/>
<text text-anchor="start" x="99" y="-87.6" font-family="Lato" font-style="italic" font-size="13.00" fill="teal">&lt;sustantivo&gt;</text>
</g>
<!-- sujeto&#45;&gt;sustantivo -->
<g id="edge6" class="edge">
<title>sujeto&#45;&gt;sustantivo</title>
<path fill="none" stroke="black" d="M169.13,-143.7C163.78,-135.56 157.3,-125.69 151.39,-116.7"/>
<polygon fill="black" stroke="black" points="154.16,-114.54 145.74,-108.1 148.31,-118.38 154.16,-114.54"/>
</g>
<!-- adjetivo -->
<g id="node7" class="node">
<title>adjetivo</title>
<polygon fill="transparent" stroke="transparent" points="270.5,-108 196.5,-108 196.5,-72 270.5,-72 270.5,-108"/>
<text text-anchor="start" x="204.5" y="-87.6" font-family="Lato" font-style="italic" font-size="13.00" fill="teal">&lt;adjetivo&gt;</text>
</g>
<!-- sujeto&#45;&gt;adjetivo -->
<g id="edge7" class="edge">
<title>sujeto&#45;&gt;adjetivo</title>
<path fill="none" stroke="black" d="M193.6,-143.7C199.89,-135.39 207.55,-125.28 214.46,-116.14"/>
<polygon fill="black" stroke="black" points="217.3,-118.19 220.55,-108.1 211.72,-113.96 217.3,-118.19"/>
</g>
<!-- verbo -->
<g id="node8" class="node">
<title>verbo</title>
<polygon fill="transparent" stroke="transparent" points="350.5,-108 288.5,-108 288.5,-72 350.5,-72 350.5,-108"/>
<text text-anchor="start" x="296.5" y="-87.6" font-family="Lato" font-style="italic" font-size="13.00" fill="teal">&lt;verbo&gt;</text>
</g>
<!-- predicado&#45;&gt;verbo -->
<g id="edge11" class="edge">
<title>predicado&#45;&gt;verbo</title>
<path fill="none" stroke="black" d="M319.5,-143.7C319.5,-135.98 319.5,-126.71 319.5,-118.11"/>
<polygon fill="black" stroke="black" points="323,-118.1 319.5,-108.1 316,-118.1 323,-118.1"/>
</g>
<!-- adverbio -->
<g id="node9" class="node">
<title>adverbio</title>
<polygon fill="transparent" stroke="transparent" points="446.5,-108 368.5,-108 368.5,-72 446.5,-72 446.5,-108"/>
<text text-anchor="start" x="376.5" y="-87.6" font-family="Lato" font-style="italic" font-size="13.00" fill="teal">&lt;adverbio&gt;</text>
</g>
<!-- predicado&#45;&gt;adverbio -->
<g id="edge12" class="edge">
<title>predicado&#45;&gt;adverbio</title>
<path fill="none" stroke="black" d="M341.25,-143.7C352.34,-134.88 365.97,-124.03 377.99,-114.47"/>
<polygon fill="black" stroke="black" points="380.35,-117.07 386,-108.1 375.99,-111.59 380.35,-117.07"/>
</g>
<!-- el -->
<g id="node11" class="node">
<title>el</title>
<polygon fill="transparent" stroke="transparent" points="63.5,-36 9.5,-36 9.5,0 63.5,0 63.5,-36"/>
<text text-anchor="start" x="28.5" y="-15.6" font-family="monospace" font-weight="bold" font-size="13.00" fill="#268bd2">el</text>
</g>
<!-- articulo&#45;&gt;el -->
<g id="edge8" class="edge">
<title>articulo&#45;&gt;el</title>
<path fill="none" stroke="black" d="M36.5,-71.7C36.5,-63.98 36.5,-54.71 36.5,-46.11"/>
<polygon fill="black" stroke="black" points="40,-46.1 36.5,-36.1 33,-46.1 40,-46.1"/>
</g>
<!-- nino -->
<g id="node12" class="node">
<title>nino</title>
<polygon fill="transparent" stroke="transparent" points="161.5,-36 107.5,-36 107.5,0 161.5,0 161.5,-36"/>
<text text-anchor="start" x="119" y="-15.6" font-family="monospace" font-weight="bold" font-size="13.00" fill="#268bd2">niño</text>
</g>
<!-- sustantivo&#45;&gt;nino -->
<g id="edge9" class="edge">
<title>sustantivo&#45;&gt;nino</title>
<path fill="none" stroke="black" d="M134.5,-71.7C134.5,-63.98 134.5,-54.71 134.5,-46.11"/>
<polygon fill="black" stroke="black" points="138,-46.1 134.5,-36.1 131,-46.1 138,-46.1"/>
</g>
<!-- grande -->
<g id="node13" class="node">
<title>grande</title>
<polygon fill="transparent" stroke="transparent" points="264.5,-36 202.5,-36 202.5,0 264.5,0 264.5,-36"/>
<text text-anchor="start" x="210.5" y="-15.6" font-family="monospace" font-weight="bold" font-size="13.00" fill="#268bd2">grande</text>
</g>
<!-- adjetivo&#45;&gt;grande -->
<g id="edge10" class="edge">
<title>adjetivo&#45;&gt;grande</title>
<path fill="none" stroke="black" d="M233.5,-71.7C233.5,-63.98 233.5,-54.71 233.5,-46.11"/>
<polygon fill="black" stroke="black" points="237,-46.1 233.5,-36.1 230,-46.1 237,-46.1"/>
</g>
<!-- come -->
<g id="node14" class="node">
<title>come</title>
<polygon fill="transparent" stroke="transparent" points="346.5,-36 292.5,-36 292.5,0 346.5,0 346.5,-36"/>
<text text-anchor="start" x="304" y="-15.6" font-family="monospace" font-weight="bold" font-size="13.00" fill="#268bd2">come</text>
</g>
<!-- verbo&#45;&gt;come -->
<g id="edge13" class="edge">
<title>verbo&#45;&gt;come</title>
<path fill="none" stroke="black" d="M319.5,-71.7C319.5,-63.98 319.5,-54.71 319.5,-46.11"/>
<polygon fill="black" stroke="black" points="323,-46.1 319.5,-36.1 316,-46.1 323,-46.1"/>
</g>
<!-- mucho -->
<g id="node15" class="node">
<title>mucho</title>
<polygon fill="transparent" stroke="transparent" points="434.5,-36 380.5,-36 380.5,0 434.5,0 434.5,-36"/>
<text text-anchor="start" x="388.5" y="-15.6" font-family="monospace" font-weight="bold" font-size="13.00" fill="#268bd2">mucho</text>
</g>
<!-- adverbio&#45;&gt;mucho -->
<g id="edge14" class="edge">
<title>adverbio&#45;&gt;mucho</title>
<path fill="none" stroke="black" d="M407.5,-71.7C407.5,-63.98 407.5,-54.71 407.5,-46.11"/>
<polygon fill="black" stroke="black" points="411,-46.1 407.5,-36.1 404,-46.1 411,-46.1"/>
</g>
</g>
</svg>
