<?xml version="1.0" encoding="UTF-8" standalone="no"?>
<!DOCTYPE svg PUBLIC "-//W3C//DTD SVG 1.1//EN"
 "http://www.w3.org/Graphics/SVG/1.1/DTD/svg11.dtd">
<!-- Generated by graphviz version 2.40.1 (20161225.0304)
 -->
<!-- Title: %3 Pages: 1 -->
<svg width="576pt" height="425pt"
 viewBox="0.00 0.00 576.00 425.45" xmlns="http://www.w3.org/2000/svg" xmlns:xlink="http://www.w3.org/1999/xlink">
<g id="graph0" class="graph" transform="scale(1.0909 1.0909) rotate(0) translate(4 386)">
<title>%3</title>
<!-- fib5 -->
<g id="node1" class="node">
<title>fib5</title>
<polygon fill="transparent" stroke="transparent" points="370,-382 316,-382 316,-346 370,-346 370,-382"/>
<text text-anchor="middle" x="343" y="-360.6" font-family="Lato" font-size="13.00" fill="#000000">fib(5)</text>
</g>
<!-- fib4 -->
<g id="node2" class="node">
<title>fib4</title>
<polygon fill="transparent" stroke="transparent" points="298,-310 244,-310 244,-274 298,-274 298,-310"/>
<text text-anchor="middle" x="271" y="-288.6" font-family="Lato" font-size="13.00" fill="#000000">fib(4)</text>
</g>
<!-- fib5&#45;&gt;fib4 -->
<g id="edge1" class="edge">
<title>fib5&#45;&gt;fib4</title>
<path fill="none" stroke="#000000" d="M324.8314,-345.8314C316.2848,-337.2848 305.9443,-326.9443 296.6198,-317.6198"/>
<polygon fill="#000000" stroke="#000000" points="298.9592,-315.0095 289.4133,-310.4133 294.0095,-319.9592 298.9592,-315.0095"/>
</g>
<!-- fib3_2 -->
<g id="node4" class="node">
<title>fib3_2</title>
<polygon fill="transparent" stroke="transparent" points="420,-310 366,-310 366,-274 420,-274 420,-310"/>
<text text-anchor="middle" x="393" y="-288.6" font-family="Lato" font-size="13.00" fill="#000000">fib(3)</text>
</g>
<!-- fib5&#45;&gt;fib3_2 -->
<g id="edge2" class="edge">
<title>fib5&#45;&gt;fib3_2</title>
<path fill="none" stroke="#000000" d="M355.6171,-345.8314C361.3172,-337.6232 368.1663,-327.7606 374.4359,-318.7323"/>
<polygon fill="#000000" stroke="#000000" points="377.3838,-320.6234 380.213,-310.4133 371.6342,-316.6306 377.3838,-320.6234"/>
</g>
<!-- fib3_1 -->
<g id="node3" class="node">
<title>fib3_1</title>
<polygon fill="transparent" stroke="transparent" points="190,-238 136,-238 136,-202 190,-202 190,-238"/>
<text text-anchor="middle" x="163" y="-216.6" font-family="Lato" font-size="13.00" fill="#000000">fib(3)</text>
</g>
<!-- fib4&#45;&gt;fib3_1 -->
<g id="edge3" class="edge">
<title>fib4&#45;&gt;fib3_1</title>
<path fill="none" stroke="#000000" d="M243.747,-273.8314C230.0611,-264.7074 213.3085,-253.539 198.6173,-243.7449"/>
<polygon fill="#000000" stroke="#000000" points="200.5062,-240.7977 190.2442,-238.1628 196.6233,-246.6221 200.5062,-240.7977"/>
</g>
<!-- fib2_2 -->
<g id="node6" class="node">
<title>fib2_2</title>
<polygon fill="transparent" stroke="transparent" points="298,-238 244,-238 244,-202 298,-202 298,-238"/>
<text text-anchor="middle" x="271" y="-216.6" font-family="Lato" font-size="13.00" fill="#000000">fib(2)</text>
</g>
<!-- fib4&#45;&gt;fib2_2 -->
<g id="edge4" class="edge">
<title>fib4&#45;&gt;fib2_2</title>
<path fill="none" stroke="#000000" d="M271,-273.8314C271,-266.131 271,-256.9743 271,-248.4166"/>
<polygon fill="#000000" stroke="#000000" points="274.5001,-248.4132 271,-238.4133 267.5001,-248.4133 274.5001,-248.4132"/>
</g>
<!-- fib2_1 -->
<g id="node5" class="node">
<title>fib2_1</title>
<polygon fill="transparent" stroke="transparent" points="118,-166 64,-166 64,-130 118,-130 118,-166"/>
<text text-anchor="middle" x="91" y="-144.6" font-family="Lato" font-size="13.00" fill="#000000">fib(2)</text>
</g>
<!-- fib3_1&#45;&gt;fib2_1 -->
<g id="edge5" class="edge">
<title>fib3_1&#45;&gt;fib2_1</title>
<path fill="none" stroke="#000000" d="M144.8314,-201.8314C136.2848,-193.2848 125.9443,-182.9443 116.6198,-173.6198"/>
<polygon fill="#000000" stroke="#000000" points="118.9592,-171.0095 109.4133,-166.4133 114.0095,-175.9592 118.9592,-171.0095"/>
</g>
<!-- fib1_2 -->
<g id="node9" class="node">
<title>fib1_2</title>
<polygon fill="transparent" stroke="transparent" points="190,-166 136,-166 136,-130 190,-130 190,-166"/>
<text text-anchor="middle" x="163" y="-144.6" font-family="Lato" font-size="13.00" fill="#000000">fib(1)</text>
</g>
<!-- fib3_1&#45;&gt;fib1_2 -->
<g id="edge6" class="edge">
<title>fib3_1&#45;&gt;fib1_2</title>
<path fill="none" stroke="#000000" d="M163,-201.8314C163,-194.131 163,-184.9743 163,-176.4166"/>
<polygon fill="#000000" stroke="#000000" points="166.5001,-176.4132 163,-166.4133 159.5001,-176.4133 166.5001,-176.4132"/>
</g>
<!-- fib2_3 -->
<g id="node7" class="node">
<title>fib2_3</title>
<polygon fill="transparent" stroke="transparent" points="420,-238 366,-238 366,-202 420,-202 420,-238"/>
<text text-anchor="middle" x="393" y="-216.6" font-family="Lato" font-size="13.00" fill="#000000">fib(2)</text>
</g>
<!-- fib3_2&#45;&gt;fib2_3 -->
<g id="edge16" class="edge">
<title>fib3_2&#45;&gt;fib2_3</title>
<path fill="none" stroke="#000000" d="M393,-273.8314C393,-266.131 393,-256.9743 393,-248.4166"/>
<polygon fill="#000000" stroke="#000000" points="396.5001,-248.4132 393,-238.4133 389.5001,-248.4133 396.5001,-248.4132"/>
</g>
<!-- fib1_5 -->
<g id="node12" class="node">
<title>fib1_5</title>
<polygon fill="transparent" stroke="transparent" points="520,-238 466,-238 466,-202 520,-202 520,-238"/>
<text text-anchor="middle" x="493" y="-216.6" font-family="Lato" font-size="13.00" fill="#000000">fib(1)</text>
</g>
<!-- fib3_2&#45;&gt;fib1_5 -->
<g id="edge17" class="edge">
<title>fib3_2&#45;&gt;fib1_5</title>
<path fill="none" stroke="#000000" d="M418.2342,-273.8314C430.788,-264.7927 446.1283,-253.7476 459.6391,-244.0198"/>
<polygon fill="#000000" stroke="#000000" points="461.7036,-246.8463 467.7739,-238.1628 457.6134,-241.1655 461.7036,-246.8463"/>
</g>
<!-- fib1_1 -->
<g id="node8" class="node">
<title>fib1_1</title>
<polygon fill="transparent" stroke="transparent" points="54,-94 0,-94 0,-58 54,-58 54,-94"/>
<text text-anchor="middle" x="27" y="-72.6" font-family="Lato" font-size="13.00" fill="#000000">fib(1)</text>
</g>
<!-- fib2_1&#45;&gt;fib1_1 -->
<g id="edge7" class="edge">
<title>fib2_1&#45;&gt;fib1_1</title>
<path fill="none" stroke="#000000" d="M74.8501,-129.8314C67.3283,-121.3694 58.2435,-111.1489 50.0196,-101.8971"/>
<polygon fill="#000000" stroke="#000000" points="52.627,-99.5621 43.3673,-94.4133 47.3951,-104.2127 52.627,-99.5621"/>
</g>
<!-- fib0_1 -->
<g id="node13" class="node">
<title>fib0_1</title>
<polygon fill="transparent" stroke="transparent" points="126,-94 72,-94 72,-58 126,-58 126,-94"/>
<text text-anchor="middle" x="99" y="-72.6" font-family="Lato" font-size="13.00" fill="#000000">fib(0)</text>
</g>
<!-- fib2_1&#45;&gt;fib0_1 -->
<g id="edge8" class="edge">
<title>fib2_1&#45;&gt;fib0_1</title>
<path fill="none" stroke="#000000" d="M93.0187,-129.8314C93.8743,-122.131 94.8917,-112.9743 95.8426,-104.4166"/>
<polygon fill="#000000" stroke="#000000" points="99.3283,-104.7386 96.9541,-94.4133 92.3711,-103.9656 99.3283,-104.7386"/>
</g>
<!-- fib1_3 -->
<g id="node10" class="node">
<title>fib1_3</title>
<polygon fill="transparent" stroke="transparent" points="262,-166 208,-166 208,-130 262,-130 262,-166"/>
<text text-anchor="middle" x="235" y="-144.6" font-family="Lato" font-size="13.00" fill="#000000">fib(1)</text>
</g>
<!-- fib2_2&#45;&gt;fib1_3 -->
<g id="edge12" class="edge">
<title>fib2_2&#45;&gt;fib1_3</title>
<path fill="none" stroke="#000000" d="M261.9157,-201.8314C257.9385,-193.8771 253.1845,-184.369 248.7861,-175.5723"/>
<polygon fill="#000000" stroke="#000000" points="251.8093,-173.7923 244.2066,-166.4133 245.5483,-176.9228 251.8093,-173.7923"/>
</g>
<!-- fib0_2 -->
<g id="node14" class="node">
<title>fib0_2</title>
<polygon fill="transparent" stroke="transparent" points="334,-166 280,-166 280,-130 334,-130 334,-166"/>
<text text-anchor="middle" x="307" y="-144.6" font-family="Lato" font-size="13.00" fill="#000000">fib(0)</text>
</g>
<!-- fib2_2&#45;&gt;fib0_2 -->
<g id="edge13" class="edge">
<title>fib2_2&#45;&gt;fib0_2</title>
<path fill="none" stroke="#000000" d="M280.0843,-201.8314C284.0615,-193.8771 288.8155,-184.369 293.2139,-175.5723"/>
<polygon fill="#000000" stroke="#000000" points="296.4517,-176.9228 297.7934,-166.4133 290.1907,-173.7923 296.4517,-176.9228"/>
</g>
<!-- fib1_4 -->
<g id="node11" class="node">
<title>fib1_4</title>
<polygon fill="transparent" stroke="transparent" points="406,-166 352,-166 352,-130 406,-130 406,-166"/>
<text text-anchor="middle" x="379" y="-144.6" font-family="Lato" font-size="13.00" fill="#000000">fib(1)</text>
</g>
<!-- fib2_3&#45;&gt;fib1_4 -->
<g id="edge18" class="edge">
<title>fib2_3&#45;&gt;fib1_4</title>
<path fill="none" stroke="#000000" d="M389.4672,-201.8314C387.9699,-194.131 386.1895,-184.9743 384.5255,-176.4166"/>
<polygon fill="#000000" stroke="#000000" points="387.9248,-175.5614 382.5804,-166.4133 381.0535,-176.8975 387.9248,-175.5614"/>
</g>
<!-- fib0_3 -->
<g id="node15" class="node">
<title>fib0_3</title>
<polygon fill="transparent" stroke="transparent" points="478,-166 424,-166 424,-130 478,-130 478,-166"/>
<text text-anchor="middle" x="451" y="-144.6" font-family="Lato" font-size="13.00" fill="#000000">fib(0)</text>
</g>
<!-- fib2_3&#45;&gt;fib0_3 -->
<g id="edge19" class="edge">
<title>fib2_3&#45;&gt;fib0_3</title>
<path fill="none" stroke="#000000" d="M407.6358,-201.8314C414.3161,-193.5386 422.3568,-183.557 429.6904,-174.4533"/>
<polygon fill="#000000" stroke="#000000" points="432.6194,-176.3965 436.1671,-166.4133 427.1681,-172.0052 432.6194,-176.3965"/>
</g>
<!-- u1 -->
<g id="node16" class="node">
<title>u1</title>
<ellipse fill="transparent" stroke="#000000" cx="27" cy="-11" rx="11" ry="11"/>
<text text-anchor="middle" x="27" y="-7.6" font-family="Lato" font-size="13.00" fill="#000000">1</text>
</g>
<!-- fib1_1&#45;&gt;u1 -->
<g id="edge9" class="edge">
<title>fib1_1&#45;&gt;u1</title>
<path fill="none" stroke="#000000" d="M27,-57.8939C27,-49.9537 27,-40.5771 27,-32.3034"/>
<polygon fill="#000000" stroke="#000000" points="30.5001,-32.2757 27,-22.2757 23.5001,-32.2758 30.5001,-32.2757"/>
</g>
<!-- u2 -->
<g id="node17" class="node">
<title>u2</title>
<ellipse fill="transparent" stroke="#000000" cx="163" cy="-76" rx="11" ry="11"/>
<text text-anchor="middle" x="163" y="-72.6" font-family="Lato" font-size="13.00" fill="#000000">1</text>
</g>
<!-- fib1_2&#45;&gt;u2 -->
<g id="edge11" class="edge">
<title>fib1_2&#45;&gt;u2</title>
<path fill="none" stroke="#000000" d="M163,-129.8314C163,-120.0415 163,-107.8979 163,-97.6237"/>
<polygon fill="#000000" stroke="#000000" points="166.5001,-97.4086 163,-87.4086 159.5001,-97.4086 166.5001,-97.4086"/>
</g>
<!-- u3 -->
<g id="node18" class="node">
<title>u3</title>
<ellipse fill="transparent" stroke="#000000" cx="235" cy="-76" rx="11" ry="11"/>
<text text-anchor="middle" x="235" y="-72.6" font-family="Lato" font-size="13.00" fill="#000000">1</text>
</g>
<!-- fib1_3&#45;&gt;u3 -->
<g id="edge14" class="edge">
<title>fib1_3&#45;&gt;u3</title>
<path fill="none" stroke="#000000" d="M235,-129.8314C235,-120.0415 235,-107.8979 235,-97.6237"/>
<polygon fill="#000000" stroke="#000000" points="238.5001,-97.4086 235,-87.4086 231.5001,-97.4086 238.5001,-97.4086"/>
</g>
<!-- u4 -->
<g id="node19" class="node">
<title>u4</title>
<ellipse fill="transparent" stroke="#000000" cx="379" cy="-76" rx="11" ry="11"/>
<text text-anchor="middle" x="379" y="-72.6" font-family="Lato" font-size="13.00" fill="#000000">1</text>
</g>
<!-- fib1_4&#45;&gt;u4 -->
<g id="edge20" class="edge">
<title>fib1_4&#45;&gt;u4</title>
<path fill="none" stroke="#000000" d="M379,-129.8314C379,-120.0415 379,-107.8979 379,-97.6237"/>
<polygon fill="#000000" stroke="#000000" points="382.5001,-97.4086 379,-87.4086 375.5001,-97.4086 382.5001,-97.4086"/>
</g>
<!-- u5 -->
<g id="node20" class="node">
<title>u5</title>
<ellipse fill="transparent" stroke="#000000" cx="508" cy="-148" rx="11" ry="11"/>
<text text-anchor="middle" x="508" y="-144.6" font-family="Lato" font-size="13.00" fill="#000000">1</text>
</g>
<!-- fib1_5&#45;&gt;u5 -->
<g id="edge22" class="edge">
<title>fib1_5&#45;&gt;u5</title>
<path fill="none" stroke="#000000" d="M496.7851,-201.8314C498.8722,-191.8137 501.4726,-179.3315 503.6438,-168.9095"/>
<polygon fill="#000000" stroke="#000000" points="507.0984,-169.4879 505.7116,-158.9842 500.2456,-168.0601 507.0984,-169.4879"/>
</g>
<!-- c1 -->
<g id="node21" class="node">
<title>c1</title>
<ellipse fill="transparent" stroke="#000000" cx="99" cy="-11" rx="11" ry="11"/>
<text text-anchor="middle" x="99" y="-7.6" font-family="Lato" font-size="13.00" fill="#000000">0</text>
</g>
<!-- fib0_1&#45;&gt;c1 -->
<g id="edge10" class="edge">
<title>fib0_1&#45;&gt;c1</title>
<path fill="none" stroke="#000000" d="M99,-57.8939C99,-49.9537 99,-40.5771 99,-32.3034"/>
<polygon fill="#000000" stroke="#000000" points="102.5001,-32.2757 99,-22.2757 95.5001,-32.2758 102.5001,-32.2757"/>
</g>
<!-- c2 -->
<g id="node22" class="node">
<title>c2</title>
<ellipse fill="transparent" stroke="#000000" cx="307" cy="-76" rx="11" ry="11"/>
<text text-anchor="middle" x="307" y="-72.6" font-family="Lato" font-size="13.00" fill="#000000">0</text>
</g>
<!-- fib0_2&#45;&gt;c2 -->
<g id="edge15" class="edge">
<title>fib0_2&#45;&gt;c2</title>
<path fill="none" stroke="#000000" d="M307,-129.8314C307,-120.0415 307,-107.8979 307,-97.6237"/>
<polygon fill="#000000" stroke="#000000" points="310.5001,-97.4086 307,-87.4086 303.5001,-97.4086 310.5001,-97.4086"/>
</g>
<!-- c3 -->
<g id="node23" class="node">
<title>c3</title>
<ellipse fill="transparent" stroke="#000000" cx="451" cy="-76" rx="11" ry="11"/>
<text text-anchor="middle" x="451" y="-72.6" font-family="Lato" font-size="13.00" fill="#000000">0</text>
</g>
<!-- fib0_3&#45;&gt;c3 -->
<g id="edge21" class="edge">
<title>fib0_3&#45;&gt;c3</title>
<path fill="none" stroke="#000000" d="M451,-129.8314C451,-120.0415 451,-107.8979 451,-97.6237"/>
<polygon fill="#000000" stroke="#000000" points="454.5001,-97.4086 451,-87.4086 447.5001,-97.4086 454.5001,-97.4086"/>
</g>
</g>
</svg>
