<?xml version="1.0" encoding="UTF-8" standalone="no"?>
<!DOCTYPE svg PUBLIC "-//W3C//DTD SVG 1.1//EN"
 "http://www.w3.org/Graphics/SVG/1.1/DTD/svg11.dtd">
<!-- Generated by graphviz version 2.43.0 (0)
 -->
<!-- Title: %3 Pages: 1 -->
<svg width="528pt" height="390pt"
 viewBox="0.00 0.00 528.00 390.00" xmlns="http://www.w3.org/2000/svg" xmlns:xlink="http://www.w3.org/1999/xlink">
<g id="graph0" class="graph" transform="scale(1 1) rotate(0) translate(4 386)">
<title>%3</title>
<!-- fib5 -->
<g id="node1" class="node">
<title>fib5</title>
<polygon fill="transparent" stroke="transparent" points="370,-382 316,-382 316,-346 370,-346 370,-382"/>
<text text-anchor="middle" x="343" y="-360.6" font-family="Lato" font-size="13.00">fib(5)</text>
</g>
<!-- fib4 -->
<g id="node2" class="node">
<title>fib4</title>
<polygon fill="transparent" stroke="transparent" points="298,-310 244,-310 244,-274 298,-274 298,-310"/>
<text text-anchor="middle" x="271" y="-288.6" font-family="Lato" font-size="13.00">fib(4)</text>
</g>
<!-- fib5&#45;&gt;fib4 -->
<g id="edge1" class="edge">
<title>fib5&#45;&gt;fib4</title>
<path fill="none" stroke="black" d="M325.2,-345.7C316.4,-337.14 305.62,-326.66 296,-317.3"/>
<polygon fill="black" stroke="black" points="298.2,-314.57 288.59,-310.1 293.32,-319.58 298.2,-314.57"/>
</g>
<!-- fib3_2 -->
<g id="node4" class="node">
<title>fib3_2</title>
<polygon fill="transparent" stroke="transparent" points="420,-310 366,-310 366,-274 420,-274 420,-310"/>
<text text-anchor="middle" x="393" y="-288.6" font-family="Lato" font-size="13.00">fib(3)</text>
</g>
<!-- fib5&#45;&gt;fib3_2 -->
<g id="edge2" class="edge">
<title>fib5&#45;&gt;fib3_2</title>
<path fill="none" stroke="black" d="M355.36,-345.7C361.23,-337.47 368.37,-327.48 374.84,-318.42"/>
<polygon fill="black" stroke="black" points="377.82,-320.28 380.78,-310.1 372.12,-316.21 377.82,-320.28"/>
</g>
<!-- fib3_1 -->
<g id="node3" class="node">
<title>fib3_1</title>
<polygon fill="transparent" stroke="transparent" points="190,-238 136,-238 136,-202 190,-202 190,-238"/>
<text text-anchor="middle" x="163" y="-216.6" font-family="Lato" font-size="13.00">fib(3)</text>
</g>
<!-- fib4&#45;&gt;fib3_1 -->
<g id="edge3" class="edge">
<title>fib4&#45;&gt;fib3_1</title>
<path fill="none" stroke="black" d="M244.58,-273.88C230.59,-264.81 213.22,-253.55 198.11,-243.76"/>
<polygon fill="black" stroke="black" points="199.82,-240.69 189.52,-238.19 196.01,-246.57 199.82,-240.69"/>
</g>
<!-- fib2_2 -->
<g id="node6" class="node">
<title>fib2_2</title>
<polygon fill="transparent" stroke="transparent" points="298,-238 244,-238 244,-202 298,-202 298,-238"/>
<text text-anchor="middle" x="271" y="-216.6" font-family="Lato" font-size="13.00">fib(2)</text>
</g>
<!-- fib4&#45;&gt;fib2_2 -->
<g id="edge4" class="edge">
<title>fib4&#45;&gt;fib2_2</title>
<path fill="none" stroke="black" d="M271,-273.7C271,-265.98 271,-256.71 271,-248.11"/>
<polygon fill="black" stroke="black" points="274.5,-248.1 271,-238.1 267.5,-248.1 274.5,-248.1"/>
</g>
<!-- fib2_1 -->
<g id="node5" class="node">
<title>fib2_1</title>
<polygon fill="transparent" stroke="transparent" points="118,-166 64,-166 64,-130 118,-130 118,-166"/>
<text text-anchor="middle" x="91" y="-144.6" font-family="Lato" font-size="13.00">fib(2)</text>
</g>
<!-- fib3_1&#45;&gt;fib2_1 -->
<g id="edge5" class="edge">
<title>fib3_1&#45;&gt;fib2_1</title>
<path fill="none" stroke="black" d="M145.2,-201.7C136.4,-193.14 125.62,-182.66 116,-173.3"/>
<polygon fill="black" stroke="black" points="118.2,-170.57 108.59,-166.1 113.32,-175.58 118.2,-170.57"/>
</g>
<!-- fib1_2 -->
<g id="node9" class="node">
<title>fib1_2</title>
<polygon fill="transparent" stroke="transparent" points="190,-166 136,-166 136,-130 190,-130 190,-166"/>
<text text-anchor="middle" x="163" y="-144.6" font-family="Lato" font-size="13.00">fib(1)</text>
</g>
<!-- fib3_1&#45;&gt;fib1_2 -->
<g id="edge6" class="edge">
<title>fib3_1&#45;&gt;fib1_2</title>
<path fill="none" stroke="black" d="M163,-201.7C163,-193.98 163,-184.71 163,-176.11"/>
<polygon fill="black" stroke="black" points="166.5,-176.1 163,-166.1 159.5,-176.1 166.5,-176.1"/>
</g>
<!-- fib2_3 -->
<g id="node7" class="node">
<title>fib2_3</title>
<polygon fill="transparent" stroke="transparent" points="420,-238 366,-238 366,-202 420,-202 420,-238"/>
<text text-anchor="middle" x="393" y="-216.6" font-family="Lato" font-size="13.00">fib(2)</text>
</g>
<!-- fib3_2&#45;&gt;fib2_3 -->
<g id="edge16" class="edge">
<title>fib3_2&#45;&gt;fib2_3</title>
<path fill="none" stroke="black" d="M393,-273.7C393,-265.98 393,-256.71 393,-248.11"/>
<polygon fill="black" stroke="black" points="396.5,-248.1 393,-238.1 389.5,-248.1 396.5,-248.1"/>
</g>
<!-- fib1_5 -->
<g id="node12" class="node">
<title>fib1_5</title>
<polygon fill="transparent" stroke="transparent" points="520,-238 466,-238 466,-202 520,-202 520,-238"/>
<text text-anchor="middle" x="493" y="-216.6" font-family="Lato" font-size="13.00">fib(1)</text>
</g>
<!-- fib3_2&#45;&gt;fib1_5 -->
<g id="edge17" class="edge">
<title>fib3_2&#45;&gt;fib1_5</title>
<path fill="none" stroke="black" d="M417.46,-273.88C430.3,-264.89 446.2,-253.76 460.09,-244.03"/>
<polygon fill="black" stroke="black" points="462.26,-246.79 468.44,-238.19 458.24,-241.06 462.26,-246.79"/>
</g>
<!-- fib1_1 -->
<g id="node8" class="node">
<title>fib1_1</title>
<polygon fill="transparent" stroke="transparent" points="54,-94 0,-94 0,-58 54,-58 54,-94"/>
<text text-anchor="middle" x="27" y="-72.6" font-family="Lato" font-size="13.00">fib(1)</text>
</g>
<!-- fib2_1&#45;&gt;fib1_1 -->
<g id="edge7" class="edge">
<title>fib2_1&#45;&gt;fib1_1</title>
<path fill="none" stroke="black" d="M75.18,-129.7C67.43,-121.22 57.96,-110.86 49.48,-101.58"/>
<polygon fill="black" stroke="black" points="51.97,-99.12 42.64,-94.1 46.8,-103.85 51.97,-99.12"/>
</g>
<!-- fib0_1 -->
<g id="node13" class="node">
<title>fib0_1</title>
<polygon fill="transparent" stroke="transparent" points="126,-94 72,-94 72,-58 126,-58 126,-94"/>
<text text-anchor="middle" x="99" y="-72.6" font-family="Lato" font-size="13.00">fib(0)</text>
</g>
<!-- fib2_1&#45;&gt;fib0_1 -->
<g id="edge8" class="edge">
<title>fib2_1&#45;&gt;fib0_1</title>
<path fill="none" stroke="black" d="M92.98,-129.7C93.86,-121.98 94.92,-112.71 95.9,-104.11"/>
<polygon fill="black" stroke="black" points="99.39,-104.44 97.05,-94.1 92.43,-103.64 99.39,-104.44"/>
</g>
<!-- fib1_3 -->
<g id="node10" class="node">
<title>fib1_3</title>
<polygon fill="transparent" stroke="transparent" points="262,-166 208,-166 208,-130 262,-130 262,-166"/>
<text text-anchor="middle" x="235" y="-144.6" font-family="Lato" font-size="13.00">fib(1)</text>
</g>
<!-- fib2_2&#45;&gt;fib1_3 -->
<g id="edge12" class="edge">
<title>fib2_2&#45;&gt;fib1_3</title>
<path fill="none" stroke="black" d="M262.1,-201.7C258,-193.73 253.05,-184.1 248.51,-175.26"/>
<polygon fill="black" stroke="black" points="251.48,-173.4 243.8,-166.1 245.26,-176.6 251.48,-173.4"/>
</g>
<!-- fib0_2 -->
<g id="node14" class="node">
<title>fib0_2</title>
<polygon fill="transparent" stroke="transparent" points="334,-166 280,-166 280,-130 334,-130 334,-166"/>
<text text-anchor="middle" x="307" y="-144.6" font-family="Lato" font-size="13.00">fib(0)</text>
</g>
<!-- fib2_2&#45;&gt;fib0_2 -->
<g id="edge13" class="edge">
<title>fib2_2&#45;&gt;fib0_2</title>
<path fill="none" stroke="black" d="M279.9,-201.7C284,-193.73 288.95,-184.1 293.49,-175.26"/>
<polygon fill="black" stroke="black" points="296.74,-176.6 298.2,-166.1 290.52,-173.4 296.74,-176.6"/>
</g>
<!-- fib1_4 -->
<g id="node11" class="node">
<title>fib1_4</title>
<polygon fill="transparent" stroke="transparent" points="406,-166 352,-166 352,-130 406,-130 406,-166"/>
<text text-anchor="middle" x="379" y="-144.6" font-family="Lato" font-size="13.00">fib(1)</text>
</g>
<!-- fib2_3&#45;&gt;fib1_4 -->
<g id="edge18" class="edge">
<title>fib2_3&#45;&gt;fib1_4</title>
<path fill="none" stroke="black" d="M389.54,-201.7C388,-193.98 386.14,-184.71 384.42,-176.11"/>
<polygon fill="black" stroke="black" points="387.81,-175.22 382.42,-166.1 380.95,-176.6 387.81,-175.22"/>
</g>
<!-- fib0_3 -->
<g id="node15" class="node">
<title>fib0_3</title>
<polygon fill="transparent" stroke="transparent" points="478,-166 424,-166 424,-130 478,-130 478,-166"/>
<text text-anchor="middle" x="451" y="-144.6" font-family="Lato" font-size="13.00">fib(0)</text>
</g>
<!-- fib2_3&#45;&gt;fib0_3 -->
<g id="edge19" class="edge">
<title>fib2_3&#45;&gt;fib0_3</title>
<path fill="none" stroke="black" d="M407.34,-201.7C414.29,-193.3 422.77,-183.07 430.4,-173.86"/>
<polygon fill="black" stroke="black" points="433.14,-176.04 436.83,-166.1 427.75,-171.57 433.14,-176.04"/>
</g>
<!-- u1 -->
<g id="node16" class="node">
<title>u1</title>
<ellipse fill="transparent" stroke="black" cx="27" cy="-11" rx="11" ry="11"/>
<text text-anchor="middle" x="27" y="-7.6" font-family="Lato" font-size="13.00">1</text>
</g>
<!-- fib1_1&#45;&gt;u1 -->
<g id="edge9" class="edge">
<title>fib1_1&#45;&gt;u1</title>
<path fill="none" stroke="black" d="M27,-57.78C27,-49.97 27,-40.67 27,-32.5"/>
<polygon fill="black" stroke="black" points="30.5,-32.3 27,-22.3 23.5,-32.3 30.5,-32.3"/>
</g>
<!-- u2 -->
<g id="node17" class="node">
<title>u2</title>
<ellipse fill="transparent" stroke="black" cx="163" cy="-76" rx="11" ry="11"/>
<text text-anchor="middle" x="163" y="-72.6" font-family="Lato" font-size="13.00">1</text>
</g>
<!-- fib1_2&#45;&gt;u2 -->
<g id="edge11" class="edge">
<title>fib1_2&#45;&gt;u2</title>
<path fill="none" stroke="black" d="M163,-129.7C163,-119.94 163,-107.7 163,-97.48"/>
<polygon fill="black" stroke="black" points="166.5,-97.38 163,-87.38 159.5,-97.38 166.5,-97.38"/>
</g>
<!-- u3 -->
<g id="node18" class="node">
<title>u3</title>
<ellipse fill="transparent" stroke="black" cx="235" cy="-76" rx="11" ry="11"/>
<text text-anchor="middle" x="235" y="-72.6" font-family="Lato" font-size="13.00">1</text>
</g>
<!-- fib1_3&#45;&gt;u3 -->
<g id="edge14" class="edge">
<title>fib1_3&#45;&gt;u3</title>
<path fill="none" stroke="black" d="M235,-129.7C235,-119.94 235,-107.7 235,-97.48"/>
<polygon fill="black" stroke="black" points="238.5,-97.38 235,-87.38 231.5,-97.38 238.5,-97.38"/>
</g>
<!-- u4 -->
<g id="node19" class="node">
<title>u4</title>
<ellipse fill="transparent" stroke="black" cx="379" cy="-76" rx="11" ry="11"/>
<text text-anchor="middle" x="379" y="-72.6" font-family="Lato" font-size="13.00">1</text>
</g>
<!-- fib1_4&#45;&gt;u4 -->
<g id="edge20" class="edge">
<title>fib1_4&#45;&gt;u4</title>
<path fill="none" stroke="black" d="M379,-129.7C379,-119.94 379,-107.7 379,-97.48"/>
<polygon fill="black" stroke="black" points="382.5,-97.38 379,-87.38 375.5,-97.38 382.5,-97.38"/>
</g>
<!-- u5 -->
<g id="node20" class="node">
<title>u5</title>
<ellipse fill="transparent" stroke="black" cx="508" cy="-148" rx="11" ry="11"/>
<text text-anchor="middle" x="508" y="-144.6" font-family="Lato" font-size="13.00">1</text>
</g>
<!-- fib1_5&#45;&gt;u5 -->
<g id="edge22" class="edge">
<title>fib1_5&#45;&gt;u5</title>
<path fill="none" stroke="black" d="M496.71,-201.7C498.85,-191.72 501.54,-179.14 503.76,-168.78"/>
<polygon fill="black" stroke="black" points="507.19,-169.49 505.86,-158.98 500.34,-168.02 507.19,-169.49"/>
</g>
<!-- c1 -->
<g id="node21" class="node">
<title>c1</title>
<ellipse fill="transparent" stroke="black" cx="99" cy="-11" rx="11" ry="11"/>
<text text-anchor="middle" x="99" y="-7.6" font-family="Lato" font-size="13.00">0</text>
</g>
<!-- fib0_1&#45;&gt;c1 -->
<g id="edge10" class="edge">
<title>fib0_1&#45;&gt;c1</title>
<path fill="none" stroke="black" d="M99,-57.78C99,-49.97 99,-40.67 99,-32.5"/>
<polygon fill="black" stroke="black" points="102.5,-32.3 99,-22.3 95.5,-32.3 102.5,-32.3"/>
</g>
<!-- c2 -->
<g id="node22" class="node">
<title>c2</title>
<ellipse fill="transparent" stroke="black" cx="307" cy="-76" rx="11" ry="11"/>
<text text-anchor="middle" x="307" y="-72.6" font-family="Lato" font-size="13.00">0</text>
</g>
<!-- fib0_2&#45;&gt;c2 -->
<g id="edge15" class="edge">
<title>fib0_2&#45;&gt;c2</title>
<path fill="none" stroke="black" d="M307,-129.7C307,-119.94 307,-107.7 307,-97.48"/>
<polygon fill="black" stroke="black" points="310.5,-97.38 307,-87.38 303.5,-97.38 310.5,-97.38"/>
</g>
<!-- c3 -->
<g id="node23" class="node">
<title>c3</title>
<ellipse fill="transparent" stroke="black" cx="451" cy="-76" rx="11" ry="11"/>
<text text-anchor="middle" x="451" y="-72.6" font-family="Lato" font-size="13.00">0</text>
</g>
<!-- fib0_3&#45;&gt;c3 -->
<g id="edge21" class="edge">
<title>fib0_3&#45;&gt;c3</title>
<path fill="none" stroke="black" d="M451,-129.7C451,-119.94 451,-107.7 451,-97.48"/>
<polygon fill="black" stroke="black" points="454.5,-97.38 451,-87.38 447.5,-97.38 454.5,-97.38"/>
</g>
</g>
</svg>
