<?xml version="1.0" encoding="UTF-8" standalone="no"?>
<!DOCTYPE svg PUBLIC "-//W3C//DTD SVG 1.1//EN"
 "http://www.w3.org/Graphics/SVG/1.1/DTD/svg11.dtd">
<!-- Generated by graphviz version 14.1.1 (0)
 -->
<!-- Pages: 1 -->
<svg width="95pt" height="154pt"
 viewBox="0.00 0.00 95.00 154.00" xmlns="http://www.w3.org/2000/svg" xmlns:xlink="http://www.w3.org/1999/xlink">
<g id="graph0" class="graph" transform="scale(1 1) rotate(0) translate(4 149.5)">
<!-- dos -->
<g id="node1" class="node">
<title>dos</title>
<ellipse fill="none" stroke="blue" cx="11.75" cy="-72.75" rx="10.8" ry="10.8"/>
<text xml:space="preserve" text-anchor="middle" x="11.75" y="-68.65" font-family="monospace" font-size="13.00" fill="blue">2</text>
</g>
<!-- tres -->
<g id="node2" class="node">
<title>tres</title>
<ellipse fill="none" stroke="blue" cx="32.75" cy="-12.25" rx="10.8" ry="10.8"/>
<text xml:space="preserve" text-anchor="middle" x="32.75" y="-8.15" font-family="monospace" font-size="13.00" fill="blue">3</text>
</g>
<!-- mas -->
<g id="node3" class="node">
<title>mas</title>
<ellipse fill="none" stroke="black" cx="32.75" cy="-133.25" rx="10.8" ry="10.8"/>
<text xml:space="preserve" text-anchor="middle" x="32.75" y="-129.15" font-family="monospace" font-size="13.00">+</text>
</g>
<!-- mas&#45;&gt;dos -->
<g id="edge1" class="edge">
<title>mas&#45;&gt;dos</title>
<path fill="none" stroke="black" d="M29.47,-123.11C25.55,-112.18 19.02,-94 15.08,-83.02"/>
</g>
<!-- por -->
<g id="node4" class="node">
<title>por</title>
<ellipse fill="none" stroke="black" cx="53.75" cy="-72.75" rx="10.8" ry="10.8"/>
<text xml:space="preserve" text-anchor="middle" x="53.75" y="-68.65" font-family="monospace" font-size="13.00">*</text>
</g>
<!-- mas&#45;&gt;por -->
<g id="edge4" class="edge">
<title>mas&#45;&gt;por</title>
<path fill="none" stroke="black" d="M36.03,-123.11C39.95,-112.18 46.48,-94 50.42,-83.02"/>
</g>
<!-- por&#45;&gt;tres -->
<g id="edge2" class="edge">
<title>por&#45;&gt;tres</title>
<path fill="none" stroke="black" d="M50.47,-62.61C46.55,-51.68 40.02,-33.5 36.08,-22.52"/>
</g>
<!-- 5 -->
<g id="node5" class="node">
<title>5</title>
<ellipse fill="none" stroke="black" cx="74.75" cy="-12.25" rx="10.8" ry="10.8"/>
<text xml:space="preserve" text-anchor="middle" x="74.75" y="-8.15" font-family="monospace" font-size="13.00">5</text>
</g>
<!-- por&#45;&gt;5 -->
<g id="edge3" class="edge">
<title>por&#45;&gt;5</title>
<path fill="none" stroke="black" d="M57.03,-62.61C60.95,-51.68 67.48,-33.5 71.42,-22.52"/>
</g>
</g>
</svg>
