<?xml version="1.0" encoding="UTF-8" standalone="no"?>
<!DOCTYPE svg PUBLIC "-//W3C//DTD SVG 1.1//EN"
 "http://www.w3.org/Graphics/SVG/1.1/DTD/svg11.dtd">
<!-- Generated by graphviz version 14.1.1 (0)
 -->
<!-- Pages: 1 -->
<svg width="528pt" height="393pt"
 viewBox="0.00 0.00 528.00 393.00" xmlns="http://www.w3.org/2000/svg" xmlns:xlink="http://www.w3.org/1999/xlink">
<g id="graph0" class="graph" transform="scale(1 1) rotate(0) translate(4 388.5)">
<!-- fib5 -->
<g id="node1" class="node">
<title>fib5</title>
<polygon fill="none" stroke="none" points="370,-384.5 316,-384.5 316,-348.5 370,-348.5 370,-384.5"/>
<text xml:space="preserve" text-anchor="middle" x="343" y="-362.4" font-family="Lato" font-size="13.00">fib(5)</text>
</g>
<!-- fib4 -->
<g id="node2" class="node">
<title>fib4</title>
<polygon fill="none" stroke="none" points="298,-312.5 244,-312.5 244,-276.5 298,-276.5 298,-312.5"/>
<text xml:space="preserve" text-anchor="middle" x="271" y="-290.4" font-family="Lato" font-size="13.00">fib(4)</text>
</g>
<!-- fib5&#45;&gt;fib4 -->
<g id="edge1" class="edge">
<title>fib5&#45;&gt;fib4</title>
<path fill="none" stroke="black" d="M325.57,-348.55C316.82,-340.04 306.04,-329.57 296.39,-320.18"/>
<polygon fill="black" stroke="black" points="298.96,-317.81 289.35,-313.34 294.08,-322.82 298.96,-317.81"/>
</g>
<!-- fib3_2 -->
<g id="node4" class="node">
<title>fib3_2</title>
<polygon fill="none" stroke="none" points="420,-312.5 366,-312.5 366,-276.5 420,-276.5 420,-312.5"/>
<text xml:space="preserve" text-anchor="middle" x="393" y="-290.4" font-family="Lato" font-size="13.00">fib(3)</text>
</g>
<!-- fib5&#45;&gt;fib3_2 -->
<g id="edge2" class="edge">
<title>fib5&#45;&gt;fib3_2</title>
<path fill="none" stroke="black" d="M355.1,-348.55C360.88,-340.47 367.91,-330.62 374.35,-321.61"/>
<polygon fill="black" stroke="black" points="377.16,-323.69 380.13,-313.52 371.47,-319.62 377.16,-323.69"/>
</g>
<!-- fib3_1 -->
<g id="node3" class="node">
<title>fib3_1</title>
<polygon fill="none" stroke="none" points="190,-240.5 136,-240.5 136,-204.5 190,-204.5 190,-240.5"/>
<text xml:space="preserve" text-anchor="middle" x="163" y="-218.4" font-family="Lato" font-size="13.00">fib(3)</text>
</g>
<!-- fib4&#45;&gt;fib3_1 -->
<g id="edge3" class="edge">
<title>fib4&#45;&gt;fib3_1</title>
<path fill="none" stroke="black" d="M244.86,-276.55C230.93,-267.53 213.59,-256.29 198.47,-246.49"/>
<polygon fill="black" stroke="black" points="200.47,-243.61 190.17,-241.11 196.66,-249.49 200.47,-243.61"/>
</g>
<!-- fib2_2 -->
<g id="node6" class="node">
<title>fib2_2</title>
<polygon fill="none" stroke="none" points="298,-240.5 244,-240.5 244,-204.5 298,-204.5 298,-240.5"/>
<text xml:space="preserve" text-anchor="middle" x="271" y="-218.4" font-family="Lato" font-size="13.00">fib(2)</text>
</g>
<!-- fib4&#45;&gt;fib2_2 -->
<g id="edge4" class="edge">
<title>fib4&#45;&gt;fib2_2</title>
<path fill="none" stroke="black" d="M271,-276.55C271,-269.07 271,-260.08 271,-251.64"/>
<polygon fill="black" stroke="black" points="274.5,-251.8 271,-241.8 267.5,-251.8 274.5,-251.8"/>
</g>
<!-- fib2_1 -->
<g id="node5" class="node">
<title>fib2_1</title>
<polygon fill="none" stroke="none" points="118,-168.5 64,-168.5 64,-132.5 118,-132.5 118,-168.5"/>
<text xml:space="preserve" text-anchor="middle" x="91" y="-146.4" font-family="Lato" font-size="13.00">fib(2)</text>
</g>
<!-- fib3_1&#45;&gt;fib2_1 -->
<g id="edge5" class="edge">
<title>fib3_1&#45;&gt;fib2_1</title>
<path fill="none" stroke="black" d="M145.57,-204.55C136.82,-196.04 126.04,-185.57 116.39,-176.18"/>
<polygon fill="black" stroke="black" points="118.96,-173.81 109.35,-169.34 114.08,-178.82 118.96,-173.81"/>
</g>
<!-- fib1_2 -->
<g id="node9" class="node">
<title>fib1_2</title>
<polygon fill="none" stroke="none" points="190,-168.5 136,-168.5 136,-132.5 190,-132.5 190,-168.5"/>
<text xml:space="preserve" text-anchor="middle" x="163" y="-146.4" font-family="Lato" font-size="13.00">fib(1)</text>
</g>
<!-- fib3_1&#45;&gt;fib1_2 -->
<g id="edge6" class="edge">
<title>fib3_1&#45;&gt;fib1_2</title>
<path fill="none" stroke="black" d="M163,-204.55C163,-197.07 163,-188.08 163,-179.64"/>
<polygon fill="black" stroke="black" points="166.5,-179.8 163,-169.8 159.5,-179.8 166.5,-179.8"/>
</g>
<!-- fib2_3 -->
<g id="node7" class="node">
<title>fib2_3</title>
<polygon fill="none" stroke="none" points="420,-240.5 366,-240.5 366,-204.5 420,-204.5 420,-240.5"/>
<text xml:space="preserve" text-anchor="middle" x="393" y="-218.4" font-family="Lato" font-size="13.00">fib(2)</text>
</g>
<!-- fib3_2&#45;&gt;fib2_3 -->
<g id="edge16" class="edge">
<title>fib3_2&#45;&gt;fib2_3</title>
<path fill="none" stroke="black" d="M393,-276.55C393,-269.07 393,-260.08 393,-251.64"/>
<polygon fill="black" stroke="black" points="396.5,-251.8 393,-241.8 389.5,-251.8 396.5,-251.8"/>
</g>
<!-- fib1_5 -->
<g id="node12" class="node">
<title>fib1_5</title>
<polygon fill="none" stroke="none" points="520,-240.5 466,-240.5 466,-204.5 520,-204.5 520,-240.5"/>
<text xml:space="preserve" text-anchor="middle" x="493" y="-218.4" font-family="Lato" font-size="13.00">fib(1)</text>
</g>
<!-- fib3_2&#45;&gt;fib1_5 -->
<g id="edge17" class="edge">
<title>fib3_2&#45;&gt;fib1_5</title>
<path fill="none" stroke="black" d="M417.21,-276.55C429.98,-267.61 445.85,-256.51 459.76,-246.77"/>
<polygon fill="black" stroke="black" points="461.59,-249.76 467.78,-241.16 457.58,-244.02 461.59,-249.76"/>
</g>
<!-- fib1_1 -->
<g id="node8" class="node">
<title>fib1_1</title>
<polygon fill="none" stroke="none" points="54,-96.5 0,-96.5 0,-60.5 54,-60.5 54,-96.5"/>
<text xml:space="preserve" text-anchor="middle" x="27" y="-74.4" font-family="Lato" font-size="13.00">fib(1)</text>
</g>
<!-- fib2_1&#45;&gt;fib1_1 -->
<g id="edge7" class="edge">
<title>fib2_1&#45;&gt;fib1_1</title>
<path fill="none" stroke="black" d="M75.51,-132.55C67.88,-124.21 58.53,-113.99 50.09,-104.75"/>
<polygon fill="black" stroke="black" points="52.7,-102.42 43.37,-97.41 47.54,-107.15 52.7,-102.42"/>
</g>
<!-- fib0_1 -->
<g id="node13" class="node">
<title>fib0_1</title>
<polygon fill="none" stroke="none" points="126,-96.5 72,-96.5 72,-60.5 126,-60.5 126,-96.5"/>
<text xml:space="preserve" text-anchor="middle" x="99" y="-74.4" font-family="Lato" font-size="13.00">fib(0)</text>
</g>
<!-- fib2_1&#45;&gt;fib0_1 -->
<g id="edge8" class="edge">
<title>fib2_1&#45;&gt;fib0_1</title>
<path fill="none" stroke="black" d="M92.94,-132.55C93.79,-125.07 94.82,-116.08 95.78,-107.64"/>
<polygon fill="black" stroke="black" points="99.25,-108.13 96.91,-97.79 92.3,-107.33 99.25,-108.13"/>
</g>
<!-- fib1_3 -->
<g id="node10" class="node">
<title>fib1_3</title>
<polygon fill="none" stroke="none" points="262,-168.5 208,-168.5 208,-132.5 262,-132.5 262,-168.5"/>
<text xml:space="preserve" text-anchor="middle" x="235" y="-146.4" font-family="Lato" font-size="13.00">fib(1)</text>
</g>
<!-- fib2_2&#45;&gt;fib1_3 -->
<g id="edge12" class="edge">
<title>fib2_2&#45;&gt;fib1_3</title>
<path fill="none" stroke="black" d="M262.29,-204.55C258.26,-196.73 253.38,-187.25 248.87,-178.48"/>
<polygon fill="black" stroke="black" points="252.01,-176.93 244.33,-169.63 245.79,-180.13 252.01,-176.93"/>
</g>
<!-- fib0_2 -->
<g id="node14" class="node">
<title>fib0_2</title>
<polygon fill="none" stroke="none" points="334,-168.5 280,-168.5 280,-132.5 334,-132.5 334,-168.5"/>
<text xml:space="preserve" text-anchor="middle" x="307" y="-146.4" font-family="Lato" font-size="13.00">fib(0)</text>
</g>
<!-- fib2_2&#45;&gt;fib0_2 -->
<g id="edge13" class="edge">
<title>fib2_2&#45;&gt;fib0_2</title>
<path fill="none" stroke="black" d="M279.71,-204.55C283.74,-196.73 288.62,-187.25 293.13,-178.48"/>
<polygon fill="black" stroke="black" points="296.21,-180.13 297.67,-169.63 289.99,-176.93 296.21,-180.13"/>
</g>
<!-- fib1_4 -->
<g id="node11" class="node">
<title>fib1_4</title>
<polygon fill="none" stroke="none" points="406,-168.5 352,-168.5 352,-132.5 406,-132.5 406,-168.5"/>
<text xml:space="preserve" text-anchor="middle" x="379" y="-146.4" font-family="Lato" font-size="13.00">fib(1)</text>
</g>
<!-- fib2_3&#45;&gt;fib1_4 -->
<g id="edge18" class="edge">
<title>fib2_3&#45;&gt;fib1_4</title>
<path fill="none" stroke="black" d="M389.61,-204.55C388.1,-196.99 386.27,-187.87 384.57,-179.35"/>
<polygon fill="black" stroke="black" points="388.05,-178.89 382.65,-169.77 381.18,-180.27 388.05,-178.89"/>
</g>
<!-- fib0_3 -->
<g id="node15" class="node">
<title>fib0_3</title>
<polygon fill="none" stroke="none" points="478,-168.5 424,-168.5 424,-132.5 478,-132.5 478,-168.5"/>
<text xml:space="preserve" text-anchor="middle" x="451" y="-146.4" font-family="Lato" font-size="13.00">fib(0)</text>
</g>
<!-- fib2_3&#45;&gt;fib0_3 -->
<g id="edge19" class="edge">
<title>fib2_3&#45;&gt;fib0_3</title>
<path fill="none" stroke="black" d="M407.04,-204.55C413.88,-196.3 422.25,-186.2 429.84,-177.04"/>
<polygon fill="black" stroke="black" points="432.44,-179.39 436.12,-169.45 427.05,-174.92 432.44,-179.39"/>
</g>
<!-- u1 -->
<g id="node16" class="node">
<title>u1</title>
<ellipse fill="white" stroke="black" cx="27" cy="-12.25" rx="10.8" ry="10.8"/>
<text xml:space="preserve" text-anchor="middle" x="27" y="-8.15" font-family="Lato" font-size="13.00">1</text>
</g>
<!-- fib1_1&#45;&gt;u1 -->
<g id="edge9" class="edge">
<title>fib1_1&#45;&gt;u1</title>
<path fill="none" stroke="black" d="M27,-60.62C27,-52.53 27,-42.75 27,-34.19"/>
<polygon fill="black" stroke="black" points="30.5,-34.36 27,-24.36 23.5,-34.36 30.5,-34.36"/>
</g>
<!-- u2 -->
<g id="node17" class="node">
<title>u2</title>
<ellipse fill="white" stroke="black" cx="163" cy="-78.5" rx="10.8" ry="10.8"/>
<text xml:space="preserve" text-anchor="middle" x="163" y="-74.4" font-family="Lato" font-size="13.00">1</text>
</g>
<!-- fib1_2&#45;&gt;u2 -->
<g id="edge11" class="edge">
<title>fib1_2&#45;&gt;u2</title>
<path fill="none" stroke="black" d="M163,-132.55C163,-122.89 163,-110.69 163,-100.43"/>
<polygon fill="black" stroke="black" points="166.5,-100.69 163,-90.69 159.5,-100.69 166.5,-100.69"/>
</g>
<!-- u3 -->
<g id="node18" class="node">
<title>u3</title>
<ellipse fill="white" stroke="black" cx="235" cy="-78.5" rx="10.8" ry="10.8"/>
<text xml:space="preserve" text-anchor="middle" x="235" y="-74.4" font-family="Lato" font-size="13.00">1</text>
</g>
<!-- fib1_3&#45;&gt;u3 -->
<g id="edge14" class="edge">
<title>fib1_3&#45;&gt;u3</title>
<path fill="none" stroke="black" d="M235,-132.55C235,-122.89 235,-110.69 235,-100.43"/>
<polygon fill="black" stroke="black" points="238.5,-100.69 235,-90.69 231.5,-100.69 238.5,-100.69"/>
</g>
<!-- u4 -->
<g id="node19" class="node">
<title>u4</title>
<ellipse fill="white" stroke="black" cx="379" cy="-78.5" rx="10.8" ry="10.8"/>
<text xml:space="preserve" text-anchor="middle" x="379" y="-74.4" font-family="Lato" font-size="13.00">1</text>
</g>
<!-- fib1_4&#45;&gt;u4 -->
<g id="edge20" class="edge">
<title>fib1_4&#45;&gt;u4</title>
<path fill="none" stroke="black" d="M379,-132.55C379,-122.89 379,-110.69 379,-100.43"/>
<polygon fill="black" stroke="black" points="382.5,-100.69 379,-90.69 375.5,-100.69 382.5,-100.69"/>
</g>
<!-- u5 -->
<g id="node20" class="node">
<title>u5</title>
<ellipse fill="white" stroke="black" cx="508" cy="-150.5" rx="10.8" ry="10.8"/>
<text xml:space="preserve" text-anchor="middle" x="508" y="-146.4" font-family="Lato" font-size="13.00">1</text>
</g>
<!-- fib1_5&#45;&gt;u5 -->
<g id="edge22" class="edge">
<title>fib1_5&#45;&gt;u5</title>
<path fill="none" stroke="black" d="M496.63,-204.55C498.75,-194.67 501.44,-182.13 503.67,-171.73"/>
<polygon fill="black" stroke="black" points="507.02,-172.77 505.69,-162.26 500.18,-171.31 507.02,-172.77"/>
</g>
<!-- c1 -->
<g id="node21" class="node">
<title>c1</title>
<ellipse fill="white" stroke="black" cx="99" cy="-12.25" rx="10.8" ry="10.8"/>
<text xml:space="preserve" text-anchor="middle" x="99" y="-8.15" font-family="Lato" font-size="13.00">0</text>
</g>
<!-- fib0_1&#45;&gt;c1 -->
<g id="edge10" class="edge">
<title>fib0_1&#45;&gt;c1</title>
<path fill="none" stroke="black" d="M99,-60.62C99,-52.53 99,-42.75 99,-34.19"/>
<polygon fill="black" stroke="black" points="102.5,-34.36 99,-24.36 95.5,-34.36 102.5,-34.36"/>
</g>
<!-- c2 -->
<g id="node22" class="node">
<title>c2</title>
<ellipse fill="white" stroke="black" cx="307" cy="-78.5" rx="10.8" ry="10.8"/>
<text xml:space="preserve" text-anchor="middle" x="307" y="-74.4" font-family="Lato" font-size="13.00">0</text>
</g>
<!-- fib0_2&#45;&gt;c2 -->
<g id="edge15" class="edge">
<title>fib0_2&#45;&gt;c2</title>
<path fill="none" stroke="black" d="M307,-132.55C307,-122.89 307,-110.69 307,-100.43"/>
<polygon fill="black" stroke="black" points="310.5,-100.69 307,-90.69 303.5,-100.69 310.5,-100.69"/>
</g>
<!-- c3 -->
<g id="node23" class="node">
<title>c3</title>
<ellipse fill="white" stroke="black" cx="451" cy="-78.5" rx="10.8" ry="10.8"/>
<text xml:space="preserve" text-anchor="middle" x="451" y="-74.4" font-family="Lato" font-size="13.00">0</text>
</g>
<!-- fib0_3&#45;&gt;c3 -->
<g id="edge21" class="edge">
<title>fib0_3&#45;&gt;c3</title>
<path fill="none" stroke="black" d="M451,-132.55C451,-122.89 451,-110.69 451,-100.43"/>
<polygon fill="black" stroke="black" points="454.5,-100.69 451,-90.69 447.5,-100.69 454.5,-100.69"/>
</g>
</g>
</svg>
