<?xml version="1.0" encoding="UTF-8" standalone="no"?>
<!DOCTYPE svg PUBLIC "-//W3C//DTD SVG 1.1//EN"
 "http://www.w3.org/Graphics/SVG/1.1/DTD/svg11.dtd">
<!-- Generated by graphviz version 2.43.0 (0)
 -->
<!-- Title: %3 Pages: 1 -->
<svg width="163pt" height="174pt"
 viewBox="0.00 0.00 162.64 174.00" xmlns="http://www.w3.org/2000/svg" xmlns:xlink="http://www.w3.org/1999/xlink">
<g id="graph0" class="graph" transform="scale(1 1) rotate(0) translate(4 170)">
<title>%3</title>
<!-- aplica -->
<g id="node1" class="node">
<title>aplica</title>
<ellipse fill="transparent" stroke="black" cx="79.64" cy="-148" rx="30.9" ry="18"/>
<text text-anchor="start" x="63.14" y="-145.6" font-family="Lato" font-style="italic" font-size="13.00">aplica</text>
</g>
<!-- max -->
<g id="node2" class="node">
<title>max</title>
<ellipse fill="transparent" stroke="black" cx="24.64" cy="-76" rx="24.77" ry="18"/>
<text text-anchor="middle" x="24.64" y="-72.6" font-family="monospace" font-size="13.00">max</text>
</g>
<!-- aplica&#45;&gt;max -->
<g id="edge1" class="edge">
<title>aplica&#45;&gt;max</title>
<path fill="none" stroke="black" d="M67.16,-131.12C57.9,-119.34 45.37,-103.39 36.31,-91.86"/>
</g>
<!-- 2 -->
<g id="node3" class="node">
<title>2</title>
<ellipse fill="transparent" stroke="black" cx="79.64" cy="-76" rx="11" ry="11"/>
<text text-anchor="middle" x="79.64" y="-72.6" font-family="monospace" font-size="13.00">2</text>
</g>
<!-- aplica&#45;&gt;2 -->
<g id="edge2" class="edge">
<title>aplica&#45;&gt;2</title>
<path fill="none" stroke="black" d="M79.64,-129.7C79.64,-116.42 79.64,-98.53 79.64,-87.38"/>
</g>
<!-- mas -->
<g id="node4" class="node">
<title>mas</title>
<ellipse fill="transparent" stroke="black" cx="121.64" cy="-76" rx="11" ry="11"/>
<text text-anchor="middle" x="121.64" y="-72.6" font-family="monospace" font-size="13.00">+</text>
</g>
<!-- aplica&#45;&gt;mas -->
<g id="edge3" class="edge">
<title>aplica&#45;&gt;mas</title>
<path fill="none" stroke="black" d="M89.38,-130.76C97.81,-116.71 109.68,-96.92 116.42,-85.69"/>
</g>
<!-- 3 -->
<g id="node5" class="node">
<title>3</title>
<ellipse fill="transparent" stroke="black" cx="100.64" cy="-11" rx="11" ry="11"/>
<text text-anchor="middle" x="100.64" y="-7.6" font-family="monospace" font-size="13.00">3</text>
</g>
<!-- mas&#45;&gt;3 -->
<g id="edge4" class="edge">
<title>mas&#45;&gt;3</title>
<path fill="none" stroke="black" d="M118.45,-65.43C114.5,-53.59 107.82,-33.54 103.85,-21.66"/>
</g>
<!-- 5 -->
<g id="node6" class="node">
<title>5</title>
<ellipse fill="transparent" stroke="black" cx="142.64" cy="-11" rx="11" ry="11"/>
<text text-anchor="middle" x="142.64" y="-7.6" font-family="monospace" font-size="13.00">5</text>
</g>
<!-- mas&#45;&gt;5 -->
<g id="edge5" class="edge">
<title>mas&#45;&gt;5</title>
<path fill="none" stroke="black" d="M124.82,-65.43C128.77,-53.59 135.46,-33.54 139.42,-21.66"/>
</g>
</g>
</svg>
