<?xml version="1.0" encoding="UTF-8" standalone="no"?>
<!DOCTYPE svg PUBLIC "-//W3C//DTD SVG 1.1//EN"
 "http://www.w3.org/Graphics/SVG/1.1/DTD/svg11.dtd">
<!-- Generated by graphviz version 2.43.0 (0)
 -->
<!-- Title: %3 Pages: 1 -->
<svg width="95pt" height="146pt"
 viewBox="0.00 0.00 95.00 146.00" xmlns="http://www.w3.org/2000/svg" xmlns:xlink="http://www.w3.org/1999/xlink">
<g id="graph0" class="graph" transform="scale(1 1) rotate(0) translate(4 142)">
<title>%3</title>
<!-- dos -->
<g id="node1" class="node">
<title>dos</title>
<ellipse fill="transparent" stroke="blue" cx="12" cy="-69" rx="11" ry="11"/>
<text text-anchor="middle" x="12" y="-65.6" font-family="monospace" font-size="13.00" fill="blue">2</text>
</g>
<!-- tres -->
<g id="node2" class="node">
<title>tres</title>
<ellipse fill="transparent" stroke="blue" cx="33" cy="-11" rx="11" ry="11"/>
<text text-anchor="middle" x="33" y="-7.6" font-family="monospace" font-size="13.00" fill="blue">3</text>
</g>
<!-- cinco -->
<g id="node3" class="node">
<title>cinco</title>
<ellipse fill="transparent" stroke="blue" cx="75" cy="-11" rx="11" ry="11"/>
<text text-anchor="middle" x="75" y="-7.6" font-family="monospace" font-size="13.00" fill="blue">5</text>
</g>
<!-- mas -->
<g id="node4" class="node">
<title>mas</title>
<ellipse fill="transparent" stroke="black" cx="33" cy="-127" rx="11" ry="11"/>
<text text-anchor="middle" x="33" y="-123.6" font-family="monospace" font-size="13.00">+</text>
</g>
<!-- mas&#45;&gt;dos -->
<g id="edge1" class="edge">
<title>mas&#45;&gt;dos</title>
<path fill="none" stroke="black" d="M29.44,-116.5C25.6,-106.27 19.52,-90.06 15.65,-79.73"/>
</g>
<!-- por -->
<g id="node5" class="node">
<title>por</title>
<ellipse fill="transparent" stroke="black" cx="54" cy="-69" rx="11" ry="11"/>
<text text-anchor="middle" x="54" y="-65.6" font-family="monospace" font-size="13.00">*</text>
</g>
<!-- mas&#45;&gt;por -->
<g id="edge4" class="edge">
<title>mas&#45;&gt;por</title>
<path fill="none" stroke="black" d="M36.56,-116.5C40.4,-106.27 46.48,-90.06 50.35,-79.73"/>
</g>
<!-- por&#45;&gt;tres -->
<g id="edge2" class="edge">
<title>por&#45;&gt;tres</title>
<path fill="none" stroke="black" d="M50.44,-58.5C46.6,-48.27 40.52,-32.06 36.65,-21.73"/>
</g>
<!-- por&#45;&gt;cinco -->
<g id="edge3" class="edge">
<title>por&#45;&gt;cinco</title>
<path fill="none" stroke="black" d="M57.56,-58.5C61.4,-48.27 67.48,-32.06 71.35,-21.73"/>
</g>
</g>
</svg>
