<?xml version="1.0" encoding="UTF-8" standalone="no"?>
<!DOCTYPE svg PUBLIC "-//W3C//DTD SVG 1.1//EN"
 "http://www.w3.org/Graphics/SVG/1.1/DTD/svg11.dtd">
<!-- Generated by graphviz version 14.1.1 (0)
 -->
<!-- Pages: 1 -->
<svg width="450pt" height="332pt"
 viewBox="0.00 0.00 450.00 332.00" xmlns="http://www.w3.org/2000/svg" xmlns:xlink="http://www.w3.org/1999/xlink">
<g id="graph0" class="graph" transform="scale(1 1) rotate(0) translate(4 328)">
<!-- frases -->
<g id="node1" class="node">
<title>frases</title>
<polygon fill="none" stroke="none" points="293.38,-324 230.88,-324 230.88,-288 293.38,-288 293.38,-324"/>
<text xml:space="preserve" text-anchor="start" x="238.88" y="-302.9" font-family="Lato" font-style="italic" font-size="13.00" fill="teal">&lt;frases&gt;</text>
</g>
<!-- frase -->
<g id="node2" class="node">
<title>frase</title>
<polygon fill="none" stroke="none" points="253.75,-252 196.5,-252 196.5,-216 253.75,-216 253.75,-252"/>
<text xml:space="preserve" text-anchor="start" x="204.5" y="-230.9" font-family="Lato" font-style="italic" font-size="13.00" fill="teal">&lt;frase&gt;</text>
</g>
<!-- frases&#45;&gt;frase -->
<g id="edge1" class="edge">
<title>frases&#45;&gt;frase</title>
<path fill="none" stroke="black" d="M253.17,-288.05C248.99,-280.14 243.91,-270.54 239.23,-261.69"/>
<polygon fill="black" stroke="black" points="242.47,-260.33 234.71,-253.13 236.29,-263.6 242.47,-260.33"/>
</g>
<!-- punto -->
<g id="node10" class="node">
<title>punto</title>
<polygon fill="none" stroke="none" points="326.12,-252 272.12,-252 272.12,-216 326.12,-216 326.12,-252"/>
<text xml:space="preserve" text-anchor="start" x="295.38" y="-230.9" font-family="monospace" font-weight="bold" font-size="13.00" fill="#268bd2">.</text>
</g>
<!-- frases&#45;&gt;punto -->
<g id="edge2" class="edge">
<title>frases&#45;&gt;punto</title>
<path fill="none" stroke="black" d="M271.08,-288.05C275.26,-280.14 280.34,-270.54 285.02,-261.69"/>
<polygon fill="black" stroke="black" points="287.96,-263.6 289.54,-253.13 281.78,-260.33 287.96,-263.6"/>
</g>
<!-- sujeto -->
<g id="node3" class="node">
<title>sujeto</title>
<polygon fill="none" stroke="none" points="210.75,-180 147.5,-180 147.5,-144 210.75,-144 210.75,-180"/>
<text xml:space="preserve" text-anchor="start" x="155.5" y="-158.9" font-family="Lato" font-style="italic" font-size="13.00" fill="teal">&lt;sujeto&gt;</text>
</g>
<!-- frase&#45;&gt;sujeto -->
<g id="edge3" class="edge">
<title>frase&#45;&gt;sujeto</title>
<path fill="none" stroke="black" d="M213.99,-216.05C208.73,-208.06 202.34,-198.33 196.47,-189.4"/>
<polygon fill="black" stroke="black" points="199.41,-187.49 190.99,-181.05 193.56,-191.33 199.41,-187.49"/>
</g>
<!-- predicado -->
<g id="node4" class="node">
<title>predicado</title>
<polygon fill="none" stroke="none" points="358.25,-180 274,-180 274,-144 358.25,-144 358.25,-180"/>
<text xml:space="preserve" text-anchor="start" x="282" y="-158.9" font-family="Lato" font-style="italic" font-size="13.00" fill="teal">&lt;predicado&gt;</text>
</g>
<!-- frase&#45;&gt;predicado -->
<g id="edge4" class="edge">
<title>frase&#45;&gt;predicado</title>
<path fill="none" stroke="black" d="M247.15,-216.05C258.67,-207.2 272.94,-196.22 285.51,-186.55"/>
<polygon fill="black" stroke="black" points="287.31,-189.58 293.1,-180.71 283.04,-184.03 287.31,-189.58"/>
</g>
<!-- articulo -->
<g id="node5" class="node">
<title>articulo</title>
<polygon fill="none" stroke="none" points="72.25,-108 0,-108 0,-72 72.25,-72 72.25,-108"/>
<text xml:space="preserve" text-anchor="start" x="8" y="-86.9" font-family="Lato" font-style="italic" font-size="13.00" fill="teal">&lt;artículo&gt;</text>
</g>
<!-- sujeto&#45;&gt;articulo -->
<g id="edge5" class="edge">
<title>sujeto&#45;&gt;articulo</title>
<path fill="none" stroke="black" d="M147.74,-145.64C128.17,-136.06 102.67,-123.58 80.99,-112.96"/>
<polygon fill="black" stroke="black" points="82.57,-109.84 72.05,-108.59 79.49,-116.13 82.57,-109.84"/>
</g>
<!-- sustantivo -->
<g id="node6" class="node">
<title>sustantivo</title>
<polygon fill="none" stroke="none" points="176.38,-108 89.88,-108 89.88,-72 176.38,-72 176.38,-108"/>
<text xml:space="preserve" text-anchor="start" x="97.88" y="-86.9" font-family="Lato" font-style="italic" font-size="13.00" fill="teal">&lt;sustantivo&gt;</text>
</g>
<!-- sujeto&#45;&gt;sustantivo -->
<g id="edge6" class="edge">
<title>sujeto&#45;&gt;sustantivo</title>
<path fill="none" stroke="black" d="M167.99,-144.05C162.73,-136.06 156.34,-126.33 150.47,-117.4"/>
<polygon fill="black" stroke="black" points="153.41,-115.49 144.99,-109.05 147.56,-119.33 153.41,-115.49"/>
</g>
<!-- adjetivo -->
<g id="node7" class="node">
<title>adjetivo</title>
<polygon fill="none" stroke="none" points="268,-108 194.25,-108 194.25,-72 268,-72 268,-108"/>
<text xml:space="preserve" text-anchor="start" x="202.25" y="-86.9" font-family="Lato" font-style="italic" font-size="13.00" fill="teal">&lt;adjetivo&gt;</text>
</g>
<!-- sujeto&#45;&gt;adjetivo -->
<g id="edge7" class="edge">
<title>sujeto&#45;&gt;adjetivo</title>
<path fill="none" stroke="black" d="M191.71,-144.05C197.78,-135.89 205.19,-125.91 211.94,-116.82"/>
<polygon fill="black" stroke="black" points="214.6,-119.12 217.75,-109 208.98,-114.94 214.6,-119.12"/>
</g>
<!-- verbo -->
<g id="node8" class="node">
<title>verbo</title>
<polygon fill="none" stroke="none" points="346.62,-108 285.62,-108 285.62,-72 346.62,-72 346.62,-108"/>
<text xml:space="preserve" text-anchor="start" x="293.62" y="-86.9" font-family="Lato" font-style="italic" font-size="13.00" fill="teal">&lt;verbo&gt;</text>
</g>
<!-- predicado&#45;&gt;verbo -->
<g id="edge11" class="edge">
<title>predicado&#45;&gt;verbo</title>
<path fill="none" stroke="black" d="M316.12,-144.05C316.12,-136.57 316.12,-127.58 316.12,-119.14"/>
<polygon fill="black" stroke="black" points="319.63,-119.3 316.13,-109.3 312.63,-119.3 319.63,-119.3"/>
</g>
<!-- adverbio -->
<g id="node9" class="node">
<title>adverbio</title>
<polygon fill="none" stroke="none" points="441.88,-108 364.38,-108 364.38,-72 441.88,-72 441.88,-108"/>
<text xml:space="preserve" text-anchor="start" x="372.38" y="-86.9" font-family="Lato" font-style="italic" font-size="13.00" fill="teal">&lt;adverbio&gt;</text>
</g>
<!-- predicado&#45;&gt;adverbio -->
<g id="edge12" class="edge">
<title>predicado&#45;&gt;adverbio</title>
<path fill="none" stroke="black" d="M337.19,-144.05C348.09,-135.28 361.57,-124.43 373.51,-114.83"/>
<polygon fill="black" stroke="black" points="375.48,-117.73 381.08,-108.74 371.09,-112.28 375.48,-117.73"/>
</g>
<!-- el -->
<g id="node11" class="node">
<title>el</title>
<polygon fill="none" stroke="none" points="63.12,-36 9.12,-36 9.12,0 63.12,0 63.12,-36"/>
<text xml:space="preserve" text-anchor="start" x="28.62" y="-14.9" font-family="monospace" font-weight="bold" font-size="13.00" fill="#268bd2">el</text>
</g>
<!-- articulo&#45;&gt;el -->
<g id="edge8" class="edge">
<title>articulo&#45;&gt;el</title>
<path fill="none" stroke="black" d="M36.12,-72.05C36.12,-64.57 36.12,-55.58 36.12,-47.14"/>
<polygon fill="black" stroke="black" points="39.63,-47.3 36.13,-37.3 32.63,-47.3 39.63,-47.3"/>
</g>
<!-- nino -->
<g id="node12" class="node">
<title>nino</title>
<polygon fill="none" stroke="none" points="160.12,-36 106.12,-36 106.12,0 160.12,0 160.12,-36"/>
<text xml:space="preserve" text-anchor="start" x="118.12" y="-14.9" font-family="monospace" font-weight="bold" font-size="13.00" fill="#268bd2">niño</text>
</g>
<!-- sustantivo&#45;&gt;nino -->
<g id="edge9" class="edge">
<title>sustantivo&#45;&gt;nino</title>
<path fill="none" stroke="black" d="M133.12,-72.05C133.12,-64.57 133.12,-55.58 133.12,-47.14"/>
<polygon fill="black" stroke="black" points="136.63,-47.3 133.13,-37.3 129.63,-47.3 136.63,-47.3"/>
</g>
<!-- grande -->
<g id="node13" class="node">
<title>grande</title>
<polygon fill="none" stroke="none" points="261.62,-36 200.62,-36 200.62,0 261.62,0 261.62,-36"/>
<text xml:space="preserve" text-anchor="start" x="208.62" y="-14.9" font-family="monospace" font-weight="bold" font-size="13.00" fill="#268bd2">grande</text>
</g>
<!-- adjetivo&#45;&gt;grande -->
<g id="edge10" class="edge">
<title>adjetivo&#45;&gt;grande</title>
<path fill="none" stroke="black" d="M231.12,-72.05C231.12,-64.57 231.12,-55.58 231.12,-47.14"/>
<polygon fill="black" stroke="black" points="234.63,-47.3 231.13,-37.3 227.63,-47.3 234.63,-47.3"/>
</g>
<!-- come -->
<g id="node14" class="node">
<title>come</title>
<polygon fill="none" stroke="none" points="343.12,-36 289.12,-36 289.12,0 343.12,0 343.12,-36"/>
<text xml:space="preserve" text-anchor="start" x="301.12" y="-14.9" font-family="monospace" font-weight="bold" font-size="13.00" fill="#268bd2">come</text>
</g>
<!-- verbo&#45;&gt;come -->
<g id="edge13" class="edge">
<title>verbo&#45;&gt;come</title>
<path fill="none" stroke="black" d="M316.12,-72.05C316.12,-64.57 316.12,-55.58 316.12,-47.14"/>
<polygon fill="black" stroke="black" points="319.63,-47.3 316.13,-37.3 312.63,-47.3 319.63,-47.3"/>
</g>
<!-- mucho -->
<g id="node15" class="node">
<title>mucho</title>
<polygon fill="none" stroke="none" points="430.12,-36 376.12,-36 376.12,0 430.12,0 430.12,-36"/>
<text xml:space="preserve" text-anchor="start" x="384.38" y="-14.9" font-family="monospace" font-weight="bold" font-size="13.00" fill="#268bd2">mucho</text>
</g>
<!-- adverbio&#45;&gt;mucho -->
<g id="edge14" class="edge">
<title>adverbio&#45;&gt;mucho</title>
<path fill="none" stroke="black" d="M403.12,-72.05C403.12,-64.57 403.12,-55.58 403.12,-47.14"/>
<polygon fill="black" stroke="black" points="406.63,-47.3 403.13,-37.3 399.63,-47.3 406.63,-47.3"/>
</g>
</g>
</svg>
