<?xml version="1.0" encoding="UTF-8" standalone="no"?>
<!DOCTYPE svg PUBLIC "-//W3C//DTD SVG 1.1//EN"
 "http://www.w3.org/Graphics/SVG/1.1/DTD/svg11.dtd">
<!-- Generated by graphviz version 14.1.1 (0)
 -->
<!-- Pages: 1 -->
<svg width="165pt" height="177pt"
 viewBox="0.00 0.00 165.00 177.00" xmlns="http://www.w3.org/2000/svg" xmlns:xlink="http://www.w3.org/1999/xlink">
<g id="graph0" class="graph" transform="scale(1 1) rotate(0) translate(4 172.5)">
<!-- aplica -->
<g id="node1" class="node">
<title>aplica</title>
<ellipse fill="none" stroke="black" cx="82.27" cy="-150.5" rx="32.93" ry="18"/>
<text xml:space="preserve" text-anchor="start" x="66.15" y="-147.4" font-family="Lato" font-style="italic" font-size="13.00">aplica</text>
</g>
<!-- max -->
<g id="node2" class="node">
<title>max</title>
<ellipse fill="none" stroke="black" cx="26.27" cy="-78.5" rx="26.27" ry="18"/>
<text xml:space="preserve" text-anchor="middle" x="26.27" y="-74.4" font-family="monospace" font-size="13.00">max</text>
</g>
<!-- aplica&#45;&gt;max -->
<g id="edge1" class="edge">
<title>aplica&#45;&gt;max</title>
<path fill="none" stroke="black" d="M69.57,-133.62C60.27,-122 47.74,-106.33 38.54,-94.84"/>
</g>
<!-- 2 -->
<g id="node3" class="node">
<title>2</title>
<ellipse fill="none" stroke="black" cx="82.27" cy="-78.5" rx="10.8" ry="10.8"/>
<text xml:space="preserve" text-anchor="middle" x="82.27" y="-74.4" font-family="monospace" font-size="13.00">2</text>
</g>
<!-- aplica&#45;&gt;2 -->
<g id="edge2" class="edge">
<title>aplica&#45;&gt;2</title>
<path fill="none" stroke="black" d="M82.27,-132.2C82.27,-118.59 82.27,-100.15 82.27,-89.08"/>
</g>
<!-- mas -->
<g id="node4" class="node">
<title>mas</title>
<ellipse fill="none" stroke="black" cx="124.27" cy="-78.5" rx="10.8" ry="10.8"/>
<text xml:space="preserve" text-anchor="middle" x="124.27" y="-74.4" font-family="monospace" font-size="13.00">+</text>
</g>
<!-- aplica&#45;&gt;mas -->
<g id="edge3" class="edge">
<title>aplica&#45;&gt;mas</title>
<path fill="none" stroke="black" d="M92.23,-132.91C100.76,-118.68 112.71,-98.77 119.34,-87.72"/>
</g>
<!-- 3 -->
<g id="node5" class="node">
<title>3</title>
<ellipse fill="none" stroke="black" cx="103.27" cy="-12.25" rx="10.8" ry="10.8"/>
<text xml:space="preserve" text-anchor="middle" x="103.27" y="-8.15" font-family="monospace" font-size="13.00">3</text>
</g>
<!-- mas&#45;&gt;3 -->
<g id="edge4" class="edge">
<title>mas&#45;&gt;3</title>
<path fill="none" stroke="black" d="M121.26,-68.29C117.27,-56.08 110.27,-34.64 106.28,-22.44"/>
</g>
<!-- 5 -->
<g id="node6" class="node">
<title>5</title>
<ellipse fill="none" stroke="black" cx="145.27" cy="-12.25" rx="10.8" ry="10.8"/>
<text xml:space="preserve" text-anchor="middle" x="145.27" y="-8.15" font-family="monospace" font-size="13.00">5</text>
</g>
<!-- mas&#45;&gt;5 -->
<g id="edge5" class="edge">
<title>mas&#45;&gt;5</title>
<path fill="none" stroke="black" d="M127.28,-68.29C131.27,-56.08 138.28,-34.64 142.27,-22.44"/>
</g>
</g>
</svg>
