<?xml version="1.0" encoding="UTF-8" standalone="no"?>
<!DOCTYPE svg PUBLIC "-//W3C//DTD SVG 1.1//EN"
 "http://www.w3.org/Graphics/SVG/1.1/DTD/svg11.dtd">
<!-- Generated by graphviz version 2.43.0 (0)
 -->
<!-- Title: %3 Pages: 1 -->
<svg width="326pt" height="153pt"
 viewBox="0.00 0.00 326.00 153.00" xmlns="http://www.w3.org/2000/svg" xmlns:xlink="http://www.w3.org/1999/xlink">
<g id="graph0" class="graph" transform="scale(1 1) rotate(0) translate(4 149)">
<title>%3</title>
<g id="clust1" class="cluster">
<title>cluster0</title>
<polygon fill="white" stroke="black" points="176,-8 176,-137 310,-137 310,-8 176,-8"/>
<text text-anchor="start" x="191" y="-122.8" font-family="Lato" font-size="14.00">Clase </text>
<text text-anchor="start" x="228" y="-122.8" font-family="Lato" font-weight="bold" font-size="14.00">Trabajador</text>
</g>
<g id="clust2" class="cluster">
<title>cluster1</title>
<polygon fill="white" stroke="black" points="8,-8 8,-137 119,-137 119,-8 8,-8"/>
<text text-anchor="start" x="18" y="-122.8" font-family="Lato" font-size="14.00">Clase </text>
<text text-anchor="start" x="55" y="-122.8" font-family="Lato" font-weight="bold" font-size="14.00">Docente</text>
</g>
<!-- set_nombre -->
<g id="node1" class="node">
<title>set_nombre</title>
<polygon fill="white" stroke="transparent" points="302,-106 184,-106 184,-70 302,-70 302,-106"/>
<polygon fill="none" stroke="black" points="194,-78 194,-98 276,-98 276,-78 194,-78"/>
<text text-anchor="start" x="197" y="-84.6" font-family="monospace" font-size="13.00">set_nombre</text>
<polygon fill="none" stroke="black" points="278,-78 278,-98 292,-98 292,-78 278,-78"/>
<text text-anchor="start" x="281" y="-84.6" font-family="monospace" font-size="13.00">位</text>
</g>
<!-- get_nombre -->
<g id="node2" class="node">
<title>get_nombre</title>
<polygon fill="white" stroke="transparent" points="302,-52 184,-52 184,-16 302,-16 302,-52"/>
<polygon fill="none" stroke="black" points="194,-24 194,-44 276,-44 276,-24 194,-24"/>
<text text-anchor="start" x="197" y="-30.6" font-family="monospace" font-size="13.00">get_nombre</text>
<polygon fill="none" stroke="black" points="278,-24 278,-44 292,-44 292,-24 278,-24"/>
<text text-anchor="start" x="281" y="-30.6" font-family="monospace" font-size="13.00">位</text>
</g>
<!-- set_nrp -->
<g id="node3" class="node">
<title>set_nrp</title>
<polygon fill="white" stroke="transparent" points="111,-106 16,-106 16,-70 111,-70 111,-106"/>
<polygon fill="none" stroke="black" points="26.5,-78 26.5,-98 85.5,-98 85.5,-78 26.5,-78"/>
<text text-anchor="start" x="29.5" y="-84.6" font-family="monospace" font-size="13.00">set_nrp</text>
<polygon fill="none" stroke="black" points="87.5,-78 87.5,-98 101.5,-98 101.5,-78 87.5,-78"/>
<text text-anchor="start" x="90.5" y="-84.6" font-family="monospace" font-size="13.00">位</text>
</g>
<!-- set_nrp&#45;&gt;set_nombre -->
<g id="edge1" class="edge">
<title>set_nrp&#45;&gt;set_nombre</title>
<path fill="none" stroke="black" d="M119,-88C136.3,-88 155.66,-88 173.8,-88"/>
<polygon fill="black" stroke="black" points="166,-91.5 176,-88 166,-84.5 166,-91.5"/>
</g>
<!-- get_nrp -->
<g id="node4" class="node">
<title>get_nrp</title>
<polygon fill="white" stroke="transparent" points="111,-52 16,-52 16,-16 111,-16 111,-52"/>
<polygon fill="none" stroke="black" points="26.5,-24 26.5,-44 85.5,-44 85.5,-24 26.5,-24"/>
<text text-anchor="start" x="29.5" y="-30.6" font-family="monospace" font-size="13.00">get_nrp</text>
<polygon fill="none" stroke="black" points="87.5,-24 87.5,-44 101.5,-44 101.5,-24 87.5,-24"/>
<text text-anchor="start" x="90.5" y="-30.6" font-family="monospace" font-size="13.00">位</text>
</g>
</g>
</svg>
