<?xml version="1.0" encoding="UTF-8" standalone="no"?>
<!DOCTYPE svg PUBLIC "-//W3C//DTD SVG 1.1//EN"
 "http://www.w3.org/Graphics/SVG/1.1/DTD/svg11.dtd">
<!-- Generated by graphviz version 2.43.0 (0)
 -->
<!-- Title: %3 Pages: 1 -->
<svg width="399pt" height="171pt"
 viewBox="0.00 0.00 399.00 171.00" xmlns="http://www.w3.org/2000/svg" xmlns:xlink="http://www.w3.org/1999/xlink">
<g id="graph0" class="graph" transform="scale(1 1) rotate(0) translate(4 167)">
<title>%3</title>
<g id="clust1" class="cluster">
<title>cluster0</title>
<polygon fill="white" stroke="black" points="202,-51 202,-155 334,-155 334,-51 202,-51"/>
<text text-anchor="start" x="216" y="-140.8" font-family="Lato" font-size="14.00">Clase </text>
<text text-anchor="start" x="253" y="-140.8" font-family="Lato" font-weight="bold" font-size="14.00">Trabajador</text>
</g>
<g id="clust2" class="cluster">
<title>cluster1</title>
<polygon fill="white" stroke="black" points="8,-8 8,-112 117,-112 117,-8 8,-8"/>
<text text-anchor="start" x="17" y="-97.8" font-family="Lato" font-size="14.00">Clase </text>
<text text-anchor="start" x="54" y="-97.8" font-family="Lato" font-weight="bold" font-size="14.00">Docente</text>
</g>
<!-- set_nombre -->
<g id="node1" class="node">
<title>set_nombre</title>
<polygon fill="white" stroke="black" points="210,-101 210,-123 326,-123 326,-101 210,-101"/>
<text text-anchor="middle" x="256" y="-108.6" font-family="monospace" font-size="13.00">set_nombre</text>
<polyline fill="none" stroke="black" points="302,-101 302,-123 "/>
<text text-anchor="middle" x="314" y="-108.6" font-family="monospace" font-size="13.00">⬤</text>
</g>
<!-- l1 -->
<g id="node3" class="node">
<title>l1</title>
<ellipse fill="white" stroke="black" cx="376.5" cy="-115" rx="14.5" ry="14.5"/>
<text text-anchor="middle" x="376.5" y="-111.6" font-family="monospace" font-size="13.00">λ</text>
</g>
<!-- set_nombre&#45;&gt;l1 -->
<g id="edge1" class="edge">
<title>set_nombre:f1&#45;&gt;l1</title>
<path fill="none" stroke="black" d="M327,-112C335.12,-112 343.99,-112.42 351.9,-112.95"/>
<polygon fill="black" stroke="black" points="351.69,-116.45 361.93,-113.71 352.22,-109.47 351.69,-116.45"/>
</g>
<!-- get_nombre -->
<g id="node2" class="node">
<title>get_nombre</title>
<polygon fill="white" stroke="black" points="210,-60 210,-82 326,-82 326,-60 210,-60"/>
<text text-anchor="middle" x="256" y="-67.6" font-family="monospace" font-size="13.00">get_nombre</text>
<polyline fill="none" stroke="black" points="302,-60 302,-82 "/>
<text text-anchor="middle" x="314" y="-67.6" font-family="monospace" font-size="13.00">⬤</text>
</g>
<!-- l2 -->
<g id="node4" class="node">
<title>l2</title>
<ellipse fill="white" stroke="black" cx="376.5" cy="-68" rx="14.5" ry="14.5"/>
<text text-anchor="middle" x="376.5" y="-64.6" font-family="monospace" font-size="13.00">λ</text>
</g>
<!-- get_nombre&#45;&gt;l2 -->
<g id="edge2" class="edge">
<title>get_nombre:f1&#45;&gt;l2</title>
<path fill="none" stroke="black" d="M327,-71C335.12,-71 343.99,-70.58 351.9,-70.05"/>
<polygon fill="black" stroke="black" points="352.22,-73.53 361.93,-69.29 351.69,-66.55 352.22,-73.53"/>
</g>
<!-- set_nrp -->
<g id="node5" class="node">
<title>set_nrp</title>
<polygon fill="white" stroke="black" points="16,-58 16,-80 109,-80 109,-58 16,-58"/>
<text text-anchor="middle" x="50.5" y="-65.6" font-family="monospace" font-size="13.00">set_nrp</text>
<polyline fill="none" stroke="black" points="85,-58 85,-80 "/>
<text text-anchor="middle" x="97" y="-65.6" font-family="monospace" font-size="13.00">⬤</text>
</g>
<!-- set_nrp&#45;&gt;set_nombre -->
<g id="edge5" class="edge">
<title>set_nrp&#45;&gt;set_nombre</title>
<path fill="none" stroke="black" d="M117,-85.02C126.29,-87.54 135.89,-89.97 145,-92 162.68,-95.93 181.97,-99.44 199.88,-102.39"/>
<polygon fill="black" stroke="black" points="191.42,-103.56 202,-103.01 193.38,-96.84 191.42,-103.56"/>
</g>
<!-- l3 -->
<g id="node7" class="node">
<title>l3</title>
<ellipse fill="white" stroke="black" cx="159.5" cy="-69" rx="14.5" ry="14.5"/>
<text text-anchor="middle" x="159.5" y="-65.6" font-family="monospace" font-size="13.00">λ</text>
</g>
<!-- set_nrp&#45;&gt;l3 -->
<g id="edge3" class="edge">
<title>set_nrp:f1&#45;&gt;l3</title>
<path fill="none" stroke="black" d="M110.5,-69C118.32,-69 126.85,-69 134.52,-69"/>
<polygon fill="black" stroke="black" points="134.64,-72.5 144.64,-69 134.64,-65.5 134.64,-72.5"/>
</g>
<!-- get_nrp -->
<g id="node6" class="node">
<title>get_nrp</title>
<polygon fill="white" stroke="black" points="16,-17 16,-39 109,-39 109,-17 16,-17"/>
<text text-anchor="middle" x="50.5" y="-24.6" font-family="monospace" font-size="13.00">get_nrp</text>
<polyline fill="none" stroke="black" points="85,-17 85,-39 "/>
<text text-anchor="middle" x="97" y="-24.6" font-family="monospace" font-size="13.00">⬤</text>
</g>
<!-- l4 -->
<g id="node8" class="node">
<title>l4</title>
<ellipse fill="white" stroke="black" cx="159.5" cy="-22" rx="14.5" ry="14.5"/>
<text text-anchor="middle" x="159.5" y="-18.6" font-family="monospace" font-size="13.00">λ</text>
</g>
<!-- get_nrp&#45;&gt;l4 -->
<g id="edge4" class="edge">
<title>get_nrp:f1&#45;&gt;l4</title>
<path fill="none" stroke="black" d="M110.5,-28C118.58,-28 127.37,-27.15 135.2,-26.09"/>
<polygon fill="black" stroke="black" points="135.75,-29.55 145.11,-24.58 134.69,-22.63 135.75,-29.55"/>
</g>
</g>
</svg>
