<?xml version="1.0" encoding="UTF-8" standalone="no"?>
<!DOCTYPE svg PUBLIC "-//W3C//DTD SVG 1.1//EN"
 "http://www.w3.org/Graphics/SVG/1.1/DTD/svg11.dtd">
<!-- Generated by graphviz version 14.1.1 (0)
 -->
<!-- Pages: 1 -->
<svg width="381pt" height="44pt"
 viewBox="0.00 0.00 381.00 44.00" xmlns="http://www.w3.org/2000/svg" xmlns:xlink="http://www.w3.org/1999/xlink">
<g id="graph0" class="graph" transform="scale(1 1) rotate(0) translate(4 40)">
<!-- E -->
<g id="node1" class="node">
<title>E</title>
<polygon fill="none" stroke="none" points="21.9,-36 0,-36 0,0 21.9,0 21.9,-36"/>
<text xml:space="preserve" text-anchor="middle" x="10.95" y="-13.9" font-family="monospace" font-size="13.00">E</text>
</g>
<!-- Marco A -->
<g id="node2" class="node">
<title>Marco A</title>
<polygon fill="white" stroke="black" points="126.4,-36 57.9,-36 57.9,0 126.4,0 126.4,-36"/>
<text xml:space="preserve" text-anchor="middle" x="92.15" y="-13.9" font-family="monospace" font-size="13.00">Marco A</text>
</g>
<!-- E&#45;&gt;Marco A -->
<g id="edge1" class="edge">
<title>E&#45;&gt;Marco A</title>
<path fill="none" stroke="black" d="M21.66,-18C28.06,-18 36.96,-18 46.25,-18"/>
<polygon fill="black" stroke="black" points="46.12,-21.5 56.12,-18 46.12,-14.5 46.12,-21.5"/>
</g>
<!-- Marco B -->
<g id="node3" class="node">
<title>Marco B</title>
<polygon fill="white" stroke="black" points="230.9,-36 162.4,-36 162.4,0 230.9,0 230.9,-36"/>
<text xml:space="preserve" text-anchor="middle" x="196.65" y="-13.9" font-family="monospace" font-size="13.00">Marco B</text>
</g>
<!-- Marco A&#45;&gt;Marco B -->
<g id="edge2" class="edge">
<title>Marco A&#45;&gt;Marco B</title>
<path fill="none" stroke="black" d="M126.71,-18C134.32,-18 142.53,-18 150.53,-18"/>
<polygon fill="black" stroke="black" points="150.5,-21.5 160.5,-18 150.5,-14.5 150.5,-21.5"/>
</g>
<!-- Marco global -->
<g id="node4" class="node">
<title>Marco global</title>
<polygon fill="white" stroke="black" points="372.9,-36 266.9,-36 266.9,0 372.9,0 372.9,-36"/>
<text xml:space="preserve" text-anchor="middle" x="319.9" y="-13.9" font-family="monospace" font-size="13.00">Marco global</text>
</g>
<!-- Marco B&#45;&gt;Marco global -->
<g id="edge3" class="edge">
<title>Marco B&#45;&gt;Marco global</title>
<path fill="none" stroke="black" d="M231.1,-18C238.62,-18 246.84,-18 255.14,-18"/>
<polygon fill="black" stroke="black" points="254.93,-21.5 264.93,-18 254.93,-14.5 254.93,-21.5"/>
</g>
</g>
</svg>
