<?xml version="1.0" encoding="UTF-8" standalone="no"?>
<!DOCTYPE svg PUBLIC "-//W3C//DTD SVG 1.1//EN"
 "http://www.w3.org/Graphics/SVG/1.1/DTD/svg11.dtd">
<!-- Generated by graphviz version 14.1.1 (0)
 -->
<!-- Pages: 1 -->
<svg width="396pt" height="177pt"
 viewBox="0.00 0.00 396.00 177.00" xmlns="http://www.w3.org/2000/svg" xmlns:xlink="http://www.w3.org/1999/xlink">
<g id="graph0" class="graph" transform="scale(1 1) rotate(0) translate(4 173)">
<g id="clust1" class="cluster">
<title>cluster0</title>
<polygon fill="white" stroke="black" points="200.8,-50 200.8,-161 331.3,-161 331.3,-50 200.8,-50"/>
<text xml:space="preserve" text-anchor="start" x="215.05" y="-144.7" font-family="Lato" font-size="14.00">Clase </text>
<text xml:space="preserve" text-anchor="start" x="251.05" y="-144.7" font-family="Lato" font-weight="bold" font-size="14.00">Trabajador</text>
</g>
<g id="clust2" class="cluster">
<title>cluster1</title>
<polygon fill="white" stroke="black" points="8,-8 8,-119 116,-119 116,-8 8,-8"/>
<text xml:space="preserve" text-anchor="start" x="17.38" y="-102.7" font-family="Lato" font-size="14.00">Clase </text>
<text xml:space="preserve" text-anchor="start" x="53.38" y="-102.7" font-family="Lato" font-weight="bold" font-size="14.00">Docente</text>
</g>
<!-- set_nombre -->
<g id="node1" class="node">
<title>set_nombre</title>
<polygon fill="white" stroke="black" points="208.8,-102.75 208.8,-127.25 323.3,-127.25 323.3,-102.75 208.8,-102.75"/>
<text xml:space="preserve" text-anchor="middle" x="254.3" y="-110.9" font-family="monospace" font-size="13.00">set_nombre</text>
<polyline fill="none" stroke="black" points="299.8,-102.75 299.8,-127.25"/>
<text xml:space="preserve" text-anchor="middle" x="311.55" y="-109.4" font-family="monospace" font-size="13.00">⬤</text>
</g>
<!-- l1 -->
<g id="node3" class="node">
<title>l1</title>
<ellipse fill="white" stroke="black" cx="373.7" cy="-116" rx="14.4" ry="14.4"/>
<text xml:space="preserve" text-anchor="middle" x="373.7" y="-111.9" font-family="monospace" font-size="13.00">λ</text>
</g>
<!-- set_nombre&#45;&gt;l1 -->
<g id="edge1" class="edge">
<title>set_nombre:f1&#45;&gt;l1</title>
<path fill="none" stroke="black" d="M324.3,-115C332.04,-115 340.47,-115.13 348.1,-115.3"/>
<polygon fill="black" stroke="black" points="347.96,-118.79 358.04,-115.54 348.13,-111.79 347.96,-118.79"/>
</g>
<!-- get_nombre -->
<g id="node2" class="node">
<title>get_nombre</title>
<polygon fill="white" stroke="black" points="208.8,-58.75 208.8,-83.25 323.3,-83.25 323.3,-58.75 208.8,-58.75"/>
<text xml:space="preserve" text-anchor="middle" x="254.3" y="-66.9" font-family="monospace" font-size="13.00">get_nombre</text>
<polyline fill="none" stroke="black" points="299.8,-58.75 299.8,-83.25"/>
<text xml:space="preserve" text-anchor="middle" x="311.55" y="-65.4" font-family="monospace" font-size="13.00">⬤</text>
</g>
<!-- l2 -->
<g id="node4" class="node">
<title>l2</title>
<ellipse fill="white" stroke="black" cx="373.7" cy="-69" rx="14.4" ry="14.4"/>
<text xml:space="preserve" text-anchor="middle" x="373.7" y="-64.9" font-family="monospace" font-size="13.00">λ</text>
</g>
<!-- get_nombre&#45;&gt;l2 -->
<g id="edge2" class="edge">
<title>get_nombre:f1&#45;&gt;l2</title>
<path fill="none" stroke="black" d="M324.3,-71C332.04,-71 340.48,-70.74 348.11,-70.41"/>
<polygon fill="black" stroke="black" points="348.23,-73.91 358.05,-69.91 347.88,-66.92 348.23,-73.91"/>
</g>
<!-- set_nrp -->
<g id="node5" class="node">
<title>set_nrp</title>
<polygon fill="white" stroke="black" points="16,-60.75 16,-85.25 108,-85.25 108,-60.75 16,-60.75"/>
<text xml:space="preserve" text-anchor="middle" x="50.25" y="-68.9" font-family="monospace" font-size="13.00">set_nrp</text>
<polyline fill="none" stroke="black" points="84.5,-60.75 84.5,-85.25"/>
<text xml:space="preserve" text-anchor="middle" x="96.25" y="-67.4" font-family="monospace" font-size="13.00">⬤</text>
</g>
<!-- set_nrp&#45;&gt;set_nombre -->
<g id="edge5" class="edge">
<title>set_nrp&#45;&gt;set_nombre</title>
<path fill="none" stroke="black" d="M116,-89.04C125.28,-91.56 134.89,-94 144,-96 161.13,-99.76 179.78,-103.07 197.2,-105.83"/>
<polygon fill="black" stroke="black" points="188.82,-107.7 199.32,-106.26 190.21,-100.84 188.82,-107.7"/>
</g>
<!-- l3 -->
<g id="node7" class="node">
<title>l3</title>
<ellipse fill="white" stroke="black" cx="158.4" cy="-73" rx="14.4" ry="14.4"/>
<text xml:space="preserve" text-anchor="middle" x="158.4" y="-68.9" font-family="monospace" font-size="13.00">λ</text>
</g>
<!-- set_nrp&#45;&gt;l3 -->
<g id="edge3" class="edge">
<title>set_nrp:f1&#45;&gt;l3</title>
<path fill="none" stroke="black" d="M109,-73C116.74,-73 125.17,-73 132.8,-73"/>
<polygon fill="black" stroke="black" points="132.74,-76.5 142.74,-73 132.74,-69.5 132.74,-76.5"/>
</g>
<!-- get_nrp -->
<g id="node6" class="node">
<title>get_nrp</title>
<polygon fill="white" stroke="black" points="16,-16.75 16,-41.25 108,-41.25 108,-16.75 16,-16.75"/>
<text xml:space="preserve" text-anchor="middle" x="50.25" y="-24.9" font-family="monospace" font-size="13.00">get_nrp</text>
<polyline fill="none" stroke="black" points="84.5,-16.75 84.5,-41.25"/>
<text xml:space="preserve" text-anchor="middle" x="96.25" y="-23.4" font-family="monospace" font-size="13.00">⬤</text>
</g>
<!-- l4 -->
<g id="node8" class="node">
<title>l4</title>
<ellipse fill="white" stroke="black" cx="158.4" cy="-26" rx="14.4" ry="14.4"/>
<text xml:space="preserve" text-anchor="middle" x="158.4" y="-21.9" font-family="monospace" font-size="13.00">λ</text>
</g>
<!-- get_nrp&#45;&gt;l4 -->
<g id="edge4" class="edge">
<title>get_nrp:f1&#45;&gt;l4</title>
<path fill="none" stroke="black" d="M109,-29C116.75,-29 125.19,-28.61 132.82,-28.11"/>
<polygon fill="black" stroke="black" points="133.05,-31.61 142.76,-27.37 132.52,-24.63 133.05,-31.61"/>
</g>
</g>
</svg>
