<?xml version="1.0" encoding="UTF-8" standalone="no"?>
<!DOCTYPE svg PUBLIC "-//W3C//DTD SVG 1.1//EN"
 "http://www.w3.org/Graphics/SVG/1.1/DTD/svg11.dtd">
<!-- Generated by graphviz version 2.42.4 (0)
 -->
<!-- Pages: 1 -->
<svg width="383pt" height="44pt"
 viewBox="0.00 0.00 383.00 44.00" xmlns="http://www.w3.org/2000/svg" xmlns:xlink="http://www.w3.org/1999/xlink">
<g id="graph0" class="graph" transform="scale(1 1) rotate(0) translate(4 40)">
<!-- E -->
<g id="node1" class="node">
<title>E</title>
<polygon fill="transparent" stroke="transparent" points="22,-36 0,-36 0,0 22,0 22,-36"/>
<text text-anchor="middle" x="11" y="-14.6" font-family="monospace" font-size="13.00">E</text>
</g>
<!-- Marco A -->
<g id="node2" class="node">
<title>Marco A</title>
<polygon fill="white" stroke="black" points="127,-36 58,-36 58,0 127,0 127,-36"/>
<text text-anchor="middle" x="92.5" y="-14.6" font-family="monospace" font-size="13.00">Marco A</text>
</g>
<!-- E&#45;&gt;Marco A -->
<g id="edge1" class="edge">
<title>E&#45;&gt;Marco A</title>
<path fill="none" stroke="black" d="M22.07,-18C28.77,-18 38.08,-18 47.71,-18"/>
<polygon fill="black" stroke="black" points="47.76,-21.5 57.76,-18 47.76,-14.5 47.76,-21.5"/>
</g>
<!-- Marco B -->
<g id="node3" class="node">
<title>Marco B</title>
<polygon fill="white" stroke="black" points="232,-36 163,-36 163,0 232,0 232,-36"/>
<text text-anchor="middle" x="197.5" y="-14.6" font-family="monospace" font-size="13.00">Marco B</text>
</g>
<!-- Marco A&#45;&gt;Marco B -->
<g id="edge2" class="edge">
<title>Marco A&#45;&gt;Marco B</title>
<path fill="none" stroke="black" d="M127.23,-18C135.32,-18 144.08,-18 152.56,-18"/>
<polygon fill="black" stroke="black" points="152.7,-21.5 162.7,-18 152.7,-14.5 152.7,-21.5"/>
</g>
<!-- Marco global -->
<g id="node4" class="node">
<title>Marco global</title>
<polygon fill="white" stroke="black" points="375,-36 268,-36 268,0 375,0 375,-36"/>
<text text-anchor="middle" x="321.5" y="-14.6" font-family="monospace" font-size="13.00">Marco global</text>
</g>
<!-- Marco B&#45;&gt;Marco global -->
<g id="edge3" class="edge">
<title>Marco B&#45;&gt;Marco global</title>
<path fill="none" stroke="black" d="M232.16,-18C240.07,-18 248.75,-18 257.49,-18"/>
<polygon fill="black" stroke="black" points="257.72,-21.5 267.72,-18 257.72,-14.5 257.72,-21.5"/>
</g>
</g>
</svg>
