<?xml version="1.0" encoding="UTF-8" standalone="no"?>
<!DOCTYPE svg PUBLIC "-//W3C//DTD SVG 1.1//EN"
 "http://www.w3.org/Graphics/SVG/1.1/DTD/svg11.dtd">
<!-- Generated by graphviz version 2.42.4 (0)
 -->
<!-- Pages: 1 -->
<svg width="281pt" height="289pt"
 viewBox="0.00 0.00 281.00 288.50" xmlns="http://www.w3.org/2000/svg" xmlns:xlink="http://www.w3.org/1999/xlink">
<g id="graph0" class="graph" transform="scale(1 1) rotate(0) translate(4 284.5)">
<!-- x -->
<g id="node1" class="node">
<title>x</title>
<polygon fill="white" stroke="black" points="0,-125.5 0,-161.5 50,-161.5 50,-125.5 0,-125.5"/>
<text text-anchor="middle" x="12.5" y="-140.1" font-family="monospace" font-size="13.00">x</text>
<polyline fill="none" stroke="black" points="25,-125.5 25,-161.5 "/>
<text text-anchor="middle" x="37.5" y="-140.1" font-family="monospace" font-size="13.00">⬤</text>
</g>
<!-- lista -->
<g id="node2" class="node">
<title>lista</title>
<polygon fill="white" stroke="black" points="86,-125.5 86,-161.5 194,-161.5 194,-125.5 86,-125.5"/>
<text text-anchor="middle" x="99.5" y="-140.1" font-family="monospace" font-size="13.00">⬤</text>
<polyline fill="none" stroke="black" points="113,-125.5 113,-161.5 "/>
<text text-anchor="middle" x="126.5" y="-140.1" font-family="monospace" font-size="13.00">⬤</text>
<polyline fill="none" stroke="black" points="140,-125.5 140,-161.5 "/>
<text text-anchor="middle" x="153.5" y="-140.1" font-family="monospace" font-size="13.00">⬤</text>
<polyline fill="none" stroke="black" points="167,-125.5 167,-161.5 "/>
<text text-anchor="middle" x="180.5" y="-140.1" font-family="monospace" font-size="13.00">⬤</text>
</g>
<!-- x&#45;&gt;lista -->
<g id="edge6" class="edge">
<title>x:f1&#45;&gt;lista</title>
<path fill="none" stroke="black" d="M50,-143.5C58.33,-143.5 67.1,-143.5 75.75,-143.5"/>
<polygon fill="black" stroke="black" points="75.82,-147 85.82,-143.5 75.82,-140 75.82,-147"/>
</g>
<!-- 99 -->
<!-- lista&#45;&gt;99 -->
<!-- 24 -->
<g id="node4" class="node">
<title>24</title>
<ellipse fill="white" stroke="black" cx="251.5" cy="-204.5" rx="21.5" ry="21.5"/>
<text text-anchor="middle" x="251.5" y="-201.1" font-family="monospace" font-size="13.00">24</text>
</g>
<!-- lista&#45;&gt;24 -->
<g id="edge1" class="edge">
<title>lista:f0&#45;&gt;24</title>
<path fill="none" stroke="black" d="M99,-162.5C99,-212.28 175.89,-212.45 220.12,-208.43"/>
<polygon fill="black" stroke="black" points="220.48,-211.91 230.07,-207.4 219.76,-204.95 220.48,-211.91"/>
</g>
<!-- 81 -->
<g id="node5" class="node">
<title>81</title>
<ellipse fill="white" stroke="black" cx="251.5" cy="-143.5" rx="21.5" ry="21.5"/>
<text text-anchor="middle" x="251.5" y="-140.1" font-family="monospace" font-size="13.00">81</text>
</g>
<!-- lista&#45;&gt;81 -->
<g id="edge5" class="edge">
<title>lista:f3&#45;&gt;81</title>
<path fill="none" stroke="black" d="M194,-143.5C202.35,-143.5 211.38,-143.5 219.73,-143.5"/>
<polygon fill="black" stroke="black" points="219.84,-147 229.84,-143.5 219.84,-140 219.84,-147"/>
</g>
<!-- 15 -->
<g id="node6" class="node">
<title>15</title>
<ellipse fill="white" stroke="black" cx="251.5" cy="-82.5" rx="21.5" ry="21.5"/>
<text text-anchor="middle" x="251.5" y="-79.1" font-family="monospace" font-size="13.00">15</text>
</g>
<!-- lista&#45;&gt;15 -->
<g id="edge4" class="edge">
<title>lista:f2&#45;&gt;15</title>
<path fill="none" stroke="black" d="M154,-124.5C154,-95.5 191.1,-86.31 219.29,-83.52"/>
<polygon fill="black" stroke="black" points="219.86,-86.99 229.56,-82.74 219.32,-80.01 219.86,-86.99"/>
</g>
<!-- 32 -->
<g id="node7" class="node">
<title>32</title>
<ellipse fill="white" stroke="black" cx="251.5" cy="-21.5" rx="21.5" ry="21.5"/>
<text text-anchor="middle" x="251.5" y="-18.1" font-family="monospace" font-size="13.00">32</text>
</g>
<!-- lista&#45;&gt;32 -->
<g id="edge3" class="edge">
<title>lista:f1&#45;&gt;32</title>
<path fill="none" stroke="black" d="M126,-124.5C126,-75.4 184.21,-45.29 221.02,-31.15"/>
<polygon fill="black" stroke="black" points="222.58,-34.31 230.77,-27.59 220.18,-27.74 222.58,-34.31"/>
</g>
</g>
</svg>
