<?xml version="1.0" encoding="UTF-8" standalone="no"?>
<!DOCTYPE svg PUBLIC "-//W3C//DTD SVG 1.1//EN"
 "http://www.w3.org/Graphics/SVG/1.1/DTD/svg11.dtd">
<!-- Generated by graphviz version 14.0.5 (0)
 -->
<!-- Pages: 1 -->
<svg width="282pt" height="295pt"
 viewBox="0.00 0.00 282.00 295.00" xmlns="http://www.w3.org/2000/svg" xmlns:xlink="http://www.w3.org/1999/xlink">
<g id="graph0" class="graph" transform="scale(1 1) rotate(0) translate(4 291.2)">
<!-- x -->
<g id="node1" class="node">
<title>x</title>
<polygon fill="white" stroke="black" points="0,-125.6 0,-161.6 50.4,-161.6 50.4,-125.6 0,-125.6"/>
<text xml:space="preserve" text-anchor="middle" x="12.5" y="-139.25" font-family="monospace" font-size="13.00">x</text>
<polyline fill="none" stroke="black" points="25,-126 25,-161.6"/>
<text xml:space="preserve" text-anchor="middle" x="37.5" y="-139.25" font-family="monospace" font-size="13.00">⬤</text>
</g>
<!-- lista -->
<g id="node2" class="node">
<title>lista</title>
<polygon fill="white" stroke="black" points="86.4,-125.6 86.4,-161.6 194.4,-161.6 194.4,-125.6 86.4,-125.6"/>
<text xml:space="preserve" text-anchor="middle" x="99.9" y="-139.25" font-family="monospace" font-size="13.00">⬤</text>
<polyline fill="none" stroke="black" points="113.4,-126 113.4,-161.6"/>
<text xml:space="preserve" text-anchor="middle" x="126.9" y="-139.25" font-family="monospace" font-size="13.00">⬤</text>
<polyline fill="none" stroke="black" points="140.4,-126 140.4,-161.6"/>
<text xml:space="preserve" text-anchor="middle" x="153.9" y="-139.25" font-family="monospace" font-size="13.00">⬤</text>
<polyline fill="none" stroke="black" points="167.4,-126 167.4,-161.6"/>
<text xml:space="preserve" text-anchor="middle" x="180.9" y="-139.25" font-family="monospace" font-size="13.00">⬤</text>
</g>
<!-- x&#45;&gt;lista -->
<g id="edge6" class="edge">
<title>x:f1&#45;&gt;lista</title>
<path fill="none" stroke="black" d="M50.4,-143.8C58.28,-143.8 66.55,-143.79 74.74,-143.78"/>
<polygon fill="black" stroke="black" points="74.71,-147.28 84.71,-143.76 74.7,-140.28 74.71,-147.28"/>
</g>
<!-- 24 -->
<g id="node3" class="node">
<title>24</title>
<ellipse fill="white" stroke="black" cx="252" cy="-265.6" rx="21.6" ry="21.6"/>
<text xml:space="preserve" text-anchor="middle" x="252" y="-261.05" font-family="monospace" font-size="13.00">24</text>
</g>
<!-- lista&#45;&gt;24 -->
<g id="edge1" class="edge">
<title>lista:f0&#45;&gt;24</title>
<path fill="none" stroke="black" d="M99.9,-162.6C99.9,-220.16 175.68,-247.85 219.91,-259.11"/>
<polygon fill="black" stroke="black" points="218.92,-262.47 229.46,-261.39 220.55,-255.66 218.92,-262.47"/>
</g>
<!-- 99 -->
<g id="node4" class="node">
<title>99</title>
<ellipse fill="white" stroke="black" cx="252" cy="-204.6" rx="21.6" ry="21.6"/>
<text xml:space="preserve" text-anchor="middle" x="252" y="-200.05" font-family="monospace" font-size="13.00">99</text>
</g>
<!-- lista&#45;&gt;99 -->
<g id="edge2" class="edge">
<title>lista:f1&#45;&gt;99</title>
<path fill="none" stroke="black" d="M126.9,-162.6C126.9,-201.6 182.56,-207.2 219.33,-206.64"/>
<polygon fill="black" stroke="black" points="219.11,-210.15 228.99,-206.33 218.89,-203.16 219.11,-210.15"/>
</g>
<!-- 81 -->
<g id="node5" class="node">
<title>81</title>
<ellipse fill="white" stroke="black" cx="252" cy="-143.6" rx="21.6" ry="21.6"/>
<text xml:space="preserve" text-anchor="middle" x="252" y="-139.05" font-family="monospace" font-size="13.00">81</text>
</g>
<!-- lista&#45;&gt;81 -->
<g id="edge5" class="edge">
<title>lista:f3&#45;&gt;81</title>
<path fill="none" stroke="black" d="M194.4,-143.8C202.45,-143.8 211.15,-143.78 219.26,-143.75"/>
<polygon fill="black" stroke="black" points="219.07,-147.25 229.05,-143.71 219.04,-140.25 219.07,-147.25"/>
</g>
<!-- 15 -->
<g id="node6" class="node">
<title>15</title>
<ellipse fill="white" stroke="black" cx="252" cy="-82.6" rx="21.6" ry="21.6"/>
<text xml:space="preserve" text-anchor="middle" x="252" y="-78.05" font-family="monospace" font-size="13.00">15</text>
</g>
<!-- lista&#45;&gt;15 -->
<g id="edge4" class="edge">
<title>lista:f2&#45;&gt;15</title>
<path fill="none" stroke="black" d="M153.9,-125C153.9,-96.03 190.65,-86.66 218.94,-83.73"/>
<polygon fill="black" stroke="black" points="219.2,-87.22 228.9,-82.96 218.66,-80.24 219.2,-87.22"/>
</g>
<!-- 32 -->
<g id="node7" class="node">
<title>32</title>
<ellipse fill="none" stroke="grey" stroke-dasharray="5,2" cx="252" cy="-21.6" rx="21.6" ry="21.6"/>
<text xml:space="preserve" text-anchor="middle" x="252" y="-17.05" font-family="monospace" font-size="13.00" fill="grey">32</text>
</g>
<!-- lista&#45;&gt;32 -->
<g id="edge3" class="edge">
<title>lista:f1&#45;&gt;32</title>
<path fill="none" stroke="grey" stroke-dasharray="5,2" d="M126.9,-125C126.9,-76.33 183.93,-46.13 220.67,-31.72"/>
<polygon fill="grey" stroke="grey" points="221.76,-35.05 229.92,-28.28 219.32,-28.49 221.76,-35.05"/>
</g>
</g>
</svg>
