<?xml version="1.0" encoding="UTF-8" standalone="no"?>
<!DOCTYPE svg PUBLIC "-//W3C//DTD SVG 1.1//EN"
 "http://www.w3.org/Graphics/SVG/1.1/DTD/svg11.dtd">
<!-- Generated by graphviz version 2.43.0 (0)
 -->
<!-- Title: %3 Pages: 1 -->
<svg width="281pt" height="234pt"
 viewBox="0.00 0.00 281.00 234.00" xmlns="http://www.w3.org/2000/svg" xmlns:xlink="http://www.w3.org/1999/xlink">
<g id="graph0" class="graph" transform="scale(1 1) rotate(0) translate(4 230)">
<title>%3</title>
<!-- x -->
<g id="node1" class="node">
<title>x</title>
<polygon fill="white" stroke="black" points="0,-94.5 0,-130.5 50,-130.5 50,-94.5 0,-94.5"/>
<text text-anchor="middle" x="12.5" y="-109.1" font-family="monospace" font-size="13.00">x</text>
<polyline fill="none" stroke="black" points="25,-94.5 25,-130.5 "/>
<text text-anchor="middle" x="37.5" y="-109.1" font-family="monospace" font-size="13.00">⬤</text>
</g>
<!-- lista -->
<g id="node2" class="node">
<title>lista</title>
<polygon fill="white" stroke="black" points="86,-94.5 86,-130.5 194,-130.5 194,-94.5 86,-94.5"/>
<text text-anchor="middle" x="99.5" y="-109.1" font-family="monospace" font-size="13.00">⬤</text>
<polyline fill="none" stroke="black" points="113,-94.5 113,-130.5 "/>
<text text-anchor="middle" x="126.5" y="-109.1" font-family="monospace" font-size="13.00">⬤</text>
<polyline fill="none" stroke="black" points="140,-94.5 140,-130.5 "/>
<text text-anchor="middle" x="153.5" y="-109.1" font-family="monospace" font-size="13.00">⬤</text>
<polyline fill="none" stroke="black" points="167,-94.5 167,-130.5 "/>
<text text-anchor="middle" x="180.5" y="-109.1" font-family="monospace" font-size="13.00">⬤</text>
</g>
<!-- x&#45;&gt;lista -->
<g id="edge5" class="edge">
<title>x:f1&#45;&gt;lista</title>
<path fill="none" stroke="black" d="M50,-112.5C58.33,-112.5 67.1,-112.5 75.75,-112.5"/>
<polygon fill="black" stroke="black" points="75.82,-116 85.82,-112.5 75.82,-109 75.82,-116"/>
</g>
<!-- 24 -->
<g id="node3" class="node">
<title>24</title>
<ellipse fill="white" stroke="black" cx="251.5" cy="-204.5" rx="21.5" ry="21.5"/>
<text text-anchor="middle" x="251.5" y="-201.1" font-family="monospace" font-size="13.00">24</text>
</g>
<!-- lista&#45;&gt;24 -->
<g id="edge1" class="edge">
<title>lista:f0&#45;&gt;24</title>
<path fill="none" stroke="black" d="M99,-131.5C99,-184.61 175.5,-199.1 219.78,-203.04"/>
<polygon fill="black" stroke="black" points="219.52,-206.53 229.75,-203.8 220.05,-199.55 219.52,-206.53"/>
</g>
<!-- 32 -->
<g id="node4" class="node">
<title>32</title>
<ellipse fill="white" stroke="black" cx="251.5" cy="-143.5" rx="21.5" ry="21.5"/>
<text text-anchor="middle" x="251.5" y="-140.1" font-family="monospace" font-size="13.00">32</text>
</g>
<!-- lista&#45;&gt;32 -->
<g id="edge2" class="edge">
<title>lista:f1&#45;&gt;32</title>
<path fill="none" stroke="black" d="M126,-131.5C126,-169.51 184.21,-161.15 221.02,-152.06"/>
<polygon fill="black" stroke="black" points="221.98,-155.43 230.77,-149.52 220.21,-148.66 221.98,-155.43"/>
</g>
<!-- 15 -->
<g id="node5" class="node">
<title>15</title>
<ellipse fill="white" stroke="black" cx="251.5" cy="-82.5" rx="21.5" ry="21.5"/>
<text text-anchor="middle" x="251.5" y="-79.1" font-family="monospace" font-size="13.00">15</text>
</g>
<!-- lista&#45;&gt;15 -->
<g id="edge3" class="edge">
<title>lista:f2&#45;&gt;15</title>
<path fill="none" stroke="black" d="M154,-93.5C154,-66.32 192.26,-69.01 220.6,-74.73"/>
<polygon fill="black" stroke="black" points="219.98,-78.17 230.51,-76.92 221.5,-71.34 219.98,-78.17"/>
</g>
<!-- 81 -->
<g id="node6" class="node">
<title>81</title>
<ellipse fill="white" stroke="black" cx="251.5" cy="-21.5" rx="21.5" ry="21.5"/>
<text text-anchor="middle" x="251.5" y="-18.1" font-family="monospace" font-size="13.00">81</text>
</g>
<!-- lista&#45;&gt;81 -->
<g id="edge4" class="edge">
<title>lista:f3&#45;&gt;81</title>
<path fill="none" stroke="black" d="M181,-93.5C181,-68.04 203.78,-48.13 223.25,-35.77"/>
<polygon fill="black" stroke="black" points="225.08,-38.75 231.88,-30.62 221.49,-32.74 225.08,-38.75"/>
</g>
</g>
</svg>
