<?xml version="1.0" encoding="UTF-8" standalone="no"?>
<!DOCTYPE svg PUBLIC "-//W3C//DTD SVG 1.1//EN"
 "http://www.w3.org/Graphics/SVG/1.1/DTD/svg11.dtd">
<!-- Generated by graphviz version 14.1.1 (0)
 -->
<!-- Pages: 1 -->
<svg width="282pt" height="295pt"
 viewBox="0.00 0.00 282.00 295.00" xmlns="http://www.w3.org/2000/svg" xmlns:xlink="http://www.w3.org/1999/xlink">
<g id="graph0" class="graph" transform="scale(1 1) rotate(0) translate(4 291.2)">
<!-- x -->
<g id="node1" class="node">
<title>x</title>
<polygon fill="white" stroke="black" points="0,-125.6 0,-161.6 50.4,-161.6 50.4,-125.6 0,-125.6"/>
<text xml:space="preserve" text-anchor="middle" x="12.25" y="-139.75" font-family="monospace" font-size="13.00">x</text>
<polyline fill="none" stroke="black" points="24.5,-126.1 24.5,-161.6"/>
<text xml:space="preserve" text-anchor="middle" x="37.25" y="-138.25" font-family="monospace" font-size="13.00">⬤</text>
</g>
<!-- lista -->
<g id="node2" class="node">
<title>lista</title>
<polygon fill="white" stroke="black" points="86.4,-125.6 86.4,-161.6 194.4,-161.6 194.4,-125.6 86.4,-125.6"/>
<text xml:space="preserve" text-anchor="middle" x="99.65" y="-138.25" font-family="monospace" font-size="13.00">⬤</text>
<polyline fill="none" stroke="black" points="112.9,-126.1 112.9,-161.6"/>
<text xml:space="preserve" text-anchor="middle" x="126.65" y="-138.25" font-family="monospace" font-size="13.00">⬤</text>
<polyline fill="none" stroke="black" points="140.4,-126.1 140.4,-161.6"/>
<text xml:space="preserve" text-anchor="middle" x="153.65" y="-138.25" font-family="monospace" font-size="13.00">⬤</text>
<polyline fill="none" stroke="black" points="166.9,-126.1 166.9,-161.6"/>
<text xml:space="preserve" text-anchor="middle" x="180.65" y="-138.25" font-family="monospace" font-size="13.00">⬤</text>
</g>
<!-- x&#45;&gt;lista -->
<g id="edge6" class="edge">
<title>x:f1&#45;&gt;lista</title>
<path fill="none" stroke="black" d="M50.4,-143.85C58.28,-143.85 66.55,-143.84 74.74,-143.82"/>
<polygon fill="black" stroke="black" points="74.71,-147.32 84.71,-143.8 74.7,-140.32 74.71,-147.32"/>
</g>
<!-- 24 -->
<g id="node3" class="node">
<title>24</title>
<ellipse fill="white" stroke="black" cx="252" cy="-265.6" rx="21.6" ry="21.6"/>
<text xml:space="preserve" text-anchor="middle" x="252" y="-261.5" font-family="monospace" font-size="13.00">24</text>
</g>
<!-- lista&#45;&gt;24 -->
<g id="edge1" class="edge">
<title>lista:f0&#45;&gt;24</title>
<path fill="none" stroke="black" d="M99.65,-162.6C99.65,-220.22 175.56,-247.89 219.86,-259.13"/>
<polygon fill="black" stroke="black" points="218.89,-262.49 229.43,-261.41 220.51,-255.68 218.89,-262.49"/>
</g>
<!-- 99 -->
<g id="node4" class="node">
<title>99</title>
<ellipse fill="white" stroke="black" cx="252" cy="-204.6" rx="21.6" ry="21.6"/>
<text xml:space="preserve" text-anchor="middle" x="252" y="-200.5" font-family="monospace" font-size="13.00">99</text>
</g>
<!-- lista&#45;&gt;99 -->
<g id="edge2" class="edge">
<title>lista:f1&#45;&gt;99</title>
<path fill="none" stroke="black" d="M126.65,-162.6C126.65,-201.77 182.72,-207.27 219.55,-206.66"/>
<polygon fill="black" stroke="black" points="219.36,-210.17 229.23,-206.33 219.12,-203.17 219.36,-210.17"/>
</g>
<!-- 81 -->
<g id="node5" class="node">
<title>81</title>
<ellipse fill="white" stroke="black" cx="252" cy="-143.6" rx="21.6" ry="21.6"/>
<text xml:space="preserve" text-anchor="middle" x="252" y="-139.5" font-family="monospace" font-size="13.00">81</text>
</g>
<!-- lista&#45;&gt;81 -->
<g id="edge5" class="edge">
<title>lista:f3&#45;&gt;81</title>
<path fill="none" stroke="black" d="M194.4,-143.85C202.45,-143.85 211.15,-143.82 219.26,-143.79"/>
<polygon fill="black" stroke="black" points="219.07,-147.29 229.05,-143.74 219.03,-140.29 219.07,-147.29"/>
</g>
<!-- 15 -->
<g id="node6" class="node">
<title>15</title>
<ellipse fill="white" stroke="black" cx="252" cy="-82.6" rx="21.6" ry="21.6"/>
<text xml:space="preserve" text-anchor="middle" x="252" y="-78.5" font-family="monospace" font-size="13.00">15</text>
</g>
<!-- lista&#45;&gt;15 -->
<g id="edge4" class="edge">
<title>lista:f2&#45;&gt;15</title>
<path fill="none" stroke="black" d="M153.65,-125.1C153.65,-95.76 191.24,-86.48 219.71,-83.65"/>
<polygon fill="black" stroke="black" points="219.61,-87.16 229.32,-82.92 219.09,-80.18 219.61,-87.16"/>
</g>
<!-- 32 -->
<g id="node7" class="node">
<title>32</title>
<ellipse fill="none" stroke="grey" stroke-dasharray="5,2" cx="252" cy="-21.6" rx="21.6" ry="21.6"/>
<text xml:space="preserve" text-anchor="middle" x="252" y="-17.5" font-family="monospace" font-size="13.00" fill="grey">32</text>
</g>
<!-- lista&#45;&gt;32 -->
<g id="edge3" class="edge">
<title>lista:f1&#45;&gt;32</title>
<path fill="none" stroke="grey" stroke-dasharray="5,2" d="M126.65,-125.1C126.65,-76.35 183.8,-46.13 220.61,-31.72"/>
<polygon fill="grey" stroke="grey" points="221.72,-35.04 229.88,-28.28 219.28,-28.48 221.72,-35.04"/>
</g>
</g>
</svg>
