<?xml version="1.0" encoding="UTF-8" standalone="no"?>
<!DOCTYPE svg PUBLIC "-//W3C//DTD SVG 1.1//EN"
 "http://www.w3.org/Graphics/SVG/1.1/DTD/svg11.dtd">
<!-- Generated by graphviz version 2.40.1 (20161225.0304)
 -->
<!-- Title: %3 Pages: 1 -->
<svg width="576pt" height="98pt"
 viewBox="0.00 0.00 576.00 98.18" xmlns="http://www.w3.org/2000/svg" xmlns:xlink="http://www.w3.org/1999/xlink">
<g id="graph0" class="graph" transform="scale(2.1818 2.1818) rotate(0) translate(4 41)">
<title>%3</title>
<!-- x -->
<g id="node1" class="node">
<title>x</title>
<polygon fill="transparent" stroke="transparent" points="54,-36.5 0,-36.5 0,-.5 54,-.5 54,-36.5"/>
<text text-anchor="middle" x="27" y="-15.1" font-family="monospace" font-size="13.00" fill="#000000">x</text>
</g>
<!-- v1 -->
<g id="node3" class="node">
<title>v1</title>
<polygon fill="#ffffff" stroke="#000000" points="112,-29.5 90,-29.5 90,-7.5 112,-7.5 112,-29.5"/>
<text text-anchor="middle" x="101" y="-15.1" font-family="monospace" font-size="13.00" fill="#000000">⬤</text>
</g>
<!-- x&#45;&gt;v1 -->
<g id="edge1" class="edge">
<title>x&#45;&gt;v1</title>
<path fill="none" stroke="#000000" d="M45.2921,-18.5C55.5842,-18.5 68.4969,-18.5 79.2984,-18.5"/>
<polygon fill="#000000" stroke="#000000" points="79.5921,-22.0001 89.5921,-18.5 79.5921,-15.0001 79.5921,-22.0001"/>
</g>
<!-- lista -->
<g id="node2" class="node">
<title>lista</title>
<polygon fill="#ffffff" stroke="#000000" points="148,-.5 148,-36.5 256,-36.5 256,-.5 148,-.5"/>
<text text-anchor="middle" x="161.5" y="-15.1" font-family="monospace" font-size="13.00" fill="#000000">24</text>
<polyline fill="none" stroke="#000000" points="175,-.5 175,-36.5 "/>
<text text-anchor="middle" x="188.5" y="-15.1" font-family="monospace" font-size="13.00" fill="#000000">32</text>
<polyline fill="none" stroke="#000000" points="202,-.5 202,-36.5 "/>
<text text-anchor="middle" x="215.5" y="-15.1" font-family="monospace" font-size="13.00" fill="#000000">15</text>
<polyline fill="none" stroke="#000000" points="229,-.5 229,-36.5 "/>
<text text-anchor="middle" x="242.5" y="-15.1" font-family="monospace" font-size="13.00" fill="#000000">81</text>
</g>
<!-- v1&#45;&gt;lista -->
<g id="edge2" class="edge">
<title>v1&#45;&gt;lista</title>
<path fill="none" stroke="#000000" d="M112.1947,-18.5C118.8972,-18.5 128.0173,-18.5 137.887,-18.5"/>
<polygon fill="#000000" stroke="#000000" points="137.9449,-22.0001 147.9449,-18.5 137.9449,-15.0001 137.9449,-22.0001"/>
</g>
</g>
</svg>
