<?xml version="1.0" encoding="UTF-8" standalone="no"?>
<!DOCTYPE svg PUBLIC "-//W3C//DTD SVG 1.1//EN"
 "http://www.w3.org/Graphics/SVG/1.1/DTD/svg11.dtd">
<!-- Generated by graphviz version 2.43.0 (0)
 -->
<!-- Title: %3 Pages: 1 -->
<svg width="264pt" height="45pt"
 viewBox="0.00 0.00 264.00 45.00" xmlns="http://www.w3.org/2000/svg" xmlns:xlink="http://www.w3.org/1999/xlink">
<g id="graph0" class="graph" transform="scale(1 1) rotate(0) translate(4 41)">
<title>%3</title>
<!-- x -->
<g id="node1" class="node">
<title>x</title>
<polygon fill="transparent" stroke="transparent" points="54,-36.5 0,-36.5 0,-0.5 54,-0.5 54,-36.5"/>
<text text-anchor="middle" x="27" y="-15.1" font-family="monospace" font-size="13.00">x</text>
</g>
<!-- v1 -->
<g id="node3" class="node">
<title>v1</title>
<polygon fill="white" stroke="black" points="112,-29.5 90,-29.5 90,-7.5 112,-7.5 112,-29.5"/>
<text text-anchor="middle" x="101" y="-15.1" font-family="monospace" font-size="13.00">⬤</text>
</g>
<!-- x&#45;&gt;v1 -->
<g id="edge1" class="edge">
<title>x&#45;&gt;v1</title>
<path fill="none" stroke="black" d="M45.06,-18.5C55.43,-18.5 68.73,-18.5 79.65,-18.5"/>
<polygon fill="black" stroke="black" points="79.94,-22 89.94,-18.5 79.94,-15 79.94,-22"/>
</g>
<!-- lista -->
<g id="node2" class="node">
<title>lista</title>
<polygon fill="white" stroke="black" points="148,-0.5 148,-36.5 256,-36.5 256,-0.5 148,-0.5"/>
<text text-anchor="middle" x="161.5" y="-15.1" font-family="monospace" font-size="13.00">24</text>
<polyline fill="none" stroke="black" points="175,-0.5 175,-36.5 "/>
<text text-anchor="middle" x="188.5" y="-15.1" font-family="monospace" font-size="13.00">32</text>
<polyline fill="none" stroke="black" points="202,-0.5 202,-36.5 "/>
<text text-anchor="middle" x="215.5" y="-15.1" font-family="monospace" font-size="13.00">15</text>
<polyline fill="none" stroke="black" points="229,-0.5 229,-36.5 "/>
<text text-anchor="middle" x="242.5" y="-15.1" font-family="monospace" font-size="13.00">81</text>
</g>
<!-- v1&#45;&gt;lista -->
<g id="edge2" class="edge">
<title>v1&#45;&gt;lista</title>
<path fill="none" stroke="black" d="M112.22,-18.5C118.74,-18.5 127.8,-18.5 137.66,-18.5"/>
<polygon fill="black" stroke="black" points="137.71,-22 147.71,-18.5 137.71,-15 137.71,-22"/>
</g>
</g>
</svg>
