<?xml version="1.0" encoding="UTF-8" standalone="no"?>
<!DOCTYPE svg PUBLIC "-//W3C//DTD SVG 1.1//EN"
 "http://www.w3.org/Graphics/SVG/1.1/DTD/svg11.dtd">
<!-- Generated by graphviz version 2.43.0 (0)
 -->
<!-- Title: %3 Pages: 1 -->
<svg width="222pt" height="62pt"
 viewBox="0.00 0.00 222.00 62.00" xmlns="http://www.w3.org/2000/svg" xmlns:xlink="http://www.w3.org/1999/xlink">
<g id="graph0" class="graph" transform="scale(1 1) rotate(0) translate(4 58)">
<title>%3</title>
<!-- Fetch -->
<g id="node1" class="node">
<title>Fetch</title>
<polygon fill="white" stroke="black" points="54,-36 0,-36 0,0 54,0 54,-36"/>
<text text-anchor="middle" x="27" y="-14.6" font-family="Lato" font-size="13.00">Fetch</text>
</g>
<!-- Decode -->
<g id="node2" class="node">
<title>Decode</title>
<polygon fill="white" stroke="black" points="133.5,-36 72.5,-36 72.5,0 133.5,0 133.5,-36"/>
<text text-anchor="middle" x="103" y="-14.6" font-family="Lato" font-size="13.00">Decode</text>
</g>
<!-- Fetch&#45;&gt;Decode -->
<g id="edge1" class="edge">
<title>Fetch&#45;&gt;Decode</title>
<path fill="none" stroke="black" d="M54.01,-18C54.01,-18 62.45,-18 62.45,-18"/>
<polygon fill="black" stroke="black" points="62.45,-21.5 72.45,-18 62.45,-14.5 62.45,-21.5"/>
</g>
<!-- Execute -->
<g id="node3" class="node">
<title>Execute</title>
<polygon fill="white" stroke="black" points="214,-36 152,-36 152,0 214,0 214,-36"/>
<text text-anchor="middle" x="183" y="-14.6" font-family="Lato" font-size="13.00">Execute</text>
</g>
<!-- Decode&#45;&gt;Execute -->
<g id="edge2" class="edge">
<title>Decode&#45;&gt;Execute</title>
<path fill="none" stroke="black" d="M133.7,-18C133.7,-18 141.98,-18 141.98,-18"/>
<polygon fill="black" stroke="black" points="141.98,-21.5 151.98,-18 141.98,-14.5 141.98,-21.5"/>
</g>
<!-- Execute&#45;&gt;Fetch -->
<g id="edge3" class="edge">
<title>Execute&#45;&gt;Fetch</title>
<path fill="none" stroke="black" d="M183,-36.42C183,-45.28 183,-54 183,-54 183,-54 27,-54 27,-54 27,-54 27,-46.42 27,-46.42"/>
<polygon fill="black" stroke="black" points="30.5,-46.42 27,-36.42 23.5,-46.42 30.5,-46.42"/>
</g>
</g>
</svg>
