<?xml version="1.0" encoding="UTF-8" standalone="no"?>
<!DOCTYPE svg PUBLIC "-//W3C//DTD SVG 1.1//EN"
 "http://www.w3.org/Graphics/SVG/1.1/DTD/svg11.dtd">
<!-- Generated by graphviz version 2.40.1 (20161225.0304)
 -->
<!-- Title: %3 Pages: 1 -->
<svg width="576pt" height="162pt"
 viewBox="0.00 0.00 576.00 161.96" xmlns="http://www.w3.org/2000/svg" xmlns:xlink="http://www.w3.org/1999/xlink">
<g id="graph0" class="graph" transform="scale(2.6122 2.6122) rotate(0) translate(4 58)">
<title>%3</title>
<!-- Fetch -->
<g id="node1" class="node">
<title>Fetch</title>
<polygon fill="#ffffff" stroke="#000000" points="54,-36 0,-36 0,0 54,0 54,-36"/>
<text text-anchor="middle" x="27" y="-14.6" font-family="Lato" font-size="13.00" fill="#000000">Fetch</text>
</g>
<!-- Decode -->
<g id="node2" class="node">
<title>Decode</title>
<polygon fill="#ffffff" stroke="#000000" points="133.5,-36 72.5,-36 72.5,0 133.5,0 133.5,-36"/>
<text text-anchor="middle" x="103" y="-14.6" font-family="Lato" font-size="13.00" fill="#000000">Decode</text>
</g>
<!-- Fetch&#45;&gt;Decode -->
<g id="edge1" class="edge">
<title>Fetch&#45;&gt;Decode</title>
<path fill="none" stroke="#000000" d="M54.0087,-18C54.0087,-18 62.454,-18 62.454,-18"/>
<polygon fill="#000000" stroke="#000000" points="62.4541,-21.5001 72.454,-18 62.454,-14.5001 62.4541,-21.5001"/>
</g>
<!-- Execute -->
<g id="node3" class="node">
<title>Execute</title>
<polygon fill="#ffffff" stroke="#000000" points="212.5,-36 151.5,-36 151.5,0 212.5,0 212.5,-36"/>
<text text-anchor="middle" x="182" y="-14.6" font-family="Lato" font-size="13.00" fill="#000000">Execute</text>
</g>
<!-- Decode&#45;&gt;Execute -->
<g id="edge2" class="edge">
<title>Decode&#45;&gt;Execute</title>
<path fill="none" stroke="#000000" d="M133.7697,-18C133.7697,-18 141.4442,-18 141.4442,-18"/>
<polygon fill="#000000" stroke="#000000" points="141.4442,-21.5001 151.4442,-18 141.4441,-14.5001 141.4442,-21.5001"/>
</g>
<!-- Execute&#45;&gt;Fetch -->
<g id="edge3" class="edge">
<title>Execute&#45;&gt;Fetch</title>
<path fill="none" stroke="#000000" d="M182,-36.4218C182,-45.2791 182,-54 182,-54 182,-54 27,-54 27,-54 27,-54 27,-46.4218 27,-46.4218"/>
<polygon fill="#000000" stroke="#000000" points="30.5001,-46.4218 27,-36.4218 23.5001,-46.4219 30.5001,-46.4218"/>
</g>
</g>
</svg>
