<?xml version="1.0" encoding="UTF-8" standalone="no"?>
<!DOCTYPE svg PUBLIC "-//W3C//DTD SVG 1.1//EN"
 "http://www.w3.org/Graphics/SVG/1.1/DTD/svg11.dtd">
<!-- Generated by graphviz version 14.1.1 (0)
 -->
<!-- Pages: 1 -->
<svg width="220pt" height="62pt"
 viewBox="0.00 0.00 220.00 62.00" xmlns="http://www.w3.org/2000/svg" xmlns:xlink="http://www.w3.org/1999/xlink">
<g id="graph0" class="graph" transform="scale(1 1) rotate(0) translate(4 58)">
<!-- Fetch -->
<g id="node1" class="node">
<title>Fetch</title>
<polygon fill="white" stroke="black" points="54,-36 0,-36 0,0 54,0 54,-36"/>
<text xml:space="preserve" text-anchor="middle" x="27" y="-13.9" font-family="Lato" font-size="13.00">Fetch</text>
</g>
<!-- Decode -->
<g id="node2" class="node">
<title>Decode</title>
<polygon fill="white" stroke="black" points="132.12,-36 71.88,-36 71.88,0 132.12,0 132.12,-36"/>
<text xml:space="preserve" text-anchor="middle" x="102" y="-13.9" font-family="Lato" font-size="13.00">Decode</text>
</g>
<!-- Fetch&#45;&gt;Decode -->
<g id="edge1" class="edge">
<title>Fetch&#45;&gt;Decode</title>
<path fill="none" stroke="black" d="M54.08,-18C54.08,-18 59.89,-18 59.89,-18"/>
<polygon fill="black" stroke="black" points="59.89,-21.5 69.89,-18 59.89,-14.5 59.89,-21.5"/>
</g>
<!-- Execute -->
<g id="node3" class="node">
<title>Execute</title>
<polygon fill="white" stroke="black" points="211.5,-36 150.5,-36 150.5,0 211.5,0 211.5,-36"/>
<text xml:space="preserve" text-anchor="middle" x="181" y="-13.9" font-family="Lato" font-size="13.00">Execute</text>
</g>
<!-- Decode&#45;&gt;Execute -->
<g id="edge2" class="edge">
<title>Decode&#45;&gt;Execute</title>
<path fill="none" stroke="black" d="M132.32,-18C132.32,-18 138.6,-18 138.6,-18"/>
<polygon fill="black" stroke="black" points="138.6,-21.5 148.6,-18 138.6,-14.5 138.6,-21.5"/>
</g>
<!-- Execute&#45;&gt;Fetch -->
<g id="edge3" class="edge">
<title>Execute&#45;&gt;Fetch</title>
<path fill="none" stroke="black" d="M181,-36.42C181,-45.28 181,-54 181,-54 181,-54 27,-54 27,-54 27,-54 27,-47.94 27,-47.94"/>
<polygon fill="black" stroke="black" points="30.5,-47.94 27,-37.94 23.5,-47.94 30.5,-47.94"/>
</g>
</g>
</svg>
