<?xml version="1.0" encoding="UTF-8" standalone="no"?>
<!DOCTYPE svg PUBLIC "-//W3C//DTD SVG 1.1//EN"
 "http://www.w3.org/Graphics/SVG/1.1/DTD/svg11.dtd">
<!-- Generated by graphviz version 2.42.4 (0)
 -->
<!-- Pages: 1 -->
<svg width="561pt" height="346pt"
 viewBox="0.00 0.00 560.85 346.04" xmlns="http://www.w3.org/2000/svg" xmlns:xlink="http://www.w3.org/1999/xlink">
<g id="graph0" class="graph" transform="scale(1 1) rotate(0) translate(4 342.04)">
<g id="clust1" class="cluster">
<title>cluster9</title>
<polygon fill="#f2f2f2" stroke="black" points="42,-75.04 42,-330.04 170,-330.04 170,-75.04 42,-75.04"/>
<text text-anchor="middle" x="106" y="-314.84" font-family="Lato" font-size="14.00">Pila de control</text>
</g>
<g id="clust3" class="cluster">
<title>cluster2</title>
<polygon fill="white" stroke="black" points="55,-83.04 55,-228.04 157,-228.04 157,-83.04 55,-83.04"/>
<text text-anchor="start" x="66.5" y="-212.84" font-family="Lato" font-size="14.00">Marco global</text>
</g>
<g id="clust2" class="cluster">
<title>cluster1</title>
<polygon fill="white" stroke="red" points="50,-236.04 50,-299.04 162,-299.04 162,-236.04 50,-236.04"/>
<text text-anchor="start" x="58" y="-284.84" font-family="Lato" font-size="14.00" fill="red">Marco de </text>
<text text-anchor="start" x="120" y="-284.84" font-family="monospace" font-size="14.00" fill="red">p(0)</text>
</g>
<g id="clust4" class="cluster">
<title>cluster8</title>
<path fill="#f2f2f2" stroke="black" d="M194,-57.04C194,-57.04 532.85,-57.04 532.85,-57.04 538.85,-57.04 544.85,-63.04 544.85,-69.04 544.85,-69.04 544.85,-294.04 544.85,-294.04 544.85,-300.04 538.85,-306.04 532.85,-306.04 532.85,-306.04 194,-306.04 194,-306.04 188,-306.04 182,-300.04 182,-294.04 182,-294.04 182,-69.04 182,-69.04 182,-63.04 188,-57.04 194,-57.04"/>
<text text-anchor="middle" x="363.43" y="-290.84" font-family="Lato" font-size="14.00">Montículo</text>
</g>
<g id="clust5" class="cluster">
<title>cluster0</title>
<path fill="white" stroke="black" d="M278.43,-73.04C278.43,-73.04 448.43,-73.04 448.43,-73.04 454.43,-73.04 460.43,-79.04 460.43,-85.04 460.43,-85.04 460.43,-206.04 460.43,-206.04 460.43,-212.04 454.43,-218.04 448.43,-218.04 448.43,-218.04 278.43,-218.04 278.43,-218.04 272.43,-218.04 266.43,-212.04 266.43,-206.04 266.43,-206.04 266.43,-85.04 266.43,-85.04 266.43,-79.04 272.43,-73.04 278.43,-73.04"/>
<text text-anchor="start" x="274.43" y="-203.84" font-family="Lato" font-size="14.00">Marco de </text>
<text text-anchor="start" x="336.43" y="-203.84" font-family="monospace" font-size="14.00">pareja(20, 14)</text>
</g>
<!-- indice -->
<g id="node1" class="node">
<title>indice</title>
<polygon fill="white" stroke="black" points="63,-245.04 63,-267.04 149,-267.04 149,-245.04 63,-245.04"/>
<text text-anchor="middle" x="94" y="-252.64" font-family="monospace" font-size="13.00">indice</text>
<polyline fill="none" stroke="black" points="125,-245.04 125,-267.04 "/>
<text text-anchor="middle" x="137" y="-252.64" font-family="monospace" font-size="13.00">⬤</text>
</g>
<!-- get -->
<g id="node7" class="node">
<title>get</title>
<polygon fill="white" stroke="black" points="331.43,-164.04 331.43,-186.04 394.43,-186.04 394.43,-164.04 331.43,-164.04"/>
<text text-anchor="middle" x="350.93" y="-171.64" font-family="monospace" font-size="13.00">get</text>
<polyline fill="none" stroke="black" points="370.43,-164.04 370.43,-186.04 "/>
<text text-anchor="middle" x="382.43" y="-171.64" font-family="monospace" font-size="13.00">⬤</text>
</g>
<!-- indice&#45;&gt;get -->
<g id="edge9" class="edge">
<title>indice:n&#45;&gt;get:n</title>
<path fill="none" stroke="black" d="M113.74,-299.04C150.98,-361.14 311.57,-311.8 353.09,-227.43"/>
<polygon fill="black" stroke="black" points="356.4,-228.61 357.16,-218.04 349.97,-225.83 356.4,-228.61"/>
</g>
<!-- 0 -->
<g id="node14" class="node">
<title>0</title>
<ellipse fill="white" stroke="black" cx="210.21" cy="-257.04" rx="18" ry="18"/>
<text text-anchor="middle" x="210.21" y="-253.64" font-family="monospace" font-size="13.00">0</text>
</g>
<!-- indice&#45;&gt;0 -->
<g id="edge10" class="edge">
<title>indice:f1&#45;&gt;0</title>
<path fill="none" stroke="black" d="M150,-256.04C160.42,-256.04 171.87,-256.2 181.9,-256.39"/>
<polygon fill="black" stroke="black" points="182.04,-259.89 192.11,-256.6 182.19,-252.89 182.04,-259.89"/>
</g>
<!-- p -->
<g id="node2" class="node">
<title>p</title>
<polygon fill="white" stroke="black" points="88,-133.04 88,-155.04 124,-155.04 124,-133.04 88,-133.04"/>
<text text-anchor="middle" x="97" y="-140.64" font-family="monospace" font-size="13.00">p</text>
<polyline fill="none" stroke="black" points="106,-133.04 106,-155.04 "/>
<text text-anchor="middle" x="115" y="-140.64" font-family="monospace" font-size="13.00">⬤</text>
</g>
<!-- f3 -->
<g id="node12" class="node">
<title>f3</title>
<ellipse fill="white" stroke="red" cx="210.21" cy="-143.04" rx="20.43" ry="20.43"/>
<text text-anchor="middle" x="210.21" y="-139.64" font-family="monospace" font-size="13.00">λ3</text>
</g>
<!-- p&#45;&gt;f3 -->
<g id="edge2" class="edge">
<title>p:e&#45;&gt;f3</title>
<path fill="none" stroke="black" d="M125,-144.04C143.06,-144.04 163.29,-143.81 179.4,-143.57"/>
<polygon fill="black" stroke="black" points="179.87,-147.06 189.81,-143.4 179.76,-140.06 179.87,-147.06"/>
</g>
<!-- pareja -->
<g id="node3" class="node">
<title>pareja</title>
<polygon fill="white" stroke="black" points="63,-92.04 63,-114.04 149,-114.04 149,-92.04 63,-92.04"/>
<text text-anchor="middle" x="94" y="-99.64" font-family="monospace" font-size="13.00">pareja</text>
<polyline fill="none" stroke="black" points="125,-92.04 125,-114.04 "/>
<text text-anchor="middle" x="137" y="-99.64" font-family="monospace" font-size="13.00">⬤</text>
</g>
<!-- f1 -->
<g id="node10" class="node">
<title>f1</title>
<ellipse fill="white" stroke="black" cx="210.21" cy="-85.04" rx="20.43" ry="20.43"/>
<text text-anchor="middle" x="210.21" y="-81.64" font-family="monospace" font-size="13.00">λ1</text>
</g>
<!-- pareja&#45;&gt;f1 -->
<g id="edge3" class="edge">
<title>pareja:f1&#45;&gt;f1</title>
<path fill="none" stroke="black" d="M150,-103.04C160.88,-103.04 172.42,-100.23 182.39,-96.82"/>
<polygon fill="black" stroke="black" points="183.62,-100.1 191.75,-93.3 181.16,-93.54 183.62,-100.1"/>
</g>
<!-- select -->
<g id="node4" class="node">
<title>select</title>
<polygon fill="white" stroke="black" points="63,-174.04 63,-196.04 149,-196.04 149,-174.04 63,-174.04"/>
<text text-anchor="middle" x="94" y="-181.64" font-family="monospace" font-size="13.00">select</text>
<polyline fill="none" stroke="black" points="125,-174.04 125,-196.04 "/>
<text text-anchor="middle" x="137" y="-181.64" font-family="monospace" font-size="13.00">⬤</text>
</g>
<!-- f2 -->
<g id="node11" class="node">
<title>f2</title>
<ellipse fill="white" stroke="black" cx="210.21" cy="-201.04" rx="20.43" ry="20.43"/>
<text text-anchor="middle" x="210.21" y="-197.64" font-family="monospace" font-size="13.00">λ2</text>
</g>
<!-- select&#45;&gt;f2 -->
<g id="edge4" class="edge">
<title>select:f1&#45;&gt;f2</title>
<path fill="none" stroke="black" d="M150,-185.04C160.59,-185.04 171.89,-187.46 181.75,-190.41"/>
<polygon fill="black" stroke="black" points="180.82,-193.79 191.41,-193.6 183.01,-187.14 180.82,-193.79"/>
</g>
<!-- x -->
<g id="node5" class="node">
<title>x</title>
<polygon fill="white" stroke="black" points="344.93,-82.04 344.93,-104.04 380.93,-104.04 380.93,-82.04 344.93,-82.04"/>
<text text-anchor="middle" x="353.93" y="-89.64" font-family="monospace" font-size="13.00">x</text>
<polyline fill="none" stroke="black" points="362.93,-82.04 362.93,-104.04 "/>
<text text-anchor="middle" x="371.93" y="-89.64" font-family="monospace" font-size="13.00">⬤</text>
</g>
<!-- x&#45;&gt;pareja -->
<g id="edge8" class="edge">
<title>x:s&#45;&gt;pareja:s</title>
<path fill="none" stroke="black" d="M362.49,-73.04C351.13,29.42 120.96,21.14 106.69,-80.95"/>
<polygon fill="black" stroke="black" points="105.82,-72.45 106,-83.04 112.47,-74.65 105.82,-72.45"/>
</g>
<!-- 20 -->
<g id="node9" class="node">
<title>20</title>
<ellipse fill="white" stroke="black" cx="516.64" cy="-85.04" rx="20.43" ry="20.43"/>
<text text-anchor="middle" x="516.64" y="-81.64" font-family="monospace" font-size="13.00">20</text>
</g>
<!-- x&#45;&gt;20 -->
<g id="edge5" class="edge">
<title>x:f1&#45;&gt;20</title>
<path fill="none" stroke="black" d="M381.93,-93.04C417.86,-93.04 459.12,-90.13 486.19,-87.82"/>
<polygon fill="black" stroke="black" points="486.52,-91.3 496.18,-86.94 485.91,-84.33 486.52,-91.3"/>
</g>
<!-- y -->
<g id="node6" class="node">
<title>y</title>
<polygon fill="white" stroke="black" points="344.93,-123.04 344.93,-145.04 380.93,-145.04 380.93,-123.04 344.93,-123.04"/>
<text text-anchor="middle" x="353.93" y="-130.64" font-family="monospace" font-size="13.00">y</text>
<polyline fill="none" stroke="black" points="362.93,-123.04 362.93,-145.04 "/>
<text text-anchor="middle" x="371.93" y="-130.64" font-family="monospace" font-size="13.00">⬤</text>
</g>
<!-- 14 -->
<g id="node8" class="node">
<title>14</title>
<ellipse fill="white" stroke="black" cx="516.64" cy="-143.04" rx="20.43" ry="20.43"/>
<text text-anchor="middle" x="516.64" y="-139.64" font-family="monospace" font-size="13.00">14</text>
</g>
<!-- y&#45;&gt;14 -->
<g id="edge6" class="edge">
<title>y:f1&#45;&gt;14</title>
<path fill="none" stroke="black" d="M381.93,-134.04C417.87,-134.04 459.13,-137.32 486.2,-139.92"/>
<polygon fill="black" stroke="black" points="485.88,-143.4 496.18,-140.91 486.58,-136.44 485.88,-143.4"/>
</g>
<!-- f4 -->
<g id="node13" class="node">
<title>f4</title>
<ellipse fill="white" stroke="black" cx="516.64" cy="-201.04" rx="20.43" ry="20.43"/>
<text text-anchor="middle" x="516.64" y="-197.64" font-family="monospace" font-size="13.00">λ3</text>
</g>
<!-- get&#45;&gt;f4 -->
<g id="edge7" class="edge">
<title>get:f1&#45;&gt;f4</title>
<path fill="none" stroke="black" d="M395.93,-175.04C427.94,-175.04 463.68,-184.03 487.71,-191.43"/>
<polygon fill="black" stroke="black" points="486.66,-194.77 497.25,-194.48 488.79,-188.1 486.66,-194.77"/>
</g>
<!-- f3&#45;&gt;get -->
<g id="edge1" class="edge">
<title>f3:e&#45;&gt;get:w</title>
<path fill="none" stroke="blue" d="M230.43,-143.04C243.34,-143.04 248.18,-147.03 256.94,-151.23"/>
<polygon fill="blue" stroke="blue" points="255.84,-154.56 266.43,-155.04 258.45,-148.07 255.84,-154.56"/>
</g>
<!-- E -->
<g id="node15" class="node">
<title>E</title>
<polygon fill="transparent" stroke="transparent" points="22,-274.04 0,-274.04 0,-238.04 22,-238.04 22,-274.04"/>
<text text-anchor="middle" x="11" y="-252.64" font-family="monospace" font-size="13.00">E</text>
</g>
<!-- E&#45;&gt;indice -->
<g id="edge11" class="edge">
<title>E&#45;&gt;indice</title>
<path fill="none" stroke="black" d="M22.31,-256.04C27.06,-256.04 33.14,-256.04 39.83,-256.04"/>
<polygon fill="black" stroke="black" points="40,-259.54 50,-256.04 40,-252.54 40,-259.54"/>
</g>
</g>
</svg>
