<?xml version="1.0" encoding="UTF-8" standalone="no"?>
<!DOCTYPE svg PUBLIC "-//W3C//DTD SVG 1.1//EN"
 "http://www.w3.org/Graphics/SVG/1.1/DTD/svg11.dtd">
<!-- Generated by graphviz version 2.43.0 (0)
 -->
<!-- Title: %3 Pages: 1 -->
<svg width="684pt" height="407pt"
 viewBox="0.00 0.00 684.43 407.24" xmlns="http://www.w3.org/2000/svg" xmlns:xlink="http://www.w3.org/1999/xlink">
<g id="graph0" class="graph" transform="scale(1 1) rotate(0) translate(4 403.24)">
<title>%3</title>
<g id="clust1" class="cluster">
<title>cluster9</title>
<polygon fill="#f2f2f2" stroke="black" points="42,-41.24 42,-266.24 160,-266.24 160,-41.24 42,-41.24"/>
<text text-anchor="middle" x="101" y="-251.04" font-family="Lato" font-size="14.00">Pila de control</text>
</g>
<g id="clust2" class="cluster">
<title>cluster2</title>
<polygon fill="white" stroke="black" points="50,-49.24 50,-235.24 152,-235.24 152,-49.24 50,-49.24"/>
<text text-anchor="start" x="61.5" y="-220.04" font-family="Lato" font-size="14.00">Marco global</text>
</g>
<g id="clust3" class="cluster">
<title>cluster8</title>
<path fill="#f2f2f2" stroke="black" d="M180,-41.24C180,-41.24 656.43,-41.24 656.43,-41.24 662.43,-41.24 668.43,-47.24 668.43,-53.24 668.43,-53.24 668.43,-379.24 668.43,-379.24 668.43,-385.24 662.43,-391.24 656.43,-391.24 656.43,-391.24 180,-391.24 180,-391.24 174,-391.24 168,-385.24 168,-379.24 168,-379.24 168,-53.24 168,-53.24 168,-47.24 174,-41.24 180,-41.24"/>
<text text-anchor="middle" x="418.21" y="-376.04" font-family="Lato" font-size="14.00">Montículo</text>
</g>
<g id="clust4" class="cluster">
<title>cluster0</title>
<path fill="white" stroke="black" d="M402,-65.24C402,-65.24 572,-65.24 572,-65.24 578,-65.24 584,-71.24 584,-77.24 584,-77.24 584,-198.24 584,-198.24 584,-204.24 578,-210.24 572,-210.24 572,-210.24 402,-210.24 402,-210.24 396,-210.24 390,-204.24 390,-198.24 390,-198.24 390,-77.24 390,-77.24 390,-71.24 396,-65.24 402,-65.24"/>
<text text-anchor="start" x="398" y="-196.04" font-family="Lato" font-size="14.00">Marco de </text>
<text text-anchor="start" x="460" y="-196.04" font-family="monospace" font-size="14.00">pareja(20, 14)</text>
</g>
<g id="clust5" class="cluster">
<title>cluster1</title>
<path fill="white" stroke="black" d="M188,-215.24C188,-215.24 342,-215.24 342,-215.24 348,-215.24 354,-221.24 354,-227.24 354,-227.24 354,-348.24 354,-348.24 354,-354.24 348,-360.24 342,-360.24 342,-360.24 188,-360.24 188,-360.24 182,-360.24 176,-354.24 176,-348.24 176,-348.24 176,-227.24 176,-227.24 176,-221.24 182,-215.24 188,-215.24"/>
<text text-anchor="start" x="184" y="-346.04" font-family="Lato" font-size="14.00">Marco de </text>
<text text-anchor="start" x="246" y="-346.04" font-family="monospace" font-size="14.00">pareja(5, 6)</text>
</g>
<!-- p -->
<g id="node1" class="node">
<title>p</title>
<polygon fill="white" stroke="black" points="83,-181.24 83,-203.24 119,-203.24 119,-181.24 83,-181.24"/>
<text text-anchor="middle" x="92" y="-188.84" font-family="monospace" font-size="13.00">p</text>
<polyline fill="none" stroke="black" points="101,-181.24 101,-203.24 "/>
<text text-anchor="middle" x="110" y="-188.84" font-family="monospace" font-size="13.00">⬤</text>
</g>
<!-- x1 -->
<g id="node8" class="node">
<title>x1</title>
<polygon fill="white" stroke="black" points="246.5,-306.24 246.5,-328.24 282.5,-328.24 282.5,-306.24 246.5,-306.24"/>
<text text-anchor="middle" x="255.5" y="-313.84" font-family="monospace" font-size="13.00">x</text>
<polyline fill="none" stroke="black" points="264.5,-306.24 264.5,-328.24 "/>
<text text-anchor="middle" x="273.5" y="-313.84" font-family="monospace" font-size="13.00">⬤</text>
</g>
<!-- p&#45;&gt;x1 -->
<g id="edge13" class="edge">
<title>p:n&#45;&gt;x1:w</title>
<path fill="none" stroke="black" d="M98.56,-245.19C110.77,-279.15 139.09,-299.12 176,-309.12"/>
<polygon fill="black" stroke="black" points="101.8,-243.8 95.56,-235.24 95.1,-245.82 101.8,-243.8"/>
</g>
<!-- f3 -->
<g id="node17" class="node">
<title>f3</title>
<ellipse fill="white" stroke="red" cx="264.5" cy="-185.24" rx="20.43" ry="20.43"/>
<text text-anchor="middle" x="264.5" y="-181.84" font-family="monospace" font-size="13.00">λ3</text>
</g>
<!-- p&#45;&gt;f3 -->
<g id="edge2" class="edge">
<title>p:e&#45;&gt;f3</title>
<path fill="none" stroke="black" d="M120,-192.24C159.37,-192.24 204.74,-189.58 233.75,-187.54"/>
<polygon fill="black" stroke="black" points="234.3,-191.01 244.02,-186.79 233.79,-184.03 234.3,-191.01"/>
</g>
<!-- q -->
<g id="node2" class="node">
<title>q</title>
<polygon fill="white" stroke="black" points="83,-140.24 83,-162.24 119,-162.24 119,-140.24 83,-140.24"/>
<text text-anchor="middle" x="92" y="-147.84" font-family="monospace" font-size="13.00">q</text>
<polyline fill="none" stroke="black" points="101,-140.24 101,-162.24 "/>
<text text-anchor="middle" x="110" y="-147.84" font-family="monospace" font-size="13.00">⬤</text>
</g>
<!-- pareja -->
<g id="node3" class="node">
<title>pareja</title>
<polygon fill="white" stroke="black" points="58,-58.24 58,-80.24 144,-80.24 144,-58.24 58,-58.24"/>
<text text-anchor="middle" x="89" y="-65.84" font-family="monospace" font-size="13.00">pareja</text>
<polyline fill="none" stroke="black" points="120,-58.24 120,-80.24 "/>
<text text-anchor="middle" x="132" y="-65.84" font-family="monospace" font-size="13.00">⬤</text>
</g>
<!-- f1 -->
<g id="node15" class="node">
<title>f1</title>
<ellipse fill="white" stroke="black" cx="264.5" cy="-69.24" rx="20.43" ry="20.43"/>
<text text-anchor="middle" x="264.5" y="-65.84" font-family="monospace" font-size="13.00">λ1</text>
</g>
<!-- pareja&#45;&gt;f1 -->
<g id="edge3" class="edge">
<title>pareja:f1&#45;&gt;f1</title>
<path fill="none" stroke="black" d="M145,-69.24C175.33,-69.24 210.02,-69.24 234,-69.24"/>
<polygon fill="black" stroke="black" points="234.21,-72.74 244.21,-69.24 234.21,-65.74 234.21,-72.74"/>
</g>
<!-- select -->
<g id="node4" class="node">
<title>select</title>
<polygon fill="white" stroke="black" points="58,-99.24 58,-121.24 144,-121.24 144,-99.24 58,-99.24"/>
<text text-anchor="middle" x="89" y="-106.84" font-family="monospace" font-size="13.00">select</text>
<polyline fill="none" stroke="black" points="120,-99.24 120,-121.24 "/>
<text text-anchor="middle" x="132" y="-106.84" font-family="monospace" font-size="13.00">⬤</text>
</g>
<!-- f2 -->
<g id="node16" class="node">
<title>f2</title>
<ellipse fill="white" stroke="black" cx="264.5" cy="-127.24" rx="20.43" ry="20.43"/>
<text text-anchor="middle" x="264.5" y="-123.84" font-family="monospace" font-size="13.00">λ2</text>
</g>
<!-- select&#45;&gt;f2 -->
<g id="edge4" class="edge">
<title>select:f1&#45;&gt;f2</title>
<path fill="none" stroke="black" d="M145,-110.24C175.96,-110.24 211.01,-116 234.91,-120.81"/>
<polygon fill="black" stroke="black" points="234.23,-124.24 244.74,-122.86 235.66,-117.39 234.23,-124.24"/>
</g>
<!-- x -->
<g id="node5" class="node">
<title>x</title>
<polygon fill="white" stroke="black" points="468.5,-115.24 468.5,-137.24 504.5,-137.24 504.5,-115.24 468.5,-115.24"/>
<text text-anchor="middle" x="477.5" y="-122.84" font-family="monospace" font-size="13.00">x</text>
<polyline fill="none" stroke="black" points="486.5,-115.24 486.5,-137.24 "/>
<text text-anchor="middle" x="495.5" y="-122.84" font-family="monospace" font-size="13.00">⬤</text>
</g>
<!-- 20 -->
<g id="node12" class="node">
<title>20</title>
<ellipse fill="white" stroke="black" cx="640.21" cy="-135.24" rx="20.43" ry="20.43"/>
<text text-anchor="middle" x="640.21" y="-131.84" font-family="monospace" font-size="13.00">20</text>
</g>
<!-- x&#45;&gt;20 -->
<g id="edge5" class="edge">
<title>x:f1&#45;&gt;20</title>
<path fill="none" stroke="black" d="M505.5,-126.24C541.45,-126.24 582.7,-129.52 609.77,-132.12"/>
<polygon fill="black" stroke="black" points="609.46,-135.6 619.75,-133.11 610.15,-128.64 609.46,-135.6"/>
</g>
<!-- y -->
<g id="node6" class="node">
<title>y</title>
<polygon fill="white" stroke="black" points="468.5,-74.24 468.5,-96.24 504.5,-96.24 504.5,-74.24 468.5,-74.24"/>
<text text-anchor="middle" x="477.5" y="-81.84" font-family="monospace" font-size="13.00">y</text>
<polyline fill="none" stroke="black" points="486.5,-74.24 486.5,-96.24 "/>
<text text-anchor="middle" x="495.5" y="-81.84" font-family="monospace" font-size="13.00">⬤</text>
</g>
<!-- y&#45;&gt;pareja -->
<g id="edge11" class="edge">
<title>y:s&#45;&gt;pareja:s</title>
<path fill="none" stroke="black" d="M485.35,-65.24C463.25,10.09 131.01,24.6 102.89,-47.2"/>
<polygon fill="black" stroke="black" points="102.8,-38.68 102,-49.24 109.22,-41.48 102.8,-38.68"/>
</g>
<!-- 14 -->
<g id="node11" class="node">
<title>14</title>
<ellipse fill="white" stroke="black" cx="640.21" cy="-77.24" rx="20.43" ry="20.43"/>
<text text-anchor="middle" x="640.21" y="-73.84" font-family="monospace" font-size="13.00">14</text>
</g>
<!-- y&#45;&gt;14 -->
<g id="edge6" class="edge">
<title>y:f1&#45;&gt;14</title>
<path fill="none" stroke="black" d="M505.5,-85.24C541.43,-85.24 582.69,-82.33 609.76,-80.02"/>
<polygon fill="black" stroke="black" points="610.09,-83.5 619.75,-79.14 609.48,-76.53 610.09,-83.5"/>
</g>
<!-- get -->
<g id="node7" class="node">
<title>get</title>
<polygon fill="white" stroke="black" points="455,-156.24 455,-178.24 518,-178.24 518,-156.24 455,-156.24"/>
<text text-anchor="middle" x="474.5" y="-163.84" font-family="monospace" font-size="13.00">get</text>
<polyline fill="none" stroke="black" points="494,-156.24 494,-178.24 "/>
<text text-anchor="middle" x="506" y="-163.84" font-family="monospace" font-size="13.00">⬤</text>
</g>
<!-- f4 -->
<g id="node18" class="node">
<title>f4</title>
<ellipse fill="white" stroke="black" cx="640.21" cy="-231.24" rx="20.43" ry="20.43"/>
<text text-anchor="middle" x="640.21" y="-227.84" font-family="monospace" font-size="13.00">λ3</text>
</g>
<!-- get&#45;&gt;f4 -->
<g id="edge9" class="edge">
<title>get:f1&#45;&gt;f4</title>
<path fill="none" stroke="black" d="M519.5,-167.24C549.04,-167.24 557.79,-169.62 584,-183.24 596.81,-189.9 609.12,-200.1 618.86,-209.39"/>
<polygon fill="black" stroke="black" points="616.51,-212 626.07,-216.56 621.45,-207.03 616.51,-212"/>
</g>
<!-- 5 -->
<g id="node13" class="node">
<title>5</title>
<ellipse fill="white" stroke="black" cx="486.5" cy="-317.24" rx="18" ry="18"/>
<text text-anchor="middle" x="486.5" y="-313.84" font-family="monospace" font-size="13.00">5</text>
</g>
<!-- x1&#45;&gt;5 -->
<g id="edge7" class="edge">
<title>x1:f1&#45;&gt;5</title>
<path fill="none" stroke="black" d="M283.5,-317.24C345.9,-317.24 419.15,-317.24 458.01,-317.24"/>
<polygon fill="black" stroke="black" points="458.47,-320.74 468.47,-317.24 458.47,-313.74 458.47,-320.74"/>
</g>
<!-- y1 -->
<g id="node9" class="node">
<title>y1</title>
<polygon fill="white" stroke="black" points="246.5,-224.24 246.5,-246.24 282.5,-246.24 282.5,-224.24 246.5,-224.24"/>
<text text-anchor="middle" x="255.5" y="-231.84" font-family="monospace" font-size="13.00">y</text>
<polyline fill="none" stroke="black" points="264.5,-224.24 264.5,-246.24 "/>
<text text-anchor="middle" x="273.5" y="-231.84" font-family="monospace" font-size="13.00">⬤</text>
</g>
<!-- 6 -->
<g id="node14" class="node">
<title>6</title>
<ellipse fill="white" stroke="black" cx="486.5" cy="-236.24" rx="18" ry="18"/>
<text text-anchor="middle" x="486.5" y="-232.84" font-family="monospace" font-size="13.00">6</text>
</g>
<!-- y1&#45;&gt;6 -->
<g id="edge8" class="edge">
<title>y1:f1&#45;&gt;6</title>
<path fill="none" stroke="black" d="M283.5,-235.24C345.9,-235.24 419.15,-235.72 458.01,-236.02"/>
<polygon fill="black" stroke="black" points="458.45,-239.52 468.47,-236.1 458.5,-232.52 458.45,-239.52"/>
</g>
<!-- get1 -->
<g id="node10" class="node">
<title>get1</title>
<polygon fill="white" stroke="black" points="233,-265.24 233,-287.24 296,-287.24 296,-265.24 233,-265.24"/>
<text text-anchor="middle" x="252.5" y="-272.84" font-family="monospace" font-size="13.00">get</text>
<polyline fill="none" stroke="black" points="272,-265.24 272,-287.24 "/>
<text text-anchor="middle" x="284" y="-272.84" font-family="monospace" font-size="13.00">⬤</text>
</g>
<!-- get1&#45;&gt;f4 -->
<g id="edge10" class="edge">
<title>get1:f1&#45;&gt;f4</title>
<path fill="none" stroke="black" d="M297.5,-276.24C424.96,-276.24 461.69,-299.11 584,-263.24 594.84,-260.06 605.81,-254.33 615.08,-248.6"/>
<polygon fill="black" stroke="black" points="617.27,-251.35 623.72,-242.95 613.44,-245.49 617.27,-251.35"/>
</g>
<!-- f3&#45;&gt;get -->
<g id="edge1" class="edge">
<title>f3:e&#45;&gt;get:w</title>
<path fill="none" stroke="blue" d="M285.5,-185.24C328.61,-185.24 352.85,-179.31 379.88,-174.25"/>
<polygon fill="blue" stroke="blue" points="380.77,-177.65 390,-172.44 379.54,-170.76 380.77,-177.65"/>
</g>
<!-- E -->
<g id="node19" class="node">
<title>E</title>
<polygon fill="transparent" stroke="transparent" points="22,-210.24 0,-210.24 0,-174.24 22,-174.24 22,-210.24"/>
<text text-anchor="middle" x="11" y="-188.84" font-family="monospace" font-size="13.00">E</text>
</g>
<!-- E&#45;&gt;p -->
<g id="edge12" class="edge">
<title>E&#45;&gt;p</title>
<path fill="none" stroke="black" d="M22.09,-192.24C26.89,-192.24 33.04,-192.24 39.79,-192.24"/>
<polygon fill="black" stroke="black" points="40,-195.74 50,-192.24 40,-188.74 40,-195.74"/>
</g>
</g>
</svg>
