<?xml version="1.0" encoding="UTF-8" standalone="no"?>
<!DOCTYPE svg PUBLIC "-//W3C//DTD SVG 1.1//EN"
 "http://www.w3.org/Graphics/SVG/1.1/DTD/svg11.dtd">
<!-- Generated by graphviz version 14.1.1 (0)
 -->
<!-- Pages: 1 -->
<svg width="562pt" height="345pt"
 viewBox="0.00 0.00 562.00 345.00" xmlns="http://www.w3.org/2000/svg" xmlns:xlink="http://www.w3.org/1999/xlink">
<g id="graph0" class="graph" transform="scale(1 1) rotate(0) translate(4 340.68)">
<g id="clust1" class="cluster">
<title>cluster9</title>
<polygon fill="#f2f2f2" stroke="black" points="41.9,-60.68 41.9,-328.68 168.4,-328.68 168.4,-60.68 41.9,-60.68"/>
<text xml:space="preserve" text-anchor="middle" x="105.15" y="-311.38" font-family="Lato" font-size="14.00">Pila de control</text>
</g>
<g id="clust2" class="cluster">
<title>cluster1</title>
<polygon fill="white" stroke="red" points="49.9,-228.68 49.9,-295.68 160.4,-295.68 160.4,-228.68 49.9,-228.68"/>
<text xml:space="preserve" text-anchor="start" x="57.9" y="-279.38" font-family="Lato" font-size="14.00" fill="red">Marco de </text>
<text xml:space="preserve" text-anchor="start" x="119.4" y="-279.38" font-family="monospace" font-size="14.00" fill="red">p(0)</text>
</g>
<g id="clust3" class="cluster">
<title>cluster2</title>
<polygon fill="white" stroke="black" points="54.4,-68.68 54.4,-220.68 154.9,-220.68 154.9,-68.68 54.4,-68.68"/>
<text xml:space="preserve" text-anchor="start" x="65.28" y="-203.38" font-family="Lato" font-size="14.00">Marco global</text>
</g>
<g id="clust4" class="cluster">
<title>cluster8</title>
<path fill="#f2f2f2" stroke="black" d="M192.4,-44.68C192.4,-44.68 534.02,-44.68 534.02,-44.68 540.02,-44.68 546.02,-50.68 546.02,-56.68 546.02,-56.68 546.02,-289.68 546.02,-289.68 546.02,-295.68 540.02,-301.68 534.02,-301.68 534.02,-301.68 192.4,-301.68 192.4,-301.68 186.4,-301.68 180.4,-295.68 180.4,-289.68 180.4,-289.68 180.4,-56.68 180.4,-56.68 180.4,-50.68 186.4,-44.68 192.4,-44.68"/>
<text xml:space="preserve" text-anchor="middle" x="363.21" y="-284.38" font-family="Lato" font-size="14.00">Montículo</text>
</g>
<g id="clust5" class="cluster">
<title>cluster0</title>
<path fill="white" stroke="black" d="M278.71,-91.68C278.71,-91.68 447.71,-91.68 447.71,-91.68 453.71,-91.68 459.71,-97.68 459.71,-103.68 459.71,-103.68 459.71,-227.68 459.71,-227.68 459.71,-233.68 453.71,-239.68 447.71,-239.68 447.71,-239.68 278.71,-239.68 278.71,-239.68 272.71,-239.68 266.71,-233.68 266.71,-227.68 266.71,-227.68 266.71,-103.68 266.71,-103.68 266.71,-97.68 272.71,-91.68 278.71,-91.68"/>
<text xml:space="preserve" text-anchor="start" x="274.71" y="-223.38" font-family="Lato" font-size="14.00">Marco de </text>
<text xml:space="preserve" text-anchor="start" x="336.21" y="-223.38" font-family="monospace" font-size="14.00">pareja(20, 14)</text>
</g>
<!-- indice -->
<g id="node1" class="node">
<title>indice</title>
<polygon fill="white" stroke="black" points="62.4,-237.43 62.4,-261.93 146.9,-261.93 146.9,-237.43 62.4,-237.43"/>
<text xml:space="preserve" text-anchor="middle" x="92.9" y="-245.58" font-family="monospace" font-size="13.00">indice</text>
<polyline fill="none" stroke="black" points="123.4,-237.43 123.4,-261.93"/>
<text xml:space="preserve" text-anchor="middle" x="135.15" y="-244.08" font-family="monospace" font-size="13.00">⬤</text>
</g>
<!-- get -->
<g id="node7" class="node">
<title>get</title>
<polygon fill="white" stroke="black" points="331.71,-181.43 331.71,-205.93 393.71,-205.93 393.71,-181.43 331.71,-181.43"/>
<text xml:space="preserve" text-anchor="middle" x="350.96" y="-189.58" font-family="monospace" font-size="13.00">get</text>
<polyline fill="none" stroke="black" points="370.21,-181.43 370.21,-205.93"/>
<text xml:space="preserve" text-anchor="middle" x="381.96" y="-188.08" font-family="monospace" font-size="13.00">⬤</text>
</g>
<!-- indice&#45;&gt;get -->
<g id="edge9" class="edge">
<title>indice:n&#45;&gt;get:n</title>
<path fill="none" stroke="black" d="M113.43,-295.68C151.91,-356.56 305.69,-325.07 350.44,-249.89"/>
<polygon fill="black" stroke="black" points="353.54,-251.52 355.02,-241.03 347.32,-248.31 353.54,-251.52"/>
</g>
<!-- 0 -->
<g id="node14" class="node">
<title>0</title>
<ellipse fill="white" stroke="black" cx="209.55" cy="-250.68" rx="18" ry="18"/>
<text xml:space="preserve" text-anchor="middle" x="209.55" y="-246.58" font-family="monospace" font-size="13.00">0</text>
</g>
<!-- indice&#45;&gt;0 -->
<g id="edge10" class="edge">
<title>indice:f1&#45;&gt;0</title>
<path fill="none" stroke="black" d="M147.9,-249.68C158.31,-249.68 169.72,-249.83 179.81,-250.02"/>
<polygon fill="black" stroke="black" points="179.72,-253.51 189.79,-250.22 179.86,-246.52 179.72,-253.51"/>
</g>
<!-- p -->
<g id="node2" class="node">
<title>p</title>
<polygon fill="white" stroke="black" points="86.65,-164.88 86.65,-186.48 122.65,-186.48 122.65,-164.88 86.65,-164.88"/>
<text xml:space="preserve" text-anchor="middle" x="95.9" y="-171.13" font-family="monospace" font-size="13.00">p</text>
<polyline fill="none" stroke="black" points="105.15,-163.98 105.15,-186.48"/>
<text xml:space="preserve" text-anchor="middle" x="113.9" y="-169.63" font-family="monospace" font-size="13.00">⬤</text>
</g>
<!-- f3 -->
<g id="node12" class="node">
<title>f3</title>
<ellipse fill="white" stroke="red" cx="209.55" cy="-193.68" rx="21.15" ry="21.15"/>
<text xml:space="preserve" text-anchor="middle" x="209.55" y="-189.58" font-family="monospace" font-size="13.00">λ3</text>
</g>
<!-- p&#45;&gt;f3 -->
<g id="edge2" class="edge">
<title>p:e&#45;&gt;f3</title>
<path fill="none" stroke="black" d="M123.65,-175.23C142.1,-175.23 162.3,-179.45 178.37,-183.84"/>
<polygon fill="black" stroke="black" points="177.22,-187.16 187.8,-186.6 179.18,-180.44 177.22,-187.16"/>
</g>
<!-- pareja -->
<g id="node3" class="node">
<title>pareja</title>
<polygon fill="white" stroke="black" points="62.4,-77.43 62.4,-101.93 146.9,-101.93 146.9,-77.43 62.4,-77.43"/>
<text xml:space="preserve" text-anchor="middle" x="92.9" y="-85.58" font-family="monospace" font-size="13.00">pareja</text>
<polyline fill="none" stroke="black" points="123.4,-77.43 123.4,-101.93"/>
<text xml:space="preserve" text-anchor="middle" x="135.15" y="-84.08" font-family="monospace" font-size="13.00">⬤</text>
</g>
<!-- f1 -->
<g id="node10" class="node">
<title>f1</title>
<ellipse fill="white" stroke="black" cx="209.55" cy="-73.68" rx="21.15" ry="21.15"/>
<text xml:space="preserve" text-anchor="middle" x="209.55" y="-69.58" font-family="monospace" font-size="13.00">λ1</text>
</g>
<!-- pareja&#45;&gt;f1 -->
<g id="edge3" class="edge">
<title>pareja:f1&#45;&gt;f1</title>
<path fill="none" stroke="black" d="M147.9,-89.68C158.15,-89.68 169.07,-87.52 178.77,-84.78"/>
<polygon fill="black" stroke="black" points="179.57,-88.2 188.05,-81.86 177.46,-81.53 179.57,-88.2"/>
</g>
<!-- select -->
<g id="node4" class="node">
<title>select</title>
<polygon fill="white" stroke="black" points="62.4,-121.43 62.4,-145.93 146.9,-145.93 146.9,-121.43 62.4,-121.43"/>
<text xml:space="preserve" text-anchor="middle" x="92.9" y="-129.58" font-family="monospace" font-size="13.00">select</text>
<polyline fill="none" stroke="black" points="123.4,-121.43 123.4,-145.93"/>
<text xml:space="preserve" text-anchor="middle" x="135.15" y="-128.08" font-family="monospace" font-size="13.00">⬤</text>
</g>
<!-- f2 -->
<g id="node11" class="node">
<title>f2</title>
<ellipse fill="white" stroke="black" cx="209.55" cy="-133.68" rx="21.15" ry="21.15"/>
<text xml:space="preserve" text-anchor="middle" x="209.55" y="-129.58" font-family="monospace" font-size="13.00">λ2</text>
</g>
<!-- select&#45;&gt;f2 -->
<g id="edge4" class="edge">
<title>select:f1&#45;&gt;f2</title>
<path fill="none" stroke="black" d="M147.9,-133.68C157.3,-133.68 167.53,-133.68 176.85,-133.68"/>
<polygon fill="black" stroke="black" points="176.55,-137.18 186.55,-133.68 176.55,-130.18 176.55,-137.18"/>
</g>
<!-- x -->
<g id="node5" class="node">
<title>x</title>
<polygon fill="white" stroke="black" points="344.71,-99.88 344.71,-121.48 380.71,-121.48 380.71,-99.88 344.71,-99.88"/>
<text xml:space="preserve" text-anchor="middle" x="353.96" y="-106.13" font-family="monospace" font-size="13.00">x</text>
<polyline fill="none" stroke="black" points="363.21,-98.98 363.21,-121.48"/>
<text xml:space="preserve" text-anchor="middle" x="371.96" y="-104.63" font-family="monospace" font-size="13.00">⬤</text>
</g>
<!-- x&#45;&gt;pareja -->
<g id="edge8" class="edge">
<title>x:s&#45;&gt;pareja:s</title>
<path fill="none" stroke="black" d="M362.37,-91.69C352.25,13.33 121.63,34.81 105.53,-65.11"/>
<polygon fill="black" stroke="black" points="101.78,-57.29 105.6,-67.17 108.77,-57.06 101.78,-57.29"/>
</g>
<!-- 20 -->
<g id="node9" class="node">
<title>20</title>
<ellipse fill="white" stroke="black" cx="516.86" cy="-91.68" rx="21.15" ry="21.15"/>
<text xml:space="preserve" text-anchor="middle" x="516.86" y="-87.58" font-family="monospace" font-size="13.00">20</text>
</g>
<!-- x&#45;&gt;20 -->
<g id="edge5" class="edge">
<title>x:f1&#45;&gt;20</title>
<path fill="none" stroke="black" d="M381.71,-110.23C417.35,-110.23 457.81,-103.73 484.9,-98.43"/>
<polygon fill="black" stroke="black" points="485.4,-101.9 494.5,-96.48 484,-95.04 485.4,-101.9"/>
</g>
<!-- y -->
<g id="node6" class="node">
<title>y</title>
<polygon fill="white" stroke="black" points="344.71,-140.88 344.71,-162.48 380.71,-162.48 380.71,-140.88 344.71,-140.88"/>
<text xml:space="preserve" text-anchor="middle" x="353.96" y="-147.13" font-family="monospace" font-size="13.00">y</text>
<polyline fill="none" stroke="black" points="363.21,-139.98 363.21,-162.48"/>
<text xml:space="preserve" text-anchor="middle" x="371.96" y="-145.63" font-family="monospace" font-size="13.00">⬤</text>
</g>
<!-- 14 -->
<g id="node8" class="node">
<title>14</title>
<ellipse fill="white" stroke="black" cx="516.86" cy="-151.68" rx="21.15" ry="21.15"/>
<text xml:space="preserve" text-anchor="middle" x="516.86" y="-147.58" font-family="monospace" font-size="13.00">14</text>
</g>
<!-- y&#45;&gt;14 -->
<g id="edge6" class="edge">
<title>y:f1&#45;&gt;14</title>
<path fill="none" stroke="black" d="M381.71,-151.23C416.81,-151.23 457.07,-151.39 484.26,-151.52"/>
<polygon fill="black" stroke="black" points="483.88,-155.02 493.9,-151.57 483.91,-148.02 483.88,-155.02"/>
</g>
<!-- f4 -->
<g id="node13" class="node">
<title>f4</title>
<ellipse fill="white" stroke="black" cx="516.86" cy="-211.68" rx="21.15" ry="21.15"/>
<text xml:space="preserve" text-anchor="middle" x="516.86" y="-207.58" font-family="monospace" font-size="13.00">λ3</text>
</g>
<!-- get&#45;&gt;f4 -->
<g id="edge7" class="edge">
<title>get:f1&#45;&gt;f4</title>
<path fill="none" stroke="black" d="M394.71,-193.68C425.59,-193.68 460.43,-199.48 484.79,-204.49"/>
<polygon fill="black" stroke="black" points="483.86,-207.87 494.37,-206.54 485.32,-201.03 483.86,-207.87"/>
</g>
<!-- f3&#45;&gt;get -->
<g id="edge1" class="edge">
<title>f3:e&#45;&gt;get:w</title>
<path fill="none" stroke="blue" d="M230.71,-193.68C240.26,-193.68 248.28,-193.68 255.41,-193.68"/>
<polygon fill="blue" stroke="blue" points="255.2,-197.18 265.2,-193.68 255.2,-190.18 255.2,-197.18"/>
</g>
<!-- E -->
<g id="node15" class="node">
<title>E</title>
<polygon fill="none" stroke="none" points="21.9,-267.68 0,-267.68 0,-231.68 21.9,-231.68 21.9,-267.68"/>
<text xml:space="preserve" text-anchor="middle" x="10.95" y="-245.58" font-family="monospace" font-size="13.00">E</text>
</g>
<!-- E&#45;&gt;indice -->
<g id="edge11" class="edge">
<title>E&#45;&gt;indice</title>
<path fill="none" stroke="black" d="M21.76,-249.68C26.31,-249.68 32.14,-249.68 38.59,-249.68"/>
<polygon fill="black" stroke="black" points="38.39,-253.18 48.39,-249.68 38.39,-246.18 38.39,-253.18"/>
</g>
</g>
</svg>
