<?xml version="1.0" encoding="UTF-8" standalone="no"?>
<!DOCTYPE svg PUBLIC "-//W3C//DTD SVG 1.1//EN"
 "http://www.w3.org/Graphics/SVG/1.1/DTD/svg11.dtd">
<!-- Generated by graphviz version 2.42.4 (0)
 -->
<!-- Pages: 1 -->
<svg width="551pt" height="361pt"
 viewBox="0.00 0.00 550.85 361.00" xmlns="http://www.w3.org/2000/svg" xmlns:xlink="http://www.w3.org/1999/xlink">
<g id="graph0" class="graph" transform="scale(1 1) rotate(0) translate(4 357)">
<g id="clust1" class="cluster">
<title>cluster9</title>
<polygon fill="#f2f2f2" stroke="black" points="42,-63 42,-288 160,-288 160,-63 42,-63"/>
<text text-anchor="middle" x="101" y="-272.8" font-family="Lato" font-size="14.00">Pila de control</text>
</g>
<g id="clust2" class="cluster">
<title>cluster2</title>
<polygon fill="white" stroke="black" points="50,-71 50,-257 152,-257 152,-71 50,-71"/>
<text text-anchor="start" x="61.5" y="-241.8" font-family="Lato" font-size="14.00">Marco global</text>
</g>
<g id="clust3" class="cluster">
<title>cluster8</title>
<path fill="#f2f2f2" stroke="black" d="M184,-8C184,-8 522.85,-8 522.85,-8 528.85,-8 534.85,-14 534.85,-20 534.85,-20 534.85,-333 534.85,-333 534.85,-339 528.85,-345 522.85,-345 522.85,-345 184,-345 184,-345 178,-345 172,-339 172,-333 172,-333 172,-20 172,-20 172,-14 178,-8 184,-8"/>
<text text-anchor="middle" x="353.43" y="-329.8" font-family="Lato" font-size="14.00">Montículo</text>
</g>
<g id="clust4" class="cluster">
<title>cluster0</title>
<path fill="white" stroke="black" d="M268.43,-169C268.43,-169 438.43,-169 438.43,-169 444.43,-169 450.43,-175 450.43,-181 450.43,-181 450.43,-302 450.43,-302 450.43,-308 444.43,-314 438.43,-314 438.43,-314 268.43,-314 268.43,-314 262.43,-314 256.43,-308 256.43,-302 256.43,-302 256.43,-181 256.43,-181 256.43,-175 262.43,-169 268.43,-169"/>
<text text-anchor="start" x="264.43" y="-299.8" font-family="Lato" font-size="14.00">Marco de </text>
<text text-anchor="start" x="326.43" y="-299.8" font-family="monospace" font-size="14.00">pareja(20, 14)</text>
</g>
<g id="clust5" class="cluster">
<title>cluster1</title>
<path fill="white" stroke="black" d="M276.43,-16C276.43,-16 430.43,-16 430.43,-16 436.43,-16 442.43,-22 442.43,-28 442.43,-28 442.43,-149 442.43,-149 442.43,-155 436.43,-161 430.43,-161 430.43,-161 276.43,-161 276.43,-161 270.43,-161 264.43,-155 264.43,-149 264.43,-149 264.43,-28 264.43,-28 264.43,-22 270.43,-16 276.43,-16"/>
<text text-anchor="start" x="272.43" y="-146.8" font-family="Lato" font-size="14.00">Marco de </text>
<text text-anchor="start" x="334.43" y="-146.8" font-family="monospace" font-size="14.00">pareja(5, 6)</text>
</g>
<!-- p -->
<g id="node1" class="node">
<title>p</title>
<polygon fill="white" stroke="black" points="83,-203 83,-225 119,-225 119,-203 83,-203"/>
<text text-anchor="middle" x="92" y="-210.6" font-family="monospace" font-size="13.00">p</text>
<polyline fill="none" stroke="black" points="101,-203 101,-225 "/>
<text text-anchor="middle" x="110" y="-210.6" font-family="monospace" font-size="13.00">⬤</text>
</g>
<!-- x -->
<g id="node5" class="node">
<title>x</title>
<polygon fill="white" stroke="black" points="334.93,-260 334.93,-282 370.93,-282 370.93,-260 334.93,-260"/>
<text text-anchor="middle" x="343.93" y="-267.6" font-family="monospace" font-size="13.00">x</text>
<polyline fill="none" stroke="black" points="352.93,-260 352.93,-282 "/>
<text text-anchor="middle" x="361.93" y="-267.6" font-family="monospace" font-size="13.00">⬤</text>
</g>
<!-- p&#45;&gt;x -->
<g id="edge14" class="edge">
<title>p:n&#45;&gt;x:w</title>
<path fill="none" stroke="black" d="M101.56,-266.15C124.99,-302.6 188.35,-288.73 256.43,-278.36"/>
<polygon fill="black" stroke="black" points="104.57,-264.35 96.94,-257 98.32,-267.5 104.57,-264.35"/>
</g>
<!-- f3 -->
<g id="node17" class="node">
<title>f3</title>
<ellipse fill="white" stroke="red" cx="200.21" cy="-240" rx="20.43" ry="20.43"/>
<text text-anchor="middle" x="200.21" y="-236.6" font-family="monospace" font-size="13.00">λ3</text>
</g>
<!-- p&#45;&gt;f3 -->
<g id="edge3" class="edge">
<title>p:e&#45;&gt;f3</title>
<path fill="none" stroke="black" d="M120,-214C138.29,-214 157.81,-220.33 172.91,-226.75"/>
<polygon fill="black" stroke="black" points="171.57,-229.98 182.12,-230.91 174.45,-223.6 171.57,-229.98"/>
</g>
<!-- q -->
<g id="node2" class="node">
<title>q</title>
<polygon fill="white" stroke="black" points="83,-80 83,-102 119,-102 119,-80 83,-80"/>
<text text-anchor="middle" x="92" y="-87.6" font-family="monospace" font-size="13.00">q</text>
<polyline fill="none" stroke="black" points="101,-80 101,-102 "/>
<text text-anchor="middle" x="110" y="-87.6" font-family="monospace" font-size="13.00">⬤</text>
</g>
<!-- y1 -->
<g id="node9" class="node">
<title>y1</title>
<polygon fill="white" stroke="black" points="334.93,-25 334.93,-47 370.93,-47 370.93,-25 334.93,-25"/>
<text text-anchor="middle" x="343.93" y="-32.6" font-family="monospace" font-size="13.00">y</text>
<polyline fill="none" stroke="black" points="352.93,-25 352.93,-47 "/>
<text text-anchor="middle" x="361.93" y="-32.6" font-family="monospace" font-size="13.00">⬤</text>
</g>
<!-- q&#45;&gt;y1 -->
<g id="edge15" class="edge">
<title>q:s&#45;&gt;y1:w</title>
<path fill="none" stroke="black" d="M92.41,-68.98C98.79,5.68 179.05,-16.65 264.43,-29.63"/>
<polygon fill="black" stroke="black" points="90.55,-60.5 92,-71 97.41,-61.89 90.55,-60.5"/>
</g>
<!-- f3p -->
<g id="node18" class="node">
<title>f3p</title>
<ellipse fill="white" stroke="red" cx="200.21" cy="-66" rx="20.43" ry="20.43"/>
<text text-anchor="middle" x="200.21" y="-62.6" font-family="monospace" font-size="13.00">λ3</text>
</g>
<!-- q&#45;&gt;f3p -->
<g id="edge4" class="edge">
<title>q:e&#45;&gt;f3p</title>
<path fill="none" stroke="black" d="M120,-91C138.1,-91 157.49,-84.99 172.56,-78.87"/>
<polygon fill="black" stroke="black" points="173.98,-82.06 181.78,-74.88 171.21,-75.64 173.98,-82.06"/>
</g>
<!-- pareja -->
<g id="node3" class="node">
<title>pareja</title>
<polygon fill="white" stroke="black" points="58,-162 58,-184 144,-184 144,-162 58,-162"/>
<text text-anchor="middle" x="89" y="-169.6" font-family="monospace" font-size="13.00">pareja</text>
<polyline fill="none" stroke="black" points="120,-162 120,-184 "/>
<text text-anchor="middle" x="132" y="-169.6" font-family="monospace" font-size="13.00">⬤</text>
</g>
<!-- f1 -->
<g id="node15" class="node">
<title>f1</title>
<ellipse fill="white" stroke="black" cx="200.21" cy="-182" rx="20.43" ry="20.43"/>
<text text-anchor="middle" x="200.21" y="-178.6" font-family="monospace" font-size="13.00">λ1</text>
</g>
<!-- pareja&#45;&gt;f1 -->
<g id="edge5" class="edge">
<title>pareja:f1&#45;&gt;f1</title>
<path fill="none" stroke="black" d="M145,-173C153.32,-173 162.26,-174.04 170.43,-175.42"/>
<polygon fill="black" stroke="black" points="169.8,-178.86 180.27,-177.29 171.1,-171.98 169.8,-178.86"/>
</g>
<!-- select -->
<g id="node4" class="node">
<title>select</title>
<polygon fill="white" stroke="black" points="58,-121 58,-143 144,-143 144,-121 58,-121"/>
<text text-anchor="middle" x="89" y="-128.6" font-family="monospace" font-size="13.00">select</text>
<polyline fill="none" stroke="black" points="120,-121 120,-143 "/>
<text text-anchor="middle" x="132" y="-128.6" font-family="monospace" font-size="13.00">⬤</text>
</g>
<!-- f2 -->
<g id="node16" class="node">
<title>f2</title>
<ellipse fill="white" stroke="black" cx="200.21" cy="-124" rx="20.43" ry="20.43"/>
<text text-anchor="middle" x="200.21" y="-120.6" font-family="monospace" font-size="13.00">λ2</text>
</g>
<!-- select&#45;&gt;f2 -->
<g id="edge6" class="edge">
<title>select:f1&#45;&gt;f2</title>
<path fill="none" stroke="black" d="M145,-132C153.2,-132 162.03,-131.09 170.13,-129.89"/>
<polygon fill="black" stroke="black" points="170.97,-133.3 180.25,-128.19 169.8,-126.39 170.97,-133.3"/>
</g>
<!-- 20 -->
<g id="node12" class="node">
<title>20</title>
<ellipse fill="white" stroke="black" cx="506.64" cy="-279" rx="20.43" ry="20.43"/>
<text text-anchor="middle" x="506.64" y="-275.6" font-family="monospace" font-size="13.00">20</text>
</g>
<!-- x&#45;&gt;20 -->
<g id="edge7" class="edge">
<title>x:f1&#45;&gt;20</title>
<path fill="none" stroke="black" d="M371.93,-271C407.86,-271 449.12,-273.91 476.19,-276.22"/>
<polygon fill="black" stroke="black" points="475.91,-279.71 486.18,-277.1 476.52,-272.74 475.91,-279.71"/>
</g>
<!-- y -->
<g id="node6" class="node">
<title>y</title>
<polygon fill="white" stroke="black" points="334.93,-219 334.93,-241 370.93,-241 370.93,-219 334.93,-219"/>
<text text-anchor="middle" x="343.93" y="-226.6" font-family="monospace" font-size="13.00">y</text>
<polyline fill="none" stroke="black" points="352.93,-219 352.93,-241 "/>
<text text-anchor="middle" x="361.93" y="-226.6" font-family="monospace" font-size="13.00">⬤</text>
</g>
<!-- 14 -->
<g id="node11" class="node">
<title>14</title>
<ellipse fill="white" stroke="black" cx="506.64" cy="-221" rx="20.43" ry="20.43"/>
<text text-anchor="middle" x="506.64" y="-217.6" font-family="monospace" font-size="13.00">14</text>
</g>
<!-- y&#45;&gt;14 -->
<g id="edge8" class="edge">
<title>y:f1&#45;&gt;14</title>
<path fill="none" stroke="black" d="M371.93,-230C407.87,-230 449.13,-226.72 476.2,-224.12"/>
<polygon fill="black" stroke="black" points="476.58,-227.6 486.18,-223.13 475.88,-220.64 476.58,-227.6"/>
</g>
<!-- get -->
<g id="node7" class="node">
<title>get</title>
<polygon fill="white" stroke="black" points="321.43,-178 321.43,-200 384.43,-200 384.43,-178 321.43,-178"/>
<text text-anchor="middle" x="340.93" y="-185.6" font-family="monospace" font-size="13.00">get</text>
<polyline fill="none" stroke="black" points="360.43,-178 360.43,-200 "/>
<text text-anchor="middle" x="372.43" y="-185.6" font-family="monospace" font-size="13.00">⬤</text>
</g>
<!-- f4 -->
<g id="node19" class="node">
<title>f4</title>
<ellipse fill="white" stroke="black" cx="506.64" cy="-158" rx="20.43" ry="20.43"/>
<text text-anchor="middle" x="506.64" y="-154.6" font-family="monospace" font-size="13.00">λ3</text>
</g>
<!-- get&#45;&gt;f4 -->
<g id="edge11" class="edge">
<title>get:f1&#45;&gt;f4</title>
<path fill="none" stroke="black" d="M385.93,-189C418.43,-189 454.35,-178.16 478.28,-169.3"/>
<polygon fill="black" stroke="black" points="479.68,-172.51 487.76,-165.66 477.17,-165.98 479.68,-172.51"/>
</g>
<!-- x1 -->
<g id="node8" class="node">
<title>x1</title>
<polygon fill="white" stroke="black" points="334.93,-66 334.93,-88 370.93,-88 370.93,-66 334.93,-66"/>
<text text-anchor="middle" x="343.93" y="-73.6" font-family="monospace" font-size="13.00">x</text>
<polyline fill="none" stroke="black" points="352.93,-66 352.93,-88 "/>
<text text-anchor="middle" x="361.93" y="-73.6" font-family="monospace" font-size="13.00">⬤</text>
</g>
<!-- 5 -->
<g id="node13" class="node">
<title>5</title>
<ellipse fill="white" stroke="black" cx="506.64" cy="-89" rx="18" ry="18"/>
<text text-anchor="middle" x="506.64" y="-85.6" font-family="monospace" font-size="13.00">5</text>
</g>
<!-- x1&#45;&gt;5 -->
<g id="edge9" class="edge">
<title>x1:f1&#45;&gt;5</title>
<path fill="none" stroke="black" d="M371.93,-77C409.01,-77 451.64,-81.63 478.6,-85.14"/>
<polygon fill="black" stroke="black" points="478.42,-88.65 488.8,-86.51 479.35,-81.71 478.42,-88.65"/>
</g>
<!-- 6 -->
<g id="node14" class="node">
<title>6</title>
<ellipse fill="white" stroke="black" cx="506.64" cy="-35" rx="18" ry="18"/>
<text text-anchor="middle" x="506.64" y="-31.6" font-family="monospace" font-size="13.00">6</text>
</g>
<!-- y1&#45;&gt;6 -->
<g id="edge10" class="edge">
<title>y1:f1&#45;&gt;6</title>
<path fill="none" stroke="black" d="M371.93,-36C408.65,-36 451.05,-35.62 478.09,-35.33"/>
<polygon fill="black" stroke="black" points="478.37,-38.82 488.33,-35.21 478.29,-31.82 478.37,-38.82"/>
</g>
<!-- get1 -->
<g id="node10" class="node">
<title>get1</title>
<polygon fill="white" stroke="black" points="321.43,-107 321.43,-129 384.43,-129 384.43,-107 321.43,-107"/>
<text text-anchor="middle" x="340.93" y="-114.6" font-family="monospace" font-size="13.00">get</text>
<polyline fill="none" stroke="black" points="360.43,-107 360.43,-129 "/>
<text text-anchor="middle" x="372.43" y="-114.6" font-family="monospace" font-size="13.00">⬤</text>
</g>
<!-- get1&#45;&gt;f4 -->
<g id="edge12" class="edge">
<title>get1:f1&#45;&gt;f4</title>
<path fill="none" stroke="black" d="M385.93,-118C419.63,-118 456.05,-132.44 479.75,-143.97"/>
<polygon fill="black" stroke="black" points="478.28,-147.14 488.79,-148.52 481.43,-140.89 478.28,-147.14"/>
</g>
<!-- f3&#45;&gt;get -->
<g id="edge1" class="edge">
<title>f3:e&#45;&gt;get:w</title>
<path fill="none" stroke="blue" d="M220.43,-240C237.51,-240 238.54,-226.62 248.41,-216.23"/>
<polygon fill="blue" stroke="blue" points="250.68,-218.9 256.43,-210 246.38,-213.37 250.68,-218.9"/>
</g>
<!-- f3p&#45;&gt;get1 -->
<g id="edge2" class="edge">
<title>f3p:e&#45;&gt;get1:w</title>
<path fill="none" stroke="blue" d="M220.43,-66C238.9,-66 238.54,-81.77 255.83,-95.74"/>
<polygon fill="blue" stroke="blue" points="254.19,-98.86 264.43,-101.57 258.12,-93.06 254.19,-98.86"/>
</g>
<!-- E -->
<g id="node20" class="node">
<title>E</title>
<polygon fill="transparent" stroke="transparent" points="22,-232 0,-232 0,-196 22,-196 22,-232"/>
<text text-anchor="middle" x="11" y="-210.6" font-family="monospace" font-size="13.00">E</text>
</g>
<!-- E&#45;&gt;p -->
<g id="edge13" class="edge">
<title>E&#45;&gt;p</title>
<path fill="none" stroke="black" d="M22.09,-214C26.89,-214 33.04,-214 39.79,-214"/>
<polygon fill="black" stroke="black" points="40,-217.5 50,-214 40,-210.5 40,-217.5"/>
</g>
</g>
</svg>
