<?xml version="1.0" encoding="UTF-8" standalone="no"?>
<!DOCTYPE svg PUBLIC "-//W3C//DTD SVG 1.1//EN"
 "http://www.w3.org/Graphics/SVG/1.1/DTD/svg11.dtd">
<!-- Generated by graphviz version 14.1.1 (0)
 -->
<!-- Pages: 1 -->
<svg width="552pt" height="370pt"
 viewBox="0.00 0.00 552.00 370.00" xmlns="http://www.w3.org/2000/svg" xmlns:xlink="http://www.w3.org/1999/xlink">
<g id="graph0" class="graph" transform="scale(1 1) rotate(0) translate(4 366)">
<g id="clust1" class="cluster">
<title>cluster9</title>
<polygon fill="#f2f2f2" stroke="black" points="41.9,-81 41.9,-314 158.4,-314 158.4,-81 41.9,-81"/>
<text xml:space="preserve" text-anchor="middle" x="100.15" y="-296.7" font-family="Lato" font-size="14.00">Pila de control</text>
</g>
<g id="clust2" class="cluster">
<title>cluster2</title>
<polygon fill="white" stroke="black" points="49.9,-89 49.9,-281 150.4,-281 150.4,-89 49.9,-89"/>
<text xml:space="preserve" text-anchor="start" x="60.78" y="-263.7" font-family="Lato" font-size="14.00">Marco global</text>
</g>
<g id="clust3" class="cluster">
<title>cluster8</title>
<path fill="#f2f2f2" stroke="black" d="M182.4,-8C182.4,-8 524.02,-8 524.02,-8 530.02,-8 536.02,-14 536.02,-20 536.02,-20 536.02,-342 536.02,-342 536.02,-348 530.02,-354 524.02,-354 524.02,-354 182.4,-354 182.4,-354 176.4,-354 170.4,-348 170.4,-342 170.4,-342 170.4,-20 170.4,-20 170.4,-14 176.4,-8 182.4,-8"/>
<text xml:space="preserve" text-anchor="middle" x="353.21" y="-336.7" font-family="Lato" font-size="14.00">Montículo</text>
</g>
<g id="clust4" class="cluster">
<title>cluster0</title>
<path fill="white" stroke="black" d="M268.71,-172C268.71,-172 437.71,-172 437.71,-172 443.71,-172 449.71,-178 449.71,-184 449.71,-184 449.71,-309 449.71,-309 449.71,-315 443.71,-321 437.71,-321 437.71,-321 268.71,-321 268.71,-321 262.71,-321 256.71,-315 256.71,-309 256.71,-309 256.71,-184 256.71,-184 256.71,-178 262.71,-172 268.71,-172"/>
<text xml:space="preserve" text-anchor="start" x="264.71" y="-304.7" font-family="Lato" font-size="14.00">Marco de </text>
<text xml:space="preserve" text-anchor="start" x="326.21" y="-304.7" font-family="monospace" font-size="14.00">pareja(20, 14)</text>
</g>
<g id="clust5" class="cluster">
<title>cluster1</title>
<path fill="white" stroke="black" d="M276.96,-16C276.96,-16 429.46,-16 429.46,-16 435.46,-16 441.46,-22 441.46,-28 441.46,-28 441.46,-152 441.46,-152 441.46,-158 435.46,-164 429.46,-164 429.46,-164 276.96,-164 276.96,-164 270.96,-164 264.96,-158 264.96,-152 264.96,-152 264.96,-28 264.96,-28 264.96,-22 270.96,-16 276.96,-16"/>
<text xml:space="preserve" text-anchor="start" x="272.96" y="-147.7" font-family="Lato" font-size="14.00">Marco de </text>
<text xml:space="preserve" text-anchor="start" x="334.46" y="-147.7" font-family="monospace" font-size="14.00">pareja(5, 6)</text>
</g>
<!-- p -->
<g id="node1" class="node">
<title>p</title>
<polygon fill="white" stroke="black" points="82.15,-225.2 82.15,-246.8 118.15,-246.8 118.15,-225.2 82.15,-225.2"/>
<text xml:space="preserve" text-anchor="middle" x="91.4" y="-231.45" font-family="monospace" font-size="13.00">p</text>
<polyline fill="none" stroke="black" points="100.65,-224.3 100.65,-246.8"/>
<text xml:space="preserve" text-anchor="middle" x="109.4" y="-229.95" font-family="monospace" font-size="13.00">⬤</text>
</g>
<!-- x -->
<g id="node5" class="node">
<title>x</title>
<polygon fill="white" stroke="black" points="334.71,-265.2 334.71,-286.8 370.71,-286.8 370.71,-265.2 334.71,-265.2"/>
<text xml:space="preserve" text-anchor="middle" x="343.96" y="-271.45" font-family="monospace" font-size="13.00">x</text>
<polyline fill="none" stroke="black" points="353.21,-264.3 353.21,-286.8"/>
<text xml:space="preserve" text-anchor="middle" x="361.96" y="-269.95" font-family="monospace" font-size="13.00">⬤</text>
</g>
<!-- p&#45;&gt;x -->
<g id="edge14" class="edge">
<title>p:n&#45;&gt;x:w</title>
<path fill="none" stroke="black" d="M120.56,-285.25C134.72,-289.78 152.5,-291.88 170.4,-297 208.52,-307.9 231.77,-300.7 256.71,-291.81"/>
<polygon fill="black" stroke="black" points="122.05,-282.08 111.46,-281.56 119.42,-288.57 122.05,-282.08"/>
</g>
<!-- f3 -->
<g id="node17" class="node">
<title>f3</title>
<ellipse fill="white" stroke="red" cx="199.55" cy="-262" rx="21.15" ry="21.15"/>
<text xml:space="preserve" text-anchor="middle" x="199.55" y="-257.9" font-family="monospace" font-size="13.00">λ3</text>
</g>
<!-- p&#45;&gt;f3 -->
<g id="edge3" class="edge">
<title>p:e&#45;&gt;f3</title>
<path fill="none" stroke="black" d="M119.15,-235.55C136.63,-235.55 155.22,-241.39 170.02,-247.59"/>
<polygon fill="black" stroke="black" points="168.57,-250.78 179.13,-251.68 171.44,-244.39 168.57,-250.78"/>
</g>
<!-- q -->
<g id="node2" class="node">
<title>q</title>
<polygon fill="white" stroke="black" points="82.15,-97.2 82.15,-118.8 118.15,-118.8 118.15,-97.2 82.15,-97.2"/>
<text xml:space="preserve" text-anchor="middle" x="91.4" y="-103.45" font-family="monospace" font-size="13.00">q</text>
<polyline fill="none" stroke="black" points="100.65,-96.3 100.65,-118.8"/>
<text xml:space="preserve" text-anchor="middle" x="109.4" y="-101.95" font-family="monospace" font-size="13.00">⬤</text>
</g>
<!-- y1 -->
<g id="node9" class="node">
<title>y1</title>
<polygon fill="white" stroke="black" points="334.71,-65.2 334.71,-86.8 370.71,-86.8 370.71,-65.2 334.71,-65.2"/>
<text xml:space="preserve" text-anchor="middle" x="343.96" y="-71.45" font-family="monospace" font-size="13.00">y</text>
<polyline fill="none" stroke="black" points="353.21,-64.3 353.21,-86.8"/>
<text xml:space="preserve" text-anchor="middle" x="361.96" y="-69.95" font-family="monospace" font-size="13.00">⬤</text>
</g>
<!-- q&#45;&gt;y1 -->
<g id="edge15" class="edge">
<title>q:s&#45;&gt;y1:w</title>
<path fill="none" stroke="black" d="M92.58,-84.1C99.4,-54.8 134.81,-57.02 170.4,-47 213.03,-35 236.79,-47.74 264.96,-59.81"/>
<polygon fill="black" stroke="black" points="89.32,-77.37 92.45,-87.49 96.31,-77.62 89.32,-77.37"/>
</g>
<!-- f3p -->
<g id="node18" class="node">
<title>f3p</title>
<ellipse fill="white" stroke="red" cx="199.55" cy="-82" rx="21.15" ry="21.15"/>
<text xml:space="preserve" text-anchor="middle" x="199.55" y="-77.9" font-family="monospace" font-size="13.00">λ3</text>
</g>
<!-- q&#45;&gt;f3p -->
<g id="edge4" class="edge">
<title>q:e&#45;&gt;f3p</title>
<path fill="none" stroke="black" d="M119.15,-107.55C136.46,-107.55 154.92,-101.98 169.68,-96.04"/>
<polygon fill="black" stroke="black" points="170.98,-99.29 178.77,-92.11 168.2,-92.86 170.98,-99.29"/>
</g>
<!-- pareja -->
<g id="node3" class="node">
<title>pareja</title>
<polygon fill="white" stroke="black" points="57.9,-181.75 57.9,-206.25 142.4,-206.25 142.4,-181.75 57.9,-181.75"/>
<text xml:space="preserve" text-anchor="middle" x="88.4" y="-189.9" font-family="monospace" font-size="13.00">pareja</text>
<polyline fill="none" stroke="black" points="118.9,-181.75 118.9,-206.25"/>
<text xml:space="preserve" text-anchor="middle" x="130.65" y="-188.4" font-family="monospace" font-size="13.00">⬤</text>
</g>
<!-- f1 -->
<g id="node15" class="node">
<title>f1</title>
<ellipse fill="white" stroke="black" cx="199.55" cy="-202" rx="21.15" ry="21.15"/>
<text xml:space="preserve" text-anchor="middle" x="199.55" y="-197.9" font-family="monospace" font-size="13.00">λ1</text>
</g>
<!-- pareja&#45;&gt;f1 -->
<g id="edge5" class="edge">
<title>pareja:f1&#45;&gt;f1</title>
<path fill="none" stroke="black" d="M143.4,-194C151.17,-194 159.5,-194.79 167.27,-195.87"/>
<polygon fill="black" stroke="black" points="166.56,-199.3 176.99,-197.43 167.67,-192.39 166.56,-199.3"/>
</g>
<!-- select -->
<g id="node4" class="node">
<title>select</title>
<polygon fill="white" stroke="black" points="57.9,-137.75 57.9,-162.25 142.4,-162.25 142.4,-137.75 57.9,-137.75"/>
<text xml:space="preserve" text-anchor="middle" x="88.4" y="-145.9" font-family="monospace" font-size="13.00">select</text>
<polyline fill="none" stroke="black" points="118.9,-137.75 118.9,-162.25"/>
<text xml:space="preserve" text-anchor="middle" x="130.65" y="-144.4" font-family="monospace" font-size="13.00">⬤</text>
</g>
<!-- f2 -->
<g id="node16" class="node">
<title>f2</title>
<ellipse fill="white" stroke="black" cx="199.55" cy="-142" rx="21.15" ry="21.15"/>
<text xml:space="preserve" text-anchor="middle" x="199.55" y="-137.9" font-family="monospace" font-size="13.00">λ2</text>
</g>
<!-- select&#45;&gt;f2 -->
<g id="edge6" class="edge">
<title>select:f1&#45;&gt;f2</title>
<path fill="none" stroke="black" d="M143.4,-150C151.17,-150 159.5,-149.21 167.27,-148.13"/>
<polygon fill="black" stroke="black" points="167.67,-151.61 176.99,-146.57 166.56,-144.7 167.67,-151.61"/>
</g>
<!-- 20 -->
<g id="node12" class="node">
<title>20</title>
<ellipse fill="white" stroke="black" cx="506.86" cy="-285" rx="21.15" ry="21.15"/>
<text xml:space="preserve" text-anchor="middle" x="506.86" y="-280.9" font-family="monospace" font-size="13.00">20</text>
</g>
<!-- x&#45;&gt;20 -->
<g id="edge7" class="edge">
<title>x:f1&#45;&gt;20</title>
<path fill="none" stroke="black" d="M371.71,-275.55C406.9,-275.55 447.14,-278.82 474.3,-281.52"/>
<polygon fill="black" stroke="black" points="473.63,-284.97 483.93,-282.51 474.35,-278 473.63,-284.97"/>
</g>
<!-- y -->
<g id="node6" class="node">
<title>y</title>
<polygon fill="white" stroke="black" points="334.71,-224.2 334.71,-245.8 370.71,-245.8 370.71,-224.2 334.71,-224.2"/>
<text xml:space="preserve" text-anchor="middle" x="343.96" y="-230.45" font-family="monospace" font-size="13.00">y</text>
<polyline fill="none" stroke="black" points="353.21,-223.3 353.21,-245.8"/>
<text xml:space="preserve" text-anchor="middle" x="361.96" y="-228.95" font-family="monospace" font-size="13.00">⬤</text>
</g>
<!-- 14 -->
<g id="node11" class="node">
<title>14</title>
<ellipse fill="white" stroke="black" cx="506.86" cy="-225" rx="21.15" ry="21.15"/>
<text xml:space="preserve" text-anchor="middle" x="506.86" y="-220.9" font-family="monospace" font-size="13.00">14</text>
</g>
<!-- y&#45;&gt;14 -->
<g id="edge8" class="edge">
<title>y:f1&#45;&gt;14</title>
<path fill="none" stroke="black" d="M371.71,-234.55C406.9,-234.55 447.15,-231.24 474.3,-228.52"/>
<polygon fill="black" stroke="black" points="474.35,-232.03 483.94,-227.52 473.63,-225.07 474.35,-232.03"/>
</g>
<!-- get -->
<g id="node7" class="node">
<title>get</title>
<polygon fill="white" stroke="black" points="321.71,-180.75 321.71,-205.25 383.71,-205.25 383.71,-180.75 321.71,-180.75"/>
<text xml:space="preserve" text-anchor="middle" x="340.96" y="-188.9" font-family="monospace" font-size="13.00">get</text>
<polyline fill="none" stroke="black" points="360.21,-180.75 360.21,-205.25"/>
<text xml:space="preserve" text-anchor="middle" x="371.96" y="-187.4" font-family="monospace" font-size="13.00">⬤</text>
</g>
<!-- f4 -->
<g id="node19" class="node">
<title>f4</title>
<ellipse fill="white" stroke="black" cx="506.86" cy="-160" rx="21.15" ry="21.15"/>
<text xml:space="preserve" text-anchor="middle" x="506.86" y="-155.9" font-family="monospace" font-size="13.00">λ3</text>
</g>
<!-- get&#45;&gt;f4 -->
<g id="edge11" class="edge">
<title>get:f1&#45;&gt;f4</title>
<path fill="none" stroke="black" d="M384.71,-193C416.89,-193 452.24,-182.03 476.41,-172.74"/>
<polygon fill="black" stroke="black" points="477.61,-176.03 485.59,-169.06 475,-169.53 477.61,-176.03"/>
</g>
<!-- x1 -->
<g id="node8" class="node">
<title>x1</title>
<polygon fill="white" stroke="black" points="334.71,-24.2 334.71,-45.8 370.71,-45.8 370.71,-24.2 334.71,-24.2"/>
<text xml:space="preserve" text-anchor="middle" x="343.96" y="-30.45" font-family="monospace" font-size="13.00">x</text>
<polyline fill="none" stroke="black" points="353.21,-23.3 353.21,-45.8"/>
<text xml:space="preserve" text-anchor="middle" x="361.96" y="-28.95" font-family="monospace" font-size="13.00">⬤</text>
</g>
<!-- 5 -->
<g id="node13" class="node">
<title>5</title>
<ellipse fill="white" stroke="black" cx="506.86" cy="-35" rx="18" ry="18"/>
<text xml:space="preserve" text-anchor="middle" x="506.86" y="-30.9" font-family="monospace" font-size="13.00">5</text>
</g>
<!-- x1&#45;&gt;5 -->
<g id="edge9" class="edge">
<title>x1:f1&#45;&gt;5</title>
<path fill="none" stroke="black" d="M371.71,-34.55C408.07,-34.55 449.96,-34.72 477.13,-34.85"/>
<polygon fill="black" stroke="black" points="476.97,-38.35 486.98,-34.9 477,-31.35 476.97,-38.35"/>
</g>
<!-- 6 -->
<g id="node14" class="node">
<title>6</title>
<ellipse fill="white" stroke="black" cx="506.86" cy="-89" rx="18" ry="18"/>
<text xml:space="preserve" text-anchor="middle" x="506.86" y="-84.9" font-family="monospace" font-size="13.00">6</text>
</g>
<!-- y1&#45;&gt;6 -->
<g id="edge10" class="edge">
<title>y1:f1&#45;&gt;6</title>
<path fill="none" stroke="black" d="M371.71,-75.55C408.45,-75.55 450.57,-80.61 477.66,-84.52"/>
<polygon fill="black" stroke="black" points="477.07,-87.97 487.48,-85.99 478.11,-81.05 477.07,-87.97"/>
</g>
<!-- get1 -->
<g id="node10" class="node">
<title>get1</title>
<polygon fill="white" stroke="black" points="321.71,-105.75 321.71,-130.25 383.71,-130.25 383.71,-105.75 321.71,-105.75"/>
<text xml:space="preserve" text-anchor="middle" x="340.96" y="-113.9" font-family="monospace" font-size="13.00">get</text>
<polyline fill="none" stroke="black" points="360.21,-105.75 360.21,-130.25"/>
<text xml:space="preserve" text-anchor="middle" x="371.96" y="-112.4" font-family="monospace" font-size="13.00">⬤</text>
</g>
<!-- get1&#45;&gt;f4 -->
<g id="edge12" class="edge">
<title>get1:f1&#45;&gt;f4</title>
<path fill="none" stroke="black" d="M384.71,-118C418.11,-118 453.97,-132.42 477.94,-144.37"/>
<polygon fill="black" stroke="black" points="476.23,-147.42 486.72,-148.92 479.45,-141.21 476.23,-147.42"/>
</g>
<!-- f3&#45;&gt;get -->
<g id="edge1" class="edge">
<title>f3:e&#45;&gt;get:w</title>
<path fill="none" stroke="blue" d="M220.71,-262C242.91,-262 238.08,-239.49 248.85,-223.22"/>
<polygon fill="blue" stroke="blue" points="251.28,-225.74 255.66,-216.09 246.22,-220.9 251.28,-225.74"/>
</g>
<!-- f3p&#45;&gt;get1 -->
<g id="edge2" class="edge">
<title>f3p:e&#45;&gt;get1:w</title>
<path fill="none" stroke="blue" d="M220.71,-82C235.06,-82 239.31,-87.66 254.55,-94.89"/>
<polygon fill="blue" stroke="blue" points="252.99,-98.03 263.57,-98.72 255.73,-91.59 252.99,-98.03"/>
</g>
<!-- E -->
<g id="node20" class="node">
<title>E</title>
<polygon fill="none" stroke="none" points="21.9,-254 0,-254 0,-218 21.9,-218 21.9,-254"/>
<text xml:space="preserve" text-anchor="middle" x="10.95" y="-231.9" font-family="monospace" font-size="13.00">E</text>
</g>
<!-- E&#45;&gt;p -->
<g id="edge13" class="edge">
<title>E&#45;&gt;p</title>
<path fill="none" stroke="black" d="M21.62,-236C26.19,-236 32.08,-236 38.56,-236"/>
<polygon fill="black" stroke="black" points="38.39,-239.5 48.39,-236 38.39,-232.5 38.39,-239.5"/>
</g>
</g>
</svg>
