<?xml version="1.0" encoding="UTF-8" standalone="no"?>
<!DOCTYPE svg PUBLIC "-//W3C//DTD SVG 1.1//EN"
 "http://www.w3.org/Graphics/SVG/1.1/DTD/svg11.dtd">
<!-- Generated by graphviz version 2.40.1 (20161225.0304)
 -->
<!-- Title: %3 Pages: 1 -->
<svg width="576pt" height="65pt"
 viewBox="0.00 0.00 576.00 65.49" xmlns="http://www.w3.org/2000/svg" xmlns:xlink="http://www.w3.org/1999/xlink">
<g id="graph0" class="graph" transform="scale(1.4884 1.4884) rotate(0) translate(4 40)">
<title>%3</title>
<!-- F -->
<g id="node1" class="node">
<title>F</title>
<polygon fill="#f0f8ff" stroke="#000000" points="103,-36 0,-36 0,0 109,0 109,-30 103,-36"/>
<polyline fill="none" stroke="#000000" points="103,-36 103,-30 "/>
<polyline fill="none" stroke="#000000" points="109,-30 103,-30 "/>
<text text-anchor="middle" x="54.5" y="-21.6" font-family="Lato" font-size="13.00" fill="#000000">Código fuente</text>
<text text-anchor="middle" x="54.5" y="-7.6" font-family="Lato" font-size="13.00" fill="#000000">(lenguaje fuente)</text>
</g>
<!-- Compilador -->
<g id="node3" class="node">
<title>Compilador</title>
<polygon fill="#ffffff" stroke="#000000" points="227,-36 145,-36 145,0 227,0 227,-36"/>
<text text-anchor="middle" x="186" y="-14.6" font-family="Lato" font-size="13.00" fill="#000000">Compilador</text>
</g>
<!-- F&#45;&gt;Compilador -->
<g id="edge1" class="edge">
<title>F&#45;&gt;Compilador</title>
<path fill="none" stroke="#000000" d="M109.1254,-18C117.6539,-18 126.4396,-18 134.8858,-18"/>
<polygon fill="#000000" stroke="#000000" points="134.9799,-21.5001 144.9799,-18 134.9799,-14.5001 134.9799,-21.5001"/>
</g>
<!-- O -->
<g id="node2" class="node">
<title>O</title>
<polygon fill="#f0f8ff" stroke="#000000" points="373,-36 263,-36 263,0 379,0 379,-30 373,-36"/>
<polyline fill="none" stroke="#000000" points="373,-36 373,-30 "/>
<polyline fill="none" stroke="#000000" points="379,-30 373,-30 "/>
<text text-anchor="middle" x="321" y="-21.6" font-family="Lato" font-size="13.00" fill="#000000">Objeto ejecutable</text>
<text text-anchor="middle" x="321" y="-7.6" font-family="Lato" font-size="13.00" fill="#000000">(código máquina)</text>
</g>
<!-- Compilador&#45;&gt;O -->
<g id="edge2" class="edge">
<title>Compilador&#45;&gt;O</title>
<path fill="none" stroke="#000000" d="M227.238,-18C235.2635,-18 243.8758,-18 252.5097,-18"/>
<polygon fill="#000000" stroke="#000000" points="252.6213,-21.5001 262.6212,-18 252.6212,-14.5001 252.6213,-21.5001"/>
</g>
</g>
</svg>
