<?xml version="1.0" encoding="UTF-8" standalone="no"?>
<!DOCTYPE svg PUBLIC "-//W3C//DTD SVG 1.1//EN"
 "http://www.w3.org/Graphics/SVG/1.1/DTD/svg11.dtd">
<!-- Generated by graphviz version 2.43.0 (0)
 -->
<!-- Title: %3 Pages: 1 -->
<svg width="387pt" height="88pt"
 viewBox="0.00 0.00 387.00 88.00" xmlns="http://www.w3.org/2000/svg" xmlns:xlink="http://www.w3.org/1999/xlink">
<g id="graph0" class="graph" transform="scale(1 1) rotate(0) translate(4 84)">
<title>%3</title>
<!-- F -->
<g id="node1" class="node">
<title>F</title>
<polygon fill="aliceblue" stroke="black" points="93,-69 0,-69 0,-11 99,-11 99,-63 93,-69"/>
<polyline fill="none" stroke="black" points="93,-69 93,-63 "/>
<polyline fill="none" stroke="black" points="99,-63 93,-63 "/>
<text text-anchor="start" x="8.5" y="-55.6" font-family="Lato" font-size="13.00">Código fuente</text>
<text text-anchor="start" x="8" y="-42.6" font-family="Lato" font-size="13.00">(lenguaje Java)</text>
<text text-anchor="start" x="8.5" y="-18.2" font-family="monospace" font-size="11.00">archivo.java</text>
</g>
<!-- Compilador Java -->
<g id="node3" class="node">
<title>Compilador Java</title>
<polygon fill="white" stroke="black" points="245,-58 135,-58 135,-22 245,-22 245,-58"/>
<text text-anchor="middle" x="190" y="-36.6" font-family="Lato" font-size="13.00">Compilador Java</text>
</g>
<!-- F&#45;&gt;Compilador Java -->
<g id="edge1" class="edge">
<title>F&#45;&gt;Compilador Java</title>
<path fill="none" stroke="black" d="M99.33,-40C107.61,-40 116.33,-40 124.93,-40"/>
<polygon fill="black" stroke="black" points="124.95,-43.5 134.95,-40 124.95,-36.5 124.95,-43.5"/>
</g>
<!-- O -->
<g id="node2" class="node">
<title>O</title>
<polygon fill="aliceblue" stroke="black" points="373,-80 281,-80 281,0 379,0 379,-74 373,-80"/>
<polyline fill="none" stroke="black" points="373,-80 373,-74 "/>
<polyline fill="none" stroke="black" points="379,-74 373,-74 "/>
<text text-anchor="start" x="289.5" y="-66.6" font-family="Lato" font-size="13.00">Código objeto</text>
<text text-anchor="start" x="301.5" y="-53.6" font-family="Lato" font-size="13.00">(</text>
<text text-anchor="start" x="305.5" y="-53.6" font-family="Lato" font-style="italic" font-size="13.00">bytecode</text>
<text text-anchor="start" x="354.5" y="-53.6" font-family="Lato" font-size="13.00">)</text>
<text text-anchor="start" x="289" y="-29.2" font-family="monospace" font-size="11.00">clase1.class</text>
<text text-anchor="start" x="289" y="-18.2" font-family="monospace" font-size="11.00">clase2.class</text>
<text text-anchor="start" x="319.5" y="-7.2" font-family="monospace" font-size="11.00">...</text>
</g>
<!-- Compilador Java&#45;&gt;O -->
<g id="edge2" class="edge">
<title>Compilador Java&#45;&gt;O</title>
<path fill="none" stroke="black" d="M245.15,-40C253.52,-40 262.2,-40 270.66,-40"/>
<polygon fill="black" stroke="black" points="270.84,-43.5 280.84,-40 270.84,-36.5 270.84,-43.5"/>
</g>
</g>
</svg>
