<?xml version="1.0" encoding="UTF-8" standalone="no"?>
<!DOCTYPE svg PUBLIC "-//W3C//DTD SVG 1.1//EN"
 "http://www.w3.org/Graphics/SVG/1.1/DTD/svg11.dtd">
<!-- Generated by graphviz version 14.1.1 (0)
 -->
<!-- Pages: 1 -->
<svg width="385pt" height="88pt"
 viewBox="0.00 0.00 385.00 88.00" xmlns="http://www.w3.org/2000/svg" xmlns:xlink="http://www.w3.org/1999/xlink">
<g id="graph0" class="graph" transform="scale(1 1) rotate(0) translate(4 84)">
<!-- F -->
<g id="node1" class="node">
<title>F</title>
<polygon fill="aliceblue" stroke="black" points="92.5,-69 0,-69 0,-11 98.5,-11 98.5,-63 92.5,-69"/>
<polyline fill="none" stroke="black" points="92.5,-69 92.5,-63"/>
<polyline fill="none" stroke="black" points="98.5,-63 92.5,-63"/>
<text xml:space="preserve" text-anchor="start" x="8.75" y="-53.65" font-family="Lato" font-size="13.00">Código fuente</text>
<text xml:space="preserve" text-anchor="start" x="8" y="-40.65" font-family="Lato" font-size="13.00">(lenguaje Java)</text>
<text xml:space="preserve" text-anchor="start" x="8.75" y="-16.55" font-family="monospace" font-size="11.00">archivo.java</text>
</g>
<!-- Compilador Java -->
<g id="node3" class="node">
<title>Compilador Java</title>
<polygon fill="white" stroke="black" points="244.25,-58 134.5,-58 134.5,-22 244.25,-22 244.25,-58"/>
<text xml:space="preserve" text-anchor="middle" x="189.38" y="-35.9" font-family="Lato" font-size="13.00">Compilador Java</text>
</g>
<!-- F&#45;&gt;Compilador Java -->
<g id="edge1" class="edge">
<title>F&#45;&gt;Compilador Java</title>
<path fill="none" stroke="black" d="M98.95,-40C106.76,-40 114.96,-40 123.08,-40"/>
<polygon fill="black" stroke="black" points="122.96,-43.5 132.96,-40 122.96,-36.5 122.96,-43.5"/>
</g>
<!-- O -->
<g id="node2" class="node">
<title>O</title>
<polygon fill="aliceblue" stroke="black" points="371.25,-80 280.25,-80 280.25,0 377.25,0 377.25,-74 371.25,-80"/>
<polyline fill="none" stroke="black" points="371.25,-80 371.25,-74"/>
<polyline fill="none" stroke="black" points="377.25,-74 371.25,-74"/>
<text xml:space="preserve" text-anchor="start" x="288.62" y="-64.65" font-family="Lato" font-size="13.00">Código objeto</text>
<text xml:space="preserve" text-anchor="start" x="300.62" y="-51.65" font-family="Lato" font-size="13.00">(</text>
<text xml:space="preserve" text-anchor="start" x="304.38" y="-51.65" font-family="Lato" font-style="italic" font-size="13.00">bytecode</text>
<text xml:space="preserve" text-anchor="start" x="353.12" y="-51.65" font-family="Lato" font-size="13.00">)</text>
<text xml:space="preserve" text-anchor="start" x="288.25" y="-27.55" font-family="monospace" font-size="11.00">clase1.class</text>
<text xml:space="preserve" text-anchor="start" x="288.25" y="-16.55" font-family="monospace" font-size="11.00">clase2.class</text>
<text xml:space="preserve" text-anchor="start" x="318.62" y="-5.55" font-family="monospace" font-size="11.00">...</text>
</g>
<!-- Compilador Java&#45;&gt;O -->
<g id="edge2" class="edge">
<title>Compilador Java&#45;&gt;O</title>
<path fill="none" stroke="black" d="M244.67,-40C252.53,-40 260.65,-40 268.6,-40"/>
<polygon fill="black" stroke="black" points="268.56,-43.5 278.56,-40 268.56,-36.5 268.56,-43.5"/>
</g>
</g>
</svg>
