<?xml version="1.0" encoding="UTF-8" standalone="no"?>
<!DOCTYPE svg PUBLIC "-//W3C//DTD SVG 1.1//EN"
 "http://www.w3.org/Graphics/SVG/1.1/DTD/svg11.dtd">
<!-- Generated by graphviz version 2.43.0 (0)
 -->
<!-- Title: %3 Pages: 1 -->
<svg width="394pt" height="44pt"
 viewBox="0.00 0.00 394.00 44.00" xmlns="http://www.w3.org/2000/svg" xmlns:xlink="http://www.w3.org/1999/xlink">
<g id="graph0" class="graph" transform="scale(1 1) rotate(0) translate(4 40)">
<title>%3</title>
<!-- F -->
<g id="node1" class="node">
<title>F</title>
<polygon fill="aliceblue" stroke="black" points="107,-36 0,-36 0,0 113,0 113,-30 107,-36"/>
<polyline fill="none" stroke="black" points="107,-36 107,-30 "/>
<polyline fill="none" stroke="black" points="113,-30 107,-30 "/>
<text text-anchor="middle" x="56.5" y="-21.6" font-family="Lato" font-size="13.00">Código fuente</text>
<text text-anchor="middle" x="56.5" y="-7.6" font-family="Lato" font-size="13.00">(lenguaje fuente)</text>
</g>
<!-- Compilador -->
<g id="node3" class="node">
<title>Compilador</title>
<polygon fill="white" stroke="black" points="232,-36 149,-36 149,0 232,0 232,-36"/>
<text text-anchor="middle" x="190.5" y="-14.6" font-family="Lato" font-size="13.00">Compilador</text>
</g>
<!-- F&#45;&gt;Compilador -->
<g id="edge1" class="edge">
<title>F&#45;&gt;Compilador</title>
<path fill="none" stroke="black" d="M113.1,-18C121.61,-18 130.37,-18 138.77,-18"/>
<polygon fill="black" stroke="black" points="138.81,-21.5 148.81,-18 138.81,-14.5 138.81,-21.5"/>
</g>
<!-- O -->
<g id="node2" class="node">
<title>O</title>
<polygon fill="aliceblue" stroke="black" points="380,-36 268,-36 268,0 386,0 386,-30 380,-36"/>
<polyline fill="none" stroke="black" points="380,-36 380,-30 "/>
<polyline fill="none" stroke="black" points="386,-30 380,-30 "/>
<text text-anchor="middle" x="327" y="-21.6" font-family="Lato" font-size="13.00">Objeto ejecutable</text>
<text text-anchor="middle" x="327" y="-7.6" font-family="Lato" font-size="13.00">(código máquina)</text>
</g>
<!-- Compilador&#45;&gt;O -->
<g id="edge2" class="edge">
<title>Compilador&#45;&gt;O</title>
<path fill="none" stroke="black" d="M232.22,-18C240.22,-18 248.82,-18 257.45,-18"/>
<polygon fill="black" stroke="black" points="257.56,-21.5 267.56,-18 257.56,-14.5 257.56,-21.5"/>
</g>
</g>
</svg>
