<?xml version="1.0" encoding="UTF-8" standalone="no"?>
<!DOCTYPE svg PUBLIC "-//W3C//DTD SVG 1.1//EN"
 "http://www.w3.org/Graphics/SVG/1.1/DTD/svg11.dtd">
<!-- Generated by graphviz version 2.42.4 (0)
 -->
<!-- Pages: 1 -->
<svg width="433pt" height="98pt"
 viewBox="0.00 0.00 433.00 98.00" xmlns="http://www.w3.org/2000/svg" xmlns:xlink="http://www.w3.org/1999/xlink">
<g id="graph0" class="graph" transform="scale(1 1) rotate(0) translate(4 94)">
<!-- &#45;23.459 -->
<g id="node1" class="node">
<title>&#45;23.459</title>
<polygon fill="transparent" stroke="transparent" points="62,-90 0,-90 0,-54 62,-54 62,-90"/>
<text text-anchor="middle" x="31" y="-68.6" font-family="Lato" font-size="13.00">&#45;23.459</text>
</g>
<!-- abs -->
<g id="node5" class="node">
<title>abs</title>
<polygon fill="white" stroke="black" points="152,-90 98,-90 98,-54 152,-54 152,-90"/>
<text text-anchor="middle" x="125" y="-68.6" font-family="Lato" font-size="13.00">abs</text>
</g>
<!-- &#45;23.459&#45;&gt;abs -->
<g id="edge1" class="edge">
<title>&#45;23.459&#45;&gt;abs</title>
<path fill="none" stroke="black" d="M62.12,-72C70.32,-72 79.28,-72 87.78,-72"/>
<polygon fill="black" stroke="black" points="87.83,-75.5 97.83,-72 87.83,-68.5 87.83,-75.5"/>
</g>
<!-- 23.459 -->
<g id="node2" class="node">
<title>23.459</title>
<polygon fill="transparent" stroke="transparent" points="245,-90 188,-90 188,-54 245,-54 245,-90"/>
<text text-anchor="middle" x="216.5" y="-68.6" font-family="Lato" font-size="13.00">23.459</text>
</g>
<!-- round -->
<g id="node6" class="node">
<title>round</title>
<polygon fill="white" stroke="black" points="335,-63 281,-63 281,-27 335,-27 335,-63"/>
<text text-anchor="middle" x="308" y="-41.6" font-family="Lato" font-size="13.00">round</text>
</g>
<!-- 23.459&#45;&gt;round -->
<g id="edge3" class="edge">
<title>23.459&#45;&gt;round</title>
<path fill="none" stroke="black" d="M245.33,-63.61C253.44,-61.16 262.43,-58.45 270.97,-55.87"/>
<polygon fill="black" stroke="black" points="272.15,-59.17 280.72,-52.93 270.13,-52.47 272.15,-59.17"/>
</g>
<!-- 23.46 -->
<g id="node3" class="node">
<title>23.46</title>
<polygon fill="transparent" stroke="transparent" points="425,-63 371,-63 371,-27 425,-27 425,-63"/>
<text text-anchor="middle" x="398" y="-41.6" font-family="Lato" font-size="13.00">23.46</text>
</g>
<!-- 2 -->
<g id="node4" class="node">
<title>2</title>
<polygon fill="transparent" stroke="transparent" points="243.5,-36 189.5,-36 189.5,0 243.5,0 243.5,-36"/>
<text text-anchor="middle" x="216.5" y="-14.6" font-family="Lato" font-size="13.00">2</text>
</g>
<!-- 2&#45;&gt;round -->
<g id="edge5" class="edge">
<title>2&#45;&gt;round</title>
<path fill="none" stroke="black" d="M234.76,-23.21C245.1,-26.33 258.64,-30.41 271.2,-34.2"/>
<polygon fill="black" stroke="black" points="270.39,-37.61 280.98,-37.15 272.41,-30.91 270.39,-37.61"/>
</g>
<!-- abs&#45;&gt;23.459 -->
<g id="edge2" class="edge">
<title>abs&#45;&gt;23.459</title>
<path fill="none" stroke="black" d="M152.37,-72C160.29,-72 169.13,-72 177.64,-72"/>
<polygon fill="black" stroke="black" points="177.76,-75.5 187.76,-72 177.76,-68.5 177.76,-75.5"/>
</g>
<!-- round&#45;&gt;23.46 -->
<g id="edge4" class="edge">
<title>round&#45;&gt;23.46</title>
<path fill="none" stroke="black" d="M335.4,-45C343.39,-45 352.31,-45 360.82,-45"/>
<polygon fill="black" stroke="black" points="360.92,-48.5 370.92,-45 360.92,-41.5 360.92,-48.5"/>
</g>
</g>
</svg>
