<?xml version="1.0" encoding="UTF-8" standalone="no"?>
<!DOCTYPE svg PUBLIC "-//W3C//DTD SVG 1.1//EN"
 "http://www.w3.org/Graphics/SVG/1.1/DTD/svg11.dtd">
<!-- Generated by graphviz version 2.40.1 (20161225.0304)
 -->
<!-- Title: %3 Pages: 1 -->
<svg width="576pt" height="59pt"
 viewBox="0.00 0.00 576.00 58.53" xmlns="http://www.w3.org/2000/svg" xmlns:xlink="http://www.w3.org/1999/xlink">
<g id="graph0" class="graph" transform="scale(1.3303 1.3303) rotate(0) translate(4 40)">
<title>%3</title>
<!-- &#45;23.459 -->
<g id="node1" class="node">
<title>&#45;23.459</title>
<polygon fill="transparent" stroke="transparent" points="62,-36 0,-36 0,0 62,0 62,-36"/>
<text text-anchor="middle" x="31" y="-14.6" font-family="Lato" font-size="13.00" fill="#000000">&#45;23.459</text>
</g>
<!-- abs -->
<g id="node4" class="node">
<title>abs</title>
<polygon fill="#ffffff" stroke="#000000" points="152,-36 98,-36 98,0 152,0 152,-36"/>
<text text-anchor="middle" x="125" y="-14.6" font-family="Lato" font-size="13.00" fill="#000000">abs</text>
</g>
<!-- &#45;23.459&#45;&gt;abs -->
<g id="edge1" class="edge">
<title>&#45;23.459&#45;&gt;abs</title>
<path fill="none" stroke="#000000" d="M62.0396,-18C70.2517,-18 79.2013,-18 87.7075,-18"/>
<polygon fill="#000000" stroke="#000000" points="87.7837,-21.5001 97.7837,-18 87.7837,-14.5001 87.7837,-21.5001"/>
</g>
<!-- 23.459 -->
<g id="node2" class="node">
<title>23.459</title>
<polygon fill="transparent" stroke="transparent" points="245,-36 188,-36 188,0 245,0 245,-36"/>
<text text-anchor="middle" x="216.5" y="-14.6" font-family="Lato" font-size="13.00" fill="#000000">23.459</text>
</g>
<!-- round -->
<g id="node5" class="node">
<title>round</title>
<polygon fill="#ffffff" stroke="#000000" points="335,-36 281,-36 281,0 335,0 335,-36"/>
<text text-anchor="middle" x="308" y="-14.6" font-family="Lato" font-size="13.00" fill="#000000">round</text>
</g>
<!-- 23.459&#45;&gt;round -->
<g id="edge3" class="edge">
<title>23.459&#45;&gt;round</title>
<path fill="none" stroke="#000000" d="M245.4512,-18C253.4912,-18 262.335,-18 270.7773,-18"/>
<polygon fill="#000000" stroke="#000000" points="270.7948,-21.5001 280.7947,-18 270.7947,-14.5001 270.7948,-21.5001"/>
</g>
<!-- 23.46 -->
<g id="node3" class="node">
<title>23.46</title>
<polygon fill="transparent" stroke="transparent" points="425,-36 371,-36 371,0 425,0 425,-36"/>
<text text-anchor="middle" x="398" y="-14.6" font-family="Lato" font-size="13.00" fill="#000000">23.46</text>
</g>
<!-- abs&#45;&gt;23.459 -->
<g id="edge2" class="edge">
<title>abs&#45;&gt;23.459</title>
<path fill="none" stroke="#000000" d="M152.453,-18C160.3869,-18 169.1998,-18 177.6866,-18"/>
<polygon fill="#000000" stroke="#000000" points="177.796,-21.5001 187.796,-18 177.7959,-14.5001 177.796,-21.5001"/>
</g>
<!-- round&#45;&gt;23.46 -->
<g id="edge4" class="edge">
<title>round&#45;&gt;23.46</title>
<path fill="none" stroke="#000000" d="M335.003,-18C343.0277,-18 351.9665,-18 360.5309,-18"/>
<polygon fill="#000000" stroke="#000000" points="360.7051,-21.5001 370.705,-18 360.705,-14.5001 360.7051,-21.5001"/>
</g>
</g>
</svg>
