<?xml version="1.0" encoding="UTF-8" standalone="no"?>
<!DOCTYPE svg PUBLIC "-//W3C//DTD SVG 1.1//EN"
 "http://www.w3.org/Graphics/SVG/1.1/DTD/svg11.dtd">
<!-- Generated by graphviz version 14.1.1 (0)
 -->
<!-- Pages: 1 -->
<svg width="432pt" height="98pt"
 viewBox="0.00 0.00 432.00 98.00" xmlns="http://www.w3.org/2000/svg" xmlns:xlink="http://www.w3.org/1999/xlink">
<g id="graph0" class="graph" transform="scale(1 1) rotate(0) translate(4 94)">
<!-- &#45;23.459 -->
<g id="node1" class="node">
<title>&#45;23.459</title>
<polygon fill="none" stroke="none" points="61,-90 0,-90 0,-54 61,-54 61,-90"/>
<text xml:space="preserve" text-anchor="middle" x="30.5" y="-67.9" font-family="Lato" font-size="13.00">&#45;23.459</text>
</g>
<!-- abs -->
<g id="node5" class="node">
<title>abs</title>
<polygon fill="white" stroke="black" points="151,-90 97,-90 97,-54 151,-54 151,-90"/>
<text xml:space="preserve" text-anchor="middle" x="124" y="-67.9" font-family="Lato" font-size="13.00">abs</text>
</g>
<!-- &#45;23.459&#45;&gt;abs -->
<g id="edge1" class="edge">
<title>&#45;23.459&#45;&gt;abs</title>
<path fill="none" stroke="black" d="M60.95,-72C68.68,-72 77.11,-72 85.2,-72"/>
<polygon fill="black" stroke="black" points="85.18,-75.5 95.18,-72 85.18,-68.5 85.18,-75.5"/>
</g>
<!-- 23.459 -->
<g id="node2" class="node">
<title>23.459</title>
<polygon fill="none" stroke="none" points="243.5,-90 187,-90 187,-54 243.5,-54 243.5,-90"/>
<text xml:space="preserve" text-anchor="middle" x="215.25" y="-67.9" font-family="Lato" font-size="13.00">23.459</text>
</g>
<!-- round -->
<g id="node6" class="node">
<title>round</title>
<polygon fill="white" stroke="black" points="333.5,-63 279.5,-63 279.5,-27 333.5,-27 333.5,-63"/>
<text xml:space="preserve" text-anchor="middle" x="306.5" y="-40.9" font-family="Lato" font-size="13.00">round</text>
</g>
<!-- 23.459&#45;&gt;round -->
<g id="edge3" class="edge">
<title>23.459&#45;&gt;round</title>
<path fill="none" stroke="black" d="M243.03,-63.9C250.95,-61.5 259.78,-58.83 268.24,-56.27"/>
<polygon fill="black" stroke="black" points="269.04,-59.69 277.6,-53.44 267.01,-52.99 269.04,-59.69"/>
</g>
<!-- 23.46 -->
<g id="node3" class="node">
<title>23.46</title>
<polygon fill="none" stroke="none" points="423.5,-63 369.5,-63 369.5,-27 423.5,-27 423.5,-63"/>
<text xml:space="preserve" text-anchor="middle" x="396.5" y="-40.9" font-family="Lato" font-size="13.00">23.46</text>
</g>
<!-- 2 -->
<g id="node4" class="node">
<title>2</title>
<polygon fill="none" stroke="none" points="242.25,-36 188.25,-36 188.25,0 242.25,0 242.25,-36"/>
<text xml:space="preserve" text-anchor="middle" x="215.25" y="-13.9" font-family="Lato" font-size="13.00">2</text>
</g>
<!-- 2&#45;&gt;round -->
<g id="edge5" class="edge">
<title>2&#45;&gt;round</title>
<path fill="none" stroke="black" d="M233.04,-23.08C243.01,-26.1 256.08,-30.05 268.36,-33.76"/>
<polygon fill="black" stroke="black" points="267.28,-37.09 277.86,-36.64 269.31,-30.39 267.28,-37.09"/>
</g>
<!-- abs&#45;&gt;23.459 -->
<g id="edge2" class="edge">
<title>abs&#45;&gt;23.459</title>
<path fill="none" stroke="black" d="M151.3,-72C158.98,-72 167.55,-72 175.83,-72"/>
<polygon fill="black" stroke="black" points="175.7,-75.5 185.7,-72 175.7,-68.5 175.7,-75.5"/>
</g>
<!-- round&#45;&gt;23.46 -->
<g id="edge4" class="edge">
<title>round&#45;&gt;23.46</title>
<path fill="none" stroke="black" d="M333.9,-45C341.61,-45 350.18,-45 358.42,-45"/>
<polygon fill="black" stroke="black" points="358.21,-48.5 368.21,-45 358.21,-41.5 358.21,-48.5"/>
</g>
</g>
</svg>
