<?xml version="1.0" encoding="UTF-8" standalone="no"?>
<!DOCTYPE svg PUBLIC "-//W3C//DTD SVG 1.1//EN"
 "http://www.w3.org/Graphics/SVG/1.1/DTD/svg11.dtd">
<!-- Generated by graphviz version 14.1.1 (0)
 -->
<!-- Pages: 1 -->
<svg width="391pt" height="49pt"
 viewBox="0.00 0.00 391.00 49.00" xmlns="http://www.w3.org/2000/svg" xmlns:xlink="http://www.w3.org/1999/xlink">
<g id="graph0" class="graph" transform="scale(1 1) rotate(0) translate(4 45)">
<!-- F -->
<g id="node1" class="node">
<title>F</title>
<polygon fill="aliceblue" stroke="black" points="106,-41 0,-41 0,0 112,0 112,-35 106,-41"/>
<polyline fill="none" stroke="black" points="106,-41 106,-35"/>
<polyline fill="none" stroke="black" points="112,-35 106,-35"/>
<text xml:space="preserve" text-anchor="middle" x="56" y="-24.65" font-family="Lato" font-size="13.00">Código fuente</text>
<text xml:space="preserve" text-anchor="middle" x="56" y="-8.15" font-family="Lato" font-size="13.00">(lenguaje fuente)</text>
</g>
<!-- Compilador -->
<g id="node3" class="node">
<title>Compilador</title>
<polygon fill="white" stroke="black" points="230,-38.5 148,-38.5 148,-2.5 230,-2.5 230,-38.5"/>
<text xml:space="preserve" text-anchor="middle" x="189" y="-16.4" font-family="Lato" font-size="13.00">Compilador</text>
</g>
<!-- F&#45;&gt;Compilador -->
<g id="edge1" class="edge">
<title>F&#45;&gt;Compilador</title>
<path fill="none" stroke="black" d="M112.18,-20.5C120.16,-20.5 128.36,-20.5 136.28,-20.5"/>
<polygon fill="black" stroke="black" points="136.1,-24 146.1,-20.5 136.1,-17 136.1,-24"/>
</g>
<!-- O -->
<g id="node2" class="node">
<title>O</title>
<polygon fill="aliceblue" stroke="black" points="377.25,-41 266,-41 266,0 383.25,0 383.25,-35 377.25,-41"/>
<polyline fill="none" stroke="black" points="377.25,-41 377.25,-35"/>
<polyline fill="none" stroke="black" points="383.25,-35 377.25,-35"/>
<text xml:space="preserve" text-anchor="middle" x="324.62" y="-24.65" font-family="Lato" font-size="13.00">Objeto ejecutable</text>
<text xml:space="preserve" text-anchor="middle" x="324.62" y="-8.15" font-family="Lato" font-size="13.00">(código máquina)</text>
</g>
<!-- Compilador&#45;&gt;O -->
<g id="edge2" class="edge">
<title>Compilador&#45;&gt;O</title>
<path fill="none" stroke="black" d="M230.45,-20.5C237.97,-20.5 246.02,-20.5 254.12,-20.5"/>
<polygon fill="black" stroke="black" points="254.05,-24 264.05,-20.5 254.05,-17 254.05,-24"/>
</g>
</g>
</svg>
