<?xml version="1.0" encoding="UTF-8" standalone="no"?>
<!DOCTYPE svg PUBLIC "-//W3C//DTD SVG 1.1//EN"
 "http://www.w3.org/Graphics/SVG/1.1/DTD/svg11.dtd">
<!-- Generated by graphviz version 2.43.0 (0)
 -->
<!-- Title: %3 Pages: 1 -->
<svg width="433pt" height="44pt"
 viewBox="0.00 0.00 433.00 44.00" xmlns="http://www.w3.org/2000/svg" xmlns:xlink="http://www.w3.org/1999/xlink">
<g id="graph0" class="graph" transform="scale(1 1) rotate(0) translate(4 40)">
<title>%3</title>
<!-- &#45;23.459 -->
<g id="node1" class="node">
<title>&#45;23.459</title>
<polygon fill="transparent" stroke="transparent" points="62,-36 0,-36 0,0 62,0 62,-36"/>
<text text-anchor="middle" x="31" y="-14.6" font-family="Lato" font-size="13.00">&#45;23.459</text>
</g>
<!-- abs -->
<g id="node4" class="node">
<title>abs</title>
<polygon fill="white" stroke="black" points="152,-36 98,-36 98,0 152,0 152,-36"/>
<text text-anchor="middle" x="125" y="-14.6" font-family="Lato" font-size="13.00">abs</text>
</g>
<!-- &#45;23.459&#45;&gt;abs -->
<g id="edge1" class="edge">
<title>&#45;23.459&#45;&gt;abs</title>
<path fill="none" stroke="black" d="M62.12,-18C70.32,-18 79.28,-18 87.78,-18"/>
<polygon fill="black" stroke="black" points="87.83,-21.5 97.83,-18 87.83,-14.5 87.83,-21.5"/>
</g>
<!-- 23.459 -->
<g id="node2" class="node">
<title>23.459</title>
<polygon fill="transparent" stroke="transparent" points="245,-36 188,-36 188,0 245,0 245,-36"/>
<text text-anchor="middle" x="216.5" y="-14.6" font-family="Lato" font-size="13.00">23.459</text>
</g>
<!-- round -->
<g id="node5" class="node">
<title>round</title>
<polygon fill="white" stroke="black" points="335,-36 281,-36 281,0 335,0 335,-36"/>
<text text-anchor="middle" x="308" y="-14.6" font-family="Lato" font-size="13.00">round</text>
</g>
<!-- 23.459&#45;&gt;round -->
<g id="edge3" class="edge">
<title>23.459&#45;&gt;round</title>
<path fill="none" stroke="black" d="M245.33,-18C253.35,-18 262.23,-18 270.69,-18"/>
<polygon fill="black" stroke="black" points="270.72,-21.5 280.72,-18 270.72,-14.5 270.72,-21.5"/>
</g>
<!-- 23.46 -->
<g id="node3" class="node">
<title>23.46</title>
<polygon fill="transparent" stroke="transparent" points="425,-36 371,-36 371,0 425,0 425,-36"/>
<text text-anchor="middle" x="398" y="-14.6" font-family="Lato" font-size="13.00">23.46</text>
</g>
<!-- abs&#45;&gt;23.459 -->
<g id="edge2" class="edge">
<title>abs&#45;&gt;23.459</title>
<path fill="none" stroke="black" d="M152.37,-18C160.29,-18 169.13,-18 177.64,-18"/>
<polygon fill="black" stroke="black" points="177.76,-21.5 187.76,-18 177.76,-14.5 177.76,-21.5"/>
</g>
<!-- round&#45;&gt;23.46 -->
<g id="edge4" class="edge">
<title>round&#45;&gt;23.46</title>
<path fill="none" stroke="black" d="M335.4,-18C343.39,-18 352.31,-18 360.82,-18"/>
<polygon fill="black" stroke="black" points="360.92,-21.5 370.92,-18 360.92,-14.5 360.92,-21.5"/>
</g>
</g>
</svg>
