<?xml version="1.0" encoding="UTF-8" standalone="no"?>
<!DOCTYPE svg PUBLIC "-//W3C//DTD SVG 1.1//EN"
 "http://www.w3.org/Graphics/SVG/1.1/DTD/svg11.dtd">
<!-- Generated by graphviz version 2.43.0 (0)
 -->
<!-- Title: %3 Pages: 1 -->
<svg width="476pt" height="171pt"
 viewBox="0.00 0.00 476.00 171.00" xmlns="http://www.w3.org/2000/svg" xmlns:xlink="http://www.w3.org/1999/xlink">
<g id="graph0" class="graph" transform="scale(1 1) rotate(0) translate(4 167)">
<title>%3</title>
<g id="clust1" class="cluster">
<title>cluster0</title>
<polygon fill="white" stroke="black" points="309,-8 309,-137 404,-137 404,-8 309,-8"/>
<text text-anchor="middle" x="356.5" y="-121.8" font-family="Lato" font-size="14.00">Marco global</text>
</g>
<g id="clust2" class="cluster">
<title>cluster1</title>
<polygon fill="white" stroke="black" points="50,-26 50,-155 217,-155 217,-26 50,-26"/>
<text text-anchor="middle" x="133.5" y="-139.8" font-family="Lato" font-size="14.00">Marco del primer lambda</text>
</g>
<!-- 2 -->
<g id="node1" class="node">
<title>2</title>
<ellipse fill="white" stroke="black" cx="450" cy="-121" rx="18" ry="18"/>
<text text-anchor="middle" x="450" y="-117.6" font-family="monospace" font-size="13.00">2</text>
</g>
<!-- 4 -->
<g id="node2" class="node">
<title>4</title>
<ellipse fill="white" stroke="black" cx="263" cy="-52" rx="18" ry="18"/>
<text text-anchor="middle" x="263" y="-48.6" font-family="monospace" font-size="13.00">4</text>
</g>
<!-- lambda -->
<g id="node3" class="node">
<title>lambda</title>
<ellipse fill="white" stroke="black" cx="450" cy="-34" rx="18" ry="18"/>
<text text-anchor="middle" x="450" y="-30.6" font-family="monospace" font-size="13.00">λ</text>
</g>
<!-- w -->
<g id="node4" class="node">
<title>w</title>
<polygon fill="transparent" stroke="transparent" points="368,-106 344,-106 344,-70 368,-70 368,-106"/>
<text text-anchor="middle" x="356" y="-84.6" font-family="monospace" font-size="13.00">w</text>
</g>
<!-- w&#45;&gt;2 -->
<g id="edge1" class="edge">
<title>w&#45;&gt;2</title>
<path fill="none" stroke="black" d="M368.28,-92.05C381.82,-96.9 404.96,-105.2 423,-111.67"/>
<polygon fill="black" stroke="black" points="422.06,-115.06 432.66,-115.14 424.43,-108.47 422.06,-115.06"/>
</g>
<!-- f -->
<g id="node5" class="node">
<title>f</title>
<polygon fill="transparent" stroke="transparent" points="368,-52 344,-52 344,-16 368,-16 368,-52"/>
<text text-anchor="middle" x="356" y="-30.6" font-family="monospace" font-size="13.00">f</text>
</g>
<!-- f&#45;&gt;lambda -->
<g id="edge2" class="edge">
<title>f&#45;&gt;lambda</title>
<path fill="none" stroke="black" d="M368.28,-34C381.54,-34 403.98,-34 421.85,-34"/>
<polygon fill="black" stroke="black" points="421.99,-37.5 431.99,-34 421.99,-30.5 421.99,-37.5"/>
</g>
<!-- xl -->
<g id="node6" class="node">
<title>xl</title>
<polygon fill="transparent" stroke="transparent" points="145,-124 121,-124 121,-88 145,-88 145,-124"/>
<text text-anchor="middle" x="133" y="-102.6" font-family="monospace" font-size="13.00">x</text>
</g>
<!-- xl&#45;&gt;2 -->
<g id="edge3" class="edge">
<title>xl&#45;&gt;2</title>
<path fill="none" stroke="black" d="M145.17,-110.12C182.29,-123.25 304.82,-162.05 404,-141 411.08,-139.5 418.4,-136.8 425.02,-133.87"/>
<polygon fill="black" stroke="black" points="426.62,-136.98 434.12,-129.5 423.59,-130.67 426.62,-136.98"/>
</g>
<!-- xl&#45;&gt;w -->
<g id="edge5" class="edge">
<title>xl&#45;&gt;w</title>
<path fill="none" stroke="black" d="M217,-99.24C244.32,-97.01 274.05,-94.59 298.89,-92.57"/>
<polygon fill="black" stroke="black" points="299.32,-96.05 309,-91.75 298.75,-89.07 299.32,-96.05"/>
</g>
<!-- yl -->
<g id="node7" class="node">
<title>yl</title>
<polygon fill="transparent" stroke="transparent" points="145,-70 121,-70 121,-34 145,-34 145,-70"/>
<text text-anchor="middle" x="133" y="-48.6" font-family="monospace" font-size="13.00">y</text>
</g>
<!-- yl&#45;&gt;4 -->
<g id="edge4" class="edge">
<title>yl&#45;&gt;4</title>
<path fill="none" stroke="black" d="M145.36,-52C165.24,-52 206.85,-52 234.61,-52"/>
<polygon fill="black" stroke="black" points="234.85,-55.5 244.85,-52 234.85,-48.5 234.85,-55.5"/>
</g>
<!-- E -->
<g id="node8" class="node">
<title>E</title>
<polygon fill="transparent" stroke="transparent" points="22,-124 0,-124 0,-88 22,-88 22,-124"/>
<text text-anchor="middle" x="11" y="-102.6" font-family="monospace" font-size="13.00">E</text>
</g>
<!-- E&#45;&gt;xl -->
<g id="edge6" class="edge">
<title>E&#45;&gt;xl</title>
<path fill="none" stroke="black" d="M22.23,-106C26.88,-106 32.85,-106 39.61,-106"/>
<polygon fill="black" stroke="black" points="40,-109.5 50,-106 40,-102.5 40,-109.5"/>
</g>
</g>
</svg>
