<?xml version="1.0" encoding="UTF-8" standalone="no"?>
<!DOCTYPE svg PUBLIC "-//W3C//DTD SVG 1.1//EN"
 "http://www.w3.org/Graphics/SVG/1.1/DTD/svg11.dtd">
<!-- Generated by graphviz version 14.1.1 (0)
 -->
<!-- Pages: 1 -->
<svg width="478pt" height="209pt"
 viewBox="0.00 0.00 478.00 209.00" xmlns="http://www.w3.org/2000/svg" xmlns:xlink="http://www.w3.org/1999/xlink">
<g id="graph0" class="graph" transform="scale(1 1) rotate(0) translate(4 205)">
<g id="clust1" class="cluster">
<title>cluster0</title>
<polygon fill="white" stroke="black" points="304.9,-8 304.9,-193 399.65,-193 399.65,-8 304.9,-8"/>
<text xml:space="preserve" text-anchor="middle" x="352.27" y="-175.7" font-family="Lato" font-size="14.00">Marco global</text>
</g>
<g id="clust2" class="cluster">
<title>cluster1</title>
<polygon fill="white" stroke="black" points="49.9,-85 49.9,-162 212.9,-162 212.9,-85 49.9,-85"/>
<text xml:space="preserve" text-anchor="middle" x="131.4" y="-144.7" font-family="Lato" font-size="14.00">Marco del tercer lambda</text>
</g>
<!-- 2 -->
<g id="node1" class="node">
<title>2</title>
<ellipse fill="white" stroke="black" cx="448.8" cy="-142" rx="18" ry="18"/>
<text xml:space="preserve" text-anchor="middle" x="448.8" y="-137.9" font-family="monospace" font-size="13.00">2</text>
</g>
<!-- 3 -->
<g id="node2" class="node">
<title>3</title>
<ellipse fill="white" stroke="black" cx="258.9" cy="-134" rx="18" ry="18"/>
<text xml:space="preserve" text-anchor="middle" x="258.9" y="-129.9" font-family="monospace" font-size="13.00">3</text>
</g>
<!-- 14 -->
<g id="node3" class="node">
<title>14</title>
<ellipse fill="white" stroke="black" cx="448.8" cy="-31" rx="21.15" ry="21.15"/>
<text xml:space="preserve" text-anchor="middle" x="448.8" y="-26.9" font-family="monospace" font-size="13.00">14</text>
</g>
<!-- lambda -->
<g id="node4" class="node">
<title>lambda</title>
<ellipse fill="white" stroke="black" cx="448.8" cy="-88" rx="18" ry="18"/>
<text xml:space="preserve" text-anchor="middle" x="448.8" y="-83.9" font-family="monospace" font-size="13.00">λ</text>
</g>
<!-- w -->
<g id="node5" class="node">
<title>w</title>
<polygon fill="none" stroke="none" points="363.52,-160 340.02,-160 340.02,-124 363.52,-124 363.52,-160"/>
<text xml:space="preserve" text-anchor="middle" x="351.77" y="-137.9" font-family="monospace" font-size="13.00">w</text>
</g>
<!-- w&#45;&gt;2 -->
<g id="edge1" class="edge">
<title>w&#45;&gt;2</title>
<path fill="none" stroke="black" d="M363.31,-142C376.69,-142 400.32,-142 419.19,-142"/>
<polygon fill="black" stroke="black" points="418.96,-145.5 428.96,-142 418.96,-138.5 418.96,-145.5"/>
</g>
<!-- f -->
<g id="node6" class="node">
<title>f</title>
<polygon fill="none" stroke="none" points="363.52,-106 340.02,-106 340.02,-70 363.52,-70 363.52,-106"/>
<text xml:space="preserve" text-anchor="middle" x="351.77" y="-83.9" font-family="monospace" font-size="13.00">f</text>
</g>
<!-- f&#45;&gt;lambda -->
<g id="edge2" class="edge">
<title>f&#45;&gt;lambda</title>
<path fill="none" stroke="black" d="M363.31,-88C376.69,-88 400.32,-88 419.19,-88"/>
<polygon fill="black" stroke="black" points="418.96,-91.5 428.96,-88 418.96,-84.5 418.96,-91.5"/>
</g>
<!-- r -->
<g id="node7" class="node">
<title>r</title>
<polygon fill="none" stroke="none" points="363.52,-52 340.02,-52 340.02,-16 363.52,-16 363.52,-52"/>
<text xml:space="preserve" text-anchor="middle" x="351.77" y="-29.9" font-family="monospace" font-size="13.00">r</text>
</g>
<!-- r&#45;&gt;14 -->
<g id="edge3" class="edge">
<title>r&#45;&gt;14</title>
<path fill="none" stroke="black" d="M363.31,-33.67C375.91,-33.27 397.61,-32.58 415.86,-32.01"/>
<polygon fill="black" stroke="black" points="415.83,-35.51 425.71,-31.7 415.6,-28.51 415.83,-35.51"/>
</g>
<!-- xl -->
<g id="node8" class="node">
<title>xl</title>
<polygon fill="none" stroke="none" points="142.65,-129 119.15,-129 119.15,-93 142.65,-93 142.65,-129"/>
<text xml:space="preserve" text-anchor="middle" x="130.9" y="-106.9" font-family="monospace" font-size="13.00">x</text>
</g>
<!-- xl&#45;&gt;3 -->
<g id="edge4" class="edge">
<title>xl&#45;&gt;3</title>
<path fill="none" stroke="black" d="M142.64,-112.96C161.72,-116.44 202.09,-123.81 229.61,-128.84"/>
<polygon fill="black" stroke="black" points="228.92,-132.27 239.39,-130.62 230.18,-125.38 228.92,-132.27"/>
</g>
<!-- xl&#45;&gt;f -->
<g id="edge5" class="edge">
<title>xl&#45;&gt;f</title>
<path fill="none" stroke="black" d="M212.9,-102.49C239.67,-99.67 268.89,-96.6 293.51,-94.02"/>
<polygon fill="black" stroke="black" points="293.82,-97.5 303.4,-92.98 293.09,-90.54 293.82,-97.5"/>
</g>
<!-- E -->
<g id="node9" class="node">
<title>E</title>
<polygon fill="none" stroke="none" points="21.9,-129 0,-129 0,-93 21.9,-93 21.9,-129"/>
<text xml:space="preserve" text-anchor="middle" x="10.95" y="-106.9" font-family="monospace" font-size="13.00">E</text>
</g>
<!-- E&#45;&gt;xl -->
<g id="edge6" class="edge">
<title>E&#45;&gt;xl</title>
<path fill="none" stroke="black" d="M21.6,-111C26.16,-111 32.07,-111 38.78,-111"/>
<polygon fill="black" stroke="black" points="38.39,-114.5 48.39,-111 38.39,-107.5 38.39,-114.5"/>
</g>
</g>
</svg>
