<?xml version="1.0" encoding="UTF-8" standalone="no"?>
<!DOCTYPE svg PUBLIC "-//W3C//DTD SVG 1.1//EN"
 "http://www.w3.org/Graphics/SVG/1.1/DTD/svg11.dtd">
<!-- Generated by graphviz version 14.1.1 (0)
 -->
<!-- Pages: 1 -->
<svg width="223pt" height="263pt"
 viewBox="0.00 0.00 223.00 263.00" xmlns="http://www.w3.org/2000/svg" xmlns:xlink="http://www.w3.org/1999/xlink">
<g id="graph0" class="graph" transform="scale(1 1) rotate(0) translate(4 259)">
<g id="clust1" class="cluster">
<title>cluster0</title>
<polygon fill="white" stroke="black" points="49.9,-8 49.9,-247 144.65,-247 144.65,-8 49.9,-8"/>
<text xml:space="preserve" text-anchor="middle" x="97.28" y="-229.7" font-family="Lato" font-size="14.00">Marco global</text>
</g>
<!-- 2 -->
<g id="node1" class="node">
<title>2</title>
<ellipse fill="white" stroke="black" cx="193.8" cy="-197" rx="18" ry="18"/>
<text xml:space="preserve" text-anchor="middle" x="193.8" y="-192.9" font-family="monospace" font-size="13.00">2</text>
</g>
<!-- 14 -->
<g id="node2" class="node">
<title>14</title>
<ellipse fill="white" stroke="black" cx="193.8" cy="-86" rx="21.15" ry="21.15"/>
<text xml:space="preserve" text-anchor="middle" x="193.8" y="-81.9" font-family="monospace" font-size="13.00">14</text>
</g>
<!-- 9 -->
<g id="node3" class="node">
<title>9</title>
<ellipse fill="white" stroke="black" cx="193.8" cy="-29" rx="18" ry="18"/>
<text xml:space="preserve" text-anchor="middle" x="193.8" y="-24.9" font-family="monospace" font-size="13.00">9</text>
</g>
<!-- lambda -->
<g id="node4" class="node">
<title>lambda</title>
<ellipse fill="white" stroke="black" cx="193.8" cy="-143" rx="18" ry="18"/>
<text xml:space="preserve" text-anchor="middle" x="193.8" y="-138.9" font-family="monospace" font-size="13.00">λ</text>
</g>
<!-- w -->
<g id="node5" class="node">
<title>w</title>
<polygon fill="none" stroke="none" points="108.53,-214 85.03,-214 85.03,-178 108.53,-178 108.53,-214"/>
<text xml:space="preserve" text-anchor="middle" x="96.78" y="-191.9" font-family="monospace" font-size="13.00">w</text>
</g>
<!-- w&#45;&gt;2 -->
<g id="edge1" class="edge">
<title>w&#45;&gt;2</title>
<path fill="none" stroke="black" d="M108.31,-196.11C121.69,-196.25 145.32,-196.5 164.19,-196.7"/>
<polygon fill="black" stroke="black" points="163.92,-200.2 173.96,-196.8 164,-193.2 163.92,-200.2"/>
</g>
<!-- f -->
<g id="node6" class="node">
<title>f</title>
<polygon fill="none" stroke="none" points="108.53,-160 85.03,-160 85.03,-124 108.53,-124 108.53,-160"/>
<text xml:space="preserve" text-anchor="middle" x="96.78" y="-137.9" font-family="monospace" font-size="13.00">f</text>
</g>
<!-- f&#45;&gt;lambda -->
<g id="edge2" class="edge">
<title>f&#45;&gt;lambda</title>
<path fill="none" stroke="black" d="M108.31,-142.11C121.69,-142.25 145.32,-142.5 164.19,-142.7"/>
<polygon fill="black" stroke="black" points="163.92,-146.2 173.96,-142.8 164,-139.2 163.92,-146.2"/>
</g>
<!-- r -->
<g id="node7" class="node">
<title>r</title>
<polygon fill="none" stroke="none" points="108.53,-106 85.03,-106 85.03,-70 108.53,-70 108.53,-106"/>
<text xml:space="preserve" text-anchor="middle" x="96.78" y="-83.9" font-family="monospace" font-size="13.00">r</text>
</g>
<!-- r&#45;&gt;14 -->
<g id="edge3" class="edge">
<title>r&#45;&gt;14</title>
<path fill="none" stroke="black" d="M108.31,-87.78C120.91,-87.51 142.61,-87.06 160.86,-86.67"/>
<polygon fill="black" stroke="black" points="160.79,-90.17 170.71,-86.47 160.64,-83.18 160.79,-90.17"/>
</g>
<!-- m -->
<g id="node8" class="node">
<title>m</title>
<polygon fill="none" stroke="none" points="108.53,-52 85.03,-52 85.03,-16 108.53,-16 108.53,-52"/>
<text xml:space="preserve" text-anchor="middle" x="96.78" y="-29.9" font-family="monospace" font-size="13.00">m</text>
</g>
<!-- m&#45;&gt;9 -->
<g id="edge4" class="edge">
<title>m&#45;&gt;9</title>
<path fill="none" stroke="black" d="M108.31,-33.45C121.69,-32.74 145.32,-31.5 164.19,-30.51"/>
<polygon fill="black" stroke="black" points="164.16,-34.01 173.96,-29.99 163.79,-27.02 164.16,-34.01"/>
</g>
<!-- E -->
<g id="node9" class="node">
<title>E</title>
<polygon fill="none" stroke="none" points="21.9,-160 0,-160 0,-124 21.9,-124 21.9,-160"/>
<text xml:space="preserve" text-anchor="middle" x="10.95" y="-137.9" font-family="monospace" font-size="13.00">E</text>
</g>
<!-- E&#45;&gt;f -->
<g id="edge5" class="edge">
<title>E&#45;&gt;f</title>
<path fill="none" stroke="black" d="M21.9,-142C26.49,-142 32.35,-142 38.75,-142"/>
<polygon fill="black" stroke="black" points="38.39,-145.5 48.39,-142 38.39,-138.5 38.39,-145.5"/>
</g>
</g>
</svg>
