<?xml version="1.0" encoding="UTF-8" standalone="no"?>
<!DOCTYPE svg PUBLIC "-//W3C//DTD SVG 1.1//EN"
 "http://www.w3.org/Graphics/SVG/1.1/DTD/svg11.dtd">
<!-- Generated by graphviz version 2.43.0 (0)
 -->
<!-- Title: %3 Pages: 1 -->
<svg width="221pt" height="207pt"
 viewBox="0.00 0.00 221.43 207.00" xmlns="http://www.w3.org/2000/svg" xmlns:xlink="http://www.w3.org/1999/xlink">
<g id="graph0" class="graph" transform="scale(1 1) rotate(0) translate(4 203)">
<title>%3</title>
<g id="clust1" class="cluster">
<title>cluster0</title>
<polygon fill="white" stroke="black" points="50,-8 50,-191 145,-191 145,-8 50,-8"/>
<text text-anchor="middle" x="97.5" y="-175.8" font-family="Lato" font-size="14.00">Marco global</text>
</g>
<!-- 2 -->
<g id="node1" class="node">
<title>2</title>
<ellipse fill="white" stroke="black" cx="193.21" cy="-142" rx="18" ry="18"/>
<text text-anchor="middle" x="193.21" y="-138.6" font-family="monospace" font-size="13.00">2</text>
</g>
<!-- 14 -->
<g id="node2" class="node">
<title>14</title>
<ellipse fill="white" stroke="black" cx="193.21" cy="-32" rx="20.43" ry="20.43"/>
<text text-anchor="middle" x="193.21" y="-28.6" font-family="monospace" font-size="13.00">14</text>
</g>
<!-- lambda -->
<g id="node3" class="node">
<title>lambda</title>
<ellipse fill="white" stroke="black" cx="193.21" cy="-88" rx="18" ry="18"/>
<text text-anchor="middle" x="193.21" y="-84.6" font-family="monospace" font-size="13.00">λ</text>
</g>
<!-- w -->
<g id="node4" class="node">
<title>w</title>
<polygon fill="transparent" stroke="transparent" points="109,-160 85,-160 85,-124 109,-124 109,-160"/>
<text text-anchor="middle" x="97" y="-138.6" font-family="monospace" font-size="13.00">w</text>
</g>
<!-- w&#45;&gt;2 -->
<g id="edge1" class="edge">
<title>w&#45;&gt;2</title>
<path fill="none" stroke="black" d="M109.18,-142C122.79,-142 146.25,-142 164.77,-142"/>
<polygon fill="black" stroke="black" points="164.99,-145.5 174.99,-142 164.99,-138.5 164.99,-145.5"/>
</g>
<!-- f -->
<g id="node5" class="node">
<title>f</title>
<polygon fill="transparent" stroke="transparent" points="109,-106 85,-106 85,-70 109,-70 109,-106"/>
<text text-anchor="middle" x="97" y="-84.6" font-family="monospace" font-size="13.00">f</text>
</g>
<!-- f&#45;&gt;lambda -->
<g id="edge2" class="edge">
<title>f&#45;&gt;lambda</title>
<path fill="none" stroke="black" d="M109.18,-88C122.79,-88 146.25,-88 164.77,-88"/>
<polygon fill="black" stroke="black" points="164.99,-91.5 174.99,-88 164.99,-84.5 164.99,-91.5"/>
</g>
<!-- r -->
<g id="node6" class="node">
<title>r</title>
<polygon fill="transparent" stroke="transparent" points="109,-52 85,-52 85,-16 109,-16 109,-52"/>
<text text-anchor="middle" x="97" y="-30.6" font-family="monospace" font-size="13.00">r</text>
</g>
<!-- r&#45;&gt;14 -->
<g id="edge3" class="edge">
<title>r&#45;&gt;14</title>
<path fill="none" stroke="black" d="M109.18,-33.76C122.3,-33.48 144.57,-33.01 162.75,-32.63"/>
<polygon fill="black" stroke="black" points="162.96,-36.12 172.88,-32.41 162.81,-29.12 162.96,-36.12"/>
</g>
<!-- E -->
<g id="node7" class="node">
<title>E</title>
<polygon fill="transparent" stroke="transparent" points="22,-106 0,-106 0,-70 22,-70 22,-106"/>
<text text-anchor="middle" x="11" y="-84.6" font-family="monospace" font-size="13.00">E</text>
</g>
<!-- E&#45;&gt;f -->
<g id="edge4" class="edge">
<title>E&#45;&gt;f</title>
<path fill="none" stroke="black" d="M22.3,-88C27.11,-88 33.25,-88 39.93,-88"/>
<polygon fill="black" stroke="black" points="40,-91.5 50,-88 40,-84.5 40,-91.5"/>
</g>
</g>
</svg>
