<?xml version="1.0" encoding="UTF-8" standalone="no"?>
<!DOCTYPE svg PUBLIC "-//W3C//DTD SVG 1.1//EN"
 "http://www.w3.org/Graphics/SVG/1.1/DTD/svg11.dtd">
<!-- Generated by graphviz version 2.43.0 (0)
 -->
<!-- Title: %3 Pages: 1 -->
<svg width="480pt" height="207pt"
 viewBox="0.00 0.00 480.43 207.00" xmlns="http://www.w3.org/2000/svg" xmlns:xlink="http://www.w3.org/1999/xlink">
<g id="graph0" class="graph" transform="scale(1 1) rotate(0) translate(4 203)">
<title>%3</title>
<g id="clust1" class="cluster">
<title>cluster0</title>
<polygon fill="white" stroke="black" points="309,-8 309,-191 404,-191 404,-8 309,-8"/>
<text text-anchor="middle" x="356.5" y="-175.8" font-family="Lato" font-size="14.00">Marco global</text>
</g>
<g id="clust2" class="cluster">
<title>cluster1</title>
<polygon fill="white" stroke="black" points="50,-31 50,-106 217,-106 217,-31 50,-31"/>
<text text-anchor="middle" x="133.5" y="-90.8" font-family="Lato" font-size="14.00">Marco del primer lambda</text>
</g>
<!-- 2 -->
<g id="node1" class="node">
<title>2</title>
<ellipse fill="white" stroke="black" cx="452.21" cy="-142" rx="18" ry="18"/>
<text text-anchor="middle" x="452.21" y="-138.6" font-family="monospace" font-size="13.00">2</text>
</g>
<!-- 3 -->
<g id="node2" class="node">
<title>3</title>
<ellipse fill="white" stroke="black" cx="263" cy="-80" rx="18" ry="18"/>
<text text-anchor="middle" x="263" y="-76.6" font-family="monospace" font-size="13.00">3</text>
</g>
<!-- 14 -->
<g id="node3" class="node">
<title>14</title>
<ellipse fill="white" stroke="black" cx="452.21" cy="-32" rx="20.43" ry="20.43"/>
<text text-anchor="middle" x="452.21" y="-28.6" font-family="monospace" font-size="13.00">14</text>
</g>
<!-- lambda -->
<g id="node4" class="node">
<title>lambda</title>
<ellipse fill="white" stroke="black" cx="452.21" cy="-88" rx="18" ry="18"/>
<text text-anchor="middle" x="452.21" y="-84.6" font-family="monospace" font-size="13.00">λ</text>
</g>
<!-- w -->
<g id="node5" class="node">
<title>w</title>
<polygon fill="transparent" stroke="transparent" points="368,-160 344,-160 344,-124 368,-124 368,-160"/>
<text text-anchor="middle" x="356" y="-138.6" font-family="monospace" font-size="13.00">w</text>
</g>
<!-- w&#45;&gt;2 -->
<g id="edge1" class="edge">
<title>w&#45;&gt;2</title>
<path fill="none" stroke="black" d="M368.18,-142C381.79,-142 405.25,-142 423.77,-142"/>
<polygon fill="black" stroke="black" points="423.99,-145.5 433.99,-142 423.99,-138.5 423.99,-145.5"/>
</g>
<!-- f -->
<g id="node6" class="node">
<title>f</title>
<polygon fill="transparent" stroke="transparent" points="368,-106 344,-106 344,-70 368,-70 368,-106"/>
<text text-anchor="middle" x="356" y="-84.6" font-family="monospace" font-size="13.00">f</text>
</g>
<!-- f&#45;&gt;lambda -->
<g id="edge2" class="edge">
<title>f&#45;&gt;lambda</title>
<path fill="none" stroke="black" d="M368.18,-88C381.79,-88 405.25,-88 423.77,-88"/>
<polygon fill="black" stroke="black" points="423.99,-91.5 433.99,-88 423.99,-84.5 423.99,-91.5"/>
</g>
<!-- r -->
<g id="node7" class="node">
<title>r</title>
<polygon fill="transparent" stroke="transparent" points="368,-52 344,-52 344,-16 368,-16 368,-52"/>
<text text-anchor="middle" x="356" y="-30.6" font-family="monospace" font-size="13.00">r</text>
</g>
<!-- r&#45;&gt;14 -->
<g id="edge3" class="edge">
<title>r&#45;&gt;14</title>
<path fill="none" stroke="black" d="M368.18,-33.76C381.3,-33.48 403.57,-33.01 421.75,-32.63"/>
<polygon fill="black" stroke="black" points="421.96,-36.12 431.88,-32.41 421.81,-29.12 421.96,-36.12"/>
</g>
<!-- xl -->
<g id="node8" class="node">
<title>xl</title>
<polygon fill="transparent" stroke="transparent" points="145,-75 121,-75 121,-39 145,-39 145,-75"/>
<text text-anchor="middle" x="133" y="-53.6" font-family="monospace" font-size="13.00">x</text>
</g>
<!-- xl&#45;&gt;3 -->
<g id="edge4" class="edge">
<title>xl&#45;&gt;3</title>
<path fill="none" stroke="black" d="M145.36,-59.04C165.32,-62.63 207.22,-70.16 234.98,-75.14"/>
<polygon fill="black" stroke="black" points="234.39,-78.6 244.85,-76.92 235.63,-71.71 234.39,-78.6"/>
</g>
<!-- xl&#45;&gt;r -->
<g id="edge5" class="edge">
<title>xl&#45;&gt;r</title>
<path fill="none" stroke="black" d="M217,-48.36C244.32,-45.52 274.05,-42.43 298.89,-39.84"/>
<polygon fill="black" stroke="black" points="299.42,-43.3 309,-38.79 298.7,-36.34 299.42,-43.3"/>
</g>
<!-- E -->
<g id="node9" class="node">
<title>E</title>
<polygon fill="transparent" stroke="transparent" points="22,-75 0,-75 0,-39 22,-39 22,-75"/>
<text text-anchor="middle" x="11" y="-53.6" font-family="monospace" font-size="13.00">E</text>
</g>
<!-- E&#45;&gt;xl -->
<g id="edge6" class="edge">
<title>E&#45;&gt;xl</title>
<path fill="none" stroke="black" d="M22.23,-57C26.88,-57 32.85,-57 39.61,-57"/>
<polygon fill="black" stroke="black" points="40,-60.5 50,-57 40,-53.5 40,-60.5"/>
</g>
</g>
</svg>
