<?xml version="1.0" encoding="UTF-8" standalone="no"?>
<!DOCTYPE svg PUBLIC "-//W3C//DTD SVG 1.1//EN"
 "http://www.w3.org/Graphics/SVG/1.1/DTD/svg11.dtd">
<!-- Generated by graphviz version 2.43.0 (0)
 -->
<!-- Title: %3 Pages: 1 -->
<svg width="747pt" height="171pt"
 viewBox="0.00 0.00 747.00 171.00" xmlns="http://www.w3.org/2000/svg" xmlns:xlink="http://www.w3.org/1999/xlink">
<g id="graph0" class="graph" transform="scale(1 1) rotate(0) translate(4 167)">
<title>%3</title>
<g id="clust1" class="cluster">
<title>cluster0</title>
<polygon fill="white" stroke="black" points="580,-8 580,-137 675,-137 675,-8 580,-8"/>
<text text-anchor="middle" x="627.5" y="-121.8" font-family="Lato" font-size="14.00">Marco global</text>
</g>
<g id="clust2" class="cluster">
<title>cluster1</title>
<polygon fill="white" stroke="black" points="321,-26 321,-155 488,-155 488,-26 321,-26"/>
<text text-anchor="middle" x="404.5" y="-139.8" font-family="Lato" font-size="14.00">Marco del primer lambda</text>
</g>
<g id="clust3" class="cluster">
<title>cluster2</title>
<polygon fill="white" stroke="black" points="50,-80 50,-155 229,-155 229,-80 50,-80"/>
<text text-anchor="middle" x="139.5" y="-139.8" font-family="Lato" font-size="14.00">Marco del segundo lambda</text>
</g>
<!-- 2 -->
<g id="node1" class="node">
<title>2</title>
<ellipse fill="white" stroke="black" cx="721" cy="-121" rx="18" ry="18"/>
<text text-anchor="middle" x="721" y="-117.6" font-family="monospace" font-size="13.00">2</text>
</g>
<!-- 4 -->
<g id="node2" class="node">
<title>4</title>
<ellipse fill="white" stroke="black" cx="534" cy="-52" rx="18" ry="18"/>
<text text-anchor="middle" x="534" y="-48.6" font-family="monospace" font-size="13.00">4</text>
</g>
<!-- lambda -->
<g id="node3" class="node">
<title>lambda</title>
<ellipse fill="white" stroke="black" cx="721" cy="-34" rx="18" ry="18"/>
<text text-anchor="middle" x="721" y="-30.6" font-family="monospace" font-size="13.00">λ</text>
</g>
<!-- w -->
<g id="node4" class="node">
<title>w</title>
<polygon fill="transparent" stroke="transparent" points="639,-106 615,-106 615,-70 639,-70 639,-106"/>
<text text-anchor="middle" x="627" y="-84.6" font-family="monospace" font-size="13.00">w</text>
</g>
<!-- w&#45;&gt;2 -->
<g id="edge1" class="edge">
<title>w&#45;&gt;2</title>
<path fill="none" stroke="black" d="M639.28,-92.05C652.82,-96.9 675.96,-105.2 694,-111.67"/>
<polygon fill="black" stroke="black" points="693.06,-115.06 703.66,-115.14 695.43,-108.47 693.06,-115.06"/>
</g>
<!-- f -->
<g id="node5" class="node">
<title>f</title>
<polygon fill="transparent" stroke="transparent" points="639,-52 615,-52 615,-16 639,-16 639,-52"/>
<text text-anchor="middle" x="627" y="-30.6" font-family="monospace" font-size="13.00">f</text>
</g>
<!-- f&#45;&gt;lambda -->
<g id="edge2" class="edge">
<title>f&#45;&gt;lambda</title>
<path fill="none" stroke="black" d="M639.28,-34C652.54,-34 674.98,-34 692.85,-34"/>
<polygon fill="black" stroke="black" points="692.99,-37.5 702.99,-34 692.99,-30.5 692.99,-37.5"/>
</g>
<!-- xl -->
<g id="node6" class="node">
<title>xl</title>
<polygon fill="transparent" stroke="transparent" points="416,-124 392,-124 392,-88 416,-88 416,-124"/>
<text text-anchor="middle" x="404" y="-102.6" font-family="monospace" font-size="13.00">x</text>
</g>
<!-- xl&#45;&gt;2 -->
<g id="edge4" class="edge">
<title>xl&#45;&gt;2</title>
<path fill="none" stroke="black" d="M416.17,-110.12C453.29,-123.25 575.82,-162.05 675,-141 682.08,-139.5 689.4,-136.8 696.02,-133.87"/>
<polygon fill="black" stroke="black" points="697.62,-136.98 705.12,-129.5 694.59,-130.67 697.62,-136.98"/>
</g>
<!-- xl&#45;&gt;w -->
<g id="edge7" class="edge">
<title>xl&#45;&gt;w</title>
<path fill="none" stroke="black" d="M488,-99.24C515.32,-97.01 545.05,-94.59 569.89,-92.57"/>
<polygon fill="black" stroke="black" points="570.32,-96.05 580,-91.75 569.75,-89.07 570.32,-96.05"/>
</g>
<!-- yl -->
<g id="node7" class="node">
<title>yl</title>
<polygon fill="transparent" stroke="transparent" points="416,-70 392,-70 392,-34 416,-34 416,-70"/>
<text text-anchor="middle" x="404" y="-48.6" font-family="monospace" font-size="13.00">y</text>
</g>
<!-- yl&#45;&gt;4 -->
<g id="edge5" class="edge">
<title>yl&#45;&gt;4</title>
<path fill="none" stroke="black" d="M416.36,-52C436.24,-52 477.85,-52 505.61,-52"/>
<polygon fill="black" stroke="black" points="505.85,-55.5 515.85,-52 505.85,-48.5 505.85,-55.5"/>
</g>
<!-- 6 -->
<g id="node8" class="node">
<title>6</title>
<ellipse fill="white" stroke="black" cx="275" cy="-60" rx="18" ry="18"/>
<text text-anchor="middle" x="275" y="-56.6" font-family="monospace" font-size="13.00">6</text>
</g>
<!-- z -->
<g id="node9" class="node">
<title>z</title>
<polygon fill="transparent" stroke="transparent" points="151,-124 127,-124 127,-88 151,-88 151,-124"/>
<text text-anchor="middle" x="139" y="-102.6" font-family="monospace" font-size="13.00">z</text>
</g>
<!-- z&#45;&gt;xl -->
<g id="edge6" class="edge">
<title>z&#45;&gt;xl</title>
<path fill="none" stroke="black" d="M229,-106C255.32,-106 284.19,-106 310.72,-106"/>
<polygon fill="black" stroke="black" points="311,-109.5 321,-106 311,-102.5 311,-109.5"/>
</g>
<!-- z&#45;&gt;6 -->
<g id="edge3" class="edge">
<title>z&#45;&gt;6</title>
<path fill="none" stroke="black" d="M151.42,-102.08C172.71,-94.77 218.93,-78.91 248.13,-68.88"/>
<polygon fill="black" stroke="black" points="249.36,-72.16 257.69,-65.6 247.09,-65.54 249.36,-72.16"/>
</g>
<!-- E -->
<g id="node10" class="node">
<title>E</title>
<polygon fill="transparent" stroke="transparent" points="22,-124 0,-124 0,-88 22,-88 22,-124"/>
<text text-anchor="middle" x="11" y="-102.6" font-family="monospace" font-size="13.00">E</text>
</g>
<!-- E&#45;&gt;z -->
<g id="edge8" class="edge">
<title>E&#45;&gt;z</title>
<path fill="none" stroke="black" d="M22.31,-106C26.94,-106 32.88,-106 39.62,-106"/>
<polygon fill="black" stroke="black" points="40,-109.5 50,-106 40,-102.5 40,-109.5"/>
</g>
</g>
</svg>
