<?xml version="1.0" encoding="UTF-8" standalone="no"?>
<!DOCTYPE svg PUBLIC "-//W3C//DTD SVG 1.1//EN"
 "http://www.w3.org/Graphics/SVG/1.1/DTD/svg11.dtd">
<!-- Generated by graphviz version 14.1.1 (0)
 -->
<!-- Pages: 1 -->
<svg width="475pt" height="174pt"
 viewBox="0.00 0.00 475.00 174.00" xmlns="http://www.w3.org/2000/svg" xmlns:xlink="http://www.w3.org/1999/xlink">
<g id="graph0" class="graph" transform="scale(1 1) rotate(0) translate(4 170)">
<g id="clust1" class="cluster">
<title>cluster0</title>
<polygon fill="white" stroke="black" points="307.9,-8 307.9,-139 402.65,-139 402.65,-8 307.9,-8"/>
<text xml:space="preserve" text-anchor="middle" x="355.27" y="-121.7" font-family="Lato" font-size="14.00">Marco global</text>
</g>
<g id="clust2" class="cluster">
<title>cluster1</title>
<polygon fill="white" stroke="black" points="49.9,-27 49.9,-158 215.9,-158 215.9,-27 49.9,-27"/>
<text xml:space="preserve" text-anchor="middle" x="132.9" y="-140.7" font-family="Lato" font-size="14.00">Marco del primer lambda</text>
</g>
<!-- 2 -->
<g id="node1" class="node">
<title>2</title>
<ellipse fill="white" stroke="black" cx="448.65" cy="-122" rx="18" ry="18"/>
<text xml:space="preserve" text-anchor="middle" x="448.65" y="-117.9" font-family="monospace" font-size="13.00">2</text>
</g>
<!-- 4 -->
<g id="node2" class="node">
<title>4</title>
<ellipse fill="white" stroke="black" cx="261.9" cy="-53" rx="18" ry="18"/>
<text xml:space="preserve" text-anchor="middle" x="261.9" y="-48.9" font-family="monospace" font-size="13.00">4</text>
</g>
<!-- lambda -->
<g id="node3" class="node">
<title>lambda</title>
<ellipse fill="white" stroke="black" cx="448.65" cy="-34" rx="18" ry="18"/>
<text xml:space="preserve" text-anchor="middle" x="448.65" y="-29.9" font-family="monospace" font-size="13.00">λ</text>
</g>
<!-- w -->
<g id="node4" class="node">
<title>w</title>
<polygon fill="none" stroke="none" points="366.52,-106 343.02,-106 343.02,-70 366.52,-70 366.52,-106"/>
<text xml:space="preserve" text-anchor="middle" x="354.77" y="-83.9" font-family="monospace" font-size="13.00">w</text>
</g>
<!-- w&#45;&gt;2 -->
<g id="edge1" class="edge">
<title>w&#45;&gt;2</title>
<path fill="none" stroke="black" d="M366.31,-91.9C379.51,-96.78 402.58,-105.32 420.8,-112.06"/>
<polygon fill="black" stroke="black" points="419.36,-115.26 429.95,-115.45 421.79,-108.7 419.36,-115.26"/>
</g>
<!-- f -->
<g id="node5" class="node">
<title>f</title>
<polygon fill="none" stroke="none" points="366.52,-52 343.02,-52 343.02,-16 366.52,-16 366.52,-52"/>
<text xml:space="preserve" text-anchor="middle" x="354.77" y="-29.9" font-family="monospace" font-size="13.00">f</text>
</g>
<!-- f&#45;&gt;lambda -->
<g id="edge2" class="edge">
<title>f&#45;&gt;lambda</title>
<path fill="none" stroke="black" d="M366.31,-34C379.09,-34 401.13,-34 419.05,-34"/>
<polygon fill="black" stroke="black" points="418.85,-37.5 428.85,-34 418.85,-30.5 418.85,-37.5"/>
</g>
<!-- xl -->
<g id="node6" class="node">
<title>xl</title>
<polygon fill="none" stroke="none" points="144.15,-125 120.65,-125 120.65,-89 144.15,-89 144.15,-125"/>
<text xml:space="preserve" text-anchor="middle" x="132.4" y="-102.9" font-family="monospace" font-size="13.00">x</text>
</g>
<!-- xl&#45;&gt;2 -->
<g id="edge3" class="edge">
<title>xl&#45;&gt;2</title>
<path fill="none" stroke="black" d="M144.03,-111.07C180.46,-124.45 303.43,-165.01 402.65,-143 409.44,-141.49 416.43,-138.85 422.81,-135.93"/>
<polygon fill="black" stroke="black" points="424.09,-139.2 431.47,-131.6 420.96,-132.94 424.09,-139.2"/>
</g>
<!-- xl&#45;&gt;w -->
<g id="edge5" class="edge">
<title>xl&#45;&gt;w</title>
<path fill="none" stroke="black" d="M215.9,-99.89C242.83,-97.57 272.12,-95.04 296.75,-92.92"/>
<polygon fill="black" stroke="black" points="296.73,-96.43 306.39,-92.09 296.13,-89.46 296.73,-96.43"/>
</g>
<!-- yl -->
<g id="node7" class="node">
<title>yl</title>
<polygon fill="none" stroke="none" points="144.15,-71 120.65,-71 120.65,-35 144.15,-35 144.15,-71"/>
<text xml:space="preserve" text-anchor="middle" x="132.4" y="-48.9" font-family="monospace" font-size="13.00">y</text>
</g>
<!-- yl&#45;&gt;4 -->
<g id="edge4" class="edge">
<title>yl&#45;&gt;4</title>
<path fill="none" stroke="black" d="M143.83,-53C162.9,-53 203.98,-53 232.04,-53"/>
<polygon fill="black" stroke="black" points="232.01,-56.5 242.01,-53 232.01,-49.5 232.01,-56.5"/>
</g>
<!-- E -->
<g id="node8" class="node">
<title>E</title>
<polygon fill="none" stroke="none" points="21.9,-125 0,-125 0,-89 21.9,-89 21.9,-125"/>
<text xml:space="preserve" text-anchor="middle" x="10.95" y="-102.9" font-family="monospace" font-size="13.00">E</text>
</g>
<!-- E&#45;&gt;xl -->
<g id="edge6" class="edge">
<title>E&#45;&gt;xl</title>
<path fill="none" stroke="black" d="M21.73,-107C26.27,-107 32.15,-107 38.83,-107"/>
<polygon fill="black" stroke="black" points="38.39,-110.5 48.39,-107 38.39,-103.5 38.39,-110.5"/>
</g>
</g>
</svg>
