<?xml version="1.0" encoding="UTF-8" standalone="no"?>
<!DOCTYPE svg PUBLIC "-//W3C//DTD SVG 1.1//EN"
 "http://www.w3.org/Graphics/SVG/1.1/DTD/svg11.dtd">
<!-- Generated by graphviz version 14.1.1 (0)
 -->
<!-- Pages: 1 -->
<svg width="217pt" height="155pt"
 viewBox="0.00 0.00 217.00 155.00" xmlns="http://www.w3.org/2000/svg" xmlns:xlink="http://www.w3.org/1999/xlink">
<g id="graph0" class="graph" transform="scale(1 1) rotate(0) translate(4 151)">
<g id="clust1" class="cluster">
<title>cluster0</title>
<polygon fill="white" stroke="black" points="49.9,-8 49.9,-139 144.65,-139 144.65,-8 49.9,-8"/>
<text xml:space="preserve" text-anchor="middle" x="97.27" y="-121.7" font-family="Lato" font-size="14.00">Marco global</text>
</g>
<!-- 2 -->
<g id="node1" class="node">
<title>2</title>
<ellipse fill="white" stroke="black" cx="190.65" cy="-88" rx="18" ry="18"/>
<text xml:space="preserve" text-anchor="middle" x="190.65" y="-83.9" font-family="Lato" font-size="13.00">2</text>
</g>
<!-- lambda -->
<g id="node2" class="node">
<title>lambda</title>
<ellipse fill="white" stroke="black" cx="190.65" cy="-34" rx="18" ry="18"/>
<text xml:space="preserve" text-anchor="middle" x="190.65" y="-29.9" font-family="Lato" font-size="13.00">λ</text>
</g>
<!-- w -->
<g id="node3" class="node">
<title>w</title>
<polygon fill="none" stroke="none" points="108.52,-106 85.02,-106 85.02,-70 108.52,-70 108.52,-106"/>
<text xml:space="preserve" text-anchor="middle" x="96.77" y="-83.9" font-family="monospace" font-size="13.00">w</text>
</g>
<!-- w&#45;&gt;2 -->
<g id="edge1" class="edge">
<title>w&#45;&gt;2</title>
<path fill="none" stroke="black" d="M108.31,-88C121.09,-88 143.13,-88 161.05,-88"/>
<polygon fill="black" stroke="black" points="160.85,-91.5 170.85,-88 160.85,-84.5 160.85,-91.5"/>
</g>
<!-- f -->
<g id="node4" class="node">
<title>f</title>
<polygon fill="none" stroke="none" points="108.52,-52 85.02,-52 85.02,-16 108.52,-16 108.52,-52"/>
<text xml:space="preserve" text-anchor="middle" x="96.77" y="-29.9" font-family="monospace" font-size="13.00">f</text>
</g>
<!-- f&#45;&gt;lambda -->
<g id="edge2" class="edge">
<title>f&#45;&gt;lambda</title>
<path fill="none" stroke="black" d="M108.31,-34C121.09,-34 143.13,-34 161.05,-34"/>
<polygon fill="black" stroke="black" points="160.85,-37.5 170.85,-34 160.85,-30.5 160.85,-37.5"/>
</g>
<!-- E -->
<g id="node5" class="node">
<title>E</title>
<polygon fill="none" stroke="none" points="21.9,-106 0,-106 0,-70 21.9,-70 21.9,-106"/>
<text xml:space="preserve" text-anchor="middle" x="10.95" y="-83.9" font-family="Lato" font-size="13.00">E</text>
</g>
<!-- E&#45;&gt;w -->
<g id="edge3" class="edge">
<title>E&#45;&gt;w</title>
<path fill="none" stroke="black" d="M21.9,-88C26.49,-88 32.35,-88 38.75,-88"/>
<polygon fill="black" stroke="black" points="38.39,-91.5 48.39,-88 38.39,-84.5 38.39,-91.5"/>
</g>
</g>
</svg>
