<?xml version="1.0" encoding="UTF-8" standalone="no"?>
<!DOCTYPE svg PUBLIC "-//W3C//DTD SVG 1.1//EN"
 "http://www.w3.org/Graphics/SVG/1.1/DTD/svg11.dtd">
<!-- Generated by graphviz version 14.1.1 (0)
 -->
<!-- Pages: 1 -->
<svg width="745pt" height="157pt"
 viewBox="0.00 0.00 745.00 157.00" xmlns="http://www.w3.org/2000/svg" xmlns:xlink="http://www.w3.org/1999/xlink">
<g id="graph0" class="graph" transform="scale(1 1) rotate(0) translate(4 152.99)">
<g id="clust1" class="cluster">
<title>cluster0</title>
<polygon fill="white" stroke="black" points="578.65,-8 578.65,-139 673.4,-139 673.4,-8 578.65,-8"/>
<text xml:space="preserve" text-anchor="middle" x="626.03" y="-121.7" font-family="Lato" font-size="14.00">Marco global</text>
</g>
<g id="clust2" class="cluster">
<title>cluster1</title>
<polygon fill="white" stroke="black" points="320.65,-8 320.65,-139 486.65,-139 486.65,-8 320.65,-8"/>
<text xml:space="preserve" text-anchor="middle" x="403.65" y="-121.7" font-family="Lato" font-size="14.00">Marco del primer lambda</text>
</g>
<g id="clust3" class="cluster">
<title>cluster2</title>
<polygon fill="white" stroke="black" points="49.9,-39 49.9,-116 228.65,-116 228.65,-39 49.9,-39"/>
<text xml:space="preserve" text-anchor="middle" x="139.28" y="-98.7" font-family="Lato" font-size="14.00">Marco del segundo lambda</text>
</g>
<!-- 2 -->
<g id="node1" class="node">
<title>2</title>
<ellipse fill="white" stroke="black" cx="719.4" cy="-122" rx="18" ry="18"/>
<text xml:space="preserve" text-anchor="middle" x="719.4" y="-117.9" font-family="monospace" font-size="13.00">2</text>
</g>
<!-- 4 -->
<g id="node2" class="node">
<title>4</title>
<ellipse fill="white" stroke="black" cx="532.65" cy="-34" rx="18" ry="18"/>
<text xml:space="preserve" text-anchor="middle" x="532.65" y="-29.9" font-family="monospace" font-size="13.00">4</text>
</g>
<!-- lambda -->
<g id="node3" class="node">
<title>lambda</title>
<ellipse fill="white" stroke="black" cx="719.4" cy="-34" rx="18" ry="18"/>
<text xml:space="preserve" text-anchor="middle" x="719.4" y="-29.9" font-family="monospace" font-size="13.00">λ</text>
</g>
<!-- w -->
<g id="node4" class="node">
<title>w</title>
<polygon fill="none" stroke="none" points="637.28,-106 613.78,-106 613.78,-70 637.28,-70 637.28,-106"/>
<text xml:space="preserve" text-anchor="middle" x="625.53" y="-83.9" font-family="monospace" font-size="13.00">w</text>
</g>
<!-- w&#45;&gt;2 -->
<g id="edge1" class="edge">
<title>w&#45;&gt;2</title>
<path fill="none" stroke="black" d="M637.06,-91.9C650.26,-96.78 673.33,-105.32 691.55,-112.06"/>
<polygon fill="black" stroke="black" points="690.11,-115.26 700.7,-115.45 692.54,-108.7 690.11,-115.26"/>
</g>
<!-- f -->
<g id="node5" class="node">
<title>f</title>
<polygon fill="none" stroke="none" points="637.28,-52 613.78,-52 613.78,-16 637.28,-16 637.28,-52"/>
<text xml:space="preserve" text-anchor="middle" x="625.53" y="-29.9" font-family="monospace" font-size="13.00">f</text>
</g>
<!-- f&#45;&gt;lambda -->
<g id="edge2" class="edge">
<title>f&#45;&gt;lambda</title>
<path fill="none" stroke="black" d="M637.06,-34C649.84,-34 671.88,-34 689.8,-34"/>
<polygon fill="black" stroke="black" points="689.6,-37.5 699.6,-34 689.6,-30.5 689.6,-37.5"/>
</g>
<!-- xl -->
<g id="node6" class="node">
<title>xl</title>
<polygon fill="none" stroke="none" points="414.9,-106 391.4,-106 391.4,-70 414.9,-70 414.9,-106"/>
<text xml:space="preserve" text-anchor="middle" x="403.15" y="-83.9" font-family="monospace" font-size="13.00">x</text>
</g>
<!-- xl&#45;&gt;2 -->
<g id="edge4" class="edge">
<title>xl&#45;&gt;2</title>
<path fill="none" stroke="black" d="M414.9,-92.67C441.82,-104.07 514.6,-133.15 578.65,-143 620.27,-149.4 632.29,-152.12 673.4,-143 680.19,-141.49 687.18,-138.85 693.56,-135.93"/>
<polygon fill="black" stroke="black" points="694.84,-139.2 702.22,-131.6 691.71,-132.94 694.84,-139.2"/>
</g>
<!-- xl&#45;&gt;w -->
<g id="edge7" class="edge">
<title>xl&#45;&gt;w</title>
<path fill="none" stroke="black" d="M486.65,-88C513.46,-88 542.61,-88 567.18,-88"/>
<polygon fill="black" stroke="black" points="567.14,-91.5 577.14,-88 567.14,-84.5 567.14,-91.5"/>
</g>
<!-- yl -->
<g id="node7" class="node">
<title>yl</title>
<polygon fill="none" stroke="none" points="414.9,-52 391.4,-52 391.4,-16 414.9,-16 414.9,-52"/>
<text xml:space="preserve" text-anchor="middle" x="403.15" y="-29.9" font-family="monospace" font-size="13.00">y</text>
</g>
<!-- yl&#45;&gt;4 -->
<g id="edge5" class="edge">
<title>yl&#45;&gt;4</title>
<path fill="none" stroke="black" d="M414.58,-34C433.65,-34 474.73,-34 502.79,-34"/>
<polygon fill="black" stroke="black" points="502.76,-37.5 512.76,-34 502.76,-30.5 502.76,-37.5"/>
</g>
<!-- 6 -->
<g id="node8" class="node">
<title>6</title>
<ellipse fill="white" stroke="black" cx="274.65" cy="-42" rx="18" ry="18"/>
<text xml:space="preserve" text-anchor="middle" x="274.65" y="-37.9" font-family="monospace" font-size="13.00">6</text>
</g>
<!-- z -->
<g id="node9" class="node">
<title>z</title>
<polygon fill="none" stroke="none" points="150.53,-83 127.03,-83 127.03,-47 150.53,-47 150.53,-83"/>
<text xml:space="preserve" text-anchor="middle" x="138.78" y="-60.9" font-family="monospace" font-size="13.00">z</text>
</g>
<!-- z&#45;&gt;xl -->
<g id="edge6" class="edge">
<title>z&#45;&gt;xl</title>
<path fill="none" stroke="black" d="M228.65,-72.79C254.71,-75.08 283.26,-77.58 309.55,-79.88"/>
<polygon fill="black" stroke="black" points="308.88,-83.34 319.14,-80.72 309.49,-76.36 308.88,-83.34"/>
</g>
<!-- z&#45;&gt;6 -->
<g id="edge3" class="edge">
<title>z&#45;&gt;6</title>
<path fill="none" stroke="black" d="M150.28,-63.2C170.54,-59.71 215.64,-51.97 245.33,-46.87"/>
<polygon fill="black" stroke="black" points="245.86,-50.33 255.13,-45.18 244.68,-43.43 245.86,-50.33"/>
</g>
<!-- E -->
<g id="node10" class="node">
<title>E</title>
<polygon fill="none" stroke="none" points="21.9,-83 0,-83 0,-47 21.9,-47 21.9,-83"/>
<text xml:space="preserve" text-anchor="middle" x="10.95" y="-60.9" font-family="monospace" font-size="13.00">E</text>
</g>
<!-- E&#45;&gt;z -->
<g id="edge8" class="edge">
<title>E&#45;&gt;z</title>
<path fill="none" stroke="black" d="M21.82,-65C26.35,-65 32.19,-65 38.85,-65"/>
<polygon fill="black" stroke="black" points="38.39,-68.5 48.39,-65 38.39,-61.5 38.39,-68.5"/>
</g>
</g>
</svg>
