<?xml version="1.0" encoding="UTF-8" standalone="no"?>
<!DOCTYPE svg PUBLIC "-//W3C//DTD SVG 1.1//EN"
 "http://www.w3.org/Graphics/SVG/1.1/DTD/svg11.dtd">
<!-- Generated by graphviz version 14.1.1 (0)
 -->
<!-- Pages: 1 -->
<svg width="223pt" height="209pt"
 viewBox="0.00 0.00 223.00 209.00" xmlns="http://www.w3.org/2000/svg" xmlns:xlink="http://www.w3.org/1999/xlink">
<g id="graph0" class="graph" transform="scale(1 1) rotate(0) translate(4 205)">
<g id="clust1" class="cluster">
<title>cluster0</title>
<polygon fill="white" stroke="black" points="49.9,-8 49.9,-193 144.65,-193 144.65,-8 49.9,-8"/>
<text xml:space="preserve" text-anchor="middle" x="97.28" y="-175.7" font-family="Lato" font-size="14.00">Marco global</text>
</g>
<!-- 2 -->
<g id="node1" class="node">
<title>2</title>
<ellipse fill="white" stroke="black" cx="193.8" cy="-142" rx="18" ry="18"/>
<text xml:space="preserve" text-anchor="middle" x="193.8" y="-137.9" font-family="monospace" font-size="13.00">2</text>
</g>
<!-- 14 -->
<g id="node2" class="node">
<title>14</title>
<ellipse fill="white" stroke="black" cx="193.8" cy="-31" rx="21.15" ry="21.15"/>
<text xml:space="preserve" text-anchor="middle" x="193.8" y="-26.9" font-family="monospace" font-size="13.00">14</text>
</g>
<!-- lambda -->
<g id="node3" class="node">
<title>lambda</title>
<ellipse fill="white" stroke="black" cx="193.8" cy="-88" rx="18" ry="18"/>
<text xml:space="preserve" text-anchor="middle" x="193.8" y="-83.9" font-family="monospace" font-size="13.00">λ</text>
</g>
<!-- w -->
<g id="node4" class="node">
<title>w</title>
<polygon fill="none" stroke="none" points="108.53,-160 85.03,-160 85.03,-124 108.53,-124 108.53,-160"/>
<text xml:space="preserve" text-anchor="middle" x="96.78" y="-137.9" font-family="monospace" font-size="13.00">w</text>
</g>
<!-- w&#45;&gt;2 -->
<g id="edge1" class="edge">
<title>w&#45;&gt;2</title>
<path fill="none" stroke="black" d="M108.31,-142C121.69,-142 145.32,-142 164.19,-142"/>
<polygon fill="black" stroke="black" points="163.96,-145.5 173.96,-142 163.96,-138.5 163.96,-145.5"/>
</g>
<!-- f -->
<g id="node5" class="node">
<title>f</title>
<polygon fill="none" stroke="none" points="108.53,-106 85.03,-106 85.03,-70 108.53,-70 108.53,-106"/>
<text xml:space="preserve" text-anchor="middle" x="96.78" y="-83.9" font-family="monospace" font-size="13.00">f</text>
</g>
<!-- f&#45;&gt;lambda -->
<g id="edge2" class="edge">
<title>f&#45;&gt;lambda</title>
<path fill="none" stroke="black" d="M108.31,-88C121.69,-88 145.32,-88 164.19,-88"/>
<polygon fill="black" stroke="black" points="163.96,-91.5 173.96,-88 163.96,-84.5 163.96,-91.5"/>
</g>
<!-- r -->
<g id="node6" class="node">
<title>r</title>
<polygon fill="none" stroke="none" points="108.53,-52 85.03,-52 85.03,-16 108.53,-16 108.53,-52"/>
<text xml:space="preserve" text-anchor="middle" x="96.78" y="-29.9" font-family="monospace" font-size="13.00">r</text>
</g>
<!-- r&#45;&gt;14 -->
<g id="edge3" class="edge">
<title>r&#45;&gt;14</title>
<path fill="none" stroke="black" d="M108.31,-33.67C120.91,-33.27 142.61,-32.58 160.86,-32.01"/>
<polygon fill="black" stroke="black" points="160.83,-35.51 170.71,-31.7 160.6,-28.51 160.83,-35.51"/>
</g>
<!-- E -->
<g id="node7" class="node">
<title>E</title>
<polygon fill="none" stroke="none" points="21.9,-106 0,-106 0,-70 21.9,-70 21.9,-106"/>
<text xml:space="preserve" text-anchor="middle" x="10.95" y="-83.9" font-family="monospace" font-size="13.00">E</text>
</g>
<!-- E&#45;&gt;f -->
<g id="edge4" class="edge">
<title>E&#45;&gt;f</title>
<path fill="none" stroke="black" d="M21.9,-88C26.49,-88 32.35,-88 38.75,-88"/>
<polygon fill="black" stroke="black" points="38.39,-91.5 48.39,-88 38.39,-84.5 38.39,-91.5"/>
</g>
</g>
</svg>
