<?xml version="1.0" encoding="UTF-8" standalone="no"?>
<!DOCTYPE svg PUBLIC "-//W3C//DTD SVG 1.1//EN"
 "http://www.w3.org/Graphics/SVG/1.1/DTD/svg11.dtd">
<!-- Generated by graphviz version 2.43.0 (0)
 -->
<!-- Title: %3 Pages: 1 -->
<svg width="221pt" height="261pt"
 viewBox="0.00 0.00 221.43 261.00" xmlns="http://www.w3.org/2000/svg" xmlns:xlink="http://www.w3.org/1999/xlink">
<g id="graph0" class="graph" transform="scale(1 1) rotate(0) translate(4 257)">
<title>%3</title>
<g id="clust1" class="cluster">
<title>cluster0</title>
<polygon fill="white" stroke="black" points="50,-8 50,-245 145,-245 145,-8 50,-8"/>
<text text-anchor="middle" x="97.5" y="-229.8" font-family="Lato" font-size="14.00">Marco global</text>
</g>
<!-- 2 -->
<g id="node1" class="node">
<title>2</title>
<ellipse fill="white" stroke="black" cx="193.21" cy="-197" rx="18" ry="18"/>
<text text-anchor="middle" x="193.21" y="-193.6" font-family="monospace" font-size="13.00">2</text>
</g>
<!-- 14 -->
<g id="node2" class="node">
<title>14</title>
<ellipse fill="white" stroke="black" cx="193.21" cy="-87" rx="20.43" ry="20.43"/>
<text text-anchor="middle" x="193.21" y="-83.6" font-family="monospace" font-size="13.00">14</text>
</g>
<!-- 9 -->
<g id="node3" class="node">
<title>9</title>
<ellipse fill="white" stroke="black" cx="193.21" cy="-31" rx="18" ry="18"/>
<text text-anchor="middle" x="193.21" y="-27.6" font-family="monospace" font-size="13.00">9</text>
</g>
<!-- lambda -->
<g id="node4" class="node">
<title>lambda</title>
<ellipse fill="white" stroke="black" cx="193.21" cy="-143" rx="18" ry="18"/>
<text text-anchor="middle" x="193.21" y="-139.6" font-family="monospace" font-size="13.00">λ</text>
</g>
<!-- w -->
<g id="node5" class="node">
<title>w</title>
<polygon fill="transparent" stroke="transparent" points="109,-214 85,-214 85,-178 109,-178 109,-214"/>
<text text-anchor="middle" x="97" y="-192.6" font-family="monospace" font-size="13.00">w</text>
</g>
<!-- w&#45;&gt;2 -->
<g id="edge1" class="edge">
<title>w&#45;&gt;2</title>
<path fill="none" stroke="black" d="M109.18,-196.12C122.79,-196.26 146.25,-196.51 164.77,-196.71"/>
<polygon fill="black" stroke="black" points="164.95,-200.21 174.99,-196.82 165.02,-193.21 164.95,-200.21"/>
</g>
<!-- f -->
<g id="node6" class="node">
<title>f</title>
<polygon fill="transparent" stroke="transparent" points="109,-160 85,-160 85,-124 109,-124 109,-160"/>
<text text-anchor="middle" x="97" y="-138.6" font-family="monospace" font-size="13.00">f</text>
</g>
<!-- f&#45;&gt;lambda -->
<g id="edge2" class="edge">
<title>f&#45;&gt;lambda</title>
<path fill="none" stroke="black" d="M109.18,-142.12C122.79,-142.26 146.25,-142.51 164.77,-142.71"/>
<polygon fill="black" stroke="black" points="164.95,-146.21 174.99,-142.82 165.02,-139.21 164.95,-146.21"/>
</g>
<!-- r -->
<g id="node7" class="node">
<title>r</title>
<polygon fill="transparent" stroke="transparent" points="109,-106 85,-106 85,-70 109,-70 109,-106"/>
<text text-anchor="middle" x="97" y="-84.6" font-family="monospace" font-size="13.00">r</text>
</g>
<!-- r&#45;&gt;14 -->
<g id="edge3" class="edge">
<title>r&#45;&gt;14</title>
<path fill="none" stroke="black" d="M109.18,-87.88C122.3,-87.74 144.57,-87.51 162.75,-87.31"/>
<polygon fill="black" stroke="black" points="162.92,-90.81 172.88,-87.21 162.84,-83.81 162.92,-90.81"/>
</g>
<!-- m -->
<g id="node8" class="node">
<title>m</title>
<polygon fill="transparent" stroke="transparent" points="109,-52 85,-52 85,-16 109,-16 109,-52"/>
<text text-anchor="middle" x="97" y="-30.6" font-family="monospace" font-size="13.00">m</text>
</g>
<!-- m&#45;&gt;9 -->
<g id="edge4" class="edge">
<title>m&#45;&gt;9</title>
<path fill="none" stroke="black" d="M109.18,-33.64C122.79,-33.21 146.25,-32.46 164.77,-31.87"/>
<polygon fill="black" stroke="black" points="165.1,-35.37 174.99,-31.55 164.88,-28.37 165.1,-35.37"/>
</g>
<!-- E -->
<g id="node9" class="node">
<title>E</title>
<polygon fill="transparent" stroke="transparent" points="22,-106 0,-106 0,-70 22,-70 22,-106"/>
<text text-anchor="middle" x="11" y="-84.6" font-family="monospace" font-size="13.00">E</text>
</g>
<!-- E&#45;&gt;r -->
<g id="edge5" class="edge">
<title>E&#45;&gt;r</title>
<path fill="none" stroke="black" d="M22.3,-88C27.11,-88 33.25,-88 39.93,-88"/>
<polygon fill="black" stroke="black" points="40,-91.5 50,-88 40,-84.5 40,-91.5"/>
</g>
</g>
</svg>
