<?xml version="1.0" encoding="UTF-8" standalone="no"?>
<!DOCTYPE svg PUBLIC "-//W3C//DTD SVG 1.1//EN"
 "http://www.w3.org/Graphics/SVG/1.1/DTD/svg11.dtd">
<!-- Generated by graphviz version 2.42.4 (0)
 -->
<!-- Pages: 1 -->
<svg width="477pt" height="207pt"
 viewBox="0.00 0.00 477.43 207.00" xmlns="http://www.w3.org/2000/svg" xmlns:xlink="http://www.w3.org/1999/xlink">
<g id="graph0" class="graph" transform="scale(1 1) rotate(0) translate(4 203)">
<g id="clust1" class="cluster">
<title>cluster0</title>
<polygon fill="white" stroke="black" points="306,-8 306,-191 401,-191 401,-8 306,-8"/>
<text text-anchor="middle" x="353.5" y="-175.8" font-family="Lato" font-size="14.00">Marco global</text>
</g>
<g id="clust2" class="cluster">
<title>cluster1</title>
<polygon fill="white" stroke="black" points="50,-85 50,-160 214,-160 214,-85 50,-85"/>
<text text-anchor="middle" x="132" y="-144.8" font-family="Lato" font-size="14.00">Marco del tercer lambda</text>
</g>
<!-- 2 -->
<g id="node1" class="node">
<title>2</title>
<ellipse fill="white" stroke="black" cx="449.21" cy="-142" rx="18" ry="18"/>
<text text-anchor="middle" x="449.21" y="-138.6" font-family="monospace" font-size="13.00">2</text>
</g>
<!-- 3 -->
<g id="node2" class="node">
<title>3</title>
<ellipse fill="white" stroke="black" cx="260" cy="-134" rx="18" ry="18"/>
<text text-anchor="middle" x="260" y="-130.6" font-family="monospace" font-size="13.00">3</text>
</g>
<!-- 14 -->
<g id="node3" class="node">
<title>14</title>
<ellipse fill="white" stroke="black" cx="449.21" cy="-32" rx="20.43" ry="20.43"/>
<text text-anchor="middle" x="449.21" y="-28.6" font-family="monospace" font-size="13.00">14</text>
</g>
<!-- lambda -->
<g id="node4" class="node">
<title>lambda</title>
<ellipse fill="white" stroke="black" cx="449.21" cy="-88" rx="18" ry="18"/>
<text text-anchor="middle" x="449.21" y="-84.6" font-family="monospace" font-size="13.00">λ</text>
</g>
<!-- w -->
<g id="node5" class="node">
<title>w</title>
<polygon fill="transparent" stroke="transparent" points="365,-160 341,-160 341,-124 365,-124 365,-160"/>
<text text-anchor="middle" x="353" y="-138.6" font-family="monospace" font-size="13.00">w</text>
</g>
<!-- w&#45;&gt;2 -->
<g id="edge1" class="edge">
<title>w&#45;&gt;2</title>
<path fill="none" stroke="black" d="M365.18,-142C378.79,-142 402.25,-142 420.77,-142"/>
<polygon fill="black" stroke="black" points="420.99,-145.5 430.99,-142 420.99,-138.5 420.99,-145.5"/>
</g>
<!-- f -->
<g id="node6" class="node">
<title>f</title>
<polygon fill="transparent" stroke="transparent" points="365,-106 341,-106 341,-70 365,-70 365,-106"/>
<text text-anchor="middle" x="353" y="-84.6" font-family="monospace" font-size="13.00">f</text>
</g>
<!-- f&#45;&gt;lambda -->
<g id="edge2" class="edge">
<title>f&#45;&gt;lambda</title>
<path fill="none" stroke="black" d="M365.18,-88C378.79,-88 402.25,-88 420.77,-88"/>
<polygon fill="black" stroke="black" points="420.99,-91.5 430.99,-88 420.99,-84.5 420.99,-91.5"/>
</g>
<!-- r -->
<g id="node7" class="node">
<title>r</title>
<polygon fill="transparent" stroke="transparent" points="365,-52 341,-52 341,-16 365,-16 365,-52"/>
<text text-anchor="middle" x="353" y="-30.6" font-family="monospace" font-size="13.00">r</text>
</g>
<!-- r&#45;&gt;14 -->
<g id="edge3" class="edge">
<title>r&#45;&gt;14</title>
<path fill="none" stroke="black" d="M365.18,-33.76C378.3,-33.48 400.57,-33.01 418.75,-32.63"/>
<polygon fill="black" stroke="black" points="418.96,-36.12 428.88,-32.41 418.81,-29.12 418.96,-36.12"/>
</g>
<!-- xl -->
<g id="node8" class="node">
<title>xl</title>
<polygon fill="transparent" stroke="transparent" points="144,-129 120,-129 120,-93 144,-93 144,-129"/>
<text text-anchor="middle" x="132" y="-107.6" font-family="monospace" font-size="13.00">x</text>
</g>
<!-- xl&#45;&gt;3 -->
<g id="edge4" class="edge">
<title>xl&#45;&gt;3</title>
<path fill="none" stroke="black" d="M144.18,-113.04C163.75,-116.61 204.71,-124.09 232.04,-129.08"/>
<polygon fill="black" stroke="black" points="231.66,-132.57 242.12,-130.92 232.91,-125.68 231.66,-132.57"/>
</g>
<!-- xl&#45;&gt;f -->
<g id="edge5" class="edge">
<title>xl&#45;&gt;f</title>
<path fill="none" stroke="black" d="M214,-102.49C241.26,-99.63 271.07,-96.5 295.97,-93.88"/>
<polygon fill="black" stroke="black" points="296.42,-97.36 306,-92.83 295.69,-90.39 296.42,-97.36"/>
</g>
<!-- E -->
<g id="node9" class="node">
<title>E</title>
<polygon fill="transparent" stroke="transparent" points="22,-129 0,-129 0,-93 22,-93 22,-129"/>
<text text-anchor="middle" x="11" y="-107.6" font-family="monospace" font-size="13.00">E</text>
</g>
<!-- E&#45;&gt;xl -->
<g id="edge6" class="edge">
<title>E&#45;&gt;xl</title>
<path fill="none" stroke="black" d="M22.15,-111C26.8,-111 32.79,-111 39.57,-111"/>
<polygon fill="black" stroke="black" points="40,-114.5 50,-111 40,-107.5 40,-114.5"/>
</g>
</g>
</svg>
