<?xml version="1.0" encoding="UTF-8" standalone="no"?>
<!DOCTYPE svg PUBLIC "-//W3C//DTD SVG 1.1//EN"
 "http://www.w3.org/Graphics/SVG/1.1/DTD/svg11.dtd">
<!-- Generated by graphviz version 2.40.1 (20161225.0304)
 -->
<!-- Title: %3 Pages: 1 -->
<svg width="576pt" height="336pt"
 viewBox="0.00 0.00 576.00 335.68" xmlns="http://www.w3.org/2000/svg" xmlns:xlink="http://www.w3.org/1999/xlink">
<g id="graph0" class="graph" transform="scale(1.156 1.156) rotate(0) translate(4 286.3818)">
<title>%3</title>
<!-- M -->
<g id="node1" class="node">
<title>M</title>
<ellipse fill="#ffffff" stroke="#000000" cx="375.0128" cy="-263.29" rx="115.0173" ry="19.1842"/>
<text text-anchor="middle" x="375.0128" y="-259.19" font-family="Lato" font-size="17.00" fill="#000000">Cultura matemática</text>
</g>
<!-- G -->
<g id="node2" class="node">
<title>G</title>
<ellipse fill="#ffffff" stroke="#000000" cx="130.8148" cy="-263.29" rx="120.8306" ry="19.1842"/>
<text text-anchor="middle" x="130.8148" y="-259.19" font-family="Lato" font-size="17.00" fill="#000000">Cultura de la gestión</text>
</g>
<!-- I -->
<g id="node3" class="node">
<title>I</title>
<ellipse fill="#ffffff" stroke="#000000" cx="130.8148" cy="-19.0919" rx="130.6298" ry="19.1842"/>
<text text-anchor="middle" x="130.8148" y="-14.9919" font-family="Lato" font-size="17.00" fill="#000000">Cultura de la ingenería</text>
</g>
<!-- H -->
<g id="node4" class="node">
<title>H</title>
<ellipse fill="#ffffff" stroke="#000000" cx="375.0128" cy="-19.0919" rx="88.2768" ry="19.1842"/>
<text text-anchor="middle" x="375.0128" y="-14.9919" font-family="Lato" font-size="17.00" fill="#000000">Cultura hacker</text>
</g>
<!-- P -->
<g id="node5" class="node">
<title>P</title>
<polygon fill="#ffffff" stroke="#000000" points="313.4138,-159.1909 192.4138,-159.1909 192.4138,-123.1909 313.4138,-123.1909 313.4138,-159.1909"/>
<text text-anchor="middle" x="252.9138" y="-137.0909" font-family="Lato" font-size="17.00" fill="#000000">Programación</text>
</g>
<!-- P&#45;&gt;M -->
<g id="edge1" class="edge">
<title>P&#45;&gt;M</title>
<path fill="none" stroke="#000000" d="M278.0523,-166.3294C298.7059,-186.983 327.8676,-216.1447 348.8073,-237.0844"/>
<polygon fill="#000000" stroke="#000000" points="280.4759,-163.8033 270.9299,-159.2071 275.5261,-168.753 280.4759,-163.8033"/>
<polygon fill="#000000" stroke="#000000" points="346.573,-239.7999 356.119,-244.3961 351.5228,-234.8501 346.573,-239.7999"/>
</g>
<!-- P&#45;&gt;G -->
<g id="edge3" class="edge">
<title>P&#45;&gt;G</title>
<path fill="none" stroke="#000000" d="M227.7753,-166.3294C207.1217,-186.983 177.96,-216.1447 157.0203,-237.0844"/>
<polygon fill="#000000" stroke="#000000" points="230.3014,-168.753 234.8977,-159.2071 225.3517,-163.8033 230.3014,-168.753"/>
<polygon fill="#000000" stroke="#000000" points="154.3048,-234.8501 149.7086,-244.3961 159.2546,-239.7999 154.3048,-234.8501"/>
</g>
<!-- P&#45;&gt;I -->
<g id="edge2" class="edge">
<title>P&#45;&gt;I</title>
<path fill="none" stroke="#000000" d="M227.7753,-116.0525C207.1217,-95.3988 177.96,-66.2372 157.0203,-45.2974"/>
<polygon fill="#000000" stroke="#000000" points="225.3517,-118.5786 234.8977,-123.1748 230.3014,-113.6288 225.3517,-118.5786"/>
<polygon fill="#000000" stroke="#000000" points="159.2546,-42.582 149.7086,-37.9857 154.3048,-47.5317 159.2546,-42.582"/>
</g>
<!-- P&#45;&gt;H -->
<g id="edge4" class="edge">
<title>P&#45;&gt;H</title>
<path fill="none" stroke="#000000" d="M278.0523,-116.0525C298.7059,-95.3988 327.8676,-66.2372 348.8073,-45.2974"/>
<polygon fill="#000000" stroke="#000000" points="275.5261,-113.6288 270.9299,-123.1748 280.4759,-118.5786 275.5261,-113.6288"/>
<polygon fill="#000000" stroke="#000000" points="351.5228,-47.5317 356.119,-37.9857 346.573,-42.582 351.5228,-47.5317"/>
</g>
</g>
</svg>
