<?xml version="1.0" encoding="UTF-8" standalone="no"?>
<!DOCTYPE svg PUBLIC "-//W3C//DTD SVG 1.1//EN"
 "http://www.w3.org/Graphics/SVG/1.1/DTD/svg11.dtd">
<!-- Generated by graphviz version 2.43.0 (0)
 -->
<!-- Title: %3 Pages: 1 -->
<svg width="864pt" height="242pt"
 viewBox="0.00 0.00 864.00 242.16" xmlns="http://www.w3.org/2000/svg" xmlns:xlink="http://www.w3.org/1999/xlink">
<g id="graph0" class="graph" transform="scale(1 1) rotate(0) translate(4 238.16)">
<title>%3</title>
<!-- I -->
<g id="node1" class="node">
<title>I</title>
<polygon fill="white" stroke="black" points="101,-113.16 0,-113.16 0,-77.16 101,-77.16 101,-113.16"/>
<text text-anchor="middle" x="50.5" y="-91.36" font-family="Lato" font-size="16.00">Información</text>
</g>
<!-- D -->
<g id="node2" class="node">
<title>D</title>
<polygon fill="white" stroke="black" points="307,-113.16 249,-113.16 249,-77.16 307,-77.16 307,-113.16"/>
<text text-anchor="middle" x="278" y="-91.36" font-family="Lato" font-size="16.00">Datos</text>
</g>
<!-- I&#45;&gt;D -->
<g id="edge2" class="edge">
<title>I:s&#45;&gt;D:s</title>
<path fill="none" stroke="black" d="M50.5,-76.16C50.5,21.49 262.71,24.83 277.22,-66.15"/>
<polygon fill="black" stroke="black" points="273.73,-66.46 278,-76.16 280.71,-65.92 273.73,-66.46"/>
<text text-anchor="middle" x="175" y="-36.96" font-family="Lato" font-size="14.00">Se codifica</text>
<text text-anchor="middle" x="175" y="-21.96" font-family="Lato" font-size="14.00">en forma de</text>
</g>
<!-- D&#45;&gt;I -->
<g id="edge1" class="edge">
<title>D:n&#45;&gt;I:n</title>
<path fill="none" stroke="black" d="M278,-114.16C278,-211.82 65.79,-215.15 51.28,-124.18"/>
<polygon fill="black" stroke="black" points="54.77,-123.86 50.5,-114.16 47.79,-124.4 54.77,-123.86"/>
<text text-anchor="middle" x="175" y="-222.96" font-family="Lato" font-size="14.00">Cuando los interpreta</text>
<text text-anchor="middle" x="175" y="-207.96" font-family="Lato" font-size="14.00">un ser humano,</text>
<text text-anchor="middle" x="175" y="-192.96" font-family="Lato" font-size="14.00">se obtiene</text>
</g>
<!-- V -->
<g id="node3" class="node">
<title>V</title>
<polygon fill="white" stroke="black" points="455,-113.16 387,-113.16 387,-77.16 455,-77.16 455,-113.16"/>
<text text-anchor="middle" x="421" y="-91.36" font-family="Lato" font-size="16.00">Valores</text>
</g>
<!-- D&#45;&gt;V -->
<g id="edge3" class="edge">
<title>D:e&#45;&gt;V:w</title>
<path fill="none" stroke="black" d="M307,-95.16C338.94,-95.16 349.36,-95.16 376.94,-95.16"/>
<polygon fill="black" stroke="black" points="377,-98.66 387,-95.16 377,-91.66 377,-98.66"/>
<text text-anchor="middle" x="347" y="-98.96" font-family="Lato" font-size="14.00">Poseen</text>
</g>
<!-- T -->
<g id="node4" class="node">
<title>T</title>
<polygon fill="white" stroke="black" points="625,-113.16 571,-113.16 571,-77.16 625,-77.16 625,-113.16"/>
<text text-anchor="middle" x="598" y="-91.36" font-family="Lato" font-size="16.00">Tipo</text>
</g>
<!-- V&#45;&gt;T -->
<g id="edge4" class="edge">
<title>V:n&#45;&gt;T:n</title>
<path fill="none" stroke="black" d="M421,-114.16C421,-189.29 582.45,-192.67 596.96,-124.29"/>
<polygon fill="black" stroke="black" points="600.46,-124.47 598,-114.16 593.5,-123.75 600.46,-124.47"/>
<text text-anchor="middle" x="513" y="-176.96" font-family="Lato" font-size="14.00">Pertenecen a un</text>
</g>
<!-- T&#45;&gt;V -->
<g id="edge5" class="edge">
<title>T:s&#45;&gt;V:s</title>
<path fill="none" stroke="black" d="M598,-76.16C598,-1.03 436.55,2.35 422.04,-66.04"/>
<polygon fill="black" stroke="black" points="418.54,-65.86 421,-76.16 425.5,-66.57 418.54,-65.86"/>
<text text-anchor="middle" x="513" y="-45.96" font-family="Lato" font-size="14.00">Determina</text>
<text text-anchor="middle" x="513" y="-30.96" font-family="Lato" font-size="14.00">un conjunto de</text>
</g>
<!-- O -->
<g id="node5" class="node">
<title>O</title>
<polygon fill="white" stroke="black" points="856,-113.16 751,-113.16 751,-77.16 856,-77.16 856,-113.16"/>
<text text-anchor="middle" x="803.5" y="-91.36" font-family="Lato" font-size="16.00">Operaciones</text>
</g>
<!-- T&#45;&gt;O -->
<g id="edge6" class="edge">
<title>T&#45;&gt;O</title>
<path fill="none" stroke="black" d="M625.19,-95.16C654.16,-95.16 701.85,-95.16 740.48,-95.16"/>
<polygon fill="black" stroke="black" points="740.6,-98.66 750.6,-95.16 740.6,-91.66 740.6,-98.66"/>
<text text-anchor="middle" x="688" y="-113.96" font-family="Lato" font-size="14.00">Determina</text>
<text text-anchor="middle" x="688" y="-98.96" font-family="Lato" font-size="14.00">un conjunto de</text>
</g>
</g>
</svg>
