<?xml version="1.0" encoding="UTF-8" standalone="no"?>
<!DOCTYPE svg PUBLIC "-//W3C//DTD SVG 1.1//EN"
 "http://www.w3.org/Graphics/SVG/1.1/DTD/svg11.dtd">
<!-- Generated by graphviz version 2.43.0 (0)
 -->
<!-- Title: %3 Pages: 1 -->
<svg width="946pt" height="96pt"
 viewBox="0.00 0.00 946.00 96.42" xmlns="http://www.w3.org/2000/svg" xmlns:xlink="http://www.w3.org/1999/xlink">
<g id="graph0" class="graph" transform="scale(1 1) rotate(0) translate(4 92.42)">
<title>%3</title>
<!-- I -->
<g id="node1" class="node">
<title>I</title>
<polygon fill="white" stroke="black" points="86,-69.42 0,-69.42 0,-33.42 86,-33.42 86,-69.42"/>
<text text-anchor="middle" x="43" y="-48.02" font-family="Lato" font-size="13.00">Información</text>
</g>
<!-- D -->
<g id="node2" class="node">
<title>D</title>
<polygon fill="white" stroke="black" points="314,-69.42 260,-69.42 260,-33.42 314,-33.42 314,-69.42"/>
<text text-anchor="middle" x="287" y="-48.02" font-family="Lato" font-size="13.00">Datos</text>
</g>
<!-- I&#45;&gt;D -->
<g id="edge2" class="edge">
<title>I&#45;&gt;D</title>
<path fill="none" stroke="black" d="M86.3,-64.97C92.19,-66.39 98.21,-67.61 104,-68.42 164.75,-76.86 181.71,-79.66 242,-68.42 244.7,-67.92 247.45,-67.25 250.18,-66.48"/>
<polygon fill="black" stroke="black" points="251.52,-69.73 259.94,-63.29 249.34,-63.07 251.52,-69.73"/>
<text text-anchor="middle" x="173" y="-78.82" font-family="Lato" font-size="12.00">Se codifica en forma de</text>
</g>
<!-- D&#45;&gt;I -->
<g id="edge1" class="edge">
<title>D&#45;&gt;I</title>
<path fill="none" stroke="black" d="M269.87,-33.1C262.24,-25.81 252.5,-18.25 242,-14.42 184.38,6.59 163.01,2.31 104,-14.42 93.93,-17.27 83.9,-22.35 75,-27.84"/>
<polygon fill="black" stroke="black" points="72.95,-25 66.51,-33.41 76.79,-30.85 72.95,-25"/>
<text text-anchor="middle" x="173" y="-30.82" font-family="Lato" font-size="12.00">Cuando lo interpreta</text>
<text text-anchor="middle" x="173" y="-17.82" font-family="Lato" font-size="12.00">un ser humano, se obtiene</text>
</g>
<!-- V -->
<g id="node3" class="node">
<title>V</title>
<polygon fill="white" stroke="black" points="447,-69.42 388,-69.42 388,-33.42 447,-33.42 447,-69.42"/>
<text text-anchor="middle" x="417.5" y="-48.02" font-family="Lato" font-size="13.00">Valores</text>
</g>
<!-- D&#45;&gt;V -->
<g id="edge3" class="edge">
<title>D&#45;&gt;V</title>
<path fill="none" stroke="black" d="M314,-51.42C332.32,-51.42 357.16,-51.42 377.8,-51.42"/>
<polygon fill="black" stroke="black" points="377.85,-54.92 387.85,-51.42 377.85,-47.92 377.85,-54.92"/>
<text text-anchor="middle" x="351" y="-54.82" font-family="Lato" font-size="12.00">Poseen</text>
</g>
<!-- T -->
<g id="node4" class="node">
<title>T</title>
<polygon fill="white" stroke="black" points="675,-69.42 621,-69.42 621,-33.42 675,-33.42 675,-69.42"/>
<text text-anchor="middle" x="648" y="-48.02" font-family="Lato" font-size="13.00">Tipo</text>
</g>
<!-- V&#45;&gt;T -->
<g id="edge4" class="edge">
<title>V&#45;&gt;T</title>
<path fill="none" stroke="black" d="M447.37,-58.62C453.17,-59.78 459.25,-60.81 465,-61.42 525.99,-67.9 542.05,-68.26 603,-61.42 605.52,-61.14 608.11,-60.77 610.7,-60.33"/>
<polygon fill="black" stroke="black" points="611.48,-63.75 620.64,-58.42 610.16,-56.87 611.48,-63.75"/>
<text text-anchor="middle" x="534" y="-68.82" font-family="Lato" font-size="12.00">Pertenecen a un</text>
</g>
<!-- T&#45;&gt;V -->
<g id="edge5" class="edge">
<title>T&#45;&gt;V</title>
<path fill="none" stroke="black" d="M629.86,-33.34C622.34,-26.67 612.95,-19.89 603,-16.42 545.1,3.8 523.17,3.03 465,-16.42 457.88,-18.8 450.99,-22.74 444.77,-27.14"/>
<polygon fill="black" stroke="black" points="442.55,-24.44 436.78,-33.32 446.83,-29.98 442.55,-24.44"/>
<text text-anchor="middle" x="534" y="-19.82" font-family="Lato" font-size="12.00">Determina un conjunto de</text>
</g>
<!-- O -->
<g id="node5" class="node">
<title>O</title>
<polygon fill="white" stroke="black" points="938,-69.42 849,-69.42 849,-33.42 938,-33.42 938,-69.42"/>
<text text-anchor="middle" x="893.5" y="-48.02" font-family="Lato" font-size="13.00">Operaciones</text>
</g>
<!-- T&#45;&gt;O -->
<g id="edge6" class="edge">
<title>T&#45;&gt;O</title>
<path fill="none" stroke="black" d="M675.06,-51.42C713.85,-51.42 787.67,-51.42 838.45,-51.42"/>
<polygon fill="black" stroke="black" points="838.6,-54.92 848.6,-51.42 838.6,-47.92 838.6,-54.92"/>
<text text-anchor="middle" x="762" y="-54.82" font-family="Lato" font-size="12.00">Determina un conjunto de</text>
</g>
</g>
</svg>
