<?xml version="1.0" encoding="UTF-8" standalone="no"?>
<!DOCTYPE svg PUBLIC "-//W3C//DTD SVG 1.1//EN"
 "http://www.w3.org/Graphics/SVG/1.1/DTD/svg11.dtd">
<!-- Generated by graphviz version 14.1.1 (0)
 -->
<!-- Pages: 1 -->
<svg width="941pt" height="104pt"
 viewBox="0.00 0.00 941.00 104.00" xmlns="http://www.w3.org/2000/svg" xmlns:xlink="http://www.w3.org/1999/xlink">
<g id="graph0" class="graph" transform="scale(1 1) rotate(0) translate(4 100.11)">
<!-- I -->
<g id="node1" class="node">
<title>I</title>
<polygon fill="white" stroke="black" points="85,-71.92 0,-71.92 0,-35.92 85,-35.92 85,-71.92"/>
<text xml:space="preserve" text-anchor="middle" x="42.5" y="-49.82" font-family="Lato" font-size="13.00">Información</text>
</g>
<!-- D -->
<g id="node2" class="node">
<title>D</title>
<polygon fill="white" stroke="black" points="312.25,-71.92 258.25,-71.92 258.25,-35.92 312.25,-35.92 312.25,-71.92"/>
<text xml:space="preserve" text-anchor="middle" x="285.25" y="-49.82" font-family="Lato" font-size="13.00">Datos</text>
</g>
<!-- I&#45;&gt;D -->
<g id="edge2" class="edge">
<title>I&#45;&gt;D</title>
<path fill="none" stroke="black" d="M85.37,-69.06C91.22,-70.65 97.21,-72.02 103,-72.92 163.27,-82.31 180.51,-85.27 240.25,-72.92 242.54,-72.45 244.86,-71.85 247.17,-71.16"/>
<polygon fill="black" stroke="black" points="248.15,-74.53 256.4,-67.88 245.8,-67.93 248.15,-74.53"/>
<text xml:space="preserve" text-anchor="middle" x="171.62" y="-84.71" font-family="Lato" font-size="12.00">Se codifica en forma de</text>
</g>
<!-- D&#45;&gt;I -->
<g id="edge1" class="edge">
<title>D&#45;&gt;I</title>
<path fill="none" stroke="black" d="M269.1,-35.45C261.39,-27.52 251.32,-19.12 240.25,-14.92 183.22,6.72 161.45,2.53 103,-14.92 92.94,-17.92 83,-23.23 74.21,-28.98"/>
<polygon fill="black" stroke="black" points="72.24,-26.09 66.07,-34.7 76.26,-31.82 72.24,-26.09"/>
<text xml:space="preserve" text-anchor="middle" x="171.62" y="-33.52" font-family="Lato" font-size="12.00">Cuando lo interpreta</text>
<text xml:space="preserve" text-anchor="middle" x="171.62" y="-18.52" font-family="Lato" font-size="12.00">un ser humano, se obtiene</text>
</g>
<!-- V -->
<g id="node3" class="node">
<title>V</title>
<polygon fill="white" stroke="black" points="443.75,-71.92 385.75,-71.92 385.75,-35.92 443.75,-35.92 443.75,-71.92"/>
<text xml:space="preserve" text-anchor="middle" x="414.75" y="-49.82" font-family="Lato" font-size="13.00">Valores</text>
</g>
<!-- D&#45;&gt;V -->
<g id="edge3" class="edge">
<title>D&#45;&gt;V</title>
<path fill="none" stroke="black" d="M312.67,-53.92C330.47,-53.92 354.28,-53.92 374.31,-53.92"/>
<polygon fill="black" stroke="black" points="374.08,-57.42 384.08,-53.92 374.08,-50.42 374.08,-57.42"/>
<text xml:space="preserve" text-anchor="middle" x="349" y="-57.52" font-family="Lato" font-size="12.00">Poseen</text>
</g>
<!-- T -->
<g id="node4" class="node">
<title>T</title>
<polygon fill="white" stroke="black" points="671,-71.92 617,-71.92 617,-35.92 671,-35.92 671,-71.92"/>
<text xml:space="preserve" text-anchor="middle" x="644" y="-49.82" font-family="Lato" font-size="13.00">Tipo</text>
</g>
<!-- V&#45;&gt;T -->
<g id="edge4" class="edge">
<title>V&#45;&gt;T</title>
<path fill="none" stroke="black" d="M443.78,-61.73C449.67,-63.05 455.88,-64.23 461.75,-64.92 522.33,-72.06 538.46,-72.37 599,-64.92 601.17,-64.65 603.38,-64.31 605.61,-63.92"/>
<polygon fill="black" stroke="black" points="606.12,-67.39 615.19,-61.92 604.69,-60.54 606.12,-67.39"/>
<text xml:space="preserve" text-anchor="middle" x="530.38" y="-73.99" font-family="Lato" font-size="12.00">Pertenecen a un</text>
</g>
<!-- T&#45;&gt;V -->
<g id="edge5" class="edge">
<title>T&#45;&gt;V</title>
<path fill="none" stroke="black" d="M626.37,-35.71C618.79,-28.73 609.22,-21.57 599,-17.92 541.55,2.59 519.42,1.96 461.75,-17.92 454.83,-20.31 448.15,-24.21 442.14,-28.58"/>
<polygon fill="black" stroke="black" points="440.06,-25.76 434.46,-34.75 444.45,-31.22 440.06,-25.76"/>
<text xml:space="preserve" text-anchor="middle" x="530.38" y="-21.52" font-family="Lato" font-size="12.00">Determina un conjunto de</text>
</g>
<!-- O -->
<g id="node5" class="node">
<title>O</title>
<polygon fill="white" stroke="black" points="933,-71.92 844.25,-71.92 844.25,-35.92 933,-35.92 933,-71.92"/>
<text xml:space="preserve" text-anchor="middle" x="888.62" y="-49.82" font-family="Lato" font-size="13.00">Operaciones</text>
</g>
<!-- T&#45;&gt;O -->
<g id="edge6" class="edge">
<title>T&#45;&gt;O</title>
<path fill="none" stroke="black" d="M671.43,-53.92C709.94,-53.92 782.37,-53.92 832.73,-53.92"/>
<polygon fill="black" stroke="black" points="832.56,-57.42 842.56,-53.92 832.56,-50.42 832.56,-57.42"/>
<text xml:space="preserve" text-anchor="middle" x="757.62" y="-57.52" font-family="Lato" font-size="12.00">Determina un conjunto de</text>
</g>
</g>
</svg>
