<?xml version="1.0" encoding="UTF-8" standalone="no"?>
<!DOCTYPE svg PUBLIC "-//W3C//DTD SVG 1.1//EN"
 "http://www.w3.org/Graphics/SVG/1.1/DTD/svg11.dtd">
<!-- Generated by graphviz version 14.1.2 (0)
 -->
<!-- Pages: 1 -->
<svg width="859pt" height="249pt"
 viewBox="0.00 0.00 859.00 249.00" xmlns="http://www.w3.org/2000/svg" xmlns:xlink="http://www.w3.org/1999/xlink">
<g id="graph0" class="graph" transform="scale(1 1) rotate(0) translate(4 244.94)">
<!-- I -->
<g id="node1" class="node">
<title>I</title>
<polygon fill="white" stroke="black" points="100.75,-112.77 0,-112.77 0,-76.77 100.75,-76.77 100.75,-112.77"/>
<text xml:space="preserve" text-anchor="middle" x="50.38" y="-89.7" font-family="Lato" font-size="16.00">Información</text>
</g>
<!-- D -->
<g id="node2" class="node">
<title>D</title>
<polygon fill="white" stroke="black" points="305.25,-112.77 248,-112.77 248,-76.77 305.25,-76.77 305.25,-112.77"/>
<text xml:space="preserve" text-anchor="middle" x="276.62" y="-89.7" font-family="Lato" font-size="16.00">Datos</text>
</g>
<!-- I&#45;&gt;D -->
<g id="edge2" class="edge">
<title>I:s&#45;&gt;D:s</title>
<path fill="none" stroke="black" d="M50.38,-75.77C50.38,20.85 259.29,24.63 275.62,-64.45"/>
<polygon fill="black" stroke="black" points="272.12,-64.62 276.49,-74.27 279.09,-63.99 272.12,-64.62"/>
<text xml:space="preserve" text-anchor="middle" x="174.38" y="-38.93" font-family="Lato" font-size="14.00">Se codifica</text>
<text xml:space="preserve" text-anchor="middle" x="174.38" y="-21.68" font-family="Lato" font-size="14.00">en forma de</text>
</g>
<!-- D&#45;&gt;I -->
<g id="edge1" class="edge">
<title>D:n&#45;&gt;I:n</title>
<path fill="none" stroke="black" d="M276.62,-113.77C276.62,-210.4 67.71,-214.18 51.38,-125.1"/>
<polygon fill="black" stroke="black" points="54.88,-124.93 50.51,-115.28 47.91,-125.55 54.88,-124.93"/>
<text xml:space="preserve" text-anchor="middle" x="174.38" y="-227.64" font-family="Lato" font-size="14.00">Cuando los interpreta</text>
<text xml:space="preserve" text-anchor="middle" x="174.38" y="-210.39" font-family="Lato" font-size="14.00">un ser humano,</text>
<text xml:space="preserve" text-anchor="middle" x="174.38" y="-193.14" font-family="Lato" font-size="14.00">se obtiene</text>
</g>
<!-- V -->
<g id="node3" class="node">
<title>V</title>
<polygon fill="white" stroke="black" points="451.25,-112.77 384.25,-112.77 384.25,-76.77 451.25,-76.77 451.25,-112.77"/>
<text xml:space="preserve" text-anchor="middle" x="417.75" y="-89.7" font-family="Lato" font-size="16.00">Valores</text>
</g>
<!-- D&#45;&gt;V -->
<g id="edge3" class="edge">
<title>D:e&#45;&gt;V:w</title>
<path fill="none" stroke="black" d="M305.25,-94.77C336.25,-94.77 346.72,-94.77 372.91,-94.77"/>
<polygon fill="black" stroke="black" points="372.74,-98.27 382.74,-94.77 372.74,-91.27 372.74,-98.27"/>
<text xml:space="preserve" text-anchor="middle" x="344.75" y="-98.72" font-family="Lato" font-size="14.00">Poseen</text>
</g>
<!-- T -->
<g id="node4" class="node">
<title>T</title>
<polygon fill="white" stroke="black" points="621,-112.77 567,-112.77 567,-76.77 621,-76.77 621,-112.77"/>
<text xml:space="preserve" text-anchor="middle" x="594" y="-89.7" font-family="Lato" font-size="16.00">Tipo</text>
</g>
<!-- V&#45;&gt;T -->
<g id="edge4" class="edge">
<title>V:n&#45;&gt;T:n</title>
<path fill="none" stroke="black" d="M417.75,-113.77C417.75,-188.13 576.55,-191.9 592.68,-125.1"/>
<polygon fill="black" stroke="black" points="596.15,-125.61 593.83,-115.28 589.19,-124.81 596.15,-125.61"/>
<text xml:space="preserve" text-anchor="middle" x="509.12" y="-176.47" font-family="Lato" font-size="14.00">Pertenecen a un</text>
</g>
<!-- T&#45;&gt;V -->
<g id="edge5" class="edge">
<title>T:s&#45;&gt;V:s</title>
<path fill="none" stroke="black" d="M594,-75.77C594,-1.42 435.2,2.36 419.07,-64.45"/>
<polygon fill="black" stroke="black" points="415.6,-63.93 417.92,-74.27 422.56,-64.74 415.6,-63.93"/>
<text xml:space="preserve" text-anchor="middle" x="509.12" y="-47.62" font-family="Lato" font-size="14.00">Determina</text>
<text xml:space="preserve" text-anchor="middle" x="509.12" y="-30.37" font-family="Lato" font-size="14.00">un conjunto de</text>
</g>
<!-- O -->
<g id="node5" class="node">
<title>O</title>
<polygon fill="white" stroke="black" points="851,-112.77 746.5,-112.77 746.5,-76.77 851,-76.77 851,-112.77"/>
<text xml:space="preserve" text-anchor="middle" x="798.75" y="-89.7" font-family="Lato" font-size="16.00">Operaciones</text>
</g>
<!-- T&#45;&gt;O -->
<g id="edge6" class="edge">
<title>T&#45;&gt;O</title>
<path fill="none" stroke="black" d="M621.09,-94.77C649.71,-94.77 696.67,-94.77 734.98,-94.77"/>
<polygon fill="black" stroke="black" points="734.53,-98.27 744.53,-94.77 734.53,-91.27 734.53,-98.27"/>
<text xml:space="preserve" text-anchor="middle" x="683.75" y="-115.97" font-family="Lato" font-size="14.00">Determina</text>
<text xml:space="preserve" text-anchor="middle" x="683.75" y="-98.72" font-family="Lato" font-size="14.00">un conjunto de</text>
</g>
</g>
</svg>
