<?xml version="1.0" encoding="UTF-8" standalone="no"?>
<!DOCTYPE svg PUBLIC "-//W3C//DTD SVG 1.1//EN"
 "http://www.w3.org/Graphics/SVG/1.1/DTD/svg11.dtd">
<!-- Generated by graphviz version 2.43.0 (0)
 -->
<!-- Title: %3 Pages: 1 -->
<svg width="950pt" height="85pt"
 viewBox="0.00 0.00 950.00 84.92" xmlns="http://www.w3.org/2000/svg" xmlns:xlink="http://www.w3.org/1999/xlink">
<g id="graph0" class="graph" transform="scale(1 1) rotate(0) translate(4 80.92)">
<title>%3</title>
<!-- I -->
<g id="node1" class="node">
<title>I</title>
<polygon fill="white" stroke="black" points="86,-67.92 0,-67.92 0,-31.92 86,-31.92 86,-67.92"/>
<text text-anchor="middle" x="43" y="-46.52" font-family="Lato" font-size="13.00">Información</text>
</g>
<!-- D -->
<g id="node2" class="node">
<title>D</title>
<polygon fill="white" stroke="black" points="318,-67.92 264,-67.92 264,-31.92 318,-31.92 318,-67.92"/>
<text text-anchor="middle" x="291" y="-46.52" font-family="Lato" font-size="13.00">Datos</text>
</g>
<!-- I&#45;&gt;D -->
<g id="edge2" class="edge">
<title>I&#45;&gt;D</title>
<path fill="none" stroke="black" d="M86.18,-57.85C92.14,-58.71 98.21,-59.44 104,-59.92 166.9,-65.13 183.28,-66.96 246,-59.92 248.52,-59.64 251.11,-59.27 253.7,-58.84"/>
<polygon fill="black" stroke="black" points="254.48,-62.25 263.64,-56.92 253.16,-55.38 254.48,-62.25"/>
<text text-anchor="middle" x="175" y="-67.32" font-family="Lato" font-size="12.00">Se codifica en forma de</text>
</g>
<!-- D&#45;&gt;I -->
<g id="edge1" class="edge">
<title>D&#45;&gt;I</title>
<path fill="none" stroke="black" d="M269.94,-31.91C262.88,-26.67 254.55,-21.63 246,-18.92 185.84,0.14 165.33,-4.02 104,-18.92 96.31,-20.79 88.5,-23.83 81.18,-27.29"/>
<polygon fill="black" stroke="black" points="79.53,-24.2 72.2,-31.85 82.7,-30.45 79.53,-24.2"/>
<text text-anchor="middle" x="175" y="-22.32" font-family="Lato" font-size="12.00">Al interpretarse, se obtiene</text>
</g>
<!-- V -->
<g id="node3" class="node">
<title>V</title>
<polygon fill="white" stroke="black" points="451,-67.92 392,-67.92 392,-31.92 451,-31.92 451,-67.92"/>
<text text-anchor="middle" x="421.5" y="-46.52" font-family="Lato" font-size="13.00">Valores</text>
</g>
<!-- D&#45;&gt;V -->
<g id="edge3" class="edge">
<title>D&#45;&gt;V</title>
<path fill="none" stroke="black" d="M318,-49.92C336.32,-49.92 361.16,-49.92 381.8,-49.92"/>
<polygon fill="black" stroke="black" points="381.85,-53.42 391.85,-49.92 381.85,-46.42 381.85,-53.42"/>
<text text-anchor="middle" x="355" y="-53.32" font-family="Lato" font-size="12.00">Poseen</text>
</g>
<!-- T -->
<g id="node4" class="node">
<title>T</title>
<polygon fill="white" stroke="black" points="679,-67.92 625,-67.92 625,-31.92 679,-31.92 679,-67.92"/>
<text text-anchor="middle" x="652" y="-46.52" font-family="Lato" font-size="13.00">Tipo</text>
</g>
<!-- V&#45;&gt;T -->
<g id="edge4" class="edge">
<title>V&#45;&gt;T</title>
<path fill="none" stroke="black" d="M451.37,-57.12C457.17,-58.29 463.25,-59.31 469,-59.92 529.99,-66.41 546.05,-66.76 607,-59.92 609.52,-59.64 612.11,-59.27 614.7,-58.84"/>
<polygon fill="black" stroke="black" points="615.48,-62.25 624.64,-56.92 614.16,-55.38 615.48,-62.25"/>
<text text-anchor="middle" x="538" y="-67.32" font-family="Lato" font-size="12.00">Pertenecen a un</text>
</g>
<!-- T&#45;&gt;V -->
<g id="edge5" class="edge">
<title>T&#45;&gt;V</title>
<path fill="none" stroke="black" d="M633.86,-31.84C626.34,-25.17 616.95,-18.4 607,-14.92 549.1,5.3 527.17,4.52 469,-14.92 461.88,-17.3 454.99,-21.25 448.77,-25.65"/>
<polygon fill="black" stroke="black" points="446.55,-22.94 440.78,-31.82 450.83,-28.48 446.55,-22.94"/>
<text text-anchor="middle" x="538" y="-18.32" font-family="Lato" font-size="12.00">Determina un conjunto de</text>
</g>
<!-- O -->
<g id="node5" class="node">
<title>O</title>
<polygon fill="white" stroke="black" points="942,-67.92 853,-67.92 853,-31.92 942,-31.92 942,-67.92"/>
<text text-anchor="middle" x="897.5" y="-46.52" font-family="Lato" font-size="13.00">Operaciones</text>
</g>
<!-- T&#45;&gt;O -->
<g id="edge6" class="edge">
<title>T&#45;&gt;O</title>
<path fill="none" stroke="black" d="M679.06,-49.92C717.85,-49.92 791.67,-49.92 842.45,-49.92"/>
<polygon fill="black" stroke="black" points="842.6,-53.42 852.6,-49.92 842.6,-46.42 842.6,-53.42"/>
<text text-anchor="middle" x="766" y="-53.32" font-family="Lato" font-size="12.00">Determina un conjunto de</text>
</g>
</g>
</svg>
