<?xml version="1.0" encoding="UTF-8" standalone="no"?>
<!DOCTYPE svg PUBLIC "-//W3C//DTD SVG 1.1//EN"
 "http://www.w3.org/Graphics/SVG/1.1/DTD/svg11.dtd">
<!-- Generated by graphviz version 2.43.0 (0)
 -->
<!-- Title: %3 Pages: 1 -->
<svg width="325pt" height="155pt"
 viewBox="0.00 0.00 325.00 155.00" xmlns="http://www.w3.org/2000/svg" xmlns:xlink="http://www.w3.org/1999/xlink">
<g id="graph0" class="graph" transform="scale(1 1) rotate(0) translate(4 151)">
<title>%3</title>
<g id="clust1" class="cluster">
<title>cluster0</title>
<polygon fill="white" stroke="black" points="8,-8 8,-83 309,-83 309,-8 8,-8"/>
<text text-anchor="middle" x="158.5" y="-15.8" font-family="Lato" font-size="14.00">(Casos particulares)</text>
</g>
<!-- c -->
<g id="node1" class="node">
<title>c</title>
<polygon fill="white" stroke="black" points="279,-147 103,-147 103,-111 279,-111 279,-147"/>
<text text-anchor="middle" x="191" y="-125.6" font-family="Lato" font-size="13.00">elevar al cubo (caso general)</text>
</g>
<!-- 3 -->
<g id="node2" class="node">
<title>3</title>
<polygon fill="transparent" stroke="transparent" points="301,-75 239,-75 239,-39 301,-39 301,-75"/>
<text text-anchor="middle" x="270" y="-53.6" font-family="Lato" font-size="13.00">3 * 3 * 3</text>
</g>
<!-- 3&#45;&gt;c -->
<g id="edge1" class="edge">
<title>3&#45;&gt;c</title>
<path fill="none" stroke="black" d="M250.47,-75.3C240.62,-84.03 228.51,-94.76 217.8,-104.25"/>
<polygon fill="black" stroke="black" points="215.47,-101.64 210.3,-110.9 220.11,-106.88 215.47,-101.64"/>
</g>
<!-- y -->
<g id="node3" class="node">
<title>y</title>
<polygon fill="transparent" stroke="transparent" points="220.5,-75 161.5,-75 161.5,-39 220.5,-39 220.5,-75"/>
<text text-anchor="middle" x="191" y="-53.6" font-family="Lato" font-size="13.00">y * y * y</text>
</g>
<!-- y&#45;&gt;c -->
<g id="edge2" class="edge">
<title>y&#45;&gt;c</title>
<path fill="none" stroke="black" d="M191,-75.3C191,-83.02 191,-92.29 191,-100.89"/>
<polygon fill="black" stroke="black" points="187.5,-100.9 191,-110.9 194.5,-100.9 187.5,-100.9"/>
</g>
<!-- radio -->
<g id="node4" class="node">
<title>radio</title>
<polygon fill="transparent" stroke="transparent" points="143.5,-75 16.5,-75 16.5,-39 143.5,-39 143.5,-75"/>
<text text-anchor="middle" x="80" y="-53.6" font-family="Lato" font-size="13.00">radio * radio * radio</text>
</g>
<!-- radio&#45;&gt;c -->
<g id="edge3" class="edge">
<title>radio&#45;&gt;c</title>
<path fill="none" stroke="black" d="M107.15,-75.12C121.53,-84.19 139.38,-95.45 154.91,-105.24"/>
<polygon fill="black" stroke="black" points="153.42,-108.44 163.74,-110.81 157.15,-102.52 153.42,-108.44"/>
</g>
</g>
</svg>
