<?xml version="1.0" encoding="UTF-8" standalone="no"?>
<!DOCTYPE svg PUBLIC "-//W3C//DTD SVG 1.1//EN"
 "http://www.w3.org/Graphics/SVG/1.1/DTD/svg11.dtd">
<!-- Generated by graphviz version 14.1.1 (0)
 -->
<!-- Pages: 1 -->
<svg width="602pt" height="262pt"
 viewBox="0.00 0.00 602.00 262.00" xmlns="http://www.w3.org/2000/svg" xmlns:xlink="http://www.w3.org/1999/xlink">
<g id="graph0" class="graph" transform="scale(1 1) rotate(0) translate(4 258)">
<!-- suma_cubos -->
<g id="node1" class="node">
<title>suma_cubos</title>
<polygon fill="none" stroke="none" points="305.25,-145 214.25,-145 214.25,-109 305.25,-109 305.25,-145"/>
<text xml:space="preserve" text-anchor="middle" x="259.75" y="-122.9" font-family="monospace" font-size="13.00" fill="blue">suma_cubos</text>
</g>
<!-- suma -->
<g id="node3" class="node">
<title>suma</title>
<polygon fill="none" stroke="none" points="222.75,-254 168.75,-254 168.75,-218 222.75,-218 222.75,-254"/>
<text xml:space="preserve" text-anchor="middle" x="195.75" y="-231.9" font-family="monospace" font-size="13.00" fill="blue">suma</text>
</g>
<!-- suma_cubos&#45;&gt;suma -->
<g id="edge6" class="edge">
<title>suma_cubos&#45;&gt;suma</title>
<path fill="none" stroke="black" d="M249.75,-144.72C239.57,-161.74 223.64,-188.38 211.71,-208.32"/>
<polygon fill="black" stroke="black" points="208.8,-206.37 206.67,-216.75 214.8,-209.96 208.8,-206.37"/>
</g>
<!-- suma_enteros -->
<g id="node2" class="node">
<title>suma_enteros</title>
<polygon fill="none" stroke="none" points="183.75,-145 77.75,-145 77.75,-109 183.75,-109 183.75,-145"/>
<text xml:space="preserve" text-anchor="middle" x="130.75" y="-122.9" font-family="monospace" font-size="13.00" fill="blue">suma_enteros</text>
</g>
<!-- suma_enteros&#45;&gt;suma -->
<g id="edge5" class="edge">
<title>suma_enteros&#45;&gt;suma</title>
<path fill="none" stroke="black" d="M140.91,-144.72C151.24,-161.74 167.43,-188.38 179.54,-208.32"/>
<polygon fill="black" stroke="black" points="176.48,-210.02 184.66,-216.75 182.46,-206.39 176.48,-210.02"/>
</g>
<!-- s1 -->
<g id="node4" class="node">
<title>s1</title>
<polygon fill="none" stroke="none" points="65.5,-36 0,-36 0,0 65.5,0 65.5,-36"/>
<text xml:space="preserve" text-anchor="middle" x="32.75" y="-13.9" font-family="Lato" font-size="13.00">1 + 2 + 3</text>
</g>
<!-- s1&#45;&gt;suma_enteros -->
<g id="edge1" class="edge">
<title>s1&#45;&gt;suma_enteros</title>
<path fill="none" stroke="black" d="M48.06,-35.72C64.01,-53.13 89.17,-80.6 107.56,-100.68"/>
<polygon fill="black" stroke="black" points="104.86,-102.92 114.2,-107.93 110.03,-98.19 104.86,-102.92"/>
</g>
<!-- s2 -->
<g id="node5" class="node">
<title>s2</title>
<polygon fill="none" stroke="none" points="177.75,-36 83.75,-36 83.75,0 177.75,0 177.75,-36"/>
<text xml:space="preserve" text-anchor="middle" x="130.75" y="-13.9" font-family="Lato" font-size="13.00">7 + 8 + 9 + 10</text>
</g>
<!-- s2&#45;&gt;suma_enteros -->
<g id="edge2" class="edge">
<title>s2&#45;&gt;suma_enteros</title>
<path fill="none" stroke="black" d="M130.75,-35.72C130.75,-52.27 130.75,-77.92 130.75,-97.66"/>
<polygon fill="black" stroke="black" points="127.25,-97.53 130.75,-107.53 134.25,-97.53 127.25,-97.53"/>
</g>
<!-- s3 -->
<g id="node6" class="node">
<title>s3</title>
<polygon fill="none" stroke="none" points="323.25,-36 196.25,-36 196.25,0 323.25,0 323.25,-36"/>
<text xml:space="preserve" text-anchor="middle" x="259.75" y="-13.9" font-family="Lato" font-size="13.00">9³ + 10³ + 11³ + 12³</text>
</g>
<!-- s3&#45;&gt;suma_cubos -->
<g id="edge3" class="edge">
<title>s3&#45;&gt;suma_cubos</title>
<path fill="none" stroke="black" d="M259.75,-35.72C259.75,-52.27 259.75,-77.92 259.75,-97.66"/>
<polygon fill="black" stroke="black" points="256.25,-97.53 259.75,-107.53 263.25,-97.53 256.25,-97.53"/>
</g>
<!-- s4 -->
<g id="node7" class="node">
<title>s4</title>
<polygon fill="none" stroke="none" points="442.5,-36 341,-36 341,0 442.5,0 442.5,-36"/>
<text xml:space="preserve" text-anchor="middle" x="391.75" y="-13.9" font-family="Lato" font-size="13.00">22³ + 23³ + 24³</text>
</g>
<!-- s4&#45;&gt;suma_cubos -->
<g id="edge4" class="edge">
<title>s4&#45;&gt;suma_cubos</title>
<path fill="none" stroke="black" d="M370.83,-35.95C348.82,-53.8 313.99,-82.03 289.2,-102.13"/>
<polygon fill="black" stroke="black" points="287.31,-99.16 281.74,-108.17 291.72,-104.59 287.31,-99.16"/>
</g>
<!-- m1 -->
<g id="node8" class="node">
<title>m1</title>
<polygon fill="none" stroke="none" points="589.38,-36 460.12,-36 460.12,0 589.38,0 589.38,-36"/>
<text xml:space="preserve" text-anchor="middle" x="524.75" y="-13.9" font-family="Lato" font-size="13.00" fill="teal">(menos abstracción)</text>
</g>
<!-- m2 -->
<g id="node9" class="node">
<title>m2</title>
<polygon fill="none" stroke="none" points="581.88,-145 467.62,-145 467.62,-109 581.88,-109 581.88,-145"/>
<text xml:space="preserve" text-anchor="middle" x="524.75" y="-122.9" font-family="Lato" font-size="13.00" fill="teal">(más abstracción)</text>
</g>
<!-- m1&#45;&gt;m2 -->
<g id="edge7" class="edge">
<title>m1&#45;&gt;m2</title>
<path fill="none" stroke="teal" d="M524.75,-35.72C524.75,-52.35 524.75,-78.16 524.75,-97.93"/>
<polygon fill="teal" stroke="teal" points="524.75,-107.83 520.25,-97.83 524.75,-104.05 524.75,-97.83 524.75,-97.83 524.75,-97.83 524.75,-104.05 529.25,-97.83 524.75,-107.83"/>
</g>
<!-- m3 -->
<g id="node10" class="node">
<title>m3</title>
<polygon fill="none" stroke="none" points="594.25,-254 455.25,-254 455.25,-218 594.25,-218 594.25,-254"/>
<text xml:space="preserve" text-anchor="middle" x="524.75" y="-231.9" font-family="Lato" font-size="13.00" fill="teal">(aún más abstracción)</text>
</g>
<!-- m2&#45;&gt;m3 -->
<g id="edge8" class="edge">
<title>m2&#45;&gt;m3</title>
<path fill="none" stroke="teal" d="M524.75,-144.72C524.75,-161.35 524.75,-187.16 524.75,-206.93"/>
<polygon fill="teal" stroke="teal" points="524.75,-216.83 520.25,-206.83 524.75,-213.05 524.75,-206.83 524.75,-206.83 524.75,-206.83 524.75,-213.05 529.25,-206.83 524.75,-216.83"/>
</g>
</g>
</svg>
