<?xml version="1.0" encoding="UTF-8" standalone="no"?>
<!DOCTYPE svg PUBLIC "-//W3C//DTD SVG 1.1//EN"
 "http://www.w3.org/Graphics/SVG/1.1/DTD/svg11.dtd">
<!-- Generated by graphviz version 2.42.4 (0)
 -->
<!-- Pages: 1 -->
<svg width="530pt" height="153pt"
 viewBox="0.00 0.00 529.50 153.00" xmlns="http://www.w3.org/2000/svg" xmlns:xlink="http://www.w3.org/1999/xlink">
<g id="graph0" class="graph" transform="scale(1 1) rotate(0) translate(4 149)">
<!-- c -->
<g id="node1" class="node">
<title>c</title>
<polygon fill="transparent" stroke="transparent" points="197,-145 91,-145 91,-109 197,-109 197,-145"/>
<text text-anchor="middle" x="144" y="-123.6" font-family="Lato" font-size="13.00">«elevar al cubo»</text>
</g>
<!-- 3 -->
<g id="node2" class="node">
<title>3</title>
<polygon fill="transparent" stroke="transparent" points="84,-36 0,-36 0,0 84,0 84,-36"/>
<text text-anchor="middle" x="42" y="-14.6" font-family="monospace" font-size="13.00">3 * 3 * 3</text>
</g>
<!-- 3&#45;&gt;c -->
<g id="edge1" class="edge">
<title>3&#45;&gt;c</title>
<path fill="none" stroke="black" d="M58.39,-36.19C75.19,-53.82 101.49,-81.4 120.5,-101.35"/>
<polygon fill="black" stroke="black" points="118.22,-104.03 127.65,-108.85 123.29,-99.2 118.22,-104.03"/>
</g>
<!-- y -->
<g id="node3" class="node">
<title>y</title>
<polygon fill="transparent" stroke="transparent" points="186,-36 102,-36 102,0 186,0 186,-36"/>
<text text-anchor="middle" x="144" y="-14.6" font-family="monospace" font-size="13.00">y * y * y</text>
</g>
<!-- y&#45;&gt;c -->
<g id="edge2" class="edge">
<title>y&#45;&gt;c</title>
<path fill="none" stroke="black" d="M144,-36.19C144,-53.04 144,-78.98 144,-98.66"/>
<polygon fill="black" stroke="black" points="140.5,-98.85 144,-108.85 147.5,-98.85 140.5,-98.85"/>
</g>
<!-- radio -->
<g id="node4" class="node">
<title>radio</title>
<polygon fill="transparent" stroke="transparent" points="378,-36 204,-36 204,0 378,0 378,-36"/>
<text text-anchor="middle" x="291" y="-14.6" font-family="monospace" font-size="13.00">radio * radio * radio</text>
</g>
<!-- radio&#45;&gt;c -->
<g id="edge3" class="edge">
<title>radio&#45;&gt;c</title>
<path fill="none" stroke="black" d="M267.38,-36.19C242.52,-54.29 203.25,-82.88 175.7,-102.92"/>
<polygon fill="black" stroke="black" points="173.58,-100.14 167.56,-108.85 177.7,-105.8 173.58,-100.14"/>
</g>
<!-- cp -->
<g id="node5" class="node">
<title>cp</title>
<polygon fill="transparent" stroke="transparent" points="521.5,-36 396.5,-36 396.5,0 521.5,0 521.5,-36"/>
<text text-anchor="middle" x="459" y="-14.6" font-family="Lato" font-size="13.00">(casos particulares)</text>
</g>
<!-- cg -->
<g id="node6" class="node">
<title>cg</title>
<polygon fill="transparent" stroke="transparent" points="310.5,-145 215.5,-145 215.5,-109 310.5,-109 310.5,-145"/>
<text text-anchor="middle" x="263" y="-123.6" font-family="Lato" font-size="13.00">(caso general)</text>
</g>
</g>
</svg>
