<?xml version="1.0" encoding="UTF-8" standalone="no"?>
<!DOCTYPE svg PUBLIC "-//W3C//DTD SVG 1.1//EN"
 "http://www.w3.org/Graphics/SVG/1.1/DTD/svg11.dtd">
<!-- Generated by graphviz version 14.1.1 (0)
 -->
<!-- Pages: 1 -->
<svg width="528pt" height="153pt"
 viewBox="0.00 0.00 528.00 153.00" xmlns="http://www.w3.org/2000/svg" xmlns:xlink="http://www.w3.org/1999/xlink">
<g id="graph0" class="graph" transform="scale(1 1) rotate(0) translate(4 149)">
<!-- c -->
<g id="node1" class="node">
<title>c</title>
<polygon fill="none" stroke="none" points="196.38,-145 91.12,-145 91.12,-109 196.38,-109 196.38,-145"/>
<text xml:space="preserve" text-anchor="middle" x="143.75" y="-122.9" font-family="Lato" font-size="13.00">«elevar al cubo»</text>
</g>
<!-- 3 -->
<g id="node2" class="node">
<title>3</title>
<polygon fill="none" stroke="none" points="83.5,-36 0,-36 0,0 83.5,0 83.5,-36"/>
<text xml:space="preserve" text-anchor="middle" x="41.75" y="-13.9" font-family="monospace" font-size="13.00">3 * 3 * 3</text>
</g>
<!-- 3&#45;&gt;c -->
<g id="edge1" class="edge">
<title>3&#45;&gt;c</title>
<path fill="none" stroke="black" d="M57.69,-35.72C74.36,-53.2 100.71,-80.85 119.87,-100.95"/>
<polygon fill="black" stroke="black" points="117.11,-103.13 126.54,-107.95 122.18,-98.3 117.11,-103.13"/>
</g>
<!-- y -->
<g id="node3" class="node">
<title>y</title>
<polygon fill="none" stroke="none" points="185.5,-36 102,-36 102,0 185.5,0 185.5,-36"/>
<text xml:space="preserve" text-anchor="middle" x="143.75" y="-13.9" font-family="monospace" font-size="13.00">5 * 5 * 5</text>
</g>
<!-- y&#45;&gt;c -->
<g id="edge2" class="edge">
<title>y&#45;&gt;c</title>
<path fill="none" stroke="black" d="M143.75,-35.72C143.75,-52.27 143.75,-77.92 143.75,-97.66"/>
<polygon fill="black" stroke="black" points="140.25,-97.53 143.75,-107.53 147.25,-97.53 140.25,-97.53"/>
</g>
<!-- radio -->
<g id="node4" class="node">
<title>radio</title>
<polygon fill="none" stroke="none" points="377.5,-36 204,-36 204,0 377.5,0 377.5,-36"/>
<text xml:space="preserve" text-anchor="middle" x="290.75" y="-13.9" font-family="monospace" font-size="13.00">radio * radio * radio</text>
</g>
<!-- radio&#45;&gt;c -->
<g id="edge3" class="edge">
<title>radio&#45;&gt;c</title>
<path fill="none" stroke="black" d="M267.46,-35.95C242.84,-53.88 203.81,-82.28 176.19,-102.39"/>
<polygon fill="black" stroke="black" points="174.18,-99.52 168.16,-108.23 178.3,-105.18 174.18,-99.52"/>
</g>
<!-- cp -->
<g id="node5" class="node">
<title>cp</title>
<polygon fill="none" stroke="none" points="520.12,-36 395.38,-36 395.38,0 520.12,0 520.12,-36"/>
<text xml:space="preserve" text-anchor="middle" x="457.75" y="-13.9" font-family="Lato" font-size="13.00">(casos particulares)</text>
</g>
<!-- cg -->
<g id="node6" class="node">
<title>cg</title>
<polygon fill="none" stroke="none" points="308.75,-145 214.75,-145 214.75,-109 308.75,-109 308.75,-145"/>
<text xml:space="preserve" text-anchor="middle" x="261.75" y="-122.9" font-family="Lato" font-size="13.00">(caso general)</text>
</g>
</g>
</svg>
