<?xml version="1.0" encoding="UTF-8" standalone="no"?>
<!DOCTYPE svg PUBLIC "-//W3C//DTD SVG 1.1//EN"
 "http://www.w3.org/Graphics/SVG/1.1/DTD/svg11.dtd">
<!-- Generated by graphviz version 14.0.5 (0)
 -->
<!-- Pages: 1 -->
<svg width="603pt" height="262pt"
 viewBox="0.00 0.00 603.00 262.00" xmlns="http://www.w3.org/2000/svg" xmlns:xlink="http://www.w3.org/1999/xlink">
<g id="graph0" class="graph" transform="scale(1 1) rotate(0) translate(4 258)">
<!-- suma_cubos -->
<g id="node1" class="node">
<title>suma_cubos</title>
<polygon fill="none" stroke="none" points="308,-145 214,-145 214,-109 308,-109 308,-145"/>
<text xml:space="preserve" text-anchor="middle" x="261" y="-122.45" font-family="monospace" font-size="13.00" fill="blue">suma_cubos</text>
</g>
<!-- suma -->
<g id="node3" class="node">
<title>suma</title>
<polygon fill="none" stroke="none" points="224,-254 170,-254 170,-218 224,-218 224,-254"/>
<text xml:space="preserve" text-anchor="middle" x="197" y="-231.45" font-family="monospace" font-size="13.00" fill="blue">suma</text>
</g>
<!-- suma_cubos&#45;&gt;suma -->
<g id="edge6" class="edge">
<title>suma_cubos&#45;&gt;suma</title>
<path fill="none" stroke="black" d="M251,-144.72C240.82,-161.74 224.89,-188.38 212.96,-208.32"/>
<polygon fill="black" stroke="black" points="210.05,-206.37 207.92,-216.75 216.05,-209.96 210.05,-206.37"/>
</g>
<!-- suma_enteros -->
<g id="node2" class="node">
<title>suma_enteros</title>
<polygon fill="none" stroke="none" points="187,-145 77,-145 77,-109 187,-109 187,-145"/>
<text xml:space="preserve" text-anchor="middle" x="132" y="-122.45" font-family="monospace" font-size="13.00" fill="blue">suma_enteros</text>
</g>
<!-- suma_enteros&#45;&gt;suma -->
<g id="edge5" class="edge">
<title>suma_enteros&#45;&gt;suma</title>
<path fill="none" stroke="black" d="M142.16,-144.72C152.49,-161.74 168.68,-188.38 180.79,-208.32"/>
<polygon fill="black" stroke="black" points="177.73,-210.02 185.91,-216.75 183.71,-206.39 177.73,-210.02"/>
</g>
<!-- s1 -->
<g id="node4" class="node">
<title>s1</title>
<polygon fill="none" stroke="none" points="66,-36 0,-36 0,0 66,0 66,-36"/>
<text xml:space="preserve" text-anchor="middle" x="33" y="-13.45" font-family="Lato" font-size="13.00">1 + 2 + 3</text>
</g>
<!-- s1&#45;&gt;suma_enteros -->
<g id="edge1" class="edge">
<title>s1&#45;&gt;suma_enteros</title>
<path fill="none" stroke="black" d="M48.47,-35.72C64.58,-53.13 90,-80.6 108.57,-100.68"/>
<polygon fill="black" stroke="black" points="105.92,-102.97 115.29,-107.93 111.06,-98.22 105.92,-102.97"/>
</g>
<!-- s2 -->
<g id="node5" class="node">
<title>s2</title>
<polygon fill="none" stroke="none" points="179.5,-36 84.5,-36 84.5,0 179.5,0 179.5,-36"/>
<text xml:space="preserve" text-anchor="middle" x="132" y="-13.45" font-family="Lato" font-size="13.00">7 + 8 + 9 + 10</text>
</g>
<!-- s2&#45;&gt;suma_enteros -->
<g id="edge2" class="edge">
<title>s2&#45;&gt;suma_enteros</title>
<path fill="none" stroke="black" d="M132,-35.72C132,-52.27 132,-77.92 132,-97.66"/>
<polygon fill="black" stroke="black" points="128.5,-97.53 132,-107.53 135.5,-97.53 128.5,-97.53"/>
</g>
<!-- s3 -->
<g id="node6" class="node">
<title>s3</title>
<polygon fill="none" stroke="none" points="324.5,-36 197.5,-36 197.5,0 324.5,0 324.5,-36"/>
<text xml:space="preserve" text-anchor="middle" x="261" y="-13.45" font-family="Lato" font-size="13.00">9³ + 10³ + 11³ + 12³</text>
</g>
<!-- s3&#45;&gt;suma_cubos -->
<g id="edge3" class="edge">
<title>s3&#45;&gt;suma_cubos</title>
<path fill="none" stroke="black" d="M261,-35.72C261,-52.27 261,-77.92 261,-97.66"/>
<polygon fill="black" stroke="black" points="257.5,-97.53 261,-107.53 264.5,-97.53 257.5,-97.53"/>
</g>
<!-- s4 -->
<g id="node7" class="node">
<title>s4</title>
<polygon fill="none" stroke="none" points="443.5,-36 342.5,-36 342.5,0 443.5,0 443.5,-36"/>
<text xml:space="preserve" text-anchor="middle" x="393" y="-13.45" font-family="Lato" font-size="13.00">22³ + 23³ + 24³</text>
</g>
<!-- s4&#45;&gt;suma_cubos -->
<g id="edge4" class="edge">
<title>s4&#45;&gt;suma_cubos</title>
<path fill="none" stroke="black" d="M372.08,-35.95C350.07,-53.8 315.24,-82.03 290.45,-102.13"/>
<polygon fill="black" stroke="black" points="288.56,-99.16 282.99,-108.17 292.97,-104.59 288.56,-99.16"/>
</g>
<!-- m1 -->
<g id="node8" class="node">
<title>m1</title>
<polygon fill="none" stroke="none" points="590.5,-36 461.5,-36 461.5,0 590.5,0 590.5,-36"/>
<text xml:space="preserve" text-anchor="middle" x="526" y="-13.45" font-family="Lato" font-size="13.00" fill="teal">(menos abstracción)</text>
</g>
<!-- m2 -->
<g id="node9" class="node">
<title>m2</title>
<polygon fill="none" stroke="none" points="582.5,-145 469.5,-145 469.5,-109 582.5,-109 582.5,-145"/>
<text xml:space="preserve" text-anchor="middle" x="526" y="-122.45" font-family="Lato" font-size="13.00" fill="teal">(más abstracción)</text>
</g>
<!-- m1&#45;&gt;m2 -->
<g id="edge7" class="edge">
<title>m1&#45;&gt;m2</title>
<path fill="none" stroke="teal" d="M526,-35.72C526,-52.35 526,-78.16 526,-97.93"/>
<polygon fill="teal" stroke="teal" points="526,-107.83 521.5,-97.83 526,-104.05 526,-97.83 526,-97.83 526,-97.83 526,-104.05 530.5,-97.83 526,-107.83"/>
</g>
<!-- m3 -->
<g id="node10" class="node">
<title>m3</title>
<polygon fill="none" stroke="none" points="595,-254 457,-254 457,-218 595,-218 595,-254"/>
<text xml:space="preserve" text-anchor="middle" x="526" y="-231.45" font-family="Lato" font-size="13.00" fill="teal">(aún más abstracción)</text>
</g>
<!-- m2&#45;&gt;m3 -->
<g id="edge8" class="edge">
<title>m2&#45;&gt;m3</title>
<path fill="none" stroke="teal" d="M526,-144.72C526,-161.35 526,-187.16 526,-206.93"/>
<polygon fill="teal" stroke="teal" points="526,-216.83 521.5,-206.83 526,-213.05 526,-206.83 526,-206.83 526,-206.83 526,-213.05 530.5,-206.83 526,-216.83"/>
</g>
</g>
</svg>
