<?xml version="1.0" encoding="UTF-8" standalone="no"?>
<!DOCTYPE svg PUBLIC "-//W3C//DTD SVG 1.1//EN"
 "http://www.w3.org/Graphics/SVG/1.1/DTD/svg11.dtd">
<!-- Generated by graphviz version 2.43.0 (0)
 -->
<!-- Title: %3 Pages: 1 -->
<svg width="607pt" height="262pt"
 viewBox="0.00 0.00 607.00 262.00" xmlns="http://www.w3.org/2000/svg" xmlns:xlink="http://www.w3.org/1999/xlink">
<g id="graph0" class="graph" transform="scale(1 1) rotate(0) translate(4 258)">
<title>%3</title>
<!-- suma_cubos -->
<g id="node1" class="node">
<title>suma_cubos</title>
<polygon fill="transparent" stroke="transparent" points="308,-145 216,-145 216,-109 308,-109 308,-145"/>
<text text-anchor="middle" x="262" y="-123.6" font-family="monospace" font-size="13.00" fill="blue">suma_cubos</text>
</g>
<!-- suma -->
<g id="node3" class="node">
<title>suma</title>
<polygon fill="transparent" stroke="transparent" points="224,-254 170,-254 170,-218 224,-218 224,-254"/>
<text text-anchor="middle" x="197" y="-232.6" font-family="monospace" font-size="13.00" fill="blue">suma</text>
</g>
<!-- suma_cubos&#45;&gt;suma -->
<g id="edge6" class="edge">
<title>suma_cubos&#45;&gt;suma</title>
<path fill="none" stroke="black" d="M251.56,-145.19C241.04,-162.51 224.68,-189.43 212.62,-209.29"/>
<polygon fill="black" stroke="black" points="209.62,-207.49 207.42,-217.85 215.6,-211.12 209.62,-207.49"/>
</g>
<!-- suma_enteros -->
<g id="node2" class="node">
<title>suma_enteros</title>
<polygon fill="transparent" stroke="transparent" points="185.5,-145 78.5,-145 78.5,-109 185.5,-109 185.5,-145"/>
<text text-anchor="middle" x="132" y="-123.6" font-family="monospace" font-size="13.00" fill="blue">suma_enteros</text>
</g>
<!-- suma_enteros&#45;&gt;suma -->
<g id="edge5" class="edge">
<title>suma_enteros&#45;&gt;suma</title>
<path fill="none" stroke="black" d="M142.44,-145.19C152.96,-162.51 169.32,-189.43 181.38,-209.29"/>
<polygon fill="black" stroke="black" points="178.4,-211.12 186.58,-217.85 184.38,-207.49 178.4,-211.12"/>
</g>
<!-- s1 -->
<g id="node4" class="node">
<title>s1</title>
<polygon fill="transparent" stroke="transparent" points="66,-36 0,-36 0,0 66,0 66,-36"/>
<text text-anchor="middle" x="33" y="-14.6" font-family="Lato" font-size="13.00">1 + 2 + 3</text>
</g>
<!-- s1&#45;&gt;suma_enteros -->
<g id="edge1" class="edge">
<title>s1&#45;&gt;suma_enteros</title>
<path fill="none" stroke="black" d="M48.91,-36.19C65.22,-53.82 90.74,-81.4 109.19,-101.35"/>
<polygon fill="black" stroke="black" points="106.77,-103.89 116.13,-108.85 111.91,-99.13 106.77,-103.89"/>
</g>
<!-- s2 -->
<g id="node5" class="node">
<title>s2</title>
<polygon fill="transparent" stroke="transparent" points="179.5,-36 84.5,-36 84.5,0 179.5,0 179.5,-36"/>
<text text-anchor="middle" x="132" y="-14.6" font-family="Lato" font-size="13.00">7 + 8 + 9 + 10</text>
</g>
<!-- s2&#45;&gt;suma_enteros -->
<g id="edge2" class="edge">
<title>s2&#45;&gt;suma_enteros</title>
<path fill="none" stroke="black" d="M132,-36.19C132,-53.04 132,-78.98 132,-98.66"/>
<polygon fill="black" stroke="black" points="128.5,-98.85 132,-108.85 135.5,-98.85 128.5,-98.85"/>
</g>
<!-- s3 -->
<g id="node6" class="node">
<title>s3</title>
<polygon fill="transparent" stroke="transparent" points="326,-36 198,-36 198,0 326,0 326,-36"/>
<text text-anchor="middle" x="262" y="-14.6" font-family="Lato" font-size="13.00">9³ + 10³ + 11³ + 12³</text>
</g>
<!-- s3&#45;&gt;suma_cubos -->
<g id="edge3" class="edge">
<title>s3&#45;&gt;suma_cubos</title>
<path fill="none" stroke="black" d="M262,-36.19C262,-53.04 262,-78.98 262,-98.66"/>
<polygon fill="black" stroke="black" points="258.5,-98.85 262,-108.85 265.5,-98.85 258.5,-98.85"/>
</g>
<!-- s4 -->
<g id="node7" class="node">
<title>s4</title>
<polygon fill="transparent" stroke="transparent" points="446,-36 344,-36 344,0 446,0 446,-36"/>
<text text-anchor="middle" x="395" y="-14.6" font-family="Lato" font-size="13.00">22³ + 23³ + 24³</text>
</g>
<!-- s4&#45;&gt;suma_cubos -->
<g id="edge4" class="edge">
<title>s4&#45;&gt;suma_cubos</title>
<path fill="none" stroke="black" d="M373.63,-36.19C351.33,-54.13 316.22,-82.38 291.33,-102.4"/>
<polygon fill="black" stroke="black" points="288.91,-99.86 283.32,-108.85 293.3,-105.31 288.91,-99.86"/>
</g>
<!-- m1 -->
<g id="node8" class="node">
<title>m1</title>
<polygon fill="transparent" stroke="transparent" points="594,-36 464,-36 464,0 594,0 594,-36"/>
<text text-anchor="middle" x="529" y="-14.6" font-family="Lato" font-size="13.00" fill="teal">(menos abstracción)</text>
</g>
<!-- m2 -->
<g id="node9" class="node">
<title>m2</title>
<polygon fill="transparent" stroke="transparent" points="586.5,-145 471.5,-145 471.5,-109 586.5,-109 586.5,-145"/>
<text text-anchor="middle" x="529" y="-123.6" font-family="Lato" font-size="13.00" fill="teal">(más abstracción)</text>
</g>
<!-- m1&#45;&gt;m2 -->
<g id="edge7" class="edge">
<title>m1&#45;&gt;m2</title>
<path fill="none" stroke="teal" d="M529,-36.19C529,-53.04 529,-78.98 529,-98.66"/>
<polygon fill="teal" stroke="teal" points="529,-108.85 524.5,-98.85 529,-103.85 529,-98.85 529,-98.85 529,-98.85 529,-103.85 533.5,-98.85 529,-108.85 529,-108.85"/>
</g>
<!-- m3 -->
<g id="node10" class="node">
<title>m3</title>
<polygon fill="transparent" stroke="transparent" points="599,-254 459,-254 459,-218 599,-218 599,-254"/>
<text text-anchor="middle" x="529" y="-232.6" font-family="Lato" font-size="13.00" fill="teal">(aún más abstracción)</text>
</g>
<!-- m2&#45;&gt;m3 -->
<g id="edge8" class="edge">
<title>m2&#45;&gt;m3</title>
<path fill="none" stroke="teal" d="M529,-145.19C529,-162.04 529,-187.98 529,-207.66"/>
<polygon fill="teal" stroke="teal" points="529,-217.85 524.5,-207.85 529,-212.85 529,-207.85 529,-207.85 529,-207.85 529,-212.85 533.5,-207.85 529,-217.85 529,-217.85"/>
</g>
</g>
</svg>
