<?xml version="1.0" encoding="UTF-8" standalone="no"?>
<!DOCTYPE svg PUBLIC "-//W3C//DTD SVG 1.1//EN"
 "http://www.w3.org/Graphics/SVG/1.1/DTD/svg11.dtd">
<!-- Generated by graphviz version 14.1.2 (0)
 -->
<!-- Pages: 1 -->
<svg width="206pt" height="260pt"
 viewBox="0.00 0.00 206.00 260.00" xmlns="http://www.w3.org/2000/svg" xmlns:xlink="http://www.w3.org/1999/xlink">
<g id="graph0" class="graph" transform="scale(1 1) rotate(0) translate(4 256)">
<!-- A -->
<g id="node1" class="node">
<title>A</title>
<polygon fill="white" stroke="black" points="162,-252 108,-252 108,-216 162,-216 162,-252"/>
<text xml:space="preserve" text-anchor="middle" x="135" y="-229.9" font-family="Lato" font-size="13.00">A</text>
</g>
<!-- B -->
<g id="node2" class="node">
<title>B</title>
<polygon fill="white" stroke="black" points="126,-180 72,-180 72,-144 126,-144 126,-180"/>
<text xml:space="preserve" text-anchor="middle" x="99" y="-157.9" font-family="Lato" font-size="13.00">B</text>
</g>
<!-- A&#45;&gt;B -->
<g id="edge1" class="edge">
<title>A&#45;&gt;B</title>
<path fill="none" stroke="black" d="M126.1,-215.7C122.13,-207.98 117.37,-198.71 112.94,-190.11"/>
<polygon fill="black" stroke="black" points="116.17,-188.74 108.49,-181.45 109.95,-191.94 116.17,-188.74"/>
</g>
<!-- C -->
<g id="node3" class="node">
<title>C</title>
<polygon fill="white" stroke="black" points="198,-180 144,-180 144,-144 198,-144 198,-180"/>
<text xml:space="preserve" text-anchor="middle" x="171" y="-157.9" font-family="Lato" font-size="13.00">C</text>
</g>
<!-- A&#45;&gt;C -->
<g id="edge2" class="edge">
<title>A&#45;&gt;C</title>
<path fill="none" stroke="black" d="M143.9,-215.7C147.87,-207.98 152.63,-198.71 157.06,-190.11"/>
<polygon fill="black" stroke="black" points="160.05,-191.94 161.51,-181.45 153.83,-188.74 160.05,-191.94"/>
</g>
<!-- D -->
<g id="node4" class="node">
<title>D</title>
<polygon fill="white" stroke="black" points="54,-108 0,-108 0,-72 54,-72 54,-108"/>
<text xml:space="preserve" text-anchor="middle" x="27" y="-85.9" font-family="Lato" font-size="13.00">D</text>
</g>
<!-- B&#45;&gt;D -->
<g id="edge3" class="edge">
<title>B&#45;&gt;D</title>
<path fill="none" stroke="black" d="M81.2,-143.7C72.72,-135.45 62.41,-125.43 53.07,-116.35"/>
<polygon fill="black" stroke="black" points="55.54,-113.86 45.93,-109.4 50.66,-118.88 55.54,-113.86"/>
</g>
<!-- E -->
<g id="node5" class="node">
<title>E</title>
<polygon fill="white" stroke="black" points="126,-108 72,-108 72,-72 126,-72 126,-108"/>
<text xml:space="preserve" text-anchor="middle" x="99" y="-85.9" font-family="Lato" font-size="13.00">E</text>
</g>
<!-- B&#45;&gt;E -->
<g id="edge4" class="edge">
<title>B&#45;&gt;E</title>
<path fill="none" stroke="black" d="M99,-143.7C99,-136.41 99,-127.73 99,-119.54"/>
<polygon fill="black" stroke="black" points="102.5,-119.62 99,-109.62 95.5,-119.62 102.5,-119.62"/>
</g>
<!-- F -->
<g id="node6" class="node">
<title>F</title>
<polygon fill="white" stroke="black" points="198,-108 144,-108 144,-72 198,-72 198,-108"/>
<text xml:space="preserve" text-anchor="middle" x="171" y="-85.9" font-family="Lato" font-size="13.00">F</text>
</g>
<!-- B&#45;&gt;F -->
<g id="edge5" class="edge">
<title>B&#45;&gt;F</title>
<path fill="none" stroke="black" d="M116.8,-143.7C125.28,-135.45 135.59,-125.43 144.93,-116.35"/>
<polygon fill="black" stroke="black" points="147.34,-118.88 152.07,-109.4 142.46,-113.86 147.34,-118.88"/>
</g>
<!-- C&#45;&gt;F -->
<g id="edge6" class="edge">
<title>C&#45;&gt;F</title>
<path fill="none" stroke="black" d="M171,-143.7C171,-136.41 171,-127.73 171,-119.54"/>
<polygon fill="black" stroke="black" points="174.5,-119.62 171,-109.62 167.5,-119.62 174.5,-119.62"/>
</g>
<!-- G -->
<g id="node7" class="node">
<title>G</title>
<polygon fill="white" stroke="black" points="162,-36 108,-36 108,0 162,0 162,-36"/>
<text xml:space="preserve" text-anchor="middle" x="135" y="-13.9" font-family="Lato" font-size="13.00">G</text>
</g>
<!-- E&#45;&gt;G -->
<g id="edge7" class="edge">
<title>E&#45;&gt;G</title>
<path fill="none" stroke="black" d="M107.9,-71.7C111.87,-63.98 116.63,-54.71 121.06,-46.11"/>
<polygon fill="black" stroke="black" points="124.05,-47.94 125.51,-37.45 117.83,-44.74 124.05,-47.94"/>
</g>
<!-- F&#45;&gt;G -->
<g id="edge8" class="edge">
<title>F&#45;&gt;G</title>
<path fill="none" stroke="black" d="M162.1,-71.7C158.13,-63.98 153.37,-54.71 148.94,-46.11"/>
<polygon fill="black" stroke="black" points="152.17,-44.74 144.49,-37.45 145.95,-47.94 152.17,-44.74"/>
</g>
</g>
</svg>
