<?xml version="1.0" encoding="UTF-8" standalone="no"?>
<!DOCTYPE svg PUBLIC "-//W3C//DTD SVG 1.1//EN"
 "http://www.w3.org/Graphics/SVG/1.1/DTD/svg11.dtd">
<!-- Generated by graphviz version 2.40.1 (20161225.0304)
 -->
<!-- Title: %3 Pages: 1 -->
<svg width="456pt" height="576pt"
 viewBox="0.00 0.00 456.37 576.00" xmlns="http://www.w3.org/2000/svg" xmlns:xlink="http://www.w3.org/1999/xlink">
<g id="graph0" class="graph" transform="scale(2.2154 2.2154) rotate(0) translate(4 256)">
<title>%3</title>
<!-- A -->
<g id="node1" class="node">
<title>A</title>
<polygon fill="#ffffff" stroke="#000000" points="162,-252 108,-252 108,-216 162,-216 162,-252"/>
<text text-anchor="middle" x="135" y="-230.6" font-family="Lato" font-size="13.00" fill="#000000">A</text>
</g>
<!-- B -->
<g id="node2" class="node">
<title>B</title>
<polygon fill="#ffffff" stroke="#000000" points="126,-180 72,-180 72,-144 126,-144 126,-180"/>
<text text-anchor="middle" x="99" y="-158.6" font-family="Lato" font-size="13.00" fill="#000000">B</text>
</g>
<!-- A&#45;&gt;B -->
<g id="edge1" class="edge">
<title>A&#45;&gt;B</title>
<path fill="none" stroke="#000000" d="M125.9157,-215.8314C121.9385,-207.8771 117.1845,-198.369 112.7861,-189.5723"/>
<polygon fill="#000000" stroke="#000000" points="115.8093,-187.7923 108.2066,-180.4133 109.5483,-190.9228 115.8093,-187.7923"/>
</g>
<!-- C -->
<g id="node3" class="node">
<title>C</title>
<polygon fill="#ffffff" stroke="#000000" points="198,-180 144,-180 144,-144 198,-144 198,-180"/>
<text text-anchor="middle" x="171" y="-158.6" font-family="Lato" font-size="13.00" fill="#000000">C</text>
</g>
<!-- A&#45;&gt;C -->
<g id="edge2" class="edge">
<title>A&#45;&gt;C</title>
<path fill="none" stroke="#000000" d="M144.0843,-215.8314C148.0615,-207.8771 152.8155,-198.369 157.2139,-189.5723"/>
<polygon fill="#000000" stroke="#000000" points="160.4517,-190.9228 161.7934,-180.4133 154.1907,-187.7923 160.4517,-190.9228"/>
</g>
<!-- D -->
<g id="node4" class="node">
<title>D</title>
<polygon fill="#ffffff" stroke="#000000" points="54,-108 0,-108 0,-72 54,-72 54,-108"/>
<text text-anchor="middle" x="27" y="-86.6" font-family="Lato" font-size="13.00" fill="#000000">D</text>
</g>
<!-- B&#45;&gt;D -->
<g id="edge3" class="edge">
<title>B&#45;&gt;D</title>
<path fill="none" stroke="#000000" d="M80.8314,-143.8314C72.2848,-135.2848 61.9443,-124.9443 52.6198,-115.6198"/>
<polygon fill="#000000" stroke="#000000" points="54.9592,-113.0095 45.4133,-108.4133 50.0095,-117.9592 54.9592,-113.0095"/>
</g>
<!-- E -->
<g id="node5" class="node">
<title>E</title>
<polygon fill="#ffffff" stroke="#000000" points="126,-108 72,-108 72,-72 126,-72 126,-108"/>
<text text-anchor="middle" x="99" y="-86.6" font-family="Lato" font-size="13.00" fill="#000000">E</text>
</g>
<!-- B&#45;&gt;E -->
<g id="edge4" class="edge">
<title>B&#45;&gt;E</title>
<path fill="none" stroke="#000000" d="M99,-143.8314C99,-136.131 99,-126.9743 99,-118.4166"/>
<polygon fill="#000000" stroke="#000000" points="102.5001,-118.4132 99,-108.4133 95.5001,-118.4133 102.5001,-118.4132"/>
</g>
<!-- F -->
<g id="node6" class="node">
<title>F</title>
<polygon fill="#ffffff" stroke="#000000" points="198,-108 144,-108 144,-72 198,-72 198,-108"/>
<text text-anchor="middle" x="171" y="-86.6" font-family="Lato" font-size="13.00" fill="#000000">F</text>
</g>
<!-- B&#45;&gt;F -->
<g id="edge5" class="edge">
<title>B&#45;&gt;F</title>
<path fill="none" stroke="#000000" d="M117.1686,-143.8314C125.7152,-135.2848 136.0557,-124.9443 145.3802,-115.6198"/>
<polygon fill="#000000" stroke="#000000" points="147.9905,-117.9592 152.5867,-108.4133 143.0408,-113.0095 147.9905,-117.9592"/>
</g>
<!-- C&#45;&gt;F -->
<g id="edge6" class="edge">
<title>C&#45;&gt;F</title>
<path fill="none" stroke="#000000" d="M171,-143.8314C171,-136.131 171,-126.9743 171,-118.4166"/>
<polygon fill="#000000" stroke="#000000" points="174.5001,-118.4132 171,-108.4133 167.5001,-118.4133 174.5001,-118.4132"/>
</g>
<!-- G -->
<g id="node7" class="node">
<title>G</title>
<polygon fill="#ffffff" stroke="#000000" points="162,-36 108,-36 108,0 162,0 162,-36"/>
<text text-anchor="middle" x="135" y="-14.6" font-family="Lato" font-size="13.00" fill="#000000">G</text>
</g>
<!-- E&#45;&gt;G -->
<g id="edge7" class="edge">
<title>E&#45;&gt;G</title>
<path fill="none" stroke="#000000" d="M108.0843,-71.8314C112.0615,-63.8771 116.8155,-54.369 121.2139,-45.5723"/>
<polygon fill="#000000" stroke="#000000" points="124.4517,-46.9228 125.7934,-36.4133 118.1907,-43.7923 124.4517,-46.9228"/>
</g>
<!-- F&#45;&gt;G -->
<g id="edge8" class="edge">
<title>F&#45;&gt;G</title>
<path fill="none" stroke="#000000" d="M161.9157,-71.8314C157.9385,-63.8771 153.1845,-54.369 148.7861,-45.5723"/>
<polygon fill="#000000" stroke="#000000" points="151.8093,-43.7923 144.2066,-36.4133 145.5483,-46.9228 151.8093,-43.7923"/>
</g>
</g>
</svg>
