<?xml version="1.0" encoding="UTF-8" standalone="no"?>
<!DOCTYPE svg PUBLIC "-//W3C//DTD SVG 1.1//EN"
 "http://www.w3.org/Graphics/SVG/1.1/DTD/svg11.dtd">
<!-- Generated by graphviz version 14.1.1 (0)
 -->
<!-- Pages: 1 -->
<svg width="872pt" height="234pt"
 viewBox="0.00 0.00 872.00 234.00" xmlns="http://www.w3.org/2000/svg" xmlns:xlink="http://www.w3.org/1999/xlink">
<g id="graph0" class="graph" transform="scale(1 1) rotate(0) translate(4 229.5)">
<!-- alumno1 -->
<g id="node1" class="node">
<title>alumno1</title>
<polygon fill="none" stroke="none" points="269,-165 181,-165 181,-134 269,-134 269,-165"/>
<text xml:space="preserve" text-anchor="start" x="203.62" y="-149.65" font-family="Lato" font-size="13.00">alumno</text>
<text xml:space="preserve" text-anchor="start" x="189" y="-139.5" font-family="monospace" font-size="10.00" fill="blue">(numero=111)</text>
</g>
<!-- dni1 -->
<g id="node2" class="node">
<title>dni1</title>
<polygon fill="none" stroke="none" points="58.4,-93.3 29.6,-93.3 29.6,-71.7 58.4,-71.7 58.4,-93.3"/>
<text xml:space="preserve" text-anchor="start" x="35" y="-82.65" font-family="Lato" font-size="13.00">dni</text>
<text xml:space="preserve" text-anchor="start" x="8" y="-72.5" font-family="monospace" font-size="10.00" fill="blue">(123123123A)</text>
</g>
<!-- alumno1&#45;&gt;dni1 -->
<g id="edge4" class="edge">
<title>alumno1&#45;&gt;dni1</title>
<path fill="none" stroke="black" d="M184.83,-134.07C144.63,-119.64 85,-98.22 58.09,-88.56"/>
</g>
<!-- nombre1 -->
<g id="node3" class="node">
<title>nombre1</title>
<polygon fill="none" stroke="none" points="150.4,-93.3 121.6,-93.3 121.6,-71.7 150.4,-71.7 150.4,-93.3"/>
<text xml:space="preserve" text-anchor="middle" x="136" y="-78.4" font-family="Lato" font-size="13.00">nombre</text>
</g>
<!-- alumno1&#45;&gt;nombre1 -->
<g id="edge5" class="edge">
<title>alumno1&#45;&gt;nombre1</title>
<path fill="none" stroke="black" d="M205.25,-134.07C188.25,-121.66 164.18,-104.08 149.35,-93.25"/>
</g>
<!-- telefono1 -->
<g id="node4" class="node">
<title>telefono1</title>
<polygon fill="none" stroke="none" points="239.4,-96.9 210.6,-96.9 210.6,-68.1 239.4,-68.1 239.4,-96.9"/>
<text xml:space="preserve" text-anchor="start" x="201" y="-82.65" font-family="Lato" font-size="13.00">telefono</text>
<text xml:space="preserve" text-anchor="start" x="192" y="-72.5" font-family="monospace" font-size="10.00" fill="blue">(666555444)</text>
</g>
<!-- alumno1&#45;&gt;telefono1 -->
<g id="edge6" class="edge">
<title>alumno1&#45;&gt;telefono1</title>
<path fill="none" stroke="black" d="M225,-134.07C225,-122.85 225,-107.42 225,-96.56"/>
</g>
<!-- nota1 -->
<g id="node5" class="node">
<title>nota1</title>
<polygon fill="none" stroke="none" points="319.4,-93.3 290.6,-93.3 290.6,-71.7 319.4,-71.7 319.4,-93.3"/>
<text xml:space="preserve" text-anchor="start" x="291.88" y="-82.65" font-family="Lato" font-size="13.00">nota</text>
<text xml:space="preserve" text-anchor="start" x="296" y="-72.5" font-family="monospace" font-size="10.00" fill="blue">(7)</text>
</g>
<!-- alumno1&#45;&gt;nota1 -->
<g id="edge7" class="edge">
<title>alumno1&#45;&gt;nota1</title>
<path fill="none" stroke="black" d="M242.75,-134.07C258.04,-121.66 279.67,-104.08 293,-93.25"/>
</g>
<!-- propio1 -->
<g id="node6" class="node">
<title>propio1</title>
<polygon fill="none" stroke="none" points="98.4,-26.3 69.6,-26.3 69.6,-4.7 98.4,-4.7 98.4,-26.3"/>
<text xml:space="preserve" text-anchor="start" x="65.25" y="-15.65" font-family="Lato" font-size="13.00">propio</text>
<text xml:space="preserve" text-anchor="start" x="66" y="-5.5" font-family="monospace" font-size="10.00" fill="blue">(Juan)</text>
</g>
<!-- nombre1&#45;&gt;propio1 -->
<g id="edge8" class="edge">
<title>nombre1&#45;&gt;propio1</title>
<path fill="none" stroke="black" d="M128.33,-71.91C118.5,-59.62 101.55,-38.44 91.7,-26.13"/>
</g>
<!-- apellidos1 -->
<g id="node7" class="node">
<title>apellidos1</title>
<polygon fill="none" stroke="none" points="202.4,-26.3 173.6,-26.3 173.6,-4.7 202.4,-4.7 202.4,-26.3"/>
<text xml:space="preserve" text-anchor="start" x="162.5" y="-15.65" font-family="Lato" font-size="13.00">apellidos</text>
<text xml:space="preserve" text-anchor="start" x="137" y="-5.5" font-family="monospace" font-size="10.00" fill="blue">(García González)</text>
</g>
<!-- nombre1&#45;&gt;apellidos1 -->
<g id="edge9" class="edge">
<title>nombre1&#45;&gt;apellidos1</title>
<path fill="none" stroke="black" d="M143.67,-71.91C153.5,-59.62 170.45,-38.44 180.3,-26.13"/>
</g>
<!-- alumno2 -->
<g id="node8" class="node">
<title>alumno2</title>
<polygon fill="none" stroke="none" points="562,-165 474,-165 474,-134 562,-134 562,-165"/>
<text xml:space="preserve" text-anchor="start" x="496.62" y="-149.65" font-family="Lato" font-size="13.00">alumno</text>
<text xml:space="preserve" text-anchor="start" x="482" y="-139.5" font-family="monospace" font-size="10.00" fill="blue">(numero=222)</text>
</g>
<!-- dni2 -->
<g id="node9" class="node">
<title>dni2</title>
<polygon fill="none" stroke="none" points="399.4,-93.3 370.6,-93.3 370.6,-71.7 399.4,-71.7 399.4,-93.3"/>
<text xml:space="preserve" text-anchor="start" x="376" y="-82.65" font-family="Lato" font-size="13.00">dni</text>
<text xml:space="preserve" text-anchor="start" x="352" y="-72.5" font-family="monospace" font-size="10.00" fill="blue">(44455566B)</text>
</g>
<!-- alumno2&#45;&gt;dni2 -->
<g id="edge10" class="edge">
<title>alumno2&#45;&gt;dni2</title>
<path fill="none" stroke="black" d="M488.48,-134.07C460.78,-120.54 420.52,-100.86 399.31,-90.49"/>
</g>
<!-- nombre2 -->
<g id="node10" class="node">
<title>nombre2</title>
<polygon fill="none" stroke="none" points="488.4,-93.3 459.6,-93.3 459.6,-71.7 488.4,-71.7 488.4,-93.3"/>
<text xml:space="preserve" text-anchor="middle" x="474" y="-78.4" font-family="Lato" font-size="13.00">nombre</text>
</g>
<!-- alumno2&#45;&gt;nombre2 -->
<g id="edge11" class="edge">
<title>alumno2&#45;&gt;nombre2</title>
<path fill="none" stroke="black" d="M508.23,-134.07C499.83,-121.66 487.93,-104.08 480.6,-93.25"/>
</g>
<!-- telefono2 -->
<g id="node11" class="node">
<title>telefono2</title>
<polygon fill="none" stroke="none" points="577.4,-96.9 548.6,-96.9 548.6,-68.1 577.4,-68.1 577.4,-96.9"/>
<text xml:space="preserve" text-anchor="start" x="539" y="-82.65" font-family="Lato" font-size="13.00">telefono</text>
<text xml:space="preserve" text-anchor="start" x="530" y="-72.5" font-family="monospace" font-size="10.00" fill="blue">(696969696)</text>
</g>
<!-- alumno2&#45;&gt;telefono2 -->
<g id="edge12" class="edge">
<title>alumno2&#45;&gt;telefono2</title>
<path fill="none" stroke="black" d="M527.99,-134.07C535.75,-122.85 546.44,-107.42 553.96,-96.56"/>
</g>
<!-- nota2 -->
<g id="node12" class="node">
<title>nota2</title>
<polygon fill="none" stroke="none" points="657.4,-93.3 628.6,-93.3 628.6,-71.7 657.4,-71.7 657.4,-93.3"/>
<text xml:space="preserve" text-anchor="start" x="629.88" y="-82.65" font-family="Lato" font-size="13.00">nota</text>
<text xml:space="preserve" text-anchor="start" x="634" y="-72.5" font-family="monospace" font-size="10.00" fill="blue">(9)</text>
</g>
<!-- alumno2&#45;&gt;nota2 -->
<g id="edge13" class="edge">
<title>alumno2&#45;&gt;nota2</title>
<path fill="none" stroke="black" d="M545.74,-134.07C571.49,-120.68 608.78,-101.29 628.88,-90.84"/>
</g>
<!-- propio2 -->
<g id="node13" class="node">
<title>propio2</title>
<polygon fill="none" stroke="none" points="435.4,-26.3 406.6,-26.3 406.6,-4.7 435.4,-4.7 435.4,-26.3"/>
<text xml:space="preserve" text-anchor="start" x="402.25" y="-15.65" font-family="Lato" font-size="13.00">propio</text>
<text xml:space="preserve" text-anchor="start" x="400" y="-5.5" font-family="monospace" font-size="10.00" fill="blue">(María)</text>
</g>
<!-- nombre2&#45;&gt;propio2 -->
<g id="edge14" class="edge">
<title>nombre2&#45;&gt;propio2</title>
<path fill="none" stroke="black" d="M466.18,-71.91C456.16,-59.62 438.89,-38.44 428.85,-26.13"/>
</g>
<!-- apellidos2 -->
<g id="node14" class="node">
<title>apellidos2</title>
<polygon fill="none" stroke="none" points="541.4,-26.3 512.6,-26.3 512.6,-4.7 541.4,-4.7 541.4,-26.3"/>
<text xml:space="preserve" text-anchor="start" x="501.5" y="-15.65" font-family="Lato" font-size="13.00">apellidos</text>
<text xml:space="preserve" text-anchor="start" x="476" y="-5.5" font-family="monospace" font-size="10.00" fill="blue">(Pérez Rodríguez)</text>
</g>
<!-- nombre2&#45;&gt;apellidos2 -->
<g id="edge15" class="edge">
<title>nombre2&#45;&gt;apellidos2</title>
<path fill="none" stroke="black" d="M481.82,-71.91C491.84,-59.62 509.11,-38.44 519.15,-26.13"/>
</g>
<!-- telefono3 -->
<g id="node15" class="node">
<title>telefono3</title>
<polygon fill="none" stroke="none" points="737.4,-96.9 708.6,-96.9 708.6,-68.1 737.4,-68.1 737.4,-96.9"/>
<text xml:space="preserve" text-anchor="start" x="699" y="-82.65" font-family="Lato" font-size="13.00">telefono</text>
<text xml:space="preserve" text-anchor="start" x="690" y="-72.5" font-family="monospace" font-size="10.00" fill="blue">(956366666)</text>
</g>
<!-- dni3 -->
<g id="node16" class="node">
<title>dni3</title>
<polygon fill="none" stroke="none" points="837.4,-93.3 808.6,-93.3 808.6,-71.7 837.4,-71.7 837.4,-93.3"/>
<text xml:space="preserve" text-anchor="start" x="814" y="-82.65" font-family="Lato" font-size="13.00">dni</text>
<text xml:space="preserve" text-anchor="start" x="790" y="-72.5" font-family="monospace" font-size="10.00" fill="blue">(22222222C)</text>
</g>
<!-- raiz -->
<g id="node17" class="node">
<title>raiz</title>
<polygon fill="none" stroke="none" points="532.4,-224.05 503.6,-224.05 503.6,-202.45 532.4,-202.45 532.4,-224.05"/>
<text xml:space="preserve" text-anchor="middle" x="518" y="-209.15" font-family="Lato" font-size="13.00">raiz</text>
</g>
<!-- raiz&#45;&gt;alumno1 -->
<g id="edge1" class="edge">
<title>raiz&#45;&gt;alumno1</title>
<path fill="none" stroke="black" d="M503.87,-209.27C461.8,-200.41 336.14,-173.92 268.79,-159.73"/>
</g>
<!-- raiz&#45;&gt;alumno2 -->
<g id="edge2" class="edge">
<title>raiz&#45;&gt;alumno2</title>
<path fill="none" stroke="black" d="M518,-202.6C518,-192.43 518,-176.29 518,-164.67"/>
</g>
<!-- madre -->
<g id="node18" class="node">
<title>madre</title>
<polygon fill="none" stroke="none" points="737.4,-160.3 708.6,-160.3 708.6,-138.7 737.4,-138.7 737.4,-160.3"/>
<text xml:space="preserve" text-anchor="middle" x="723" y="-145.4" font-family="Lato" font-size="13.00">madre</text>
</g>
<!-- raiz&#45;&gt;madre -->
<g id="edge3" class="edge">
<title>raiz&#45;&gt;madre</title>
<path fill="none" stroke="black" d="M532.09,-208.01C569.54,-196.72 671.25,-166.09 708.81,-154.77"/>
</g>
<!-- madre&#45;&gt;telefono3 -->
<g id="edge16" class="edge">
<title>madre&#45;&gt;telefono3</title>
<path fill="none" stroke="black" d="M723,-138.91C723,-127.75 723,-109.26 723,-96.74"/>
</g>
<!-- madre&#45;&gt;dni3 -->
<g id="edge17" class="edge">
<title>madre&#45;&gt;dni3</title>
<path fill="none" stroke="black" d="M737.33,-139.19C756.34,-126.83 789.7,-105.14 808.7,-92.8"/>
</g>
</g>
</svg>
