<?xml version="1.0" encoding="UTF-8" standalone="no"?>
<!DOCTYPE svg PUBLIC "-//W3C//DTD SVG 1.1//EN"
 "http://www.w3.org/Graphics/SVG/1.1/DTD/svg11.dtd">
<!-- Generated by graphviz version 2.42.4 (0)
 -->
<!-- Pages: 1 -->
<svg width="781pt" height="231pt"
 viewBox="0.00 0.00 781.00 231.00" xmlns="http://www.w3.org/2000/svg" xmlns:xlink="http://www.w3.org/1999/xlink">
<g id="graph0" class="graph" transform="scale(1 1) rotate(0) translate(4 227)">
<!-- alumno1 -->
<g id="node1" class="node">
<title>alumno1</title>
<polygon fill="transparent" stroke="transparent" points="272,-165 183,-165 183,-134 272,-134 272,-165"/>
<text text-anchor="start" x="206" y="-151.6" font-family="Lato" font-size="13.00">alumno</text>
<text text-anchor="start" x="191" y="-141" font-family="monospace" font-size="10.00" fill="blue">(numero=111)</text>
</g>
<!-- dni1 -->
<g id="node2" class="node">
<title>dni1</title>
<polygon fill="transparent" stroke="transparent" points="59,-93.5 30,-93.5 30,-71.5 59,-71.5 59,-93.5"/>
<text text-anchor="start" x="35" y="-84.6" font-family="Lato" font-size="13.00">dni</text>
<text text-anchor="start" x="8" y="-74" font-family="monospace" font-size="10.00" fill="blue">(123123123A)</text>
</g>
<!-- alumno1&#45;&gt;dni1 -->
<g id="edge4" class="edge">
<title>alumno1&#45;&gt;dni1</title>
<path fill="none" stroke="black" d="M186.43,-133.91C145.97,-119.54 86.36,-98.37 59.09,-88.68"/>
</g>
<!-- nombre1 -->
<g id="node3" class="node">
<title>nombre1</title>
<polygon fill="transparent" stroke="transparent" points="152,-93.5 123,-93.5 123,-71.5 152,-71.5 152,-93.5"/>
<text text-anchor="middle" x="137.5" y="-79.1" font-family="Lato" font-size="13.00">nombre</text>
</g>
<!-- alumno1&#45;&gt;nombre1 -->
<g id="edge5" class="edge">
<title>alumno1&#45;&gt;nombre1</title>
<path fill="none" stroke="black" d="M207.08,-133.75C190.07,-121.46 166.3,-104.3 151.41,-93.54"/>
</g>
<!-- telefono1 -->
<g id="node4" class="node">
<title>telefono1</title>
<polygon fill="transparent" stroke="transparent" points="242,-97 213,-97 213,-68 242,-68 242,-97"/>
<text text-anchor="start" x="203" y="-84.6" font-family="Lato" font-size="13.00">telefono</text>
<text text-anchor="start" x="194" y="-74" font-family="monospace" font-size="10.00" fill="blue">(666555444)</text>
</g>
<!-- alumno1&#45;&gt;telefono1 -->
<g id="edge6" class="edge">
<title>alumno1&#45;&gt;telefono1</title>
<path fill="none" stroke="black" d="M227.5,-133.75C227.5,-122.81 227.5,-108.01 227.5,-97.3"/>
</g>
<!-- nota1 -->
<g id="node5" class="node">
<title>nota1</title>
<polygon fill="transparent" stroke="transparent" points="323,-93.5 294,-93.5 294,-71.5 323,-71.5 323,-93.5"/>
<text text-anchor="start" x="295" y="-84.6" font-family="Lato" font-size="13.00">nota</text>
<text text-anchor="start" x="299" y="-74" font-family="monospace" font-size="10.00" fill="blue">(7)</text>
</g>
<!-- alumno1&#45;&gt;nota1 -->
<g id="edge7" class="edge">
<title>alumno1&#45;&gt;nota1</title>
<path fill="none" stroke="black" d="M245.88,-133.75C261.19,-121.46 282.58,-104.3 295.98,-93.54"/>
</g>
<!-- propio1 -->
<g id="node6" class="node">
<title>propio1</title>
<polygon fill="transparent" stroke="transparent" points="100,-26.5 71,-26.5 71,-4.5 100,-4.5 100,-26.5"/>
<text text-anchor="start" x="66.5" y="-17.6" font-family="Lato" font-size="13.00">propio</text>
<text text-anchor="start" x="67" y="-7" font-family="monospace" font-size="10.00" fill="blue">(Juan)</text>
</g>
<!-- nombre1&#45;&gt;propio1 -->
<g id="edge8" class="edge">
<title>nombre1&#45;&gt;propio1</title>
<path fill="none" stroke="black" d="M129.38,-71.34C119.66,-59.2 103.5,-39 93.74,-26.8"/>
</g>
<!-- apellidos1 -->
<g id="node7" class="node">
<title>apellidos1</title>
<polygon fill="transparent" stroke="transparent" points="205,-26.5 176,-26.5 176,-4.5 205,-4.5 205,-26.5"/>
<text text-anchor="start" x="164.5" y="-17.6" font-family="Lato" font-size="13.00">apellidos</text>
<text text-anchor="start" x="139" y="-7" font-family="monospace" font-size="10.00" fill="blue">(García González)</text>
</g>
<!-- nombre1&#45;&gt;apellidos1 -->
<g id="edge9" class="edge">
<title>nombre1&#45;&gt;apellidos1</title>
<path fill="none" stroke="black" d="M145.78,-71.34C155.68,-59.2 172.15,-39 182.1,-26.8"/>
</g>
<!-- alumno2 -->
<g id="node8" class="node">
<title>alumno2</title>
<polygon fill="transparent" stroke="transparent" points="565,-165 476,-165 476,-134 565,-134 565,-165"/>
<text text-anchor="start" x="499" y="-151.6" font-family="Lato" font-size="13.00">alumno</text>
<text text-anchor="start" x="484" y="-141" font-family="monospace" font-size="10.00" fill="blue">(numero=222)</text>
</g>
<!-- dni2 -->
<g id="node9" class="node">
<title>dni2</title>
<polygon fill="transparent" stroke="transparent" points="404,-93.5 375,-93.5 375,-71.5 404,-71.5 404,-93.5"/>
<text text-anchor="start" x="380" y="-84.6" font-family="Lato" font-size="13.00">dni</text>
<text text-anchor="start" x="356" y="-74" font-family="monospace" font-size="10.00" fill="blue">(44455566B)</text>
</g>
<!-- alumno2&#45;&gt;dni2 -->
<g id="edge10" class="edge">
<title>alumno2&#45;&gt;dni2</title>
<path fill="none" stroke="black" d="M491.1,-133.91C464.1,-120.51 425.18,-101.2 404.22,-90.8"/>
</g>
<!-- nombre2 -->
<g id="node10" class="node">
<title>nombre2</title>
<polygon fill="transparent" stroke="transparent" points="494,-93.5 465,-93.5 465,-71.5 494,-71.5 494,-93.5"/>
<text text-anchor="middle" x="479.5" y="-79.1" font-family="Lato" font-size="13.00">nombre</text>
</g>
<!-- alumno2&#45;&gt;nombre2 -->
<g id="edge11" class="edge">
<title>alumno2&#45;&gt;nombre2</title>
<path fill="none" stroke="black" d="M511.2,-133.75C503.45,-121.46 492.62,-104.3 485.84,-93.54"/>
</g>
<!-- telefono2 -->
<g id="node11" class="node">
<title>telefono2</title>
<polygon fill="transparent" stroke="transparent" points="584,-97 555,-97 555,-68 584,-68 584,-97"/>
<text text-anchor="start" x="545" y="-84.6" font-family="Lato" font-size="13.00">telefono</text>
<text text-anchor="start" x="536" y="-74" font-family="monospace" font-size="10.00" fill="blue">(696969696)</text>
</g>
<!-- alumno2&#45;&gt;telefono2 -->
<g id="edge12" class="edge">
<title>alumno2&#45;&gt;telefono2</title>
<path fill="none" stroke="black" d="M531.62,-133.75C539.86,-122.81 551.03,-108.01 559.1,-97.3"/>
</g>
<!-- nota2 -->
<g id="node12" class="node">
<title>nota2</title>
<polygon fill="transparent" stroke="transparent" points="665,-93.5 636,-93.5 636,-71.5 665,-71.5 665,-93.5"/>
<text text-anchor="start" x="637" y="-84.6" font-family="Lato" font-size="13.00">nota</text>
<text text-anchor="start" x="641" y="-74" font-family="monospace" font-size="10.00" fill="blue">(9)</text>
</g>
<!-- alumno2&#45;&gt;nota2 -->
<g id="edge13" class="edge">
<title>alumno2&#45;&gt;nota2</title>
<path fill="none" stroke="black" d="M549.67,-133.91C576.47,-120.51 615.09,-101.2 635.9,-90.8"/>
</g>
<!-- propio2 -->
<g id="node13" class="node">
<title>propio2</title>
<polygon fill="transparent" stroke="transparent" points="440,-26.5 411,-26.5 411,-4.5 440,-4.5 440,-26.5"/>
<text text-anchor="start" x="406.5" y="-17.6" font-family="Lato" font-size="13.00">propio</text>
<text text-anchor="start" x="404" y="-7" font-family="monospace" font-size="10.00" fill="blue">(María)</text>
</g>
<!-- nombre2&#45;&gt;propio2 -->
<g id="edge14" class="edge">
<title>nombre2&#45;&gt;propio2</title>
<path fill="none" stroke="black" d="M471.06,-71.34C460.98,-59.2 444.19,-39 434.06,-26.8"/>
</g>
<!-- apellidos2 -->
<g id="node14" class="node">
<title>apellidos2</title>
<polygon fill="transparent" stroke="transparent" points="547,-26.5 518,-26.5 518,-4.5 547,-4.5 547,-26.5"/>
<text text-anchor="start" x="506.5" y="-17.6" font-family="Lato" font-size="13.00">apellidos</text>
<text text-anchor="start" x="481" y="-7" font-family="monospace" font-size="10.00" fill="blue">(Pérez Rodríguez)</text>
</g>
<!-- nombre2&#45;&gt;apellidos2 -->
<g id="edge15" class="edge">
<title>nombre2&#45;&gt;apellidos2</title>
<path fill="none" stroke="black" d="M487.78,-71.34C497.68,-59.2 514.15,-39 524.1,-26.8"/>
</g>
<!-- dni3 -->
<g id="node15" class="node">
<title>dni3</title>
<polygon fill="transparent" stroke="transparent" points="746,-93.5 717,-93.5 717,-71.5 746,-71.5 746,-93.5"/>
<text text-anchor="start" x="722" y="-84.6" font-family="Lato" font-size="13.00">dni</text>
<text text-anchor="start" x="698" y="-74" font-family="monospace" font-size="10.00" fill="blue">(22222222C)</text>
</g>
<!-- raiz -->
<g id="node16" class="node">
<title>raiz</title>
<polygon fill="transparent" stroke="transparent" points="535,-223 506,-223 506,-201 535,-201 535,-223"/>
<text text-anchor="middle" x="520.5" y="-208.6" font-family="Lato" font-size="13.00">raiz</text>
</g>
<!-- raiz&#45;&gt;alumno1 -->
<g id="edge1" class="edge">
<title>raiz&#45;&gt;alumno1</title>
<path fill="none" stroke="black" d="M505.97,-208C463.71,-199.27 339.57,-173.64 272.21,-159.73"/>
</g>
<!-- raiz&#45;&gt;alumno2 -->
<g id="edge2" class="edge">
<title>raiz&#45;&gt;alumno2</title>
<path fill="none" stroke="black" d="M520.5,-200.74C520.5,-191.03 520.5,-176.35 520.5,-165.36"/>
</g>
<!-- madre -->
<g id="node17" class="node">
<title>madre</title>
<polygon fill="transparent" stroke="transparent" points="705,-160.5 676,-160.5 676,-138.5 705,-138.5 705,-160.5"/>
<text text-anchor="middle" x="690.5" y="-146.1" font-family="Lato" font-size="13.00">madre</text>
</g>
<!-- raiz&#45;&gt;madre -->
<g id="edge3" class="edge">
<title>raiz&#45;&gt;madre</title>
<path fill="none" stroke="black" d="M535.29,-205.74C567.44,-194.29 643.39,-167.26 675.62,-155.79"/>
</g>
<!-- madre&#45;&gt;dni3 -->
<g id="edge16" class="edge">
<title>madre&#45;&gt;dni3</title>
<path fill="none" stroke="black" d="M696.91,-138.34C704.56,-126.2 717.31,-106 725,-93.8"/>
</g>
</g>
</svg>
