<?xml version="1.0" encoding="UTF-8" standalone="no"?>
<!DOCTYPE svg PUBLIC "-//W3C//DTD SVG 1.1//EN"
 "http://www.w3.org/Graphics/SVG/1.1/DTD/svg11.dtd">
<!-- Generated by graphviz version 2.43.0 (0)
 -->
<!-- Title: %3 Pages: 1 -->
<svg width="882pt" height="231pt"
 viewBox="0.00 0.00 882.00 231.00" xmlns="http://www.w3.org/2000/svg" xmlns:xlink="http://www.w3.org/1999/xlink">
<g id="graph0" class="graph" transform="scale(1 1) rotate(0) translate(4 227)">
<title>%3</title>
<!-- alumno1 -->
<g id="node1" class="node">
<title>alumno1</title>
<polygon fill="transparent" stroke="transparent" points="272,-165 183,-165 183,-134 272,-134 272,-165"/>
<text text-anchor="start" x="206" y="-151.6" font-family="Lato" font-size="13.00">alumno</text>
<text text-anchor="start" x="191" y="-141" font-family="monospace" font-size="10.00" fill="blue">(numero=111)</text>
</g>
<!-- dni1 -->
<g id="node2" class="node">
<title>dni1</title>
<polygon fill="transparent" stroke="transparent" points="59,-93.5 30,-93.5 30,-71.5 59,-71.5 59,-93.5"/>
<text text-anchor="start" x="35" y="-84.6" font-family="Lato" font-size="13.00">dni</text>
<text text-anchor="start" x="8" y="-74" font-family="monospace" font-size="10.00" fill="blue">(123123123A)</text>
</g>
<!-- alumno1&#45;&gt;dni1 -->
<g id="edge4" class="edge">
<title>alumno1&#45;&gt;dni1</title>
<path fill="none" stroke="black" d="M186.43,-133.91C145.97,-119.54 86.36,-98.37 59.09,-88.68"/>
</g>
<!-- nombre1 -->
<g id="node3" class="node">
<title>nombre1</title>
<polygon fill="transparent" stroke="transparent" points="152,-93.5 123,-93.5 123,-71.5 152,-71.5 152,-93.5"/>
<text text-anchor="middle" x="137.5" y="-79.1" font-family="Lato" font-size="13.00">nombre</text>
</g>
<!-- alumno1&#45;&gt;nombre1 -->
<g id="edge5" class="edge">
<title>alumno1&#45;&gt;nombre1</title>
<path fill="none" stroke="black" d="M207.08,-133.75C190.07,-121.46 166.3,-104.3 151.41,-93.54"/>
</g>
<!-- telefono1 -->
<g id="node4" class="node">
<title>telefono1</title>
<polygon fill="transparent" stroke="transparent" points="242,-97 213,-97 213,-68 242,-68 242,-97"/>
<text text-anchor="start" x="203" y="-84.6" font-family="Lato" font-size="13.00">telefono</text>
<text text-anchor="start" x="194" y="-74" font-family="monospace" font-size="10.00" fill="blue">(666555444)</text>
</g>
<!-- alumno1&#45;&gt;telefono1 -->
<g id="edge6" class="edge">
<title>alumno1&#45;&gt;telefono1</title>
<path fill="none" stroke="black" d="M227.5,-133.75C227.5,-122.81 227.5,-108.01 227.5,-97.3"/>
</g>
<!-- nota1 -->
<g id="node5" class="node">
<title>nota1</title>
<polygon fill="transparent" stroke="transparent" points="323,-93.5 294,-93.5 294,-71.5 323,-71.5 323,-93.5"/>
<text text-anchor="start" x="295" y="-84.6" font-family="Lato" font-size="13.00">nota</text>
<text text-anchor="start" x="299" y="-74" font-family="monospace" font-size="10.00" fill="blue">(7)</text>
</g>
<!-- alumno1&#45;&gt;nota1 -->
<g id="edge7" class="edge">
<title>alumno1&#45;&gt;nota1</title>
<path fill="none" stroke="black" d="M245.88,-133.75C261.19,-121.46 282.58,-104.3 295.98,-93.54"/>
</g>
<!-- propio1 -->
<g id="node6" class="node">
<title>propio1</title>
<polygon fill="transparent" stroke="transparent" points="100,-26.5 71,-26.5 71,-4.5 100,-4.5 100,-26.5"/>
<text text-anchor="start" x="66.5" y="-17.6" font-family="Lato" font-size="13.00">propio</text>
<text text-anchor="start" x="67" y="-7" font-family="monospace" font-size="10.00" fill="blue">(Juan)</text>
</g>
<!-- nombre1&#45;&gt;propio1 -->
<g id="edge8" class="edge">
<title>nombre1&#45;&gt;propio1</title>
<path fill="none" stroke="black" d="M129.38,-71.34C119.66,-59.2 103.5,-39 93.74,-26.8"/>
</g>
<!-- apellidos1 -->
<g id="node7" class="node">
<title>apellidos1</title>
<polygon fill="transparent" stroke="transparent" points="205,-26.5 176,-26.5 176,-4.5 205,-4.5 205,-26.5"/>
<text text-anchor="start" x="164.5" y="-17.6" font-family="Lato" font-size="13.00">apellidos</text>
<text text-anchor="start" x="139" y="-7" font-family="monospace" font-size="10.00" fill="blue">(García González)</text>
</g>
<!-- nombre1&#45;&gt;apellidos1 -->
<g id="edge9" class="edge">
<title>nombre1&#45;&gt;apellidos1</title>
<path fill="none" stroke="black" d="M145.78,-71.34C155.68,-59.2 172.15,-39 182.1,-26.8"/>
</g>
<!-- alumno2 -->
<g id="node8" class="node">
<title>alumno2</title>
<polygon fill="transparent" stroke="transparent" points="569,-165 480,-165 480,-134 569,-134 569,-165"/>
<text text-anchor="start" x="503" y="-151.6" font-family="Lato" font-size="13.00">alumno</text>
<text text-anchor="start" x="488" y="-141" font-family="monospace" font-size="10.00" fill="blue">(numero=222)</text>
</g>
<!-- dni2 -->
<g id="node9" class="node">
<title>dni2</title>
<polygon fill="transparent" stroke="transparent" points="404,-93.5 375,-93.5 375,-71.5 404,-71.5 404,-93.5"/>
<text text-anchor="start" x="380" y="-84.6" font-family="Lato" font-size="13.00">dni</text>
<text text-anchor="start" x="356" y="-74" font-family="monospace" font-size="10.00" fill="blue">(44455566B)</text>
</g>
<!-- alumno2&#45;&gt;dni2 -->
<g id="edge10" class="edge">
<title>alumno2&#45;&gt;dni2</title>
<path fill="none" stroke="black" d="M494.2,-133.91C466.22,-120.44 425.82,-100.99 404.31,-90.63"/>
</g>
<!-- nombre2 -->
<g id="node10" class="node">
<title>nombre2</title>
<polygon fill="transparent" stroke="transparent" points="494,-93.5 465,-93.5 465,-71.5 494,-71.5 494,-93.5"/>
<text text-anchor="middle" x="479.5" y="-79.1" font-family="Lato" font-size="13.00">nombre</text>
</g>
<!-- alumno2&#45;&gt;nombre2 -->
<g id="edge11" class="edge">
<title>alumno2&#45;&gt;nombre2</title>
<path fill="none" stroke="black" d="M514.29,-133.75C505.78,-121.46 493.9,-104.3 486.45,-93.54"/>
</g>
<!-- telefono2 -->
<g id="node11" class="node">
<title>telefono2</title>
<polygon fill="transparent" stroke="transparent" points="584,-97 555,-97 555,-68 584,-68 584,-97"/>
<text text-anchor="start" x="545" y="-84.6" font-family="Lato" font-size="13.00">telefono</text>
<text text-anchor="start" x="536" y="-74" font-family="monospace" font-size="10.00" fill="blue">(696969696)</text>
</g>
<!-- alumno2&#45;&gt;telefono2 -->
<g id="edge12" class="edge">
<title>alumno2&#45;&gt;telefono2</title>
<path fill="none" stroke="black" d="M534.71,-133.75C542.28,-122.81 552.53,-108.01 559.94,-97.3"/>
</g>
<!-- nota2 -->
<g id="node12" class="node">
<title>nota2</title>
<polygon fill="transparent" stroke="transparent" points="665,-93.5 636,-93.5 636,-71.5 665,-71.5 665,-93.5"/>
<text text-anchor="start" x="637" y="-84.6" font-family="Lato" font-size="13.00">nota</text>
<text text-anchor="start" x="641" y="-74" font-family="monospace" font-size="10.00" fill="blue">(9)</text>
</g>
<!-- alumno2&#45;&gt;nota2 -->
<g id="edge13" class="edge">
<title>alumno2&#45;&gt;nota2</title>
<path fill="none" stroke="black" d="M552.78,-133.91C578.46,-120.66 615.35,-101.64 635.66,-91.15"/>
</g>
<!-- propio2 -->
<g id="node13" class="node">
<title>propio2</title>
<polygon fill="transparent" stroke="transparent" points="440,-26.5 411,-26.5 411,-4.5 440,-4.5 440,-26.5"/>
<text text-anchor="start" x="406.5" y="-17.6" font-family="Lato" font-size="13.00">propio</text>
<text text-anchor="start" x="404" y="-7" font-family="monospace" font-size="10.00" fill="blue">(María)</text>
</g>
<!-- nombre2&#45;&gt;propio2 -->
<g id="edge14" class="edge">
<title>nombre2&#45;&gt;propio2</title>
<path fill="none" stroke="black" d="M471.06,-71.34C460.98,-59.2 444.19,-39 434.06,-26.8"/>
</g>
<!-- apellidos2 -->
<g id="node14" class="node">
<title>apellidos2</title>
<polygon fill="transparent" stroke="transparent" points="547,-26.5 518,-26.5 518,-4.5 547,-4.5 547,-26.5"/>
<text text-anchor="start" x="506.5" y="-17.6" font-family="Lato" font-size="13.00">apellidos</text>
<text text-anchor="start" x="481" y="-7" font-family="monospace" font-size="10.00" fill="blue">(Pérez Rodríguez)</text>
</g>
<!-- nombre2&#45;&gt;apellidos2 -->
<g id="edge15" class="edge">
<title>nombre2&#45;&gt;apellidos2</title>
<path fill="none" stroke="black" d="M487.78,-71.34C497.68,-59.2 514.15,-39 524.1,-26.8"/>
</g>
<!-- telefono3 -->
<g id="node15" class="node">
<title>telefono3</title>
<polygon fill="transparent" stroke="transparent" points="746,-97 717,-97 717,-68 746,-68 746,-97"/>
<text text-anchor="start" x="707" y="-84.6" font-family="Lato" font-size="13.00">telefono</text>
<text text-anchor="start" x="698" y="-74" font-family="monospace" font-size="10.00" fill="blue">(956366666)</text>
</g>
<!-- dni3 -->
<g id="node16" class="node">
<title>dni3</title>
<polygon fill="transparent" stroke="transparent" points="847,-93.5 818,-93.5 818,-71.5 847,-71.5 847,-93.5"/>
<text text-anchor="start" x="823" y="-84.6" font-family="Lato" font-size="13.00">dni</text>
<text text-anchor="start" x="799" y="-74" font-family="monospace" font-size="10.00" fill="blue">(22222222C)</text>
</g>
<!-- raiz -->
<g id="node17" class="node">
<title>raiz</title>
<polygon fill="transparent" stroke="transparent" points="539,-223 510,-223 510,-201 539,-201 539,-223"/>
<text text-anchor="middle" x="524.5" y="-208.6" font-family="Lato" font-size="13.00">raiz</text>
</g>
<!-- raiz&#45;&gt;alumno1 -->
<g id="edge1" class="edge">
<title>raiz&#45;&gt;alumno1</title>
<path fill="none" stroke="black" d="M509.77,-208C466.82,-199.25 340.41,-173.5 272.26,-159.62"/>
</g>
<!-- raiz&#45;&gt;alumno2 -->
<g id="edge2" class="edge">
<title>raiz&#45;&gt;alumno2</title>
<path fill="none" stroke="black" d="M524.5,-200.74C524.5,-191.03 524.5,-176.35 524.5,-165.36"/>
</g>
<!-- madre -->
<g id="node18" class="node">
<title>madre</title>
<polygon fill="transparent" stroke="transparent" points="746,-160.5 717,-160.5 717,-138.5 746,-138.5 746,-160.5"/>
<text text-anchor="middle" x="731.5" y="-146.1" font-family="Lato" font-size="13.00">madre</text>
</g>
<!-- raiz&#45;&gt;madre -->
<g id="edge3" class="edge">
<title>raiz&#45;&gt;madre</title>
<path fill="none" stroke="black" d="M539.06,-206.75C577.06,-195.64 678.97,-165.85 716.96,-154.75"/>
</g>
<!-- madre&#45;&gt;telefono3 -->
<g id="edge16" class="edge">
<title>madre&#45;&gt;telefono3</title>
<path fill="none" stroke="black" d="M731.5,-138.34C731.5,-127.35 731.5,-109.73 731.5,-97.44"/>
</g>
<!-- madre&#45;&gt;dni3 -->
<g id="edge17" class="edge">
<title>madre&#45;&gt;dni3</title>
<path fill="none" stroke="black" d="M746.4,-138.91C765.61,-126.55 798.79,-105.19 817.86,-92.92"/>
</g>
</g>
</svg>
