<?xml version="1.0" encoding="UTF-8" standalone="no"?>
<!DOCTYPE svg PUBLIC "-//W3C//DTD SVG 1.1//EN"
 "http://www.w3.org/Graphics/SVG/1.1/DTD/svg11.dtd">
<!-- Generated by graphviz version 14.1.1 (0)
 -->
<!-- Pages: 1 -->
<svg width="703pt" height="49pt"
 viewBox="0.00 0.00 703.00 49.00" xmlns="http://www.w3.org/2000/svg" xmlns:xlink="http://www.w3.org/1999/xlink">
<g id="graph0" class="graph" transform="scale(1 1) rotate(0) translate(4 45)">
<!-- F -->
<g id="node1" class="node">
<title>F</title>
<polygon fill="aliceblue" stroke="black" points="106,-41 0,-41 0,0 112,0 112,-35 106,-41"/>
<polyline fill="none" stroke="black" points="106,-41 106,-35"/>
<polyline fill="none" stroke="black" points="112,-35 106,-35"/>
<text xml:space="preserve" text-anchor="middle" x="56" y="-24.65" font-family="Lato" font-size="13.00">C칩digo fuente</text>
<text xml:space="preserve" text-anchor="middle" x="56" y="-8.15" font-family="Lato" font-size="13.00">(lenguaje fuente)</text>
</g>
<!-- Compilador -->
<g id="node4" class="node">
<title>Compilador</title>
<polygon fill="white" stroke="black" points="230,-38.5 148,-38.5 148,-2.5 230,-2.5 230,-38.5"/>
<text xml:space="preserve" text-anchor="middle" x="189" y="-16.4" font-family="Lato" font-size="13.00">Compilador</text>
</g>
<!-- F&#45;&gt;Compilador -->
<g id="edge1" class="edge">
<title>F&#45;&gt;Compilador</title>
<path fill="none" stroke="black" d="M112.18,-20.5C120.16,-20.5 128.36,-20.5 136.28,-20.5"/>
<polygon fill="black" stroke="black" points="136.1,-24 146.1,-20.5 136.1,-17 136.1,-24"/>
</g>
<!-- E -->
<g id="node2" class="node">
<title>E</title>
<polygon fill="aliceblue" stroke="black" points="408.75,-41 266,-41 266,0 414.75,0 414.75,-35 408.75,-41"/>
<polyline fill="none" stroke="black" points="408.75,-41 408.75,-35"/>
<polyline fill="none" stroke="black" points="414.75,-35 408.75,-35"/>
<text xml:space="preserve" text-anchor="middle" x="340.38" y="-24.65" font-family="Lato" font-size="13.00">C칩digo ensamblador</text>
<text xml:space="preserve" text-anchor="middle" x="340.38" y="-8.15" font-family="Lato" font-size="13.00">(lenguaje ensamblador)</text>
</g>
<!-- Ensamblador -->
<g id="node5" class="node">
<title>Ensamblador</title>
<polygon fill="white" stroke="black" points="541.75,-38.5 450.75,-38.5 450.75,-2.5 541.75,-2.5 541.75,-38.5"/>
<text xml:space="preserve" text-anchor="middle" x="496.25" y="-16.4" font-family="Lato" font-size="13.00">Ensamblador</text>
</g>
<!-- E&#45;&gt;Ensamblador -->
<g id="edge3" class="edge">
<title>E&#45;&gt;Ensamblador</title>
<path fill="none" stroke="black" d="M415.16,-20.5C423.15,-20.5 431.18,-20.5 438.92,-20.5"/>
<polygon fill="black" stroke="black" points="438.87,-24 448.87,-20.5 438.87,-17 438.87,-24"/>
</g>
<!-- O -->
<g id="node3" class="node">
<title>O</title>
<polygon fill="aliceblue" stroke="black" points="689,-41 577.75,-41 577.75,0 695,0 695,-35 689,-41"/>
<polyline fill="none" stroke="black" points="689,-41 689,-35"/>
<polyline fill="none" stroke="black" points="695,-35 689,-35"/>
<text xml:space="preserve" text-anchor="middle" x="636.38" y="-24.65" font-family="Lato" font-size="13.00">Objeto ejecutable</text>
<text xml:space="preserve" text-anchor="middle" x="636.38" y="-8.15" font-family="Lato" font-size="13.00">(c칩digo m치quina)</text>
</g>
<!-- Compilador&#45;&gt;E -->
<g id="edge2" class="edge">
<title>Compilador&#45;&gt;E</title>
<path fill="none" stroke="black" d="M230.42,-20.5C237.91,-20.5 245.98,-20.5 254.22,-20.5"/>
<polygon fill="black" stroke="black" points="254.02,-24 264.02,-20.5 254.02,-17 254.02,-24"/>
</g>
<!-- Ensamblador&#45;&gt;O -->
<g id="edge4" class="edge">
<title>Ensamblador&#45;&gt;O</title>
<path fill="none" stroke="black" d="M542.1,-20.5C549.81,-20.5 557.98,-20.5 566.15,-20.5"/>
<polygon fill="black" stroke="black" points="566.15,-24 576.15,-20.5 566.15,-17 566.15,-24"/>
</g>
</g>
</svg>
