<?xml version="1.0" encoding="UTF-8" standalone="no"?>
<!DOCTYPE svg PUBLIC "-//W3C//DTD SVG 1.1//EN"
 "http://www.w3.org/Graphics/SVG/1.1/DTD/svg11.dtd">
<!-- Generated by graphviz version 2.42.4 (0)
 -->
<!-- Pages: 1 -->
<svg width="707pt" height="44pt"
 viewBox="0.00 0.00 707.00 44.00" xmlns="http://www.w3.org/2000/svg" xmlns:xlink="http://www.w3.org/1999/xlink">
<g id="graph0" class="graph" transform="scale(1 1) rotate(0) translate(4 40)">
<!-- F -->
<g id="node1" class="node">
<title>F</title>
<polygon fill="aliceblue" stroke="black" points="107,-36 0,-36 0,0 113,0 113,-30 107,-36"/>
<polyline fill="none" stroke="black" points="107,-36 107,-30 "/>
<polyline fill="none" stroke="black" points="113,-30 107,-30 "/>
<text text-anchor="middle" x="56.5" y="-21.6" font-family="Lato" font-size="13.00">C칩digo fuente</text>
<text text-anchor="middle" x="56.5" y="-7.6" font-family="Lato" font-size="13.00">(lenguaje fuente)</text>
</g>
<!-- Compilador -->
<g id="node4" class="node">
<title>Compilador</title>
<polygon fill="white" stroke="black" points="232,-36 149,-36 149,0 232,0 232,-36"/>
<text text-anchor="middle" x="190.5" y="-14.6" font-family="Lato" font-size="13.00">Compilador</text>
</g>
<!-- F&#45;&gt;Compilador -->
<g id="edge1" class="edge">
<title>F&#45;&gt;Compilador</title>
<path fill="none" stroke="black" d="M113.1,-18C121.61,-18 130.37,-18 138.77,-18"/>
<polygon fill="black" stroke="black" points="138.81,-21.5 148.81,-18 138.81,-14.5 138.81,-21.5"/>
</g>
<!-- E -->
<g id="node2" class="node">
<title>E</title>
<polygon fill="aliceblue" stroke="black" points="411,-36 268,-36 268,0 417,0 417,-30 411,-36"/>
<polyline fill="none" stroke="black" points="411,-36 411,-30 "/>
<polyline fill="none" stroke="black" points="417,-30 411,-30 "/>
<text text-anchor="middle" x="342.5" y="-21.6" font-family="Lato" font-size="13.00">C칩digo ensamblador</text>
<text text-anchor="middle" x="342.5" y="-7.6" font-family="Lato" font-size="13.00">(lenguaje ensamblador)</text>
</g>
<!-- Ensamblador -->
<g id="node5" class="node">
<title>Ensamblador</title>
<polygon fill="white" stroke="black" points="545,-36 453,-36 453,0 545,0 545,-36"/>
<text text-anchor="middle" x="499" y="-14.6" font-family="Lato" font-size="13.00">Ensamblador</text>
</g>
<!-- E&#45;&gt;Ensamblador -->
<g id="edge3" class="edge">
<title>E&#45;&gt;Ensamblador</title>
<path fill="none" stroke="black" d="M417.13,-18C425.66,-18 434.24,-18 442.47,-18"/>
<polygon fill="black" stroke="black" points="442.66,-21.5 452.66,-18 442.66,-14.5 442.66,-21.5"/>
</g>
<!-- O -->
<g id="node3" class="node">
<title>O</title>
<polygon fill="aliceblue" stroke="black" points="693,-36 581,-36 581,0 699,0 699,-30 693,-36"/>
<polyline fill="none" stroke="black" points="693,-36 693,-30 "/>
<polyline fill="none" stroke="black" points="699,-30 693,-30 "/>
<text text-anchor="middle" x="640" y="-21.6" font-family="Lato" font-size="13.00">Objeto ejecutable</text>
<text text-anchor="middle" x="640" y="-7.6" font-family="Lato" font-size="13.00">(c칩digo m치quina)</text>
</g>
<!-- Compilador&#45;&gt;E -->
<g id="edge2" class="edge">
<title>Compilador&#45;&gt;E</title>
<path fill="none" stroke="black" d="M232.09,-18C240.16,-18 248.91,-18 257.82,-18"/>
<polygon fill="black" stroke="black" points="257.93,-21.5 267.93,-18 257.93,-14.5 257.93,-21.5"/>
</g>
<!-- Ensamblador&#45;&gt;O -->
<g id="edge4" class="edge">
<title>Ensamblador&#45;&gt;O</title>
<path fill="none" stroke="black" d="M545.13,-18C553.33,-18 562.06,-18 570.75,-18"/>
<polygon fill="black" stroke="black" points="570.92,-21.5 580.92,-18 570.92,-14.5 570.92,-21.5"/>
</g>
</g>
</svg>
