<?xml version="1.0" encoding="UTF-8" standalone="no"?>
<!DOCTYPE svg PUBLIC "-//W3C//DTD SVG 1.1//EN"
 "http://www.w3.org/Graphics/SVG/1.1/DTD/svg11.dtd">
<!-- Generated by graphviz version 2.43.0 (0)
 -->
<!-- Title: %3 Pages: 1 -->
<svg width="460pt" height="152pt"
 viewBox="0.00 0.00 460.00 152.00" xmlns="http://www.w3.org/2000/svg" xmlns:xlink="http://www.w3.org/1999/xlink">
<g id="graph0" class="graph" transform="scale(1 1) rotate(0) translate(4 148)">
<title>%3</title>
<!-- F -->
<g id="node1" class="node">
<title>F</title>
<polygon fill="aliceblue" stroke="black" points="107,-144 0,-144 0,-108 113,-108 113,-138 107,-144"/>
<polyline fill="none" stroke="black" points="107,-144 107,-138 "/>
<polyline fill="none" stroke="black" points="113,-138 107,-138 "/>
<text text-anchor="middle" x="56.5" y="-129.6" font-family="Lato" font-size="13.00">C칩digo fuente</text>
<text text-anchor="middle" x="56.5" y="-115.6" font-family="Lato" font-size="13.00">(lenguaje fuente)</text>
</g>
<!-- Compilador -->
<g id="node4" class="node">
<title>Compilador</title>
<polygon fill="white" stroke="black" points="265,-144 182,-144 182,-108 265,-108 265,-144"/>
<text text-anchor="middle" x="223.5" y="-122.6" font-family="Lato" font-size="13.00">Compilador</text>
</g>
<!-- F&#45;&gt;Compilador -->
<g id="edge1" class="edge">
<title>F&#45;&gt;Compilador</title>
<path fill="none" stroke="black" d="M113.36,-126C132.21,-126 153.13,-126 171.57,-126"/>
<polygon fill="black" stroke="black" points="171.82,-129.5 181.82,-126 171.82,-122.5 171.82,-129.5"/>
</g>
<!-- E -->
<g id="node2" class="node">
<title>E</title>
<polygon fill="aliceblue" stroke="black" points="292,-90 149,-90 149,-54 298,-54 298,-84 292,-90"/>
<polyline fill="none" stroke="black" points="292,-90 292,-84 "/>
<polyline fill="none" stroke="black" points="298,-84 292,-84 "/>
<text text-anchor="middle" x="223.5" y="-75.6" font-family="Lato" font-size="13.00">C칩digo ensamblador</text>
<text text-anchor="middle" x="223.5" y="-61.6" font-family="Lato" font-size="13.00">(lenguaje ensamblador)</text>
</g>
<!-- Ensamblador -->
<g id="node5" class="node">
<title>Ensamblador</title>
<polygon fill="white" stroke="black" points="269.5,-36 177.5,-36 177.5,0 269.5,0 269.5,-36"/>
<text text-anchor="middle" x="223.5" y="-14.6" font-family="Lato" font-size="13.00">Ensamblador</text>
</g>
<!-- E&#45;&gt;Ensamblador -->
<g id="edge3" class="edge">
<title>E&#45;&gt;Ensamblador</title>
<path fill="none" stroke="black" d="M223.5,-53.79C223.5,-51.31 223.5,-48.83 223.5,-46.34"/>
<polygon fill="black" stroke="black" points="227,-46.14 223.5,-36.14 220,-46.14 227,-46.14"/>
</g>
<!-- O -->
<g id="node3" class="node">
<title>O</title>
<polygon fill="aliceblue" stroke="black" points="446,-36 334,-36 334,0 452,0 452,-30 446,-36"/>
<polyline fill="none" stroke="black" points="446,-36 446,-30 "/>
<polyline fill="none" stroke="black" points="452,-30 446,-30 "/>
<text text-anchor="middle" x="393" y="-21.6" font-family="Lato" font-size="13.00">Objeto ejecutable</text>
<text text-anchor="middle" x="393" y="-7.6" font-family="Lato" font-size="13.00">(c칩digo m치quina)</text>
</g>
<!-- Compilador&#45;&gt;E -->
<g id="edge2" class="edge">
<title>Compilador&#45;&gt;E</title>
<path fill="none" stroke="black" d="M223.5,-107.79C223.5,-105.31 223.5,-102.83 223.5,-100.34"/>
<polygon fill="black" stroke="black" points="227,-100.14 223.5,-90.14 220,-100.14 227,-100.14"/>
</g>
<!-- Ensamblador&#45;&gt;O -->
<g id="edge4" class="edge">
<title>Ensamblador&#45;&gt;O</title>
<path fill="none" stroke="black" d="M269.83,-18C286.35,-18 305.41,-18 323.49,-18"/>
<polygon fill="black" stroke="black" points="323.71,-21.5 333.71,-18 323.71,-14.5 323.71,-21.5"/>
</g>
</g>
</svg>
