<?xml version="1.0" encoding="UTF-8" standalone="no"?>
<!DOCTYPE svg PUBLIC "-//W3C//DTD SVG 1.1//EN"
 "http://www.w3.org/Graphics/SVG/1.1/DTD/svg11.dtd">
<!-- Generated by graphviz version 2.40.1 (20161225.0304)
 -->
<!-- Title: %3 Pages: 1 -->
<svg width="576pt" height="195pt"
 viewBox="0.00 0.00 576.00 194.99" xmlns="http://www.w3.org/2000/svg" xmlns:xlink="http://www.w3.org/1999/xlink">
<g id="graph0" class="graph" transform="scale(1.2829 1.2829) rotate(0) translate(4 148)">
<title>%3</title>
<!-- F -->
<g id="node1" class="node">
<title>F</title>
<polygon fill="#f0f8ff" stroke="#000000" points="103,-144 0,-144 0,-108 109,-108 109,-138 103,-144"/>
<polyline fill="none" stroke="#000000" points="103,-144 103,-138 "/>
<polyline fill="none" stroke="#000000" points="109,-138 103,-138 "/>
<text text-anchor="middle" x="54.5" y="-129.6" font-family="Lato" font-size="13.00" fill="#000000">C칩digo fuente</text>
<text text-anchor="middle" x="54.5" y="-115.6" font-family="Lato" font-size="13.00" fill="#000000">(lenguaje fuente)</text>
</g>
<!-- Compilador -->
<g id="node4" class="node">
<title>Compilador</title>
<polygon fill="#ffffff" stroke="#000000" points="258,-144 176,-144 176,-108 258,-108 258,-144"/>
<text text-anchor="middle" x="217" y="-122.6" font-family="Lato" font-size="13.00" fill="#000000">Compilador</text>
</g>
<!-- F&#45;&gt;Compilador -->
<g id="edge1" class="edge">
<title>F&#45;&gt;Compilador</title>
<path fill="none" stroke="#000000" d="M109.0622,-126C127.4146,-126 147.8105,-126 165.8875,-126"/>
<polygon fill="#000000" stroke="#000000" points="165.946,-129.5001 175.946,-126 165.946,-122.5001 165.946,-129.5001"/>
</g>
<!-- E -->
<g id="node2" class="node">
<title>E</title>
<polygon fill="#f0f8ff" stroke="#000000" points="283,-90 145,-90 145,-54 289,-54 289,-84 283,-90"/>
<polyline fill="none" stroke="#000000" points="283,-90 283,-84 "/>
<polyline fill="none" stroke="#000000" points="289,-84 283,-84 "/>
<text text-anchor="middle" x="217" y="-75.6" font-family="Lato" font-size="13.00" fill="#000000">C칩digo ensamblador</text>
<text text-anchor="middle" x="217" y="-61.6" font-family="Lato" font-size="13.00" fill="#000000">(lenguaje ensamblador)</text>
</g>
<!-- Ensamblador -->
<g id="node5" class="node">
<title>Ensamblador</title>
<polygon fill="#ffffff" stroke="#000000" points="261.5,-36 172.5,-36 172.5,0 261.5,0 261.5,-36"/>
<text text-anchor="middle" x="217" y="-14.6" font-family="Lato" font-size="13.00" fill="#000000">Ensamblador</text>
</g>
<!-- E&#45;&gt;Ensamblador -->
<g id="edge3" class="edge">
<title>E&#45;&gt;Ensamblador</title>
<path fill="none" stroke="#000000" d="M217,-53.7902C217,-51.3082 217,-48.8262 217,-46.3443"/>
<polygon fill="#000000" stroke="#000000" points="220.5001,-46.1406 217,-36.1406 213.5001,-46.1407 220.5001,-46.1406"/>
</g>
<!-- O -->
<g id="node3" class="node">
<title>O</title>
<polygon fill="#f0f8ff" stroke="#000000" points="435,-36 325,-36 325,0 441,0 441,-30 435,-36"/>
<polyline fill="none" stroke="#000000" points="435,-36 435,-30 "/>
<polyline fill="none" stroke="#000000" points="441,-30 435,-30 "/>
<text text-anchor="middle" x="383" y="-21.6" font-family="Lato" font-size="13.00" fill="#000000">Objeto ejecutable</text>
<text text-anchor="middle" x="383" y="-7.6" font-family="Lato" font-size="13.00" fill="#000000">(c칩digo m치quina)</text>
</g>
<!-- Compilador&#45;&gt;E -->
<g id="edge2" class="edge">
<title>Compilador&#45;&gt;E</title>
<path fill="none" stroke="#000000" d="M217,-107.7902C217,-105.3082 217,-102.8262 217,-100.3443"/>
<polygon fill="#000000" stroke="#000000" points="220.5001,-100.1406 217,-90.1406 213.5001,-100.1407 220.5001,-100.1406"/>
</g>
<!-- Ensamblador&#45;&gt;O -->
<g id="edge4" class="edge">
<title>Ensamblador&#45;&gt;O</title>
<path fill="none" stroke="#000000" d="M261.922,-18C278.1357,-18 296.8244,-18 314.592,-18"/>
<polygon fill="#000000" stroke="#000000" points="314.9213,-21.5001 324.9212,-18 314.9212,-14.5001 314.9213,-21.5001"/>
</g>
</g>
</svg>
