<?xml version="1.0" encoding="UTF-8" standalone="no"?>
<!DOCTYPE svg PUBLIC "-//W3C//DTD SVG 1.1//EN"
 "http://www.w3.org/Graphics/SVG/1.1/DTD/svg11.dtd">
<!-- Generated by graphviz version 2.43.0 (0)
 -->
<!-- Title: %3 Pages: 1 -->
<svg width="713pt" height="233pt"
 viewBox="0.00 0.00 713.27 233.00" xmlns="http://www.w3.org/2000/svg" xmlns:xlink="http://www.w3.org/1999/xlink">
<g id="graph0" class="graph" transform="scale(1 1) rotate(0) translate(4 229)">
<title>%3</title>
<g id="clust1" class="cluster">
<title>cluster0</title>
<polygon fill="white" stroke="black" points="284.27,-60 284.27,-123 401.27,-123 401.27,-60 284.27,-60"/>
<text text-anchor="middle" x="342.77" y="-107.8" font-family="Lato" font-size="14.00">Marco global</text>
</g>
<g id="clust3" class="cluster">
<title>cluster2</title>
<polygon fill="white" stroke="black" points="458.27,-8 458.27,-112 641.27,-112 641.27,-8 458.27,-8"/>
<text text-anchor="start" x="466.27" y="-97.8" font-family="Lato" font-size="14.00">Marco de la clase </text>
<text text-anchor="start" x="575.27" y="-97.8" font-family="Lato" font-weight="bold" font-size="14.00">Deposito</text>
</g>
<g id="clust2" class="cluster">
<title>cluster1</title>
<polygon fill="white" stroke="black" points="50,-113 50,-217 179,-217 179,-113 50,-113"/>
<text text-anchor="start" x="58" y="-202.8" font-family="Lato" font-size="14.00">Marco de </text>
<text text-anchor="start" x="120" y="-202.8" font-family="Lato" font-weight="bold" font-size="14.00">ingresar</text>
</g>
<!-- l1 -->
<g id="node1" class="node">
<title>l1</title>
<ellipse fill="white" stroke="black" cx="687.27" cy="-21" rx="18" ry="18"/>
<text text-anchor="middle" x="687.27" y="-17.6" font-family="monospace" font-size="13.00">λ</text>
</g>
<!-- l2 -->
<g id="node2" class="node">
<title>l2</title>
<ellipse fill="white" stroke="black" cx="687.27" cy="-75" rx="18" ry="18"/>
<text text-anchor="middle" x="687.27" y="-71.6" font-family="monospace" font-size="13.00">λ</text>
</g>
<!-- p1 -->
<g id="node3" class="node">
<title>p1</title>
<ellipse fill="white" stroke="black" cx="231.64" cy="-200" rx="24.77" ry="24.77"/>
<text text-anchor="middle" x="231.64" y="-196.6" font-family="monospace" font-size="13.00">...</text>
</g>
<!-- p2 -->
<g id="node4" class="node">
<title>p2</title>
<ellipse fill="white" stroke="black" cx="231.64" cy="-133" rx="24.77" ry="24.77"/>
<text text-anchor="middle" x="231.64" y="-129.6" font-family="monospace" font-size="13.00">...</text>
</g>
<!-- Deposito -->
<g id="node5" class="node">
<title>Deposito</title>
<polygon fill="white" stroke="black" points="292.27,-69 292.27,-91 393.27,-91 393.27,-69 292.27,-69"/>
<text text-anchor="middle" x="330.77" y="-76.6" font-family="monospace" font-size="13.00">Deposito</text>
<polyline fill="none" stroke="black" points="369.27,-69 369.27,-91 "/>
<text text-anchor="middle" x="381.27" y="-76.6" font-family="monospace" font-size="13.00">⬤</text>
</g>
<!-- retirar -->
<g id="node6" class="node">
<title>retirar</title>
<polygon fill="white" stroke="black" points="503.27,-58 503.27,-80 596.27,-80 596.27,-58 503.27,-58"/>
<text text-anchor="middle" x="537.77" y="-65.6" font-family="monospace" font-size="13.00">retirar</text>
<polyline fill="none" stroke="black" points="572.27,-58 572.27,-80 "/>
<text text-anchor="middle" x="584.27" y="-65.6" font-family="monospace" font-size="13.00">⬤</text>
</g>
<!-- Deposito&#45;&gt;retirar -->
<g id="edge1" class="edge">
<title>Deposito:s&#45;&gt;retirar</title>
<path fill="none" stroke="black" d="M381.77,-68C381.77,-51.99 412.86,-49.98 448.21,-52.87"/>
<polygon fill="black" stroke="black" points="447.99,-56.37 458.27,-53.81 448.64,-49.4 447.99,-56.37"/>
</g>
<!-- retirar&#45;&gt;l2 -->
<g id="edge4" class="edge">
<title>retirar:f1&#45;&gt;l2</title>
<path fill="none" stroke="black" d="M597.77,-69C618.43,-69 641.74,-70.65 659.25,-72.22"/>
<polygon fill="black" stroke="black" points="659.04,-75.71 669.33,-73.17 659.7,-68.74 659.04,-75.71"/>
</g>
<!-- self -->
<g id="node7" class="node">
<title>self</title>
<polygon fill="white" stroke="black" points="79,-163 79,-185 150,-185 150,-163 79,-163"/>
<text text-anchor="middle" x="102.5" y="-170.6" font-family="monospace" font-size="13.00">self</text>
<polyline fill="none" stroke="black" points="126,-163 126,-185 "/>
<text text-anchor="middle" x="138" y="-170.6" font-family="monospace" font-size="13.00">⬤</text>
</g>
<!-- self&#45;&gt;p1 -->
<g id="edge5" class="edge">
<title>self:f1&#45;&gt;p1</title>
<path fill="none" stroke="black" d="M151.5,-174C168.07,-174 185.65,-179.21 200.03,-184.96"/>
<polygon fill="black" stroke="black" points="198.85,-188.26 209.42,-188.97 201.6,-181.82 198.85,-188.26"/>
</g>
<!-- cantidad -->
<g id="node8" class="node">
<title>cantidad</title>
<polygon fill="white" stroke="black" points="64,-122 64,-144 165,-144 165,-122 64,-122"/>
<text text-anchor="middle" x="102.5" y="-129.6" font-family="monospace" font-size="13.00">cantidad</text>
<polyline fill="none" stroke="black" points="141,-122 141,-144 "/>
<text text-anchor="middle" x="153" y="-129.6" font-family="monospace" font-size="13.00">⬤</text>
</g>
<!-- cantidad&#45;&gt;p2 -->
<g id="edge6" class="edge">
<title>cantidad:f1&#45;&gt;p2</title>
<path fill="none" stroke="black" d="M166.5,-133C176.31,-133 186.97,-133 196.73,-133"/>
<polygon fill="black" stroke="black" points="196.88,-136.5 206.88,-133 196.88,-129.5 196.88,-136.5"/>
</g>
<!-- cantidad&#45;&gt;Deposito -->
<g id="edge2" class="edge">
<title>cantidad:s&#45;&gt;Deposito:w</title>
<path fill="none" stroke="black" d="M158.1,-113C177.1,-96.35 250,-83.55 280.58,-80.63"/>
<polygon fill="black" stroke="black" points="275,-85.14 284.27,-80 273.82,-78.24 275,-85.14"/>
</g>
<!-- init -->
<g id="node9" class="node">
<title>init</title>
<polygon fill="white" stroke="black" points="499.27,-17 499.27,-39 600.27,-39 600.27,-17 499.27,-17"/>
<text text-anchor="middle" x="537.77" y="-24.6" font-family="monospace" font-size="13.00">__init__</text>
<polyline fill="none" stroke="black" points="576.27,-17 576.27,-39 "/>
<text text-anchor="middle" x="588.27" y="-24.6" font-family="monospace" font-size="13.00">⬤</text>
</g>
<!-- init&#45;&gt;l1 -->
<g id="edge3" class="edge">
<title>init:f1&#45;&gt;l1</title>
<path fill="none" stroke="black" d="M601.77,-28C620.97,-28 642.54,-26.18 659.08,-24.4"/>
<polygon fill="black" stroke="black" points="659.61,-27.86 669.15,-23.25 658.82,-20.91 659.61,-27.86"/>
</g>
<!-- E -->
<g id="node10" class="node">
<title>E</title>
<polygon fill="transparent" stroke="transparent" points="22,-192 0,-192 0,-156 22,-156 22,-192"/>
<text text-anchor="middle" x="11" y="-170.6" font-family="monospace" font-size="13.00">E</text>
</g>
<!-- E&#45;&gt;self -->
<g id="edge7" class="edge">
<title>E&#45;&gt;self</title>
<path fill="none" stroke="black" d="M22.1,-174C26.82,-174 32.9,-174 39.66,-174"/>
<polygon fill="black" stroke="black" points="40,-177.5 50,-174 40,-170.5 40,-177.5"/>
</g>
</g>
</svg>
