<?xml version="1.0" encoding="UTF-8" standalone="no"?>
<!DOCTYPE svg PUBLIC "-//W3C//DTD SVG 1.1//EN"
 "http://www.w3.org/Graphics/SVG/1.1/DTD/svg11.dtd">
<!-- Generated by graphviz version 2.43.0 (0)
 -->
<!-- Title: %3 Pages: 1 -->
<svg width="458pt" height="176pt"
 viewBox="0.00 0.00 458.00 175.66" xmlns="http://www.w3.org/2000/svg" xmlns:xlink="http://www.w3.org/1999/xlink">
<g id="graph0" class="graph" transform="scale(1 1) rotate(0) translate(4 171.66)">
<title>%3</title>
<g id="clust1" class="cluster">
<title>cluster0</title>
<polygon fill="white" stroke="black" points="325,-67.66 325,-130.66 442,-130.66 442,-67.66 325,-67.66"/>
<text text-anchor="middle" x="383.5" y="-115.46" font-family="Lato" font-size="14.00">Marco global</text>
</g>
<g id="clust2" class="cluster">
<title>cluster1</title>
<path fill="white" stroke="black" d="M62,-55.66C62,-55.66 221,-55.66 221,-55.66 227,-55.66 233,-61.66 233,-67.66 233,-67.66 233,-147.66 233,-147.66 233,-153.66 227,-159.66 221,-159.66 221,-159.66 62,-159.66 62,-159.66 56,-159.66 50,-153.66 50,-147.66 50,-147.66 50,-67.66 50,-67.66 50,-61.66 56,-55.66 62,-55.66"/>
<text text-anchor="start" x="58" y="-145.46" font-family="Lato" font-size="14.00">Marco de la clase </text>
<text text-anchor="start" x="167" y="-145.46" font-family="Lato" font-weight="bold" font-size="14.00">Deposito</text>
</g>
<!-- l1 -->
<g id="node1" class="node">
<title>l1</title>
<ellipse fill="white" stroke="black" cx="279" cy="-123.66" rx="18" ry="18"/>
<text text-anchor="middle" x="279" y="-120.26" font-family="monospace" font-size="13.00">λ</text>
</g>
<!-- l2 -->
<g id="node2" class="node">
<title>l2</title>
<ellipse fill="white" stroke="black" cx="279" cy="-69.66" rx="18" ry="18"/>
<text text-anchor="middle" x="279" y="-66.26" font-family="monospace" font-size="13.00">λ</text>
</g>
<!-- Deposito -->
<g id="node3" class="node">
<title>Deposito</title>
<polygon fill="white" stroke="black" points="333,-76.66 333,-98.66 434,-98.66 434,-76.66 333,-76.66"/>
<text text-anchor="middle" x="371.5" y="-84.26" font-family="monospace" font-size="13.00">Deposito</text>
<polyline fill="none" stroke="black" points="410,-76.66 410,-98.66 "/>
<text text-anchor="middle" x="422" y="-84.26" font-family="monospace" font-size="13.00">⬤</text>
</g>
<!-- init -->
<g id="node4" class="node">
<title>init</title>
<polygon fill="white" stroke="black" points="91,-105.66 91,-127.66 192,-127.66 192,-105.66 91,-105.66"/>
<text text-anchor="middle" x="129.5" y="-113.26" font-family="monospace" font-size="13.00">__init__</text>
<polyline fill="none" stroke="black" points="168,-105.66 168,-127.66 "/>
<text text-anchor="middle" x="180" y="-113.26" font-family="monospace" font-size="13.00">⬤</text>
</g>
<!-- Deposito&#45;&gt;init -->
<g id="edge1" class="edge">
<title>Deposito:f1&#45;&gt;init</title>
<path fill="none" stroke="black" d="M422.5,-99.66C422.5,-173.81 323.46,-165.77 243.18,-147.08"/>
<polygon fill="black" stroke="black" points="243.54,-143.56 233,-144.63 241.9,-150.37 243.54,-143.56"/>
</g>
<!-- init&#45;&gt;l1 -->
<g id="edge2" class="edge">
<title>init:f1&#45;&gt;l1</title>
<path fill="none" stroke="black" d="M193.5,-116.66C212.7,-116.66 234.27,-118.47 250.81,-120.26"/>
<polygon fill="black" stroke="black" points="250.55,-123.75 260.88,-121.4 251.34,-116.79 250.55,-123.75"/>
</g>
<!-- retirar -->
<g id="node5" class="node">
<title>retirar</title>
<polygon fill="white" stroke="black" points="95,-64.66 95,-86.66 188,-86.66 188,-64.66 95,-64.66"/>
<text text-anchor="middle" x="129.5" y="-72.26" font-family="monospace" font-size="13.00">retirar</text>
<polyline fill="none" stroke="black" points="164,-64.66 164,-86.66 "/>
<text text-anchor="middle" x="176" y="-72.26" font-family="monospace" font-size="13.00">⬤</text>
</g>
<!-- retirar&#45;&gt;l2 -->
<g id="edge3" class="edge">
<title>retirar:f1&#45;&gt;l2</title>
<path fill="none" stroke="black" d="M189.5,-75.66C210.16,-75.66 233.47,-74.01 250.98,-72.44"/>
<polygon fill="black" stroke="black" points="251.43,-75.91 261.06,-71.49 250.77,-68.94 251.43,-75.91"/>
</g>
<!-- retirar&#45;&gt;Deposito -->
<g id="edge4" class="edge">
<title>retirar:s&#45;&gt;Deposito:s</title>
<path fill="none" stroke="black" d="M177.05,-55.66C188.25,24.43 368.49,14.69 382.62,-65.48"/>
<polygon fill="black" stroke="black" points="376.52,-59.69 383.5,-67.66 383.01,-57.07 376.52,-59.69"/>
</g>
<!-- E -->
<g id="node6" class="node">
<title>E</title>
<polygon fill="transparent" stroke="transparent" points="22,-134.66 0,-134.66 0,-98.66 22,-98.66 22,-134.66"/>
<text text-anchor="middle" x="11" y="-113.26" font-family="monospace" font-size="13.00">E</text>
</g>
<!-- E&#45;&gt;init -->
<g id="edge5" class="edge">
<title>E&#45;&gt;init</title>
<path fill="none" stroke="black" d="M22.08,-116.66C26.82,-116.66 32.97,-116.66 39.97,-116.66"/>
<polygon fill="black" stroke="black" points="40,-120.16 50,-116.66 40,-113.16 40,-120.16"/>
</g>
</g>
</svg>
