<?xml version="1.0" encoding="UTF-8" standalone="no"?>
<!DOCTYPE svg PUBLIC "-//W3C//DTD SVG 1.1//EN"
 "http://www.w3.org/Graphics/SVG/1.1/DTD/svg11.dtd">
<!-- Generated by graphviz version 14.1.2 (0)
 -->
<!-- Pages: 1 -->
<svg width="789pt" height="344pt"
 viewBox="0.00 0.00 789.00 344.00" xmlns="http://www.w3.org/2000/svg" xmlns:xlink="http://www.w3.org/1999/xlink">
<g id="graph0" class="graph" transform="scale(1 1) rotate(0) translate(4 340)">
<g id="clust1" class="cluster">
<title>cluster0</title>
<polygon fill="white" stroke="black" points="286.2,-141 286.2,-252 401.7,-252 401.7,-141 286.2,-141"/>
<text xml:space="preserve" text-anchor="middle" x="343.95" y="-234.7" font-family="Lato" font-size="14.00">Marco global</text>
</g>
<g id="clust2" class="cluster">
<title>cluster1</title>
<polygon fill="white" stroke="black" points="49.9,-217 49.9,-328 177.65,-328 177.65,-217 49.9,-217"/>
<text xml:space="preserve" text-anchor="start" x="57.9" y="-311.7" font-family="Lato" font-size="14.00">Marco de </text>
<text xml:space="preserve" text-anchor="start" x="119.4" y="-311.7" font-family="Lato" font-weight="bold" font-size="14.00">ingresar</text>
</g>
<g id="clust3" class="cluster">
<title>cluster2</title>
<path fill="white" stroke="black" d="M613.7,-12C613.7,-12 705.2,-12 705.2,-12 711.2,-12 717.2,-18 717.2,-24 717.2,-24 717.2,-199 717.2,-199 717.2,-205 711.2,-211 705.2,-211 705.2,-211 613.7,-211 613.7,-211 607.7,-211 601.7,-205 601.7,-199 601.7,-199 601.7,-24 601.7,-24 601.7,-18 607.7,-12 613.7,-12"/>
<text xml:space="preserve" text-anchor="start" x="612.57" y="-194.7" font-family="Lato" font-size="14.00">Clase </text>
<text xml:space="preserve" text-anchor="start" x="648.57" y="-194.7" font-family="Lato" font-weight="bold" font-size="14.00">Deposito</text>
</g>
<g id="clust4" class="cluster">
<title>cluster3</title>
<path fill="white" stroke="black" d="M470.7,-182C470.7,-182 569.7,-182 569.7,-182 575.7,-182 581.7,-188 581.7,-194 581.7,-194 581.7,-281 581.7,-281 581.7,-287 575.7,-293 569.7,-293 569.7,-293 470.7,-293 470.7,-293 464.7,-293 458.7,-287 458.7,-281 458.7,-281 458.7,-194 458.7,-194 458.7,-188 464.7,-182 470.7,-182"/>
<text xml:space="preserve" text-anchor="start" x="498.82" y="-275.7" font-family="Lato" font-size="14.00">Objeto</text>
</g>
<!-- l1 -->
<g id="node1" class="node">
<title>l1</title>
<ellipse fill="white" stroke="black" cx="763.2" cy="-180" rx="18" ry="18"/>
<text xml:space="preserve" text-anchor="middle" x="763.2" y="-175.9" font-family="monospace" font-size="13.00">λ</text>
</g>
<!-- l2 -->
<g id="node2" class="node">
<title>l2</title>
<ellipse fill="white" stroke="black" cx="763.2" cy="-126" rx="18" ry="18"/>
<text xml:space="preserve" text-anchor="middle" x="763.2" y="-121.9" font-family="monospace" font-size="13.00">λ</text>
</g>
<!-- l3 -->
<g id="node3" class="node">
<title>l3</title>
<ellipse fill="white" stroke="black" cx="763.2" cy="-72" rx="18" ry="18"/>
<text xml:space="preserve" text-anchor="middle" x="763.2" y="-67.9" font-family="monospace" font-size="13.00">λ</text>
</g>
<!-- l4 -->
<g id="node4" class="node">
<title>l4</title>
<ellipse fill="white" stroke="black" cx="763.2" cy="-18" rx="18" ry="18"/>
<text xml:space="preserve" text-anchor="middle" x="763.2" y="-13.9" font-family="monospace" font-size="13.00">λ</text>
</g>
<!-- p2 -->
<g id="node5" class="node">
<title>p2</title>
<ellipse fill="white" stroke="black" cx="231.92" cy="-238" rx="26.27" ry="26.27"/>
<text xml:space="preserve" text-anchor="middle" x="231.92" y="-233.9" font-family="monospace" font-size="13.00">200</text>
</g>
<!-- p3 -->
<g id="node6" class="node">
<title>p3</title>
<ellipse fill="white" stroke="black" cx="659.45" cy="-247" rx="26.27" ry="26.27"/>
<text xml:space="preserve" text-anchor="middle" x="659.45" y="-242.9" font-family="monospace" font-size="13.00">100</text>
</g>
<!-- dep -->
<g id="node7" class="node">
<title>dep</title>
<polygon fill="white" stroke="black" points="312.95,-193.75 312.95,-218.25 374.95,-218.25 374.95,-193.75 312.95,-193.75"/>
<text xml:space="preserve" text-anchor="middle" x="332.2" y="-201.9" font-family="monospace" font-size="13.00">dep</text>
<polyline fill="none" stroke="black" points="351.45,-193.75 351.45,-218.25"/>
<text xml:space="preserve" text-anchor="middle" x="363.2" y="-200.4" font-family="monospace" font-size="13.00">⬤</text>
</g>
<!-- fondos -->
<g id="node15" class="node">
<title>fondos</title>
<polygon fill="white" stroke="black" points="477.95,-234.75 477.95,-259.25 562.45,-259.25 562.45,-234.75 477.95,-234.75"/>
<text xml:space="preserve" text-anchor="middle" x="508.45" y="-242.9" font-family="monospace" font-size="13.00">fondos</text>
<polyline fill="none" stroke="black" points="538.95,-234.75 538.95,-259.25"/>
<text xml:space="preserve" text-anchor="middle" x="550.7" y="-241.4" font-family="monospace" font-size="13.00">⬤</text>
</g>
<!-- dep&#45;&gt;fondos -->
<g id="edge4" class="edge">
<title>dep:f1&#45;&gt;fondos</title>
<path fill="none" stroke="black" d="M375.95,-206C390.43,-206 419.64,-213.84 447.93,-222.67"/>
<polygon fill="black" stroke="black" points="446.67,-225.94 457.26,-225.63 448.78,-219.26 446.67,-225.94"/>
</g>
<!-- Deposito -->
<g id="node8" class="node">
<title>Deposito</title>
<polygon fill="white" stroke="black" points="294.2,-149.75 294.2,-174.25 393.7,-174.25 393.7,-149.75 294.2,-149.75"/>
<text xml:space="preserve" text-anchor="middle" x="332.2" y="-157.9" font-family="monospace" font-size="13.00">Deposito</text>
<polyline fill="none" stroke="black" points="370.2,-149.75 370.2,-174.25"/>
<text xml:space="preserve" text-anchor="middle" x="381.95" y="-156.4" font-family="monospace" font-size="13.00">⬤</text>
</g>
<!-- init -->
<g id="node9" class="node">
<title>init</title>
<polygon fill="white" stroke="black" points="609.7,-152.75 609.7,-177.25 709.2,-177.25 709.2,-152.75 609.7,-152.75"/>
<text xml:space="preserve" text-anchor="middle" x="647.7" y="-160.9" font-family="monospace" font-size="13.00">__init__</text>
<polyline fill="none" stroke="black" points="685.7,-152.75 685.7,-177.25"/>
<text xml:space="preserve" text-anchor="middle" x="697.45" y="-159.4" font-family="monospace" font-size="13.00">⬤</text>
</g>
<!-- Deposito&#45;&gt;init -->
<g id="edge1" class="edge">
<title>Deposito:e&#45;&gt;init</title>
<path fill="none" stroke="black" d="M394.7,-162C464.45,-162 544.57,-163.06 598.03,-163.92"/>
<polygon fill="black" stroke="black" points="590.02,-167.02 600.18,-164.03 590.37,-160.03 590.02,-167.02"/>
</g>
<!-- init&#45;&gt;l1 -->
<g id="edge6" class="edge">
<title>init:f1&#45;&gt;l1</title>
<path fill="none" stroke="black" d="M710.2,-165C718.53,-165 727.33,-166.8 735.27,-169.15"/>
<polygon fill="black" stroke="black" points="734.12,-172.46 744.71,-172.36 736.37,-165.83 734.12,-172.46"/>
</g>
<!-- self -->
<g id="node10" class="node">
<title>self</title>
<polygon fill="white" stroke="black" points="78.53,-269.75 78.53,-294.25 148.03,-294.25 148.03,-269.75 78.53,-269.75"/>
<text xml:space="preserve" text-anchor="middle" x="101.53" y="-277.9" font-family="monospace" font-size="13.00">self</text>
<polyline fill="none" stroke="black" points="124.53,-269.75 124.53,-294.25"/>
<text xml:space="preserve" text-anchor="middle" x="136.28" y="-276.4" font-family="monospace" font-size="13.00">⬤</text>
</g>
<!-- self&#45;&gt;fondos -->
<g id="edge10" class="edge">
<title>self:f1&#45;&gt;fondos</title>
<path fill="none" stroke="black" d="M149.03,-282C253.22,-282 373.18,-268.09 447.61,-257.8"/>
<polygon fill="black" stroke="black" points="447.78,-261.31 457.2,-256.46 446.81,-254.38 447.78,-261.31"/>
</g>
<!-- cantidad -->
<g id="node11" class="node">
<title>cantidad</title>
<polygon fill="white" stroke="black" points="63.53,-225.75 63.53,-250.25 163.03,-250.25 163.03,-225.75 63.53,-225.75"/>
<text xml:space="preserve" text-anchor="middle" x="101.53" y="-233.9" font-family="monospace" font-size="13.00">cantidad</text>
<polyline fill="none" stroke="black" points="139.53,-225.75 139.53,-250.25"/>
<text xml:space="preserve" text-anchor="middle" x="151.28" y="-232.4" font-family="monospace" font-size="13.00">⬤</text>
</g>
<!-- cantidad&#45;&gt;p2 -->
<g id="edge11" class="edge">
<title>cantidad:f1&#45;&gt;p2</title>
<path fill="none" stroke="black" d="M164.03,-238C173.69,-238 184.13,-238 193.83,-238"/>
<polygon fill="black" stroke="black" points="193.68,-241.5 203.68,-238 193.68,-234.5 193.68,-241.5"/>
</g>
<!-- cantidad&#45;&gt;dep -->
<g id="edge2" class="edge">
<title>cantidad:s&#45;&gt;dep:w</title>
<path fill="none" stroke="black" d="M113.58,-217C119.12,-151.04 198.27,-190.4 275,-202.71"/>
<polygon fill="black" stroke="black" points="274.31,-206.15 284.7,-204.09 275.29,-199.21 274.31,-206.15"/>
</g>
<!-- retirar -->
<g id="node12" class="node">
<title>retirar</title>
<polygon fill="white" stroke="black" points="613.45,-108.75 613.45,-133.25 705.45,-133.25 705.45,-108.75 613.45,-108.75"/>
<text xml:space="preserve" text-anchor="middle" x="647.7" y="-116.9" font-family="monospace" font-size="13.00">retirar</text>
<polyline fill="none" stroke="black" points="681.95,-108.75 681.95,-133.25"/>
<text xml:space="preserve" text-anchor="middle" x="693.7" y="-115.4" font-family="monospace" font-size="13.00">⬤</text>
</g>
<!-- retirar&#45;&gt;l2 -->
<g id="edge7" class="edge">
<title>retirar:f1&#45;&gt;l2</title>
<path fill="none" stroke="black" d="M706.45,-121C715.4,-121 725.13,-121.65 733.91,-122.48"/>
<polygon fill="black" stroke="black" points="733.33,-125.93 743.65,-123.52 734.07,-118.97 733.33,-125.93"/>
</g>
<!-- ingresar -->
<g id="node13" class="node">
<title>ingresar</title>
<polygon fill="white" stroke="black" points="609.7,-64.75 609.7,-89.25 709.2,-89.25 709.2,-64.75 609.7,-64.75"/>
<text xml:space="preserve" text-anchor="middle" x="647.7" y="-72.9" font-family="monospace" font-size="13.00">ingresar</text>
<polyline fill="none" stroke="black" points="685.7,-64.75 685.7,-89.25"/>
<text xml:space="preserve" text-anchor="middle" x="697.45" y="-71.4" font-family="monospace" font-size="13.00">⬤</text>
</g>
<!-- ingresar&#45;&gt;l3 -->
<g id="edge8" class="edge">
<title>ingresar:f1&#45;&gt;l3</title>
<path fill="none" stroke="black" d="M710.2,-77C717.81,-77 726.03,-76.46 733.63,-75.74"/>
<polygon fill="black" stroke="black" points="733.84,-79.24 743.4,-74.67 733.08,-72.28 733.84,-79.24"/>
</g>
<!-- saldo -->
<g id="node14" class="node">
<title>saldo</title>
<polygon fill="white" stroke="black" points="620.95,-20.75 620.95,-45.25 697.95,-45.25 697.95,-20.75 620.95,-20.75"/>
<text xml:space="preserve" text-anchor="middle" x="647.7" y="-28.9" font-family="monospace" font-size="13.00">saldo</text>
<polyline fill="none" stroke="black" points="674.45,-20.75 674.45,-45.25"/>
<text xml:space="preserve" text-anchor="middle" x="686.2" y="-27.4" font-family="monospace" font-size="13.00">⬤</text>
</g>
<!-- saldo&#45;&gt;l4 -->
<g id="edge9" class="edge">
<title>saldo:f1&#45;&gt;l4</title>
<path fill="none" stroke="black" d="M698.95,-33C711.01,-33 724.02,-30.39 735.09,-27.34"/>
<polygon fill="black" stroke="black" points="735.79,-30.78 744.35,-24.54 733.77,-24.08 735.79,-30.78"/>
</g>
<!-- fondos&#45;&gt;p3 -->
<g id="edge5" class="edge">
<title>fondos:f1&#45;&gt;p3</title>
<path fill="none" stroke="black" d="M563.45,-247C582.61,-247 603.95,-247 621.54,-247"/>
<polygon fill="black" stroke="black" points="621.53,-250.5 631.53,-247 621.53,-243.5 621.53,-250.5"/>
</g>
<!-- __class__ -->
<g id="node16" class="node">
<title>__class__</title>
<polygon fill="white" stroke="black" points="466.7,-190.75 466.7,-215.25 573.7,-215.25 573.7,-190.75 466.7,-190.75"/>
<text xml:space="preserve" text-anchor="middle" x="508.45" y="-198.9" font-family="monospace" font-size="13.00">__class__</text>
<polyline fill="none" stroke="black" points="550.2,-190.75 550.2,-215.25"/>
<text xml:space="preserve" text-anchor="middle" x="561.95" y="-197.4" font-family="monospace" font-size="13.00">⬤</text>
</g>
<!-- __class__&#45;&gt;init -->
<g id="edge3" class="edge">
<title>__class__:f1&#45;&gt;init</title>
<path fill="none" stroke="black" d="M574.7,-203C580.08,-203 585.5,-202.34 590.85,-201.2"/>
<polygon fill="black" stroke="black" points="591.52,-204.64 600.24,-198.62 589.67,-197.89 591.52,-204.64"/>
</g>
<!-- E -->
<g id="node17" class="node">
<title>E</title>
<polygon fill="none" stroke="none" points="21.9,-300 0,-300 0,-264 21.9,-264 21.9,-300"/>
<text xml:space="preserve" text-anchor="middle" x="10.95" y="-277.9" font-family="monospace" font-size="13.00">E</text>
</g>
<!-- E&#45;&gt;self -->
<g id="edge12" class="edge">
<title>E&#45;&gt;self</title>
<path fill="none" stroke="black" d="M21.57,-282C26.08,-282 31.9,-282 38.41,-282"/>
<polygon fill="black" stroke="black" points="38.39,-285.5 48.39,-282 38.39,-278.5 38.39,-285.5"/>
</g>
</g>
</svg>
