<?xml version="1.0" encoding="UTF-8" standalone="no"?>
<!DOCTYPE svg PUBLIC "-//W3C//DTD SVG 1.1//EN"
 "http://www.w3.org/Graphics/SVG/1.1/DTD/svg11.dtd">
<!-- Generated by graphviz version 2.43.0 (0)
 -->
<!-- Title: %3 Pages: 1 -->
<svg width="641pt" height="230pt"
 viewBox="0.00 0.00 641.03 230.00" xmlns="http://www.w3.org/2000/svg" xmlns:xlink="http://www.w3.org/1999/xlink">
<g id="graph0" class="graph" transform="scale(1 1) rotate(0) translate(4 226)">
<title>%3</title>
<g id="clust1" class="cluster">
<title>cluster2</title>
<polygon fill="white" stroke="black" points="442.03,-31 442.03,-214 625.03,-214 625.03,-31 442.03,-31"/>
<text text-anchor="start" x="494.03" y="-198.8" font-family="Lato" font-size="14.00">Marco global</text>
</g>
<g id="clust2" class="cluster">
<title>cluster0</title>
<polygon fill="white" stroke="black" points="238.6,-8 238.6,-191 385.03,-191 385.03,-8 238.6,-8"/>
<text text-anchor="start" x="261.31" y="-176.8" font-family="Lato" font-size="14.00">Marco de </text>
<text text-anchor="start" x="323.31" y="-176.8" font-family="Lato" font-weight="bold" font-size="14.00">pareja</text>
</g>
<g id="clust3" class="cluster">
<title>cluster1</title>
<polygon fill="white" stroke="black" points="31.6,-116 31.6,-191 181.6,-191 181.6,-116 31.6,-116"/>
<text text-anchor="start" x="65.1" y="-176.8" font-family="Lato" font-size="14.00">Marco de </text>
<text text-anchor="start" x="127.1" y="-176.8" font-family="Lato" font-weight="bold" font-size="14.00">get</text>
</g>
<!-- 14 -->
<g id="node1" class="node">
<title>14</title>
<ellipse fill="white" stroke="black" cx="356.81" cy="-82" rx="20.43" ry="20.43"/>
<text text-anchor="middle" x="356.81" y="-78.6" font-family="monospace" font-size="13.00">14</text>
</g>
<!-- 20 -->
<g id="node2" class="node">
<title>20</title>
<ellipse fill="white" stroke="black" cx="356.81" cy="-140" rx="20.43" ry="20.43"/>
<text text-anchor="middle" x="356.81" y="-136.6" font-family="monospace" font-size="13.00">20</text>
</g>
<!-- pareja -->
<g id="node8" class="node">
<title>pareja</title>
<polygon fill="transparent" stroke="transparent" points="512.03,-183 450.03,-183 450.03,-147 512.03,-147 512.03,-183"/>
<text text-anchor="middle" x="481.03" y="-161.6" font-family="monospace" font-size="13.00">pareja</text>
</g>
<!-- 20&#45;&gt;pareja -->
<g id="edge9" class="edge">
<title>20&#45;&gt;pareja</title>
<path fill="none" stroke="black" d="M385.03,-145.57C401.09,-148.85 421.71,-153.07 439.64,-156.74"/>
<polygon fill="black" stroke="black" points="431.46,-156.96 442.03,-157.79 434.28,-150.56 431.46,-156.96"/>
</g>
<!-- 0 -->
<g id="node3" class="node">
<title>0</title>
<ellipse fill="white" stroke="black" cx="155.6" cy="-142" rx="18" ry="18"/>
<text text-anchor="middle" x="155.6" y="-138.6" font-family="monospace" font-size="13.00">0</text>
</g>
<!-- x -->
<g id="node4" class="node">
<title>x</title>
<polygon fill="transparent" stroke="transparent" points="300.6,-160 246.6,-160 246.6,-124 300.6,-124 300.6,-160"/>
<text text-anchor="middle" x="273.6" y="-138.6" font-family="monospace" font-size="13.00">x</text>
</g>
<!-- 0&#45;&gt;x -->
<g id="edge8" class="edge">
<title>0&#45;&gt;x</title>
<path fill="none" stroke="black" d="M181.6,-142C197.54,-142 218.47,-142 236.24,-142"/>
<polygon fill="black" stroke="black" points="228.6,-145.5 238.6,-142 228.6,-138.5 228.6,-145.5"/>
</g>
<!-- x&#45;&gt;20 -->
<g id="edge4" class="edge">
<title>x&#45;&gt;20</title>
<path fill="none" stroke="black" d="M300.74,-141.36C308.89,-141.16 317.94,-140.93 326.3,-140.73"/>
<polygon fill="black" stroke="black" points="326.51,-144.22 336.42,-140.48 326.33,-137.23 326.51,-144.22"/>
</g>
<!-- y -->
<g id="node5" class="node">
<title>y</title>
<polygon fill="transparent" stroke="transparent" points="300.6,-106 246.6,-106 246.6,-70 300.6,-70 300.6,-106"/>
<text text-anchor="middle" x="273.6" y="-84.6" font-family="monospace" font-size="13.00">y</text>
</g>
<!-- y&#45;&gt;14 -->
<g id="edge5" class="edge">
<title>y&#45;&gt;14</title>
<path fill="none" stroke="black" d="M300.74,-86.07C308.89,-85.47 317.94,-84.8 326.3,-84.18"/>
<polygon fill="black" stroke="black" points="326.7,-87.66 336.42,-83.43 326.19,-80.68 326.7,-87.66"/>
</g>
<!-- get -->
<g id="node6" class="node">
<title>get</title>
<polygon fill="transparent" stroke="transparent" points="300.6,-52 246.6,-52 246.6,-16 300.6,-16 300.6,-52"/>
<text text-anchor="middle" x="273.6" y="-30.6" font-family="monospace" font-size="13.00">get</text>
</g>
<!-- f3 -->
<g id="node13" class="node">
<title>f3</title>
<polygon fill="white" stroke="black" points="617.03,-75 548.03,-75 548.03,-39 617.03,-39 617.03,-75"/>
<text text-anchor="middle" x="582.53" y="-53.6" font-family="monospace" font-size="13.00">función</text>
</g>
<!-- get&#45;&gt;f3 -->
<g id="edge6" class="edge">
<title>get&#45;&gt;f3</title>
<path fill="none" stroke="black" d="M300.89,-30.14C344.98,-24.43 436.46,-15.84 512.03,-30 520.81,-31.65 529.91,-34.37 538.51,-37.46"/>
<polygon fill="black" stroke="black" points="537.39,-40.78 547.98,-41.08 539.89,-34.24 537.39,-40.78"/>
</g>
<!-- i -->
<g id="node7" class="node">
<title>i</title>
<polygon fill="transparent" stroke="transparent" points="101.6,-160 39.6,-160 39.6,-124 101.6,-124 101.6,-160"/>
<text text-anchor="middle" x="70.6" y="-138.6" font-family="monospace" font-size="13.00">indice</text>
</g>
<!-- i&#45;&gt;0 -->
<g id="edge7" class="edge">
<title>i&#45;&gt;0</title>
<path fill="none" stroke="black" d="M102.03,-142C110.27,-142 119.13,-142 127.19,-142"/>
<polygon fill="black" stroke="black" points="127.2,-145.5 137.2,-142 127.2,-138.5 127.2,-145.5"/>
</g>
<!-- f1 -->
<g id="node11" class="node">
<title>f1</title>
<polygon fill="white" stroke="black" points="617.03,-183 548.03,-183 548.03,-147 617.03,-147 617.03,-183"/>
<text text-anchor="middle" x="582.53" y="-161.6" font-family="monospace" font-size="13.00">función</text>
</g>
<!-- pareja&#45;&gt;f1 -->
<g id="edge1" class="edge">
<title>pareja&#45;&gt;f1</title>
<path fill="none" stroke="black" d="M512.15,-165C520.12,-165 528.89,-165 537.44,-165"/>
<polygon fill="black" stroke="black" points="537.68,-168.5 547.68,-165 537.68,-161.5 537.68,-168.5"/>
</g>
<!-- select -->
<g id="node9" class="node">
<title>select</title>
<polygon fill="transparent" stroke="transparent" points="512.03,-129 450.03,-129 450.03,-93 512.03,-93 512.03,-129"/>
<text text-anchor="middle" x="481.03" y="-107.6" font-family="monospace" font-size="13.00">select</text>
</g>
<!-- f2 -->
<g id="node12" class="node">
<title>f2</title>
<polygon fill="white" stroke="black" points="617.03,-129 548.03,-129 548.03,-93 617.03,-93 617.03,-129"/>
<text text-anchor="middle" x="582.53" y="-107.6" font-family="monospace" font-size="13.00">función</text>
</g>
<!-- select&#45;&gt;f2 -->
<g id="edge2" class="edge">
<title>select&#45;&gt;f2</title>
<path fill="none" stroke="black" d="M512.15,-111C520.12,-111 528.89,-111 537.44,-111"/>
<polygon fill="black" stroke="black" points="537.68,-114.5 547.68,-111 537.68,-107.5 537.68,-114.5"/>
</g>
<!-- p -->
<g id="node10" class="node">
<title>p</title>
<polygon fill="transparent" stroke="transparent" points="508.03,-75 454.03,-75 454.03,-39 508.03,-39 508.03,-75"/>
<text text-anchor="middle" x="481.03" y="-53.6" font-family="monospace" font-size="13.00">p</text>
</g>
<!-- p&#45;&gt;f3 -->
<g id="edge3" class="edge">
<title>p&#45;&gt;f3</title>
<path fill="none" stroke="black" d="M508.17,-57C517.14,-57 527.45,-57 537.45,-57"/>
<polygon fill="black" stroke="black" points="537.69,-60.5 547.69,-57 537.69,-53.5 537.69,-60.5"/>
</g>
<!-- E -->
<g id="node14" class="node">
<title>E</title>
<ellipse fill="white" stroke="black" cx="1.8" cy="-142" rx="1.8" ry="1.8"/>
</g>
<!-- E&#45;&gt;i -->
<g id="edge10" class="edge">
<title>E&#45;&gt;i</title>
<path fill="none" stroke="black" d="M3.96,-142C7.34,-142 17.65,-142 29.14,-142"/>
<polygon fill="black" stroke="black" points="21.6,-145.5 31.6,-142 21.6,-138.5 21.6,-145.5"/>
</g>
</g>
</svg>
