<?xml version="1.0" encoding="UTF-8" standalone="no"?>
<!DOCTYPE svg PUBLIC "-//W3C//DTD SVG 1.1//EN"
 "http://www.w3.org/Graphics/SVG/1.1/DTD/svg11.dtd">
<!-- Generated by graphviz version 14.1.2 (0)
 -->
<!-- Pages: 1 -->
<svg width="691pt" height="191pt"
 viewBox="0.00 0.00 691.00 191.00" xmlns="http://www.w3.org/2000/svg" xmlns:xlink="http://www.w3.org/1999/xlink">
<g id="graph0" class="graph" transform="scale(1 1) rotate(0) translate(4 186.75)">
<g id="clust1" class="cluster">
<title>cluster0</title>
<polygon fill="white" stroke="black" points="209.15,-63.75 209.15,-174.75 303.9,-174.75 303.9,-63.75 209.15,-63.75"/>
<text xml:space="preserve" text-anchor="middle" x="256.53" y="-157.45" font-family="Lato" font-size="14.00">Marco global</text>
</g>
<g id="clust2" class="cluster">
<title>cluster1</title>
<polygon fill="white" stroke="black" points="49.9,-49.75 49.9,-116.75 152.15,-116.75 152.15,-49.75 49.9,-49.75"/>
<text xml:space="preserve" text-anchor="start" x="57.9" y="-100.45" font-family="Lato" font-size="14.00">Marco de </text>
<text xml:space="preserve" text-anchor="start" x="119.4" y="-100.45" font-family="Lato" font-weight="bold" font-size="14.00">uno</text>
</g>
<g id="clust3" class="cluster">
<title>cluster2</title>
<path fill="white" stroke="black" d="M552.9,-76.75C552.9,-76.75 606.9,-76.75 606.9,-76.75 612.9,-76.75 618.9,-82.75 618.9,-88.75 618.9,-88.75 618.9,-131.75 618.9,-131.75 618.9,-137.75 612.9,-143.75 606.9,-143.75 606.9,-143.75 552.9,-143.75 552.9,-143.75 546.9,-143.75 540.9,-137.75 540.9,-131.75 540.9,-131.75 540.9,-88.75 540.9,-88.75 540.9,-82.75 546.9,-76.75 552.9,-76.75"/>
<text xml:space="preserve" text-anchor="start" x="557.03" y="-127.45" font-family="Lato" font-size="14.00">Clase </text>
<text xml:space="preserve" text-anchor="start" x="593.03" y="-127.45" font-family="Lato" font-weight="bold" font-size="14.00">A</text>
</g>
<g id="clust4" class="cluster">
<title>cluster3</title>
<path fill="white" stroke="black" d="M372.9,-43.75C372.9,-43.75 471.9,-43.75 471.9,-43.75 477.9,-43.75 483.9,-49.75 483.9,-55.75 483.9,-55.75 483.9,-98.75 483.9,-98.75 483.9,-104.75 477.9,-110.75 471.9,-110.75 471.9,-110.75 372.9,-110.75 372.9,-110.75 366.9,-110.75 360.9,-104.75 360.9,-98.75 360.9,-98.75 360.9,-55.75 360.9,-55.75 360.9,-49.75 366.9,-43.75 372.9,-43.75"/>
<text xml:space="preserve" text-anchor="middle" x="422.4" y="-93.45" font-family="Lato" font-size="14.00">Objeto</text>
</g>
<!-- l1 -->
<g id="node1" class="node">
<title>l1</title>
<ellipse fill="white" stroke="black" cx="664.9" cy="-97.75" rx="18" ry="18"/>
<text xml:space="preserve" text-anchor="middle" x="664.9" y="-93.65" font-family="monospace" font-size="13.00">λ</text>
</g>
<!-- a -->
<g id="node2" class="node">
<title>a</title>
<polygon fill="white" stroke="black" points="232.53,-72.5 232.53,-97 279.53,-97 279.53,-72.5 232.53,-72.5"/>
<text xml:space="preserve" text-anchor="middle" x="244.28" y="-80.65" font-family="monospace" font-size="13.00">a</text>
<polyline fill="none" stroke="black" points="256.03,-72.5 256.03,-97"/>
<text xml:space="preserve" text-anchor="middle" x="267.78" y="-79.15" font-family="monospace" font-size="13.00">⬤</text>
</g>
<!-- __class__ -->
<g id="node6" class="node">
<title>__class__</title>
<polygon fill="white" stroke="black" points="368.9,-52.5 368.9,-77 475.9,-77 475.9,-52.5 368.9,-52.5"/>
<text xml:space="preserve" text-anchor="middle" x="410.65" y="-60.65" font-family="monospace" font-size="13.00">__class__</text>
<polyline fill="none" stroke="black" points="452.4,-52.5 452.4,-77"/>
<text xml:space="preserve" text-anchor="middle" x="464.15" y="-59.15" font-family="monospace" font-size="13.00">⬤</text>
</g>
<!-- a&#45;&gt;__class__ -->
<g id="edge5" class="edge">
<title>a:f1&#45;&gt;__class__</title>
<path fill="none" stroke="black" d="M280.53,-84.75C305.8,-84.75 333.37,-81.55 357.36,-77.72"/>
<polygon fill="black" stroke="black" points="350.54,-82.98 359.43,-77.21 348.89,-76.17 350.54,-82.98"/>
</g>
<!-- A -->
<g id="node3" class="node">
<title>A</title>
<polygon fill="white" stroke="black" points="232.53,-116.5 232.53,-141 279.53,-141 279.53,-116.5 232.53,-116.5"/>
<text xml:space="preserve" text-anchor="middle" x="244.28" y="-124.65" font-family="monospace" font-size="13.00">A</text>
<polyline fill="none" stroke="black" points="256.03,-116.5 256.03,-141"/>
<text xml:space="preserve" text-anchor="middle" x="267.78" y="-123.15" font-family="monospace" font-size="13.00">⬤</text>
</g>
<!-- uno -->
<g id="node4" class="node">
<title>uno</title>
<polygon fill="white" stroke="black" points="548.9,-85.5 548.9,-110 610.9,-110 610.9,-85.5 548.9,-85.5"/>
<text xml:space="preserve" text-anchor="middle" x="568.15" y="-93.65" font-family="monospace" font-size="13.00">uno</text>
<polyline fill="none" stroke="black" points="587.4,-85.5 587.4,-110"/>
<text xml:space="preserve" text-anchor="middle" x="599.15" y="-92.15" font-family="monospace" font-size="13.00">⬤</text>
</g>
<!-- A&#45;&gt;uno -->
<g id="edge1" class="edge">
<title>A:e&#45;&gt;uno:n</title>
<path fill="none" stroke="black" d="M280.53,-128.75C394.7,-128.75 532.93,-213.52 570.24,-154.07"/>
<polygon fill="black" stroke="black" points="573.36,-155.64 574.51,-145.11 567.05,-152.62 573.36,-155.64"/>
</g>
<!-- uno&#45;&gt;l1 -->
<g id="edge3" class="edge">
<title>uno:f1&#45;&gt;l1</title>
<path fill="none" stroke="black" d="M611.9,-97.75C619.48,-97.75 627.69,-97.75 635.29,-97.75"/>
<polygon fill="black" stroke="black" points="635.05,-101.25 645.05,-97.75 635.05,-94.25 635.05,-101.25"/>
</g>
<!-- self -->
<g id="node5" class="node">
<title>self</title>
<polygon fill="white" stroke="black" points="65.78,-58.5 65.78,-83 135.28,-83 135.28,-58.5 65.78,-58.5"/>
<text xml:space="preserve" text-anchor="middle" x="88.78" y="-66.65" font-family="monospace" font-size="13.00">self</text>
<polyline fill="none" stroke="black" points="111.78,-58.5 111.78,-83"/>
<text xml:space="preserve" text-anchor="middle" x="123.53" y="-65.15" font-family="monospace" font-size="13.00">⬤</text>
</g>
<!-- self&#45;&gt;A -->
<g id="edge2" class="edge">
<title>self&#45;&gt;A:w</title>
<path fill="none" stroke="black" d="M152.15,-105.03C165.98,-112.52 181.7,-119.52 198.04,-123.95"/>
<polygon fill="black" stroke="black" points="197.15,-127.34 207.68,-126.18 198.73,-120.52 197.15,-127.34"/>
</g>
<!-- self&#45;&gt;__class__ -->
<g id="edge4" class="edge">
<title>self:s&#45;&gt;__class__</title>
<path fill="none" stroke="black" d="M123.53,-57.5C123.53,36.67 274.12,-6.74 361.16,-39.69"/>
<polygon fill="black" stroke="black" points="359.7,-42.88 370.29,-43.21 362.21,-36.35 359.7,-42.88"/>
</g>
<!-- __class__&#45;&gt;uno -->
<g id="edge6" class="edge">
<title>__class__:e&#45;&gt;uno:w</title>
<path fill="none" stroke="black" d="M476.9,-64.75C501.79,-64.75 516.47,-72.53 530.87,-80.53"/>
<polygon fill="black" stroke="black" points="529.12,-83.57 539.58,-85.29 532.48,-77.42 529.12,-83.57"/>
</g>
<!-- E -->
<g id="node7" class="node">
<title>E</title>
<polygon fill="none" stroke="none" points="21.9,-88.75 0,-88.75 0,-52.75 21.9,-52.75 21.9,-88.75"/>
<text xml:space="preserve" text-anchor="middle" x="10.95" y="-66.65" font-family="monospace" font-size="13.00">E</text>
</g>
<!-- E&#45;&gt;self -->
<g id="edge7" class="edge">
<title>E&#45;&gt;self</title>
<path fill="none" stroke="black" d="M21.66,-70.75C26.23,-70.75 32.11,-70.75 38.58,-70.75"/>
<polygon fill="black" stroke="black" points="38.39,-74.25 48.39,-70.75 38.39,-67.25 38.39,-74.25"/>
</g>
</g>
</svg>
