<?xml version="1.0" encoding="UTF-8" standalone="no"?>
<!DOCTYPE svg PUBLIC "-//W3C//DTD SVG 1.1//EN"
 "http://www.w3.org/Graphics/SVG/1.1/DTD/svg11.dtd">
<!-- Generated by graphviz version 2.40.1 (20161225.0304)
 -->
<!-- Title: %3 Pages: 1 -->
<svg width="508pt" height="576pt"
 viewBox="0.00 0.00 507.79 576.00" xmlns="http://www.w3.org/2000/svg" xmlns:xlink="http://www.w3.org/1999/xlink">
<g id="graph0" class="graph" transform="scale(3.7895 3.7895) rotate(0) translate(4 148)">
<title>%3</title>
<!-- 9 -->
<g id="node1" class="node">
<title>9</title>
<ellipse fill="#ffffff" stroke="#000000" cx="108" cy="-18" rx="18" ry="18"/>
<text text-anchor="middle" x="108" y="-14.6" font-family="Lato" font-size="13.00" fill="#000000">9</text>
</g>
<!-- 3 -->
<g id="node2" class="node">
<title>3</title>
<ellipse fill="#ffffff" stroke="#000000" cx="108" cy="-72" rx="18" ry="18"/>
<text text-anchor="middle" x="108" y="-68.6" font-family="Lato" font-size="13.00" fill="#000000">3</text>
</g>
<!-- 5 -->
<g id="node3" class="node">
<title>5</title>
<ellipse fill="#ffffff" stroke="#000000" cx="108" cy="-126" rx="18" ry="18"/>
<text text-anchor="middle" x="108" y="-122.6" font-family="Lato" font-size="13.00" fill="#000000">5</text>
</g>
<!-- x -->
<g id="node4" class="node">
<title>x</title>
<polygon fill="#ffffff" stroke="#000000" points="54,-144 0,-144 0,-108 54,-108 54,-144"/>
<text text-anchor="middle" x="27" y="-122.6" font-family="Lato" font-size="13.00" fill="#000000">x</text>
</g>
<!-- x&#45;&gt;5 -->
<g id="edge1" class="edge">
<title>x&#45;&gt;5</title>
<path fill="none" stroke="#000000" d="M54.4229,-126C62.4647,-126 71.2772,-126 79.3909,-126"/>
<polygon fill="#000000" stroke="#000000" points="79.5312,-129.5001 89.5312,-126 79.5311,-122.5001 79.5312,-129.5001"/>
</g>
<!-- y -->
<g id="node5" class="node">
<title>y</title>
<polygon fill="#ffffff" stroke="#000000" points="54,-90 0,-90 0,-54 54,-54 54,-90"/>
<text text-anchor="middle" x="27" y="-68.6" font-family="Lato" font-size="13.00" fill="#000000">y</text>
</g>
<!-- y&#45;&gt;3 -->
<g id="edge2" class="edge">
<title>y&#45;&gt;3</title>
<path fill="none" stroke="#000000" d="M54.4229,-72C62.4647,-72 71.2772,-72 79.3909,-72"/>
<polygon fill="#000000" stroke="#000000" points="79.5312,-75.5001 89.5312,-72 79.5311,-68.5001 79.5312,-75.5001"/>
</g>
<!-- z -->
<g id="node6" class="node">
<title>z</title>
<polygon fill="#ffffff" stroke="#000000" points="54,-36 0,-36 0,0 54,0 54,-36"/>
<text text-anchor="middle" x="27" y="-14.6" font-family="Lato" font-size="13.00" fill="#000000">z</text>
</g>
<!-- z&#45;&gt;9 -->
<g id="edge3" class="edge">
<title>z&#45;&gt;9</title>
<path fill="none" stroke="#000000" d="M54.4229,-18C62.4647,-18 71.2772,-18 79.3909,-18"/>
<polygon fill="#000000" stroke="#000000" points="79.5312,-21.5001 89.5312,-18 79.5311,-14.5001 79.5312,-21.5001"/>
</g>
</g>
</svg>
