<?xml version="1.0" encoding="UTF-8" standalone="no"?>
<!DOCTYPE svg PUBLIC "-//W3C//DTD SVG 1.1//EN"
 "http://www.w3.org/Graphics/SVG/1.1/DTD/svg11.dtd">
<!-- Generated by graphviz version 2.43.0 (0)
 -->
<!-- Title: %3 Pages: 1 -->
<svg width="661pt" height="337pt"
 viewBox="0.00 0.00 660.54 337.00" xmlns="http://www.w3.org/2000/svg" xmlns:xlink="http://www.w3.org/1999/xlink">
<g id="graph0" class="graph" transform="scale(1 1) rotate(0) translate(4 333)">
<title>%3</title>
<g id="clust1" class="cluster">
<title>cluster0</title>
<polygon fill="white" stroke="black" points="284.27,-140 284.27,-244 401.27,-244 401.27,-140 284.27,-140"/>
<text text-anchor="middle" x="342.77" y="-228.8" font-family="Lato" font-size="14.00">Marco global</text>
</g>
<g id="clust3" class="cluster">
<title>cluster2</title>
<path fill="white" stroke="black" d="M470.27,-17C470.27,-17 563.27,-17 563.27,-17 569.27,-17 575.27,-23 575.27,-29 575.27,-29 575.27,-191 575.27,-191 575.27,-197 569.27,-203 563.27,-203 563.27,-203 470.27,-203 470.27,-203 464.27,-203 458.27,-197 458.27,-191 458.27,-191 458.27,-29 458.27,-29 458.27,-23 464.27,-17 470.27,-17"/>
<text text-anchor="start" x="469.27" y="-188.8" font-family="Lato" font-size="14.00">Clase </text>
<text text-anchor="start" x="506.27" y="-188.8" font-family="Lato" font-weight="bold" font-size="14.00">Deposito</text>
</g>
<g id="clust2" class="cluster">
<title>cluster1</title>
<polygon fill="white" stroke="black" points="50,-211 50,-315 179,-315 179,-211 50,-211"/>
<text text-anchor="start" x="58" y="-300.8" font-family="Lato" font-size="14.00">Marco de </text>
<text text-anchor="start" x="120" y="-300.8" font-family="Lato" font-weight="bold" font-size="14.00">ingresar</text>
</g>
<g id="clust4" class="cluster">
<title>cluster3</title>
<path fill="white" stroke="black" d="M477.77,-258C477.77,-258 555.77,-258 555.77,-258 561.77,-258 567.77,-264 567.77,-270 567.77,-270 567.77,-309 567.77,-309 567.77,-315 561.77,-321 555.77,-321 555.77,-321 477.77,-321 477.77,-321 471.77,-321 465.77,-315 465.77,-309 465.77,-309 465.77,-270 465.77,-270 465.77,-264 471.77,-258 477.77,-258"/>
<text text-anchor="start" x="495.27" y="-305.8" font-family="Lato" font-size="14.00">Objeto</text>
</g>
<!-- l1 -->
<g id="node1" class="node">
<title>l1</title>
<ellipse fill="white" stroke="black" cx="627.91" cy="-180" rx="18" ry="18"/>
<text text-anchor="middle" x="627.91" y="-176.6" font-family="monospace" font-size="13.00">λ</text>
</g>
<!-- l2 -->
<g id="node2" class="node">
<title>l2</title>
<ellipse fill="white" stroke="black" cx="627.91" cy="-126" rx="18" ry="18"/>
<text text-anchor="middle" x="627.91" y="-122.6" font-family="monospace" font-size="13.00">λ</text>
</g>
<!-- l3 -->
<g id="node3" class="node">
<title>l3</title>
<ellipse fill="white" stroke="black" cx="627.91" cy="-72" rx="18" ry="18"/>
<text text-anchor="middle" x="627.91" y="-68.6" font-family="monospace" font-size="13.00">λ</text>
</g>
<!-- l4 -->
<g id="node4" class="node">
<title>l4</title>
<ellipse fill="white" stroke="black" cx="627.91" cy="-18" rx="18" ry="18"/>
<text text-anchor="middle" x="627.91" y="-14.6" font-family="monospace" font-size="13.00">λ</text>
</g>
<!-- p2 -->
<g id="node5" class="node">
<title>p2</title>
<ellipse fill="white" stroke="black" cx="231.64" cy="-231" rx="24.77" ry="24.77"/>
<text text-anchor="middle" x="231.64" y="-227.6" font-family="monospace" font-size="13.00">200</text>
</g>
<!-- p3 -->
<g id="node6" class="node">
<title>p3</title>
<ellipse fill="white" stroke="black" cx="627.91" cy="-278" rx="24.77" ry="24.77"/>
<text text-anchor="middle" x="627.91" y="-274.6" font-family="monospace" font-size="13.00">100</text>
</g>
<!-- dep -->
<g id="node7" class="node">
<title>dep</title>
<polygon fill="white" stroke="black" points="311.27,-190 311.27,-212 374.27,-212 374.27,-190 311.27,-190"/>
<text text-anchor="middle" x="330.77" y="-197.6" font-family="monospace" font-size="13.00">dep</text>
<polyline fill="none" stroke="black" points="350.27,-190 350.27,-212 "/>
<text text-anchor="middle" x="362.27" y="-197.6" font-family="monospace" font-size="13.00">⬤</text>
</g>
<!-- fondos -->
<g id="node15" class="node">
<title>fondos</title>
<polygon fill="white" stroke="black" points="473.77,-267 473.77,-289 559.77,-289 559.77,-267 473.77,-267"/>
<text text-anchor="middle" x="504.77" y="-274.6" font-family="monospace" font-size="13.00">fondos</text>
<polyline fill="none" stroke="black" points="535.77,-267 535.77,-289 "/>
<text text-anchor="middle" x="547.77" y="-274.6" font-family="monospace" font-size="13.00">⬤</text>
</g>
<!-- dep&#45;&gt;fondos -->
<g id="edge3" class="edge">
<title>dep:f1&#45;&gt;fondos</title>
<path fill="none" stroke="black" d="M375.77,-201C418.65,-201 460.79,-229.08 487.45,-251.32"/>
<polygon fill="black" stroke="black" points="485.35,-254.13 495.21,-258 489.92,-248.82 485.35,-254.13"/>
</g>
<!-- Deposito -->
<g id="node8" class="node">
<title>Deposito</title>
<polygon fill="white" stroke="black" points="292.27,-149 292.27,-171 393.27,-171 393.27,-149 292.27,-149"/>
<text text-anchor="middle" x="330.77" y="-156.6" font-family="monospace" font-size="13.00">Deposito</text>
<polyline fill="none" stroke="black" points="369.27,-149 369.27,-171 "/>
<text text-anchor="middle" x="381.27" y="-156.6" font-family="monospace" font-size="13.00">⬤</text>
</g>
<!-- init -->
<g id="node9" class="node">
<title>init</title>
<polygon fill="white" stroke="black" points="466.27,-149 466.27,-171 567.27,-171 567.27,-149 466.27,-149"/>
<text text-anchor="middle" x="504.77" y="-156.6" font-family="monospace" font-size="13.00">__init__</text>
<polyline fill="none" stroke="black" points="543.27,-149 543.27,-171 "/>
<text text-anchor="middle" x="555.27" y="-156.6" font-family="monospace" font-size="13.00">⬤</text>
</g>
<!-- Deposito&#45;&gt;init -->
<g id="edge1" class="edge">
<title>Deposito:e&#45;&gt;init</title>
<path fill="none" stroke="black" d="M394.77,-160C414.63,-160 436.31,-160 455.77,-160"/>
<polygon fill="black" stroke="black" points="448.27,-163.5 458.27,-160 448.27,-156.5 448.27,-163.5"/>
</g>
<!-- init&#45;&gt;l1 -->
<g id="edge5" class="edge">
<title>init:f1&#45;&gt;l1</title>
<path fill="none" stroke="black" d="M568.77,-160C580.14,-160 592.11,-163.46 602.21,-167.5"/>
<polygon fill="black" stroke="black" points="601.04,-170.81 611.61,-171.63 603.86,-164.4 601.04,-170.81"/>
</g>
<!-- self -->
<g id="node10" class="node">
<title>self</title>
<polygon fill="white" stroke="black" points="79,-261 79,-283 150,-283 150,-261 79,-261"/>
<text text-anchor="middle" x="102.5" y="-268.6" font-family="monospace" font-size="13.00">self</text>
<polyline fill="none" stroke="black" points="126,-261 126,-283 "/>
<text text-anchor="middle" x="138" y="-268.6" font-family="monospace" font-size="13.00">⬤</text>
</g>
<!-- self&#45;&gt;fondos -->
<g id="edge9" class="edge">
<title>self:f1&#45;&gt;fondos</title>
<path fill="none" stroke="black" d="M151.5,-272C262.5,-272 392.5,-274.82 463.28,-276.59"/>
<polygon fill="black" stroke="black" points="455.46,-279.28 465.77,-276.86 456.2,-272.32 455.46,-279.28"/>
</g>
<!-- cantidad -->
<g id="node11" class="node">
<title>cantidad</title>
<polygon fill="white" stroke="black" points="64,-220 64,-242 165,-242 165,-220 64,-220"/>
<text text-anchor="middle" x="102.5" y="-227.6" font-family="monospace" font-size="13.00">cantidad</text>
<polyline fill="none" stroke="black" points="141,-220 141,-242 "/>
<text text-anchor="middle" x="153" y="-227.6" font-family="monospace" font-size="13.00">⬤</text>
</g>
<!-- cantidad&#45;&gt;p2 -->
<g id="edge10" class="edge">
<title>cantidad:f1&#45;&gt;p2</title>
<path fill="none" stroke="black" d="M166.5,-231C176.31,-231 186.97,-231 196.73,-231"/>
<polygon fill="black" stroke="black" points="196.88,-234.5 206.88,-231 196.88,-227.5 196.88,-234.5"/>
</g>
<!-- cantidad&#45;&gt;dep -->
<g id="edge2" class="edge">
<title>cantidad:s&#45;&gt;dep:w</title>
<path fill="none" stroke="black" d="M114.84,-211C120.58,-146.52 198.74,-185.85 274.23,-197.87"/>
<polygon fill="black" stroke="black" points="273.88,-201.35 284.28,-199.3 274.87,-194.42 273.88,-201.35"/>
</g>
<!-- retirar -->
<g id="node12" class="node">
<title>retirar</title>
<polygon fill="white" stroke="black" points="470.27,-108 470.27,-130 563.27,-130 563.27,-108 470.27,-108"/>
<text text-anchor="middle" x="504.77" y="-115.6" font-family="monospace" font-size="13.00">retirar</text>
<polyline fill="none" stroke="black" points="539.27,-108 539.27,-130 "/>
<text text-anchor="middle" x="551.27" y="-115.6" font-family="monospace" font-size="13.00">⬤</text>
</g>
<!-- retirar&#45;&gt;l2 -->
<g id="edge6" class="edge">
<title>retirar:f1&#45;&gt;l2</title>
<path fill="none" stroke="black" d="M564.77,-119C576.33,-119 589.03,-120.21 599.91,-121.63"/>
<polygon fill="black" stroke="black" points="599.69,-125.13 610.09,-123.07 600.68,-118.2 599.69,-125.13"/>
</g>
<!-- ingresar -->
<g id="node13" class="node">
<title>ingresar</title>
<polygon fill="white" stroke="black" points="466.27,-67 466.27,-89 567.27,-89 567.27,-67 466.27,-67"/>
<text text-anchor="middle" x="504.77" y="-74.6" font-family="monospace" font-size="13.00">ingresar</text>
<polyline fill="none" stroke="black" points="543.27,-67 543.27,-89 "/>
<text text-anchor="middle" x="555.27" y="-74.6" font-family="monospace" font-size="13.00">⬤</text>
</g>
<!-- ingresar&#45;&gt;l3 -->
<g id="edge7" class="edge">
<title>ingresar:f1&#45;&gt;l3</title>
<path fill="none" stroke="black" d="M568.77,-78C578.98,-78 590.14,-77.07 599.93,-75.95"/>
<polygon fill="black" stroke="black" points="600.43,-79.41 609.91,-74.68 599.55,-72.47 600.43,-79.41"/>
</g>
<!-- saldo -->
<g id="node14" class="node">
<title>saldo</title>
<polygon fill="white" stroke="black" points="477.77,-26 477.77,-48 555.77,-48 555.77,-26 477.77,-26"/>
<text text-anchor="middle" x="504.77" y="-33.6" font-family="monospace" font-size="13.00">saldo</text>
<polyline fill="none" stroke="black" points="531.77,-26 531.77,-48 "/>
<text text-anchor="middle" x="543.77" y="-33.6" font-family="monospace" font-size="13.00">⬤</text>
</g>
<!-- saldo&#45;&gt;l4 -->
<g id="edge8" class="edge">
<title>saldo:f1&#45;&gt;l4</title>
<path fill="none" stroke="black" d="M556.77,-37C571.9,-37 588.25,-32.83 601.35,-28.4"/>
<polygon fill="black" stroke="black" points="602.88,-31.57 611.08,-24.86 600.49,-24.99 602.88,-31.57"/>
</g>
<!-- fondos&#45;&gt;p3 -->
<g id="edge4" class="edge">
<title>fondos:f1&#45;&gt;p3</title>
<path fill="none" stroke="black" d="M560.77,-278C571.17,-278 582.48,-278 592.77,-278"/>
<polygon fill="black" stroke="black" points="593.03,-281.5 603.03,-278 593.03,-274.5 593.03,-281.5"/>
</g>
<!-- E -->
<g id="node16" class="node">
<title>E</title>
<polygon fill="transparent" stroke="transparent" points="22,-290 0,-290 0,-254 22,-254 22,-290"/>
<text text-anchor="middle" x="11" y="-268.6" font-family="monospace" font-size="13.00">E</text>
</g>
<!-- E&#45;&gt;self -->
<g id="edge11" class="edge">
<title>E&#45;&gt;self</title>
<path fill="none" stroke="black" d="M22.1,-272C26.82,-272 32.9,-272 39.66,-272"/>
<polygon fill="black" stroke="black" points="40,-275.5 50,-272 40,-268.5 40,-275.5"/>
</g>
</g>
</svg>
