<?xml version="1.0" encoding="UTF-8" standalone="no"?>
<!DOCTYPE svg PUBLIC "-//W3C//DTD SVG 1.1//EN"
 "http://www.w3.org/Graphics/SVG/1.1/DTD/svg11.dtd">
<!-- Generated by graphviz version 2.43.0 (0)
 -->
<!-- Title: %3 Pages: 1 -->
<svg width="353pt" height="149pt"
 viewBox="0.00 0.00 353.00 149.00" xmlns="http://www.w3.org/2000/svg" xmlns:xlink="http://www.w3.org/1999/xlink">
<g id="graph0" class="graph" transform="scale(1 1) rotate(0) translate(4 145)">
<title>%3</title>
<g id="clust1" class="cluster">
<title>cluster0</title>
<polygon fill="white" stroke="black" points="50,-29 50,-133 145,-133 145,-29 50,-29"/>
<text text-anchor="middle" x="97.5" y="-117.8" font-family="Lato" font-size="14.00">Marco global</text>
</g>
<g id="clust2" class="cluster">
<title>cluster2</title>
<path fill="white" stroke="black" d="M214,-8C214,-8 269,-8 269,-8 275,-8 281,-14 281,-20 281,-20 281,-59 281,-59 281,-65 275,-71 269,-71 269,-71 214,-71 214,-71 208,-71 202,-65 202,-59 202,-59 202,-20 202,-20 202,-14 208,-8 214,-8"/>
<text text-anchor="start" x="218" y="-56.8" font-family="Lato" font-size="14.00">Clase </text>
<text text-anchor="start" x="255" y="-56.8" font-family="Lato" font-weight="bold" font-size="14.00">A</text>
</g>
<!-- l1 -->
<g id="node1" class="node">
<title>l1</title>
<ellipse fill="white" stroke="black" cx="327" cy="-28" rx="18" ry="18"/>
<text text-anchor="middle" x="327" y="-24.6" font-family="monospace" font-size="13.00">λ</text>
</g>
<!-- p1 -->
<g id="node2" class="node">
<title>p1</title>
<path fill="white" stroke="black" d="M260.5,-115C260.5,-115 222.5,-115 222.5,-115 216.5,-115 210.5,-109 210.5,-103 210.5,-103 210.5,-91 210.5,-91 210.5,-85 216.5,-79 222.5,-79 222.5,-79 260.5,-79 260.5,-79 266.5,-79 272.5,-85 272.5,-91 272.5,-91 272.5,-103 272.5,-103 272.5,-109 266.5,-115 260.5,-115"/>
<text text-anchor="middle" x="241.5" y="-93.6" font-family="monospace" font-size="13.00">Objeto</text>
</g>
<!-- a -->
<g id="node3" class="node">
<title>a</title>
<polygon fill="white" stroke="black" points="73,-79 73,-101 121,-101 121,-79 73,-79"/>
<text text-anchor="middle" x="85" y="-86.6" font-family="monospace" font-size="13.00">a</text>
<polyline fill="none" stroke="black" points="97,-79 97,-101 "/>
<text text-anchor="middle" x="109" y="-86.6" font-family="monospace" font-size="13.00">⬤</text>
</g>
<!-- a&#45;&gt;p1 -->
<g id="edge3" class="edge">
<title>a:f1&#45;&gt;p1</title>
<path fill="none" stroke="black" d="M122,-90C148.09,-90 177.36,-91.71 200.28,-93.44"/>
<polygon fill="black" stroke="black" points="200.09,-96.94 210.33,-94.23 200.64,-89.96 200.09,-96.94"/>
</g>
<!-- A -->
<g id="node4" class="node">
<title>A</title>
<polygon fill="white" stroke="black" points="73,-38 73,-60 121,-60 121,-38 73,-38"/>
<text text-anchor="middle" x="85" y="-45.6" font-family="monospace" font-size="13.00">A</text>
<polyline fill="none" stroke="black" points="97,-38 97,-60 "/>
<text text-anchor="middle" x="109" y="-45.6" font-family="monospace" font-size="13.00">⬤</text>
</g>
<!-- uno -->
<g id="node5" class="node">
<title>uno</title>
<polygon fill="white" stroke="black" points="210,-17 210,-39 273,-39 273,-17 210,-17"/>
<text text-anchor="middle" x="229.5" y="-24.6" font-family="monospace" font-size="13.00">uno</text>
<polyline fill="none" stroke="black" points="249,-17 249,-39 "/>
<text text-anchor="middle" x="261" y="-24.6" font-family="monospace" font-size="13.00">⬤</text>
</g>
<!-- A&#45;&gt;uno -->
<g id="edge1" class="edge">
<title>A:e&#45;&gt;uno:w</title>
<path fill="none" stroke="black" d="M122,-49C157.85,-49 167.27,-31.75 198.17,-28.52"/>
<polygon fill="black" stroke="black" points="192.56,-32.81 202,-28 191.62,-25.87 192.56,-32.81"/>
</g>
<!-- uno&#45;&gt;l1 -->
<g id="edge2" class="edge">
<title>uno:f1&#45;&gt;l1</title>
<path fill="none" stroke="black" d="M274.5,-28C282.37,-28 290.91,-28 298.74,-28"/>
<polygon fill="black" stroke="black" points="298.83,-31.5 308.83,-28 298.83,-24.5 298.83,-31.5"/>
</g>
<!-- E -->
<g id="node6" class="node">
<title>E</title>
<polygon fill="transparent" stroke="transparent" points="22,-108 0,-108 0,-72 22,-72 22,-108"/>
<text text-anchor="middle" x="11" y="-86.6" font-family="monospace" font-size="13.00">E</text>
</g>
<!-- E&#45;&gt;a -->
<g id="edge4" class="edge">
<title>E&#45;&gt;a</title>
<path fill="none" stroke="black" d="M22.3,-90C27.11,-90 33.25,-90 39.93,-90"/>
<polygon fill="black" stroke="black" points="40,-93.5 50,-90 40,-86.5 40,-93.5"/>
</g>
</g>
</svg>
