<?xml version="1.0" encoding="UTF-8" standalone="no"?>
<!DOCTYPE svg PUBLIC "-//W3C//DTD SVG 1.1//EN"
 "http://www.w3.org/Graphics/SVG/1.1/DTD/svg11.dtd">
<!-- Generated by graphviz version 2.40.1 (20161225.0304)
 -->
<!-- Title: %3 Pages: 1 -->
<svg width="576pt" height="283pt"
 viewBox="0.00 0.00 576.00 283.36" xmlns="http://www.w3.org/2000/svg" xmlns:xlink="http://www.w3.org/1999/xlink">
<g id="graph0" class="graph" transform="scale(1.6571 1.6571) rotate(0) translate(4 167)">
<title>%3</title>
<g id="clust1" class="cluster">
<title>cluster0</title>
<polygon fill="#ffffff" stroke="#000000" points="189.6,-8 189.6,-137 331.6,-137 331.6,-8 189.6,-8"/>
<text text-anchor="middle" x="260.6" y="-121.8" font-family="Lato" font-size="14.00" fill="#000000">Marco de pareja</text>
</g>
<g id="clust2" class="cluster">
<title>cluster1</title>
<polygon fill="#ffffff" stroke="#000000" points="31.6,-62 31.6,-155 132.6,-155 132.6,-62 31.6,-62"/>
<text text-anchor="middle" x="82.1" y="-139.8" font-family="Lato" font-size="14.00" fill="#000000">Marco de get</text>
</g>
<!-- 1 -->
<g id="node1" class="node">
<title>1</title>
<ellipse fill="#ffffff" stroke="#000000" cx="305.6" cy="-34" rx="18" ry="18"/>
<text text-anchor="middle" x="305.6" y="-30.6" font-family="monospace" font-size="13.00" fill="#000000">1</text>
</g>
<!-- 4 -->
<g id="node2" class="node">
<title>4</title>
<ellipse fill="#ffffff" stroke="#000000" cx="305.6" cy="-88" rx="18" ry="18"/>
<text text-anchor="middle" x="305.6" y="-84.6" font-family="monospace" font-size="13.00" fill="#000000">4</text>
</g>
<!-- x -->
<g id="node3" class="node">
<title>x</title>
<polygon fill="transparent" stroke="transparent" points="251.6,-106 197.6,-106 197.6,-70 251.6,-70 251.6,-106"/>
<text text-anchor="middle" x="224.6" y="-84.6" font-family="monospace" font-size="13.00" fill="#000000">x</text>
</g>
<!-- x&#45;&gt;4 -->
<g id="edge1" class="edge">
<title>x&#45;&gt;4</title>
<path fill="none" stroke="#000000" d="M252.0229,-88C260.0647,-88 268.8772,-88 276.9909,-88"/>
<polygon fill="#000000" stroke="#000000" points="277.1312,-91.5001 287.1312,-88 277.1311,-84.5001 277.1312,-91.5001"/>
</g>
<!-- y -->
<g id="node4" class="node">
<title>y</title>
<polygon fill="transparent" stroke="transparent" points="251.6,-52 197.6,-52 197.6,-16 251.6,-16 251.6,-52"/>
<text text-anchor="middle" x="224.6" y="-30.6" font-family="monospace" font-size="13.00" fill="#000000">y</text>
</g>
<!-- y&#45;&gt;1 -->
<g id="edge2" class="edge">
<title>y&#45;&gt;1</title>
<path fill="none" stroke="#000000" d="M252.0229,-34C260.0647,-34 268.8772,-34 276.9909,-34"/>
<polygon fill="#000000" stroke="#000000" points="277.1312,-37.5001 287.1312,-34 277.1311,-30.5001 277.1312,-37.5001"/>
</g>
<!-- i -->
<g id="node5" class="node">
<title>i</title>
<polygon fill="transparent" stroke="transparent" points="112.6,-106 50.6,-106 50.6,-70 112.6,-70 112.6,-106"/>
<text text-anchor="middle" x="81.6" y="-84.6" font-family="monospace" font-size="13.00" fill="#000000">indice</text>
</g>
<!-- i&#45;&gt;x -->
<g id="edge4" class="edge">
<title>i&#45;&gt;x</title>
<path fill="none" stroke="#000000" d="M132.5987,-88C150.6523,-88 170.6107,-88 187.3111,-88"/>
<polygon fill="#000000" stroke="#000000" points="179.6002,-91.5004 189.6,-88 179.5998,-84.5004 179.6002,-91.5004"/>
</g>
<!-- i&#45;&gt;i -->
<g id="edge3" class="edge">
<title>i&#45;&gt;i</title>
<path fill="none" stroke="#000000" d="M67.4892,-106.1527C65.3183,-115.5391 70.0219,-124 81.6,-124 88.6554,-124 93.1581,-120.8581 95.108,-116.2796"/>
<polygon fill="#000000" stroke="#000000" points="98.6103,-116.3431 95.7108,-106.1527 91.6227,-115.927 98.6103,-116.3431"/>
</g>
<!-- E -->
<g id="node6" class="node">
<title>E</title>
<ellipse fill="#ffffff" stroke="#000000" cx="1.8" cy="-88" rx="1.8" ry="1.8"/>
</g>
<!-- E&#45;&gt;i -->
<g id="edge5" class="edge">
<title>E&#45;&gt;i</title>
<path fill="none" stroke="#000000" d="M3.7726,-88C6.9017,-88 13.4835,-88 21.5568,-88"/>
<polygon fill="#000000" stroke="#000000" points="21.6017,-91.5001 31.6017,-88 21.6016,-84.5001 21.6017,-91.5001"/>
</g>
</g>
</svg>
