<?xml version="1.0" encoding="UTF-8" standalone="no"?>
<!DOCTYPE svg PUBLIC "-//W3C//DTD SVG 1.1//EN"
 "http://www.w3.org/Graphics/SVG/1.1/DTD/svg11.dtd">
<!-- Generated by graphviz version 2.43.0 (0)
 -->
<!-- Title: %3 Pages: 1 -->
<svg width="534pt" height="150pt"
 viewBox="0.00 0.00 534.00 150.13" xmlns="http://www.w3.org/2000/svg" xmlns:xlink="http://www.w3.org/1999/xlink">
<g id="graph0" class="graph" transform="scale(1 1) rotate(0) translate(4 146.13)">
<title>%3</title>
<g id="clust1" class="cluster">
<title>cluster0</title>
<polygon fill="white" stroke="black" points="50,-30.13 50,-134.13 145,-134.13 145,-30.13 50,-30.13"/>
<text text-anchor="middle" x="97.5" y="-118.93" font-family="Lato" font-size="14.00">Marco global</text>
</g>
<g id="clust3" class="cluster">
<title>cluster2</title>
<path fill="white" stroke="black" d="M395,-55.13C395,-55.13 450,-55.13 450,-55.13 456,-55.13 462,-61.13 462,-67.13 462,-67.13 462,-106.13 462,-106.13 462,-112.13 456,-118.13 450,-118.13 450,-118.13 395,-118.13 395,-118.13 389,-118.13 383,-112.13 383,-106.13 383,-106.13 383,-67.13 383,-67.13 383,-61.13 389,-55.13 395,-55.13"/>
<text text-anchor="start" x="399" y="-103.93" font-family="Lato" font-size="14.00">Clase </text>
<text text-anchor="start" x="436" y="-103.93" font-family="Lato" font-weight="bold" font-size="14.00">A</text>
</g>
<g id="clust2" class="cluster">
<title>cluster1</title>
<path fill="white" stroke="black" d="M214,-70.13C214,-70.13 314,-70.13 314,-70.13 320,-70.13 326,-76.13 326,-82.13 326,-82.13 326,-121.13 326,-121.13 326,-127.13 320,-133.13 314,-133.13 314,-133.13 214,-133.13 214,-133.13 208,-133.13 202,-127.13 202,-121.13 202,-121.13 202,-82.13 202,-82.13 202,-76.13 208,-70.13 214,-70.13"/>
<text text-anchor="middle" x="264" y="-117.93" font-family="Lato" font-size="14.00">Objeto</text>
</g>
<!-- l1 -->
<g id="node1" class="node">
<title>l1</title>
<ellipse fill="white" stroke="black" cx="508" cy="-75.13" rx="18" ry="18"/>
<text text-anchor="middle" x="508" y="-71.73" font-family="monospace" font-size="13.00">λ</text>
</g>
<!-- a -->
<g id="node2" class="node">
<title>a</title>
<polygon fill="white" stroke="black" points="73,-80.13 73,-102.13 121,-102.13 121,-80.13 73,-80.13"/>
<text text-anchor="middle" x="85" y="-87.73" font-family="monospace" font-size="13.00">a</text>
<polyline fill="none" stroke="black" points="97,-80.13 97,-102.13 "/>
<text text-anchor="middle" x="109" y="-87.73" font-family="monospace" font-size="13.00">⬤</text>
</g>
<!-- __class__ -->
<g id="node5" class="node">
<title>__class__</title>
<polygon fill="white" stroke="black" points="210,-79.13 210,-101.13 318,-101.13 318,-79.13 210,-79.13"/>
<text text-anchor="middle" x="252" y="-86.73" font-family="monospace" font-size="13.00">__class__</text>
<polyline fill="none" stroke="black" points="294,-79.13 294,-101.13 "/>
<text text-anchor="middle" x="306" y="-86.73" font-family="monospace" font-size="13.00">⬤</text>
</g>
<!-- a&#45;&gt;__class__ -->
<g id="edge4" class="edge">
<title>a:f1&#45;&gt;__class__</title>
<path fill="none" stroke="black" d="M122,-91.13C147.38,-91.13 175.33,-90.96 199.61,-90.77"/>
<polygon fill="black" stroke="black" points="192.13,-94.54 202,-90.68 191.88,-87.54 192.13,-94.54"/>
</g>
<!-- A -->
<g id="node3" class="node">
<title>A</title>
<polygon fill="white" stroke="black" points="73,-39.13 73,-61.13 121,-61.13 121,-39.13 73,-39.13"/>
<text text-anchor="middle" x="85" y="-46.73" font-family="monospace" font-size="13.00">A</text>
<polyline fill="none" stroke="black" points="97,-39.13 97,-61.13 "/>
<text text-anchor="middle" x="109" y="-46.73" font-family="monospace" font-size="13.00">⬤</text>
</g>
<!-- uno -->
<g id="node4" class="node">
<title>uno</title>
<polygon fill="white" stroke="black" points="391,-64.13 391,-86.13 454,-86.13 454,-64.13 391,-64.13"/>
<text text-anchor="middle" x="410.5" y="-71.73" font-family="monospace" font-size="13.00">uno</text>
<polyline fill="none" stroke="black" points="430,-64.13 430,-86.13 "/>
<text text-anchor="middle" x="442" y="-71.73" font-family="monospace" font-size="13.00">⬤</text>
</g>
<!-- A&#45;&gt;uno -->
<g id="edge1" class="edge">
<title>A:e&#45;&gt;uno:s</title>
<path fill="none" stroke="black" d="M122,-50.13C252.16,-50.13 413.73,64.27 422.16,-53.08"/>
<polygon fill="black" stroke="black" points="417.39,-45.85 422.5,-55.13 424.3,-44.69 417.39,-45.85"/>
</g>
<!-- uno&#45;&gt;l1 -->
<g id="edge2" class="edge">
<title>uno:f1&#45;&gt;l1</title>
<path fill="none" stroke="black" d="M455.5,-75.13C463.37,-75.13 471.91,-75.13 479.74,-75.13"/>
<polygon fill="black" stroke="black" points="479.83,-78.63 489.83,-75.13 479.83,-71.63 479.83,-78.63"/>
</g>
<!-- __class__&#45;&gt;uno -->
<g id="edge3" class="edge">
<title>__class__:e&#45;&gt;uno:w</title>
<path fill="none" stroke="black" d="M319,-90.13C343.15,-90.13 358.32,-86.63 373.19,-83.01"/>
<polygon fill="black" stroke="black" points="374.1,-86.39 383,-80.65 372.46,-79.58 374.1,-86.39"/>
</g>
<!-- E -->
<g id="node6" class="node">
<title>E</title>
<polygon fill="transparent" stroke="transparent" points="22,-109.13 0,-109.13 0,-73.13 22,-73.13 22,-109.13"/>
<text text-anchor="middle" x="11" y="-87.73" font-family="monospace" font-size="13.00">E</text>
</g>
<!-- E&#45;&gt;a -->
<g id="edge5" class="edge">
<title>E&#45;&gt;a</title>
<path fill="none" stroke="black" d="M22.3,-91.13C27.11,-91.13 33.25,-91.13 39.93,-91.13"/>
<polygon fill="black" stroke="black" points="40,-94.63 50,-91.13 40,-87.63 40,-94.63"/>
</g>
</g>
</svg>
