<?xml version="1.0" encoding="UTF-8" standalone="no"?>
<!DOCTYPE svg PUBLIC "-//W3C//DTD SVG 1.1//EN"
 "http://www.w3.org/Graphics/SVG/1.1/DTD/svg11.dtd">
<!-- Generated by graphviz version 2.42.4 (0)
 -->
<!-- Pages: 1 -->
<svg width="694pt" height="184pt"
 viewBox="0.00 0.00 694.00 184.48" xmlns="http://www.w3.org/2000/svg" xmlns:xlink="http://www.w3.org/1999/xlink">
<g id="graph0" class="graph" transform="scale(1 1) rotate(0) translate(4 180.48)">
<g id="clust1" class="cluster">
<title>cluster0</title>
<polygon fill="white" stroke="black" points="210,-64.48 210,-168.48 305,-168.48 305,-64.48 210,-64.48"/>
<text text-anchor="middle" x="257.5" y="-153.28" font-family="Lato" font-size="14.00">Marco global</text>
</g>
<g id="clust3" class="cluster">
<title>cluster2</title>
<path fill="white" stroke="black" d="M555,-75.48C555,-75.48 610,-75.48 610,-75.48 616,-75.48 622,-81.48 622,-87.48 622,-87.48 622,-126.48 622,-126.48 622,-132.48 616,-138.48 610,-138.48 610,-138.48 555,-138.48 555,-138.48 549,-138.48 543,-132.48 543,-126.48 543,-126.48 543,-87.48 543,-87.48 543,-81.48 549,-75.48 555,-75.48"/>
<text text-anchor="start" x="559" y="-124.28" font-family="Lato" font-size="14.00">Clase </text>
<text text-anchor="start" x="596" y="-124.28" font-family="Lato" font-weight="bold" font-size="14.00">A</text>
</g>
<g id="clust2" class="cluster">
<title>cluster1</title>
<polygon fill="white" stroke="black" points="50,-49.48 50,-112.48 153,-112.48 153,-49.48 50,-49.48"/>
<text text-anchor="start" x="58" y="-98.28" font-family="Lato" font-size="14.00">Marco de </text>
<text text-anchor="start" x="120" y="-98.28" font-family="Lato" font-weight="bold" font-size="14.00">uno</text>
</g>
<g id="clust4" class="cluster">
<title>cluster3</title>
<path fill="white" stroke="black" d="M374,-44.48C374,-44.48 474,-44.48 474,-44.48 480,-44.48 486,-50.48 486,-56.48 486,-56.48 486,-95.48 486,-95.48 486,-101.48 480,-107.48 474,-107.48 474,-107.48 374,-107.48 374,-107.48 368,-107.48 362,-101.48 362,-95.48 362,-95.48 362,-56.48 362,-56.48 362,-50.48 368,-44.48 374,-44.48"/>
<text text-anchor="middle" x="424" y="-92.28" font-family="Lato" font-size="14.00">Objeto</text>
</g>
<!-- l1 -->
<g id="node1" class="node">
<title>l1</title>
<ellipse fill="white" stroke="black" cx="668" cy="-95.48" rx="18" ry="18"/>
<text text-anchor="middle" x="668" y="-92.08" font-family="monospace" font-size="13.00">λ</text>
</g>
<!-- a -->
<g id="node2" class="node">
<title>a</title>
<polygon fill="white" stroke="black" points="233,-73.48 233,-95.48 281,-95.48 281,-73.48 233,-73.48"/>
<text text-anchor="middle" x="245" y="-81.08" font-family="monospace" font-size="13.00">a</text>
<polyline fill="none" stroke="black" points="257,-73.48 257,-95.48 "/>
<text text-anchor="middle" x="269" y="-81.08" font-family="monospace" font-size="13.00">⬤</text>
</g>
<!-- __class__ -->
<g id="node6" class="node">
<title>__class__</title>
<polygon fill="white" stroke="black" points="370,-53.48 370,-75.48 478,-75.48 478,-53.48 370,-53.48"/>
<text text-anchor="middle" x="412" y="-61.08" font-family="monospace" font-size="13.00">__class__</text>
<polyline fill="none" stroke="black" points="454,-53.48 454,-75.48 "/>
<text text-anchor="middle" x="466" y="-61.08" font-family="monospace" font-size="13.00">⬤</text>
</g>
<!-- a&#45;&gt;__class__ -->
<g id="edge5" class="edge">
<title>a:f1&#45;&gt;__class__</title>
<path fill="none" stroke="black" d="M282,-84.48C307.74,-84.48 335.87,-81.17 360.19,-77.24"/>
<polygon fill="black" stroke="black" points="353.97,-83.44 362,-76.53 351.41,-76.93 353.97,-83.44"/>
</g>
<!-- A -->
<g id="node3" class="node">
<title>A</title>
<polygon fill="white" stroke="black" points="233,-114.48 233,-136.48 281,-136.48 281,-114.48 233,-114.48"/>
<text text-anchor="middle" x="245" y="-122.08" font-family="monospace" font-size="13.00">A</text>
<polyline fill="none" stroke="black" points="257,-114.48 257,-136.48 "/>
<text text-anchor="middle" x="269" y="-122.08" font-family="monospace" font-size="13.00">⬤</text>
</g>
<!-- uno -->
<g id="node4" class="node">
<title>uno</title>
<polygon fill="white" stroke="black" points="551,-84.48 551,-106.48 614,-106.48 614,-84.48 551,-84.48"/>
<text text-anchor="middle" x="570.5" y="-92.08" font-family="monospace" font-size="13.00">uno</text>
<polyline fill="none" stroke="black" points="590,-84.48 590,-106.48 "/>
<text text-anchor="middle" x="602" y="-92.08" font-family="monospace" font-size="13.00">⬤</text>
</g>
<!-- A&#45;&gt;uno -->
<g id="edge1" class="edge">
<title>A:e&#45;&gt;uno:n</title>
<path fill="none" stroke="black" d="M282,-125.48C398.45,-125.48 539.82,-213.19 574.53,-147.73"/>
<polygon fill="black" stroke="black" points="577.77,-149.05 578.38,-138.47 571.31,-146.36 577.77,-149.05"/>
</g>
<!-- uno&#45;&gt;l1 -->
<g id="edge3" class="edge">
<title>uno:f1&#45;&gt;l1</title>
<path fill="none" stroke="black" d="M615.5,-95.48C623.37,-95.48 631.91,-95.48 639.74,-95.48"/>
<polygon fill="black" stroke="black" points="639.83,-98.98 649.83,-95.48 639.83,-91.98 639.83,-98.98"/>
</g>
<!-- self -->
<g id="node5" class="node">
<title>self</title>
<polygon fill="white" stroke="black" points="66,-58.48 66,-80.48 137,-80.48 137,-58.48 66,-58.48"/>
<text text-anchor="middle" x="89.5" y="-66.08" font-family="monospace" font-size="13.00">self</text>
<polyline fill="none" stroke="black" points="113,-58.48 113,-80.48 "/>
<text text-anchor="middle" x="125" y="-66.08" font-family="monospace" font-size="13.00">⬤</text>
</g>
<!-- self&#45;&gt;A -->
<g id="edge2" class="edge">
<title>self&#45;&gt;A:w</title>
<path fill="none" stroke="black" d="M153,-102.55C167.15,-109.97 183.26,-116.9 199.94,-121.15"/>
<polygon fill="black" stroke="black" points="199.49,-124.64 210,-123.37 200.99,-117.8 199.49,-124.64"/>
</g>
<!-- self&#45;&gt;__class__ -->
<g id="edge4" class="edge">
<title>self:s&#45;&gt;__class__</title>
<path fill="none" stroke="black" d="M125.5,-57.48C125.5,37.84 280.01,-7.86 366.33,-40.83"/>
<polygon fill="black" stroke="black" points="365.15,-44.13 375.74,-44.48 367.68,-37.6 365.15,-44.13"/>
</g>
<!-- __class__&#45;&gt;uno -->
<g id="edge6" class="edge">
<title>__class__:e&#45;&gt;uno:w</title>
<path fill="none" stroke="black" d="M479,-64.48C504.17,-64.48 519.09,-71.9 533.79,-79.48"/>
<polygon fill="black" stroke="black" points="532.5,-82.75 543,-84.16 535.67,-76.51 532.5,-82.75"/>
</g>
<!-- E -->
<g id="node7" class="node">
<title>E</title>
<polygon fill="transparent" stroke="transparent" points="22,-87.48 0,-87.48 0,-51.48 22,-51.48 22,-87.48"/>
<text text-anchor="middle" x="11" y="-66.08" font-family="monospace" font-size="13.00">E</text>
</g>
<!-- E&#45;&gt;self -->
<g id="edge7" class="edge">
<title>E&#45;&gt;self</title>
<path fill="none" stroke="black" d="M22.15,-69.48C26.94,-69.48 33.08,-69.48 39.81,-69.48"/>
<polygon fill="black" stroke="black" points="40,-72.98 50,-69.48 40,-65.98 40,-72.98"/>
</g>
</g>
</svg>
