<?xml version="1.0" encoding="UTF-8" standalone="no"?>
<!DOCTYPE svg PUBLIC "-//W3C//DTD SVG 1.1//EN"
 "http://www.w3.org/Graphics/SVG/1.1/DTD/svg11.dtd">
<!-- Generated by graphviz version 2.43.0 (0)
 -->
<!-- Title: %3 Pages: 1 -->
<svg width="513pt" height="181pt"
 viewBox="0.00 0.00 513.00 180.86" xmlns="http://www.w3.org/2000/svg" xmlns:xlink="http://www.w3.org/1999/xlink">
<g id="graph0" class="graph" transform="scale(1 1) rotate(0) translate(4 176.86)">
<title>%3</title>
<g id="clust1" class="cluster">
<title>cluster0</title>
<polygon fill="white" stroke="black" points="210,-8 210,-112 305,-112 305,-8 210,-8"/>
<text text-anchor="middle" x="257.5" y="-96.8" font-family="Lato" font-size="14.00">Marco global</text>
</g>
<g id="clust3" class="cluster">
<title>cluster2</title>
<path fill="white" stroke="black" d="M374,-8C374,-8 429,-8 429,-8 435,-8 441,-14 441,-20 441,-20 441,-59 441,-59 441,-65 435,-71 429,-71 429,-71 374,-71 374,-71 368,-71 362,-65 362,-59 362,-59 362,-20 362,-20 362,-14 368,-8 374,-8"/>
<text text-anchor="start" x="378" y="-56.8" font-family="Lato" font-size="14.00">Clase </text>
<text text-anchor="start" x="415" y="-56.8" font-family="Lato" font-weight="bold" font-size="14.00">A</text>
</g>
<g id="clust2" class="cluster">
<title>cluster1</title>
<polygon fill="white" stroke="black" points="50,-88 50,-151 153,-151 153,-88 50,-88"/>
<text text-anchor="start" x="58" y="-136.8" font-family="Lato" font-size="14.00">Marco de </text>
<text text-anchor="start" x="120" y="-136.8" font-family="Lato" font-weight="bold" font-size="14.00">uno</text>
</g>
<!-- l1 -->
<g id="node1" class="node">
<title>l1</title>
<ellipse fill="white" stroke="black" cx="487" cy="-28" rx="18" ry="18"/>
<text text-anchor="middle" x="487" y="-24.6" font-family="monospace" font-size="13.00">λ</text>
</g>
<!-- p1 -->
<g id="node2" class="node">
<title>p1</title>
<path fill="white" stroke="black" d="M420.5,-123C420.5,-123 382.5,-123 382.5,-123 376.5,-123 370.5,-117 370.5,-111 370.5,-111 370.5,-99 370.5,-99 370.5,-93 376.5,-87 382.5,-87 382.5,-87 420.5,-87 420.5,-87 426.5,-87 432.5,-93 432.5,-99 432.5,-99 432.5,-111 432.5,-111 432.5,-117 426.5,-123 420.5,-123"/>
<text text-anchor="middle" x="401.5" y="-101.6" font-family="monospace" font-size="13.00">Objeto</text>
</g>
<!-- a -->
<g id="node3" class="node">
<title>a</title>
<polygon fill="white" stroke="black" points="233,-58 233,-80 281,-80 281,-58 233,-58"/>
<text text-anchor="middle" x="245" y="-65.6" font-family="monospace" font-size="13.00">a</text>
<polyline fill="none" stroke="black" points="257,-58 257,-80 "/>
<text text-anchor="middle" x="269" y="-65.6" font-family="monospace" font-size="13.00">⬤</text>
</g>
<!-- a&#45;&gt;p1 -->
<g id="edge5" class="edge">
<title>a:f1&#45;&gt;p1</title>
<path fill="none" stroke="black" d="M282,-69C309.09,-69 338.22,-77.72 360.82,-86.58"/>
<polygon fill="black" stroke="black" points="359.5,-89.82 370.08,-90.36 362.14,-83.34 359.5,-89.82"/>
</g>
<!-- A -->
<g id="node4" class="node">
<title>A</title>
<polygon fill="white" stroke="black" points="233,-17 233,-39 281,-39 281,-17 233,-17"/>
<text text-anchor="middle" x="245" y="-24.6" font-family="monospace" font-size="13.00">A</text>
<polyline fill="none" stroke="black" points="257,-17 257,-39 "/>
<text text-anchor="middle" x="269" y="-24.6" font-family="monospace" font-size="13.00">⬤</text>
</g>
<!-- uno -->
<g id="node5" class="node">
<title>uno</title>
<polygon fill="white" stroke="black" points="370,-17 370,-39 433,-39 433,-17 370,-17"/>
<text text-anchor="middle" x="389.5" y="-24.6" font-family="monospace" font-size="13.00">uno</text>
<polyline fill="none" stroke="black" points="409,-17 409,-39 "/>
<text text-anchor="middle" x="421" y="-24.6" font-family="monospace" font-size="13.00">⬤</text>
</g>
<!-- A&#45;&gt;uno -->
<g id="edge1" class="edge">
<title>A:e&#45;&gt;uno</title>
<path fill="none" stroke="black" d="M282,-28C307.87,-28 336.91,-28 359.77,-28"/>
<polygon fill="black" stroke="black" points="352,-31.5 362,-28 352,-24.5 352,-31.5"/>
</g>
<!-- uno&#45;&gt;l1 -->
<g id="edge3" class="edge">
<title>uno:f1&#45;&gt;l1</title>
<path fill="none" stroke="black" d="M434.5,-28C442.37,-28 450.91,-28 458.74,-28"/>
<polygon fill="black" stroke="black" points="458.83,-31.5 468.83,-28 458.83,-24.5 458.83,-31.5"/>
</g>
<!-- self -->
<g id="node6" class="node">
<title>self</title>
<polygon fill="white" stroke="black" points="66,-97 66,-119 137,-119 137,-97 66,-97"/>
<text text-anchor="middle" x="89.5" y="-104.6" font-family="monospace" font-size="13.00">self</text>
<polyline fill="none" stroke="black" points="113,-97 113,-119 "/>
<text text-anchor="middle" x="125" y="-104.6" font-family="monospace" font-size="13.00">⬤</text>
</g>
<!-- self&#45;&gt;p1 -->
<g id="edge4" class="edge">
<title>self:f1&#45;&gt;p1:n</title>
<path fill="none" stroke="black" d="M138.5,-108C251.95,-108 392.41,-232.92 401.08,-134.26"/>
<polygon fill="black" stroke="black" points="404.59,-134.14 401.5,-124 397.59,-133.85 404.59,-134.14"/>
</g>
<!-- self&#45;&gt;A -->
<g id="edge2" class="edge">
<title>self:s&#45;&gt;A:w</title>
<path fill="none" stroke="black" d="M101.85,-88C106.13,-40.39 149.44,-30.5 199.68,-28.49"/>
<polygon fill="black" stroke="black" points="200.11,-31.98 210,-28.18 199.9,-24.98 200.11,-31.98"/>
</g>
<!-- E -->
<g id="node7" class="node">
<title>E</title>
<polygon fill="transparent" stroke="transparent" points="22,-126 0,-126 0,-90 22,-90 22,-126"/>
<text text-anchor="middle" x="11" y="-104.6" font-family="monospace" font-size="13.00">E</text>
</g>
<!-- E&#45;&gt;self -->
<g id="edge6" class="edge">
<title>E&#45;&gt;self</title>
<path fill="none" stroke="black" d="M22.15,-108C26.94,-108 33.08,-108 39.81,-108"/>
<polygon fill="black" stroke="black" points="40,-111.5 50,-108 40,-104.5 40,-111.5"/>
</g>
</g>
</svg>
