<?xml version="1.0" encoding="UTF-8" standalone="no"?>
<!DOCTYPE svg PUBLIC "-//W3C//DTD SVG 1.1//EN"
 "http://www.w3.org/Graphics/SVG/1.1/DTD/svg11.dtd">
<!-- Generated by graphviz version 2.40.1 (20161225.0304)
 -->
<!-- Title: %3 Pages: 1 -->
<svg width="508pt" height="576pt"
 viewBox="0.00 0.00 507.79 576.00" xmlns="http://www.w3.org/2000/svg" xmlns:xlink="http://www.w3.org/1999/xlink">
<g id="graph0" class="graph" transform="scale(3.7895 3.7895) rotate(0) translate(4 148)">
<title>%3</title>
<!-- 3 -->
<g id="node1" class="node">
<title>3</title>
<ellipse fill="#ffffff" stroke="#000000" cx="108" cy="-45" rx="18" ry="18"/>
<text text-anchor="middle" x="108" y="-41.6" font-family="monospace" font-size="13.00" fill="#000000">3</text>
</g>
<!-- 4 -->
<g id="node2" class="node">
<title>4</title>
<ellipse fill="#ffffff" stroke="#000000" cx="108" cy="-126" rx="18" ry="18"/>
<text text-anchor="middle" x="108" y="-122.6" font-family="monospace" font-size="13.00" fill="#000000">4</text>
</g>
<!-- x -->
<g id="node3" class="node">
<title>x</title>
<polygon fill="transparent" stroke="transparent" points="54,-144 0,-144 0,-108 54,-108 54,-144"/>
<text text-anchor="middle" x="27" y="-122.6" font-family="monospace" font-size="13.00" fill="#000000">x</text>
</g>
<!-- x&#45;&gt;4 -->
<g id="edge1" class="edge">
<title>x&#45;&gt;4</title>
<path fill="none" stroke="#000000" d="M45.3802,-126C55.4966,-126 68.2691,-126 79.6363,-126"/>
<polygon fill="#000000" stroke="#000000" points="79.9716,-129.5001 89.9716,-126 79.9716,-122.5001 79.9716,-129.5001"/>
</g>
<!-- y -->
<g id="node4" class="node">
<title>y</title>
<polygon fill="transparent" stroke="transparent" points="54,-90 0,-90 0,-54 54,-54 54,-90"/>
<text text-anchor="middle" x="27" y="-68.6" font-family="monospace" font-size="13.00" fill="#000000">y</text>
</g>
<!-- y&#45;&gt;3 -->
<g id="edge2" class="edge">
<title>y&#45;&gt;3</title>
<path fill="none" stroke="#000000" d="M45.3802,-65.8733C55.9218,-62.3594 69.3475,-57.8842 81.0619,-53.9794"/>
<polygon fill="#000000" stroke="#000000" points="82.4203,-57.216 90.8003,-50.7332 80.2066,-50.5752 82.4203,-57.216"/>
</g>
<!-- z -->
<g id="node5" class="node">
<title>z</title>
<polygon fill="transparent" stroke="transparent" points="54,-36 0,-36 0,0 54,0 54,-36"/>
<text text-anchor="middle" x="27" y="-14.6" font-family="monospace" font-size="13.00" fill="#000000">z</text>
</g>
<!-- z&#45;&gt;3 -->
<g id="edge3" class="edge">
<title>z&#45;&gt;3</title>
<path fill="none" stroke="#000000" d="M45.3802,-24.1267C55.9218,-27.6406 69.3475,-32.1158 81.0619,-36.0206"/>
<polygon fill="#000000" stroke="#000000" points="80.2066,-39.4248 90.8003,-39.2668 82.4203,-32.784 80.2066,-39.4248"/>
</g>
</g>
</svg>
