<?xml version="1.0" encoding="UTF-8" standalone="no"?>
<!DOCTYPE svg PUBLIC "-//W3C//DTD SVG 1.1//EN"
 "http://www.w3.org/Graphics/SVG/1.1/DTD/svg11.dtd">
<!-- Generated by graphviz version 2.40.1 (20161225.0304)
 -->
<!-- Title: %3 Pages: 1 -->
<svg width="576pt" height="341pt"
 viewBox="0.00 0.00 576.00 340.51" xmlns="http://www.w3.org/2000/svg" xmlns:xlink="http://www.w3.org/1999/xlink">
<g id="graph0" class="graph" transform="scale(1.5134 1.5134) rotate(0) translate(4 221)">
<title>%3</title>
<g id="clust1" class="cluster">
<title>cluster0</title>
<polygon fill="#ffffff" stroke="#000000" points="189.6,-8 189.6,-191 364.6,-191 364.6,-8 189.6,-8"/>
<text text-anchor="start" x="225.1" y="-176.8" font-family="Lato" font-size="14.00" fill="#000000">Marco de </text>
<text text-anchor="start" x="289.1" y="-176.8" font-family="Lato" font-weight="bold" font-size="14.00" fill="#000000">pareja</text>
</g>
<g id="clust2" class="cluster">
<title>cluster1</title>
<polygon fill="#ffffff" stroke="#000000" points="31.6,-116 31.6,-209 132.6,-209 132.6,-116 31.6,-116"/>
<text text-anchor="start" x="39.6" y="-194.8" font-family="Lato" font-size="14.00" fill="#000000">Marco de </text>
<text text-anchor="start" x="103.6" y="-194.8" font-family="Lato" font-weight="bold" font-size="14.00" fill="#000000">get</text>
</g>
<!-- 1 -->
<g id="node1" class="node">
<title>1</title>
<ellipse fill="#ffffff" stroke="#000000" cx="322.1" cy="-88" rx="18" ry="18"/>
<text text-anchor="middle" x="322.1" y="-84.6" font-family="monospace" font-size="13.00" fill="#000000">1</text>
</g>
<!-- 4 -->
<g id="node2" class="node">
<title>4</title>
<ellipse fill="#ffffff" stroke="#000000" cx="322.1" cy="-142" rx="18" ry="18"/>
<text text-anchor="middle" x="322.1" y="-138.6" font-family="monospace" font-size="13.00" fill="#000000">4</text>
</g>
<!-- x -->
<g id="node3" class="node">
<title>x</title>
<polygon fill="transparent" stroke="transparent" points="251.6,-160 197.6,-160 197.6,-124 251.6,-124 251.6,-160"/>
<text text-anchor="middle" x="224.6" y="-138.6" font-family="monospace" font-size="13.00" fill="#000000">x</text>
</g>
<!-- x&#45;&gt;4 -->
<g id="edge1" class="edge">
<title>x&#45;&gt;4</title>
<path fill="none" stroke="#000000" d="M251.7592,-142C264.9196,-142 280.7108,-142 293.994,-142"/>
<polygon fill="#000000" stroke="#000000" points="294.0109,-145.5001 304.0109,-142 294.0108,-138.5001 294.0109,-145.5001"/>
</g>
<!-- y -->
<g id="node4" class="node">
<title>y</title>
<polygon fill="transparent" stroke="transparent" points="251.6,-106 197.6,-106 197.6,-70 251.6,-70 251.6,-106"/>
<text text-anchor="middle" x="224.6" y="-84.6" font-family="monospace" font-size="13.00" fill="#000000">y</text>
</g>
<!-- y&#45;&gt;1 -->
<g id="edge2" class="edge">
<title>y&#45;&gt;1</title>
<path fill="none" stroke="#000000" d="M251.7592,-88C264.9196,-88 280.7108,-88 293.994,-88"/>
<polygon fill="#000000" stroke="#000000" points="294.0109,-91.5001 304.0109,-88 294.0108,-84.5001 294.0109,-91.5001"/>
</g>
<!-- get -->
<g id="node5" class="node">
<title>get</title>
<polygon fill="transparent" stroke="transparent" points="251.6,-52 197.6,-52 197.6,-16 251.6,-16 251.6,-52"/>
<text text-anchor="middle" x="224.6" y="-30.6" font-family="monospace" font-size="13.00" fill="#000000">get</text>
</g>
<!-- función -->
<g id="node7" class="node">
<title>función</title>
<polygon fill="#ffffff" stroke="#000000" points="356.6,-52 287.6,-52 287.6,-16 356.6,-16 356.6,-52"/>
<text text-anchor="middle" x="322.1" y="-30.6" font-family="monospace" font-size="13.00" fill="#000000">función</text>
</g>
<!-- get&#45;&gt;función -->
<g id="edge3" class="edge">
<title>get&#45;&gt;función</title>
<path fill="none" stroke="#000000" d="M251.7592,-34C259.697,-34 268.5919,-34 277.3163,-34"/>
<polygon fill="#000000" stroke="#000000" points="277.412,-37.5001 287.412,-34 277.4119,-30.5001 277.412,-37.5001"/>
</g>
<!-- i -->
<g id="node6" class="node">
<title>i</title>
<polygon fill="transparent" stroke="transparent" points="112.6,-160 50.6,-160 50.6,-124 112.6,-124 112.6,-160"/>
<text text-anchor="middle" x="81.6" y="-138.6" font-family="monospace" font-size="13.00" fill="#000000">indice</text>
</g>
<!-- i&#45;&gt;x -->
<g id="edge5" class="edge">
<title>i&#45;&gt;x</title>
<path fill="none" stroke="#000000" d="M132.5987,-142C150.6523,-142 170.6107,-142 187.3111,-142"/>
<polygon fill="#000000" stroke="#000000" points="179.6002,-145.5004 189.6,-142 179.5998,-138.5004 179.6002,-145.5004"/>
</g>
<!-- i&#45;&gt;i -->
<g id="edge4" class="edge">
<title>i&#45;&gt;i</title>
<path fill="none" stroke="#000000" d="M67.4892,-160.1527C65.3183,-169.5391 70.0219,-178 81.6,-178 88.6554,-178 93.1581,-174.8581 95.108,-170.2796"/>
<polygon fill="#000000" stroke="#000000" points="98.6103,-170.3431 95.7108,-160.1527 91.6227,-169.927 98.6103,-170.3431"/>
</g>
<!-- E -->
<g id="node8" class="node">
<title>E</title>
<ellipse fill="#ffffff" stroke="#000000" cx="1.8" cy="-142" rx="1.8" ry="1.8"/>
</g>
<!-- E&#45;&gt;i -->
<g id="edge6" class="edge">
<title>E&#45;&gt;i</title>
<path fill="none" stroke="#000000" d="M3.7726,-142C6.9017,-142 13.4835,-142 21.5568,-142"/>
<polygon fill="#000000" stroke="#000000" points="21.6017,-145.5001 31.6017,-142 21.6016,-138.5001 21.6017,-145.5001"/>
</g>
</g>
</svg>
