<?xml version="1.0" encoding="UTF-8" standalone="no"?>
<!DOCTYPE svg PUBLIC "-//W3C//DTD SVG 1.1//EN"
 "http://www.w3.org/Graphics/SVG/1.1/DTD/svg11.dtd">
<!-- Generated by graphviz version 2.42.4 (0)
 -->
<!-- Pages: 1 -->
<svg width="791pt" height="329pt"
 viewBox="0.00 0.00 791.27 329.00" xmlns="http://www.w3.org/2000/svg" xmlns:xlink="http://www.w3.org/1999/xlink">
<g id="graph0" class="graph" transform="scale(1 1) rotate(0) translate(4 325)">
<g id="clust3" class="cluster">
<title>cluster2</title>
<path fill="white" stroke="black" d="M614.27,-18C614.27,-18 707.27,-18 707.27,-18 713.27,-18 719.27,-24 719.27,-30 719.27,-30 719.27,-192 719.27,-192 719.27,-198 713.27,-204 707.27,-204 707.27,-204 614.27,-204 614.27,-204 608.27,-204 602.27,-198 602.27,-192 602.27,-192 602.27,-30 602.27,-30 602.27,-24 608.27,-18 614.27,-18"/>
<text text-anchor="start" x="613.27" y="-189.8" font-family="Lato" font-size="14.00">Clase </text>
<text text-anchor="start" x="650.27" y="-189.8" font-family="Lato" font-weight="bold" font-size="14.00">Deposito</text>
</g>
<g id="clust1" class="cluster">
<title>cluster0</title>
<polygon fill="white" stroke="black" points="284.27,-138 284.27,-242 401.27,-242 401.27,-138 284.27,-138"/>
<text text-anchor="middle" x="342.77" y="-226.8" font-family="Lato" font-size="14.00">Marco global</text>
</g>
<g id="clust2" class="cluster">
<title>cluster1</title>
<polygon fill="white" stroke="black" points="50,-209 50,-313 179,-313 179,-209 50,-209"/>
<text text-anchor="start" x="58" y="-298.8" font-family="Lato" font-size="14.00">Marco de </text>
<text text-anchor="start" x="120" y="-298.8" font-family="Lato" font-weight="bold" font-size="14.00">ingresar</text>
</g>
<g id="clust4" class="cluster">
<title>cluster3</title>
<path fill="white" stroke="black" d="M470.27,-178C470.27,-178 570.27,-178 570.27,-178 576.27,-178 582.27,-184 582.27,-190 582.27,-190 582.27,-270 582.27,-270 582.27,-276 576.27,-282 570.27,-282 570.27,-282 470.27,-282 470.27,-282 464.27,-282 458.27,-276 458.27,-270 458.27,-270 458.27,-190 458.27,-190 458.27,-184 464.27,-178 470.27,-178"/>
<text text-anchor="start" x="498.77" y="-266.8" font-family="Lato" font-size="14.00">Objeto</text>
</g>
<!-- l1 -->
<g id="node1" class="node">
<title>l1</title>
<ellipse fill="white" stroke="black" cx="765.27" cy="-180" rx="18" ry="18"/>
<text text-anchor="middle" x="765.27" y="-176.6" font-family="monospace" font-size="13.00">λ</text>
</g>
<!-- l2 -->
<g id="node2" class="node">
<title>l2</title>
<ellipse fill="white" stroke="black" cx="765.27" cy="-126" rx="18" ry="18"/>
<text text-anchor="middle" x="765.27" y="-122.6" font-family="monospace" font-size="13.00">λ</text>
</g>
<!-- l3 -->
<g id="node3" class="node">
<title>l3</title>
<ellipse fill="white" stroke="black" cx="765.27" cy="-72" rx="18" ry="18"/>
<text text-anchor="middle" x="765.27" y="-68.6" font-family="monospace" font-size="13.00">λ</text>
</g>
<!-- l4 -->
<g id="node4" class="node">
<title>l4</title>
<ellipse fill="white" stroke="black" cx="765.27" cy="-18" rx="18" ry="18"/>
<text text-anchor="middle" x="765.27" y="-14.6" font-family="monospace" font-size="13.00">λ</text>
</g>
<!-- p2 -->
<g id="node5" class="node">
<title>p2</title>
<ellipse fill="white" stroke="black" cx="231.64" cy="-229" rx="24.77" ry="24.77"/>
<text text-anchor="middle" x="231.64" y="-225.6" font-family="monospace" font-size="13.00">200</text>
</g>
<!-- p3 -->
<g id="node6" class="node">
<title>p3</title>
<ellipse fill="white" stroke="black" cx="660.77" cy="-239" rx="24.77" ry="24.77"/>
<text text-anchor="middle" x="660.77" y="-235.6" font-family="monospace" font-size="13.00">100</text>
</g>
<!-- dep -->
<g id="node7" class="node">
<title>dep</title>
<polygon fill="white" stroke="black" points="311.27,-188 311.27,-210 374.27,-210 374.27,-188 311.27,-188"/>
<text text-anchor="middle" x="330.77" y="-195.6" font-family="monospace" font-size="13.00">dep</text>
<polyline fill="none" stroke="black" points="350.27,-188 350.27,-210 "/>
<text text-anchor="middle" x="362.27" y="-195.6" font-family="monospace" font-size="13.00">⬤</text>
</g>
<!-- fondos -->
<g id="node15" class="node">
<title>fondos</title>
<polygon fill="white" stroke="black" points="477.27,-228 477.27,-250 563.27,-250 563.27,-228 477.27,-228"/>
<text text-anchor="middle" x="508.27" y="-235.6" font-family="monospace" font-size="13.00">fondos</text>
<polyline fill="none" stroke="black" points="539.27,-228 539.27,-250 "/>
<text text-anchor="middle" x="551.27" y="-235.6" font-family="monospace" font-size="13.00">⬤</text>
</g>
<!-- dep&#45;&gt;fondos -->
<g id="edge4" class="edge">
<title>dep:f1&#45;&gt;fondos</title>
<path fill="none" stroke="black" d="M375.77,-199C383.61,-199 416.2,-207.97 448.34,-217.41"/>
<polygon fill="black" stroke="black" points="447.69,-220.87 458.27,-220.35 449.68,-214.16 447.69,-220.87"/>
</g>
<!-- Deposito -->
<g id="node8" class="node">
<title>Deposito</title>
<polygon fill="white" stroke="black" points="292.27,-147 292.27,-169 393.27,-169 393.27,-147 292.27,-147"/>
<text text-anchor="middle" x="330.77" y="-154.6" font-family="monospace" font-size="13.00">Deposito</text>
<polyline fill="none" stroke="black" points="369.27,-147 369.27,-169 "/>
<text text-anchor="middle" x="381.27" y="-154.6" font-family="monospace" font-size="13.00">⬤</text>
</g>
<!-- init -->
<g id="node9" class="node">
<title>init</title>
<polygon fill="white" stroke="black" points="610.27,-150 610.27,-172 711.27,-172 711.27,-150 610.27,-150"/>
<text text-anchor="middle" x="648.77" y="-157.6" font-family="monospace" font-size="13.00">__init__</text>
<polyline fill="none" stroke="black" points="687.27,-150 687.27,-172 "/>
<text text-anchor="middle" x="699.27" y="-157.6" font-family="monospace" font-size="13.00">⬤</text>
</g>
<!-- Deposito&#45;&gt;init -->
<g id="edge1" class="edge">
<title>Deposito:e&#45;&gt;init</title>
<path fill="none" stroke="black" d="M394.77,-158C465.23,-158 546.21,-159.07 599.92,-159.94"/>
<polygon fill="black" stroke="black" points="592.05,-162.9 602.27,-160.1 592.54,-155.91 592.05,-162.9"/>
</g>
<!-- init&#45;&gt;l1 -->
<g id="edge6" class="edge">
<title>init:f1&#45;&gt;l1</title>
<path fill="none" stroke="black" d="M712.77,-161C721.95,-161 731.51,-163.69 739.87,-167.04"/>
<polygon fill="black" stroke="black" points="738.48,-170.26 749.03,-171.17 741.35,-163.87 738.48,-170.26"/>
</g>
<!-- self -->
<g id="node10" class="node">
<title>self</title>
<polygon fill="white" stroke="black" points="79,-259 79,-281 150,-281 150,-259 79,-259"/>
<text text-anchor="middle" x="102.5" y="-266.6" font-family="monospace" font-size="13.00">self</text>
<polyline fill="none" stroke="black" points="126,-259 126,-281 "/>
<text text-anchor="middle" x="138" y="-266.6" font-family="monospace" font-size="13.00">⬤</text>
</g>
<!-- self&#45;&gt;fondos -->
<g id="edge10" class="edge">
<title>self:f1&#45;&gt;fondos</title>
<path fill="none" stroke="black" d="M151.5,-270C254.94,-270 374.17,-257.67 448.14,-248.56"/>
<polygon fill="black" stroke="black" points="448.78,-252.01 458.27,-247.3 447.92,-245.07 448.78,-252.01"/>
</g>
<!-- cantidad -->
<g id="node11" class="node">
<title>cantidad</title>
<polygon fill="white" stroke="black" points="64,-218 64,-240 165,-240 165,-218 64,-218"/>
<text text-anchor="middle" x="102.5" y="-225.6" font-family="monospace" font-size="13.00">cantidad</text>
<polyline fill="none" stroke="black" points="141,-218 141,-240 "/>
<text text-anchor="middle" x="153" y="-225.6" font-family="monospace" font-size="13.00">⬤</text>
</g>
<!-- cantidad&#45;&gt;p2 -->
<g id="edge11" class="edge">
<title>cantidad:f1&#45;&gt;p2</title>
<path fill="none" stroke="black" d="M166.5,-229C176.31,-229 186.97,-229 196.73,-229"/>
<polygon fill="black" stroke="black" points="196.88,-232.5 206.88,-229 196.88,-225.5 196.88,-232.5"/>
</g>
<!-- cantidad&#45;&gt;dep -->
<g id="edge2" class="edge">
<title>cantidad:s&#45;&gt;dep:w</title>
<path fill="none" stroke="black" d="M114.84,-209C120.58,-144.52 198.74,-183.85 274.23,-195.87"/>
<polygon fill="black" stroke="black" points="273.88,-199.35 284.28,-197.3 274.87,-192.42 273.88,-199.35"/>
</g>
<!-- retirar -->
<g id="node12" class="node">
<title>retirar</title>
<polygon fill="white" stroke="black" points="614.27,-109 614.27,-131 707.27,-131 707.27,-109 614.27,-109"/>
<text text-anchor="middle" x="648.77" y="-116.6" font-family="monospace" font-size="13.00">retirar</text>
<polyline fill="none" stroke="black" points="683.27,-109 683.27,-131 "/>
<text text-anchor="middle" x="695.27" y="-116.6" font-family="monospace" font-size="13.00">⬤</text>
</g>
<!-- retirar&#45;&gt;l2 -->
<g id="edge7" class="edge">
<title>retirar:f1&#45;&gt;l2</title>
<path fill="none" stroke="black" d="M708.77,-120C718.1,-120 728.27,-120.85 737.32,-121.91"/>
<polygon fill="black" stroke="black" points="736.95,-125.39 747.32,-123.21 737.85,-118.45 736.95,-125.39"/>
</g>
<!-- ingresar -->
<g id="node13" class="node">
<title>ingresar</title>
<polygon fill="white" stroke="black" points="610.27,-68 610.27,-90 711.27,-90 711.27,-68 610.27,-68"/>
<text text-anchor="middle" x="648.77" y="-75.6" font-family="monospace" font-size="13.00">ingresar</text>
<polyline fill="none" stroke="black" points="687.27,-68 687.27,-90 "/>
<text text-anchor="middle" x="699.27" y="-75.6" font-family="monospace" font-size="13.00">⬤</text>
</g>
<!-- ingresar&#45;&gt;l3 -->
<g id="edge8" class="edge">
<title>ingresar:f1&#45;&gt;l3</title>
<path fill="none" stroke="black" d="M712.77,-79C720.71,-79 729.28,-78.17 737.1,-77.09"/>
<polygon fill="black" stroke="black" points="737.85,-80.51 747.18,-75.5 736.76,-73.6 737.85,-80.51"/>
</g>
<!-- saldo -->
<g id="node14" class="node">
<title>saldo</title>
<polygon fill="white" stroke="black" points="621.77,-27 621.77,-49 699.77,-49 699.77,-27 621.77,-27"/>
<text text-anchor="middle" x="648.77" y="-34.6" font-family="monospace" font-size="13.00">saldo</text>
<polyline fill="none" stroke="black" points="675.77,-27 675.77,-49 "/>
<text text-anchor="middle" x="687.77" y="-34.6" font-family="monospace" font-size="13.00">⬤</text>
</g>
<!-- saldo&#45;&gt;l4 -->
<g id="edge9" class="edge">
<title>saldo:f1&#45;&gt;l4</title>
<path fill="none" stroke="black" d="M700.77,-38C713.91,-38 727.91,-34.06 739.4,-29.67"/>
<polygon fill="black" stroke="black" points="740.88,-32.85 748.78,-25.79 738.2,-26.38 740.88,-32.85"/>
</g>
<!-- fondos&#45;&gt;p3 -->
<g id="edge5" class="edge">
<title>fondos:f1&#45;&gt;p3</title>
<path fill="none" stroke="black" d="M564.27,-239C584.64,-239 607.46,-239 625.69,-239"/>
<polygon fill="black" stroke="black" points="625.83,-242.5 635.83,-239 625.83,-235.5 625.83,-242.5"/>
</g>
<!-- __class__ -->
<g id="node16" class="node">
<title>__class__</title>
<polygon fill="white" stroke="black" points="466.27,-187 466.27,-209 574.27,-209 574.27,-187 466.27,-187"/>
<text text-anchor="middle" x="508.27" y="-194.6" font-family="monospace" font-size="13.00">__class__</text>
<polyline fill="none" stroke="black" points="550.27,-187 550.27,-209 "/>
<text text-anchor="middle" x="562.27" y="-194.6" font-family="monospace" font-size="13.00">⬤</text>
</g>
<!-- __class__&#45;&gt;init -->
<g id="edge3" class="edge">
<title>__class__:f1&#45;&gt;init</title>
<path fill="none" stroke="black" d="M575.27,-198C580.92,-198 586.62,-197.3 592.25,-196.08"/>
<polygon fill="black" stroke="black" points="593.52,-199.37 602.27,-193.39 591.71,-192.61 593.52,-199.37"/>
</g>
<!-- E -->
<g id="node17" class="node">
<title>E</title>
<polygon fill="transparent" stroke="transparent" points="22,-288 0,-288 0,-252 22,-252 22,-288"/>
<text text-anchor="middle" x="11" y="-266.6" font-family="monospace" font-size="13.00">E</text>
</g>
<!-- E&#45;&gt;self -->
<g id="edge12" class="edge">
<title>E&#45;&gt;self</title>
<path fill="none" stroke="black" d="M22.1,-270C26.82,-270 32.9,-270 39.66,-270"/>
<polygon fill="black" stroke="black" points="40,-273.5 50,-270 40,-266.5 40,-273.5"/>
</g>
</g>
</svg>
