<?xml version="1.0" encoding="UTF-8" standalone="no"?>
<!DOCTYPE svg PUBLIC "-//W3C//DTD SVG 1.1//EN"
 "http://www.w3.org/Graphics/SVG/1.1/DTD/svg11.dtd">
<!-- Generated by graphviz version 2.43.0 (0)
 -->
<!-- Title: %3 Pages: 1 -->
<svg width="621pt" height="242pt"
 viewBox="0.00 0.00 621.43 242.00" xmlns="http://www.w3.org/2000/svg" xmlns:xlink="http://www.w3.org/1999/xlink">
<g id="graph0" class="graph" transform="scale(1 1) rotate(0) translate(4 238)">
<title>%3</title>
<g id="clust1" class="cluster">
<title>cluster2</title>
<polygon fill="white" stroke="black" points="454.43,-31 454.43,-214 549.43,-214 549.43,-31 454.43,-31"/>
<text text-anchor="start" x="462.43" y="-198.8" font-family="Lato" font-size="14.00">Marco global</text>
</g>
<g id="clust2" class="cluster">
<title>cluster0</title>
<polygon fill="white" stroke="black" points="241,-8 241,-191 358,-191 358,-8 241,-8"/>
<text text-anchor="start" x="249" y="-176.8" font-family="Lato" font-size="14.00">Marco de </text>
<text text-anchor="start" x="311" y="-176.8" font-family="Lato" font-weight="bold" font-size="14.00">pareja</text>
</g>
<g id="clust3" class="cluster">
<title>cluster1</title>
<polygon fill="white" stroke="black" points="50,-151 50,-226 149,-226 149,-151 50,-151"/>
<text text-anchor="start" x="58" y="-211.8" font-family="Lato" font-size="14.00">Marco de </text>
<text text-anchor="start" x="120" y="-211.8" font-family="Lato" font-weight="bold" font-size="14.00">get</text>
</g>
<!-- 14 -->
<g id="node1" class="node">
<title>14</title>
<ellipse fill="white" stroke="black" cx="406.21" cy="-88" rx="20.43" ry="20.43"/>
<text text-anchor="middle" x="406.21" y="-84.6" font-family="monospace" font-size="13.00">14</text>
</g>
<!-- 20 -->
<g id="node2" class="node">
<title>20</title>
<ellipse fill="white" stroke="black" cx="406.21" cy="-190" rx="20.43" ry="20.43"/>
<text text-anchor="middle" x="406.21" y="-186.6" font-family="monospace" font-size="13.00">20</text>
</g>
<!-- 0 -->
<g id="node3" class="node">
<title>0</title>
<ellipse fill="white" stroke="black" cx="195" cy="-188" rx="18" ry="18"/>
<text text-anchor="middle" x="195" y="-184.6" font-family="monospace" font-size="13.00">0</text>
</g>
<!-- f1 -->
<g id="node4" class="node">
<title>f1</title>
<ellipse fill="white" stroke="black" cx="595.43" cy="-165" rx="18" ry="18"/>
<text text-anchor="middle" x="595.43" y="-161.6" font-family="monospace" font-size="13.00">λ</text>
</g>
<!-- f2 -->
<g id="node5" class="node">
<title>f2</title>
<ellipse fill="white" stroke="black" cx="595.43" cy="-111" rx="18" ry="18"/>
<text text-anchor="middle" x="595.43" y="-107.6" font-family="monospace" font-size="13.00">λ</text>
</g>
<!-- f3 -->
<g id="node6" class="node">
<title>f3</title>
<ellipse fill="white" stroke="black" cx="595.43" cy="-34" rx="18" ry="18"/>
<text text-anchor="middle" x="595.43" y="-30.6" font-family="monospace" font-size="13.00">λ</text>
</g>
<!-- pareja -->
<g id="node7" class="node">
<title>pareja</title>
<polygon fill="transparent" stroke="transparent" points="532.43,-183 470.43,-183 470.43,-147 532.43,-147 532.43,-183"/>
<text text-anchor="middle" x="501.43" y="-161.6" font-family="monospace" font-size="13.00">pareja</text>
</g>
<!-- pareja&#45;&gt;f1 -->
<g id="edge1" class="edge">
<title>pareja&#45;&gt;f1</title>
<path fill="none" stroke="black" d="M532.55,-165C543.71,-165 556.3,-165 567.19,-165"/>
<polygon fill="black" stroke="black" points="567.4,-168.5 577.4,-165 567.4,-161.5 567.4,-168.5"/>
</g>
<!-- select -->
<g id="node8" class="node">
<title>select</title>
<polygon fill="transparent" stroke="transparent" points="532.43,-129 470.43,-129 470.43,-93 532.43,-93 532.43,-129"/>
<text text-anchor="middle" x="501.43" y="-107.6" font-family="monospace" font-size="13.00">select</text>
</g>
<!-- select&#45;&gt;f2 -->
<g id="edge2" class="edge">
<title>select&#45;&gt;f2</title>
<path fill="none" stroke="black" d="M532.55,-111C543.71,-111 556.3,-111 567.19,-111"/>
<polygon fill="black" stroke="black" points="567.4,-114.5 577.4,-111 567.4,-107.5 567.4,-114.5"/>
</g>
<!-- p -->
<g id="node9" class="node">
<title>p</title>
<polygon fill="transparent" stroke="transparent" points="528.43,-75 474.43,-75 474.43,-39 528.43,-39 528.43,-75"/>
<text text-anchor="middle" x="501.43" y="-53.6" font-family="monospace" font-size="13.00">p</text>
</g>
<!-- p&#45;&gt;f3 -->
<g id="edge3" class="edge">
<title>p&#45;&gt;f3</title>
<path fill="none" stroke="black" d="M528.54,-50.47C540.91,-47.38 555.65,-43.69 568.05,-40.59"/>
<polygon fill="black" stroke="black" points="568.96,-43.97 577.82,-38.15 567.27,-37.18 568.96,-43.97"/>
</g>
<!-- x -->
<g id="node10" class="node">
<title>x</title>
<polygon fill="transparent" stroke="transparent" points="326,-160 272,-160 272,-124 326,-124 326,-160"/>
<text text-anchor="middle" x="299" y="-138.6" font-family="monospace" font-size="13.00">x</text>
</g>
<!-- x&#45;&gt;20 -->
<g id="edge4" class="edge">
<title>x&#45;&gt;20</title>
<path fill="none" stroke="black" d="M326.01,-153.87C341.83,-161.08 362.01,-170.29 378.04,-177.6"/>
<polygon fill="black" stroke="black" points="376.86,-180.91 387.41,-181.88 379.77,-174.54 376.86,-180.91"/>
</g>
<!-- x&#45;&gt;pareja -->
<g id="edge9" class="edge">
<title>x&#45;&gt;pareja</title>
<path fill="none" stroke="black" d="M358,-148.66C385.17,-151.77 417.42,-155.47 444.35,-158.56"/>
<polygon fill="black" stroke="black" points="444.1,-162.06 454.43,-159.72 444.89,-155.1 444.1,-162.06"/>
</g>
<!-- y -->
<g id="node11" class="node">
<title>y</title>
<polygon fill="transparent" stroke="transparent" points="326,-106 272,-106 272,-70 326,-70 326,-106"/>
<text text-anchor="middle" x="299" y="-84.6" font-family="monospace" font-size="13.00">y</text>
</g>
<!-- y&#45;&gt;14 -->
<g id="edge5" class="edge">
<title>y&#45;&gt;14</title>
<path fill="none" stroke="black" d="M326.01,-88C341.04,-88 360,-88 375.6,-88"/>
<polygon fill="black" stroke="black" points="375.78,-91.5 385.78,-88 375.78,-84.5 375.78,-91.5"/>
</g>
<!-- get -->
<g id="node12" class="node">
<title>get</title>
<polygon fill="transparent" stroke="transparent" points="326,-52 272,-52 272,-16 326,-16 326,-52"/>
<text text-anchor="middle" x="299" y="-30.6" font-family="monospace" font-size="13.00">get</text>
</g>
<!-- get&#45;&gt;f3 -->
<g id="edge6" class="edge">
<title>get&#45;&gt;f3</title>
<path fill="none" stroke="black" d="M326.26,-31.45C371.77,-27.44 468.23,-20.72 549.43,-27 555.24,-27.45 561.44,-28.22 567.32,-29.09"/>
<polygon fill="black" stroke="black" points="566.98,-32.58 577.4,-30.72 568.09,-25.67 566.98,-32.58"/>
</g>
<!-- i -->
<g id="node13" class="node">
<title>i</title>
<polygon fill="transparent" stroke="transparent" points="130,-195 68,-195 68,-159 130,-159 130,-195"/>
<text text-anchor="middle" x="99" y="-173.6" font-family="monospace" font-size="13.00">indice</text>
</g>
<!-- i&#45;&gt;0 -->
<g id="edge7" class="edge">
<title>i&#45;&gt;0</title>
<path fill="none" stroke="black" d="M130,-180.51C141.85,-181.9 155.36,-183.48 166.91,-184.83"/>
<polygon fill="black" stroke="black" points="166.52,-188.31 176.85,-185.99 167.33,-181.35 166.52,-188.31"/>
</g>
<!-- i&#45;&gt;x -->
<g id="edge8" class="edge">
<title>i&#45;&gt;x</title>
<path fill="none" stroke="black" d="M149,-166.44C158.28,-164.55 167.93,-162.65 177,-161 194.41,-157.83 213.29,-154.71 230.84,-151.94"/>
<polygon fill="black" stroke="black" points="231.66,-155.36 241,-150.36 230.58,-148.44 231.66,-155.36"/>
</g>
<!-- E -->
<g id="node14" class="node">
<title>E</title>
<polygon fill="transparent" stroke="transparent" points="22,-195 0,-195 0,-159 22,-159 22,-195"/>
<text text-anchor="middle" x="11" y="-173.6" font-family="monospace" font-size="13.00">E</text>
</g>
<!-- E&#45;&gt;i -->
<g id="edge10" class="edge">
<title>E&#45;&gt;i</title>
<path fill="none" stroke="black" d="M22.2,-177C27.01,-177 33.15,-177 39.86,-177"/>
<polygon fill="black" stroke="black" points="40,-180.5 50,-177 40,-173.5 40,-180.5"/>
</g>
</g>
</svg>
