<?xml version="1.0" encoding="UTF-8" standalone="no"?>
<!DOCTYPE svg PUBLIC "-//W3C//DTD SVG 1.1//EN"
 "http://www.w3.org/Graphics/SVG/1.1/DTD/svg11.dtd">
<!-- Generated by graphviz version 2.43.0 (0)
 -->
<!-- Title: %3 Pages: 1 -->
<svg width="379pt" height="225pt"
 viewBox="0.00 0.00 378.60 225.00" xmlns="http://www.w3.org/2000/svg" xmlns:xlink="http://www.w3.org/1999/xlink">
<g id="graph0" class="graph" transform="scale(1 1) rotate(0) translate(4 221)">
<title>%3</title>
<g id="clust1" class="cluster">
<title>cluster0</title>
<polygon fill="white" stroke="black" points="187.6,-8 187.6,-191 362.6,-191 362.6,-8 187.6,-8"/>
<text text-anchor="start" x="224.6" y="-176.8" font-family="Lato" font-size="14.00">Marco de </text>
<text text-anchor="start" x="286.6" y="-176.8" font-family="Lato" font-weight="bold" font-size="14.00">pareja</text>
</g>
<g id="clust2" class="cluster">
<title>cluster1</title>
<polygon fill="white" stroke="black" points="31.6,-116 31.6,-209 130.6,-209 130.6,-116 31.6,-116"/>
<text text-anchor="start" x="39.6" y="-194.8" font-family="Lato" font-size="14.00">Marco de </text>
<text text-anchor="start" x="101.6" y="-194.8" font-family="Lato" font-weight="bold" font-size="14.00">get</text>
</g>
<!-- 1 -->
<g id="node1" class="node">
<title>1</title>
<ellipse fill="white" stroke="black" cx="320.1" cy="-88" rx="18" ry="18"/>
<text text-anchor="middle" x="320.1" y="-84.6" font-family="monospace" font-size="13.00">1</text>
</g>
<!-- 4 -->
<g id="node2" class="node">
<title>4</title>
<ellipse fill="white" stroke="black" cx="320.1" cy="-142" rx="18" ry="18"/>
<text text-anchor="middle" x="320.1" y="-138.6" font-family="monospace" font-size="13.00">4</text>
</g>
<!-- x -->
<g id="node3" class="node">
<title>x</title>
<polygon fill="transparent" stroke="transparent" points="249.6,-160 195.6,-160 195.6,-124 249.6,-124 249.6,-160"/>
<text text-anchor="middle" x="222.6" y="-138.6" font-family="monospace" font-size="13.00">x</text>
</g>
<!-- x&#45;&gt;4 -->
<g id="edge1" class="edge">
<title>x&#45;&gt;4</title>
<path fill="none" stroke="black" d="M249.7,-142C262.73,-142 278.48,-142 291.69,-142"/>
<polygon fill="black" stroke="black" points="292.07,-145.5 302.07,-142 292.07,-138.5 292.07,-145.5"/>
</g>
<!-- y -->
<g id="node4" class="node">
<title>y</title>
<polygon fill="transparent" stroke="transparent" points="249.6,-106 195.6,-106 195.6,-70 249.6,-70 249.6,-106"/>
<text text-anchor="middle" x="222.6" y="-84.6" font-family="monospace" font-size="13.00">y</text>
</g>
<!-- y&#45;&gt;1 -->
<g id="edge2" class="edge">
<title>y&#45;&gt;1</title>
<path fill="none" stroke="black" d="M249.7,-88C262.73,-88 278.48,-88 291.69,-88"/>
<polygon fill="black" stroke="black" points="292.07,-91.5 302.07,-88 292.07,-84.5 292.07,-91.5"/>
</g>
<!-- get -->
<g id="node5" class="node">
<title>get</title>
<polygon fill="transparent" stroke="transparent" points="249.6,-52 195.6,-52 195.6,-16 249.6,-16 249.6,-52"/>
<text text-anchor="middle" x="222.6" y="-30.6" font-family="monospace" font-size="13.00">get</text>
</g>
<!-- función -->
<g id="node7" class="node">
<title>función</title>
<polygon fill="white" stroke="black" points="354.6,-52 285.6,-52 285.6,-16 354.6,-16 354.6,-52"/>
<text text-anchor="middle" x="320.1" y="-30.6" font-family="monospace" font-size="13.00">función</text>
</g>
<!-- get&#45;&gt;función -->
<g id="edge3" class="edge">
<title>get&#45;&gt;función</title>
<path fill="none" stroke="black" d="M249.7,-34C257.63,-34 266.59,-34 275.36,-34"/>
<polygon fill="black" stroke="black" points="275.5,-37.5 285.5,-34 275.5,-30.5 275.5,-37.5"/>
</g>
<!-- i -->
<g id="node6" class="node">
<title>i</title>
<polygon fill="transparent" stroke="transparent" points="111.6,-160 49.6,-160 49.6,-124 111.6,-124 111.6,-160"/>
<text text-anchor="middle" x="80.6" y="-138.6" font-family="monospace" font-size="13.00">indice</text>
</g>
<!-- i&#45;&gt;x -->
<g id="edge5" class="edge">
<title>i&#45;&gt;x</title>
<path fill="none" stroke="black" d="M130.6,-142C148.61,-142 168.67,-142 185.36,-142"/>
<polygon fill="black" stroke="black" points="177.6,-145.5 187.6,-142 177.6,-138.5 177.6,-145.5"/>
</g>
<!-- i&#45;&gt;i -->
<g id="edge4" class="edge">
<title>i&#45;&gt;i</title>
<path fill="none" stroke="black" d="M66.49,-160.15C64.32,-169.54 69.02,-178 80.6,-178 87.66,-178 92.16,-174.86 94.11,-170.28"/>
<polygon fill="black" stroke="black" points="97.61,-170.34 94.71,-160.15 90.62,-169.93 97.61,-170.34"/>
</g>
<!-- E -->
<g id="node8" class="node">
<title>E</title>
<ellipse fill="white" stroke="black" cx="1.8" cy="-142" rx="1.8" ry="1.8"/>
</g>
<!-- E&#45;&gt;i -->
<g id="edge6" class="edge">
<title>E&#45;&gt;i</title>
<path fill="none" stroke="black" d="M3.66,-142C6,-142 12.86,-142 21.56,-142"/>
<polygon fill="black" stroke="black" points="21.6,-145.5 31.6,-142 21.6,-138.5 21.6,-145.5"/>
</g>
</g>
</svg>
