<?xml version="1.0" encoding="UTF-8" standalone="no"?>
<!DOCTYPE svg PUBLIC "-//W3C//DTD SVG 1.1//EN"
 "http://www.w3.org/Graphics/SVG/1.1/DTD/svg11.dtd">
<!-- Generated by graphviz version 14.1.1 (0)
 -->
<!-- Pages: 1 -->
<svg width="629pt" height="216pt"
 viewBox="0.00 0.00 629.00 216.00" xmlns="http://www.w3.org/2000/svg" xmlns:xlink="http://www.w3.org/1999/xlink">
<g id="graph0" class="graph" transform="scale(1 1) rotate(0) translate(4 212)">
<g id="clust1" class="cluster">
<title>cluster2</title>
<polygon fill="white" stroke="black" points="456.46,-45 456.46,-196 556.96,-196 556.96,-45 456.46,-45"/>
<text xml:space="preserve" text-anchor="start" x="467.33" y="-178.7" font-family="Lato" font-size="14.00">Marco global</text>
</g>
<g id="clust2" class="cluster">
<title>cluster0</title>
<polygon fill="white" stroke="black" points="242.4,-8 242.4,-157 358.15,-157 358.15,-8 242.4,-8"/>
<text xml:space="preserve" text-anchor="start" x="250.4" y="-140.7" font-family="Lato" font-size="14.00">Marco de </text>
<text xml:space="preserve" text-anchor="start" x="311.9" y="-140.7" font-family="Lato" font-weight="bold" font-size="14.00">pareja</text>
</g>
<g id="clust3" class="cluster">
<title>cluster1</title>
<polygon fill="white" stroke="black" points="49.9,-133 49.9,-200 150.4,-200 150.4,-133 49.9,-133"/>
<text xml:space="preserve" text-anchor="start" x="59.28" y="-183.7" font-family="Lato" font-size="14.00">Marco de </text>
<text xml:space="preserve" text-anchor="start" x="120.78" y="-183.7" font-family="Lato" font-weight="bold" font-size="14.00">get</text>
</g>
<!-- 14 -->
<g id="node1" class="node">
<title>14</title>
<ellipse fill="white" stroke="black" cx="407.3" cy="-59" rx="21.15" ry="21.15"/>
<text xml:space="preserve" text-anchor="middle" x="407.3" y="-54.9" font-family="monospace" font-size="13.00">14</text>
</g>
<!-- 20 -->
<g id="node2" class="node">
<title>20</title>
<ellipse fill="white" stroke="black" cx="407.3" cy="-119" rx="21.15" ry="21.15"/>
<text xml:space="preserve" text-anchor="middle" x="407.3" y="-114.9" font-family="monospace" font-size="13.00">20</text>
</g>
<!-- 0 -->
<g id="node3" class="node">
<title>0</title>
<ellipse fill="white" stroke="black" cx="196.4" cy="-158" rx="18" ry="18"/>
<text xml:space="preserve" text-anchor="middle" x="196.4" y="-153.9" font-family="monospace" font-size="13.00">0</text>
</g>
<!-- f1 -->
<g id="node4" class="node">
<title>f1</title>
<ellipse fill="white" stroke="black" cx="602.96" cy="-155" rx="18" ry="18"/>
<text xml:space="preserve" text-anchor="middle" x="602.96" y="-150.9" font-family="monospace" font-size="13.00">λ</text>
</g>
<!-- f2 -->
<g id="node5" class="node">
<title>f2</title>
<ellipse fill="white" stroke="black" cx="602.96" cy="-101" rx="18" ry="18"/>
<text xml:space="preserve" text-anchor="middle" x="602.96" y="-96.9" font-family="monospace" font-size="13.00">λ</text>
</g>
<!-- f3 -->
<g id="node6" class="node">
<title>f3</title>
<ellipse fill="white" stroke="black" cx="602.96" cy="-31" rx="18" ry="18"/>
<text xml:space="preserve" text-anchor="middle" x="602.96" y="-26.9" font-family="monospace" font-size="13.00">λ</text>
</g>
<!-- pareja -->
<g id="node7" class="node">
<title>pareja</title>
<polygon fill="white" stroke="black" points="464.46,-137.75 464.46,-162.25 548.96,-162.25 548.96,-137.75 464.46,-137.75"/>
<text xml:space="preserve" text-anchor="middle" x="494.96" y="-145.9" font-family="monospace" font-size="13.00">pareja</text>
<polyline fill="none" stroke="black" points="525.46,-137.75 525.46,-162.25"/>
<text xml:space="preserve" text-anchor="middle" x="537.21" y="-144.4" font-family="monospace" font-size="13.00">⬤</text>
</g>
<!-- pareja&#45;&gt;f1 -->
<g id="edge1" class="edge">
<title>pareja:f1&#45;&gt;f1</title>
<path fill="none" stroke="black" d="M549.96,-150C557.58,-150 565.8,-150.54 573.4,-151.26"/>
<polygon fill="black" stroke="black" points="572.84,-154.72 583.16,-152.33 573.6,-147.76 572.84,-154.72"/>
</g>
<!-- select -->
<g id="node8" class="node">
<title>select</title>
<polygon fill="white" stroke="black" points="464.46,-93.75 464.46,-118.25 548.96,-118.25 548.96,-93.75 464.46,-93.75"/>
<text xml:space="preserve" text-anchor="middle" x="494.96" y="-101.9" font-family="monospace" font-size="13.00">select</text>
<polyline fill="none" stroke="black" points="525.46,-93.75 525.46,-118.25"/>
<text xml:space="preserve" text-anchor="middle" x="537.21" y="-100.4" font-family="monospace" font-size="13.00">⬤</text>
</g>
<!-- select&#45;&gt;f2 -->
<g id="edge2" class="edge">
<title>select:f1&#45;&gt;f2</title>
<path fill="none" stroke="black" d="M549.96,-106C557.58,-106 565.8,-105.46 573.4,-104.74"/>
<polygon fill="black" stroke="black" points="573.6,-108.24 583.16,-103.67 572.84,-101.28 573.6,-108.24"/>
</g>
<!-- p -->
<g id="node9" class="node">
<title>p</title>
<polygon fill="white" stroke="black" points="488.71,-53.2 488.71,-74.8 524.71,-74.8 524.71,-53.2 488.71,-53.2"/>
<text xml:space="preserve" text-anchor="middle" x="497.96" y="-59.45" font-family="monospace" font-size="13.00">p</text>
<polyline fill="none" stroke="black" points="507.21,-52.3 507.21,-74.8"/>
<text xml:space="preserve" text-anchor="middle" x="515.96" y="-57.95" font-family="monospace" font-size="13.00">⬤</text>
</g>
<!-- p&#45;&gt;f3 -->
<g id="edge3" class="edge">
<title>p:f1&#45;&gt;f3</title>
<path fill="none" stroke="black" d="M525.71,-63.55C544.36,-63.55 563.66,-55.21 578.18,-46.98"/>
<polygon fill="black" stroke="black" points="579.8,-50.09 586.53,-41.91 576.17,-44.1 579.8,-50.09"/>
</g>
<!-- x -->
<g id="node10" class="node">
<title>x</title>
<polygon fill="white" stroke="black" points="281.78,-101.2 281.78,-122.8 317.78,-122.8 317.78,-101.2 281.78,-101.2"/>
<text xml:space="preserve" text-anchor="middle" x="291.03" y="-107.45" font-family="monospace" font-size="13.00">x</text>
<polyline fill="none" stroke="black" points="300.28,-100.3 300.28,-122.8"/>
<text xml:space="preserve" text-anchor="middle" x="309.03" y="-105.95" font-family="monospace" font-size="13.00">⬤</text>
</g>
<!-- x&#45;&gt;20 -->
<g id="edge4" class="edge">
<title>x:f1&#45;&gt;20</title>
<path fill="none" stroke="black" d="M318.78,-111.55C337.31,-111.55 357.97,-113.23 374.56,-114.99"/>
<polygon fill="black" stroke="black" points="374,-118.45 384.33,-116.1 374.78,-111.5 374,-118.45"/>
</g>
<!-- x&#45;&gt;select -->
<g id="edge9" class="edge">
<title>x&#45;&gt;select</title>
<path fill="none" stroke="black" d="M358.15,-143.62C380.24,-151.89 405.64,-156.61 428.46,-149 438.84,-145.54 441.83,-140.46 447.36,-135.01"/>
<polygon fill="black" stroke="black" points="449.48,-137.8 455.26,-128.92 445.2,-132.26 449.48,-137.8"/>
</g>
<!-- y -->
<g id="node11" class="node">
<title>y</title>
<polygon fill="white" stroke="black" points="281.78,-60.2 281.78,-81.8 317.78,-81.8 317.78,-60.2 281.78,-60.2"/>
<text xml:space="preserve" text-anchor="middle" x="291.03" y="-66.45" font-family="monospace" font-size="13.00">y</text>
<polyline fill="none" stroke="black" points="300.28,-59.3 300.28,-81.8"/>
<text xml:space="preserve" text-anchor="middle" x="309.03" y="-64.95" font-family="monospace" font-size="13.00">⬤</text>
</g>
<!-- y&#45;&gt;14 -->
<g id="edge5" class="edge">
<title>y:f1&#45;&gt;14</title>
<path fill="none" stroke="black" d="M318.78,-70.55C337.52,-70.55 358.34,-67.91 374.96,-65.16"/>
<polygon fill="black" stroke="black" points="375.51,-68.62 384.75,-63.43 374.29,-61.72 375.51,-68.62"/>
</g>
<!-- get -->
<g id="node12" class="node">
<title>get</title>
<polygon fill="white" stroke="black" points="268.78,-16.75 268.78,-41.25 330.78,-41.25 330.78,-16.75 268.78,-16.75"/>
<text xml:space="preserve" text-anchor="middle" x="288.03" y="-24.9" font-family="monospace" font-size="13.00">get</text>
<polyline fill="none" stroke="black" points="307.28,-16.75 307.28,-41.25"/>
<text xml:space="preserve" text-anchor="middle" x="319.03" y="-23.4" font-family="monospace" font-size="13.00">⬤</text>
</g>
<!-- get&#45;&gt;f3 -->
<g id="edge6" class="edge">
<title>get&#45;&gt;f3</title>
<path fill="none" stroke="black" d="M331.22,-28.9C357.09,-28.84 395.21,-28.81 428.46,-29 479.43,-29.29 538.83,-30.07 573.24,-30.57"/>
<polygon fill="black" stroke="black" points="573.16,-34.07 583.21,-30.71 573.26,-27.07 573.16,-34.07"/>
</g>
<!-- i -->
<g id="node13" class="node">
<title>i</title>
<polygon fill="white" stroke="black" points="57.9,-141.75 57.9,-166.25 142.4,-166.25 142.4,-141.75 57.9,-141.75"/>
<text xml:space="preserve" text-anchor="middle" x="88.4" y="-149.9" font-family="monospace" font-size="13.00">indice</text>
<polyline fill="none" stroke="black" points="118.9,-141.75 118.9,-166.25"/>
<text xml:space="preserve" text-anchor="middle" x="130.65" y="-148.4" font-family="monospace" font-size="13.00">⬤</text>
</g>
<!-- i&#45;&gt;0 -->
<g id="edge7" class="edge">
<title>i:f1&#45;&gt;0</title>
<path fill="none" stroke="black" d="M143.4,-154C151.01,-154 159.22,-154.43 166.82,-155.01"/>
<polygon fill="black" stroke="black" points="166.32,-158.48 176.58,-155.87 166.93,-151.51 166.32,-158.48"/>
</g>
<!-- i&#45;&gt;x -->
<g id="edge8" class="edge">
<title>i&#45;&gt;x</title>
<path fill="none" stroke="black" d="M150.4,-138.28C159.65,-135.63 169.27,-133.07 178.4,-131 195.4,-127.15 213.92,-123.8 231.23,-121.05"/>
<polygon fill="black" stroke="black" points="231.56,-124.54 240.91,-119.55 230.49,-117.62 231.56,-124.54"/>
</g>
<!-- E -->
<g id="node14" class="node">
<title>E</title>
<polygon fill="none" stroke="none" points="21.9,-172 0,-172 0,-136 21.9,-136 21.9,-172"/>
<text xml:space="preserve" text-anchor="middle" x="10.95" y="-149.9" font-family="monospace" font-size="13.00">E</text>
</g>
<!-- E&#45;&gt;i -->
<g id="edge10" class="edge">
<title>E&#45;&gt;i</title>
<path fill="none" stroke="black" d="M21.62,-154C27.99,-154 36.9,-154 46.41,-154"/>
<polygon fill="black" stroke="black" points="38.39,-157.5 48.39,-154 38.39,-150.5 38.39,-157.5"/>
</g>
</g>
</svg>
