<?xml version="1.0" encoding="UTF-8" standalone="no"?>
<!DOCTYPE svg PUBLIC "-//W3C//DTD SVG 1.1//EN"
 "http://www.w3.org/Graphics/SVG/1.1/DTD/svg11.dtd">
<!-- Generated by graphviz version 2.42.4 (0)
 -->
<!-- Pages: 1 -->
<svg width="631pt" height="210pt"
 viewBox="0.00 0.00 631.43 210.00" xmlns="http://www.w3.org/2000/svg" xmlns:xlink="http://www.w3.org/1999/xlink">
<g id="graph0" class="graph" transform="scale(1 1) rotate(0) translate(4 206)">
<g id="clust2" class="cluster">
<title>cluster0</title>
<polygon fill="white" stroke="black" points="244,-8 244,-153 361,-153 361,-8 244,-8"/>
<text text-anchor="start" x="252" y="-138.8" font-family="Lato" font-size="14.00">Marco de </text>
<text text-anchor="start" x="314" y="-138.8" font-family="Lato" font-weight="bold" font-size="14.00">pareja</text>
</g>
<g id="clust1" class="cluster">
<title>cluster2</title>
<polygon fill="white" stroke="black" points="457.43,-44 457.43,-189 559.43,-189 559.43,-44 457.43,-44"/>
<text text-anchor="start" x="468.93" y="-173.8" font-family="Lato" font-size="14.00">Marco global</text>
</g>
<g id="clust3" class="cluster">
<title>cluster1</title>
<polygon fill="white" stroke="black" points="50,-131 50,-194 152,-194 152,-131 50,-131"/>
<text text-anchor="start" x="59.5" y="-179.8" font-family="Lato" font-size="14.00">Marco de </text>
<text text-anchor="start" x="121.5" y="-179.8" font-family="Lato" font-weight="bold" font-size="14.00">get</text>
</g>
<!-- 14 -->
<g id="node1" class="node">
<title>14</title>
<ellipse fill="white" stroke="black" cx="409.21" cy="-65" rx="20.43" ry="20.43"/>
<text text-anchor="middle" x="409.21" y="-61.6" font-family="monospace" font-size="13.00">14</text>
</g>
<!-- 20 -->
<g id="node2" class="node">
<title>20</title>
<ellipse fill="white" stroke="black" cx="409.21" cy="-161" rx="20.43" ry="20.43"/>
<text text-anchor="middle" x="409.21" y="-157.6" font-family="monospace" font-size="13.00">20</text>
</g>
<!-- 0 -->
<g id="node3" class="node">
<title>0</title>
<ellipse fill="white" stroke="black" cx="198" cy="-156" rx="18" ry="18"/>
<text text-anchor="middle" x="198" y="-152.6" font-family="monospace" font-size="13.00">0</text>
</g>
<!-- f1 -->
<g id="node4" class="node">
<title>f1</title>
<ellipse fill="white" stroke="black" cx="605.43" cy="-152" rx="18" ry="18"/>
<text text-anchor="middle" x="605.43" y="-148.6" font-family="monospace" font-size="13.00">λ</text>
</g>
<!-- f2 -->
<g id="node5" class="node">
<title>f2</title>
<ellipse fill="white" stroke="black" cx="605.43" cy="-98" rx="18" ry="18"/>
<text text-anchor="middle" x="605.43" y="-94.6" font-family="monospace" font-size="13.00">λ</text>
</g>
<!-- f3 -->
<g id="node6" class="node">
<title>f3</title>
<ellipse fill="white" stroke="black" cx="605.43" cy="-34" rx="18" ry="18"/>
<text text-anchor="middle" x="605.43" y="-30.6" font-family="monospace" font-size="13.00">λ</text>
</g>
<!-- pareja -->
<g id="node7" class="node">
<title>pareja</title>
<polygon fill="white" stroke="black" points="465.43,-135 465.43,-157 551.43,-157 551.43,-135 465.43,-135"/>
<text text-anchor="middle" x="496.43" y="-142.6" font-family="monospace" font-size="13.00">pareja</text>
<polyline fill="none" stroke="black" points="527.43,-135 527.43,-157 "/>
<text text-anchor="middle" x="539.43" y="-142.6" font-family="monospace" font-size="13.00">⬤</text>
</g>
<!-- pareja&#45;&gt;f1 -->
<g id="edge1" class="edge">
<title>pareja:f1&#45;&gt;f1</title>
<path fill="none" stroke="black" d="M552.43,-146C560.64,-146 569.54,-146.75 577.61,-147.72"/>
<polygon fill="black" stroke="black" points="577.24,-151.2 587.62,-149.07 578.18,-144.26 577.24,-151.2"/>
</g>
<!-- select -->
<g id="node8" class="node">
<title>select</title>
<polygon fill="white" stroke="black" points="465.43,-94 465.43,-116 551.43,-116 551.43,-94 465.43,-94"/>
<text text-anchor="middle" x="496.43" y="-101.6" font-family="monospace" font-size="13.00">select</text>
<polyline fill="none" stroke="black" points="527.43,-94 527.43,-116 "/>
<text text-anchor="middle" x="539.43" y="-101.6" font-family="monospace" font-size="13.00">⬤</text>
</g>
<!-- select&#45;&gt;f2 -->
<g id="edge2" class="edge">
<title>select:f1&#45;&gt;f2</title>
<path fill="none" stroke="black" d="M552.43,-105C560.66,-105 569.56,-104.13 577.64,-103"/>
<polygon fill="black" stroke="black" points="578.31,-106.43 587.64,-101.42 577.22,-99.52 578.31,-106.43"/>
</g>
<!-- p -->
<g id="node9" class="node">
<title>p</title>
<polygon fill="white" stroke="black" points="490.43,-53 490.43,-75 526.43,-75 526.43,-53 490.43,-53"/>
<text text-anchor="middle" x="499.43" y="-60.6" font-family="monospace" font-size="13.00">p</text>
<polyline fill="none" stroke="black" points="508.43,-53 508.43,-75 "/>
<text text-anchor="middle" x="517.43" y="-60.6" font-family="monospace" font-size="13.00">⬤</text>
</g>
<!-- p&#45;&gt;f3 -->
<g id="edge3" class="edge">
<title>p:f1&#45;&gt;f3</title>
<path fill="none" stroke="black" d="M527.43,-64C546.38,-64 566.27,-56.02 581.08,-48.28"/>
<polygon fill="black" stroke="black" points="582.98,-51.24 590.03,-43.33 579.59,-45.11 582.98,-51.24"/>
</g>
<!-- x -->
<g id="node10" class="node">
<title>x</title>
<polygon fill="white" stroke="black" points="284.5,-99 284.5,-121 320.5,-121 320.5,-99 284.5,-99"/>
<text text-anchor="middle" x="293.5" y="-106.6" font-family="monospace" font-size="13.00">x</text>
<polyline fill="none" stroke="black" points="302.5,-99 302.5,-121 "/>
<text text-anchor="middle" x="311.5" y="-106.6" font-family="monospace" font-size="13.00">⬤</text>
</g>
<!-- x&#45;&gt;20 -->
<g id="edge4" class="edge">
<title>x:f1&#45;&gt;20</title>
<path fill="none" stroke="black" d="M321.5,-110C346.34,-110 370.34,-125.74 386.77,-139.73"/>
<polygon fill="black" stroke="black" points="384.86,-142.72 394.63,-146.79 389.53,-137.51 384.86,-142.72"/>
</g>
<!-- x&#45;&gt;select -->
<g id="edge9" class="edge">
<title>x&#45;&gt;select</title>
<path fill="none" stroke="black" d="M361,-108.59C390.63,-107.86 426.49,-106.98 455.3,-106.28"/>
<polygon fill="black" stroke="black" points="447.9,-110.66 457.43,-106.03 447.09,-103.71 447.9,-110.66"/>
</g>
<!-- y -->
<g id="node11" class="node">
<title>y</title>
<polygon fill="white" stroke="black" points="284.5,-58 284.5,-80 320.5,-80 320.5,-58 284.5,-58"/>
<text text-anchor="middle" x="293.5" y="-65.6" font-family="monospace" font-size="13.00">y</text>
<polyline fill="none" stroke="black" points="302.5,-58 302.5,-80 "/>
<text text-anchor="middle" x="311.5" y="-65.6" font-family="monospace" font-size="13.00">⬤</text>
</g>
<!-- y&#45;&gt;14 -->
<g id="edge5" class="edge">
<title>y:f1&#45;&gt;14</title>
<path fill="none" stroke="black" d="M321.5,-69C340.54,-69 361.9,-68.03 378.66,-67.04"/>
<polygon fill="black" stroke="black" points="379.18,-70.51 388.94,-66.4 378.74,-63.53 379.18,-70.51"/>
</g>
<!-- get -->
<g id="node12" class="node">
<title>get</title>
<polygon fill="white" stroke="black" points="271,-17 271,-39 334,-39 334,-17 271,-17"/>
<text text-anchor="middle" x="290.5" y="-24.6" font-family="monospace" font-size="13.00">get</text>
<polyline fill="none" stroke="black" points="310,-17 310,-39 "/>
<text text-anchor="middle" x="322" y="-24.6" font-family="monospace" font-size="13.00">⬤</text>
</g>
<!-- get&#45;&gt;f3 -->
<g id="edge6" class="edge">
<title>get&#45;&gt;f3</title>
<path fill="none" stroke="black" d="M334.01,-28.61C392.71,-29.78 520.51,-32.33 576.83,-33.45"/>
<polygon fill="black" stroke="black" points="577.03,-36.95 587.1,-33.65 577.17,-29.96 577.03,-36.95"/>
</g>
<!-- i -->
<g id="node13" class="node">
<title>i</title>
<polygon fill="white" stroke="black" points="58,-140 58,-162 144,-162 144,-140 58,-140"/>
<text text-anchor="middle" x="89" y="-147.6" font-family="monospace" font-size="13.00">indice</text>
<polyline fill="none" stroke="black" points="120,-140 120,-162 "/>
<text text-anchor="middle" x="132" y="-147.6" font-family="monospace" font-size="13.00">⬤</text>
</g>
<!-- i&#45;&gt;0 -->
<g id="edge7" class="edge">
<title>i:f1&#45;&gt;0</title>
<path fill="none" stroke="black" d="M145,-151C152.98,-151 161.62,-151.59 169.52,-152.37"/>
<polygon fill="black" stroke="black" points="169.38,-155.87 179.71,-153.5 170.16,-148.92 169.38,-155.87"/>
</g>
<!-- i&#45;&gt;x -->
<g id="edge8" class="edge">
<title>i&#45;&gt;x</title>
<path fill="none" stroke="black" d="M152,-135.94C161.26,-133.43 170.89,-130.99 180,-129 197.33,-125.22 216.21,-121.89 233.81,-119.11"/>
<polygon fill="black" stroke="black" points="234.65,-122.53 244,-117.55 233.58,-115.61 234.65,-122.53"/>
</g>
<!-- E -->
<g id="node14" class="node">
<title>E</title>
<polygon fill="transparent" stroke="transparent" points="22,-169 0,-169 0,-133 22,-133 22,-169"/>
<text text-anchor="middle" x="11" y="-147.6" font-family="monospace" font-size="13.00">E</text>
</g>
<!-- E&#45;&gt;i -->
<g id="edge10" class="edge">
<title>E&#45;&gt;i</title>
<path fill="none" stroke="black" d="M22.09,-151C28.66,-151 37.79,-151 47.48,-151"/>
<polygon fill="black" stroke="black" points="40,-154.5 50,-151 40,-147.5 40,-154.5"/>
</g>
</g>
</svg>
