<?xml version="1.0" encoding="UTF-8" standalone="no"?>
<!DOCTYPE svg PUBLIC "-//W3C//DTD SVG 1.1//EN"
 "http://www.w3.org/Graphics/SVG/1.1/DTD/svg11.dtd">
<!-- Generated by graphviz version 14.1.2 (0)
 -->
<!-- Pages: 1 -->
<svg width="532pt" height="155pt"
 viewBox="0.00 0.00 532.00 155.00" xmlns="http://www.w3.org/2000/svg" xmlns:xlink="http://www.w3.org/1999/xlink">
<g id="graph0" class="graph" transform="scale(1 1) rotate(0) translate(4 151.38)">
<g id="clust1" class="cluster">
<title>cluster0</title>
<polygon fill="white" stroke="black" points="49.9,-28.38 49.9,-139.38 144.65,-139.38 144.65,-28.38 49.9,-28.38"/>
<text xml:space="preserve" text-anchor="middle" x="97.28" y="-122.08" font-family="Lato" font-size="14.00">Marco global</text>
</g>
<g id="clust2" class="cluster">
<title>cluster1</title>
<path fill="white" stroke="black" d="M213.65,-71.38C213.65,-71.38 312.65,-71.38 312.65,-71.38 318.65,-71.38 324.65,-77.38 324.65,-83.38 324.65,-83.38 324.65,-126.38 324.65,-126.38 324.65,-132.38 318.65,-138.38 312.65,-138.38 312.65,-138.38 213.65,-138.38 213.65,-138.38 207.65,-138.38 201.65,-132.38 201.65,-126.38 201.65,-126.38 201.65,-83.38 201.65,-83.38 201.65,-77.38 207.65,-71.38 213.65,-71.38"/>
<text xml:space="preserve" text-anchor="middle" x="263.15" y="-121.08" font-family="Lato" font-size="14.00">Objeto</text>
</g>
<g id="clust3" class="cluster">
<title>cluster2</title>
<path fill="white" stroke="black" d="M393.65,-55.38C393.65,-55.38 447.65,-55.38 447.65,-55.38 453.65,-55.38 459.65,-61.38 459.65,-67.38 459.65,-67.38 459.65,-110.38 459.65,-110.38 459.65,-116.38 453.65,-122.38 447.65,-122.38 447.65,-122.38 393.65,-122.38 393.65,-122.38 387.65,-122.38 381.65,-116.38 381.65,-110.38 381.65,-110.38 381.65,-67.38 381.65,-67.38 381.65,-61.38 387.65,-55.38 393.65,-55.38"/>
<text xml:space="preserve" text-anchor="start" x="397.78" y="-106.08" font-family="Lato" font-size="14.00">Clase </text>
<text xml:space="preserve" text-anchor="start" x="433.78" y="-106.08" font-family="Lato" font-weight="bold" font-size="14.00">A</text>
</g>
<!-- l1 -->
<g id="node1" class="node">
<title>l1</title>
<ellipse fill="white" stroke="black" cx="505.65" cy="-76.38" rx="18" ry="18"/>
<text xml:space="preserve" text-anchor="middle" x="505.65" y="-72.28" font-family="monospace" font-size="13.00">λ</text>
</g>
<!-- a -->
<g id="node2" class="node">
<title>a</title>
<polygon fill="white" stroke="black" points="73.28,-81.13 73.28,-105.63 120.28,-105.63 120.28,-81.13 73.28,-81.13"/>
<text xml:space="preserve" text-anchor="middle" x="85.03" y="-89.28" font-family="monospace" font-size="13.00">a</text>
<polyline fill="none" stroke="black" points="96.78,-81.13 96.78,-105.63"/>
<text xml:space="preserve" text-anchor="middle" x="108.53" y="-87.78" font-family="monospace" font-size="13.00">⬤</text>
</g>
<!-- __class__ -->
<g id="node5" class="node">
<title>__class__</title>
<polygon fill="white" stroke="black" points="209.65,-80.13 209.65,-104.63 316.65,-104.63 316.65,-80.13 209.65,-80.13"/>
<text xml:space="preserve" text-anchor="middle" x="251.4" y="-88.28" font-family="monospace" font-size="13.00">__class__</text>
<polyline fill="none" stroke="black" points="293.15,-80.13 293.15,-104.63"/>
<text xml:space="preserve" text-anchor="middle" x="304.9" y="-86.78" font-family="monospace" font-size="13.00">⬤</text>
</g>
<!-- a&#45;&gt;__class__ -->
<g id="edge4" class="edge">
<title>a:f1&#45;&gt;__class__</title>
<path fill="none" stroke="black" d="M121.28,-93.38C146.29,-93.38 173.8,-93.22 197.82,-93.03"/>
<polygon fill="black" stroke="black" points="190.23,-96.72 200.14,-92.97 190.05,-89.73 190.23,-96.72"/>
</g>
<!-- A -->
<g id="node3" class="node">
<title>A</title>
<polygon fill="white" stroke="black" points="73.28,-37.13 73.28,-61.63 120.28,-61.63 120.28,-37.13 73.28,-37.13"/>
<text xml:space="preserve" text-anchor="middle" x="85.03" y="-45.28" font-family="monospace" font-size="13.00">A</text>
<polyline fill="none" stroke="black" points="96.78,-37.13 96.78,-61.63"/>
<text xml:space="preserve" text-anchor="middle" x="108.53" y="-43.78" font-family="monospace" font-size="13.00">⬤</text>
</g>
<!-- uno -->
<g id="node4" class="node">
<title>uno</title>
<polygon fill="white" stroke="black" points="389.65,-64.13 389.65,-88.63 451.65,-88.63 451.65,-64.13 389.65,-64.13"/>
<text xml:space="preserve" text-anchor="middle" x="408.9" y="-72.28" font-family="monospace" font-size="13.00">uno</text>
<polyline fill="none" stroke="black" points="428.15,-64.13 428.15,-88.63"/>
<text xml:space="preserve" text-anchor="middle" x="439.9" y="-70.78" font-family="monospace" font-size="13.00">⬤</text>
</g>
<!-- A&#45;&gt;uno -->
<g id="edge1" class="edge">
<title>A:e&#45;&gt;uno:s</title>
<path fill="none" stroke="black" d="M121.28,-49.38C250.44,-49.38 410.62,62.94 420.2,-51.72"/>
<polygon fill="black" stroke="black" points="415.77,-44.38 420.46,-53.88 422.72,-43.53 415.77,-44.38"/>
</g>
<!-- uno&#45;&gt;l1 -->
<g id="edge2" class="edge">
<title>uno:f1&#45;&gt;l1</title>
<path fill="none" stroke="black" d="M452.65,-76.38C460.23,-76.38 468.44,-76.38 476.04,-76.38"/>
<polygon fill="black" stroke="black" points="475.8,-79.88 485.8,-76.38 475.8,-72.88 475.8,-79.88"/>
</g>
<!-- __class__&#45;&gt;uno -->
<g id="edge3" class="edge">
<title>__class__:e&#45;&gt;uno:w</title>
<path fill="none" stroke="black" d="M317.65,-92.38C341.18,-92.38 356.09,-88.78 370.55,-85"/>
<polygon fill="black" stroke="black" points="371.38,-88.4 380.19,-82.51 369.63,-81.62 371.38,-88.4"/>
</g>
<!-- E -->
<g id="node6" class="node">
<title>E</title>
<polygon fill="none" stroke="none" points="21.9,-111.38 0,-111.38 0,-75.38 21.9,-75.38 21.9,-111.38"/>
<text xml:space="preserve" text-anchor="middle" x="10.95" y="-89.28" font-family="monospace" font-size="13.00">E</text>
</g>
<!-- E&#45;&gt;a -->
<g id="edge5" class="edge">
<title>E&#45;&gt;a</title>
<path fill="none" stroke="black" d="M21.9,-93.38C26.49,-93.38 32.35,-93.38 38.75,-93.38"/>
<polygon fill="black" stroke="black" points="38.39,-96.88 48.39,-93.38 38.39,-89.88 38.39,-96.88"/>
</g>
</g>
</svg>
