<?xml version="1.0" encoding="UTF-8" standalone="no"?>
<!DOCTYPE svg PUBLIC "-//W3C//DTD SVG 1.1//EN"
 "http://www.w3.org/Graphics/SVG/1.1/DTD/svg11.dtd">
<!-- Generated by graphviz version 14.1.1 (0)
 -->
<!-- Pages: 1 -->
<svg width="456pt" height="183pt"
 viewBox="0.00 0.00 456.00 183.00" xmlns="http://www.w3.org/2000/svg" xmlns:xlink="http://www.w3.org/1999/xlink">
<g id="graph0" class="graph" transform="scale(1 1) rotate(0) translate(4 178.56)">
<g id="clust1" class="cluster">
<title>cluster0</title>
<polygon fill="white" stroke="black" points="324.4,-68.56 324.4,-135.56 439.9,-135.56 439.9,-68.56 324.4,-68.56"/>
<text xml:space="preserve" text-anchor="middle" x="382.15" y="-118.26" font-family="Lato" font-size="14.00">Marco global</text>
</g>
<g id="clust2" class="cluster">
<title>cluster1</title>
<path fill="white" stroke="black" d="M61.9,-55.56C61.9,-55.56 220.4,-55.56 220.4,-55.56 226.4,-55.56 232.4,-61.56 232.4,-67.56 232.4,-67.56 232.4,-154.56 232.4,-154.56 232.4,-160.56 226.4,-166.56 220.4,-166.56 220.4,-166.56 61.9,-166.56 61.9,-166.56 55.9,-166.56 49.9,-160.56 49.9,-154.56 49.9,-154.56 49.9,-67.56 49.9,-67.56 49.9,-61.56 55.9,-55.56 61.9,-55.56"/>
<text xml:space="preserve" text-anchor="start" x="57.9" y="-150.26" font-family="Lato" font-size="14.00">Marco de la clase </text>
<text xml:space="preserve" text-anchor="start" x="166.65" y="-150.26" font-family="Lato" font-weight="bold" font-size="14.00">Deposito</text>
</g>
<!-- l1 -->
<g id="node1" class="node">
<title>l1</title>
<ellipse fill="white" stroke="black" cx="278.4" cy="-125.56" rx="18" ry="18"/>
<text xml:space="preserve" text-anchor="middle" x="278.4" y="-121.46" font-family="monospace" font-size="13.00">λ</text>
</g>
<!-- l2 -->
<g id="node2" class="node">
<title>l2</title>
<ellipse fill="white" stroke="black" cx="278.4" cy="-71.56" rx="18" ry="18"/>
<text xml:space="preserve" text-anchor="middle" x="278.4" y="-67.46" font-family="monospace" font-size="13.00">λ</text>
</g>
<!-- Deposito -->
<g id="node3" class="node">
<title>Deposito</title>
<polygon fill="white" stroke="black" points="332.4,-77.31 332.4,-101.81 431.9,-101.81 431.9,-77.31 332.4,-77.31"/>
<text xml:space="preserve" text-anchor="middle" x="370.4" y="-85.46" font-family="monospace" font-size="13.00">Deposito</text>
<polyline fill="none" stroke="black" points="408.4,-77.31 408.4,-101.81"/>
<text xml:space="preserve" text-anchor="middle" x="420.15" y="-83.96" font-family="monospace" font-size="13.00">⬤</text>
</g>
<!-- init -->
<g id="node4" class="node">
<title>init</title>
<polygon fill="white" stroke="black" points="90.9,-108.31 90.9,-132.81 190.4,-132.81 190.4,-108.31 90.9,-108.31"/>
<text xml:space="preserve" text-anchor="middle" x="128.9" y="-116.46" font-family="monospace" font-size="13.00">__init__</text>
<polyline fill="none" stroke="black" points="166.9,-108.31 166.9,-132.81"/>
<text xml:space="preserve" text-anchor="middle" x="178.65" y="-114.96" font-family="monospace" font-size="13.00">⬤</text>
</g>
<!-- Deposito&#45;&gt;init -->
<g id="edge1" class="edge">
<title>Deposito:f1&#45;&gt;init</title>
<path fill="none" stroke="black" d="M420.15,-102.81C420.15,-176.05 323.03,-168.98 243.49,-150.91"/>
<polygon fill="black" stroke="black" points="244.41,-147.53 233.87,-148.64 242.8,-154.34 244.41,-147.53"/>
</g>
<!-- init&#45;&gt;l1 -->
<g id="edge2" class="edge">
<title>init:f1&#45;&gt;l1</title>
<path fill="none" stroke="black" d="M191.4,-120.56C210.66,-120.56 232.3,-121.83 249.05,-123.08"/>
<polygon fill="black" stroke="black" points="248.53,-126.55 258.78,-123.86 249.09,-119.58 248.53,-126.55"/>
</g>
<!-- retirar -->
<g id="node5" class="node">
<title>retirar</title>
<polygon fill="white" stroke="black" points="94.65,-64.31 94.65,-88.81 186.65,-88.81 186.65,-64.31 94.65,-64.31"/>
<text xml:space="preserve" text-anchor="middle" x="128.9" y="-72.46" font-family="monospace" font-size="13.00">retirar</text>
<polyline fill="none" stroke="black" points="163.15,-64.31 163.15,-88.81"/>
<text xml:space="preserve" text-anchor="middle" x="174.9" y="-70.96" font-family="monospace" font-size="13.00">⬤</text>
</g>
<!-- retirar&#45;&gt;l2 -->
<g id="edge3" class="edge">
<title>retirar:f1&#45;&gt;l2</title>
<path fill="none" stroke="black" d="M187.65,-76.56C208.19,-76.56 231.34,-75.24 248.98,-73.96"/>
<polygon fill="black" stroke="black" points="249,-77.46 258.7,-73.21 248.46,-70.48 249,-77.46"/>
</g>
<!-- retirar&#45;&gt;Deposito -->
<g id="edge4" class="edge">
<title>retirar:s&#45;&gt;Deposito:s</title>
<path fill="none" stroke="black" d="M175.41,-55.56C186.22,24.46 365.22,14.43 381.03,-64.86"/>
<polygon fill="black" stroke="black" points="377.29,-57.16 381.1,-67.05 384.29,-56.95 377.29,-57.16"/>
</g>
<!-- E -->
<g id="node6" class="node">
<title>E</title>
<polygon fill="none" stroke="none" points="21.9,-138.56 0,-138.56 0,-102.56 21.9,-102.56 21.9,-138.56"/>
<text xml:space="preserve" text-anchor="middle" x="10.95" y="-116.46" font-family="monospace" font-size="13.00">E</text>
</g>
<!-- E&#45;&gt;init -->
<g id="edge5" class="edge">
<title>E&#45;&gt;init</title>
<path fill="none" stroke="black" d="M21.55,-120.56C26.08,-120.56 31.97,-120.56 38.7,-120.56"/>
<polygon fill="black" stroke="black" points="38.39,-124.06 48.39,-120.56 38.39,-117.06 38.39,-124.06"/>
</g>
</g>
</svg>
