<?xml version="1.0" encoding="UTF-8" standalone="no"?>
<!DOCTYPE svg PUBLIC "-//W3C//DTD SVG 1.1//EN"
 "http://www.w3.org/Graphics/SVG/1.1/DTD/svg11.dtd">
<!-- Generated by graphviz version 2.43.0 (0)
 -->
<!-- Title: %3 Pages: 1 -->
<svg width="689pt" height="187pt"
 viewBox="0.00 0.00 689.00 187.00" xmlns="http://www.w3.org/2000/svg" xmlns:xlink="http://www.w3.org/1999/xlink">
<g id="graph0" class="graph" transform="scale(1 1) rotate(0) translate(4 183)">
<title>%3</title>
<g id="clust1" class="cluster">
<title>cluster0</title>
<polygon fill="white" stroke="black" points="108,-44 108,-171 559.5,-171 559.5,-44 108,-44"/>
<text text-anchor="start" x="283.25" y="-156.8" font-family="Lato" font-size="14.00"> </text>
<text text-anchor="start" x="287.25" y="-156.8" font-family="Lato" font-weight="bold" font-size="14.00">Unidad central</text>
<text text-anchor="start" x="380.25" y="-156.8" font-family="Lato" font-size="14.00"> </text>
</g>
<g id="clust2" class="cluster">
<title>cluster1</title>
<polygon fill="white" stroke="black" points="116,-52 116,-140 450,-140 450,-52 116,-52"/>
<text text-anchor="start" x="196.5" y="-125.8" font-family="Lato" font-size="14.00"> </text>
<text text-anchor="start" x="200.5" y="-125.8" font-family="Lato" font-weight="bold" font-size="14.00">Unidad Central de Proceso</text>
<text text-anchor="start" x="262.5" y="-111.8" font-family="Lato" font-weight="bold" font-size="14.00">(CPU)</text>
<text text-anchor="start" x="299.5" y="-111.8" font-family="Lato" font-size="14.00"> </text>
</g>
<!-- ALU -->
<g id="node1" class="node">
<title>ALU</title>
<polygon fill="white" stroke="black" points="285,-96 124,-96 124,-60 285,-60 285,-96"/>
<text text-anchor="middle" x="204.5" y="-81.6" font-family="Lato" font-size="13.00">Unidad Aritmético&#45;Lógica</text>
<text text-anchor="middle" x="204.5" y="-67.6" font-family="Lato" font-size="13.00">(ALU)</text>
</g>
<!-- UC -->
<g id="node2" class="node">
<title>UC</title>
<polygon fill="white" stroke="black" points="442,-96 321,-96 321,-60 442,-60 442,-96"/>
<text text-anchor="middle" x="381.5" y="-81.6" font-family="Lato" font-size="13.00">Unidad de Control</text>
<text text-anchor="middle" x="381.5" y="-67.6" font-family="Lato" font-size="13.00">(UC)</text>
</g>
<!-- ALU&#45;&gt;UC -->
<g id="edge1" class="edge">
<title>ALU&#45;&gt;UC</title>
<path fill="none" stroke="black" d="M285.23,-72C285.23,-72 310.75,-72 310.75,-72"/>
<polygon fill="black" stroke="black" points="310.75,-75.5 320.75,-72 310.75,-68.5 310.75,-75.5"/>
</g>
<!-- UC&#45;&gt;ALU -->
<g id="edge2" class="edge">
<title>UC&#45;&gt;ALU</title>
<path fill="none" stroke="black" d="M320.59,-84C320.59,-84 295.22,-84 295.22,-84"/>
<polygon fill="black" stroke="black" points="295.22,-80.5 285.22,-84 295.22,-87.5 295.22,-80.5"/>
</g>
<!-- M -->
<g id="node3" class="node">
<title>M</title>
<polygon fill="white" stroke="black" points="551.5,-96 483.5,-96 483.5,-60 551.5,-60 551.5,-96"/>
<text text-anchor="middle" x="517.5" y="-81.6" font-family="Lato" font-size="13.00">Memoria</text>
<text text-anchor="middle" x="517.5" y="-67.6" font-family="Lato" font-size="13.00">principal</text>
</g>
<!-- UC&#45;&gt;M -->
<g id="edge4" class="edge">
<title>UC&#45;&gt;M</title>
<path fill="none" stroke="black" d="M450,-72C459.13,-72 473.17,-72 473.17,-72"/>
<polygon fill="black" stroke="black" points="473.17,-75.5 483.17,-72 473.17,-68.5 473.17,-75.5"/>
</g>
<!-- MS -->
<g id="node4" class="node">
<title>MS</title>
<polygon fill="white" stroke="black" points="557,-36 478,-36 478,0 557,0 557,-36"/>
<text text-anchor="middle" x="517.5" y="-21.6" font-family="Lato" font-size="13.00">Memoria</text>
<text text-anchor="middle" x="517.5" y="-7.6" font-family="Lato" font-size="13.00">secundaria</text>
</g>
<!-- UC&#45;&gt;MS -->
<g id="edge8" class="edge">
<title>UC&#45;&gt;MS</title>
<path fill="none" stroke="black" d="M362,-44C362,-27.84 362,-12 362,-12 362,-12 467.86,-12 467.86,-12"/>
<polygon fill="black" stroke="black" points="467.86,-15.5 477.86,-12 467.86,-8.5 467.86,-15.5"/>
</g>
<!-- M&#45;&gt;UC -->
<g id="edge3" class="edge">
<title>M&#45;&gt;UC</title>
<path fill="none" stroke="black" d="M483.18,-84C483.18,-84 452.01,-84 452.01,-84"/>
<polygon fill="black" stroke="black" points="460,-80.5 450,-84 460,-87.5 460,-80.5"/>
</g>
<!-- S -->
<g id="node6" class="node">
<title>S</title>
<polygon fill="white" stroke="black" points="681,-96 593,-96 593,-60 681,-60 681,-96"/>
<text text-anchor="middle" x="637" y="-81.6" font-family="Lato" font-size="13.00">Dispositivos</text>
<text text-anchor="middle" x="637" y="-67.6" font-family="Lato" font-size="13.00"> de salida</text>
</g>
<!-- M&#45;&gt;S -->
<g id="edge6" class="edge">
<title>M&#45;&gt;S</title>
<path fill="none" stroke="black" d="M559.5,-78C568.73,-78 582.93,-78 582.93,-78"/>
<polygon fill="black" stroke="black" points="582.93,-81.5 592.93,-78 582.93,-74.5 582.93,-81.5"/>
</g>
<!-- MS&#45;&gt;UC -->
<g id="edge7" class="edge">
<title>MS&#45;&gt;UC</title>
<path fill="none" stroke="black" d="M477.75,-24C444.34,-24 402,-24 402,-24 402,-24 402,-28.61 402,-33.93"/>
<polygon fill="black" stroke="black" points="398.5,-34 402,-44 405.5,-34 398.5,-34"/>
</g>
<!-- E -->
<g id="node5" class="node">
<title>E</title>
<polygon fill="white" stroke="black" points="88,-96 0,-96 0,-60 88,-60 88,-96"/>
<text text-anchor="middle" x="44" y="-81.6" font-family="Lato" font-size="13.00">Dispositivos</text>
<text text-anchor="middle" x="44" y="-67.6" font-family="Lato" font-size="13.00"> de entrada</text>
</g>
<!-- E&#45;&gt;ALU -->
<g id="edge5" class="edge">
<title>E&#45;&gt;ALU</title>
<path fill="none" stroke="black" d="M88.28,-78C88.28,-78 92.59,-78 97.66,-78"/>
<polygon fill="black" stroke="black" points="98,-81.5 108,-78 98,-74.5 98,-81.5"/>
</g>
</g>
</svg>
