<?xml version="1.0" encoding="UTF-8" standalone="no"?>
<!DOCTYPE svg PUBLIC "-//W3C//DTD SVG 1.1//EN"
 "http://www.w3.org/Graphics/SVG/1.1/DTD/svg11.dtd">
<!-- Generated by graphviz version 14.1.1 (0)
 -->
<!-- Pages: 1 -->
<svg width="686pt" height="215pt"
 viewBox="0.00 0.00 686.00 215.00" xmlns="http://www.w3.org/2000/svg" xmlns:xlink="http://www.w3.org/1999/xlink">
<g id="graph0" class="graph" transform="scale(1 1) rotate(0) translate(4 211.19)">
<g id="clust1" class="cluster">
<title>cluster0</title>
<polygon fill="white" stroke="black" points="107.25,-64.19 107.25,-199.19 556.88,-199.19 556.88,-64.19 107.25,-64.19"/>
<text xml:space="preserve" text-anchor="start" x="282.19" y="-182.89" font-family="Lato" font-size="14.00"> </text>
<text xml:space="preserve" text-anchor="start" x="285.94" y="-182.89" font-family="Lato" font-weight="bold" font-size="14.00">Unidad central</text>
<text xml:space="preserve" text-anchor="start" x="378.19" y="-182.89" font-family="Lato" font-size="14.00"> </text>
</g>
<g id="clust2" class="cluster">
<title>cluster1</title>
<polygon fill="white" stroke="black" points="115.25,-72.19 115.25,-166.19 448.25,-166.19 448.25,-72.19 115.25,-72.19"/>
<text xml:space="preserve" text-anchor="start" x="195.88" y="-149.89" font-family="Lato" font-size="14.00"> </text>
<text xml:space="preserve" text-anchor="start" x="199.62" y="-149.89" font-family="Lato" font-weight="bold" font-size="14.00">Unidad Central de Proceso</text>
<text xml:space="preserve" text-anchor="start" x="261.88" y="-135.89" font-family="Lato" font-weight="bold" font-size="14.00">(CPU)</text>
<text xml:space="preserve" text-anchor="start" x="297.88" y="-135.89" font-family="Lato" font-size="14.00"> </text>
</g>
<!-- ALU -->
<g id="node1" class="node">
<title>ALU</title>
<polygon fill="white" stroke="black" points="284,-121.69 123.25,-121.69 123.25,-80.69 284,-80.69 284,-121.69"/>
<text xml:space="preserve" text-anchor="middle" x="203.62" y="-105.34" font-family="Lato" font-size="13.00">Unidad Aritmético&#45;Lógica</text>
<text xml:space="preserve" text-anchor="middle" x="203.62" y="-88.84" font-family="Lato" font-size="13.00">(ALU)</text>
</g>
<!-- UC -->
<g id="node2" class="node">
<title>UC</title>
<polygon fill="white" stroke="black" points="440.25,-121.69 320,-121.69 320,-80.69 440.25,-80.69 440.25,-121.69"/>
<text xml:space="preserve" text-anchor="middle" x="380.12" y="-105.34" font-family="Lato" font-size="13.00">Unidad de Control</text>
<text xml:space="preserve" text-anchor="middle" x="380.12" y="-88.84" font-family="Lato" font-size="13.00">(UC)</text>
</g>
<!-- ALU&#45;&gt;UC -->
<g id="edge1" class="edge">
<title>ALU&#45;&gt;UC</title>
<path fill="none" stroke="black" d="M284.39,-94.35C284.39,-94.35 308.22,-94.35 308.22,-94.35"/>
<polygon fill="black" stroke="black" points="308.22,-97.85 318.22,-94.35 308.22,-90.85 308.22,-97.85"/>
</g>
<!-- UC&#45;&gt;ALU -->
<g id="edge2" class="edge">
<title>UC&#45;&gt;ALU</title>
<path fill="none" stroke="black" d="M319.88,-108.02C319.88,-108.02 295.72,-108.02 295.72,-108.02"/>
<polygon fill="black" stroke="black" points="295.72,-104.52 285.72,-108.02 295.72,-111.52 295.72,-104.52"/>
</g>
<!-- M -->
<g id="node3" class="node">
<title>M</title>
<polygon fill="white" stroke="black" points="548.88,-121.69 481.88,-121.69 481.88,-80.69 548.88,-80.69 548.88,-121.69"/>
<text xml:space="preserve" text-anchor="middle" x="515.38" y="-105.34" font-family="Lato" font-size="13.00">Memoria</text>
<text xml:space="preserve" text-anchor="middle" x="515.38" y="-88.84" font-family="Lato" font-size="13.00">principal</text>
</g>
<!-- UC&#45;&gt;M -->
<g id="edge4" class="edge">
<title>UC&#45;&gt;M</title>
<path fill="none" stroke="black" d="M448.25,-94.35C456.98,-94.35 470.09,-94.35 470.09,-94.35"/>
<polygon fill="black" stroke="black" points="470.09,-97.85 480.09,-94.35 470.09,-90.85 470.09,-97.85"/>
</g>
<!-- MS -->
<g id="node4" class="node">
<title>MS</title>
<path fill="white" stroke="black" d="M554.5,-51.25C554.5,-54.08 536.96,-56.38 515.38,-56.38 493.79,-56.38 476.25,-54.08 476.25,-51.25 476.25,-51.25 476.25,-5.12 476.25,-5.12 476.25,-2.3 493.79,0 515.38,0 536.96,0 554.5,-2.3 554.5,-5.12 554.5,-5.12 554.5,-51.25 554.5,-51.25"/>
<path fill="none" stroke="black" d="M554.5,-51.25C554.5,-48.42 536.96,-46.12 515.38,-46.12 493.79,-46.12 476.25,-48.42 476.25,-51.25"/>
<text xml:space="preserve" text-anchor="middle" x="515.38" y="-32.34" font-family="Lato" font-size="13.00">Memoria</text>
<text xml:space="preserve" text-anchor="middle" x="515.38" y="-15.84" font-family="Lato" font-size="13.00">secundaria</text>
</g>
<!-- UC&#45;&gt;MS -->
<g id="edge8" class="edge">
<title>UC&#45;&gt;MS</title>
<path fill="none" stroke="black" d="M359.75,-64.19C359.75,-42.29 359.75,-18.79 359.75,-18.79 359.75,-18.79 464.59,-18.79 464.59,-18.79"/>
<polygon fill="black" stroke="black" points="464.59,-22.29 474.59,-18.79 464.59,-15.29 464.59,-22.29"/>
</g>
<!-- M&#45;&gt;UC -->
<g id="edge3" class="edge">
<title>M&#45;&gt;UC</title>
<path fill="none" stroke="black" d="M481.59,-108.02C481.59,-108.02 452.09,-108.02 452.09,-108.02"/>
<polygon fill="black" stroke="black" points="459.76,-104.52 449.76,-108.02 459.76,-111.52 459.76,-104.52"/>
</g>
<!-- S -->
<g id="node6" class="node">
<title>S</title>
<polygon fill="white" stroke="black" points="677.75,-121.69 590.5,-121.69 590.5,-80.69 677.75,-80.69 677.75,-121.69"/>
<text xml:space="preserve" text-anchor="middle" x="634.12" y="-105.34" font-family="Lato" font-size="13.00">Dispositivos</text>
<text xml:space="preserve" text-anchor="middle" x="634.12" y="-88.84" font-family="Lato" font-size="13.00"> de salida</text>
</g>
<!-- M&#45;&gt;S -->
<g id="edge6" class="edge">
<title>M&#45;&gt;S</title>
<path fill="none" stroke="black" d="M556.87,-101.19C565.62,-101.19 578.6,-101.19 578.6,-101.19"/>
<polygon fill="black" stroke="black" points="578.6,-104.69 588.6,-101.19 578.6,-97.69 578.6,-104.69"/>
</g>
<!-- MS&#45;&gt;UC -->
<g id="edge7" class="edge">
<title>MS&#45;&gt;UC</title>
<path fill="none" stroke="black" d="M475.91,-37.58C442.41,-37.58 399.75,-37.58 399.75,-37.58 399.75,-37.58 399.75,-45.11 399.75,-52.77"/>
<polygon fill="black" stroke="black" points="396.25,-52.68 399.75,-62.68 403.25,-52.68 396.25,-52.68"/>
</g>
<!-- E -->
<g id="node5" class="node">
<title>E</title>
<polygon fill="white" stroke="black" points="87.25,-121.69 0,-121.69 0,-80.69 87.25,-80.69 87.25,-121.69"/>
<text xml:space="preserve" text-anchor="middle" x="43.62" y="-105.34" font-family="Lato" font-size="13.00">Dispositivos</text>
<text xml:space="preserve" text-anchor="middle" x="43.62" y="-88.84" font-family="Lato" font-size="13.00"> de entrada</text>
</g>
<!-- E&#45;&gt;ALU -->
<g id="edge5" class="edge">
<title>E&#45;&gt;ALU</title>
<path fill="none" stroke="black" d="M87.35,-101.19C87.35,-101.19 91.22,-101.19 95.87,-101.19"/>
<polygon fill="black" stroke="black" points="95.74,-104.69 105.74,-101.19 95.74,-97.69 95.74,-104.69"/>
</g>
</g>
</svg>
