<?xml version="1.0" encoding="UTF-8" standalone="no"?>
<!DOCTYPE svg PUBLIC "-//W3C//DTD SVG 1.1//EN"
 "http://www.w3.org/Graphics/SVG/1.1/DTD/svg11.dtd">
<!-- Generated by graphviz version 2.40.1 (20161225.0304)
 -->
<!-- Title: %3 Pages: 1 -->
<svg width="576pt" height="160pt"
 viewBox="0.00 0.00 576.00 159.81" xmlns="http://www.w3.org/2000/svg" xmlns:xlink="http://www.w3.org/1999/xlink">
<g id="graph0" class="graph" transform="scale(.8546 .8546) rotate(0) translate(4 183)">
<title>%3</title>
<g id="clust1" class="cluster">
<title>cluster0</title>
<polygon fill="#ffffff" stroke="#000000" points="105,-44 105,-171 549,-171 549,-44 105,-44"/>
<text text-anchor="start" x="275.5" y="-156.8" font-family="Lato" font-size="14.00" fill="#000000"> </text>
<text text-anchor="start" x="279.5" y="-156.8" font-family="Lato" font-weight="bold" font-size="14.00" fill="#000000">Unidad central</text>
<text text-anchor="start" x="374.5" y="-156.8" font-family="Lato" font-size="14.00" fill="#000000"> </text>
</g>
<g id="clust2" class="cluster">
<title>cluster1</title>
<polygon fill="#ffffff" stroke="#000000" points="113,-52 113,-140 442,-140 442,-52 113,-52"/>
<text text-anchor="start" x="189.5" y="-125.8" font-family="Lato" font-size="14.00" fill="#000000"> </text>
<text text-anchor="start" x="193.5" y="-125.8" font-family="Lato" font-weight="bold" font-size="14.00" fill="#000000">Unidad Central de Proceso</text>
<text text-anchor="start" x="257" y="-111.8" font-family="Lato" font-weight="bold" font-size="14.00" fill="#000000">(CPU)</text>
<text text-anchor="start" x="294" y="-111.8" font-family="Lato" font-size="14.00" fill="#000000"> </text>
</g>
<!-- ALU -->
<g id="node1" class="node">
<title>ALU</title>
<polygon fill="#ffffff" stroke="#000000" points="279,-96 121,-96 121,-60 279,-60 279,-96"/>
<text text-anchor="middle" x="200" y="-81.6" font-family="Lato" font-size="13.00" fill="#000000">Unidad Aritmético&#45;Lógica</text>
<text text-anchor="middle" x="200" y="-67.6" font-family="Lato" font-size="13.00" fill="#000000">(ALU)</text>
</g>
<!-- UC -->
<g id="node2" class="node">
<title>UC</title>
<polygon fill="#ffffff" stroke="#000000" points="434,-96 315,-96 315,-60 434,-60 434,-96"/>
<text text-anchor="middle" x="374.5" y="-81.6" font-family="Lato" font-size="13.00" fill="#000000">Unidad de Control</text>
<text text-anchor="middle" x="374.5" y="-67.6" font-family="Lato" font-size="13.00" fill="#000000">(UC)</text>
</g>
<!-- ALU&#45;&gt;UC -->
<g id="edge1" class="edge">
<title>ALU&#45;&gt;UC</title>
<path fill="none" stroke="#000000" d="M279.081,-72C279.081,-72 304.7674,-72 304.7674,-72"/>
<polygon fill="#000000" stroke="#000000" points="304.7674,-75.5001 314.7674,-72 304.7673,-68.5001 304.7674,-75.5001"/>
</g>
<!-- UC&#45;&gt;ALU -->
<g id="edge2" class="edge">
<title>UC&#45;&gt;ALU</title>
<path fill="none" stroke="#000000" d="M314.9351,-84C314.9351,-84 289.0462,-84 289.0462,-84"/>
<polygon fill="#000000" stroke="#000000" points="289.0462,-80.5001 279.0462,-84 289.0461,-87.5001 289.0462,-80.5001"/>
</g>
<!-- M -->
<g id="node3" class="node">
<title>M</title>
<polygon fill="#ffffff" stroke="#000000" points="541,-96 474,-96 474,-60 541,-60 541,-96"/>
<text text-anchor="middle" x="507.5" y="-81.6" font-family="Lato" font-size="13.00" fill="#000000">Memoria</text>
<text text-anchor="middle" x="507.5" y="-67.6" font-family="Lato" font-size="13.00" fill="#000000">principal</text>
</g>
<!-- UC&#45;&gt;M -->
<g id="edge4" class="edge">
<title>UC&#45;&gt;M</title>
<path fill="none" stroke="#000000" d="M441.9957,-72C450.7019,-72 463.7692,-72 463.7692,-72"/>
<polygon fill="#000000" stroke="#000000" points="463.7693,-75.5001 473.7692,-72 463.7692,-68.5001 463.7693,-75.5001"/>
</g>
<!-- MS -->
<g id="node4" class="node">
<title>MS</title>
<polygon fill="#ffffff" stroke="#000000" points="545,-36 470,-36 470,0 545,0 545,-36"/>
<text text-anchor="middle" x="507.5" y="-21.6" font-family="Lato" font-size="13.00" fill="#000000">Memoria</text>
<text text-anchor="middle" x="507.5" y="-7.6" font-family="Lato" font-size="13.00" fill="#000000">secundaria</text>
</g>
<!-- UC&#45;&gt;MS -->
<g id="edge8" class="edge">
<title>UC&#45;&gt;MS</title>
<path fill="none" stroke="#000000" d="M355,-44.0046C355,-27.843 355,-12 355,-12 355,-12 459.8034,-12 459.8034,-12"/>
<polygon fill="#000000" stroke="#000000" points="459.8034,-15.5001 469.8034,-12 459.8033,-8.5001 459.8034,-15.5001"/>
</g>
<!-- M&#45;&gt;UC -->
<g id="edge3" class="edge">
<title>M&#45;&gt;UC</title>
<path fill="none" stroke="#000000" d="M473.9385,-84C473.9385,-84 444.1978,-84 444.1978,-84"/>
<polygon fill="#000000" stroke="#000000" points="452.0002,-80.5005 442,-84 451.9998,-87.5005 452.0002,-80.5005"/>
</g>
<!-- S -->
<g id="node6" class="node">
<title>S</title>
<polygon fill="#ffffff" stroke="#000000" points="666,-96 581,-96 581,-60 666,-60 666,-96"/>
<text text-anchor="middle" x="623.5" y="-81.6" font-family="Lato" font-size="13.00" fill="#000000">Dispositivos</text>
<text text-anchor="middle" x="623.5" y="-67.6" font-family="Lato" font-size="13.00" fill="#000000"> de salida</text>
</g>
<!-- M&#45;&gt;S -->
<g id="edge6" class="edge">
<title>M&#45;&gt;S</title>
<path fill="none" stroke="#000000" d="M548.9988,-78C557.8489,-78 570.926,-78 570.926,-78"/>
<polygon fill="#000000" stroke="#000000" points="570.9261,-81.5001 580.926,-78 570.926,-74.5001 570.9261,-81.5001"/>
</g>
<!-- MS&#45;&gt;UC -->
<g id="edge7" class="edge">
<title>MS&#45;&gt;UC</title>
<path fill="none" stroke="#000000" d="M469.7262,-24C437.0437,-24 395,-24 395,-24 395,-24 395,-28.6138 395,-33.9331"/>
<polygon fill="#000000" stroke="#000000" points="391.5001,-34.0024 395,-44.0024 398.5001,-34.0024 391.5001,-34.0024"/>
</g>
<!-- E -->
<g id="node5" class="node">
<title>E</title>
<polygon fill="#ffffff" stroke="#000000" points="85,-96 0,-96 0,-60 85,-60 85,-96"/>
<text text-anchor="middle" x="42.5" y="-81.6" font-family="Lato" font-size="13.00" fill="#000000">Dispositivos</text>
<text text-anchor="middle" x="42.5" y="-67.6" font-family="Lato" font-size="13.00" fill="#000000"> de entrada</text>
</g>
<!-- E&#45;&gt;ALU -->
<g id="edge5" class="edge">
<title>E&#45;&gt;ALU</title>
<path fill="none" stroke="#000000" d="M85.1218,-78C85.1218,-78 89.6752,-78 94.9566,-78"/>
<polygon fill="#000000" stroke="#000000" points="95.003,-81.5001 105.003,-78 95.003,-74.5001 95.003,-81.5001"/>
</g>
</g>
</svg>
