<?xml version="1.0" encoding="UTF-8" standalone="no"?>
<!DOCTYPE svg PUBLIC "-//W3C//DTD SVG 1.1//EN"
 "http://www.w3.org/Graphics/SVG/1.1/DTD/svg11.dtd">
<!-- Generated by graphviz version 2.42.4 (0)
 -->
<!-- Pages: 1 -->
<svg width="689pt" height="201pt"
 viewBox="0.00 0.00 689.00 200.75" xmlns="http://www.w3.org/2000/svg" xmlns:xlink="http://www.w3.org/1999/xlink">
<g id="graph0" class="graph" transform="scale(1 1) rotate(0) translate(4 196.75)">
<g id="clust1" class="cluster">
<title>cluster0</title>
<polygon fill="white" stroke="black" points="108,-57.75 108,-184.75 559.5,-184.75 559.5,-57.75 108,-57.75"/>
<text text-anchor="start" x="283.25" y="-170.55" font-family="Lato" font-size="14.00"> </text>
<text text-anchor="start" x="287.25" y="-170.55" font-family="Lato" font-weight="bold" font-size="14.00">Unidad central</text>
<text text-anchor="start" x="380.25" y="-170.55" font-family="Lato" font-size="14.00"> </text>
</g>
<g id="clust2" class="cluster">
<title>cluster1</title>
<polygon fill="white" stroke="black" points="116,-65.75 116,-153.75 450,-153.75 450,-65.75 116,-65.75"/>
<text text-anchor="start" x="196.5" y="-139.55" font-family="Lato" font-size="14.00"> </text>
<text text-anchor="start" x="200.5" y="-139.55" font-family="Lato" font-weight="bold" font-size="14.00">Unidad Central de Proceso</text>
<text text-anchor="start" x="262.5" y="-125.55" font-family="Lato" font-weight="bold" font-size="14.00">(CPU)</text>
<text text-anchor="start" x="299.5" y="-125.55" font-family="Lato" font-size="14.00"> </text>
</g>
<!-- ALU -->
<g id="node1" class="node">
<title>ALU</title>
<polygon fill="white" stroke="black" points="285,-109.75 124,-109.75 124,-73.75 285,-73.75 285,-109.75"/>
<text text-anchor="middle" x="204.5" y="-95.35" font-family="Lato" font-size="13.00">Unidad Aritmético&#45;Lógica</text>
<text text-anchor="middle" x="204.5" y="-81.35" font-family="Lato" font-size="13.00">(ALU)</text>
</g>
<!-- UC -->
<g id="node2" class="node">
<title>UC</title>
<polygon fill="white" stroke="black" points="442,-109.75 321,-109.75 321,-73.75 442,-73.75 442,-109.75"/>
<text text-anchor="middle" x="381.5" y="-95.35" font-family="Lato" font-size="13.00">Unidad de Control</text>
<text text-anchor="middle" x="381.5" y="-81.35" font-family="Lato" font-size="13.00">(UC)</text>
</g>
<!-- ALU&#45;&gt;UC -->
<g id="edge1" class="edge">
<title>ALU&#45;&gt;UC</title>
<path fill="none" stroke="black" d="M285.23,-85.75C285.23,-85.75 310.75,-85.75 310.75,-85.75"/>
<polygon fill="black" stroke="black" points="310.75,-89.25 320.75,-85.75 310.75,-82.25 310.75,-89.25"/>
</g>
<!-- UC&#45;&gt;ALU -->
<g id="edge2" class="edge">
<title>UC&#45;&gt;ALU</title>
<path fill="none" stroke="black" d="M320.59,-97.75C320.59,-97.75 295.22,-97.75 295.22,-97.75"/>
<polygon fill="black" stroke="black" points="295.22,-94.25 285.22,-97.75 295.22,-101.25 295.22,-94.25"/>
</g>
<!-- M -->
<g id="node3" class="node">
<title>M</title>
<polygon fill="white" stroke="black" points="551.5,-109.75 483.5,-109.75 483.5,-73.75 551.5,-73.75 551.5,-109.75"/>
<text text-anchor="middle" x="517.5" y="-95.35" font-family="Lato" font-size="13.00">Memoria</text>
<text text-anchor="middle" x="517.5" y="-81.35" font-family="Lato" font-size="13.00">principal</text>
</g>
<!-- UC&#45;&gt;M -->
<g id="edge4" class="edge">
<title>UC&#45;&gt;M</title>
<path fill="none" stroke="black" d="M450,-85.75C459.13,-85.75 473.17,-85.75 473.17,-85.75"/>
<polygon fill="black" stroke="black" points="473.17,-89.25 483.17,-85.75 473.17,-82.25 473.17,-89.25"/>
</g>
<!-- MS -->
<g id="node4" class="node">
<title>MS</title>
<path fill="white" stroke="black" d="M557,-44.8C557,-47.26 539.3,-49.25 517.5,-49.25 495.7,-49.25 478,-47.26 478,-44.8 478,-44.8 478,-4.7 478,-4.7 478,-2.24 495.7,-0.25 517.5,-0.25 539.3,-0.25 557,-2.24 557,-4.7 557,-4.7 557,-44.8 557,-44.8"/>
<path fill="none" stroke="black" d="M557,-44.8C557,-42.34 539.3,-40.34 517.5,-40.34 495.7,-40.34 478,-42.34 478,-44.8"/>
<text text-anchor="middle" x="517.5" y="-28.35" font-family="Lato" font-size="13.00">Memoria</text>
<text text-anchor="middle" x="517.5" y="-14.35" font-family="Lato" font-size="13.00">secundaria</text>
</g>
<!-- UC&#45;&gt;MS -->
<g id="edge8" class="edge">
<title>UC&#45;&gt;MS</title>
<path fill="none" stroke="black" d="M362,-57.75C362,-37.81 362,-16.5 362,-16.5 362,-16.5 467.86,-16.5 467.86,-16.5"/>
<polygon fill="black" stroke="black" points="467.86,-20 477.86,-16.5 467.86,-13 467.86,-20"/>
</g>
<!-- M&#45;&gt;UC -->
<g id="edge3" class="edge">
<title>M&#45;&gt;UC</title>
<path fill="none" stroke="black" d="M483.18,-97.75C483.18,-97.75 452.01,-97.75 452.01,-97.75"/>
<polygon fill="black" stroke="black" points="460,-94.25 450,-97.75 460,-101.25 460,-94.25"/>
</g>
<!-- S -->
<g id="node6" class="node">
<title>S</title>
<polygon fill="white" stroke="black" points="681,-109.75 593,-109.75 593,-73.75 681,-73.75 681,-109.75"/>
<text text-anchor="middle" x="637" y="-95.35" font-family="Lato" font-size="13.00">Dispositivos</text>
<text text-anchor="middle" x="637" y="-81.35" font-family="Lato" font-size="13.00"> de salida</text>
</g>
<!-- M&#45;&gt;S -->
<g id="edge6" class="edge">
<title>M&#45;&gt;S</title>
<path fill="none" stroke="black" d="M559.5,-91.75C568.73,-91.75 582.93,-91.75 582.93,-91.75"/>
<polygon fill="black" stroke="black" points="582.93,-95.25 592.93,-91.75 582.93,-88.25 582.93,-95.25"/>
</g>
<!-- MS&#45;&gt;UC -->
<g id="edge7" class="edge">
<title>MS&#45;&gt;UC</title>
<path fill="none" stroke="black" d="M477.75,-33C444.34,-33 402,-33 402,-33 402,-33 402,-40.19 402,-47.58"/>
<polygon fill="black" stroke="black" points="398.5,-47.75 402,-57.75 405.5,-47.75 398.5,-47.75"/>
</g>
<!-- E -->
<g id="node5" class="node">
<title>E</title>
<polygon fill="white" stroke="black" points="88,-109.75 0,-109.75 0,-73.75 88,-73.75 88,-109.75"/>
<text text-anchor="middle" x="44" y="-95.35" font-family="Lato" font-size="13.00">Dispositivos</text>
<text text-anchor="middle" x="44" y="-81.35" font-family="Lato" font-size="13.00"> de entrada</text>
</g>
<!-- E&#45;&gt;ALU -->
<g id="edge5" class="edge">
<title>E&#45;&gt;ALU</title>
<path fill="none" stroke="black" d="M88.28,-91.75C88.28,-91.75 92.59,-91.75 97.66,-91.75"/>
<polygon fill="black" stroke="black" points="98,-95.25 108,-91.75 98,-88.25 98,-95.25"/>
</g>
</g>
</svg>
