<?xml version="1.0" encoding="UTF-8" standalone="no"?>
<!DOCTYPE svg PUBLIC "-//W3C//DTD SVG 1.1//EN"
 "http://www.w3.org/Graphics/SVG/1.1/DTD/svg11.dtd">
<!-- Generated by graphviz version 2.40.1 (20161225.0304)
 -->
<!-- Title: %3 Pages: 1 -->
<svg width="576pt" height="131pt"
 viewBox="0.00 0.00 576.00 130.59" xmlns="http://www.w3.org/2000/svg" xmlns:xlink="http://www.w3.org/1999/xlink">
<g id="graph0" class="graph" transform="scale(.8649 .8649) rotate(0) translate(4 147)">
<title>%3</title>
<g id="clust1" class="cluster">
<title>cluster0</title>
<polygon fill="#ffffff" stroke="#000000" points="105,-8 105,-135 545,-135 545,-8 105,-8"/>
<text text-anchor="start" x="273.5" y="-120.8" font-family="Lato" font-size="14.00" fill="#000000"> </text>
<text text-anchor="start" x="277.5" y="-120.8" font-family="Lato" font-weight="bold" font-size="14.00" fill="#000000">Unidad central</text>
<text text-anchor="start" x="372.5" y="-120.8" font-family="Lato" font-size="14.00" fill="#000000"> </text>
</g>
<g id="clust2" class="cluster">
<title>cluster1</title>
<polygon fill="#ffffff" stroke="#000000" points="113,-16 113,-104 442,-104 442,-16 113,-16"/>
<text text-anchor="start" x="189.5" y="-89.8" font-family="Lato" font-size="14.00" fill="#000000"> </text>
<text text-anchor="start" x="193.5" y="-89.8" font-family="Lato" font-weight="bold" font-size="14.00" fill="#000000">Unidad Central de Proceso</text>
<text text-anchor="start" x="257" y="-75.8" font-family="Lato" font-weight="bold" font-size="14.00" fill="#000000">(CPU)</text>
<text text-anchor="start" x="294" y="-75.8" font-family="Lato" font-size="14.00" fill="#000000"> </text>
</g>
<!-- ALU -->
<g id="node1" class="node">
<title>ALU</title>
<polygon fill="#ffffff" stroke="#000000" points="279,-60 121,-60 121,-24 279,-24 279,-60"/>
<text text-anchor="middle" x="200" y="-45.6" font-family="Lato" font-size="13.00" fill="#000000">Unidad Aritmético&#45;Lógica</text>
<text text-anchor="middle" x="200" y="-31.6" font-family="Lato" font-size="13.00" fill="#000000">(ALU)</text>
</g>
<!-- UC -->
<g id="node2" class="node">
<title>UC</title>
<polygon fill="#ffffff" stroke="#000000" points="434,-60 315,-60 315,-24 434,-24 434,-60"/>
<text text-anchor="middle" x="374.5" y="-45.6" font-family="Lato" font-size="13.00" fill="#000000">Unidad de Control</text>
<text text-anchor="middle" x="374.5" y="-31.6" font-family="Lato" font-size="13.00" fill="#000000">(UC)</text>
</g>
<!-- ALU&#45;&gt;UC -->
<g id="edge1" class="edge">
<title>ALU&#45;&gt;UC</title>
<path fill="none" stroke="#000000" d="M279.081,-36C279.081,-36 304.7674,-36 304.7674,-36"/>
<polygon fill="#000000" stroke="#000000" points="304.7674,-39.5001 314.7674,-36 304.7673,-32.5001 304.7674,-39.5001"/>
</g>
<!-- UC&#45;&gt;ALU -->
<g id="edge2" class="edge">
<title>UC&#45;&gt;ALU</title>
<path fill="none" stroke="#000000" d="M314.9351,-48C314.9351,-48 289.0462,-48 289.0462,-48"/>
<polygon fill="#000000" stroke="#000000" points="289.0462,-44.5001 279.0462,-48 289.0461,-51.5001 289.0462,-44.5001"/>
</g>
<!-- M -->
<g id="node3" class="node">
<title>M</title>
<polygon fill="#ffffff" stroke="#000000" points="537,-60 470,-60 470,-24 537,-24 537,-60"/>
<text text-anchor="middle" x="503.5" y="-45.6" font-family="Lato" font-size="13.00" fill="#000000">Memoria</text>
<text text-anchor="middle" x="503.5" y="-31.6" font-family="Lato" font-size="13.00" fill="#000000">principal</text>
</g>
<!-- UC&#45;&gt;M -->
<g id="edge4" class="edge">
<title>UC&#45;&gt;M</title>
<path fill="none" stroke="#000000" d="M441.9992,-36C449.5707,-36 459.8502,-36 459.8502,-36"/>
<polygon fill="#000000" stroke="#000000" points="459.8503,-39.5001 469.8502,-36 459.8502,-32.5001 459.8503,-39.5001"/>
</g>
<!-- M&#45;&gt;UC -->
<g id="edge3" class="edge">
<title>M&#45;&gt;UC</title>
<path fill="none" stroke="#000000" d="M469.9435,-48C469.9435,-48 444.1272,-48 444.1272,-48"/>
<polygon fill="#000000" stroke="#000000" points="452.0002,-44.5005 442,-48 451.9998,-51.5005 452.0002,-44.5005"/>
</g>
<!-- S -->
<g id="node5" class="node">
<title>S</title>
<polygon fill="#ffffff" stroke="#000000" points="658,-60 573,-60 573,-24 658,-24 658,-60"/>
<text text-anchor="middle" x="615.5" y="-45.6" font-family="Lato" font-size="13.00" fill="#000000">Dispositivos</text>
<text text-anchor="middle" x="615.5" y="-31.6" font-family="Lato" font-size="13.00" fill="#000000"> de salida</text>
</g>
<!-- M&#45;&gt;S -->
<g id="edge6" class="edge">
<title>M&#45;&gt;S</title>
<path fill="none" stroke="#000000" d="M544.9966,-42C552.5398,-42 562.7707,-42 562.7707,-42"/>
<polygon fill="#000000" stroke="#000000" points="562.7707,-45.5001 572.7707,-42 562.7706,-38.5001 562.7707,-45.5001"/>
</g>
<!-- E -->
<g id="node4" class="node">
<title>E</title>
<polygon fill="#ffffff" stroke="#000000" points="85,-60 0,-60 0,-24 85,-24 85,-60"/>
<text text-anchor="middle" x="42.5" y="-45.6" font-family="Lato" font-size="13.00" fill="#000000">Dispositivos</text>
<text text-anchor="middle" x="42.5" y="-31.6" font-family="Lato" font-size="13.00" fill="#000000"> de entrada</text>
</g>
<!-- E&#45;&gt;ALU -->
<g id="edge5" class="edge">
<title>E&#45;&gt;ALU</title>
<path fill="none" stroke="#000000" d="M85.1218,-42C85.1218,-42 89.6752,-42 94.9566,-42"/>
<polygon fill="#000000" stroke="#000000" points="95.003,-45.5001 105.003,-42 95.003,-38.5001 95.003,-45.5001"/>
</g>
</g>
</svg>
