<?xml version="1.0" encoding="UTF-8" standalone="no"?>
<!DOCTYPE svg PUBLIC "-//W3C//DTD SVG 1.1//EN"
 "http://www.w3.org/Graphics/SVG/1.1/DTD/svg11.dtd">
<!-- Generated by graphviz version 2.42.4 (0)
 -->
<!-- Pages: 1 -->
<svg width="436pt" height="108pt"
 viewBox="0.00 0.00 436.00 108.00" xmlns="http://www.w3.org/2000/svg" xmlns:xlink="http://www.w3.org/1999/xlink">
<g id="graph0" class="graph" transform="scale(1 1) rotate(0) translate(4 104)">
<g id="clust1" class="cluster">
<title>cluster0</title>
<polygon fill="transparent" stroke="black" points="64,-8 64,-92 366,-92 366,-8 64,-8"/>
</g>
<g id="clust2" class="cluster">
<title>cluster1</title>
<polygon fill="transparent" stroke="black" points="208,-16 208,-84 358,-84 358,-16 208,-16"/>
</g>
<g id="clust3" class="cluster">
<title>cluster2</title>
<polygon fill="transparent" stroke="black" points="280,-24 280,-76 350,-76 350,-24 280,-24"/>
</g>
<!-- A -->
<g id="node1" class="node">
<title>A</title>
<polygon fill="transparent" stroke="black" points="54,-68 0,-68 0,-32 54,-32 54,-68"/>
<text text-anchor="middle" x="27" y="-46.6" font-family="Lato" font-size="13.00">A</text>
</g>
<!-- C -->
<g id="node2" class="node">
<title>C</title>
<polygon fill="transparent" stroke="black" points="198,-68 144,-68 144,-32 198,-32 198,-68"/>
<text text-anchor="middle" x="171" y="-46.6" font-family="Lato" font-size="13.00">C</text>
</g>
<!-- B -->
<g id="node3" class="node">
<title>B</title>
<polygon fill="transparent" stroke="black" points="126,-68 72,-68 72,-32 126,-32 126,-68"/>
<text text-anchor="middle" x="99" y="-46.6" font-family="Lato" font-size="13.00">B</text>
</g>
<!-- D -->
<g id="node4" class="node">
<title>D</title>
<polygon fill="transparent" stroke="black" points="270,-68 216,-68 216,-32 270,-32 270,-68"/>
<text text-anchor="middle" x="243" y="-46.6" font-family="Lato" font-size="13.00">D</text>
</g>
<!-- E -->
<g id="node5" class="node">
<title>E</title>
<polygon fill="transparent" stroke="black" points="342,-68 288,-68 288,-32 342,-32 342,-68"/>
<text text-anchor="middle" x="315" y="-46.6" font-family="Lato" font-size="13.00">E</text>
</g>
<!-- F -->
<g id="node6" class="node">
<title>F</title>
<polygon fill="transparent" stroke="black" points="428,-68 374,-68 374,-32 428,-32 428,-68"/>
<text text-anchor="middle" x="401" y="-46.6" font-family="Lato" font-size="13.00">F</text>
</g>
</g>
</svg>
