<?xml version="1.0" encoding="UTF-8" standalone="no"?><svg xmlns="http://www.w3.org/2000/svg" xmlns:xlink="http://www.w3.org/1999/xlink" contentScriptType="application/ecmascript" contentStyleType="text/css" height="484px" preserveAspectRatio="none" style="width:416px;height:484px;" version="1.1" viewBox="0 0 416 484" width="416px" zoomAndPan="magnify"><defs><filter height="300%" id="fq1he78xq4owd" width="300%" x="-1" y="-1"><feGaussianBlur result="blurOut" stdDeviation="4.0"/><feColorMatrix in="blurOut" result="blurOut2" type="matrix" values="0 0 0 0 0 0 0 0 0 0 0 0 0 0 0 0 0 0 .4 0"/><feOffset dx="8.0" dy="8.0" in="blurOut2" result="blurOut3"/><feBlend in="SourceGraphic" in2="blurOut3" mode="normal"/></filter></defs><g><rect fill="#FEFECE" filter="url(#fq1he78xq4owd)" height="68.8002" rx="25" ry="25" style="stroke: #A80036; stroke-width: 3.0;" width="142" x="135" y="20"/><text fill="#000000" font-family="Lato" font-size="24" lengthAdjust="spacingAndGlyphs" textLength="102" x="155" y="63.6882">expresión</text><rect fill="#FEFECE" filter="url(#fq1he78xq4owd)" height="68.8002" rx="25" ry="25" style="stroke: #A80036; stroke-width: 3.0;" width="268" x="72" y="241.5145"/><text fill="#000000" font-family="Lato" font-size="24" lengthAdjust="spacingAndGlyphs" textLength="228" x="92" y="285.2027">aplicar una reducción</text><polygon fill="#FEFECE" filter="url(#fq1he78xq4owd)" points="110,128.8002,302,128.8002,326,152.8002,302,176.8002,110,176.8002,86,152.8002,110,128.8002" style="stroke: #A80036; stroke-width: 3.0;"/><text fill="#000000" font-family="Lato" font-size="22" lengthAdjust="spacingAndGlyphs" textLength="16" x="214" y="198.5145">sí</text><text fill="#000000" font-family="Lato" font-size="22" lengthAdjust="spacingAndGlyphs" textLength="192" x="110" y="161.3143">¿es posible reducir?</text><text fill="#000000" font-family="Lato" font-size="22" lengthAdjust="spacingAndGlyphs" textLength="24" x="62" y="148.1141">no</text><rect fill="#FEFECE" filter="url(#fq1he78xq4owd)" height="68.8002" rx="25" ry="25" style="stroke: #A80036; stroke-width: 3.0;" width="182" x="115" y="394.3147"/><text fill="#000000" font-family="Lato" font-size="24" lengthAdjust="spacingAndGlyphs" textLength="142" x="135" y="438.0029">forma normal</text><line style="stroke: #A80036; stroke-width: 3.0;" x1="206" x2="206" y1="176.8002" y2="241.5145"/><polygon fill="#A80036" points="198,221.5145,206,241.5145,214,221.5145,206,229.5145" style="stroke: #A80036; stroke-width: 2.0;"/><line style="stroke: #A80036; stroke-width: 3.0;" x1="206" x2="206" y1="310.3147" y2="330.3147"/><line style="stroke: #A80036; stroke-width: 3.0;" x1="206" x2="364" y1="330.3147" y2="330.3147"/><polygon fill="#A80036" points="356,258.7144,364,238.7144,372,258.7144,364,250.7144" style="stroke: #A80036; stroke-width: 3.0;"/><line style="stroke: #A80036; stroke-width: 3.0;" x1="364" x2="364" y1="152.8002" y2="330.3147"/><line style="stroke: #A80036; stroke-width: 3.0;" x1="364" x2="326" y1="152.8002" y2="152.8002"/><polygon fill="#A80036" points="346,144.8002,326,152.8002,346,160.8002,338,152.8002" style="stroke: #A80036; stroke-width: 2.0;"/><line style="stroke: #A80036; stroke-width: 3.0;" x1="86" x2="48" y1="152.8002" y2="152.8002"/><polygon fill="#A80036" points="40,230.7144,48,250.7144,56,230.7144,48,238.7144" style="stroke: #A80036; stroke-width: 3.0;"/><line style="stroke: #A80036; stroke-width: 3.0;" x1="48" x2="48" y1="152.8002" y2="354.3147"/><line style="stroke: #A80036; stroke-width: 3.0;" x1="48" x2="206" y1="354.3147" y2="354.3147"/><line style="stroke: #A80036; stroke-width: 3.0;" x1="206" x2="206" y1="354.3147" y2="394.3147"/><polygon fill="#A80036" points="198,374.3147,206,394.3147,214,374.3147,206,382.3147" style="stroke: #A80036; stroke-width: 2.0;"/><line style="stroke: #A80036; stroke-width: 3.0;" x1="206" x2="206" y1="88.8002" y2="128.8002"/><polygon fill="#A80036" points="198,108.8002,206,128.8002,214,108.8002,206,116.8002" style="stroke: #A80036; stroke-width: 2.0;"/><!--
@startuml
scale 2
skinparam backgroundColor transparent
skinparam defaultFontName Lato

:expresión;
while (¿es posible reducir?) is (sí)
  :aplicar una reducción;
endwhile (no)
:forma normal;

@enduml

PlantUML version 1.2019.04(Fri Mar 29 16:44:36 CET 2019)
(GPL source distribution)
Java Runtime: OpenJDK Runtime Environment
JVM: OpenJDK 64-Bit Server VM
Java Version: 11.0.4+11-post-Ubuntu-1ubuntu218.04.3
Operating System: Linux
OS Version: 5.0.0-31-generic
Default Encoding: UTF-8
Language: es
Country: ES
--></g></svg>