<?xml version="1.0" encoding="UTF-8" standalone="no"?><svg xmlns="http://www.w3.org/2000/svg" xmlns:xlink="http://www.w3.org/1999/xlink" contentScriptType="application/ecmascript" contentStyleType="text/css" height="484px" preserveAspectRatio="none" style="width:416px;height:484px;" version="1.1" viewBox="0 0 416 484" width="416px" zoomAndPan="magnify"><defs><filter height="300%" id="fimermlxmmize" width="300%" x="-1" y="-1"><feGaussianBlur result="blurOut" stdDeviation="4.0"/><feColorMatrix in="blurOut" result="blurOut2" type="matrix" values="0 0 0 0 0 0 0 0 0 0 0 0 0 0 0 0 0 0 .4 0"/><feOffset dx="8.0" dy="8.0" in="blurOut2" result="blurOut3"/><feBlend in="SourceGraphic" in2="blurOut3" mode="normal"/></filter></defs><g><rect fill="#FEFECE" filter="url(#fimermlxmmize)" height="68.8002" rx="25" ry="25" style="stroke: #000000; stroke-width: 3.0;" width="142" x="135" y="20"/><text fill="#000000" font-family="Lato" font-size="24" lengthAdjust="spacingAndGlyphs" textLength="102" x="155" y="64.1202">expresión</text><rect fill="#FEFECE" filter="url(#fimermlxmmize)" height="68.8002" rx="25" ry="25" style="stroke: #000000; stroke-width: 3.0;" width="268" x="72" y="241.9105"/><text fill="#000000" font-family="Lato" font-size="24" lengthAdjust="spacingAndGlyphs" textLength="228" x="92" y="286.0307">aplicar una reducción</text><polygon fill="#FEFECE" filter="url(#fimermlxmmize)" points="110,128.8002,302,128.8002,326,152.8002,302,176.8002,110,176.8002,86,152.8002,110,128.8002" style="stroke: #000000; stroke-width: 3.0;"/><text fill="#000000" font-family="Lato" font-size="22" lengthAdjust="spacingAndGlyphs" textLength="16" x="214" y="198.9105">sí</text><text fill="#000000" font-family="Lato" font-size="22" lengthAdjust="spacingAndGlyphs" textLength="192" x="110" y="161.7103">¿es posible reducir?</text><text fill="#000000" font-family="Lato" font-size="22" lengthAdjust="spacingAndGlyphs" textLength="24" x="62" y="148.5101">no</text><rect fill="#FEFECE" filter="url(#fimermlxmmize)" height="68.8002" rx="25" ry="25" style="stroke: #000000; stroke-width: 3.0;" width="182" x="115" y="394.7107"/><text fill="#000000" font-family="Lato" font-size="24" lengthAdjust="spacingAndGlyphs" textLength="142" x="135" y="438.8309">forma normal</text><line style="stroke: #000000; stroke-width: 3.0;" x1="206" x2="206" y1="176.8002" y2="241.9105"/><polygon fill="#000000" points="198,221.9105,206,241.9105,214,221.9105,206,229.9105" style="stroke: #000000; stroke-width: 2.0;"/><line style="stroke: #000000; stroke-width: 3.0;" x1="206" x2="206" y1="310.7107" y2="330.7107"/><line style="stroke: #000000; stroke-width: 3.0;" x1="206" x2="364" y1="330.7107" y2="330.7107"/><polygon fill="#000000" points="356,259.1104,364,239.1104,372,259.1104,364,251.1104" style="stroke: #000000; stroke-width: 3.0;"/><line style="stroke: #000000; stroke-width: 3.0;" x1="364" x2="364" y1="152.8002" y2="330.7107"/><line style="stroke: #000000; stroke-width: 3.0;" x1="364" x2="326" y1="152.8002" y2="152.8002"/><polygon fill="#000000" points="346,144.8002,326,152.8002,346,160.8002,338,152.8002" style="stroke: #000000; stroke-width: 2.0;"/><line style="stroke: #000000; stroke-width: 3.0;" x1="86" x2="48" y1="152.8002" y2="152.8002"/><polygon fill="#000000" points="40,231.1104,48,251.1104,56,231.1104,48,239.1104" style="stroke: #000000; stroke-width: 3.0;"/><line style="stroke: #000000; stroke-width: 3.0;" x1="48" x2="48" y1="152.8002" y2="354.7107"/><line style="stroke: #000000; stroke-width: 3.0;" x1="48" x2="206" y1="354.7107" y2="354.7107"/><line style="stroke: #000000; stroke-width: 3.0;" x1="206" x2="206" y1="354.7107" y2="394.7107"/><polygon fill="#000000" points="198,374.7107,206,394.7107,214,374.7107,206,382.7107" style="stroke: #000000; stroke-width: 2.0;"/><line style="stroke: #000000; stroke-width: 3.0;" x1="206" x2="206" y1="88.8002" y2="128.8002"/><polygon fill="#000000" points="198,108.8002,206,128.8002,214,108.8002,206,116.8002" style="stroke: #000000; stroke-width: 2.0;"/><!--MD5=[25835453d65ae23f598a55a89832df9f]
@startuml
scale 2
skinparam backgroundColor transparent
skinparam defaultFontName Lato
skinparam ArrowColor black
skinparam classBorderColor black
skinparam linetype ortho

skinparam ActivityBorderColor black
skinparam ActivityDiamondBorderColor black
skinparam DecisionBorderColor black
:expresión;
while (¿es posible reducir?) is (sí)
  :aplicar una reducción;
endwhile (no)
:forma normal;

@enduml

PlantUML version 1.2019.13(Tue Dec 10 18:18:29 CET 2019)
(GPL source distribution)
Java Runtime: OpenJDK Runtime Environment
JVM: OpenJDK 64-Bit Server VM
Java Version: 17.0.18+8-Debian-1deb12u1
Operating System: Linux
Default Encoding: UTF-8
Language: es
Country: ES
--></g></svg>