<?xml version="1.0" encoding="UTF-8" standalone="no"?>
<!DOCTYPE svg PUBLIC "-//W3C//DTD SVG 1.1//EN"
 "http://www.w3.org/Graphics/SVG/1.1/DTD/svg11.dtd">
<!-- Generated by graphviz version 14.0.5 (0)
 -->
<!-- Pages: 1 -->
<svg width="490pt" height="174pt"
 viewBox="0.00 0.00 490.00 174.00" xmlns="http://www.w3.org/2000/svg" xmlns:xlink="http://www.w3.org/1999/xlink">
<g id="graph0" class="graph" transform="scale(1 1) rotate(0) translate(4 170)">
<!-- VariablesNoLocales -->
<g id="node1" class="node">
<title>VariablesNoLocales</title>
<polygon fill="none" stroke="none" points="134,-147.6 6,-147.6 6,-111.6 134,-111.6 134,-147.6"/>
<text xml:space="preserve" text-anchor="middle" x="70" y="-125.05" font-family="Lato" font-size="13.00">Variables no locales</text>
</g>
<!-- Función -->
<g id="node5" class="node">
<title>Función</title>
<polygon fill="white" stroke="black" points="286.5,-93.6 225.5,-93.6 225.5,-57.6 286.5,-57.6 286.5,-93.6"/>
<text xml:space="preserve" text-anchor="middle" x="256" y="-71.05" font-family="Lato" font-size="13.00">Función</text>
</g>
<!-- VariablesNoLocales&#45;&gt;Función -->
<g id="edge4" class="edge">
<title>VariablesNoLocales&#45;&gt;Función</title>
<path fill="none" stroke="black" d="M143.07,-108.45C167.2,-101.37 193.26,-93.72 214.15,-87.59"/>
<polygon fill="black" stroke="black" points="142.33,-105.02 133.72,-111.19 144.3,-111.73 142.33,-105.02"/>
<polygon fill="black" stroke="black" points="215.12,-90.95 223.73,-84.78 213.15,-84.24 215.12,-90.95"/>
</g>
<!-- ArgumentosMutables -->
<g id="node2" class="node">
<title>ArgumentosMutables</title>
<polygon fill="none" stroke="none" points="140,-39.6 0,-39.6 0,-3.6 140,-3.6 140,-39.6"/>
<text xml:space="preserve" text-anchor="middle" x="70" y="-17.05" font-family="Lato" font-size="13.00">Argumentos mutables</text>
</g>
<!-- Argumentos -->
<g id="node3" class="node">
<title>Argumentos</title>
<polygon fill="none" stroke="none" points="112.5,-93.6 27.5,-93.6 27.5,-57.6 112.5,-57.6 112.5,-93.6"/>
<text xml:space="preserve" text-anchor="middle" x="70" y="-71.05" font-family="Lato" font-size="13.00">Argumentos</text>
</g>
<!-- Argumentos&#45;&gt;Función -->
<g id="edge1" class="edge">
<title>Argumentos&#45;&gt;Función</title>
<path fill="none" stroke="black" d="M112.29,-75.6C142.51,-75.6 183.33,-75.6 213.57,-75.6"/>
<polygon fill="black" stroke="black" points="213.5,-79.1 223.5,-75.6 213.5,-72.1 213.5,-79.1"/>
</g>
<!-- Resultado -->
<g id="node4" class="node">
<title>Resultado</title>
<polygon fill="none" stroke="none" points="482,-93.6 372,-93.6 372,-57.6 482,-57.6 482,-93.6"/>
<text xml:space="preserve" text-anchor="middle" x="427" y="-71.05" font-family="Lato" font-size="13.00">Valor de retorno</text>
</g>
<!-- Función&#45;&gt;ArgumentosMutables -->
<g id="edge3" class="edge">
<title>Función&#45;&gt;ArgumentosMutables</title>
<path fill="none" stroke="black" d="M214.15,-63.61C193.26,-57.48 167.2,-49.83 143.07,-42.75"/>
<polygon fill="black" stroke="black" points="213.15,-66.96 223.73,-66.42 215.12,-60.25 213.15,-66.96"/>
<polygon fill="black" stroke="black" points="144.3,-39.47 133.72,-40.01 142.33,-46.18 144.3,-39.47"/>
</g>
<!-- Función&#45;&gt;Resultado -->
<g id="edge2" class="edge">
<title>Función&#45;&gt;Resultado</title>
<path fill="none" stroke="black" d="M286.82,-75.6C307.29,-75.6 335.24,-75.6 360.73,-75.6"/>
<polygon fill="black" stroke="black" points="360.72,-79.1 370.72,-75.6 360.72,-72.1 360.72,-79.1"/>
</g>
<!-- ExteriorS -->
<g id="node7" class="node">
<title>ExteriorS</title>
<polygon fill="none" stroke="none" points="336,-39.2 176,-39.2 176,0 336,0 336,-39.2"/>
<text xml:space="preserve" text-anchor="middle" x="256" y="-22.85" font-family="Lato" font-size="13.00">Salida al exterior</text>
<text xml:space="preserve" text-anchor="middle" x="256" y="-7.25" font-family="Lato" font-size="13.00">(Consola, archivos, GUI...)</text>
</g>
<!-- Función&#45;&gt;ExteriorS -->
<g id="edge6" class="edge">
<title>Función&#45;&gt;ExteriorS</title>
<path fill="none" stroke="black" d="M256,-57.23C256,-54.93 256,-52.63 256,-50.33"/>
<polygon fill="black" stroke="black" points="259.5,-50.36 256,-40.36 252.5,-50.36 259.5,-50.36"/>
</g>
<!-- ExteriorE -->
<g id="node6" class="node">
<title>ExteriorE</title>
<polygon fill="none" stroke="none" points="335.5,-166 176.5,-166 176.5,-111.2 335.5,-111.2 335.5,-166"/>
<text xml:space="preserve" text-anchor="middle" x="256" y="-149.65" font-family="Lato" font-size="13.00">Entrada desde el exterior</text>
<text xml:space="preserve" text-anchor="middle" x="256" y="-134.05" font-family="Lato" font-size="13.00">(Consola, archivos,</text>
<text xml:space="preserve" text-anchor="middle" x="256" y="-118.45" font-family="Lato" font-size="13.00">línea de órdenes, GUI...)</text>
</g>
<!-- ExteriorE&#45;&gt;Función -->
<g id="edge5" class="edge">
<title>ExteriorE&#45;&gt;Función</title>
<path fill="none" stroke="black" d="M256,-111.31C256,-109.3 256,-107.3 256,-105.29"/>
<polygon fill="black" stroke="black" points="259.5,-105.32 256,-95.32 252.5,-105.32 259.5,-105.32"/>
</g>
</g>
</svg>
