<?xml version="1.0" encoding="UTF-8" standalone="no"?>
<!DOCTYPE svg PUBLIC "-//W3C//DTD SVG 1.1//EN"
 "http://www.w3.org/Graphics/SVG/1.1/DTD/svg11.dtd">
<!-- Generated by graphviz version 2.43.0 (0)
 -->
<!-- Title: %3 Pages: 1 -->
<svg width="338pt" height="44pt"
 viewBox="0.00 0.00 338.00 44.00" xmlns="http://www.w3.org/2000/svg" xmlns:xlink="http://www.w3.org/1999/xlink">
<g id="graph0" class="graph" transform="scale(1 1) rotate(0) translate(4 40)">
<title>%3</title>
<!-- Argumentos -->
<g id="node1" class="node">
<title>Argumentos</title>
<polygon fill="transparent" stroke="transparent" points="87,-36 0,-36 0,0 87,0 87,-36"/>
<text text-anchor="middle" x="43.5" y="-14.6" font-family="Lato" font-size="13.00">Argumentos</text>
</g>
<!-- Función -->
<g id="node3" class="node">
<title>Función</title>
<polygon fill="white" stroke="black" points="185,-36 123,-36 123,0 185,0 185,-36"/>
<text text-anchor="middle" x="154" y="-14.6" font-family="Lato" font-size="13.00">Función</text>
</g>
<!-- Argumentos&#45;&gt;Función -->
<g id="edge1" class="edge">
<title>Argumentos&#45;&gt;Función</title>
<path fill="none" stroke="black" d="M87.07,-18C95.5,-18 104.33,-18 112.68,-18"/>
<polygon fill="black" stroke="black" points="112.95,-21.5 122.95,-18 112.95,-14.5 112.95,-21.5"/>
</g>
<!-- Resultado -->
<g id="node2" class="node">
<title>Resultado</title>
<polygon fill="transparent" stroke="transparent" points="330,-36 221,-36 221,0 330,0 330,-36"/>
<text text-anchor="middle" x="275.5" y="-14.6" font-family="Lato" font-size="13.00">Valor de retorno</text>
</g>
<!-- Función&#45;&gt;Resultado -->
<g id="edge2" class="edge">
<title>Función&#45;&gt;Resultado</title>
<path fill="none" stroke="black" d="M185.15,-18C192.99,-18 201.74,-18 210.61,-18"/>
<polygon fill="black" stroke="black" points="210.63,-21.5 220.63,-18 210.63,-14.5 210.63,-21.5"/>
</g>
</g>
</svg>
