<?xml version="1.0" encoding="UTF-8" standalone="no"?>
<!DOCTYPE svg PUBLIC "-//W3C//DTD SVG 1.1//EN"
 "http://www.w3.org/Graphics/SVG/1.1/DTD/svg11.dtd">
<!-- Generated by graphviz version 2.43.0 (0)
 -->
<!-- Title: %3 Pages: 1 -->
<svg width="394pt" height="152pt"
 viewBox="0.00 0.00 394.00 152.00" xmlns="http://www.w3.org/2000/svg" xmlns:xlink="http://www.w3.org/1999/xlink">
<g id="graph0" class="graph" transform="scale(1 1) rotate(0) translate(4 148)">
<title>%3</title>
<!-- VariablesNoLocales -->
<g id="node1" class="node">
<title>VariablesNoLocales</title>
<polygon fill="transparent" stroke="transparent" points="135.5,-144 7.5,-144 7.5,-108 135.5,-108 135.5,-144"/>
<text text-anchor="middle" x="71.5" y="-122.6" font-family="Lato" font-size="13.00">Variables no locales</text>
</g>
<!-- Función -->
<g id="node5" class="node">
<title>Función</title>
<polygon fill="white" stroke="black" points="241,-90 179,-90 179,-54 241,-54 241,-90"/>
<text text-anchor="middle" x="210" y="-68.6" font-family="Lato" font-size="13.00">Función</text>
</g>
<!-- VariablesNoLocales&#45;&gt;Función -->
<g id="edge4" class="edge">
<title>VariablesNoLocales&#45;&gt;Función</title>
<path fill="none" stroke="black" d="M129.41,-104.33C134.01,-102.54 138.59,-100.75 143,-99 151.53,-95.62 160.65,-91.94 169.31,-88.41"/>
<polygon fill="black" stroke="black" points="128.02,-101.12 119.96,-107.99 130.55,-107.64 128.02,-101.12"/>
<polygon fill="black" stroke="black" points="170.9,-91.54 178.83,-84.51 168.25,-85.06 170.9,-91.54"/>
</g>
<!-- Argumentos -->
<g id="node2" class="node">
<title>Argumentos</title>
<polygon fill="transparent" stroke="transparent" points="115,-90 28,-90 28,-54 115,-54 115,-90"/>
<text text-anchor="middle" x="71.5" y="-68.6" font-family="Lato" font-size="13.00">Argumentos</text>
</g>
<!-- Argumentos&#45;&gt;Función -->
<g id="edge1" class="edge">
<title>Argumentos&#45;&gt;Función</title>
<path fill="none" stroke="black" d="M115.31,-72C132.41,-72 151.99,-72 168.81,-72"/>
<polygon fill="black" stroke="black" points="168.88,-75.5 178.88,-72 168.88,-68.5 168.88,-75.5"/>
</g>
<!-- ArgumentosMutables -->
<g id="node3" class="node">
<title>ArgumentosMutables</title>
<polygon fill="transparent" stroke="transparent" points="143,-36 0,-36 0,0 143,0 143,-36"/>
<text text-anchor="middle" x="71.5" y="-14.6" font-family="Lato" font-size="13.00">Argumentos mutables</text>
</g>
<!-- Resultado -->
<g id="node4" class="node">
<title>Resultado</title>
<polygon fill="transparent" stroke="transparent" points="386,-90 277,-90 277,-54 386,-54 386,-90"/>
<text text-anchor="middle" x="331.5" y="-68.6" font-family="Lato" font-size="13.00">Valor de retorno</text>
</g>
<!-- Función&#45;&gt;ArgumentosMutables -->
<g id="edge3" class="edge">
<title>Función&#45;&gt;ArgumentosMutables</title>
<path fill="none" stroke="black" d="M169.31,-55.59C160.65,-52.06 151.53,-48.38 143,-45 138.59,-43.25 134.01,-41.46 129.41,-39.67"/>
<polygon fill="black" stroke="black" points="168.25,-58.94 178.83,-59.49 170.9,-52.46 168.25,-58.94"/>
<polygon fill="black" stroke="black" points="130.55,-36.36 119.96,-36.01 128.02,-42.88 130.55,-36.36"/>
</g>
<!-- Función&#45;&gt;Resultado -->
<g id="edge2" class="edge">
<title>Función&#45;&gt;Resultado</title>
<path fill="none" stroke="black" d="M241.15,-72C248.99,-72 257.74,-72 266.61,-72"/>
<polygon fill="black" stroke="black" points="266.63,-75.5 276.63,-72 266.63,-68.5 266.63,-75.5"/>
</g>
</g>
</svg>
