<?xml version="1.0" encoding="UTF-8" standalone="no"?>
<!DOCTYPE svg PUBLIC "-//W3C//DTD SVG 1.1//EN"
 "http://www.w3.org/Graphics/SVG/1.1/DTD/svg11.dtd">
<!-- Generated by graphviz version 14.0.5 (0)
 -->
<!-- Pages: 1 -->
<svg width="469pt" height="63pt"
 viewBox="0.00 0.00 469.00 63.00" xmlns="http://www.w3.org/2000/svg" xmlns:xlink="http://www.w3.org/1999/xlink">
<g id="graph0" class="graph" transform="scale(1 1) rotate(0) translate(4 58.8)">
<!-- ExteriorE -->
<g id="node1" class="node">
<title>ExteriorE</title>
<polygon fill="none" stroke="none" points="159,-54.8 0,-54.8 0,0 159,0 159,-54.8"/>
<text xml:space="preserve" text-anchor="middle" x="79.5" y="-38.45" font-family="Lato" font-size="13.00">Entrada desde el exterior</text>
<text xml:space="preserve" text-anchor="middle" x="79.5" y="-22.85" font-family="Lato" font-size="13.00">(Consola, archivos,</text>
<text xml:space="preserve" text-anchor="middle" x="79.5" y="-7.25" font-family="Lato" font-size="13.00">línea de órdenes, GUI...)</text>
</g>
<!-- Programa -->
<g id="node3" class="node">
<title>Programa</title>
<polygon fill="white" stroke="black" points="265,-45.4 195,-45.4 195,-9.4 265,-9.4 265,-45.4"/>
<text xml:space="preserve" text-anchor="middle" x="230" y="-22.85" font-family="Lato" font-size="13.00">Programa</text>
</g>
<!-- ExteriorE&#45;&gt;Programa -->
<g id="edge1" class="edge">
<title>ExteriorE&#45;&gt;Programa</title>
<path fill="none" stroke="black" d="M158.66,-27.4C167.11,-27.4 175.49,-27.4 183.36,-27.4"/>
<polygon fill="black" stroke="black" points="183.34,-30.9 193.34,-27.4 183.34,-23.9 183.34,-30.9"/>
</g>
<!-- ExteriorS -->
<g id="node2" class="node">
<title>ExteriorS</title>
<polygon fill="none" stroke="none" points="461,-47 301,-47 301,-7.8 461,-7.8 461,-47"/>
<text xml:space="preserve" text-anchor="middle" x="381" y="-30.65" font-family="Lato" font-size="13.00">Salida al exterior</text>
<text xml:space="preserve" text-anchor="middle" x="381" y="-15.05" font-family="Lato" font-size="13.00">(Consola, archivos, GUI...)</text>
</g>
<!-- Programa&#45;&gt;ExteriorS -->
<g id="edge2" class="edge">
<title>Programa&#45;&gt;ExteriorS</title>
<path fill="none" stroke="black" d="M265.18,-27.4C272.71,-27.4 281.02,-27.4 289.63,-27.4"/>
<polygon fill="black" stroke="black" points="289.57,-30.9 299.57,-27.4 289.57,-23.9 289.57,-30.9"/>
</g>
</g>
</svg>
