<?xml version="1.0" encoding="UTF-8" standalone="no"?>
<!DOCTYPE svg PUBLIC "-//W3C//DTD SVG 1.1//EN"
 "http://www.w3.org/Graphics/SVG/1.1/DTD/svg11.dtd">
<!-- Generated by graphviz version 14.1.1 (0)
 -->
<!-- Pages: 1 -->
<svg width="471pt" height="66pt"
 viewBox="0.00 0.00 471.00 66.00" xmlns="http://www.w3.org/2000/svg" xmlns:xlink="http://www.w3.org/1999/xlink">
<g id="graph0" class="graph" transform="scale(1 1) rotate(0) translate(4 61.5)">
<!-- ExteriorE -->
<g id="node1" class="node">
<title>ExteriorE</title>
<polygon fill="none" stroke="none" points="158.5,-57.5 0,-57.5 0,0 158.5,0 158.5,-57.5"/>
<text xml:space="preserve" text-anchor="middle" x="79.25" y="-41.15" font-family="Lato" font-size="13.00">Entrada desde el exterior</text>
<text xml:space="preserve" text-anchor="middle" x="79.25" y="-24.65" font-family="Lato" font-size="13.00">(Consola, archivos,</text>
<text xml:space="preserve" text-anchor="middle" x="79.25" y="-8.15" font-family="Lato" font-size="13.00">línea de órdenes, GUI...)</text>
</g>
<!-- Programa -->
<g id="node3" class="node">
<title>Programa</title>
<polygon fill="white" stroke="black" points="265.25,-46.75 194.5,-46.75 194.5,-10.75 265.25,-10.75 265.25,-46.75"/>
<text xml:space="preserve" text-anchor="middle" x="229.88" y="-24.65" font-family="Lato" font-size="13.00">Programa</text>
</g>
<!-- ExteriorE&#45;&gt;Programa -->
<g id="edge1" class="edge">
<title>ExteriorE&#45;&gt;Programa</title>
<path fill="none" stroke="black" d="M158.48,-28.75C166.84,-28.75 175.13,-28.75 182.93,-28.75"/>
<polygon fill="black" stroke="black" points="182.83,-32.25 192.83,-28.75 182.83,-25.25 182.83,-32.25"/>
</g>
<!-- ExteriorS -->
<g id="node2" class="node">
<title>ExteriorS</title>
<polygon fill="none" stroke="none" points="462.75,-49.25 301.25,-49.25 301.25,-8.25 462.75,-8.25 462.75,-49.25"/>
<text xml:space="preserve" text-anchor="middle" x="382" y="-32.9" font-family="Lato" font-size="13.00">Salida al exterior</text>
<text xml:space="preserve" text-anchor="middle" x="382" y="-16.4" font-family="Lato" font-size="13.00">(Consola, archivos, GUI...)</text>
</g>
<!-- Programa&#45;&gt;ExteriorS -->
<g id="edge2" class="edge">
<title>Programa&#45;&gt;ExteriorS</title>
<path fill="none" stroke="black" d="M265.69,-28.75C273.22,-28.75 281.52,-28.75 290.1,-28.75"/>
<polygon fill="black" stroke="black" points="290,-32.25 300,-28.75 290,-25.25 290,-32.25"/>
</g>
</g>
</svg>
