<?xml version="1.0" encoding="UTF-8" standalone="no"?>
<!DOCTYPE svg PUBLIC "-//W3C//DTD SVG 1.1//EN"
 "http://www.w3.org/Graphics/SVG/1.1/DTD/svg11.dtd">
<!-- Generated by graphviz version 2.43.0 (0)
 -->
<!-- Title: %3 Pages: 1 -->
<svg width="465pt" height="112pt"
 viewBox="0.00 0.00 465.00 112.00" xmlns="http://www.w3.org/2000/svg" xmlns:xlink="http://www.w3.org/1999/xlink">
<g id="graph0" class="graph" transform="scale(1 1) rotate(0) translate(4 108)">
<title>%3</title>
<!-- ExteriorE -->
<g id="node1" class="node">
<title>ExteriorE</title>
<polygon fill="transparent" stroke="transparent" points="152,-50 0,-50 0,0 152,0 152,-50"/>
<text text-anchor="middle" x="76" y="-35.6" font-family="Lato" font-size="13.00">Entrada del exterior</text>
<text text-anchor="middle" x="76" y="-21.6" font-family="Lato" font-size="13.00">(Consola, archivos,</text>
<text text-anchor="middle" x="76" y="-7.6" font-family="Lato" font-size="13.00">línea de órdenes, GUI...)</text>
</g>
<!-- Programa -->
<g id="node6" class="node">
<title>Programa</title>
<polygon fill="white" stroke="black" points="259,-43 188,-43 188,-7 259,-7 259,-43"/>
<text text-anchor="middle" x="223.5" y="-21.6" font-family="Lato" font-size="13.00">Programa</text>
</g>
<!-- ExteriorE&#45;&gt;Programa -->
<g id="edge3" class="edge">
<title>ExteriorE&#45;&gt;Programa</title>
<path fill="none" stroke="black" d="M152.31,-25C161.08,-25 169.81,-25 177.97,-25"/>
<polygon fill="black" stroke="black" points="177.98,-28.5 187.98,-25 177.98,-21.5 177.98,-28.5"/>
</g>
<!-- ExteriorS -->
<g id="node2" class="node">
<title>ExteriorS</title>
<polygon fill="transparent" stroke="transparent" points="457,-43 295,-43 295,-7 457,-7 457,-43"/>
<text text-anchor="middle" x="376" y="-28.6" font-family="Lato" font-size="13.00">Salida al exterior</text>
<text text-anchor="middle" x="376" y="-14.6" font-family="Lato" font-size="13.00">(Consola, archivos, GUI...)</text>
</g>
<!-- Argumentos -->
<g id="node3" class="node">
<title>Argumentos</title>
<polygon fill="transparent" stroke="transparent" points="119.5,-104 32.5,-104 32.5,-68 119.5,-68 119.5,-104"/>
<text text-anchor="middle" x="76" y="-82.6" font-family="Lato" font-size="13.00">Argumentos</text>
</g>
<!-- Función -->
<g id="node5" class="node">
<title>Función</title>
<polygon fill="white" stroke="black" points="254.5,-104 192.5,-104 192.5,-68 254.5,-68 254.5,-104"/>
<text text-anchor="middle" x="223.5" y="-82.6" font-family="Lato" font-size="13.00">Función</text>
</g>
<!-- Argumentos&#45;&gt;Función -->
<g id="edge1" class="edge">
<title>Argumentos&#45;&gt;Función</title>
<path fill="none" stroke="black" d="M119.87,-86C139.62,-86 162.93,-86 182.34,-86"/>
<polygon fill="black" stroke="black" points="182.39,-89.5 192.39,-86 182.39,-82.5 182.39,-89.5"/>
</g>
<!-- Resultado -->
<g id="node4" class="node">
<title>Resultado</title>
<polygon fill="transparent" stroke="transparent" points="430.5,-104 321.5,-104 321.5,-68 430.5,-68 430.5,-104"/>
<text text-anchor="middle" x="376" y="-82.6" font-family="Lato" font-size="13.00">Valor de retorno</text>
</g>
<!-- Función&#45;&gt;Resultado -->
<g id="edge2" class="edge">
<title>Función&#45;&gt;Resultado</title>
<path fill="none" stroke="black" d="M254.59,-86C270.81,-86 291.47,-86 311.07,-86"/>
<polygon fill="black" stroke="black" points="311.2,-89.5 321.2,-86 311.2,-82.5 311.2,-89.5"/>
</g>
<!-- Programa&#45;&gt;ExteriorS -->
<g id="edge4" class="edge">
<title>Programa&#45;&gt;ExteriorS</title>
<path fill="none" stroke="black" d="M259.03,-25C266.99,-25 275.83,-25 284.97,-25"/>
<polygon fill="black" stroke="black" points="284.98,-28.5 294.98,-25 284.98,-21.5 284.98,-28.5"/>
</g>
</g>
</svg>
