<?xml version="1.0" encoding="UTF-8" standalone="no"?>
<!DOCTYPE svg PUBLIC "-//W3C//DTD SVG 1.1//EN"
 "http://www.w3.org/Graphics/SVG/1.1/DTD/svg11.dtd">
<!-- Generated by graphviz version 14.0.5 (0)
 -->
<!-- Pages: 1 -->
<svg width="391pt" height="152pt"
 viewBox="0.00 0.00 391.00 152.00" xmlns="http://www.w3.org/2000/svg" xmlns:xlink="http://www.w3.org/1999/xlink">
<g id="graph0" class="graph" transform="scale(1 1) rotate(0) translate(4 148)">
<!-- VariablesNoLocales -->
<g id="node1" class="node">
<title>VariablesNoLocales</title>
<polygon fill="none" stroke="none" points="134,-144 6,-144 6,-108 134,-108 134,-144"/>
<text xml:space="preserve" text-anchor="middle" x="70" y="-121.45" font-family="Lato" font-size="13.00">Variables no locales</text>
</g>
<!-- Función -->
<g id="node5" class="node">
<title>Función</title>
<polygon fill="white" stroke="black" points="237,-90 176,-90 176,-54 237,-54 237,-90"/>
<text xml:space="preserve" text-anchor="middle" x="206.5" y="-67.45" font-family="Lato" font-size="13.00">Función</text>
</g>
<!-- VariablesNoLocales&#45;&gt;Función -->
<g id="edge4" class="edge">
<title>VariablesNoLocales&#45;&gt;Función</title>
<path fill="none" stroke="black" d="M127.55,-103.97C131.77,-102.29 135.95,-100.63 140,-99 148.09,-95.75 156.73,-92.23 164.99,-88.83"/>
<polygon fill="black" stroke="black" points="126.49,-100.62 118.48,-107.55 129.06,-107.13 126.49,-100.62"/>
<polygon fill="black" stroke="black" points="166.24,-92.1 174.15,-85.06 163.57,-85.63 166.24,-92.1"/>
</g>
<!-- Argumentos -->
<g id="node2" class="node">
<title>Argumentos</title>
<polygon fill="none" stroke="none" points="112.5,-90 27.5,-90 27.5,-54 112.5,-54 112.5,-90"/>
<text xml:space="preserve" text-anchor="middle" x="70" y="-67.45" font-family="Lato" font-size="13.00">Argumentos</text>
</g>
<!-- Argumentos&#45;&gt;Función -->
<g id="edge1" class="edge">
<title>Argumentos&#45;&gt;Función</title>
<path fill="none" stroke="black" d="M112.45,-72C128.97,-72 147.94,-72 164.43,-72"/>
<polygon fill="black" stroke="black" points="164.41,-75.5 174.41,-72 164.41,-68.5 164.41,-75.5"/>
</g>
<!-- ArgumentosMutables -->
<g id="node3" class="node">
<title>ArgumentosMutables</title>
<polygon fill="none" stroke="none" points="140,-36 0,-36 0,0 140,0 140,-36"/>
<text xml:space="preserve" text-anchor="middle" x="70" y="-13.45" font-family="Lato" font-size="13.00">Argumentos mutables</text>
</g>
<!-- Resultado -->
<g id="node4" class="node">
<title>Resultado</title>
<polygon fill="none" stroke="none" points="383,-90 273,-90 273,-54 383,-54 383,-90"/>
<text xml:space="preserve" text-anchor="middle" x="328" y="-67.45" font-family="Lato" font-size="13.00">Valor de retorno</text>
</g>
<!-- Función&#45;&gt;ArgumentosMutables -->
<g id="edge3" class="edge">
<title>Función&#45;&gt;ArgumentosMutables</title>
<path fill="none" stroke="black" d="M164.99,-55.17C156.73,-51.77 148.09,-48.25 140,-45 135.95,-43.37 131.77,-41.71 127.55,-40.03"/>
<polygon fill="black" stroke="black" points="163.57,-58.37 174.15,-58.94 166.24,-51.9 163.57,-58.37"/>
<polygon fill="black" stroke="black" points="129.06,-36.87 118.48,-36.45 126.49,-43.38 129.06,-36.87"/>
</g>
<!-- Función&#45;&gt;Resultado -->
<g id="edge2" class="edge">
<title>Función&#45;&gt;Resultado</title>
<path fill="none" stroke="black" d="M237.35,-72C244.94,-72 253.4,-72 262.01,-72"/>
<polygon fill="black" stroke="black" points="261.84,-75.5 271.84,-72 261.84,-68.5 261.84,-75.5"/>
</g>
</g>
</svg>
