<?xml version="1.0" encoding="UTF-8" standalone="no"?>
<!DOCTYPE svg PUBLIC "-//W3C//DTD SVG 1.1//EN"
 "http://www.w3.org/Graphics/SVG/1.1/DTD/svg11.dtd">
<!-- Generated by graphviz version 14.1.1 (0)
 -->
<!-- Pages: 1 -->
<svg width="392pt" height="152pt"
 viewBox="0.00 0.00 392.00 152.00" xmlns="http://www.w3.org/2000/svg" xmlns:xlink="http://www.w3.org/1999/xlink">
<g id="graph0" class="graph" transform="scale(1 1) rotate(0) translate(4 148)">
<!-- VariablesNoLocales -->
<g id="node1" class="node">
<title>VariablesNoLocales</title>
<polygon fill="none" stroke="none" points="134.88,-144 7.12,-144 7.12,-108 134.88,-108 134.88,-144"/>
<text xml:space="preserve" text-anchor="middle" x="71" y="-121.9" font-family="Lato" font-size="13.00">Variables no locales</text>
</g>
<!-- Función -->
<g id="node5" class="node">
<title>Función</title>
<polygon fill="white" stroke="black" points="239.75,-90 178,-90 178,-54 239.75,-54 239.75,-90"/>
<text xml:space="preserve" text-anchor="middle" x="208.88" y="-67.9" font-family="Lato" font-size="13.00">Función</text>
</g>
<!-- VariablesNoLocales&#45;&gt;Función -->
<g id="edge4" class="edge">
<title>VariablesNoLocales&#45;&gt;Función</title>
<path fill="none" stroke="black" d="M129.38,-103.98C133.65,-102.31 137.9,-100.63 142,-99 150.15,-95.76 158.83,-92.24 167.14,-88.85"/>
<polygon fill="black" stroke="black" points="128.2,-100.68 120.15,-107.58 130.74,-107.2 128.2,-100.68"/>
<polygon fill="black" stroke="black" points="168.43,-92.1 176.36,-85.07 165.78,-85.63 168.43,-92.1"/>
</g>
<!-- Argumentos -->
<g id="node2" class="node">
<title>Argumentos</title>
<polygon fill="none" stroke="none" points="114.25,-90 27.75,-90 27.75,-54 114.25,-54 114.25,-90"/>
<text xml:space="preserve" text-anchor="middle" x="71" y="-67.9" font-family="Lato" font-size="13.00">Argumentos</text>
</g>
<!-- Argumentos&#45;&gt;Función -->
<g id="edge1" class="edge">
<title>Argumentos&#45;&gt;Función</title>
<path fill="none" stroke="black" d="M114.25,-72C130.8,-72 149.73,-72 166.22,-72"/>
<polygon fill="black" stroke="black" points="166.22,-75.5 176.22,-72 166.22,-68.5 166.22,-75.5"/>
</g>
<!-- ArgumentosMutables -->
<g id="node3" class="node">
<title>ArgumentosMutables</title>
<polygon fill="none" stroke="none" points="142,-36 0,-36 0,0 142,0 142,-36"/>
<text xml:space="preserve" text-anchor="middle" x="71" y="-13.9" font-family="Lato" font-size="13.00">Argumentos mutables</text>
</g>
<!-- Resultado -->
<g id="node4" class="node">
<title>Resultado</title>
<polygon fill="none" stroke="none" points="384,-90 275.75,-90 275.75,-54 384,-54 384,-90"/>
<text xml:space="preserve" text-anchor="middle" x="329.88" y="-67.9" font-family="Lato" font-size="13.00">Valor de retorno</text>
</g>
<!-- Función&#45;&gt;ArgumentosMutables -->
<g id="edge3" class="edge">
<title>Función&#45;&gt;ArgumentosMutables</title>
<path fill="none" stroke="black" d="M167.14,-55.15C158.83,-51.76 150.15,-48.24 142,-45 137.9,-43.37 133.65,-41.69 129.38,-40.02"/>
<polygon fill="black" stroke="black" points="165.78,-58.37 176.36,-58.93 168.43,-51.9 165.78,-58.37"/>
<polygon fill="black" stroke="black" points="130.74,-36.8 120.15,-36.42 128.2,-43.32 130.74,-36.8"/>
</g>
<!-- Función&#45;&gt;Resultado -->
<g id="edge2" class="edge">
<title>Función&#45;&gt;Resultado</title>
<path fill="none" stroke="black" d="M240.21,-72C247.78,-72 256.18,-72 264.71,-72"/>
<polygon fill="black" stroke="black" points="264.42,-75.5 274.42,-72 264.42,-68.5 264.42,-75.5"/>
</g>
</g>
</svg>
