<?xml version="1.0" encoding="UTF-8" standalone="no"?>
<!DOCTYPE svg PUBLIC "-//W3C//DTD SVG 1.1//EN"
 "http://www.w3.org/Graphics/SVG/1.1/DTD/svg11.dtd">
<!-- Generated by graphviz version 14.1.1 (0)
 -->
<!-- Pages: 1 -->
<svg width="337pt" height="44pt"
 viewBox="0.00 0.00 337.00 44.00" xmlns="http://www.w3.org/2000/svg" xmlns:xlink="http://www.w3.org/1999/xlink">
<g id="graph0" class="graph" transform="scale(1 1) rotate(0) translate(4 40)">
<!-- Argumentos -->
<g id="node1" class="node">
<title>Argumentos</title>
<polygon fill="none" stroke="none" points="86.5,-36 0,-36 0,0 86.5,0 86.5,-36"/>
<text xml:space="preserve" text-anchor="middle" x="43.25" y="-13.9" font-family="Lato" font-size="13.00">Argumentos</text>
</g>
<!-- Función -->
<g id="node3" class="node">
<title>Función</title>
<polygon fill="white" stroke="black" points="184.25,-36 122.5,-36 122.5,0 184.25,0 184.25,-36"/>
<text xml:space="preserve" text-anchor="middle" x="153.38" y="-13.9" font-family="Lato" font-size="13.00">Función</text>
</g>
<!-- Argumentos&#45;&gt;Función -->
<g id="edge1" class="edge">
<title>Argumentos&#45;&gt;Función</title>
<path fill="none" stroke="black" d="M86.36,-18C94.41,-18 102.83,-18 110.86,-18"/>
<polygon fill="black" stroke="black" points="110.74,-21.5 120.74,-18 110.74,-14.5 110.74,-21.5"/>
</g>
<!-- Resultado -->
<g id="node2" class="node">
<title>Resultado</title>
<polygon fill="none" stroke="none" points="328.5,-36 220.25,-36 220.25,0 328.5,0 328.5,-36"/>
<text xml:space="preserve" text-anchor="middle" x="274.38" y="-13.9" font-family="Lato" font-size="13.00">Valor de retorno</text>
</g>
<!-- Función&#45;&gt;Resultado -->
<g id="edge2" class="edge">
<title>Función&#45;&gt;Resultado</title>
<path fill="none" stroke="black" d="M184.71,-18C192.28,-18 200.68,-18 209.21,-18"/>
<polygon fill="black" stroke="black" points="208.92,-21.5 218.92,-18 208.92,-14.5 208.92,-21.5"/>
</g>
</g>
</svg>
