<?xml version="1.0" encoding="UTF-8" standalone="no"?>
<!DOCTYPE svg PUBLIC "-//W3C//DTD SVG 1.1//EN"
 "http://www.w3.org/Graphics/SVG/1.1/DTD/svg11.dtd">
<!-- Generated by graphviz version 14.0.5 (0)
 -->
<!-- Pages: 1 -->
<svg width="336pt" height="44pt"
 viewBox="0.00 0.00 336.00 44.00" xmlns="http://www.w3.org/2000/svg" xmlns:xlink="http://www.w3.org/1999/xlink">
<g id="graph0" class="graph" transform="scale(1 1) rotate(0) translate(4 40)">
<!-- Argumentos -->
<g id="node1" class="node">
<title>Argumentos</title>
<polygon fill="none" stroke="none" points="85,-36 0,-36 0,0 85,0 85,-36"/>
<text xml:space="preserve" text-anchor="middle" x="42.5" y="-13.45" font-family="Lato" font-size="13.00">Argumentos</text>
</g>
<!-- Función -->
<g id="node3" class="node">
<title>Función</title>
<polygon fill="white" stroke="black" points="182,-36 121,-36 121,0 182,0 182,-36"/>
<text xml:space="preserve" text-anchor="middle" x="151.5" y="-13.45" font-family="Lato" font-size="13.00">Función</text>
</g>
<!-- Argumentos&#45;&gt;Función -->
<g id="edge1" class="edge">
<title>Argumentos&#45;&gt;Función</title>
<path fill="none" stroke="black" d="M84.87,-18C92.85,-18 101.21,-18 109.19,-18"/>
<polygon fill="black" stroke="black" points="109.01,-21.5 119.01,-18 109.01,-14.5 109.01,-21.5"/>
</g>
<!-- Resultado -->
<g id="node2" class="node">
<title>Resultado</title>
<polygon fill="none" stroke="none" points="328,-36 218,-36 218,0 328,0 328,-36"/>
<text xml:space="preserve" text-anchor="middle" x="273" y="-13.45" font-family="Lato" font-size="13.00">Valor de retorno</text>
</g>
<!-- Función&#45;&gt;Resultado -->
<g id="edge2" class="edge">
<title>Función&#45;&gt;Resultado</title>
<path fill="none" stroke="black" d="M182.35,-18C189.94,-18 198.4,-18 207.01,-18"/>
<polygon fill="black" stroke="black" points="206.84,-21.5 216.84,-18 206.84,-14.5 206.84,-21.5"/>
</g>
</g>
</svg>
