<?xml version="1.0" encoding="UTF-8" standalone="no"?>
<!DOCTYPE svg PUBLIC "-//W3C//DTD SVG 1.1//EN"
 "http://www.w3.org/Graphics/SVG/1.1/DTD/svg11.dtd">
<!-- Generated by graphviz version 2.43.0 (0)
 -->
<!-- Title: %3 Pages: 1 -->
<svg width="472pt" height="58pt"
 viewBox="0.00 0.00 472.00 58.00" xmlns="http://www.w3.org/2000/svg" xmlns:xlink="http://www.w3.org/1999/xlink">
<g id="graph0" class="graph" transform="scale(1 1) rotate(0) translate(4 54)">
<title>%3</title>
<!-- ExteriorE -->
<g id="node1" class="node">
<title>ExteriorE</title>
<polygon fill="transparent" stroke="transparent" points="159,-50 0,-50 0,0 159,0 159,-50"/>
<text text-anchor="middle" x="79.5" y="-35.6" font-family="Lato" font-size="13.00">Entrada desde el exterior</text>
<text text-anchor="middle" x="79.5" y="-21.6" font-family="Lato" font-size="13.00">(Consola, archivos,</text>
<text text-anchor="middle" x="79.5" y="-7.6" font-family="Lato" font-size="13.00">línea de órdenes, GUI...)</text>
</g>
<!-- Programa -->
<g id="node3" class="node">
<title>Programa</title>
<polygon fill="white" stroke="black" points="266,-43 195,-43 195,-7 266,-7 266,-43"/>
<text text-anchor="middle" x="230.5" y="-21.6" font-family="Lato" font-size="13.00">Programa</text>
</g>
<!-- ExteriorE&#45;&gt;Programa -->
<g id="edge1" class="edge">
<title>ExteriorE&#45;&gt;Programa</title>
<path fill="none" stroke="black" d="M159.36,-25C168,-25 176.56,-25 184.58,-25"/>
<polygon fill="black" stroke="black" points="184.76,-28.5 194.76,-25 184.76,-21.5 184.76,-28.5"/>
</g>
<!-- ExteriorS -->
<g id="node2" class="node">
<title>ExteriorS</title>
<polygon fill="transparent" stroke="transparent" points="464,-43 302,-43 302,-7 464,-7 464,-43"/>
<text text-anchor="middle" x="383" y="-28.6" font-family="Lato" font-size="13.00">Salida al exterior</text>
<text text-anchor="middle" x="383" y="-14.6" font-family="Lato" font-size="13.00">(Consola, archivos, GUI...)</text>
</g>
<!-- Programa&#45;&gt;ExteriorS -->
<g id="edge2" class="edge">
<title>Programa&#45;&gt;ExteriorS</title>
<path fill="none" stroke="black" d="M266.03,-25C273.99,-25 282.83,-25 291.97,-25"/>
<polygon fill="black" stroke="black" points="291.98,-28.5 301.98,-25 291.98,-21.5 291.98,-28.5"/>
</g>
</g>
</svg>
