<?xml version="1.0" encoding="UTF-8" standalone="no"?>
<!DOCTYPE svg PUBLIC "-//W3C//DTD SVG 1.1//EN"
 "http://www.w3.org/Graphics/SVG/1.1/DTD/svg11.dtd">
<!-- Generated by graphviz version 14.1.1 (0)
 -->
<!-- Pages: 1 -->
<svg width="492pt" height="179pt"
 viewBox="0.00 0.00 492.00 179.00" xmlns="http://www.w3.org/2000/svg" xmlns:xlink="http://www.w3.org/1999/xlink">
<g id="graph0" class="graph" transform="scale(1 1) rotate(0) translate(4 175.25)">
<!-- VariablesNoLocales -->
<g id="node1" class="node">
<title>VariablesNoLocales</title>
<polygon fill="none" stroke="none" points="134.88,-149.5 7.12,-149.5 7.12,-113.5 134.88,-113.5 134.88,-149.5"/>
<text xml:space="preserve" text-anchor="middle" x="71" y="-127.4" font-family="Lato" font-size="13.00">Variables no locales</text>
</g>
<!-- Función -->
<g id="node5" class="node">
<title>Función</title>
<polygon fill="white" stroke="black" points="289.62,-95.5 227.88,-95.5 227.88,-59.5 289.62,-59.5 289.62,-95.5"/>
<text xml:space="preserve" text-anchor="middle" x="258.75" y="-73.4" font-family="Lato" font-size="13.00">Función</text>
</g>
<!-- VariablesNoLocales&#45;&gt;Función -->
<g id="edge4" class="edge">
<title>VariablesNoLocales&#45;&gt;Función</title>
<path fill="none" stroke="black" d="M144.72,-110.36C169.11,-103.27 195.45,-95.61 216.56,-89.47"/>
<polygon fill="black" stroke="black" points="143.93,-106.94 135.31,-113.1 145.88,-113.67 143.93,-106.94"/>
<polygon fill="black" stroke="black" points="217.31,-92.9 225.94,-86.75 215.36,-86.18 217.31,-92.9"/>
</g>
<!-- ArgumentosMutables -->
<g id="node2" class="node">
<title>ArgumentosMutables</title>
<polygon fill="none" stroke="none" points="142,-41.5 0,-41.5 0,-5.5 142,-5.5 142,-41.5"/>
<text xml:space="preserve" text-anchor="middle" x="71" y="-19.4" font-family="Lato" font-size="13.00">Argumentos mutables</text>
</g>
<!-- Argumentos -->
<g id="node3" class="node">
<title>Argumentos</title>
<polygon fill="none" stroke="none" points="114.25,-95.5 27.75,-95.5 27.75,-59.5 114.25,-59.5 114.25,-95.5"/>
<text xml:space="preserve" text-anchor="middle" x="71" y="-73.4" font-family="Lato" font-size="13.00">Argumentos</text>
</g>
<!-- Argumentos&#45;&gt;Función -->
<g id="edge1" class="edge">
<title>Argumentos&#45;&gt;Función</title>
<path fill="none" stroke="black" d="M114.15,-77.5C144.67,-77.5 185.74,-77.5 216.14,-77.5"/>
<polygon fill="black" stroke="black" points="216.11,-81 226.11,-77.5 216.11,-74 216.11,-81"/>
</g>
<!-- Resultado -->
<g id="node4" class="node">
<title>Resultado</title>
<polygon fill="none" stroke="none" points="483.75,-95.5 375.5,-95.5 375.5,-59.5 483.75,-59.5 483.75,-95.5"/>
<text xml:space="preserve" text-anchor="middle" x="429.62" y="-73.4" font-family="Lato" font-size="13.00">Valor de retorno</text>
</g>
<!-- Función&#45;&gt;ArgumentosMutables -->
<g id="edge3" class="edge">
<title>Función&#45;&gt;ArgumentosMutables</title>
<path fill="none" stroke="black" d="M216.56,-65.53C195.45,-59.39 169.11,-51.73 144.72,-44.64"/>
<polygon fill="black" stroke="black" points="215.36,-68.82 225.94,-68.25 217.31,-62.1 215.36,-68.82"/>
<polygon fill="black" stroke="black" points="145.88,-41.33 135.31,-41.9 143.93,-48.06 145.88,-41.33"/>
</g>
<!-- Función&#45;&gt;Resultado -->
<g id="edge2" class="edge">
<title>Función&#45;&gt;Resultado</title>
<path fill="none" stroke="black" d="M289.94,-77.5C310.68,-77.5 339,-77.5 364.64,-77.5"/>
<polygon fill="black" stroke="black" points="364.3,-81 374.3,-77.5 364.3,-74 364.3,-81"/>
</g>
<!-- ExteriorS -->
<g id="node7" class="node">
<title>ExteriorS</title>
<polygon fill="none" stroke="none" points="339.5,-41 178,-41 178,0 339.5,0 339.5,-41"/>
<text xml:space="preserve" text-anchor="middle" x="258.75" y="-24.65" font-family="Lato" font-size="13.00">Salida al exterior</text>
<text xml:space="preserve" text-anchor="middle" x="258.75" y="-8.15" font-family="Lato" font-size="13.00">(Consola, archivos, GUI...)</text>
</g>
<!-- Función&#45;&gt;ExteriorS -->
<g id="edge6" class="edge">
<title>Función&#45;&gt;ExteriorS</title>
<path fill="none" stroke="black" d="M258.75,-59.24C258.75,-56.96 258.75,-54.68 258.75,-52.4"/>
<polygon fill="black" stroke="black" points="262.25,-52.5 258.75,-42.5 255.25,-52.5 262.25,-52.5"/>
</g>
<!-- ExteriorE -->
<g id="node6" class="node">
<title>ExteriorE</title>
<polygon fill="none" stroke="none" points="338,-171.25 179.5,-171.25 179.5,-113.75 338,-113.75 338,-171.25"/>
<text xml:space="preserve" text-anchor="middle" x="258.75" y="-154.9" font-family="Lato" font-size="13.00">Entrada desde el exterior</text>
<text xml:space="preserve" text-anchor="middle" x="258.75" y="-138.4" font-family="Lato" font-size="13.00">(Consola, archivos,</text>
<text xml:space="preserve" text-anchor="middle" x="258.75" y="-121.9" font-family="Lato" font-size="13.00">línea de órdenes, GUI...)</text>
</g>
<!-- ExteriorE&#45;&gt;Función -->
<g id="edge5" class="edge">
<title>ExteriorE&#45;&gt;Función</title>
<path fill="none" stroke="black" d="M258.75,-114.03C258.75,-111.75 258.75,-109.47 258.75,-107.19"/>
<polygon fill="black" stroke="black" points="262.25,-107.29 258.75,-97.29 255.25,-107.29 262.25,-107.29"/>
</g>
</g>
</svg>
