<?xml version="1.0" encoding="UTF-8" standalone="no"?>
<!DOCTYPE svg PUBLIC "-//W3C//DTD SVG 1.1//EN"
 "http://www.w3.org/Graphics/SVG/1.1/DTD/svg11.dtd">
<!-- Generated by graphviz version 2.43.0 (0)
 -->
<!-- Title: %3 Pages: 1 -->
<svg width="494pt" height="166pt"
 viewBox="0.00 0.00 494.00 166.00" xmlns="http://www.w3.org/2000/svg" xmlns:xlink="http://www.w3.org/1999/xlink">
<g id="graph0" class="graph" transform="scale(1 1) rotate(0) translate(4 162)">
<title>%3</title>
<!-- VariablesNoLocales -->
<g id="node1" class="node">
<title>VariablesNoLocales</title>
<polygon fill="transparent" stroke="transparent" points="135.5,-144 7.5,-144 7.5,-108 135.5,-108 135.5,-144"/>
<text text-anchor="middle" x="71.5" y="-122.6" font-family="Lato" font-size="13.00">Variables no locales</text>
</g>
<!-- Función -->
<g id="node5" class="node">
<title>Función</title>
<polygon fill="white" stroke="black" points="291,-90 229,-90 229,-54 291,-54 291,-90"/>
<text text-anchor="middle" x="260" y="-68.6" font-family="Lato" font-size="13.00">Función</text>
</g>
<!-- VariablesNoLocales&#45;&gt;Función -->
<g id="edge4" class="edge">
<title>VariablesNoLocales&#45;&gt;Función</title>
<path fill="none" stroke="black" d="M144.66,-105.11C169.92,-97.79 197.36,-89.85 219.03,-83.57"/>
<polygon fill="black" stroke="black" points="143.49,-101.8 134.86,-107.94 145.44,-108.52 143.49,-101.8"/>
<polygon fill="black" stroke="black" points="220.23,-86.87 228.86,-80.73 218.28,-80.15 220.23,-86.87"/>
</g>
<!-- ArgumentosMutables -->
<g id="node2" class="node">
<title>ArgumentosMutables</title>
<polygon fill="transparent" stroke="transparent" points="143,-36 0,-36 0,0 143,0 143,-36"/>
<text text-anchor="middle" x="71.5" y="-14.6" font-family="Lato" font-size="13.00">Argumentos mutables</text>
</g>
<!-- Argumentos -->
<g id="node3" class="node">
<title>Argumentos</title>
<polygon fill="transparent" stroke="transparent" points="115,-90 28,-90 28,-54 115,-54 115,-90"/>
<text text-anchor="middle" x="71.5" y="-68.6" font-family="Lato" font-size="13.00">Argumentos</text>
</g>
<!-- Argumentos&#45;&gt;Función -->
<g id="edge1" class="edge">
<title>Argumentos&#45;&gt;Función</title>
<path fill="none" stroke="black" d="M115.29,-72C146.36,-72 188.13,-72 218.63,-72"/>
<polygon fill="black" stroke="black" points="218.91,-75.5 228.91,-72 218.91,-68.5 218.91,-75.5"/>
</g>
<!-- Resultado -->
<g id="node4" class="node">
<title>Resultado</title>
<polygon fill="transparent" stroke="transparent" points="486,-90 377,-90 377,-54 486,-54 486,-90"/>
<text text-anchor="middle" x="431.5" y="-68.6" font-family="Lato" font-size="13.00">Valor de retorno</text>
</g>
<!-- Función&#45;&gt;ArgumentosMutables -->
<g id="edge3" class="edge">
<title>Función&#45;&gt;ArgumentosMutables</title>
<path fill="none" stroke="black" d="M219.03,-60.43C197.36,-54.15 169.92,-46.21 144.66,-38.89"/>
<polygon fill="black" stroke="black" points="218.28,-63.85 228.86,-63.27 220.23,-57.13 218.28,-63.85"/>
<polygon fill="black" stroke="black" points="145.44,-35.48 134.86,-36.06 143.49,-42.2 145.44,-35.48"/>
</g>
<!-- Función&#45;&gt;Resultado -->
<g id="edge2" class="edge">
<title>Función&#45;&gt;Resultado</title>
<path fill="none" stroke="black" d="M291.3,-72C312.24,-72 340.85,-72 366.7,-72"/>
<polygon fill="black" stroke="black" points="366.82,-75.5 376.82,-72 366.82,-68.5 366.82,-75.5"/>
</g>
<!-- ExteriorS -->
<g id="node7" class="node">
<title>ExteriorS</title>
<polygon fill="transparent" stroke="transparent" points="341,-36 179,-36 179,0 341,0 341,-36"/>
<text text-anchor="middle" x="260" y="-21.6" font-family="Lato" font-size="13.00">Salida al exterior</text>
<text text-anchor="middle" x="260" y="-7.6" font-family="Lato" font-size="13.00">(Consola, archivos, GUI...)</text>
</g>
<!-- Función&#45;&gt;ExteriorS -->
<g id="edge6" class="edge">
<title>Función&#45;&gt;ExteriorS</title>
<path fill="none" stroke="black" d="M260,-53.79C260,-51.31 260,-48.83 260,-46.34"/>
<polygon fill="black" stroke="black" points="263.5,-46.14 260,-36.14 256.5,-46.14 263.5,-46.14"/>
</g>
<!-- ExteriorE -->
<g id="node6" class="node">
<title>ExteriorE</title>
<polygon fill="transparent" stroke="transparent" points="339.5,-158 180.5,-158 180.5,-108 339.5,-108 339.5,-158"/>
<text text-anchor="middle" x="260" y="-143.6" font-family="Lato" font-size="13.00">Entrada desde el exterior</text>
<text text-anchor="middle" x="260" y="-129.6" font-family="Lato" font-size="13.00">(Consola, archivos,</text>
<text text-anchor="middle" x="260" y="-115.6" font-family="Lato" font-size="13.00">línea de órdenes, GUI...)</text>
</g>
<!-- ExteriorE&#45;&gt;Función -->
<g id="edge5" class="edge">
<title>ExteriorE&#45;&gt;Función</title>
<path fill="none" stroke="black" d="M260,-107.87C260,-105.37 260,-102.87 260,-100.38"/>
<polygon fill="black" stroke="black" points="263.5,-100.11 260,-90.11 256.5,-100.11 263.5,-100.11"/>
</g>
</g>
</svg>
