<?xml version="1.0" encoding="UTF-8" standalone="no"?>
<!DOCTYPE svg PUBLIC "-//W3C//DTD SVG 1.1//EN"
 "http://www.w3.org/Graphics/SVG/1.1/DTD/svg11.dtd">
<!-- Generated by graphviz version 14.1.1 (0)
 -->
<!-- Pages: 1 -->
<svg width="524pt" height="44pt"
 viewBox="0.00 0.00 524.00 44.00" xmlns="http://www.w3.org/2000/svg" xmlns:xlink="http://www.w3.org/1999/xlink">
<g id="graph0" class="graph" transform="scale(1 1) rotate(0) translate(4 40)">
<!-- E -->
<g id="node1" class="node">
<title>E</title>
<polygon fill="white" stroke="black" points="0,-5.75 0,-30.25 125,-30.25 125,-5.75 0,-5.75"/>
<text xml:space="preserve" text-anchor="middle" x="15.5" y="-13.9" font-family="monospace" font-size="13.00">\n</text>
<polyline fill="none" stroke="black" points="31,-5.75 31,-30.25"/>
<text xml:space="preserve" text-anchor="middle" x="42.75" y="-13.9" font-family="monospace" font-size="13.00">e</text>
<polyline fill="none" stroke="black" points="54.5,-5.75 54.5,-30.25"/>
<text xml:space="preserve" text-anchor="middle" x="66.25" y="-13.9" font-family="monospace" font-size="13.00">p</text>
<polyline fill="none" stroke="black" points="78,-5.75 78,-30.25"/>
<text xml:space="preserve" text-anchor="middle" x="89.75" y="-13.9" font-family="monospace" font-size="13.00">e</text>
<polyline fill="none" stroke="black" points="101.5,-5.75 101.5,-30.25"/>
<text xml:space="preserve" text-anchor="middle" x="113.25" y="-13.9" font-family="monospace" font-size="13.00">P</text>
</g>
<!-- Programa -->
<g id="node3" class="node">
<title>Programa</title>
<polygon fill="white" stroke="black" points="237,-36 161,-36 161,0 237,0 237,-36"/>
<text xml:space="preserve" text-anchor="middle" x="199" y="-13.9" font-family="monospace" font-size="13.00">Programa</text>
</g>
<!-- E&#45;&gt;Programa -->
<g id="edge1" class="edge">
<title>E&#45;&gt;Programa</title>
<path fill="none" stroke="black" d="M125.24,-18C133.41,-18 141.68,-18 149.58,-18"/>
<polygon fill="black" stroke="black" points="149.31,-21.5 159.31,-18 149.31,-14.5 149.31,-21.5"/>
</g>
<!-- S -->
<g id="node2" class="node">
<title>S</title>
<polygon fill="white" stroke="black" points="273,-5.75 273,-30.25 515.5,-30.25 515.5,-5.75 273,-5.75"/>
<text xml:space="preserve" text-anchor="middle" x="288.5" y="-13.9" font-family="monospace" font-size="13.00">\n</text>
<polyline fill="none" stroke="black" points="304,-5.75 304,-30.25"/>
<text xml:space="preserve" text-anchor="middle" x="315.75" y="-13.9" font-family="monospace" font-size="13.00">e</text>
<polyline fill="none" stroke="black" points="327.5,-5.75 327.5,-30.25"/>
<text xml:space="preserve" text-anchor="middle" x="339.25" y="-13.9" font-family="monospace" font-size="13.00">p</text>
<polyline fill="none" stroke="black" points="351,-5.75 351,-30.25"/>
<text xml:space="preserve" text-anchor="middle" x="362.75" y="-13.9" font-family="monospace" font-size="13.00">e</text>
<polyline fill="none" stroke="black" points="374.5,-5.75 374.5,-30.25"/>
<text xml:space="preserve" text-anchor="middle" x="386.25" y="-13.9" font-family="monospace" font-size="13.00">P</text>
<polyline fill="none" stroke="black" points="398,-5.75 398,-30.25"/>
<text xml:space="preserve" text-anchor="middle" x="409.75" y="-13.9" font-family="monospace" font-size="13.00"> </text>
<polyline fill="none" stroke="black" points="421.5,-5.75 421.5,-30.25"/>
<text xml:space="preserve" text-anchor="middle" x="433.25" y="-13.9" font-family="monospace" font-size="13.00">a</text>
<polyline fill="none" stroke="black" points="445,-5.75 445,-30.25"/>
<text xml:space="preserve" text-anchor="middle" x="456.75" y="-13.9" font-family="monospace" font-size="13.00">l</text>
<polyline fill="none" stroke="black" points="468.5,-5.75 468.5,-30.25"/>
<text xml:space="preserve" text-anchor="middle" x="480.25" y="-13.9" font-family="monospace" font-size="13.00">o</text>
<polyline fill="none" stroke="black" points="492,-5.75 492,-30.25"/>
<text xml:space="preserve" text-anchor="middle" x="503.75" y="-13.9" font-family="monospace" font-size="13.00">H</text>
</g>
<!-- Programa&#45;&gt;S -->
<g id="edge2" class="edge">
<title>Programa&#45;&gt;S</title>
<path fill="none" stroke="black" d="M237.26,-18C244.58,-18 252.65,-18 261.13,-18"/>
<polygon fill="black" stroke="black" points="261,-21.5 271,-18 261,-14.5 261,-21.5"/>
</g>
</g>
</svg>
