<?xml version="1.0" encoding="UTF-8" standalone="no"?>
<!DOCTYPE svg PUBLIC "-//W3C//DTD SVG 1.1//EN"
 "http://www.w3.org/Graphics/SVG/1.1/DTD/svg11.dtd">
<!-- Generated by graphviz version 2.43.0 (0)
 -->
<!-- Title: %3 Pages: 1 -->
<svg width="533pt" height="44pt"
 viewBox="0.00 0.00 533.00 44.00" xmlns="http://www.w3.org/2000/svg" xmlns:xlink="http://www.w3.org/1999/xlink">
<g id="graph0" class="graph" transform="scale(1 1) rotate(0) translate(4 40)">
<title>%3</title>
<!-- E -->
<g id="node1" class="node">
<title>E</title>
<polygon fill="white" stroke="black" points="0,-7 0,-29 128,-29 128,-7 0,-7"/>
<text text-anchor="middle" x="16" y="-14.6" font-family="monospace" font-size="13.00">\n</text>
<polyline fill="none" stroke="black" points="32,-7 32,-29 "/>
<text text-anchor="middle" x="44" y="-14.6" font-family="monospace" font-size="13.00">e</text>
<polyline fill="none" stroke="black" points="56,-7 56,-29 "/>
<text text-anchor="middle" x="68" y="-14.6" font-family="monospace" font-size="13.00">p</text>
<polyline fill="none" stroke="black" points="80,-7 80,-29 "/>
<text text-anchor="middle" x="92" y="-14.6" font-family="monospace" font-size="13.00">e</text>
<polyline fill="none" stroke="black" points="104,-7 104,-29 "/>
<text text-anchor="middle" x="116" y="-14.6" font-family="monospace" font-size="13.00">P</text>
</g>
<!-- Programa -->
<g id="node3" class="node">
<title>Programa</title>
<polygon fill="white" stroke="black" points="241,-36 164,-36 164,0 241,0 241,-36"/>
<text text-anchor="middle" x="202.5" y="-14.6" font-family="monospace" font-size="13.00">Programa</text>
</g>
<!-- E&#45;&gt;Programa -->
<g id="edge1" class="edge">
<title>E&#45;&gt;Programa</title>
<path fill="none" stroke="black" d="M128.06,-18C136.6,-18 145.26,-18 153.48,-18"/>
<polygon fill="black" stroke="black" points="153.63,-21.5 163.63,-18 153.63,-14.5 153.63,-21.5"/>
</g>
<!-- S -->
<g id="node2" class="node">
<title>S</title>
<polygon fill="white" stroke="black" points="277,-7 277,-29 525,-29 525,-7 277,-7"/>
<text text-anchor="middle" x="293" y="-14.6" font-family="monospace" font-size="13.00">\n</text>
<polyline fill="none" stroke="black" points="309,-7 309,-29 "/>
<text text-anchor="middle" x="321" y="-14.6" font-family="monospace" font-size="13.00">e</text>
<polyline fill="none" stroke="black" points="333,-7 333,-29 "/>
<text text-anchor="middle" x="345" y="-14.6" font-family="monospace" font-size="13.00">p</text>
<polyline fill="none" stroke="black" points="357,-7 357,-29 "/>
<text text-anchor="middle" x="369" y="-14.6" font-family="monospace" font-size="13.00">e</text>
<polyline fill="none" stroke="black" points="381,-7 381,-29 "/>
<text text-anchor="middle" x="393" y="-14.6" font-family="monospace" font-size="13.00">P</text>
<polyline fill="none" stroke="black" points="405,-7 405,-29 "/>
<text text-anchor="middle" x="417" y="-14.6" font-family="monospace" font-size="13.00"> </text>
<polyline fill="none" stroke="black" points="429,-7 429,-29 "/>
<text text-anchor="middle" x="441" y="-14.6" font-family="monospace" font-size="13.00">a</text>
<polyline fill="none" stroke="black" points="453,-7 453,-29 "/>
<text text-anchor="middle" x="465" y="-14.6" font-family="monospace" font-size="13.00">l</text>
<polyline fill="none" stroke="black" points="477,-7 477,-29 "/>
<text text-anchor="middle" x="489" y="-14.6" font-family="monospace" font-size="13.00">o</text>
<polyline fill="none" stroke="black" points="501,-7 501,-29 "/>
<text text-anchor="middle" x="513" y="-14.6" font-family="monospace" font-size="13.00">H</text>
</g>
<!-- Programa&#45;&gt;S -->
<g id="edge2" class="edge">
<title>Programa&#45;&gt;S</title>
<path fill="none" stroke="black" d="M241.39,-18C249.08,-18 257.59,-18 266.54,-18"/>
<polygon fill="black" stroke="black" points="266.83,-21.5 276.83,-18 266.83,-14.5 266.83,-21.5"/>
</g>
</g>
</svg>
