<?xml version="1.0" encoding="UTF-8" standalone="no"?>
<!DOCTYPE svg PUBLIC "-//W3C//DTD SVG 1.1//EN"
 "http://www.w3.org/Graphics/SVG/1.1/DTD/svg11.dtd">
<!-- Generated by graphviz version 14.0.5 (0)
 -->
<!-- Pages: 1 -->
<svg width="515pt" height="44pt"
 viewBox="0.00 0.00 515.00 44.00" xmlns="http://www.w3.org/2000/svg" xmlns:xlink="http://www.w3.org/1999/xlink">
<g id="graph0" class="graph" transform="scale(1 1) rotate(0) translate(4 40)">
<!-- E -->
<g id="node1" class="node">
<title>E</title>
<polygon fill="white" stroke="black" points="0,-6.2 0,-29.8 121,-29.8 121,-6.2 0,-6.2"/>
<text xml:space="preserve" text-anchor="middle" x="15.5" y="-13.45" font-family="monospace" font-size="13.00">\n</text>
<polyline fill="none" stroke="black" points="31,-6.2 31,-29.8"/>
<text xml:space="preserve" text-anchor="middle" x="42.5" y="-13.45" font-family="monospace" font-size="13.00">e</text>
<polyline fill="none" stroke="black" points="54,-6.2 54,-29.8"/>
<text xml:space="preserve" text-anchor="middle" x="65" y="-13.45" font-family="monospace" font-size="13.00">p</text>
<polyline fill="none" stroke="black" points="76,-6.2 76,-29.8"/>
<text xml:space="preserve" text-anchor="middle" x="87.5" y="-13.45" font-family="monospace" font-size="13.00">e</text>
<polyline fill="none" stroke="black" points="99,-6.2 99,-29.8"/>
<text xml:space="preserve" text-anchor="middle" x="110" y="-13.45" font-family="monospace" font-size="13.00">P</text>
</g>
<!-- Programa -->
<g id="node3" class="node">
<title>Programa</title>
<polygon fill="white" stroke="black" points="235,-36 157,-36 157,0 235,0 235,-36"/>
<text xml:space="preserve" text-anchor="middle" x="196" y="-13.45" font-family="monospace" font-size="13.00">Programa</text>
</g>
<!-- E&#45;&gt;Programa -->
<g id="edge1" class="edge">
<title>E&#45;&gt;Programa</title>
<path fill="none" stroke="black" d="M121.22,-18C129.34,-18 137.59,-18 145.5,-18"/>
<polygon fill="black" stroke="black" points="145.27,-21.5 155.27,-18 145.27,-14.5 145.27,-21.5"/>
</g>
<!-- S -->
<g id="node2" class="node">
<title>S</title>
<polygon fill="white" stroke="black" points="271,-6.2 271,-29.8 507,-29.8 507,-6.2 271,-6.2"/>
<text xml:space="preserve" text-anchor="middle" x="286.5" y="-13.45" font-family="monospace" font-size="13.00">\n</text>
<polyline fill="none" stroke="black" points="302,-6.2 302,-29.8"/>
<text xml:space="preserve" text-anchor="middle" x="313.5" y="-13.45" font-family="monospace" font-size="13.00">e</text>
<polyline fill="none" stroke="black" points="325,-6.2 325,-29.8"/>
<text xml:space="preserve" text-anchor="middle" x="336" y="-13.45" font-family="monospace" font-size="13.00">p</text>
<polyline fill="none" stroke="black" points="347,-6.2 347,-29.8"/>
<text xml:space="preserve" text-anchor="middle" x="358.5" y="-13.45" font-family="monospace" font-size="13.00">e</text>
<polyline fill="none" stroke="black" points="370,-6.2 370,-29.8"/>
<text xml:space="preserve" text-anchor="middle" x="381" y="-13.45" font-family="monospace" font-size="13.00">P</text>
<polyline fill="none" stroke="black" points="392,-6.2 392,-29.8"/>
<text xml:space="preserve" text-anchor="middle" x="403.5" y="-13.45" font-family="monospace" font-size="13.00"> </text>
<polyline fill="none" stroke="black" points="415,-6.2 415,-29.8"/>
<text xml:space="preserve" text-anchor="middle" x="426.5" y="-13.45" font-family="monospace" font-size="13.00">a</text>
<polyline fill="none" stroke="black" points="438,-6.2 438,-29.8"/>
<text xml:space="preserve" text-anchor="middle" x="449.5" y="-13.45" font-family="monospace" font-size="13.00">l</text>
<polyline fill="none" stroke="black" points="461,-6.2 461,-29.8"/>
<text xml:space="preserve" text-anchor="middle" x="472.5" y="-13.45" font-family="monospace" font-size="13.00">o</text>
<polyline fill="none" stroke="black" points="484,-6.2 484,-29.8"/>
<text xml:space="preserve" text-anchor="middle" x="495.5" y="-13.45" font-family="monospace" font-size="13.00">H</text>
</g>
<!-- Programa&#45;&gt;S -->
<g id="edge2" class="edge">
<title>Programa&#45;&gt;S</title>
<path fill="none" stroke="black" d="M235.19,-18C242.61,-18 250.76,-18 259.32,-18"/>
<polygon fill="black" stroke="black" points="259.26,-21.5 269.26,-18 259.26,-14.5 259.26,-21.5"/>
</g>
</g>
</svg>
