<?xml version="1.0" encoding="UTF-8" standalone="no"?>
<!DOCTYPE svg PUBLIC "-//W3C//DTD SVG 1.1//EN"
 "http://www.w3.org/Graphics/SVG/1.1/DTD/svg11.dtd">
<!-- Generated by graphviz version 14.1.1 (0)
 -->
<!-- Pages: 1 -->
<svg width="276pt" height="131pt"
 viewBox="0.00 0.00 276.00 131.00" xmlns="http://www.w3.org/2000/svg" xmlns:xlink="http://www.w3.org/1999/xlink">
<g id="graph0" class="graph" transform="scale(1 1) rotate(0) translate(4 127)">
<g id="clust1" class="cluster">
<title>cluster1</title>
<polygon fill="white" stroke="black" points="49.9,-8 49.9,-115 203.9,-115 203.9,-8 49.9,-8"/>
<text xml:space="preserve" text-anchor="middle" x="126.9" y="-97.7" font-family="Lato" font-size="14.00">Marco global del script</text>
</g>
<!-- mcd -->
<g id="node1" class="node">
<title>mcd</title>
<polygon fill="white" stroke="black" points="95.4,-56.75 95.4,-81.25 157.4,-81.25 157.4,-56.75 95.4,-56.75"/>
<text xml:space="preserve" text-anchor="middle" x="114.65" y="-64.9" font-family="monospace" font-size="13.00">mcd</text>
<polyline fill="none" stroke="black" points="133.9,-56.75 133.9,-81.25"/>
<text xml:space="preserve" text-anchor="middle" x="145.65" y="-63.4" font-family="monospace" font-size="13.00">⬤</text>
</g>
<!-- lambda -->
<g id="node4" class="node">
<title>lambda</title>
<ellipse fill="white" stroke="black" cx="249.9" cy="-75" rx="18" ry="18"/>
<text xml:space="preserve" text-anchor="middle" x="249.9" y="-70.9" font-family="monospace" font-size="13.00">λ</text>
</g>
<!-- mcd&#45;&gt;lambda -->
<g id="edge1" class="edge">
<title>mcd:f1&#45;&gt;lambda</title>
<path fill="none" stroke="black" d="M158.4,-69C179.13,-69 202.46,-70.59 220.25,-72.13"/>
<polygon fill="black" stroke="black" points="219.79,-75.6 230.07,-73.03 220.43,-68.63 219.79,-75.6"/>
</g>
<!-- x -->
<g id="node2" class="node">
<title>x</title>
<polygon fill="white" stroke="black" points="108.4,-16.2 108.4,-37.8 144.4,-37.8 144.4,-16.2 108.4,-16.2"/>
<text xml:space="preserve" text-anchor="middle" x="117.65" y="-22.45" font-family="monospace" font-size="13.00">x</text>
<polyline fill="none" stroke="black" points="126.9,-15.3 126.9,-37.8"/>
<text xml:space="preserve" text-anchor="middle" x="135.65" y="-20.95" font-family="monospace" font-size="13.00">⬤</text>
</g>
<!-- 2 -->
<g id="node3" class="node">
<title>2</title>
<ellipse fill="white" stroke="black" cx="249.9" cy="-21" rx="18" ry="18"/>
<text xml:space="preserve" text-anchor="middle" x="249.9" y="-16.9" font-family="monospace" font-size="13.00">2</text>
</g>
<!-- x&#45;&gt;2 -->
<g id="edge2" class="edge">
<title>x:f1&#45;&gt;2</title>
<path fill="none" stroke="black" d="M145.4,-26.55C170.82,-26.55 199.71,-24.86 220.49,-23.34"/>
<polygon fill="black" stroke="black" points="220.49,-26.86 230.19,-22.6 219.95,-19.88 220.49,-26.86"/>
</g>
<!-- E -->
<g id="node5" class="node">
<title>E</title>
<polygon fill="none" stroke="none" points="21.9,-87 0,-87 0,-51 21.9,-51 21.9,-87"/>
<text xml:space="preserve" text-anchor="middle" x="10.95" y="-64.9" font-family="monospace" font-size="13.00">E</text>
</g>
<!-- E&#45;&gt;mcd -->
<g id="edge3" class="edge">
<title>E&#45;&gt;mcd</title>
<path fill="none" stroke="black" d="M21.62,-69C26.19,-69 32.11,-69 38.82,-69"/>
<polygon fill="black" stroke="black" points="38.39,-72.5 48.39,-69 38.39,-65.5 38.39,-72.5"/>
</g>
</g>
</svg>
