<?xml version="1.0" encoding="UTF-8" standalone="no"?>
<!DOCTYPE svg PUBLIC "-//W3C//DTD SVG 1.1//EN"
 "http://www.w3.org/Graphics/SVG/1.1/DTD/svg11.dtd">
<!-- Generated by graphviz version 2.40.1 (20161225.0304)
 -->
<!-- Title: %3 Pages: 1 -->
<svg width="576pt" height="396pt"
 viewBox="0.00 0.00 576.00 395.90" xmlns="http://www.w3.org/2000/svg" xmlns:xlink="http://www.w3.org/1999/xlink">
<g id="graph0" class="graph" transform="scale(2.5876 2.5876) rotate(0) translate(4 149)">
<title>%3</title>
<g id="clust1" class="cluster">
<title>cluster1</title>
<polygon fill="#ffffff" stroke="#000000" points="31.6,-8 31.6,-137 206.6,-137 206.6,-8 31.6,-8"/>
<text text-anchor="middle" x="119.1" y="-121.8" font-family="Lato" font-size="14.00" fill="#000000">Marco global del script</text>
</g>
<!-- gcd -->
<g id="node1" class="node">
<title>gcd</title>
<polygon fill="transparent" stroke="transparent" points="93.6,-106 39.6,-106 39.6,-70 93.6,-70 93.6,-106"/>
<text text-anchor="middle" x="66.6" y="-84.6" font-family="monospace" font-size="13.00" fill="#000000">gcd</text>
</g>
<!-- función -->
<g id="node4" class="node">
<title>función</title>
<polygon fill="#ffffff" stroke="#000000" points="198.6,-106 129.6,-106 129.6,-70 198.6,-70 198.6,-106"/>
<text text-anchor="middle" x="164.1" y="-84.6" font-family="monospace" font-size="13.00" fill="#000000">función</text>
</g>
<!-- gcd&#45;&gt;función -->
<g id="edge1" class="edge">
<title>gcd&#45;&gt;función</title>
<path fill="none" stroke="#000000" d="M93.7592,-88C101.697,-88 110.5919,-88 119.3163,-88"/>
<polygon fill="#000000" stroke="#000000" points="119.412,-91.5001 129.412,-88 119.4119,-84.5001 119.412,-91.5001"/>
</g>
<!-- x -->
<g id="node2" class="node">
<title>x</title>
<polygon fill="transparent" stroke="transparent" points="93.6,-52 39.6,-52 39.6,-16 93.6,-16 93.6,-52"/>
<text text-anchor="middle" x="66.6" y="-30.6" font-family="monospace" font-size="13.00" fill="#000000">x</text>
</g>
<!-- 2 -->
<g id="node3" class="node">
<title>2</title>
<ellipse fill="#ffffff" stroke="#000000" cx="164.1" cy="-34" rx="18" ry="18"/>
<text text-anchor="middle" x="164.1" y="-30.6" font-family="monospace" font-size="13.00" fill="#000000">2</text>
</g>
<!-- x&#45;&gt;2 -->
<g id="edge2" class="edge">
<title>x&#45;&gt;2</title>
<path fill="none" stroke="#000000" d="M93.7592,-34C106.9196,-34 122.7108,-34 135.994,-34"/>
<polygon fill="#000000" stroke="#000000" points="136.0109,-37.5001 146.0109,-34 136.0108,-30.5001 136.0109,-37.5001"/>
</g>
<!-- E -->
<g id="node5" class="node">
<title>E</title>
<ellipse fill="#ffffff" stroke="#000000" cx="1.8" cy="-88" rx="1.8" ry="1.8"/>
</g>
<!-- E&#45;&gt;gcd -->
<g id="edge3" class="edge">
<title>E&#45;&gt;gcd</title>
<path fill="none" stroke="#000000" d="M3.6695,-88C7.7685,-88 18.0715,-88 29.1814,-88"/>
<polygon fill="#000000" stroke="#000000" points="21.6001,-91.5004 31.6,-88 21.5999,-84.5004 21.6001,-91.5004"/>
</g>
</g>
</svg>
