<?xml version="1.0" encoding="UTF-8" standalone="no"?>
<!DOCTYPE svg PUBLIC "-//W3C//DTD SVG 1.1//EN"
 "http://www.w3.org/Graphics/SVG/1.1/DTD/svg11.dtd">
<!-- Generated by graphviz version 2.43.0 (0)
 -->
<!-- Title: %3 Pages: 1 -->
<svg width="259pt" height="153pt"
 viewBox="0.00 0.00 258.60 153.00" xmlns="http://www.w3.org/2000/svg" xmlns:xlink="http://www.w3.org/1999/xlink">
<g id="graph0" class="graph" transform="scale(1 1) rotate(0) translate(4 149)">
<title>%3</title>
<g id="clust1" class="cluster">
<title>cluster1</title>
<polygon fill="white" stroke="black" points="31.6,-8 31.6,-137 186.6,-137 186.6,-8 31.6,-8"/>
<text text-anchor="middle" x="109.1" y="-121.8" font-family="Lato" font-size="14.00">Marco global del script</text>
</g>
<!-- mcd -->
<g id="node1" class="node">
<title>mcd</title>
<polygon fill="transparent" stroke="transparent" points="135.6,-106 81.6,-106 81.6,-70 135.6,-70 135.6,-106"/>
<text text-anchor="middle" x="108.6" y="-84.6" font-family="monospace" font-size="13.00">mcd</text>
</g>
<!-- lambda -->
<g id="node4" class="node">
<title>lambda</title>
<ellipse fill="white" stroke="black" cx="232.6" cy="-88" rx="18" ry="18"/>
<text text-anchor="middle" x="232.6" y="-84.6" font-family="monospace" font-size="13.00">λ</text>
</g>
<!-- mcd&#45;&gt;lambda -->
<g id="edge1" class="edge">
<title>mcd&#45;&gt;lambda</title>
<path fill="none" stroke="black" d="M135.77,-88C155.95,-88 183.78,-88 204.25,-88"/>
<polygon fill="black" stroke="black" points="204.48,-91.5 214.48,-88 204.48,-84.5 204.48,-91.5"/>
</g>
<!-- x -->
<g id="node2" class="node">
<title>x</title>
<polygon fill="transparent" stroke="transparent" points="135.6,-52 81.6,-52 81.6,-16 135.6,-16 135.6,-52"/>
<text text-anchor="middle" x="108.6" y="-30.6" font-family="monospace" font-size="13.00">x</text>
</g>
<!-- 2 -->
<g id="node3" class="node">
<title>2</title>
<ellipse fill="white" stroke="black" cx="232.6" cy="-34" rx="18" ry="18"/>
<text text-anchor="middle" x="232.6" y="-30.6" font-family="monospace" font-size="13.00">2</text>
</g>
<!-- x&#45;&gt;2 -->
<g id="edge2" class="edge">
<title>x&#45;&gt;2</title>
<path fill="none" stroke="black" d="M135.77,-34C155.95,-34 183.78,-34 204.25,-34"/>
<polygon fill="black" stroke="black" points="204.48,-37.5 214.48,-34 204.48,-30.5 204.48,-37.5"/>
</g>
<!-- E -->
<g id="node5" class="node">
<title>E</title>
<ellipse fill="white" stroke="black" cx="1.8" cy="-88" rx="1.8" ry="1.8"/>
</g>
<!-- E&#45;&gt;mcd -->
<g id="edge3" class="edge">
<title>E&#45;&gt;mcd</title>
<path fill="none" stroke="black" d="M3.98,-88C6.52,-88 13.01,-88 21.58,-88"/>
<polygon fill="black" stroke="black" points="21.6,-91.5 31.6,-88 21.6,-84.5 21.6,-91.5"/>
</g>
</g>
</svg>
