<?xml version="1.0" encoding="UTF-8" standalone="no"?>
<!DOCTYPE svg PUBLIC "-//W3C//DTD SVG 1.1//EN"
 "http://www.w3.org/Graphics/SVG/1.1/DTD/svg11.dtd">
<!-- Generated by graphviz version 2.43.0 (0)
 -->
<!-- Title: %3 Pages: 1 -->
<svg width="223pt" height="153pt"
 viewBox="0.00 0.00 222.60 153.00" xmlns="http://www.w3.org/2000/svg" xmlns:xlink="http://www.w3.org/1999/xlink">
<g id="graph0" class="graph" transform="scale(1 1) rotate(0) translate(4 149)">
<title>%3</title>
<g id="clust1" class="cluster">
<title>cluster1</title>
<polygon fill="white" stroke="black" points="31.6,-8 31.6,-137 206.6,-137 206.6,-8 31.6,-8"/>
<text text-anchor="middle" x="119.1" y="-121.8" font-family="Lato" font-size="14.00">Marco global del script</text>
</g>
<!-- gcd -->
<g id="node1" class="node">
<title>gcd</title>
<polygon fill="transparent" stroke="transparent" points="93.6,-106 39.6,-106 39.6,-70 93.6,-70 93.6,-106"/>
<text text-anchor="middle" x="66.6" y="-84.6" font-family="monospace" font-size="13.00">gcd</text>
</g>
<!-- función -->
<g id="node4" class="node">
<title>función</title>
<polygon fill="white" stroke="black" points="198.6,-106 129.6,-106 129.6,-70 198.6,-70 198.6,-106"/>
<text text-anchor="middle" x="164.1" y="-84.6" font-family="monospace" font-size="13.00">función</text>
</g>
<!-- gcd&#45;&gt;función -->
<g id="edge1" class="edge">
<title>gcd&#45;&gt;función</title>
<path fill="none" stroke="black" d="M93.7,-88C101.63,-88 110.59,-88 119.36,-88"/>
<polygon fill="black" stroke="black" points="119.5,-91.5 129.5,-88 119.5,-84.5 119.5,-91.5"/>
</g>
<!-- x -->
<g id="node2" class="node">
<title>x</title>
<polygon fill="transparent" stroke="transparent" points="93.6,-52 39.6,-52 39.6,-16 93.6,-16 93.6,-52"/>
<text text-anchor="middle" x="66.6" y="-30.6" font-family="monospace" font-size="13.00">x</text>
</g>
<!-- 2 -->
<g id="node3" class="node">
<title>2</title>
<ellipse fill="white" stroke="black" cx="164.1" cy="-34" rx="18" ry="18"/>
<text text-anchor="middle" x="164.1" y="-30.6" font-family="monospace" font-size="13.00">2</text>
</g>
<!-- x&#45;&gt;2 -->
<g id="edge2" class="edge">
<title>x&#45;&gt;2</title>
<path fill="none" stroke="black" d="M93.7,-34C106.73,-34 122.48,-34 135.69,-34"/>
<polygon fill="black" stroke="black" points="136.07,-37.5 146.07,-34 136.07,-30.5 136.07,-37.5"/>
</g>
<!-- E -->
<g id="node5" class="node">
<title>E</title>
<ellipse fill="white" stroke="black" cx="1.8" cy="-88" rx="1.8" ry="1.8"/>
</g>
<!-- E&#45;&gt;gcd -->
<g id="edge3" class="edge">
<title>E&#45;&gt;gcd</title>
<path fill="none" stroke="black" d="M3.89,-88C7.24,-88 17.86,-88 29.37,-88"/>
<polygon fill="black" stroke="black" points="21.6,-91.5 31.6,-88 21.6,-84.5 21.6,-91.5"/>
</g>
</g>
</svg>
