<?xml version="1.0" encoding="UTF-8" standalone="no"?>
<!DOCTYPE svg PUBLIC "-//W3C//DTD SVG 1.1//EN"
 "http://www.w3.org/Graphics/SVG/1.1/DTD/svg11.dtd">
<!-- Generated by graphviz version 2.43.0 (0)
 -->
<!-- Title: %3 Pages: 1 -->
<svg width="259pt" height="128pt"
 viewBox="0.00 0.00 258.60 128.00" xmlns="http://www.w3.org/2000/svg" xmlns:xlink="http://www.w3.org/1999/xlink">
<g id="graph0" class="graph" transform="scale(1 1) rotate(0) translate(4 124)">
<title>%3</title>
<g id="clust1" class="cluster">
<title>cluster1</title>
<polygon fill="white" stroke="black" points="31.6,-8 31.6,-112 186.6,-112 186.6,-8 31.6,-8"/>
<text text-anchor="middle" x="109.1" y="-96.8" font-family="Lato" font-size="14.00">Marco global del script</text>
</g>
<!-- mcd -->
<g id="node1" class="node">
<title>mcd</title>
<polygon fill="white" stroke="black" points="77.6,-58 77.6,-80 140.6,-80 140.6,-58 77.6,-58"/>
<text text-anchor="middle" x="97.1" y="-65.6" font-family="monospace" font-size="13.00">mcd</text>
<polyline fill="none" stroke="black" points="116.6,-58 116.6,-80 "/>
<text text-anchor="middle" x="128.6" y="-65.6" font-family="monospace" font-size="13.00">⬤</text>
</g>
<!-- lambda -->
<g id="node4" class="node">
<title>lambda</title>
<ellipse fill="white" stroke="black" cx="232.6" cy="-76" rx="18" ry="18"/>
<text text-anchor="middle" x="232.6" y="-72.6" font-family="monospace" font-size="13.00">λ</text>
</g>
<!-- mcd&#45;&gt;lambda -->
<g id="edge1" class="edge">
<title>mcd:f1&#45;&gt;lambda</title>
<path fill="none" stroke="black" d="M142.1,-69C163.01,-69 186.58,-70.92 204.29,-72.75"/>
<polygon fill="black" stroke="black" points="204.15,-76.26 214.47,-73.86 204.91,-69.3 204.15,-76.26"/>
</g>
<!-- x -->
<g id="node2" class="node">
<title>x</title>
<polygon fill="white" stroke="black" points="91.1,-17 91.1,-39 127.1,-39 127.1,-17 91.1,-17"/>
<text text-anchor="middle" x="100.1" y="-24.6" font-family="monospace" font-size="13.00">x</text>
<polyline fill="none" stroke="black" points="109.1,-17 109.1,-39 "/>
<text text-anchor="middle" x="118.1" y="-24.6" font-family="monospace" font-size="13.00">⬤</text>
</g>
<!-- 2 -->
<g id="node3" class="node">
<title>2</title>
<ellipse fill="white" stroke="black" cx="232.6" cy="-22" rx="18" ry="18"/>
<text text-anchor="middle" x="232.6" y="-18.6" font-family="monospace" font-size="13.00">2</text>
</g>
<!-- x&#45;&gt;2 -->
<g id="edge2" class="edge">
<title>x:f1&#45;&gt;2</title>
<path fill="none" stroke="black" d="M128.1,-28C154,-28 183.49,-26.1 204.35,-24.44"/>
<polygon fill="black" stroke="black" points="204.73,-27.92 214.4,-23.61 204.15,-20.95 204.73,-27.92"/>
</g>
<!-- E -->
<g id="node5" class="node">
<title>E</title>
<ellipse fill="white" stroke="black" cx="1.8" cy="-69" rx="1.8" ry="1.8"/>
</g>
<!-- E&#45;&gt;mcd -->
<g id="edge3" class="edge">
<title>E&#45;&gt;mcd</title>
<path fill="none" stroke="black" d="M3.98,-69C6.53,-69 13.02,-69 21.58,-69"/>
<polygon fill="black" stroke="black" points="21.6,-72.5 31.6,-69 21.6,-65.5 21.6,-72.5"/>
</g>
</g>
</svg>
