<?xml version="1.0" encoding="UTF-8" standalone="no"?>
<!DOCTYPE svg PUBLIC "-//W3C//DTD SVG 1.1//EN"
 "http://www.w3.org/Graphics/SVG/1.1/DTD/svg11.dtd">
<!-- Generated by graphviz version 2.42.4 (0)
 -->
<!-- Pages: 1 -->
<svg width="277pt" height="128pt"
 viewBox="0.00 0.00 277.00 128.00" xmlns="http://www.w3.org/2000/svg" xmlns:xlink="http://www.w3.org/1999/xlink">
<g id="graph0" class="graph" transform="scale(1 1) rotate(0) translate(4 124)">
<g id="clust1" class="cluster">
<title>cluster1</title>
<polygon fill="white" stroke="black" points="50,-8 50,-112 205,-112 205,-8 50,-8"/>
<text text-anchor="middle" x="127.5" y="-96.8" font-family="Lato" font-size="14.00">Marco global del script</text>
</g>
<!-- gcd -->
<g id="node1" class="node">
<title>gcd</title>
<polygon fill="white" stroke="black" points="96,-58 96,-80 159,-80 159,-58 96,-58"/>
<text text-anchor="middle" x="115.5" y="-65.6" font-family="monospace" font-size="13.00">gcd</text>
<polyline fill="none" stroke="black" points="135,-58 135,-80 "/>
<text text-anchor="middle" x="147" y="-65.6" font-family="monospace" font-size="13.00">⬤</text>
</g>
<!-- lambda -->
<g id="node4" class="node">
<title>lambda</title>
<ellipse fill="white" stroke="black" cx="251" cy="-76" rx="18" ry="18"/>
<text text-anchor="middle" x="251" y="-72.6" font-family="monospace" font-size="13.00">λ</text>
</g>
<!-- gcd&#45;&gt;lambda -->
<g id="edge2" class="edge">
<title>gcd:f1&#45;&gt;lambda</title>
<path fill="none" stroke="black" d="M160.5,-69C181.41,-69 204.98,-70.92 222.69,-72.75"/>
<polygon fill="black" stroke="black" points="222.55,-76.26 232.87,-73.86 223.31,-69.3 222.55,-76.26"/>
</g>
<!-- x -->
<g id="node2" class="node">
<title>x</title>
<polygon fill="white" stroke="black" points="109.5,-17 109.5,-39 145.5,-39 145.5,-17 109.5,-17"/>
<text text-anchor="middle" x="118.5" y="-24.6" font-family="monospace" font-size="13.00">x</text>
<polyline fill="none" stroke="black" points="127.5,-17 127.5,-39 "/>
<text text-anchor="middle" x="136.5" y="-24.6" font-family="monospace" font-size="13.00">⬤</text>
</g>
<!-- 2 -->
<g id="node3" class="node">
<title>2</title>
<ellipse fill="white" stroke="black" cx="251" cy="-22" rx="18" ry="18"/>
<text text-anchor="middle" x="251" y="-18.6" font-family="monospace" font-size="13.00">2</text>
</g>
<!-- x&#45;&gt;2 -->
<g id="edge1" class="edge">
<title>x:f1&#45;&gt;2</title>
<path fill="none" stroke="black" d="M146.5,-28C172.4,-28 201.89,-26.1 222.75,-24.44"/>
<polygon fill="black" stroke="black" points="223.13,-27.92 232.8,-23.61 222.55,-20.95 223.13,-27.92"/>
</g>
<!-- E -->
<g id="node5" class="node">
<title>E</title>
<polygon fill="transparent" stroke="transparent" points="22,-87 0,-87 0,-51 22,-51 22,-87"/>
<text text-anchor="middle" x="11" y="-65.6" font-family="monospace" font-size="13.00">E</text>
</g>
<!-- E&#45;&gt;gcd -->
<g id="edge3" class="edge">
<title>E&#45;&gt;gcd</title>
<path fill="none" stroke="black" d="M22.16,-69C26.83,-69 32.83,-69 39.6,-69"/>
<polygon fill="black" stroke="black" points="40,-72.5 50,-69 40,-65.5 40,-72.5"/>
</g>
</g>
</svg>
