<?xml version="1.0" encoding="UTF-8" standalone="no"?>
<!DOCTYPE svg PUBLIC "-//W3C//DTD SVG 1.1//EN"
 "http://www.w3.org/Graphics/SVG/1.1/DTD/svg11.dtd">
<!-- Generated by graphviz version 2.42.4 (0)
 -->
<!-- Pages: 1 -->
<svg width="470pt" height="190pt"
 viewBox="0.00 0.00 470.00 190.00" xmlns="http://www.w3.org/2000/svg" xmlns:xlink="http://www.w3.org/1999/xlink">
<g id="graph0" class="graph" transform="scale(1 1) rotate(0) translate(4 186)">
<g id="clust2" class="cluster">
<title>cluster1</title>
<polygon fill="white" stroke="black" points="50,-13 50,-158 211,-158 211,-13 50,-13"/>
<text text-anchor="start" x="58" y="-143.8" font-family="Lato" font-size="14.00">Marco de </text>
<text text-anchor="start" x="120" y="-143.8" font-family="monospace" font-size="14.00">suma(4, 3)</text>
</g>
<g id="clust1" class="cluster">
<title>cluster0</title>
<polygon fill="white" stroke="black" points="303,-98 303,-161 398,-161 398,-98 303,-98"/>
<text text-anchor="middle" x="350.5" y="-145.8" font-family="Lato" font-size="14.00">Marco global</text>
</g>
<!-- x -->
<g id="node1" class="node">
<title>x</title>
<polygon fill="white" stroke="black" points="106.5,-104 106.5,-126 154.5,-126 154.5,-104 106.5,-104"/>
<text text-anchor="middle" x="118.5" y="-111.6" font-family="monospace" font-size="13.00">x</text>
<polyline fill="none" stroke="black" points="130.5,-104 130.5,-126 "/>
<text text-anchor="middle" x="142.5" y="-111.6" font-family="monospace" font-size="13.00">⬤</text>
</g>
<!-- 4 -->
<g id="node2" class="node">
<title>4</title>
<ellipse fill="white" stroke="black" cx="257" cy="-164" rx="18" ry="18"/>
<text text-anchor="middle" x="257" y="-160.6" font-family="monospace" font-size="13.00">4</text>
</g>
<!-- x&#45;&gt;4 -->
<g id="edge2" class="edge">
<title>x:f1&#45;&gt;4</title>
<path fill="none" stroke="black" d="M155.5,-115C185.13,-115 215.15,-132.42 234.56,-146.48"/>
<polygon fill="black" stroke="black" points="232.61,-149.39 242.7,-152.64 236.84,-143.81 232.61,-149.39"/>
</g>
<!-- suma -->
<g id="node7" class="node">
<title>suma</title>
<polygon fill="white" stroke="black" points="315,-107 315,-129 386,-129 386,-107 315,-107"/>
<text text-anchor="middle" x="338.5" y="-114.6" font-family="monospace" font-size="13.00">suma</text>
<polyline fill="none" stroke="black" points="362,-107 362,-129 "/>
<text text-anchor="middle" x="374" y="-114.6" font-family="monospace" font-size="13.00">⬤</text>
</g>
<!-- x&#45;&gt;suma -->
<g id="edge5" class="edge">
<title>x&#45;&gt;suma</title>
<path fill="none" stroke="black" d="M211,-116.09C238.11,-116.47 267.86,-116.88 292.82,-117.22"/>
<polygon fill="black" stroke="black" points="292.96,-120.72 303,-117.36 293.05,-113.72 292.96,-120.72"/>
</g>
<!-- 3 -->
<g id="node3" class="node">
<title>3</title>
<ellipse fill="white" stroke="black" cx="257" cy="-72" rx="18" ry="18"/>
<text text-anchor="middle" x="257" y="-68.6" font-family="monospace" font-size="13.00">3</text>
</g>
<!-- 7 -->
<g id="node4" class="node">
<title>7</title>
<ellipse fill="white" stroke="black" cx="257" cy="-18" rx="18" ry="18"/>
<text text-anchor="middle" x="257" y="-14.6" font-family="monospace" font-size="13.00">7</text>
</g>
<!-- lambda -->
<g id="node5" class="node">
<title>lambda</title>
<ellipse fill="white" stroke="black" cx="444" cy="-118" rx="18" ry="18"/>
<text text-anchor="middle" x="444" y="-114.6" font-family="monospace" font-size="13.00">λ</text>
</g>
<!-- y -->
<g id="node6" class="node">
<title>y</title>
<polygon fill="white" stroke="black" points="106.5,-63 106.5,-85 154.5,-85 154.5,-63 106.5,-63"/>
<text text-anchor="middle" x="118.5" y="-70.6" font-family="monospace" font-size="13.00">y</text>
<polyline fill="none" stroke="black" points="130.5,-63 130.5,-85 "/>
<text text-anchor="middle" x="142.5" y="-70.6" font-family="monospace" font-size="13.00">⬤</text>
</g>
<!-- y&#45;&gt;3 -->
<g id="edge3" class="edge">
<title>y:f1&#45;&gt;3</title>
<path fill="none" stroke="black" d="M155.5,-74C180.35,-74 208.65,-73.38 228.88,-72.83"/>
<polygon fill="black" stroke="black" points="229.03,-76.33 238.93,-72.55 228.84,-69.33 229.03,-76.33"/>
</g>
<!-- suma&#45;&gt;lambda -->
<g id="edge1" class="edge">
<title>suma:f1&#45;&gt;lambda</title>
<path fill="none" stroke="black" d="M387.5,-118C396.78,-118 406.93,-118 415.99,-118"/>
<polygon fill="black" stroke="black" points="416,-121.5 426,-118 416,-114.5 416,-121.5"/>
</g>
<!-- res -->
<g id="node8" class="node">
<title>res</title>
<polygon fill="white" stroke="black" points="99,-22 99,-44 162,-44 162,-22 99,-22"/>
<text text-anchor="middle" x="118.5" y="-29.6" font-family="monospace" font-size="13.00">res</text>
<polyline fill="none" stroke="black" points="138,-22 138,-44 "/>
<text text-anchor="middle" x="150" y="-29.6" font-family="monospace" font-size="13.00">⬤</text>
</g>
<!-- res&#45;&gt;7 -->
<g id="edge4" class="edge">
<title>res:f1&#45;&gt;7</title>
<path fill="none" stroke="black" d="M163.5,-33C185.94,-33 211.05,-28.65 229.44,-24.63"/>
<polygon fill="black" stroke="black" points="230.46,-27.99 239.42,-22.34 228.89,-21.16 230.46,-27.99"/>
</g>
<!-- E -->
<g id="node9" class="node">
<title>E</title>
<polygon fill="transparent" stroke="transparent" points="22,-133 0,-133 0,-97 22,-97 22,-133"/>
<text text-anchor="middle" x="11" y="-111.6" font-family="monospace" font-size="13.00">E</text>
</g>
<!-- E&#45;&gt;x -->
<g id="edge6" class="edge">
<title>E&#45;&gt;x</title>
<path fill="none" stroke="black" d="M22.02,-115C26.79,-115 32.98,-115 39.99,-115"/>
<polygon fill="black" stroke="black" points="40,-118.5 50,-115 40,-111.5 40,-118.5"/>
</g>
</g>
</svg>
