<?xml version="1.0" encoding="UTF-8" standalone="no"?>
<!DOCTYPE svg PUBLIC "-//W3C//DTD SVG 1.1//EN"
 "http://www.w3.org/Graphics/SVG/1.1/DTD/svg11.dtd">
<!-- Generated by graphviz version 2.43.0 (0)
 -->
<!-- Title: %3 Pages: 1 -->
<svg width="470pt" height="190pt"
 viewBox="0.00 0.00 470.00 190.00" xmlns="http://www.w3.org/2000/svg" xmlns:xlink="http://www.w3.org/1999/xlink">
<g id="graph0" class="graph" transform="scale(1 1) rotate(0) translate(4 186)">
<title>%3</title>
<g id="clust1" class="cluster">
<title>cluster0</title>
<polygon fill="white" stroke="black" points="303,-98 303,-161 398,-161 398,-98 303,-98"/>
<text text-anchor="middle" x="350.5" y="-145.8" font-family="Lato" font-size="14.00">Marco global</text>
</g>
<g id="clust2" class="cluster">
<title>cluster1</title>
<polygon fill="white" stroke="black" points="50,-14 50,-159 211,-159 211,-14 50,-14"/>
<text text-anchor="start" x="58" y="-144.8" font-family="Lato" font-size="14.00">Marco de </text>
<text text-anchor="start" x="120" y="-144.8" font-family="monospace" font-size="14.00">suma(4, 3)</text>
</g>
<!-- x -->
<g id="node1" class="node">
<title>x</title>
<polygon fill="white" stroke="black" points="106.5,-105 106.5,-127 154.5,-127 154.5,-105 106.5,-105"/>
<text text-anchor="middle" x="118.5" y="-112.6" font-family="monospace" font-size="13.00">x</text>
<polyline fill="none" stroke="black" points="130.5,-105 130.5,-127 "/>
<text text-anchor="middle" x="142.5" y="-112.6" font-family="monospace" font-size="13.00">⬤</text>
</g>
<!-- 4 -->
<g id="node2" class="node">
<title>4</title>
<ellipse fill="white" stroke="black" cx="257" cy="-164" rx="18" ry="18"/>
<text text-anchor="middle" x="257" y="-160.6" font-family="monospace" font-size="13.00">4</text>
</g>
<!-- x&#45;&gt;4 -->
<g id="edge2" class="edge">
<title>x:f1&#45;&gt;4</title>
<path fill="none" stroke="black" d="M155.5,-116C185.01,-116 215.06,-133.06 234.51,-146.84"/>
<polygon fill="black" stroke="black" points="232.54,-149.74 242.66,-152.87 236.7,-144.11 232.54,-149.74"/>
</g>
<!-- suma -->
<g id="node7" class="node">
<title>suma</title>
<polygon fill="white" stroke="black" points="315,-107 315,-129 386,-129 386,-107 315,-107"/>
<text text-anchor="middle" x="338.5" y="-114.6" font-family="monospace" font-size="13.00">suma</text>
<polyline fill="none" stroke="black" points="362,-107 362,-129 "/>
<text text-anchor="middle" x="374" y="-114.6" font-family="monospace" font-size="13.00">⬤</text>
</g>
<!-- x&#45;&gt;suma -->
<g id="edge5" class="edge">
<title>x&#45;&gt;suma</title>
<path fill="none" stroke="black" d="M211,-116.73C238.11,-116.98 267.86,-117.25 292.82,-117.48"/>
<polygon fill="black" stroke="black" points="292.97,-120.98 303,-117.57 293.04,-113.98 292.97,-120.98"/>
</g>
<!-- 3 -->
<g id="node3" class="node">
<title>3</title>
<ellipse fill="white" stroke="black" cx="257" cy="-72" rx="18" ry="18"/>
<text text-anchor="middle" x="257" y="-68.6" font-family="monospace" font-size="13.00">3</text>
</g>
<!-- 7 -->
<g id="node4" class="node">
<title>7</title>
<ellipse fill="white" stroke="black" cx="257" cy="-18" rx="18" ry="18"/>
<text text-anchor="middle" x="257" y="-14.6" font-family="monospace" font-size="13.00">7</text>
</g>
<!-- lambda -->
<g id="node5" class="node">
<title>lambda</title>
<ellipse fill="white" stroke="black" cx="444" cy="-118" rx="18" ry="18"/>
<text text-anchor="middle" x="444" y="-114.6" font-family="monospace" font-size="13.00">λ</text>
</g>
<!-- y -->
<g id="node6" class="node">
<title>y</title>
<polygon fill="white" stroke="black" points="106.5,-64 106.5,-86 154.5,-86 154.5,-64 106.5,-64"/>
<text text-anchor="middle" x="118.5" y="-71.6" font-family="monospace" font-size="13.00">y</text>
<polyline fill="none" stroke="black" points="130.5,-64 130.5,-86 "/>
<text text-anchor="middle" x="142.5" y="-71.6" font-family="monospace" font-size="13.00">⬤</text>
</g>
<!-- y&#45;&gt;3 -->
<g id="edge3" class="edge">
<title>y:f1&#45;&gt;3</title>
<path fill="none" stroke="black" d="M155.5,-75C180.36,-75 208.66,-74.07 228.88,-73.25"/>
<polygon fill="black" stroke="black" points="229.09,-76.74 238.93,-72.82 228.79,-69.75 229.09,-76.74"/>
</g>
<!-- suma&#45;&gt;lambda -->
<g id="edge1" class="edge">
<title>suma:f1&#45;&gt;lambda</title>
<path fill="none" stroke="black" d="M387.5,-118C396.78,-118 406.93,-118 415.99,-118"/>
<polygon fill="black" stroke="black" points="416,-121.5 426,-118 416,-114.5 416,-121.5"/>
</g>
<!-- res -->
<g id="node8" class="node">
<title>res</title>
<polygon fill="white" stroke="black" points="99,-23 99,-45 162,-45 162,-23 99,-23"/>
<text text-anchor="middle" x="118.5" y="-30.6" font-family="monospace" font-size="13.00">res</text>
<polyline fill="none" stroke="black" points="138,-23 138,-45 "/>
<text text-anchor="middle" x="150" y="-30.6" font-family="monospace" font-size="13.00">⬤</text>
</g>
<!-- res&#45;&gt;7 -->
<g id="edge4" class="edge">
<title>res:f1&#45;&gt;7</title>
<path fill="none" stroke="black" d="M163.5,-34C186.08,-34 211.32,-29.31 229.72,-25.01"/>
<polygon fill="black" stroke="black" points="230.56,-28.41 239.44,-22.63 228.89,-21.61 230.56,-28.41"/>
</g>
<!-- E -->
<g id="node9" class="node">
<title>E</title>
<polygon fill="transparent" stroke="transparent" points="22,-134 0,-134 0,-98 22,-98 22,-134"/>
<text text-anchor="middle" x="11" y="-112.6" font-family="monospace" font-size="13.00">E</text>
</g>
<!-- E&#45;&gt;x -->
<g id="edge6" class="edge">
<title>E&#45;&gt;x</title>
<path fill="none" stroke="black" d="M22.02,-116C26.79,-116 32.98,-116 39.99,-116"/>
<polygon fill="black" stroke="black" points="40,-119.5 50,-116 40,-112.5 40,-119.5"/>
</g>
</g>
</svg>
