<?xml version="1.0" encoding="UTF-8" standalone="no"?>
<!DOCTYPE svg PUBLIC "-//W3C//DTD SVG 1.1//EN"
 "http://www.w3.org/Graphics/SVG/1.1/DTD/svg11.dtd">
<!-- Generated by graphviz version 14.1.1 (0)
 -->
<!-- Pages: 1 -->
<svg width="228pt" height="49pt"
 viewBox="0.00 0.00 228.00 49.00" xmlns="http://www.w3.org/2000/svg" xmlns:xlink="http://www.w3.org/1999/xlink">
<g id="graph0" class="graph" transform="scale(1 1) rotate(0) translate(4 45)">
<!-- E -->
<g id="node1" class="node">
<title>E</title>
<polygon fill="none" stroke="none" points="22.75,-38.5 0,-38.5 0,-2.5 22.75,-2.5 22.75,-38.5"/>
<text xml:space="preserve" text-anchor="middle" x="11.38" y="-16.4" font-family="Lato" font-size="13.00">x</text>
</g>
<!-- cubo -->
<g id="node3" class="node">
<title>cubo</title>
<polygon fill="white" stroke="black" points="112.75,-38.5 58.75,-38.5 58.75,-2.5 112.75,-2.5 112.75,-38.5"/>
<text xml:space="preserve" text-anchor="middle" x="85.75" y="-16.4" font-family="Lato" font-size="13.00">cubo</text>
</g>
<!-- E&#45;&gt;cubo -->
<g id="edge1" class="edge">
<title>E&#45;&gt;cubo</title>
<path fill="none" stroke="black" d="M22.74,-20.5C29.29,-20.5 38.17,-20.5 47.18,-20.5"/>
<polygon fill="black" stroke="black" points="46.96,-24 56.96,-20.5 46.96,-17 46.96,-24"/>
</g>
<!-- S -->
<g id="node2" class="node">
<title>S</title>
<polygon fill="none" stroke="none" points="219.5,-41 148.75,-41 148.75,0 219.5,0 219.5,-41"/>
<text xml:space="preserve" text-anchor="middle" x="184.12" y="-24.65" font-family="Lato" font-size="13.00">x elevado</text>
<text xml:space="preserve" text-anchor="middle" x="184.12" y="-8.15" font-family="Lato" font-size="13.00">al cubo</text>
</g>
<!-- cubo&#45;&gt;S -->
<g id="edge2" class="edge">
<title>cubo&#45;&gt;S</title>
<path fill="none" stroke="black" d="M113.08,-20.5C120.67,-20.5 129.17,-20.5 137.57,-20.5"/>
<polygon fill="black" stroke="black" points="137.34,-24 147.34,-20.5 137.34,-17 137.34,-24"/>
</g>
</g>
</svg>
