<?xml version="1.0" encoding="UTF-8" standalone="no"?>
<!DOCTYPE svg PUBLIC "-//W3C//DTD SVG 1.1//EN"
 "http://www.w3.org/Graphics/SVG/1.1/DTD/svg11.dtd">
<!-- Generated by graphviz version 14.1.1 (0)
 -->
<!-- Pages: 1 -->
<svg width="469pt" height="190pt"
 viewBox="0.00 0.00 469.00 190.00" xmlns="http://www.w3.org/2000/svg" xmlns:xlink="http://www.w3.org/1999/xlink">
<g id="graph0" class="graph" transform="scale(1 1) rotate(0) translate(4 186)">
<g id="clust1" class="cluster">
<title>cluster0</title>
<polygon fill="white" stroke="black" points="301.9,-97 301.9,-164 396.65,-164 396.65,-97 301.9,-97"/>
<text xml:space="preserve" text-anchor="middle" x="349.27" y="-146.7" font-family="Lato" font-size="14.00">Marco global</text>
</g>
<g id="clust2" class="cluster">
<title>cluster1</title>
<polygon fill="white" stroke="black" points="49.9,-9 49.9,-164 209.9,-164 209.9,-9 49.9,-9"/>
<text xml:space="preserve" text-anchor="start" x="57.9" y="-147.7" font-family="Lato" font-size="14.00">Marco de </text>
<text xml:space="preserve" text-anchor="start" x="119.4" y="-147.7" font-family="monospace" font-size="14.00">suma(4, 3)</text>
</g>
<!-- x -->
<g id="node1" class="node">
<title>x</title>
<polygon fill="white" stroke="black" points="105.9,-105.75 105.9,-130.25 152.9,-130.25 152.9,-105.75 105.9,-105.75"/>
<text xml:space="preserve" text-anchor="middle" x="117.65" y="-113.9" font-family="monospace" font-size="13.00">x</text>
<polyline fill="none" stroke="black" points="129.4,-105.75 129.4,-130.25"/>
<text xml:space="preserve" text-anchor="middle" x="141.15" y="-112.4" font-family="monospace" font-size="13.00">⬤</text>
</g>
<!-- 4 -->
<g id="node2" class="node">
<title>4</title>
<ellipse fill="white" stroke="black" cx="255.9" cy="-164" rx="18" ry="18"/>
<text xml:space="preserve" text-anchor="middle" x="255.9" y="-159.9" font-family="monospace" font-size="13.00">4</text>
</g>
<!-- x&#45;&gt;4 -->
<g id="edge2" class="edge">
<title>x:f1&#45;&gt;4</title>
<path fill="none" stroke="black" d="M153.9,-118C182.61,-118 212.12,-133.59 231.77,-146.62"/>
<polygon fill="black" stroke="black" points="229.64,-149.4 239.85,-152.23 233.64,-143.65 229.64,-149.4"/>
</g>
<!-- suma -->
<g id="node7" class="node">
<title>suma</title>
<polygon fill="white" stroke="black" points="314.02,-105.75 314.02,-130.25 383.52,-130.25 383.52,-105.75 314.02,-105.75"/>
<text xml:space="preserve" text-anchor="middle" x="337.02" y="-113.9" font-family="monospace" font-size="13.00">suma</text>
<polyline fill="none" stroke="black" points="360.02,-105.75 360.02,-130.25"/>
<text xml:space="preserve" text-anchor="middle" x="371.77" y="-112.4" font-family="monospace" font-size="13.00">⬤</text>
</g>
<!-- x&#45;&gt;suma -->
<g id="edge5" class="edge">
<title>x&#45;&gt;suma</title>
<path fill="none" stroke="black" d="M209.9,-118C236.62,-118 265.89,-118 290.55,-118"/>
<polygon fill="black" stroke="black" points="290.39,-121.5 300.39,-118 290.39,-114.5 290.39,-121.5"/>
</g>
<!-- 3 -->
<g id="node3" class="node">
<title>3</title>
<ellipse fill="white" stroke="black" cx="255.9" cy="-72" rx="18" ry="18"/>
<text xml:space="preserve" text-anchor="middle" x="255.9" y="-67.9" font-family="monospace" font-size="13.00">3</text>
</g>
<!-- 7 -->
<g id="node4" class="node">
<title>7</title>
<ellipse fill="white" stroke="black" cx="255.9" cy="-18" rx="18" ry="18"/>
<text xml:space="preserve" text-anchor="middle" x="255.9" y="-13.9" font-family="monospace" font-size="13.00">7</text>
</g>
<!-- lambda -->
<g id="node5" class="node">
<title>lambda</title>
<ellipse fill="white" stroke="black" cx="442.65" cy="-118" rx="18" ry="18"/>
<text xml:space="preserve" text-anchor="middle" x="442.65" y="-113.9" font-family="monospace" font-size="13.00">λ</text>
</g>
<!-- y -->
<g id="node6" class="node">
<title>y</title>
<polygon fill="white" stroke="black" points="105.9,-61.75 105.9,-86.25 152.9,-86.25 152.9,-61.75 105.9,-61.75"/>
<text xml:space="preserve" text-anchor="middle" x="117.65" y="-69.9" font-family="monospace" font-size="13.00">y</text>
<polyline fill="none" stroke="black" points="129.4,-61.75 129.4,-86.25"/>
<text xml:space="preserve" text-anchor="middle" x="141.15" y="-68.4" font-family="monospace" font-size="13.00">⬤</text>
</g>
<!-- y&#45;&gt;3 -->
<g id="edge3" class="edge">
<title>y:f1&#45;&gt;3</title>
<path fill="none" stroke="black" d="M153.9,-74C178.42,-74 206.27,-73.4 226.51,-72.86"/>
<polygon fill="black" stroke="black" points="226.34,-76.37 236.23,-72.59 226.14,-69.37 226.34,-76.37"/>
</g>
<!-- suma&#45;&gt;lambda -->
<g id="edge1" class="edge">
<title>suma:f1&#45;&gt;lambda</title>
<path fill="none" stroke="black" d="M384.52,-118C393.83,-118 404,-118 413.14,-118"/>
<polygon fill="black" stroke="black" points="412.89,-121.5 422.89,-118 412.89,-114.5 412.89,-121.5"/>
</g>
<!-- res -->
<g id="node8" class="node">
<title>res</title>
<polygon fill="white" stroke="black" points="98.4,-17.75 98.4,-42.25 160.4,-42.25 160.4,-17.75 98.4,-17.75"/>
<text xml:space="preserve" text-anchor="middle" x="117.65" y="-25.9" font-family="monospace" font-size="13.00">res</text>
<polyline fill="none" stroke="black" points="136.9,-17.75 136.9,-42.25"/>
<text xml:space="preserve" text-anchor="middle" x="148.65" y="-24.4" font-family="monospace" font-size="13.00">⬤</text>
</g>
<!-- res&#45;&gt;7 -->
<g id="edge4" class="edge">
<title>res:f1&#45;&gt;7</title>
<path fill="none" stroke="black" d="M161.4,-30C183.42,-30 208.11,-26.69 226.6,-23.54"/>
<polygon fill="black" stroke="black" points="227.04,-27.02 236.26,-21.8 225.8,-20.13 227.04,-27.02"/>
</g>
<!-- E -->
<g id="node9" class="node">
<title>E</title>
<polygon fill="none" stroke="none" points="21.9,-136 0,-136 0,-100 21.9,-100 21.9,-136"/>
<text xml:space="preserve" text-anchor="middle" x="10.95" y="-113.9" font-family="monospace" font-size="13.00">E</text>
</g>
<!-- E&#45;&gt;x -->
<g id="edge6" class="edge">
<title>E&#45;&gt;x</title>
<path fill="none" stroke="black" d="M21.88,-118C26.32,-118 32.02,-118 38.45,-118"/>
<polygon fill="black" stroke="black" points="38.39,-121.5 48.39,-118 38.39,-114.5 38.39,-121.5"/>
</g>
</g>
</svg>
