<?xml version="1.0" encoding="UTF-8" standalone="no"?>
<!DOCTYPE svg PUBLIC "-//W3C//DTD SVG 1.1//EN"
 "http://www.w3.org/Graphics/SVG/1.1/DTD/svg11.dtd">
<!-- Generated by graphviz version 2.42.4 (0)
 -->
<!-- Pages: 1 -->
<svg width="246pt" height="128pt"
 viewBox="0.00 0.00 246.00 128.00" xmlns="http://www.w3.org/2000/svg" xmlns:xlink="http://www.w3.org/1999/xlink">
<g id="graph0" class="graph" transform="scale(1 1) rotate(0) translate(4 124)">
<g id="clust1" class="cluster">
<title>cluster0</title>
<polygon fill="white" stroke="black" points="50,-8 50,-112 174,-112 174,-8 50,-8"/>
<text text-anchor="middle" x="112" y="-96.8" font-family="Lato" font-size="14.00">Marco global</text>
</g>
<!-- 7 -->
<g id="node1" class="node">
<title>7</title>
<ellipse fill="white" stroke="black" cx="220" cy="-22" rx="18" ry="18"/>
<text text-anchor="middle" x="220" y="-18.6" font-family="Lato" font-size="13.00">7</text>
</g>
<!-- lambda -->
<g id="node2" class="node">
<title>lambda</title>
<ellipse fill="white" stroke="black" cx="220" cy="-76" rx="18" ry="18"/>
<text text-anchor="middle" x="220" y="-72.6" font-family="Lato" font-size="13.00">λ</text>
</g>
<!-- suma -->
<g id="node3" class="node">
<title>suma</title>
<polygon fill="white" stroke="black" points="76.5,-58 76.5,-80 147.5,-80 147.5,-58 76.5,-58"/>
<text text-anchor="middle" x="100" y="-65.6" font-family="monospace" font-size="13.00">suma</text>
<polyline fill="none" stroke="black" points="123.5,-58 123.5,-80 "/>
<text text-anchor="middle" x="135.5" y="-65.6" font-family="monospace" font-size="13.00">⬤</text>
</g>
<!-- suma&#45;&gt;lambda -->
<g id="edge1" class="edge">
<title>suma:f1&#45;&gt;lambda</title>
<path fill="none" stroke="black" d="M149,-69C163.22,-69 178.98,-70.45 191.94,-72.03"/>
<polygon fill="black" stroke="black" points="191.7,-75.52 202.07,-73.35 192.61,-68.58 191.7,-75.52"/>
</g>
<!-- resultado -->
<g id="node4" class="node">
<title>resultado</title>
<polygon fill="white" stroke="black" points="58,-17 58,-39 166,-39 166,-17 58,-17"/>
<text text-anchor="middle" x="100" y="-24.6" font-family="monospace" font-size="13.00">resultado</text>
<polyline fill="none" stroke="black" points="142,-17 142,-39 "/>
<text text-anchor="middle" x="154" y="-24.6" font-family="monospace" font-size="13.00">⬤</text>
</g>
<!-- resultado&#45;&gt;7 -->
<g id="edge2" class="edge">
<title>resultado:f1&#45;&gt;7</title>
<path fill="none" stroke="black" d="M167,-28C175.21,-28 184.11,-27.25 192.18,-26.28"/>
<polygon fill="black" stroke="black" points="192.75,-29.74 202.2,-24.93 191.82,-22.8 192.75,-29.74"/>
</g>
<!-- E -->
<g id="node5" class="node">
<title>E</title>
<polygon fill="transparent" stroke="transparent" points="22,-87 0,-87 0,-51 22,-51 22,-87"/>
<text text-anchor="middle" x="11" y="-65.6" font-family="Lato" font-size="13.00">E</text>
</g>
<!-- E&#45;&gt;suma -->
<g id="edge3" class="edge">
<title>E&#45;&gt;suma</title>
<path fill="none" stroke="black" d="M22.22,-69C26.95,-69 33.01,-69 39.74,-69"/>
<polygon fill="black" stroke="black" points="40,-72.5 50,-69 40,-65.5 40,-72.5"/>
</g>
</g>
</svg>
