<?xml version="1.0" encoding="UTF-8" standalone="no"?>
<!DOCTYPE svg PUBLIC "-//W3C//DTD SVG 1.1//EN"
 "http://www.w3.org/Graphics/SVG/1.1/DTD/svg11.dtd">
<!-- Generated by graphviz version 2.43.0 (0)
 -->
<!-- Title: %3 Pages: 1 -->
<svg width="311pt" height="153pt"
 viewBox="0.00 0.00 310.60 153.00" xmlns="http://www.w3.org/2000/svg" xmlns:xlink="http://www.w3.org/1999/xlink">
<g id="graph0" class="graph" transform="scale(1 1) rotate(0) translate(4 149)">
<title>%3</title>
<g id="clust1" class="cluster">
<title>cluster0</title>
<polygon fill="white" stroke="black" points="31.6,-8 31.6,-137 294.6,-137 294.6,-8 31.6,-8"/>
<text text-anchor="middle" x="163.1" y="-121.8" font-family="Lato" font-size="14.00">Marco global</text>
</g>
<!-- suma -->
<g id="node1" class="node">
<title>suma</title>
<polygon fill="transparent" stroke="transparent" points="108.6,-106 54.6,-106 54.6,-70 108.6,-70 108.6,-106"/>
<text text-anchor="middle" x="81.6" y="-84.6" font-family="monospace" font-size="13.00">suma</text>
</g>
<!-- v1 -->
<g id="node3" class="node">
<title>v1</title>
<polygon fill="white" stroke="black" points="181.6,-99 159.6,-99 159.6,-77 181.6,-77 181.6,-99"/>
<text text-anchor="middle" x="170.6" y="-84.6" font-family="monospace" font-size="13.00">⬤</text>
</g>
<!-- suma&#45;&gt;v1 -->
<g id="edge1" class="edge">
<title>suma&#45;&gt;v1</title>
<path fill="none" stroke="black" d="M108.7,-88C121.6,-88 136.94,-88 148.99,-88"/>
<polygon fill="black" stroke="black" points="149.36,-91.5 159.36,-88 149.36,-84.5 149.36,-91.5"/>
</g>
<!-- resultado -->
<g id="node2" class="node">
<title>resultado</title>
<polygon fill="transparent" stroke="transparent" points="123.6,-52 39.6,-52 39.6,-16 123.6,-16 123.6,-52"/>
<text text-anchor="middle" x="81.6" y="-30.6" font-family="monospace" font-size="13.00">resultado</text>
</g>
<!-- v2 -->
<g id="node4" class="node">
<title>v2</title>
<polygon fill="white" stroke="black" points="181.6,-45 159.6,-45 159.6,-23 181.6,-23 181.6,-45"/>
<text text-anchor="middle" x="170.6" y="-30.6" font-family="monospace" font-size="13.00">⬤</text>
</g>
<!-- resultado&#45;&gt;v2 -->
<g id="edge3" class="edge">
<title>resultado&#45;&gt;v2</title>
<path fill="none" stroke="black" d="M123.81,-34C132.66,-34 141.64,-34 149.27,-34"/>
<polygon fill="black" stroke="black" points="149.33,-37.5 159.33,-34 149.33,-30.5 149.33,-37.5"/>
</g>
<!-- función -->
<g id="node5" class="node">
<title>función</title>
<polygon fill="white" stroke="black" points="286.6,-106 217.6,-106 217.6,-70 286.6,-70 286.6,-106"/>
<text text-anchor="middle" x="252.1" y="-84.6" font-family="monospace" font-size="13.00">función</text>
</g>
<!-- v1&#45;&gt;función -->
<g id="edge2" class="edge">
<title>v1&#45;&gt;función</title>
<path fill="none" stroke="black" d="M181.67,-88C188.37,-88 197.68,-88 207.31,-88"/>
<polygon fill="black" stroke="black" points="207.36,-91.5 217.36,-88 207.36,-84.5 207.36,-91.5"/>
</g>
<!-- 7 -->
<g id="node6" class="node">
<title>7</title>
<polygon fill="white" stroke="black" points="279.1,-52 225.1,-52 225.1,-16 279.1,-16 279.1,-52"/>
<text text-anchor="middle" x="252.1" y="-30.6" font-family="monospace" font-size="13.00">7</text>
</g>
<!-- v2&#45;&gt;7 -->
<g id="edge4" class="edge">
<title>v2&#45;&gt;7</title>
<path fill="none" stroke="black" d="M181.67,-34C190.16,-34 202.84,-34 215.05,-34"/>
<polygon fill="black" stroke="black" points="215.09,-37.5 225.09,-34 215.09,-30.5 215.09,-37.5"/>
</g>
<!-- E -->
<g id="node7" class="node">
<title>E</title>
<ellipse fill="white" stroke="black" cx="1.8" cy="-88" rx="1.8" ry="1.8"/>
</g>
<!-- E&#45;&gt;suma -->
<g id="edge5" class="edge">
<title>E&#45;&gt;suma</title>
<path fill="none" stroke="black" d="M3.67,-88C6.02,-88 12.86,-88 21.56,-88"/>
<polygon fill="black" stroke="black" points="21.6,-91.5 31.6,-88 21.6,-84.5 21.6,-91.5"/>
</g>
</g>
</svg>
