<?xml version="1.0" encoding="UTF-8" standalone="no"?>
<!DOCTYPE svg PUBLIC "-//W3C//DTD SVG 1.1//EN"
 "http://www.w3.org/Graphics/SVG/1.1/DTD/svg11.dtd">
<!-- Generated by graphviz version 2.40.1 (20161225.0304)
 -->
<!-- Title: %3 Pages: 1 -->
<svg width="576pt" height="227pt"
 viewBox="0.00 0.00 576.00 226.85" xmlns="http://www.w3.org/2000/svg" xmlns:xlink="http://www.w3.org/1999/xlink">
<g id="graph0" class="graph" transform="scale(1.0959 1.0959) rotate(0) translate(4 203)">
<title>%3</title>
<g id="clust1" class="cluster">
<title>cluster0</title>
<polygon fill="#ffffff" stroke="#000000" points="276.6,-62 276.6,-137 509.6,-137 509.6,-62 276.6,-62"/>
<text text-anchor="middle" x="393.1" y="-121.8" font-family="Lato" font-size="14.00" fill="#000000">Marco global</text>
</g>
<g id="clust2" class="cluster">
<title>cluster1</title>
<polygon fill="#ffffff" stroke="#000000" points="31.6,-8 31.6,-191 219.6,-191 219.6,-8 31.6,-8"/>
<text text-anchor="start" x="76.6" y="-176.8" font-family="Lato" font-size="14.00" fill="#000000">Marco de </text>
<text text-anchor="start" x="140.6" y="-176.8" font-family="Lato" text-decoration="underline" font-size="14.00" fill="#000000">suma</text>
</g>
<!-- x -->
<g id="node1" class="node">
<title>x</title>
<polygon fill="transparent" stroke="transparent" points="93.6,-160 39.6,-160 39.6,-124 93.6,-124 93.6,-160"/>
<text text-anchor="middle" x="66.6" y="-138.6" font-family="monospace" font-size="13.00" fill="#000000">x</text>
</g>
<!-- v4 -->
<g id="node9" class="node">
<title>v4</title>
<polygon fill="#ffffff" stroke="#000000" points="151.6,-153 129.6,-153 129.6,-131 151.6,-131 151.6,-153"/>
<text text-anchor="middle" x="140.6" y="-138.6" font-family="monospace" font-size="13.00" fill="#000000">⬤</text>
</g>
<!-- x&#45;&gt;v4 -->
<g id="edge6" class="edge">
<title>x&#45;&gt;v4</title>
<path fill="none" stroke="#000000" d="M93.7347,-142C93.7347,-142 119.514,-142 119.514,-142"/>
<polygon fill="#000000" stroke="#000000" points="119.514,-145.5001 129.514,-142 119.5139,-138.5001 119.514,-145.5001"/>
</g>
<!-- 3 -->
<g id="node2" class="node">
<title>3</title>
<ellipse fill="#ffffff" stroke="#000000" cx="199.6" cy="-88" rx="11" ry="11"/>
<text text-anchor="middle" x="199.6" y="-84.6" font-family="monospace" font-size="13.00" fill="#000000">3</text>
</g>
<!-- suma -->
<g id="node3" class="node">
<title>suma</title>
<polygon fill="transparent" stroke="transparent" points="338.6,-106 284.6,-106 284.6,-70 338.6,-70 338.6,-106"/>
<text text-anchor="middle" x="311.6" y="-84.6" font-family="monospace" font-size="13.00" fill="#000000">suma</text>
</g>
<!-- 3&#45;&gt;suma -->
<g id="edge1" class="edge">
<title>3&#45;&gt;suma</title>
<path fill="none" stroke="#000000" d="M219.5966,-88C237.0946,-88 274.4433,-88 274.4433,-88"/>
<polygon fill="#000000" stroke="#000000" points="266.6002,-91.5005 276.6,-88 266.5998,-84.5005 266.6002,-91.5005"/>
</g>
<!-- v1 -->
<g id="node5" class="node">
<title>v1</title>
<polygon fill="#ffffff" stroke="#000000" points="396.6,-99 374.6,-99 374.6,-77 396.6,-77 396.6,-99"/>
<text text-anchor="middle" x="385.6" y="-84.6" font-family="monospace" font-size="13.00" fill="#000000">⬤</text>
</g>
<!-- suma&#45;&gt;v1 -->
<g id="edge2" class="edge">
<title>suma&#45;&gt;v1</title>
<path fill="none" stroke="#000000" d="M338.7347,-88C338.7347,-88 364.514,-88 364.514,-88"/>
<polygon fill="#000000" stroke="#000000" points="364.514,-91.5001 374.514,-88 364.5139,-84.5001 364.514,-91.5001"/>
</g>
<!-- y -->
<g id="node4" class="node">
<title>y</title>
<polygon fill="transparent" stroke="transparent" points="93.6,-106 39.6,-106 39.6,-70 93.6,-70 93.6,-106"/>
<text text-anchor="middle" x="66.6" y="-84.6" font-family="monospace" font-size="13.00" fill="#000000">y</text>
</g>
<!-- v3 -->
<g id="node10" class="node">
<title>v3</title>
<polygon fill="#ffffff" stroke="#000000" points="151.6,-99 129.6,-99 129.6,-77 151.6,-77 151.6,-99"/>
<text text-anchor="middle" x="140.6" y="-84.6" font-family="monospace" font-size="13.00" fill="#000000">⬤</text>
</g>
<!-- y&#45;&gt;v3 -->
<g id="edge4" class="edge">
<title>y&#45;&gt;v3</title>
<path fill="none" stroke="#000000" d="M93.7347,-88C93.7347,-88 119.514,-88 119.514,-88"/>
<polygon fill="#000000" stroke="#000000" points="119.514,-91.5001 129.514,-88 119.5139,-84.5001 119.514,-91.5001"/>
</g>
<!-- función -->
<g id="node6" class="node">
<title>función</title>
<polygon fill="#ffffff" stroke="#000000" points="501.6,-106 432.6,-106 432.6,-70 501.6,-70 501.6,-106"/>
<text text-anchor="middle" x="467.1" y="-84.6" font-family="monospace" font-size="13.00" fill="#000000">función</text>
</g>
<!-- v1&#45;&gt;función -->
<g id="edge3" class="edge">
<title>v1&#45;&gt;función</title>
<path fill="none" stroke="#000000" d="M396.9322,-88C396.9322,-88 422.2485,-88 422.2485,-88"/>
<polygon fill="#000000" stroke="#000000" points="422.2486,-91.5001 432.2485,-88 422.2485,-84.5001 422.2486,-91.5001"/>
</g>
<!-- 4 -->
<g id="node7" class="node">
<title>4</title>
<ellipse fill="#ffffff" stroke="#000000" cx="199.6" cy="-142" rx="11" ry="11"/>
<text text-anchor="middle" x="199.6" y="-138.6" font-family="monospace" font-size="13.00" fill="#000000">4</text>
</g>
<!-- v5 -->
<g id="node8" class="node">
<title>v5</title>
<polygon fill="#ffffff" stroke="#000000" points="151.6,-45 129.6,-45 129.6,-23 151.6,-23 151.6,-45"/>
<text text-anchor="middle" x="140.6" y="-30.6" font-family="monospace" font-size="13.00" fill="#000000">⬤</text>
</g>
<!-- v4&#45;&gt;4 -->
<g id="edge7" class="edge">
<title>v4&#45;&gt;4</title>
<path fill="none" stroke="#000000" d="M151.6974,-142C151.6974,-142 178.5523,-142 178.5523,-142"/>
<polygon fill="#000000" stroke="#000000" points="178.5523,-145.5001 188.5523,-142 178.5523,-138.5001 178.5523,-145.5001"/>
</g>
<!-- v3&#45;&gt;3 -->
<g id="edge5" class="edge">
<title>v3&#45;&gt;3</title>
<path fill="none" stroke="#000000" d="M151.6974,-88C151.6974,-88 178.5523,-88 178.5523,-88"/>
<polygon fill="#000000" stroke="#000000" points="178.5523,-91.5001 188.5523,-88 178.5523,-84.5001 178.5523,-91.5001"/>
</g>
<!-- res -->
<g id="node11" class="node">
<title>res</title>
<polygon fill="transparent" stroke="transparent" points="93.6,-52 39.6,-52 39.6,-16 93.6,-16 93.6,-52"/>
<text text-anchor="middle" x="66.6" y="-30.6" font-family="monospace" font-size="13.00" fill="#000000">res</text>
</g>
<!-- res&#45;&gt;v5 -->
<g id="edge8" class="edge">
<title>res&#45;&gt;v5</title>
<path fill="none" stroke="#000000" d="M93.7347,-34C93.7347,-34 119.514,-34 119.514,-34"/>
<polygon fill="#000000" stroke="#000000" points="119.514,-37.5001 129.514,-34 119.5139,-30.5001 119.514,-37.5001"/>
</g>
<!-- E -->
<g id="node12" class="node">
<title>E</title>
<ellipse fill="#ffffff" stroke="#000000" cx="1.8" cy="-142" rx="1.8" ry="1.8"/>
</g>
<!-- E&#45;&gt;x -->
<g id="edge9" class="edge">
<title>E&#45;&gt;x</title>
<path fill="none" stroke="#000000" d="M3.6695,-142C3.6695,-142 29.4563,-142 29.4563,-142"/>
<polygon fill="#000000" stroke="#000000" points="21.6002,-145.5005 31.6,-142 21.5998,-138.5005 21.6002,-145.5005"/>
</g>
</g>
</svg>
