<?xml version="1.0" encoding="UTF-8" standalone="no"?>
<!DOCTYPE svg PUBLIC "-//W3C//DTD SVG 1.1//EN"
 "http://www.w3.org/Graphics/SVG/1.1/DTD/svg11.dtd">
<!-- Generated by graphviz version 14.1.1 (0)
 -->
<!-- Pages: 1 -->
<svg width="245pt" height="135pt"
 viewBox="0.00 0.00 245.00 135.00" xmlns="http://www.w3.org/2000/svg" xmlns:xlink="http://www.w3.org/1999/xlink">
<g id="graph0" class="graph" transform="scale(1 1) rotate(0) translate(4 131)">
<g id="clust1" class="cluster">
<title>cluster0</title>
<polygon fill="white" stroke="black" points="49.9,-8 49.9,-119 172.9,-119 172.9,-8 49.9,-8"/>
<text xml:space="preserve" text-anchor="middle" x="111.4" y="-101.7" font-family="Lato" font-size="14.00">Marco global</text>
</g>
<!-- 7 -->
<g id="node1" class="node">
<title>7</title>
<ellipse fill="white" stroke="black" cx="218.9" cy="-24" rx="18" ry="18"/>
<text xml:space="preserve" text-anchor="middle" x="218.9" y="-19.9" font-family="Lato" font-size="13.00">7</text>
</g>
<!-- lambda -->
<g id="node2" class="node">
<title>lambda</title>
<ellipse fill="white" stroke="black" cx="218.9" cy="-78" rx="18" ry="18"/>
<text xml:space="preserve" text-anchor="middle" x="218.9" y="-73.9" font-family="Lato" font-size="13.00">λ</text>
</g>
<!-- suma -->
<g id="node3" class="node">
<title>suma</title>
<polygon fill="white" stroke="black" points="76.65,-60.75 76.65,-85.25 146.15,-85.25 146.15,-60.75 76.65,-60.75"/>
<text xml:space="preserve" text-anchor="middle" x="99.65" y="-68.9" font-family="monospace" font-size="13.00">suma</text>
<polyline fill="none" stroke="black" points="122.65,-60.75 122.65,-85.25"/>
<text xml:space="preserve" text-anchor="middle" x="134.4" y="-67.4" font-family="monospace" font-size="13.00">⬤</text>
</g>
<!-- suma&#45;&gt;lambda -->
<g id="edge1" class="edge">
<title>suma:f1&#45;&gt;lambda</title>
<path fill="none" stroke="black" d="M147.15,-73C161.05,-73 176.46,-73.97 189.33,-75.06"/>
<polygon fill="black" stroke="black" points="188.98,-78.54 199.26,-75.97 189.62,-71.57 188.98,-78.54"/>
</g>
<!-- resultado -->
<g id="node4" class="node">
<title>resultado</title>
<polygon fill="white" stroke="black" points="57.9,-16.75 57.9,-41.25 164.9,-41.25 164.9,-16.75 57.9,-16.75"/>
<text xml:space="preserve" text-anchor="middle" x="99.65" y="-24.9" font-family="monospace" font-size="13.00">resultado</text>
<polyline fill="none" stroke="black" points="141.4,-16.75 141.4,-41.25"/>
<text xml:space="preserve" text-anchor="middle" x="153.15" y="-23.4" font-family="monospace" font-size="13.00">⬤</text>
</g>
<!-- resultado&#45;&gt;7 -->
<g id="edge2" class="edge">
<title>resultado:f1&#45;&gt;7</title>
<path fill="none" stroke="black" d="M165.9,-29C173.52,-29 181.74,-28.46 189.34,-27.74"/>
<polygon fill="black" stroke="black" points="189.54,-31.24 199.1,-26.67 188.78,-24.28 189.54,-31.24"/>
</g>
<!-- E -->
<g id="node5" class="node">
<title>E</title>
<polygon fill="none" stroke="none" points="21.9,-91 0,-91 0,-55 21.9,-55 21.9,-91"/>
<text xml:space="preserve" text-anchor="middle" x="10.95" y="-68.9" font-family="Lato" font-size="13.00">E</text>
</g>
<!-- E&#45;&gt;suma -->
<g id="edge3" class="edge">
<title>E&#45;&gt;suma</title>
<path fill="none" stroke="black" d="M21.75,-73C26.26,-73 32.06,-73 38.51,-73"/>
<polygon fill="black" stroke="black" points="38.39,-76.5 48.39,-73 38.39,-69.5 38.39,-76.5"/>
</g>
</g>
</svg>
