<?xml version="1.0" encoding="UTF-8" standalone="no"?>
<!DOCTYPE svg PUBLIC "-//W3C//DTD SVG 1.1//EN"
 "http://www.w3.org/Graphics/SVG/1.1/DTD/svg11.dtd">
<!-- Generated by graphviz version 2.43.0 (0)
 -->
<!-- Title: %3 Pages: 1 -->
<svg width="421pt" height="190pt"
 viewBox="0.00 0.00 421.00 190.00" xmlns="http://www.w3.org/2000/svg" xmlns:xlink="http://www.w3.org/1999/xlink">
<g id="graph0" class="graph" transform="scale(1 1) rotate(0) translate(4 186)">
<title>%3</title>
<g id="clust1" class="cluster">
<title>cluster0</title>
<polygon fill="white" stroke="black" points="254,-98 254,-161 349,-161 349,-98 254,-98"/>
<text text-anchor="middle" x="301.5" y="-145.8" font-family="Lato" font-size="14.00">Marco global</text>
</g>
<g id="clust2" class="cluster">
<title>cluster1</title>
<polygon fill="white" stroke="black" points="50,-14 50,-159 162,-159 162,-14 50,-14"/>
<text text-anchor="start" x="58" y="-144.8" font-family="Lato" font-size="14.00">Marco de </text>
<text text-anchor="start" x="120" y="-144.8" font-family="monospace" font-size="14.00">suma</text>
</g>
<!-- x -->
<g id="node1" class="node">
<title>x</title>
<polygon fill="white" stroke="black" points="81.5,-105 81.5,-127 129.5,-127 129.5,-105 81.5,-105"/>
<text text-anchor="middle" x="93.5" y="-112.6" font-family="monospace" font-size="13.00">x</text>
<polyline fill="none" stroke="black" points="105.5,-105 105.5,-127 "/>
<text text-anchor="middle" x="117.5" y="-112.6" font-family="monospace" font-size="13.00">⬤</text>
</g>
<!-- 4 -->
<g id="node2" class="node">
<title>4</title>
<ellipse fill="white" stroke="black" cx="208" cy="-164" rx="18" ry="18"/>
<text text-anchor="middle" x="208" y="-160.6" font-family="monospace" font-size="13.00">4</text>
</g>
<!-- x&#45;&gt;4 -->
<g id="edge2" class="edge">
<title>x:f1&#45;&gt;4</title>
<path fill="none" stroke="black" d="M130.5,-116C152.73,-116 173.79,-130.72 188.17,-143.85"/>
<polygon fill="black" stroke="black" points="185.81,-146.44 195.43,-150.88 190.68,-141.41 185.81,-146.44"/>
</g>
<!-- suma -->
<g id="node7" class="node">
<title>suma</title>
<polygon fill="white" stroke="black" points="266,-107 266,-129 337,-129 337,-107 266,-107"/>
<text text-anchor="middle" x="289.5" y="-114.6" font-family="monospace" font-size="13.00">suma</text>
<polyline fill="none" stroke="black" points="313,-107 313,-129 "/>
<text text-anchor="middle" x="325" y="-114.6" font-family="monospace" font-size="13.00">⬤</text>
</g>
<!-- x&#45;&gt;suma -->
<g id="edge5" class="edge">
<title>x&#45;&gt;suma</title>
<path fill="none" stroke="black" d="M162,-116.57C187.55,-116.84 217.83,-117.15 243.56,-117.41"/>
<polygon fill="black" stroke="black" points="243.97,-120.92 254,-117.52 244.04,-113.92 243.97,-120.92"/>
</g>
<!-- 3 -->
<g id="node3" class="node">
<title>3</title>
<ellipse fill="white" stroke="black" cx="208" cy="-72" rx="18" ry="18"/>
<text text-anchor="middle" x="208" y="-68.6" font-family="monospace" font-size="13.00">3</text>
</g>
<!-- 7 -->
<g id="node4" class="node">
<title>7</title>
<ellipse fill="white" stroke="black" cx="208" cy="-18" rx="18" ry="18"/>
<text text-anchor="middle" x="208" y="-14.6" font-family="monospace" font-size="13.00">7</text>
</g>
<!-- lambda -->
<g id="node5" class="node">
<title>lambda</title>
<ellipse fill="white" stroke="black" cx="395" cy="-118" rx="18" ry="18"/>
<text text-anchor="middle" x="395" y="-114.6" font-family="monospace" font-size="13.00">λ</text>
</g>
<!-- y -->
<g id="node6" class="node">
<title>y</title>
<polygon fill="white" stroke="black" points="81.5,-64 81.5,-86 129.5,-86 129.5,-64 81.5,-64"/>
<text text-anchor="middle" x="93.5" y="-71.6" font-family="monospace" font-size="13.00">y</text>
<polyline fill="none" stroke="black" points="105.5,-64 105.5,-86 "/>
<text text-anchor="middle" x="117.5" y="-71.6" font-family="monospace" font-size="13.00">⬤</text>
</g>
<!-- y&#45;&gt;3 -->
<g id="edge3" class="edge">
<title>y:f1&#45;&gt;3</title>
<path fill="none" stroke="black" d="M130.5,-75C146.81,-75 165.06,-74.31 179.65,-73.59"/>
<polygon fill="black" stroke="black" points="180.19,-77.07 189.99,-73.05 179.82,-70.08 180.19,-77.07"/>
</g>
<!-- suma&#45;&gt;lambda -->
<g id="edge1" class="edge">
<title>suma:f1&#45;&gt;lambda</title>
<path fill="none" stroke="black" d="M338.5,-118C347.78,-118 357.93,-118 366.99,-118"/>
<polygon fill="black" stroke="black" points="367,-121.5 377,-118 367,-114.5 367,-121.5"/>
</g>
<!-- res -->
<g id="node8" class="node">
<title>res</title>
<polygon fill="white" stroke="black" points="74,-23 74,-45 137,-45 137,-23 74,-23"/>
<text text-anchor="middle" x="93.5" y="-30.6" font-family="monospace" font-size="13.00">res</text>
<polyline fill="none" stroke="black" points="113,-23 113,-45 "/>
<text text-anchor="middle" x="125" y="-30.6" font-family="monospace" font-size="13.00">⬤</text>
</g>
<!-- res&#45;&gt;7 -->
<g id="edge4" class="edge">
<title>res:f1&#45;&gt;7</title>
<path fill="none" stroke="black" d="M138.5,-34C152.81,-34 168.37,-30.65 181.04,-27.01"/>
<polygon fill="black" stroke="black" points="182.4,-30.26 190.92,-23.96 180.33,-23.57 182.4,-30.26"/>
</g>
<!-- E -->
<g id="node9" class="node">
<title>E</title>
<polygon fill="transparent" stroke="transparent" points="22,-134 0,-134 0,-98 22,-98 22,-134"/>
<text text-anchor="middle" x="11" y="-112.6" font-family="monospace" font-size="13.00">E</text>
</g>
<!-- E&#45;&gt;x -->
<g id="edge6" class="edge">
<title>E&#45;&gt;x</title>
<path fill="none" stroke="black" d="M22.25,-116C27.01,-116 33.1,-116 39.81,-116"/>
<polygon fill="black" stroke="black" points="40,-119.5 50,-116 40,-112.5 40,-119.5"/>
</g>
</g>
</svg>
