<?xml version="1.0" encoding="UTF-8" standalone="no"?>
<!DOCTYPE svg PUBLIC "-//W3C//DTD SVG 1.1//EN"
 "http://www.w3.org/Graphics/SVG/1.1/DTD/svg11.dtd">
<!-- Generated by graphviz version 2.43.0 (0)
 -->
<!-- Title: %3 Pages: 1 -->
<svg width="544pt" height="207pt"
 viewBox="0.00 0.00 544.00 207.00" xmlns="http://www.w3.org/2000/svg" xmlns:xlink="http://www.w3.org/1999/xlink">
<g id="graph0" class="graph" transform="scale(1 1) rotate(0) translate(4 203)">
<title>%3</title>
<g id="clust1" class="cluster">
<title>cluster0</title>
<polygon fill="white" stroke="black" points="295,-62 295,-137 528,-137 528,-62 295,-62"/>
<text text-anchor="middle" x="411.5" y="-121.8" font-family="Lato" font-size="14.00">Marco global</text>
</g>
<g id="clust2" class="cluster">
<title>cluster1</title>
<polygon fill="white" stroke="black" points="50,-8 50,-191 238,-191 238,-8 50,-8"/>
<text text-anchor="start" x="97" y="-176.8" font-family="Lato" font-size="14.00">Marco de </text>
<text text-anchor="start" x="159" y="-176.8" font-family="Lato" text-decoration="underline" font-size="14.00">suma</text>
</g>
<!-- x -->
<g id="node1" class="node">
<title>x</title>
<polygon fill="transparent" stroke="transparent" points="112,-160 58,-160 58,-124 112,-124 112,-160"/>
<text text-anchor="middle" x="85" y="-138.6" font-family="monospace" font-size="13.00">x</text>
</g>
<!-- v4 -->
<g id="node9" class="node">
<title>v4</title>
<polygon fill="white" stroke="black" points="170,-153 148,-153 148,-131 170,-131 170,-153"/>
<text text-anchor="middle" x="159" y="-138.6" font-family="monospace" font-size="13.00">⬤</text>
</g>
<!-- x&#45;&gt;v4 -->
<g id="edge6" class="edge">
<title>x&#45;&gt;v4</title>
<path fill="none" stroke="black" d="M112.13,-142C112.13,-142 137.91,-142 137.91,-142"/>
<polygon fill="black" stroke="black" points="137.91,-145.5 147.91,-142 137.91,-138.5 137.91,-145.5"/>
</g>
<!-- 3 -->
<g id="node2" class="node">
<title>3</title>
<ellipse fill="white" stroke="black" cx="218" cy="-88" rx="11" ry="11"/>
<text text-anchor="middle" x="218" y="-84.6" font-family="monospace" font-size="13.00">3</text>
</g>
<!-- suma -->
<g id="node3" class="node">
<title>suma</title>
<polygon fill="transparent" stroke="transparent" points="357,-106 303,-106 303,-70 357,-70 357,-106"/>
<text text-anchor="middle" x="330" y="-84.6" font-family="monospace" font-size="13.00">suma</text>
</g>
<!-- 3&#45;&gt;suma -->
<g id="edge1" class="edge">
<title>3&#45;&gt;suma</title>
<path fill="none" stroke="black" d="M238,-88C255.49,-88 292.84,-88 292.84,-88"/>
<polygon fill="black" stroke="black" points="285,-91.5 295,-88 285,-84.5 285,-91.5"/>
</g>
<!-- v1 -->
<g id="node5" class="node">
<title>v1</title>
<polygon fill="white" stroke="black" points="415,-99 393,-99 393,-77 415,-77 415,-99"/>
<text text-anchor="middle" x="404" y="-84.6" font-family="monospace" font-size="13.00">⬤</text>
</g>
<!-- suma&#45;&gt;v1 -->
<g id="edge2" class="edge">
<title>suma&#45;&gt;v1</title>
<path fill="none" stroke="black" d="M357.13,-88C357.13,-88 382.91,-88 382.91,-88"/>
<polygon fill="black" stroke="black" points="382.91,-91.5 392.91,-88 382.91,-84.5 382.91,-91.5"/>
</g>
<!-- y -->
<g id="node4" class="node">
<title>y</title>
<polygon fill="transparent" stroke="transparent" points="112,-106 58,-106 58,-70 112,-70 112,-106"/>
<text text-anchor="middle" x="85" y="-84.6" font-family="monospace" font-size="13.00">y</text>
</g>
<!-- v3 -->
<g id="node10" class="node">
<title>v3</title>
<polygon fill="white" stroke="black" points="170,-99 148,-99 148,-77 170,-77 170,-99"/>
<text text-anchor="middle" x="159" y="-84.6" font-family="monospace" font-size="13.00">⬤</text>
</g>
<!-- y&#45;&gt;v3 -->
<g id="edge4" class="edge">
<title>y&#45;&gt;v3</title>
<path fill="none" stroke="black" d="M112.13,-88C112.13,-88 137.91,-88 137.91,-88"/>
<polygon fill="black" stroke="black" points="137.91,-91.5 147.91,-88 137.91,-84.5 137.91,-91.5"/>
</g>
<!-- función -->
<g id="node6" class="node">
<title>función</title>
<polygon fill="white" stroke="black" points="520,-106 451,-106 451,-70 520,-70 520,-106"/>
<text text-anchor="middle" x="485.5" y="-84.6" font-family="monospace" font-size="13.00">función</text>
</g>
<!-- v1&#45;&gt;función -->
<g id="edge3" class="edge">
<title>v1&#45;&gt;función</title>
<path fill="none" stroke="black" d="M415.33,-88C415.33,-88 440.65,-88 440.65,-88"/>
<polygon fill="black" stroke="black" points="440.65,-91.5 450.65,-88 440.65,-84.5 440.65,-91.5"/>
</g>
<!-- 4 -->
<g id="node7" class="node">
<title>4</title>
<ellipse fill="white" stroke="black" cx="218" cy="-142" rx="11" ry="11"/>
<text text-anchor="middle" x="218" y="-138.6" font-family="monospace" font-size="13.00">4</text>
</g>
<!-- v5 -->
<g id="node8" class="node">
<title>v5</title>
<polygon fill="white" stroke="black" points="170,-45 148,-45 148,-23 170,-23 170,-45"/>
<text text-anchor="middle" x="159" y="-30.6" font-family="monospace" font-size="13.00">⬤</text>
</g>
<!-- v4&#45;&gt;4 -->
<g id="edge7" class="edge">
<title>v4&#45;&gt;4</title>
<path fill="none" stroke="black" d="M170.1,-142C170.1,-142 196.95,-142 196.95,-142"/>
<polygon fill="black" stroke="black" points="196.95,-145.5 206.95,-142 196.95,-138.5 196.95,-145.5"/>
</g>
<!-- v3&#45;&gt;3 -->
<g id="edge5" class="edge">
<title>v3&#45;&gt;3</title>
<path fill="none" stroke="black" d="M170.1,-88C170.1,-88 196.95,-88 196.95,-88"/>
<polygon fill="black" stroke="black" points="196.95,-91.5 206.95,-88 196.95,-84.5 196.95,-91.5"/>
</g>
<!-- res -->
<g id="node11" class="node">
<title>res</title>
<polygon fill="transparent" stroke="transparent" points="112,-52 58,-52 58,-16 112,-16 112,-52"/>
<text text-anchor="middle" x="85" y="-30.6" font-family="monospace" font-size="13.00">res</text>
</g>
<!-- res&#45;&gt;v5 -->
<g id="edge8" class="edge">
<title>res&#45;&gt;v5</title>
<path fill="none" stroke="black" d="M112.13,-34C112.13,-34 137.91,-34 137.91,-34"/>
<polygon fill="black" stroke="black" points="137.91,-37.5 147.91,-34 137.91,-30.5 137.91,-37.5"/>
</g>
<!-- E -->
<g id="node12" class="node">
<title>E</title>
<polygon fill="transparent" stroke="transparent" points="22,-160 0,-160 0,-124 22,-124 22,-160"/>
<text text-anchor="middle" x="11" y="-138.6" font-family="monospace" font-size="13.00">E</text>
</g>
<!-- E&#45;&gt;x -->
<g id="edge9" class="edge">
<title>E&#45;&gt;x</title>
<path fill="none" stroke="black" d="M22.24,-142C22.24,-142 47.95,-142 47.95,-142"/>
<polygon fill="black" stroke="black" points="40,-145.5 50,-142 40,-138.5 40,-145.5"/>
</g>
</g>
</svg>
