<?xml version="1.0" encoding="UTF-8" standalone="no"?>
<!DOCTYPE svg PUBLIC "-//W3C//DTD SVG 1.1//EN"
 "http://www.w3.org/Graphics/SVG/1.1/DTD/svg11.dtd">
<!-- Generated by graphviz version 2.42.4 (0)
 -->
<!-- Pages: 1 -->
<svg width="228pt" height="44pt"
 viewBox="0.00 0.00 228.00 44.00" xmlns="http://www.w3.org/2000/svg" xmlns:xlink="http://www.w3.org/1999/xlink">
<g id="graph0" class="graph" transform="scale(1 1) rotate(0) translate(4 40)">
<!-- E -->
<g id="node1" class="node">
<title>E</title>
<polygon fill="transparent" stroke="transparent" points="23,-36 0,-36 0,0 23,0 23,-36"/>
<text text-anchor="middle" x="11.5" y="-14.6" font-family="Lato" font-size="13.00">x</text>
</g>
<!-- cubo -->
<g id="node3" class="node">
<title>cubo</title>
<polygon fill="white" stroke="black" points="113,-36 59,-36 59,0 113,0 113,-36"/>
<text text-anchor="middle" x="86" y="-14.6" font-family="Lato" font-size="13.00">cubo</text>
</g>
<!-- E&#45;&gt;cubo -->
<g id="edge1" class="edge">
<title>E&#45;&gt;cubo</title>
<path fill="none" stroke="black" d="M23.2,-18C30.08,-18 39.47,-18 48.85,-18"/>
<polygon fill="black" stroke="black" points="48.9,-21.5 58.9,-18 48.9,-14.5 48.9,-21.5"/>
</g>
<!-- S -->
<g id="node2" class="node">
<title>S</title>
<polygon fill="transparent" stroke="transparent" points="220,-36 149,-36 149,0 220,0 220,-36"/>
<text text-anchor="middle" x="184.5" y="-21.6" font-family="Lato" font-size="13.00">x elevado</text>
<text text-anchor="middle" x="184.5" y="-7.6" font-family="Lato" font-size="13.00">al cubo</text>
</g>
<!-- cubo&#45;&gt;S -->
<g id="edge2" class="edge">
<title>cubo&#45;&gt;S</title>
<path fill="none" stroke="black" d="M113.11,-18C120.98,-18 129.84,-18 138.56,-18"/>
<polygon fill="black" stroke="black" points="138.66,-21.5 148.66,-18 138.66,-14.5 138.66,-21.5"/>
</g>
</g>
</svg>
