<?xml version="1.0" encoding="UTF-8" standalone="no"?>
<!DOCTYPE svg PUBLIC "-//W3C//DTD SVG 1.1//EN"
 "http://www.w3.org/Graphics/SVG/1.1/DTD/svg11.dtd">
<!-- Generated by graphviz version 2.43.0 (0)
 -->
<!-- Title: %3 Pages: 1 -->
<svg width="329pt" height="153pt"
 viewBox="0.00 0.00 329.00 153.00" xmlns="http://www.w3.org/2000/svg" xmlns:xlink="http://www.w3.org/1999/xlink">
<g id="graph0" class="graph" transform="scale(1 1) rotate(0) translate(4 149)">
<title>%3</title>
<g id="clust1" class="cluster">
<title>cluster0</title>
<polygon fill="white" stroke="black" points="50,-8 50,-137 313,-137 313,-8 50,-8"/>
<text text-anchor="middle" x="181.5" y="-121.8" font-family="Lato" font-size="14.00">Marco global</text>
</g>
<!-- suma -->
<g id="node1" class="node">
<title>suma</title>
<polygon fill="transparent" stroke="transparent" points="127,-106 73,-106 73,-70 127,-70 127,-106"/>
<text text-anchor="middle" x="100" y="-84.6" font-family="monospace" font-size="13.00">suma</text>
</g>
<!-- v1 -->
<g id="node3" class="node">
<title>v1</title>
<polygon fill="white" stroke="black" points="200,-99 178,-99 178,-77 200,-77 200,-99"/>
<text text-anchor="middle" x="189" y="-84.6" font-family="monospace" font-size="13.00">⬤</text>
</g>
<!-- suma&#45;&gt;v1 -->
<g id="edge1" class="edge">
<title>suma&#45;&gt;v1</title>
<path fill="none" stroke="black" d="M127.1,-88C140,-88 155.34,-88 167.39,-88"/>
<polygon fill="black" stroke="black" points="167.76,-91.5 177.76,-88 167.76,-84.5 167.76,-91.5"/>
</g>
<!-- resultado -->
<g id="node2" class="node">
<title>resultado</title>
<polygon fill="transparent" stroke="transparent" points="142,-52 58,-52 58,-16 142,-16 142,-52"/>
<text text-anchor="middle" x="100" y="-30.6" font-family="monospace" font-size="13.00">resultado</text>
</g>
<!-- v2 -->
<g id="node4" class="node">
<title>v2</title>
<polygon fill="white" stroke="black" points="200,-45 178,-45 178,-23 200,-23 200,-45"/>
<text text-anchor="middle" x="189" y="-30.6" font-family="monospace" font-size="13.00">⬤</text>
</g>
<!-- resultado&#45;&gt;v2 -->
<g id="edge3" class="edge">
<title>resultado&#45;&gt;v2</title>
<path fill="none" stroke="black" d="M142.21,-34C151.06,-34 160.04,-34 167.67,-34"/>
<polygon fill="black" stroke="black" points="167.73,-37.5 177.73,-34 167.73,-30.5 167.73,-37.5"/>
</g>
<!-- función -->
<g id="node5" class="node">
<title>función</title>
<polygon fill="white" stroke="black" points="305,-106 236,-106 236,-70 305,-70 305,-106"/>
<text text-anchor="middle" x="270.5" y="-84.6" font-family="monospace" font-size="13.00">función</text>
</g>
<!-- v1&#45;&gt;función -->
<g id="edge2" class="edge">
<title>v1&#45;&gt;función</title>
<path fill="none" stroke="black" d="M200.07,-88C206.77,-88 216.08,-88 225.71,-88"/>
<polygon fill="black" stroke="black" points="225.76,-91.5 235.76,-88 225.76,-84.5 225.76,-91.5"/>
</g>
<!-- 7 -->
<g id="node6" class="node">
<title>7</title>
<polygon fill="white" stroke="black" points="297.5,-52 243.5,-52 243.5,-16 297.5,-16 297.5,-52"/>
<text text-anchor="middle" x="270.5" y="-30.6" font-family="monospace" font-size="13.00">7</text>
</g>
<!-- v2&#45;&gt;7 -->
<g id="edge4" class="edge">
<title>v2&#45;&gt;7</title>
<path fill="none" stroke="black" d="M200.07,-34C208.56,-34 221.24,-34 233.45,-34"/>
<polygon fill="black" stroke="black" points="233.49,-37.5 243.49,-34 233.49,-30.5 233.49,-37.5"/>
</g>
<!-- E -->
<g id="node7" class="node">
<title>E</title>
<polygon fill="transparent" stroke="transparent" points="22,-106 0,-106 0,-70 22,-70 22,-106"/>
<text text-anchor="middle" x="11" y="-84.6" font-family="Lato" font-size="13.00">E</text>
</g>
<!-- E&#45;&gt;suma -->
<g id="edge5" class="edge">
<title>E&#45;&gt;suma</title>
<path fill="none" stroke="black" d="M22.32,-88C27.11,-88 33.23,-88 39.9,-88"/>
<polygon fill="black" stroke="black" points="40,-91.5 50,-88 40,-84.5 40,-91.5"/>
</g>
</g>
</svg>
