<?xml version="1.0" encoding="UTF-8" standalone="no"?>
<!DOCTYPE svg PUBLIC "-//W3C//DTD SVG 1.1//EN"
 "http://www.w3.org/Graphics/SVG/1.1/DTD/svg11.dtd">
<!-- Generated by graphviz version 2.43.0 (0)
 -->
<!-- Title: %3 Pages: 1 -->
<svg width="526pt" height="207pt"
 viewBox="0.00 0.00 525.60 207.00" xmlns="http://www.w3.org/2000/svg" xmlns:xlink="http://www.w3.org/1999/xlink">
<g id="graph0" class="graph" transform="scale(1 1) rotate(0) translate(4 203)">
<title>%3</title>
<g id="clust1" class="cluster">
<title>cluster0</title>
<polygon fill="white" stroke="black" points="276.6,-62 276.6,-137 509.6,-137 509.6,-62 276.6,-62"/>
<text text-anchor="middle" x="393.1" y="-121.8" font-family="Lato" font-size="14.00">Marco global</text>
</g>
<g id="clust2" class="cluster">
<title>cluster1</title>
<polygon fill="white" stroke="black" points="31.6,-8 31.6,-191 219.6,-191 219.6,-8 31.6,-8"/>
<text text-anchor="start" x="78.6" y="-176.8" font-family="Lato" font-size="14.00">Marco de </text>
<text text-anchor="start" x="140.6" y="-176.8" font-family="Lato" text-decoration="underline" font-size="14.00">suma</text>
</g>
<!-- x -->
<g id="node1" class="node">
<title>x</title>
<polygon fill="transparent" stroke="transparent" points="93.6,-160 39.6,-160 39.6,-124 93.6,-124 93.6,-160"/>
<text text-anchor="middle" x="66.6" y="-138.6" font-family="monospace" font-size="13.00">x</text>
</g>
<!-- v4 -->
<g id="node9" class="node">
<title>v4</title>
<polygon fill="white" stroke="black" points="151.6,-153 129.6,-153 129.6,-131 151.6,-131 151.6,-153"/>
<text text-anchor="middle" x="140.6" y="-138.6" font-family="monospace" font-size="13.00">⬤</text>
</g>
<!-- x&#45;&gt;v4 -->
<g id="edge6" class="edge">
<title>x&#45;&gt;v4</title>
<path fill="none" stroke="black" d="M93.73,-142C93.73,-142 119.51,-142 119.51,-142"/>
<polygon fill="black" stroke="black" points="119.51,-145.5 129.51,-142 119.51,-138.5 119.51,-145.5"/>
</g>
<!-- 3 -->
<g id="node2" class="node">
<title>3</title>
<ellipse fill="white" stroke="black" cx="199.6" cy="-88" rx="11" ry="11"/>
<text text-anchor="middle" x="199.6" y="-84.6" font-family="monospace" font-size="13.00">3</text>
</g>
<!-- suma -->
<g id="node3" class="node">
<title>suma</title>
<polygon fill="transparent" stroke="transparent" points="338.6,-106 284.6,-106 284.6,-70 338.6,-70 338.6,-106"/>
<text text-anchor="middle" x="311.6" y="-84.6" font-family="monospace" font-size="13.00">suma</text>
</g>
<!-- 3&#45;&gt;suma -->
<g id="edge1" class="edge">
<title>3&#45;&gt;suma</title>
<path fill="none" stroke="black" d="M219.6,-88C237.09,-88 274.44,-88 274.44,-88"/>
<polygon fill="black" stroke="black" points="266.6,-91.5 276.6,-88 266.6,-84.5 266.6,-91.5"/>
</g>
<!-- v1 -->
<g id="node5" class="node">
<title>v1</title>
<polygon fill="white" stroke="black" points="396.6,-99 374.6,-99 374.6,-77 396.6,-77 396.6,-99"/>
<text text-anchor="middle" x="385.6" y="-84.6" font-family="monospace" font-size="13.00">⬤</text>
</g>
<!-- suma&#45;&gt;v1 -->
<g id="edge2" class="edge">
<title>suma&#45;&gt;v1</title>
<path fill="none" stroke="black" d="M338.73,-88C338.73,-88 364.51,-88 364.51,-88"/>
<polygon fill="black" stroke="black" points="364.51,-91.5 374.51,-88 364.51,-84.5 364.51,-91.5"/>
</g>
<!-- y -->
<g id="node4" class="node">
<title>y</title>
<polygon fill="transparent" stroke="transparent" points="93.6,-106 39.6,-106 39.6,-70 93.6,-70 93.6,-106"/>
<text text-anchor="middle" x="66.6" y="-84.6" font-family="monospace" font-size="13.00">y</text>
</g>
<!-- v3 -->
<g id="node10" class="node">
<title>v3</title>
<polygon fill="white" stroke="black" points="151.6,-99 129.6,-99 129.6,-77 151.6,-77 151.6,-99"/>
<text text-anchor="middle" x="140.6" y="-84.6" font-family="monospace" font-size="13.00">⬤</text>
</g>
<!-- y&#45;&gt;v3 -->
<g id="edge4" class="edge">
<title>y&#45;&gt;v3</title>
<path fill="none" stroke="black" d="M93.73,-88C93.73,-88 119.51,-88 119.51,-88"/>
<polygon fill="black" stroke="black" points="119.51,-91.5 129.51,-88 119.51,-84.5 119.51,-91.5"/>
</g>
<!-- función -->
<g id="node6" class="node">
<title>función</title>
<polygon fill="white" stroke="black" points="501.6,-106 432.6,-106 432.6,-70 501.6,-70 501.6,-106"/>
<text text-anchor="middle" x="467.1" y="-84.6" font-family="monospace" font-size="13.00">función</text>
</g>
<!-- v1&#45;&gt;función -->
<g id="edge3" class="edge">
<title>v1&#45;&gt;función</title>
<path fill="none" stroke="black" d="M396.93,-88C396.93,-88 422.25,-88 422.25,-88"/>
<polygon fill="black" stroke="black" points="422.25,-91.5 432.25,-88 422.25,-84.5 422.25,-91.5"/>
</g>
<!-- 4 -->
<g id="node7" class="node">
<title>4</title>
<ellipse fill="white" stroke="black" cx="199.6" cy="-142" rx="11" ry="11"/>
<text text-anchor="middle" x="199.6" y="-138.6" font-family="monospace" font-size="13.00">4</text>
</g>
<!-- v5 -->
<g id="node8" class="node">
<title>v5</title>
<polygon fill="white" stroke="black" points="151.6,-45 129.6,-45 129.6,-23 151.6,-23 151.6,-45"/>
<text text-anchor="middle" x="140.6" y="-30.6" font-family="monospace" font-size="13.00">⬤</text>
</g>
<!-- v4&#45;&gt;4 -->
<g id="edge7" class="edge">
<title>v4&#45;&gt;4</title>
<path fill="none" stroke="black" d="M151.7,-142C151.7,-142 178.55,-142 178.55,-142"/>
<polygon fill="black" stroke="black" points="178.55,-145.5 188.55,-142 178.55,-138.5 178.55,-145.5"/>
</g>
<!-- v3&#45;&gt;3 -->
<g id="edge5" class="edge">
<title>v3&#45;&gt;3</title>
<path fill="none" stroke="black" d="M151.7,-88C151.7,-88 178.55,-88 178.55,-88"/>
<polygon fill="black" stroke="black" points="178.55,-91.5 188.55,-88 178.55,-84.5 178.55,-91.5"/>
</g>
<!-- res -->
<g id="node11" class="node">
<title>res</title>
<polygon fill="transparent" stroke="transparent" points="93.6,-52 39.6,-52 39.6,-16 93.6,-16 93.6,-52"/>
<text text-anchor="middle" x="66.6" y="-30.6" font-family="monospace" font-size="13.00">res</text>
</g>
<!-- res&#45;&gt;v5 -->
<g id="edge8" class="edge">
<title>res&#45;&gt;v5</title>
<path fill="none" stroke="black" d="M93.73,-34C93.73,-34 119.51,-34 119.51,-34"/>
<polygon fill="black" stroke="black" points="119.51,-37.5 129.51,-34 119.51,-30.5 119.51,-37.5"/>
</g>
<!-- E -->
<g id="node12" class="node">
<title>E</title>
<ellipse fill="white" stroke="black" cx="1.8" cy="-142" rx="1.8" ry="1.8"/>
</g>
<!-- E&#45;&gt;x -->
<g id="edge9" class="edge">
<title>E&#45;&gt;x</title>
<path fill="none" stroke="black" d="M3.67,-142C3.67,-142 29.46,-142 29.46,-142"/>
<polygon fill="black" stroke="black" points="21.6,-145.5 31.6,-142 21.6,-138.5 21.6,-145.5"/>
</g>
</g>
</svg>
