<?xml version="1.0" encoding="UTF-8" standalone="no"?>
<!-- Created with Inkscape (http://www.inkscape.org/) -->

<svg
   xmlns:dc="http://purl.org/dc/elements/1.1/"
   xmlns:cc="http://creativecommons.org/ns#"
   xmlns:rdf="http://www.w3.org/1999/02/22-rdf-syntax-ns#"
   xmlns:svg="http://www.w3.org/2000/svg"
   xmlns="http://www.w3.org/2000/svg"
   xmlns:sodipodi="http://sodipodi.sourceforge.net/DTD/sodipodi-0.dtd"
   xmlns:inkscape="http://www.inkscape.org/namespaces/inkscape"
   width="679.23999"
   height="569.09998"
   id="svg2"
   version="1.1"
   inkscape:version="0.47 r22583"
   sodipodi:docname="PolygonsFunction.svg">
  <defs
     id="defs4">
    <marker
       inkscape:stockid="Arrow1Mend"
       orient="auto"
       refY="0"
       refX="0"
       id="Arrow1Mend"
       style="overflow:visible">
      <path
         id="path5390"
         d="M 0,0 5,-5 -12.5,0 5,5 0,0 z"
         style="fill-rule:evenodd;stroke:#000000;stroke-width:1pt;marker-start:none"
         transform="matrix(-0.4, 0, 0, -0.4, -4, 0)" />
    </marker>
    <inkscape:perspective
       sodipodi:type="inkscape:persp3d"
       inkscape:vp_x="0 : 526.18109 : 1"
       inkscape:vp_y="0 : 1000 : 0"
       inkscape:vp_z="744.09448 : 526.18109 : 1"
       inkscape:persp3d-origin="372.04724 : 350.78739 : 1"
       id="perspective10" />
    <inkscape:perspective
       id="perspective2831"
       inkscape:persp3d-origin="0.5 : 0.33333333 : 1"
       inkscape:vp_z="1 : 0.5 : 1"
       inkscape:vp_y="0 : 1000 : 0"
       inkscape:vp_x="0 : 0.5 : 1"
       sodipodi:type="inkscape:persp3d" />
    <inkscape:perspective
       id="perspective2856"
       inkscape:persp3d-origin="0.5 : 0.33333333 : 1"
       inkscape:vp_z="1 : 0.5 : 1"
       inkscape:vp_y="0 : 1000 : 0"
       inkscape:vp_x="0 : 0.5 : 1"
       sodipodi:type="inkscape:persp3d" />
    <inkscape:perspective
       id="perspective2856-1"
       inkscape:persp3d-origin="0.5 : 0.33333333 : 1"
       inkscape:vp_z="1 : 0.5 : 1"
       inkscape:vp_y="0 : 1000 : 0"
       inkscape:vp_x="0 : 0.5 : 1"
       sodipodi:type="inkscape:persp3d" />
    <inkscape:perspective
       id="perspective4581"
       inkscape:persp3d-origin="0.5 : 0.33333333 : 1"
       inkscape:vp_z="1 : 0.5 : 1"
       inkscape:vp_y="0 : 1000 : 0"
       inkscape:vp_x="0 : 0.5 : 1"
       sodipodi:type="inkscape:persp3d" />
    <inkscape:perspective
       id="perspective5169"
       inkscape:persp3d-origin="0.5 : 0.33333333 : 1"
       inkscape:vp_z="1 : 0.5 : 1"
       inkscape:vp_y="0 : 1000 : 0"
       inkscape:vp_x="0 : 0.5 : 1"
       sodipodi:type="inkscape:persp3d" />
    <inkscape:perspective
       id="perspective5834"
       inkscape:persp3d-origin="0.5 : 0.33333333 : 1"
       inkscape:vp_z="1 : 0.5 : 1"
       inkscape:vp_y="0 : 1000 : 0"
       inkscape:vp_x="0 : 0.5 : 1"
       sodipodi:type="inkscape:persp3d" />
    <marker
       inkscape:stockid="Arrow1Mend"
       orient="auto"
       refY="0"
       refX="0"
       id="Arrow1Mend-9"
       style="overflow:visible">
      <path
         id="path5390-1"
         d="M 0,0 5,-5 -12.5,0 5,5 0,0 z"
         style="fill-rule:evenodd;stroke:#000000;stroke-width:1pt;marker-start:none"
         transform="matrix(-0.4, 0, 0, -0.4, -4, 0)" />
    </marker>
    <inkscape:perspective
       id="perspective3656"
       inkscape:persp3d-origin="0.5 : 0.33333333 : 1"
       inkscape:vp_z="1 : 0.5 : 1"
       inkscape:vp_y="0 : 1000 : 0"
       inkscape:vp_x="0 : 0.5 : 1"
       sodipodi:type="inkscape:persp3d" />
    <inkscape:perspective
       id="perspective4328"
       inkscape:persp3d-origin="0.5 : 0.33333333 : 1"
       inkscape:vp_z="1 : 0.5 : 1"
       inkscape:vp_y="0 : 1000 : 0"
       inkscape:vp_x="0 : 0.5 : 1"
       sodipodi:type="inkscape:persp3d" />
    <marker
       inkscape:stockid="Arrow1Mend"
       orient="auto"
       refY="0"
       refX="0"
       id="Arrow1Mend-9-8"
       style="overflow:visible">
      <path
         id="path5390-1-8"
         d="M 0,0 5,-5 -12.5,0 5,5 0,0 z"
         style="fill-rule:evenodd;stroke:#000000;stroke-width:1pt;marker-start:none"
         transform="matrix(-0.4, 0, 0, -0.4, -4, 0)" />
    </marker>
    <inkscape:perspective
       id="perspective4328-4"
       inkscape:persp3d-origin="0.5 : 0.33333333 : 1"
       inkscape:vp_z="1 : 0.5 : 1"
       inkscape:vp_y="0 : 1000 : 0"
       inkscape:vp_x="0 : 0.5 : 1"
       sodipodi:type="inkscape:persp3d" />
    <marker
       inkscape:stockid="Arrow1Mend"
       orient="auto"
       refY="0"
       refX="0"
       id="Arrow1Mend-9-6"
       style="overflow:visible">
      <path
         id="path5390-1-0"
         d="M 0,0 5,-5 -12.5,0 5,5 0,0 z"
         style="fill-rule:evenodd;stroke:#000000;stroke-width:1pt;marker-start:none"
         transform="matrix(-0.4, 0, 0, -0.4, -4, 0)" />
    </marker>
    <inkscape:perspective
       id="perspective4328-8"
       inkscape:persp3d-origin="0.5 : 0.33333333 : 1"
       inkscape:vp_z="1 : 0.5 : 1"
       inkscape:vp_y="0 : 1000 : 0"
       inkscape:vp_x="0 : 0.5 : 1"
       sodipodi:type="inkscape:persp3d" />
    <marker
       inkscape:stockid="Arrow1Mend"
       orient="auto"
       refY="0"
       refX="0"
       id="Arrow1Mend-9-68"
       style="overflow:visible">
      <path
         id="path5390-1-6"
         d="M 0,0 5,-5 -12.5,0 5,5 0,0 z"
         style="fill-rule:evenodd;stroke:#000000;stroke-width:1pt;marker-start:none"
         transform="matrix(-0.4, 0, 0, -0.4, -4, 0)" />
    </marker>
    <inkscape:perspective
       id="perspective4328-6"
       inkscape:persp3d-origin="0.5 : 0.33333333 : 1"
       inkscape:vp_z="1 : 0.5 : 1"
       inkscape:vp_y="0 : 1000 : 0"
       inkscape:vp_x="0 : 0.5 : 1"
       sodipodi:type="inkscape:persp3d" />
    <marker
       inkscape:stockid="Arrow1Mend"
       orient="auto"
       refY="0"
       refX="0"
       id="Arrow1Mend-9-88"
       style="overflow:visible">
      <path
         id="path5390-1-9"
         d="M 0,0 5,-5 -12.5,0 5,5 0,0 z"
         style="fill-rule:evenodd;stroke:#000000;stroke-width:1pt;marker-start:none"
         transform="matrix(-0.4, 0, 0, -0.4, -4, 0)" />
    </marker>
    <inkscape:perspective
       id="perspective4328-81"
       inkscape:persp3d-origin="0.5 : 0.33333333 : 1"
       inkscape:vp_z="1 : 0.5 : 1"
       inkscape:vp_y="0 : 1000 : 0"
       inkscape:vp_x="0 : 0.5 : 1"
       sodipodi:type="inkscape:persp3d" />
    <marker
       inkscape:stockid="Arrow1Mend"
       orient="auto"
       refY="0"
       refX="0"
       id="Arrow1Mend-9-680"
       style="overflow:visible">
      <path
         id="path5390-1-4"
         d="M 0,0 5,-5 -12.5,0 5,5 0,0 z"
         style="fill-rule:evenodd;stroke:#000000;stroke-width:1pt;marker-start:none"
         transform="matrix(-0.4, 0, 0, -0.4, -4, 0)" />
    </marker>
  </defs>
  <sodipodi:namedview
     id="base"
     pagecolor="#ffffff"
     bordercolor="#666666"
     borderopacity="1.0"
     inkscape:pageopacity="0.0"
     inkscape:pageshadow="2"
     inkscape:zoom="0.70710678"
     inkscape:cx="197.41295"
     inkscape:cy="319.06749"
     inkscape:document-units="px"
     inkscape:current-layer="layer1"
     showgrid="false"
     inkscape:window-width="1366"
     inkscape:window-height="739"
     inkscape:window-x="0"
     inkscape:window-y="1"
     inkscape:window-maximized="1" />
  <metadata
     id="metadata7">
    <rdf:RDF>
      <cc:Work
         rdf:about="">
        <dc:format>image/svg+xml</dc:format>
        <dc:type
           rdf:resource="http://purl.org/dc/dcmitype/StillImage" />
        <dc:title />
      </cc:Work>
    </rdf:RDF>
  </metadata>
  <g
     inkscape:label="Layer 1"
     inkscape:groupmode="layer"
     id="layer1"
     transform="translate(-114.782, 9.06706)">
    <path
       style="color:#000000;fill:none;stroke:#000000;stroke-width:3.75;stroke-linecap:round;stroke-linejoin:round;stroke-miterlimit:4;stroke-opacity:1;stroke-dasharray:none;stroke-dashoffset:0.6;marker:none;visibility:visible;display:inline;overflow:visible;enable-background:accumulate"
       d="m 413.43883,275.48296 c 0,150.59465 -64.19795,272.67581 -143.39014,272.67581 -79.19219,0 -143.39013,-122.08116 -143.39013,-272.67581 0,-150.59472 64.19794,-272.6758706 143.39013,-272.6758706 79.19219,0 143.39014,122.0811506 143.39014,272.6758706 z"
       id="path5930" />
    <path
       style="color:#000000;fill:#3cb371;fill-opacity:1;fill-rule:nonzero;stroke:#000000;stroke-width:3.75;stroke-linecap:round;stroke-linejoin:round;stroke-miterlimit:3.92857146;stroke-opacity:1;stroke-dasharray:none;stroke-dashoffset:0.6;marker:none;visibility:visible;display:inline;overflow:visible;enable-background:accumulate"
       d="m 339.21124,207.70306 c 0,0 -55.12774,-23.33839 -55.12774,-23.33839 0,0 47.77551,-36.07284 47.77551,-36.07284 0,0 7.35223,59.41123 7.35223,59.41123 z"
       id="path2816"
       sodipodi:nodetypes="cccc" />
    <path
       style="color:#000000;fill:#b50000;fill-opacity:1;fill-rule:nonzero;stroke:#000000;stroke-width:3.75;stroke-linecap:round;stroke-linejoin:round;stroke-miterlimit:3.92857146;stroke-opacity:1;stroke-dasharray:none;stroke-dashoffset:0.6;marker:none;visibility:visible;display:inline;overflow:visible;enable-background:accumulate"
       d="m 267.82715,118.96949 c 0,0 -29.86404,-51.883387 -29.86404,-51.883387 0,0 39.53233,-5.39794 39.53233,-5.39794 0,0 -9.66829,57.281327 -9.66829,57.281327 z"
       id="path2816-2"
       sodipodi:nodetypes="cccc" />
    <path
       style="color:#000000;fill:#dda0dd;fill-opacity:1;fill-rule:nonzero;stroke:#000000;stroke-width:3.75;stroke-linecap:round;stroke-linejoin:round;stroke-miterlimit:3.92857146;stroke-opacity:1;stroke-dasharray:none;stroke-dashoffset:0.6;marker:none;visibility:visible;display:inline;overflow:visible;enable-background:accumulate"
       d="m 201.43823,345.43294 36.58313,-10.53336 22.89643,-36.27187 -88.19103,16.10985 28.71147,30.69538 z"
       id="rect2845-6"
       sodipodi:nodetypes="ccccc" />
    <rect
       style="color:#000000;fill:#9ade00;fill-opacity:1;fill-rule:nonzero;stroke:#000000;stroke-width:3.74999976;stroke-linecap:round;stroke-linejoin:round;stroke-miterlimit:3.92857146;stroke-opacity:1;stroke-dasharray:none;stroke-dashoffset:0.6;marker:none;visibility:visible;display:inline;overflow:visible;enable-background:accumulate"
       id="rect2883"
       width="46.610107"
       height="46.610107"
       x="403.70328"
       y="174.66942"
       transform="matrix(0.909547, 0.415601, -0.415601, 0.909547, 0, 0)" />
    <path
       style="color:#000000;fill:#fd7118;fill-opacity:1;fill-rule:nonzero;stroke:#000000;stroke-width:3.75;stroke-linecap:round;stroke-linejoin:round;stroke-miterlimit:3.92857146;stroke-opacity:1;stroke-dasharray:none;stroke-dashoffset:0.6;marker:none;visibility:visible;display:inline;overflow:visible;enable-background:accumulate"
       d="m 215.79261,261.10754 c 0,0 -24.85188,-29.37728 -24.85188,-29.37728 0,0 20.25982,-32.71365 20.25982,-32.71365 0,0 37.37317,9.15916 37.37317,9.15916 0,0 2.83804,38.37432 2.83804,38.37432 0,0 -35.61915,14.55745 -35.61915,14.55745 z"
       id="path3659"
       sodipodi:nodetypes="cccccc" />
    <path
       style="color:#000000;fill:#ff2a2a;fill-opacity:1;fill-rule:nonzero;stroke:#000000;stroke-width:3.75;stroke-linecap:round;stroke-linejoin:round;stroke-miterlimit:4;stroke-opacity:1;stroke-dasharray:none;stroke-dashoffset:0.6;marker:none;visibility:visible;display:inline;overflow:visible;enable-background:accumulate"
       d="m 277.60004,497.40814 c -0.13853,0.0633 -28.31077,-3.75967 -28.43583,-3.85873 -0.12507,-0.0991 -15.35336,-30.65508 -15.37078,-30.84191 -0.0174,-0.18683 9.16545,-34.46659 9.26879,-34.6005 0.10335,-0.13391 26.78248,-12.32406 26.92877,-12.3042 0.14628,0.0198 24.23175,19.09873 24.31083,19.2574 0.0791,0.15866 3.43402,36.13979 3.38634,36.31779 -0.0476,0.17803 -19.9496,25.96685 -20.08812,26.03015 z"
       id="path5995" />
    <path
       style="color:#000000;fill:none;stroke:#000000;stroke-width:3.75;stroke-linecap:round;stroke-linejoin:round;stroke-miterlimit:4;stroke-opacity:1;stroke-dasharray:none;stroke-dashoffset:0.6;marker:none;visibility:visible;display:inline;overflow:visible;enable-background:accumulate"
       d="m 782.1459,275.48296 c 0,150.59465 -64.19795,272.67581 -143.39014,272.67581 -79.19219,0 -143.39013,-122.08116 -143.39013,-272.67581 0,-150.59472 64.19794,-272.6758676 143.39013,-272.6758676 79.19219,0 143.39014,122.0811476 143.39014,272.6758676 z"
       id="path5930-8" />
    <g
       style="font-size:66.07479858px;font-style:normal;font-variant:normal;font-weight:normal;font-stretch:normal;fill:#000000;fill-opacity:1;stroke:none;font-family:Gentium;-inkscape-font-specification:Gentium"
       id="text3670">
      <path
         d="m 610.95982,68.9132 0,-1.709943 c 1.67768,-0.193577 3.07574,-0.408664 4.1942,-0.645262 1.11845,-0.258102 2.01106,-0.516206 2.67784,-0.774314 0.66676,-0.258101 1.13995,-0.505451 1.41958,-0.742051 0.27959,-0.2581 0.4194,-0.50545 0.41942,-0.742051 l 0,-25.713679 c -2e-5,-0.860318 -0.0323,-1.527087 -0.0968,-2.000311 -0.0645,-0.473159 -0.22586,-0.860316 -0.48395,-1.161471 -0.12907,-0.129019 -0.37642,-0.236562 -0.74205,-0.322631 -0.36566,-0.086 -0.88187,-0.118264 -1.54863,-0.09679 -0.66678,0.02154 -1.50562,0.09682 -2.51652,0.225841 -1.01092,0.129086 -2.22616,0.344173 -3.64573,0.645262 l -0.67752,-1.645417 c 0.90336,-0.25807 1.96804,-0.612964 3.19404,-1.064682 1.2475,-0.451647 2.50576,-0.935593 3.77478,-1.451839 1.269,-0.53768 2.47349,-1.064643 3.61347,-1.580891 1.13994,-0.537679 2.06482,-1.000116 2.77462,-1.387313 l 1.19374,1.129208 0,34.424712 c -2e-5,0.215092 0.11828,0.451688 0.35489,0.709788 0.23658,0.2366 0.656,0.48395 1.25826,0.742051 0.60223,0.258108 1.41956,0.516212 2.452,0.774314 1.0539,0.258107 2.38744,0.483948 4.00062,0.677525 l 0,1.709943 -21.61627,0"
         style=""
         id="path4419" />
    </g>
    <g
       style="font-size:66.07479858px;font-style:normal;font-variant:normal;font-weight:normal;font-stretch:normal;fill:#000000;fill-opacity:1;stroke:none;font-family:Gentium;-inkscape-font-specification:Gentium"
       id="text3674">
      <path
         d="m 698.11031,112.1621 -22.39058,0 -0.93563,-2.38747 c 2.55953,-2.9682 4.78568,-5.59226 6.67846,-7.87219 1.91426,-2.279912 3.54892,-4.290975 4.90398,-6.033196 1.35504,-1.763698 2.47349,-3.30157 3.35537,-4.613621 0.88183,-1.333519 1.58087,-2.516498 2.0971,-3.54894 0.51618,-1.053902 0.87108,-2.000285 1.06468,-2.839151 0.19355,-0.860321 0.29034,-1.699161 0.29037,-2.516521 -3e-5,-0.989371 -0.11832,-1.90349 -0.3549,-2.742362 -0.23662,-0.860316 -0.61302,-1.602366 -1.12921,-2.226153 -0.51623,-0.645226 -1.19375,-1.139927 -2.03257,-1.484102 -0.81735,-0.365612 -1.80675,-0.548436 -2.9682,-0.548473 -0.88188,3.7e-5 -1.68845,0.20437 -2.41974,0.612999 -0.7313,0.408702 -1.36581,0.935665 -1.90352,1.580891 -0.53773,0.645296 -0.95715,1.365837 -1.25826,2.161627 -0.27962,0.795854 -0.41943,1.570168 -0.41942,2.322942 -0.36566,0.193609 -0.69904,0.376433 -1.00015,0.548473 -0.27963,0.172099 -0.58075,0.333414 -0.90337,0.483946 -0.30113,0.129081 -0.63451,0.247379 -1.00016,0.354894 -0.34414,0.08606 -0.76356,0.150589 -1.25826,0.193578 l -0.8711,-0.967892 c 0,-1.118423 0.3764,-2.279893 1.12921,-3.484413 0.7528,-1.225963 1.75295,-2.344416 3.00047,-3.355361 1.24749,-1.010873 2.65631,-1.838958 4.22646,-2.484258 1.59163,-0.666731 3.21554,-1.000116 4.87173,-1.000156 1.2905,4e-5 2.49499,0.182864 3.61346,0.548473 1.13994,0.365687 2.11859,0.924913 2.93594,1.67768 0.83882,0.731334 1.49483,1.677717 1.96805,2.839152 0.47317,1.139996 0.70976,2.495044 0.70979,4.065149 -3e-5,0.946413 -0.13984,1.914305 -0.41942,2.903677 -0.25813,0.96792 -0.68831,2.021846 -1.29053,3.161783 -0.58076,1.118477 -1.34431,2.344473 -2.29068,3.677991 -0.92489,1.333561 -2.0541,2.83917 -3.38762,4.516832 -1.33356,1.656187 -2.87143,3.516689 -4.61362,5.581512 -1.74222,2.06485 -3.71027,4.38779 -5.90414,6.96883 l 13.48596,0 c 0.58072,0 1.06466,-0.19358 1.45184,-0.58074 0.40865,-0.40866 0.73128,-0.88185 0.9679,-1.41957 0.23657,-0.55922 0.41939,-1.1292 0.54847,-1.70995 0.12903,-0.58072 0.21506,-1.05392 0.2581,-1.41957 0.043,-0.38715 0.0645,-0.59148 0.0645,-0.613 l 1.61315,0.38716 -0.48394,9.2595"
         style=""
         id="path4416" />
    </g>
    <g
       style="font-size:66.07479858px;font-style:normal;font-variant:normal;font-weight:normal;font-stretch:normal;fill:#000000;fill-opacity:1;stroke:none;font-family:Gentium;-inkscape-font-specification:Gentium"
       id="text3678">
      <path
         d="m 640.3314,160.95116 c -3e-5,1.80674 -0.29039,3.51668 -0.8711,5.12983 -0.58076,1.61316 -1.44111,3.02198 -2.58105,4.22646 -1.13998,1.20449 -2.5488,2.16163 -4.22646,2.87142 -1.6777,0.68828 -3.62424,1.03241 -5.83962,1.03242 -0.83885,-1e-5 -1.6992,-0.0753 -2.58105,-0.22585 -0.88187,-0.15056 -1.78523,-0.40866 -2.7101,-0.77431 -0.90337,-0.38716 -1.82825,-0.88186 -2.77462,-1.4841 -0.92488,-0.62375 -1.87127,-1.39807 -2.83915,-2.32294 l 1.09694,-2.16163 c 0.96789,0.7313 1.84975,1.33354 2.64557,1.80673 0.81733,0.4732 1.58089,0.8496 2.29068,1.12921 0.73129,0.27962 1.45183,0.47319 2.16163,0.58074 0.70978,0.10754 1.47333,0.16131 2.29068,0.16131 1.31202,0 2.50575,-0.20433 3.5812,-0.613 1.07542,-0.40866 2.00029,-1.00015 2.77463,-1.77447 0.77429,-0.77431 1.37653,-1.70993 1.80673,-2.80689 0.43015,-1.09693 0.64524,-2.33368 0.64526,-3.71025 -2e-5,-1.61314 -0.25813,-2.97894 -0.77431,-4.09741 -0.49472,-1.13995 -1.13999,-2.06482 -1.93579,-2.77463 -0.79584,-0.70977 -1.68845,-1.21522 -2.67783,-1.51636 -0.96791,-0.32261 -1.92505,-0.48393 -2.87142,-0.48395 -0.30113,2e-5 -0.52698,2e-5 -0.67752,0 -0.12907,2e-5 -0.25812,0.0108 -0.38716,0.0323 -0.10756,0.0215 -0.24736,0.043 -0.41942,0.0645 -0.15057,0.0215 -0.38717,0.0645 -0.70979,0.12905 l -0.45168,-1.93578 c 1.97879,-0.5377 3.55968,-1.16145 4.74267,-1.87126 1.18296,-0.70977 2.08633,-1.44106 2.7101,-2.19389 0.64524,-0.77429 1.06466,-1.53785 1.25826,-2.29068 0.21507,-0.77429 0.32261,-1.49483 0.32263,-2.16163 -2e-5,-0.73126 -0.11832,-1.48407 -0.35489,-2.25841 -0.21511,-0.77428 -0.57,-1.47332 -1.06468,-2.0971 -0.47321,-0.62372 -1.07546,-1.12918 -1.80674,-1.51637 -0.73131,-0.40863 -1.61317,-0.61296 -2.64557,-0.613 -0.86036,4e-5 -1.63468,0.1506 -2.32294,0.45169 -0.66678,0.27965 -1.22601,0.6668 -1.67768,1.16147 -0.4517,0.49473 -0.77433,1.07547 -0.9679,1.7422 -0.17207,0.6453 -0.19358,1.33358 -0.0645,2.06484 -0.73131,0.36568 -1.43034,0.65605 -2.0971,0.8711 -0.66678,0.19361 -1.4626,0.32267 -2.38747,0.38716 l -0.8711,-1.00015 c -10e-6,-0.90334 0.33338,-1.86048 1.00015,-2.87142 0.66677,-1.03238 1.55938,-1.97877 2.67784,-2.83915 1.11844,-0.86031 2.40897,-1.5701 3.87157,-2.12936 1.48409,-0.5807 3.04347,-0.87107 4.67815,-0.87111 1.61313,4e-5 2.98969,0.25815 4.12967,0.77432 1.16145,0.51624 2.10783,1.20452 2.83915,2.06483 0.75278,0.83888 1.30126,1.79602 1.64542,2.87142 0.34411,1.05396 0.51618,2.12939 0.51621,3.22631 -3e-5,0.81736 -0.16134,1.62394 -0.48395,2.41973 -0.30114,0.79585 -0.75283,1.55941 -1.35505,2.29068 -0.58075,0.73132 -1.29054,1.40884 -2.12936,2.03257 -0.83886,0.62378 -1.78524,1.17225 -2.83915,1.64542 1.22598,0.15058 2.36594,0.52699 3.41988,1.12921 1.07542,0.58075 2.00029,1.33356 2.77463,2.25841 0.77429,0.90339 1.38729,1.94656 1.839,3.12952 0.45165,1.16149 0.67749,2.39824 0.67752,3.71026"
         style=""
         id="path4413" />
    </g>
    <g
       style="font-size:66.07479858px;font-style:normal;font-variant:normal;font-weight:normal;font-stretch:normal;fill:#000000;fill-opacity:1;stroke:none;font-family:Gentium;-inkscape-font-specification:Gentium"
       id="text3682">
      <path
         d="m 617.13249,219.46968 -12.03413,18.68032 12.03413,0 0,-18.68032 m 9.29176,19.68048 c -0.45171,0.68829 -0.87113,1.2045 -1.25826,1.54863 -0.36567,0.32264 -0.79584,0.66678 -1.29052,1.03242 l -2.25841,0 0,7.93671 c -3e-5,0.17208 0.0645,0.33339 0.19357,0.48395 0.12903,0.12906 0.36563,0.27962 0.70979,0.45168 0.34412,0.15057 0.80655,0.31188 1.38731,0.48395 0.58071,0.17207 1.31201,0.3549 2.19389,0.54847 l 0,1.38731 -15.77664,0 0,-1.38731 c 1.39805,-0.23659 2.53801,-0.45168 3.41988,-0.64526 0.88184,-0.21508 1.57012,-0.40866 2.06484,-0.58073 0.51619,-0.19358 0.86033,-0.3764 1.03242,-0.54848 0.19356,-0.17206 0.29035,-0.35489 0.29037,-0.54847 l 0,-7.58182 -16.06702,0 -1.06468,-1.06469 16.00249,-25.5201 c 0.90335,-0.38712 1.70992,-0.78503 2.41973,-1.19373 0.70977,-0.40863 1.37654,-0.77428 2.00031,-1.09695 l 1.19374,1.12921 0,24.16505 3.96835,0 0.83884,1.00016 0,0"
         style=""
         id="path2869" />
    </g>
    <g
       style="font-size:66.07479858px;font-style:normal;font-variant:normal;font-weight:normal;font-stretch:normal;fill:#000000;fill-opacity:1;stroke:none;font-family:Gentium;-inkscape-font-specification:Gentium"
       id="text3686">
      <path
         d="m 632.65987,343.9737 c -3e-5,1.87127 -0.2904,3.66725 -0.87111,5.38794 -0.55925,1.69919 -1.38733,3.2048 -2.48425,4.51683 -1.07546,1.31203 -2.409,2.35521 -4.00063,3.12952 -1.59166,0.77431 -3.39839,1.16147 -5.4202,1.16147 -2.00032,0 -3.97912,-0.36565 -5.9364,-1.09694 -1.9573,-0.7313 -3.87158,-1.96805 -5.74283,-3.71026 l 1.12921,-2.16163 c 1.13995,0.79583 2.17237,1.44109 3.09725,1.93579 0.94638,0.4732 1.81748,0.83884 2.61331,1.09694 0.79581,0.25811 1.52711,0.43018 2.19389,0.51621 0.66676,0.086 1.31202,0.12906 1.93579,0.12906 1.39805,0 2.61329,-0.25811 3.64573,-0.77432 1.0539,-0.53771 1.92501,-1.2475 2.61331,-2.12936 0.68825,-0.90336 1.20446,-1.92502 1.54862,-3.06499 0.34412,-1.13996 0.51619,-2.32294 0.51621,-3.54894 -2e-5,-1.46258 -0.18284,-2.79612 -0.54847,-4.00063 -0.34416,-1.20447 -0.88188,-2.22613 -1.61315,-3.06499 -0.70981,-0.86033 -1.62393,-1.5271 -2.74237,-2.00031 -1.09696,-0.47317 -2.39823,-0.70977 -3.90383,-0.70979 -0.4517,2e-5 -0.9679,0.0538 -1.54863,0.16132 -0.58074,0.10756 -1.19374,0.26888 -1.83899,0.48394 -0.62377,0.21511 -1.25827,0.48397 -1.90353,0.80658 -0.62376,0.32265 -1.21524,0.69905 -1.77447,1.12921 l -1.51636,-1.06468 c 0.12905,-0.7743 0.27961,-1.66691 0.45168,-2.67784 0.17207,-1.03239 0.34414,-2.11858 0.51621,-3.25857 0.19358,-1.13994 0.3764,-2.30141 0.54847,-3.48441 0.19358,-1.18295 0.36565,-2.33367 0.51621,-3.45215 0.15056,-1.13993 0.27961,-2.21537 0.38716,-3.22631 0.10754,-1.01088 0.18282,-1.89273 0.22584,-2.64558 l 14.06671,0 c 1.22597,4e-5 2.18311,-0.0967 2.87141,-0.29036 0.68826,-0.21505 1.0324,-0.3226 1.03242,-0.32263 l 0.93563,0.93562 c -0.23662,0.34418 -0.51623,0.70983 -0.83884,1.09695 -0.30115,0.36569 -0.61302,0.72058 -0.93563,1.06468 -0.32265,0.34418 -0.64528,0.66681 -0.96789,0.96789 -0.30115,0.27965 -0.58076,0.51625 -0.83884,0.70979 l -12.48582,0 c -0.043,0.62379 -0.1183,1.43037 -0.22584,2.41973 -0.10755,0.96793 -0.2366,1.96808 -0.38715,3.00047 -0.12907,1.01094 -0.26887,1.96808 -0.41942,2.87141 -0.15057,0.9034 -0.26887,1.59168 -0.3549,2.06484 0.86034,-0.25808 1.87125,-0.46241 3.03273,-0.613 1.16146,-0.15053 2.29067,-0.22581 3.38763,-0.22584 1.95727,3e-5 3.67797,0.33341 5.16209,1.00016 1.50559,0.64528 2.76385,1.51639 3.77478,2.61331 1.01089,1.09696 1.77444,2.36598 2.29068,3.80704 0.53769,1.4411 0.80655,2.94671 0.80658,4.51683"
         style=""
         id="path4410" />
    </g>
    <g
       style="font-size:66.07479858px;font-style:normal;font-variant:normal;font-weight:normal;font-stretch:normal;fill:#000000;fill-opacity:1;stroke:none;font-family:Gentium;-inkscape-font-specification:Gentium"
       id="text3690">
      <path
         d="m 689.40242,350.01197 c -1.09696,2e-5 -2.3122,0.30115 -3.64573,0.90337 -1.31205,0.60226 -2.5703,1.62393 -3.77478,3.06499 -10e-6,2.55956 0.20432,4.77495 0.613,6.6462 0.43016,1.84976 1.0324,3.38763 1.80673,4.61362 0.7743,1.20449 1.70993,2.10786 2.80689,2.7101 1.09693,0.58074 2.31217,0.8711 3.64573,0.8711 1.16145,0 2.11859,-0.26885 2.87141,-0.80658 0.77429,-0.53771 1.38729,-1.22599 1.839,-2.06483 0.47317,-0.86035 0.80655,-1.80673 1.00015,-2.83915 0.19356,-1.05392 0.29035,-2.07559 0.29037,-3.065 -2e-5,-2.0218 -0.24737,-3.67797 -0.74205,-4.96851 -0.47322,-1.29051 -1.07546,-2.31217 -1.80673,-3.065 -0.73132,-0.75278 -1.5379,-1.26899 -2.41974,-1.54862 -0.86036,-0.30111 -1.68845,-0.45167 -2.48425,-0.45169 m 12.29223,7.96898 c -3e-5,1.01093 -0.11832,2.06485 -0.35489,3.16179 -0.21512,1.09695 -0.55926,2.17239 -1.03242,3.22631 -0.45171,1.05393 -1.02169,2.05408 -1.70994,3.00046 -0.6668,0.94639 -1.45187,1.78523 -2.35521,2.51652 -0.88188,0.70979 -1.88203,1.27977 -3.00047,1.70995 -1.11847,0.43017 -2.33371,0.64526 -3.64572,0.64526 -1.76373,0 -3.4199,-0.38716 -4.96852,-1.16147 -1.54864,-0.79582 -2.90369,-1.90352 -4.06515,-3.3231 -1.13997,-1.41957 -2.04333,-3.11876 -2.7101,-5.09757 -0.66677,-2.0003 -1.00016,-4.21569 -1.00015,-6.64619 -10e-6,-3.03272 0.43017,-5.93639 1.29052,-8.71104 0.88185,-2.7961 2.21539,-5.31262 4.00062,-7.54956 1.80672,-2.23687 4.07589,-4.11888 6.80751,-5.64604 2.7531,-1.54859 6.00092,-2.59176 9.74346,-3.12952 l 0.61299,1.90352 c -2.53805,0.58078 -4.79646,1.46263 -6.77524,2.64558 -1.95732,1.1615 -3.64575,2.51655 -5.06531,4.06515 -1.39808,1.54865 -2.53804,3.24784 -3.41989,5.09756 -0.86035,1.82827 -1.45184,3.69953 -1.77447,5.61378 0.7528,-0.73127 1.51636,-1.34427 2.29068,-1.839 0.79581,-0.49467 1.55937,-0.89258 2.29068,-1.19373 0.75279,-0.3011 1.46258,-0.51618 2.12937,-0.64526 0.66675,-0.12903 1.24749,-0.19355 1.7422,-0.19358 1.74219,3e-5 3.29082,0.26888 4.64589,0.80658 1.35502,0.53774 2.49498,1.31205 3.41988,2.32294 0.94636,0.98942 1.6669,2.20466 2.16163,3.64573 0.49467,1.41959 0.74202,3.01123 0.74205,4.77493"
         style=""
         id="path4407" />
    </g>
    <g
       style="font-size:66.07479858px;font-style:normal;font-variant:normal;font-weight:normal;font-stretch:normal;fill:#000000;fill-opacity:1;stroke:none;font-family:Gentium;-inkscape-font-specification:Gentium"
       id="text3694">
      <path
         d="m 663.58799,406.24968 c -0.98943,2.30146 -1.98959,4.64591 -3.00047,7.03335 -1.01093,2.36599 -2.00034,4.69968 -2.9682,7.00109 -0.94641,2.30145 -1.86053,4.53836 -2.74237,6.71072 -0.88187,2.17239 -1.6992,4.21572 -2.45199,6.12999 -0.73131,1.91428 -1.39808,3.66724 -2.00031,5.25888 -0.60226,1.59165 -1.08621,2.95745 -1.45184,4.09741 -0.75282,0.53772 -1.54864,1.00016 -2.38747,1.38731 -0.81734,0.38716 -1.76372,0.72054 -2.83915,1.00016 l -1.32279,-1.06468 c 1.87125,-3.29083 3.54893,-6.43111 5.03304,-9.42082 1.48409,-2.9897 2.86065,-5.88262 4.12968,-8.67877 1.269,-2.81763 2.47348,-5.58149 3.61346,-8.29162 1.13995,-2.71007 2.30142,-5.44167 3.48442,-8.19482 l -14.64744,0 c -0.32264,3e-5 -0.63452,0.0108 -0.93563,0.0323 -0.30113,0.0215 -0.61301,0.17211 -0.93563,0.45169 -0.32264,0.25813 -0.67753,0.70982 -1.06468,1.35505 -0.36566,0.64529 -0.77432,1.59167 -1.226,2.83915 l -1.4841,-0.58074 c 0.0645,-0.49467 0.15055,-1.10767 0.2581,-1.83899 0.10754,-0.75278 0.22584,-1.52709 0.3549,-2.32295 0.12904,-0.79578 0.2581,-1.55934 0.38715,-2.29068 0.12905,-0.73125 0.2581,-1.3335 0.38716,-1.80673 l 22.74547,0 1.06469,1.19374 0,0"
         style=""
         id="path4404" />
    </g>
    <g
       style="font-size:66.07479858px;font-style:normal;font-variant:normal;font-weight:normal;font-stretch:normal;fill:#000000;fill-opacity:1;stroke:none;font-family:Gentium;-inkscape-font-specification:Gentium"
       id="text3698">
      <path
         d="m 632.25799,491.04233 c -10e-6,0.94641 0.22584,1.7745 0.67753,2.48426 0.47318,0.6883 1.09693,1.31206 1.87126,1.87126 0.7743,0.55925 1.65616,1.07546 2.64557,1.54862 1.01089,0.45171 2.05407,0.91415 3.12952,1.38732 1.59163,-1.13994 2.72083,-2.2799 3.38762,-3.41989 0.66675,-1.16144 1.00014,-2.32291 1.00016,-3.48441 -2e-5,-1.11843 -0.17209,-2.08632 -0.51621,-2.90368 -0.32265,-0.83881 -0.79584,-1.52709 -1.41958,-2.06484 -0.60226,-0.53768 -1.33356,-0.93559 -2.19389,-1.19373 -0.86036,-0.25807 -1.8175,-0.38712 -2.87141,-0.38716 -0.96791,4e-5 -1.80675,0.18286 -2.51652,0.54847 -0.7098,0.36569 -1.30129,0.84963 -1.77447,1.45184 -0.4732,0.58077 -0.8281,1.23679 -1.06468,1.96805 -0.23661,0.73133 -0.35491,1.46262 -0.3549,2.19389 m 13.96992,20.68064 c -2e-5,-1.41957 -0.25813,-2.63481 -0.77432,-3.64573 -0.49472,-1.0109 -1.15073,-1.882 -1.96804,-2.61331 -0.81735,-0.73128 -1.75298,-1.36579 -2.80689,-1.90352 -1.05395,-0.5377 -2.14013,-1.05391 -3.25857,-1.54863 -1.03243,0.75282 -1.91429,1.49487 -2.64558,2.22615 -0.7313,0.70981 -1.33355,1.4411 -1.80673,2.19389 -0.45169,0.75282 -0.79583,1.54864 -1.03242,2.38747 -0.21509,0.83885 -0.32264,1.74222 -0.32263,2.7101 -1e-5,1.11846 0.18282,2.16163 0.54847,3.12952 0.36564,0.9679 0.89261,1.80674 1.58089,2.51652 0.68827,0.70979 1.51636,1.26902 2.48426,1.67768 0.98939,0.38716 2.09709,0.58074 3.3231,0.58073 1.18296,10e-6 2.19387,-0.22583 3.03273,-0.67752 0.86033,-0.45168 1.55936,-1.04317 2.0971,-1.77447 0.5377,-0.73129 0.92485,-1.54862 1.16147,-2.45199 0.25808,-0.92487 0.38714,-1.8605 0.38716,-2.80689 m 5.0653,-1.38732 c -2e-5,1.67769 -0.35492,3.25858 -1.06468,4.74268 -0.6883,1.48411 -1.64544,2.79614 -2.87141,3.93609 -1.20451,1.11846 -2.61333,2.01107 -4.22647,2.67784 -1.61317,0.64526 -3.33387,0.96789 -5.16209,0.96789 -1.84976,0 -3.48443,-0.27961 -4.90399,-0.83884 -1.41958,-0.55922 -2.62407,-1.31203 -3.61347,-2.25841 -0.9894,-0.94638 -1.74221,-2.02182 -2.25841,-3.22631 -0.49471,-1.22599 -0.74206,-2.50576 -0.74205,-3.83931 -10e-6,-1.16146 0.19357,-2.27991 0.58073,-3.35536 0.40866,-1.09693 0.97865,-2.12935 1.70995,-3.09726 0.7528,-0.98938 1.64541,-1.91425 2.67783,-2.77462 1.05392,-0.86033 2.22615,-1.6454 3.51668,-2.35521 -0.92489,-0.43015 -1.80674,-0.90334 -2.64557,-1.41957 -0.81734,-0.51619 -1.53788,-1.11843 -2.16163,-1.80673 -0.62376,-0.68826 -1.11846,-1.47333 -1.4841,-2.35521 -0.36566,-0.90334 -0.54848,-1.95727 -0.54847,-3.16178 -10e-6,-1.48407 0.29036,-2.86063 0.8711,-4.12968 0.60224,-1.26898 1.41957,-2.35517 2.45199,-3.25857 1.03241,-0.92484 2.24765,-1.64538 3.64573,-2.16163 1.41956,-0.51617 2.93593,-0.77427 4.5491,-0.77431 1.61313,4e-5 3.04346,0.21513 4.29099,0.64526 1.26899,0.43022 2.32292,1.0217 3.16178,1.77447 0.86032,0.75284 1.51634,1.65621 1.96805,2.7101 0.45165,1.05396 0.6775,2.20468 0.67752,3.45215 -2e-5,0.9034 -0.16134,1.76375 -0.48394,2.58105 -0.32266,0.79585 -0.77434,1.57016 -1.35505,2.32294 -0.58076,0.73132 -1.2798,1.44111 -2.0971,2.12936 -0.79585,0.68831 -1.66695,1.36583 -2.61331,2.03258 1.0539,0.51623 2.07557,1.09696 3.06499,1.7422 0.98938,0.62378 1.84972,1.36583 2.58105,2.22616 0.75277,0.86036 1.35502,1.84976 1.80673,2.9682 0.45165,1.11847 0.6775,2.41975 0.67752,3.90383"
         style=""
         id="path4401" />
    </g>
    <path
       style="fill:none;stroke:#000000;stroke-width:3.75;stroke-linecap:round;stroke-linejoin:round;stroke-miterlimit:4;stroke-opacity:1;stroke-dasharray:none;stroke-dashoffset:0;marker-start:none;marker-end:url(#Arrow1Mend-9)"
       d="M 358.92555,181.17519 592.317,168.04321"
       id="path3702"
       sodipodi:nodetypes="cc" />
    <path
       style="fill:none;stroke:#000000;stroke-width:3.75;stroke-linecap:round;stroke-linejoin:round;stroke-miterlimit:4;stroke-opacity:1;stroke-dasharray:none;stroke-dashoffset:0;marker-start:none;marker-end:url(#Arrow1Mend-9)"
       d="M 289.91504,93.709391 597.45167,136.74189"
       id="path3702-7"
       sodipodi:nodetypes="cc" />
    <path
       style="fill:none;stroke:#000000;stroke-width:3.75;stroke-linecap:round;stroke-linejoin:round;stroke-miterlimit:4;stroke-opacity:1;stroke-dasharray:none;stroke-dashoffset:0;marker-start:none;marker-end:url(#Arrow1Mend-9)"
       d="M 264.54212,236.26196 590.05948,341.31783"
       id="path3702-2"
       sodipodi:nodetypes="cc" />
    <path
       style="fill:none;stroke:#000000;stroke-width:3.75;stroke-linecap:round;stroke-linejoin:round;stroke-miterlimit:4;stroke-opacity:1;stroke-dasharray:none;stroke-dashoffset:0;marker-start:none;marker-end:url(#Arrow1Mend-9)"
       d="M 348.78884,341.11579 591.27166,251.41424"
       id="path3702-9"
       sodipodi:nodetypes="cc" />
    <path
       style="fill:none;stroke:#000000;stroke-width:3.75;stroke-linecap:round;stroke-linejoin:round;stroke-miterlimit:4;stroke-opacity:1;stroke-dasharray:none;stroke-dashoffset:0;marker-start:none;marker-end:url(#Arrow1Mend-9)"
       d="m 273.43146,310.81122 309.961,-77.98378"
       id="path3702-8"
       sodipodi:nodetypes="cc" />
    <path
       style="fill:none;stroke:#000000;stroke-width:3.75;stroke-linecap:round;stroke-linejoin:round;stroke-miterlimit:4;stroke-opacity:1;stroke-dasharray:none;stroke-dashoffset:0;marker-start:none;marker-end:url(#Arrow1Mend-9)"
       d="M 317.67614,445.76759 618.14171,422.53408"
       id="path3702-84"
       sodipodi:nodetypes="cc" />
  </g>
</svg>
