<?xml version="1.0" encoding="UTF-8" standalone="no"?>
<!DOCTYPE svg PUBLIC "-//W3C//DTD SVG 1.1//EN"
 "http://www.w3.org/Graphics/SVG/1.1/DTD/svg11.dtd">
<!-- Generated by graphviz version 2.40.1 (20161225.0304)
 -->
<!-- Title: %3 Pages: 1 -->
<svg width="576pt" height="284pt"
 viewBox="0.00 0.00 576.00 283.73" xmlns="http://www.w3.org/2000/svg" xmlns:xlink="http://www.w3.org/1999/xlink">
<g id="graph0" class="graph" transform="scale(1.8545 1.8545) rotate(0) translate(4 149)">
<title>%3</title>
<g id="clust1" class="cluster">
<title>cluster0</title>
<polygon fill="#ffffff" stroke="#000000" points="31.6,-8 31.6,-137 294.6,-137 294.6,-8 31.6,-8"/>
<text text-anchor="middle" x="163.1" y="-121.8" font-family="Lato" font-size="14.00" fill="#000000">Marco global</text>
</g>
<!-- suma -->
<g id="node1" class="node">
<title>suma</title>
<polygon fill="transparent" stroke="transparent" points="108.6,-106 54.6,-106 54.6,-70 108.6,-70 108.6,-106"/>
<text text-anchor="middle" x="81.6" y="-84.6" font-family="monospace" font-size="13.00" fill="#000000">suma</text>
</g>
<!-- v1 -->
<g id="node3" class="node">
<title>v1</title>
<polygon fill="#ffffff" stroke="#000000" points="181.6,-99 159.6,-99 159.6,-77 181.6,-77 181.6,-99"/>
<text text-anchor="middle" x="170.6" y="-84.6" font-family="monospace" font-size="13.00" fill="#000000">⬤</text>
</g>
<!-- suma&#45;&gt;v1 -->
<g id="edge1" class="edge">
<title>suma&#45;&gt;v1</title>
<path fill="none" stroke="#000000" d="M108.7865,-88C121.7805,-88 137.1078,-88 149.249,-88"/>
<polygon fill="#000000" stroke="#000000" points="149.345,-91.5001 159.345,-88 149.345,-84.5001 149.345,-91.5001"/>
</g>
<!-- resultado -->
<g id="node2" class="node">
<title>resultado</title>
<polygon fill="transparent" stroke="transparent" points="123.6,-52 39.6,-52 39.6,-16 123.6,-16 123.6,-52"/>
<text text-anchor="middle" x="81.6" y="-30.6" font-family="monospace" font-size="13.00" fill="#000000">resultado</text>
</g>
<!-- v2 -->
<g id="node4" class="node">
<title>v2</title>
<polygon fill="#ffffff" stroke="#000000" points="181.6,-45 159.6,-45 159.6,-23 181.6,-23 181.6,-45"/>
<text text-anchor="middle" x="170.6" y="-30.6" font-family="monospace" font-size="13.00" fill="#000000">⬤</text>
</g>
<!-- resultado&#45;&gt;v2 -->
<g id="edge3" class="edge">
<title>resultado&#45;&gt;v2</title>
<path fill="none" stroke="#000000" d="M123.7543,-34C132.5688,-34 141.5065,-34 149.1786,-34"/>
<polygon fill="#000000" stroke="#000000" points="149.3521,-37.5001 159.3521,-34 149.352,-30.5001 149.3521,-37.5001"/>
</g>
<!-- función -->
<g id="node5" class="node">
<title>función</title>
<polygon fill="#ffffff" stroke="#000000" points="286.6,-106 217.6,-106 217.6,-70 286.6,-70 286.6,-106"/>
<text text-anchor="middle" x="252.1" y="-84.6" font-family="monospace" font-size="13.00" fill="#000000">función</text>
</g>
<!-- v1&#45;&gt;función -->
<g id="edge2" class="edge">
<title>v1&#45;&gt;función</title>
<path fill="none" stroke="#000000" d="M181.9322,-88C188.6775,-88 197.7254,-88 207.0767,-88"/>
<polygon fill="#000000" stroke="#000000" points="207.2486,-91.5001 217.2485,-88 207.2485,-84.5001 207.2486,-91.5001"/>
</g>
<!-- 7 -->
<g id="node6" class="node">
<title>7</title>
<polygon fill="#ffffff" stroke="#000000" points="279.1,-52 225.1,-52 225.1,-16 279.1,-16 279.1,-52"/>
<text text-anchor="middle" x="252.1" y="-30.6" font-family="monospace" font-size="13.00" fill="#000000">7</text>
</g>
<!-- v2&#45;&gt;7 -->
<g id="edge4" class="edge">
<title>v2&#45;&gt;7</title>
<path fill="none" stroke="#000000" d="M181.9322,-34C190.5247,-34 202.8538,-34 214.7869,-34"/>
<polygon fill="#000000" stroke="#000000" points="215.0678,-37.5001 225.0678,-34 215.0678,-30.5001 215.0678,-37.5001"/>
</g>
<!-- E -->
<g id="node7" class="node">
<title>E</title>
<ellipse fill="#ffffff" stroke="#000000" cx="1.8" cy="-88" rx="1.8" ry="1.8"/>
</g>
<!-- E&#45;&gt;suma -->
<g id="edge5" class="edge">
<title>E&#45;&gt;suma</title>
<path fill="none" stroke="#000000" d="M3.7726,-88C6.9018,-88 13.4837,-88 21.5572,-88"/>
<polygon fill="#000000" stroke="#000000" points="21.6024,-91.5001 31.6024,-88 21.6023,-84.5001 21.6024,-91.5001"/>
</g>
</g>
</svg>
