<?xml version="1.0" encoding="UTF-8" standalone="no"?>
<!DOCTYPE svg PUBLIC "-//W3C//DTD SVG 1.1//EN"
 "http://www.w3.org/Graphics/SVG/1.1/DTD/svg11.dtd">
<!-- Generated by graphviz version 2.43.0 (0)
 -->
<!-- Title: %3 Pages: 1 -->
<svg width="329pt" height="66pt"
 viewBox="0.00 0.00 329.00 66.00" xmlns="http://www.w3.org/2000/svg" xmlns:xlink="http://www.w3.org/1999/xlink">
<g id="graph0" class="graph" transform="scale(1 1) rotate(0) translate(4 62)">
<title>%3</title>
<!-- identificador -->
<g id="node1" class="node">
<title>identificador</title>
<polygon fill="transparent" stroke="transparent" points="114,-47 0,-47 0,-11 114,-11 114,-47"/>
<text text-anchor="middle" x="57" y="-25.6" font-family="monospace" font-size="13.00">identificador</text>
</g>
<!-- variable -->
<g id="node3" class="node">
<title>variable</title>
<polygon fill="white" stroke="black" points="227,-47 150,-47 150,-11 227,-11 227,-47"/>
<text text-anchor="middle" x="188.5" y="-25.6" font-family="monospace" font-size="13.00">variable</text>
</g>
<!-- identificador&#45;&gt;variable -->
<g id="edge1" class="edge">
<title>identificador&#45;&gt;variable</title>
<path fill="none" stroke="black" d="M114.05,-29C122.51,-29 131.17,-29 139.44,-29"/>
<polygon fill="black" stroke="black" points="139.66,-32.5 149.66,-29 139.66,-25.5 139.66,-32.5"/>
</g>
<!-- valor -->
<g id="node2" class="node">
<title>valor</title>
<ellipse fill="white" stroke="black" cx="292" cy="-29" rx="29" ry="29"/>
<text text-anchor="middle" x="292" y="-25.6" font-family="monospace" font-size="13.00">valor</text>
</g>
<!-- variable&#45;&gt;valor -->
<g id="edge2" class="edge">
<title>variable&#45;&gt;valor</title>
<path fill="none" stroke="black" d="M227.01,-29C235.34,-29 244.2,-29 252.57,-29"/>
<polygon fill="black" stroke="black" points="252.85,-32.5 262.85,-29 252.85,-25.5 252.85,-32.5"/>
</g>
</g>
</svg>
