<?xml version="1.0" encoding="UTF-8" standalone="no"?>
<!DOCTYPE svg PUBLIC "-//W3C//DTD SVG 1.1//EN"
 "http://www.w3.org/Graphics/SVG/1.1/DTD/svg11.dtd">
<!-- Generated by graphviz version 2.40.1 (20161225.0304)
 -->
<!-- Title: %3 Pages: 1 -->
<svg width="576pt" height="116pt"
 viewBox="0.00 0.00 576.00 115.55" xmlns="http://www.w3.org/2000/svg" xmlns:xlink="http://www.w3.org/1999/xlink">
<g id="graph0" class="graph" transform="scale(1.7508 1.7508) rotate(0) translate(4 62)">
<title>%3</title>
<!-- identificador -->
<g id="node1" class="node">
<title>identificador</title>
<polygon fill="transparent" stroke="transparent" points="114,-47 0,-47 0,-11 114,-11 114,-47"/>
<text text-anchor="middle" x="57" y="-25.6" font-family="monospace" font-size="13.00" fill="#000000">identificador</text>
</g>
<!-- variable -->
<g id="node3" class="node">
<title>variable</title>
<polygon fill="#ffffff" stroke="#000000" points="227,-47 150,-47 150,-11 227,-11 227,-47"/>
<text text-anchor="middle" x="188.5" y="-25.6" font-family="monospace" font-size="13.00" fill="#000000">variable</text>
</g>
<!-- identificador&#45;&gt;variable -->
<g id="edge1" class="edge">
<title>identificador&#45;&gt;variable</title>
<path fill="none" stroke="#000000" d="M114.2953,-29C122.7629,-29 131.4208,-29 139.6945,-29"/>
<polygon fill="#000000" stroke="#000000" points="139.9259,-32.5001 149.9259,-29 139.9258,-25.5001 139.9259,-32.5001"/>
</g>
<!-- valor -->
<g id="node2" class="node">
<title>valor</title>
<ellipse fill="#ffffff" stroke="#000000" cx="292" cy="-29" rx="29" ry="29"/>
<text text-anchor="middle" x="292" y="-25.6" font-family="monospace" font-size="13.00" fill="#000000">valor</text>
</g>
<!-- variable&#45;&gt;valor -->
<g id="edge2" class="edge">
<title>variable&#45;&gt;valor</title>
<path fill="none" stroke="#000000" d="M227.0396,-29C235.3643,-29 244.1778,-29 252.5372,-29"/>
<polygon fill="#000000" stroke="#000000" points="252.8122,-32.5001 262.8121,-29 252.8121,-25.5001 252.8122,-32.5001"/>
</g>
</g>
</svg>
