<?xml version="1.0" encoding="UTF-8" standalone="no"?>
<!DOCTYPE svg PUBLIC "-//W3C//DTD SVG 1.1//EN"
 "http://www.w3.org/Graphics/SVG/1.1/DTD/svg11.dtd">
<!-- Generated by graphviz version 2.43.0 (0)
 -->
<!-- Title: %3 Pages: 1 -->
<svg width="408pt" height="66pt"
 viewBox="0.00 0.00 408.00 66.00" xmlns="http://www.w3.org/2000/svg" xmlns:xlink="http://www.w3.org/1999/xlink">
<g id="graph0" class="graph" transform="scale(1 1) rotate(0) translate(4 62)">
<title>%3</title>
<!-- identificador -->
<g id="node1" class="node">
<title>identificador</title>
<polygon fill="transparent" stroke="transparent" points="114,-47 0,-47 0,-11 114,-11 114,-47"/>
<text text-anchor="middle" x="57" y="-25.6" font-family="monospace" font-size="13.00">identificador</text>
</g>
<!-- variable -->
<g id="node3" class="node">
<title>variable</title>
<polygon fill="white" stroke="black" points="270,-47 193,-47 193,-11 270,-11 270,-47"/>
<text text-anchor="middle" x="231.5" y="-25.6" font-family="monospace" font-size="13.00">variable</text>
</g>
<!-- identificador&#45;&gt;variable -->
<g id="edge1" class="edge">
<title>identificador&#45;&gt;variable</title>
<path fill="none" stroke="black" d="M114.01,-29C136.24,-29 161.55,-29 182.88,-29"/>
<polygon fill="black" stroke="black" points="183,-32.5 193,-29 183,-25.5 183,-32.5"/>
<text text-anchor="middle" x="153.5" y="-32.4" font-family="Lato" font-size="12.00">ligadura</text>
</g>
<!-- valor -->
<g id="node2" class="node">
<title>valor</title>
<ellipse fill="white" stroke="black" cx="371" cy="-29" rx="29" ry="29"/>
<text text-anchor="middle" x="371" y="-25.6" font-family="monospace" font-size="13.00">valor</text>
</g>
<!-- variable&#45;&gt;valor -->
<g id="edge2" class="edge">
<title>variable&#45;&gt;valor</title>
<path fill="none" stroke="black" d="M270.07,-29C289.13,-29 312.23,-29 331.43,-29"/>
<polygon fill="black" stroke="black" points="331.64,-32.5 341.63,-29 331.63,-25.5 331.64,-32.5"/>
<text text-anchor="middle" x="306" y="-32.4" font-family="Lato" font-size="12.00">estado</text>
</g>
</g>
</svg>
