<?xml version="1.0" encoding="UTF-8" standalone="no"?>
<!DOCTYPE svg PUBLIC "-//W3C//DTD SVG 1.1//EN"
 "http://www.w3.org/Graphics/SVG/1.1/DTD/svg11.dtd">
<!-- Generated by graphviz version 14.1.1 (0)
 -->
<!-- Pages: 1 -->
<svg width="389pt" height="66pt"
 viewBox="0.00 0.00 389.00 66.00" xmlns="http://www.w3.org/2000/svg" xmlns:xlink="http://www.w3.org/1999/xlink">
<g id="graph0" class="graph" transform="scale(1 1) rotate(0) translate(4 61.6)">
<!-- identificador -->
<g id="node1" class="node">
<title>identificador</title>
<polygon fill="none" stroke="none" points="113.5,-46.8 0,-46.8 0,-10.8 113.5,-10.8 113.5,-46.8"/>
<text xml:space="preserve" text-anchor="middle" x="56.75" y="-24.7" font-family="monospace" font-size="13.00">identificador</text>
</g>
<!-- variable -->
<g id="node3" class="node">
<title>variable</title>
<polygon fill="white" stroke="black" points="252.5,-46.8 191.5,-46.8 191.5,-10.8 252.5,-10.8 252.5,-46.8"/>
<text xml:space="preserve" text-anchor="middle" x="222" y="-24.7" font-family="Lato" font-size="13.00">variable</text>
</g>
<!-- identificador&#45;&gt;variable -->
<g id="edge1" class="edge">
<title>identificador&#45;&gt;variable</title>
<path fill="none" stroke="black" d="M113.47,-28.8C135.25,-28.8 159.77,-28.8 179.89,-28.8"/>
<polygon fill="black" stroke="black" points="179.66,-32.3 189.66,-28.8 179.66,-25.3 179.66,-32.3"/>
<text xml:space="preserve" text-anchor="middle" x="152.5" y="-32.4" font-family="Lato" font-size="12.00">ligadura</text>
</g>
<!-- valor -->
<g id="node2" class="node">
<title>valor</title>
<ellipse fill="white" stroke="black" cx="352.55" cy="-28.8" rx="28.8" ry="28.8"/>
<text xml:space="preserve" text-anchor="middle" x="352.55" y="-24.7" font-family="Lato" font-size="13.00">valor</text>
</g>
<!-- variable&#45;&gt;valor -->
<g id="edge2" class="edge">
<title>variable&#45;&gt;valor</title>
<path fill="none" stroke="black" d="M252.82,-28.8C270.5,-28.8 293.14,-28.8 312.27,-28.8"/>
<polygon fill="black" stroke="black" points="312.14,-32.3 322.14,-28.8 312.14,-25.3 312.14,-32.3"/>
<text xml:space="preserve" text-anchor="middle" x="288.12" y="-32.4" font-family="Lato" font-size="12.00">estado</text>
</g>
</g>
</svg>
