<?xml version="1.0" encoding="UTF-8" standalone="no"?>
<!DOCTYPE svg PUBLIC "-//W3C//DTD SVG 1.1//EN"
 "http://www.w3.org/Graphics/SVG/1.1/DTD/svg11.dtd">
<!-- Generated by graphviz version 14.1.1 (0)
 -->
<!-- Pages: 1 -->
<svg width="312pt" height="66pt"
 viewBox="0.00 0.00 312.00 66.00" xmlns="http://www.w3.org/2000/svg" xmlns:xlink="http://www.w3.org/1999/xlink">
<g id="graph0" class="graph" transform="scale(1 1) rotate(0) translate(4 61.6)">
<!-- identificador -->
<g id="node1" class="node">
<title>identificador</title>
<polygon fill="none" stroke="none" points="113.5,-46.8 0,-46.8 0,-10.8 113.5,-10.8 113.5,-46.8"/>
<text xml:space="preserve" text-anchor="middle" x="56.75" y="-24.7" font-family="monospace" font-size="13.00">identificador</text>
</g>
<!-- variable -->
<g id="node3" class="node">
<title>variable</title>
<polygon fill="white" stroke="black" points="210.5,-46.8 149.5,-46.8 149.5,-10.8 210.5,-10.8 210.5,-46.8"/>
<text xml:space="preserve" text-anchor="middle" x="180" y="-24.7" font-family="Lato" font-size="13.00">variable</text>
</g>
<!-- identificador&#45;&gt;variable -->
<g id="edge1" class="edge">
<title>identificador&#45;&gt;variable</title>
<path fill="none" stroke="black" d="M113.41,-28.8C121.59,-28.8 129.9,-28.8 137.73,-28.8"/>
<polygon fill="black" stroke="black" points="137.64,-32.3 147.64,-28.8 137.64,-25.3 137.64,-32.3"/>
</g>
<!-- valor -->
<g id="node2" class="node">
<title>valor</title>
<ellipse fill="white" stroke="black" cx="275.3" cy="-28.8" rx="28.8" ry="28.8"/>
<text xml:space="preserve" text-anchor="middle" x="275.3" y="-24.7" font-family="Lato" font-size="13.00">valor</text>
</g>
<!-- variable&#45;&gt;valor -->
<g id="edge2" class="edge">
<title>variable&#45;&gt;valor</title>
<path fill="none" stroke="black" d="M210.78,-28.8C218.37,-28.8 226.66,-28.8 234.66,-28.8"/>
<polygon fill="black" stroke="black" points="234.56,-32.3 244.56,-28.8 234.56,-25.3 234.56,-32.3"/>
</g>
</g>
</svg>
