<?xml version="1.0" encoding="UTF-8" standalone="no"?>
<!DOCTYPE svg PUBLIC "-//W3C//DTD SVG 1.1//EN"
 "http://www.w3.org/Graphics/SVG/1.1/DTD/svg11.dtd">
<!-- Generated by graphviz version 2.42.4 (0)
 -->
<!-- Pages: 1 -->
<svg width="393pt" height="66pt"
 viewBox="0.00 0.00 393.00 66.00" xmlns="http://www.w3.org/2000/svg" xmlns:xlink="http://www.w3.org/1999/xlink">
<g id="graph0" class="graph" transform="scale(1 1) rotate(0) translate(4 62)">
<!-- identificador -->
<g id="node1" class="node">
<title>identificador</title>
<polygon fill="transparent" stroke="transparent" points="114,-47 0,-47 0,-11 114,-11 114,-47"/>
<text text-anchor="middle" x="57" y="-25.6" font-family="monospace" font-size="13.00">identificador</text>
</g>
<!-- variable -->
<g id="node3" class="node">
<title>variable</title>
<polygon fill="white" stroke="black" points="255,-47 193,-47 193,-11 255,-11 255,-47"/>
<text text-anchor="middle" x="224" y="-25.6" font-family="Lato" font-size="13.00">variable</text>
</g>
<!-- identificador&#45;&gt;variable -->
<g id="edge1" class="edge">
<title>identificador&#45;&gt;variable</title>
<path fill="none" stroke="black" d="M114.32,-29C136.74,-29 162.04,-29 182.58,-29"/>
<polygon fill="black" stroke="black" points="182.85,-32.5 192.85,-29 182.85,-25.5 182.85,-32.5"/>
<text text-anchor="middle" x="153.5" y="-32.4" font-family="Lato" font-size="12.00">ligadura</text>
</g>
<!-- valor -->
<g id="node2" class="node">
<title>valor</title>
<ellipse fill="white" stroke="black" cx="356" cy="-29" rx="29" ry="29"/>
<text text-anchor="middle" x="356" y="-25.6" font-family="Lato" font-size="13.00">valor</text>
</g>
<!-- variable&#45;&gt;valor -->
<g id="edge2" class="edge">
<title>variable&#45;&gt;valor</title>
<path fill="none" stroke="black" d="M255.15,-29C273.46,-29 297.01,-29 316.64,-29"/>
<polygon fill="black" stroke="black" points="316.79,-32.5 326.79,-29 316.79,-25.5 316.79,-32.5"/>
<text text-anchor="middle" x="291" y="-32.4" font-family="Lato" font-size="12.00">estado</text>
</g>
</g>
</svg>
