<?xml version="1.0" encoding="UTF-8" standalone="no"?>
<!DOCTYPE svg PUBLIC "-//W3C//DTD SVG 1.1//EN"
 "http://www.w3.org/Graphics/SVG/1.1/DTD/svg11.dtd">
<!-- Generated by graphviz version 2.40.1 (20161225.0304)
 -->
<!-- Title: %3 Pages: 1 -->
<svg width="576pt" height="93pt"
 viewBox="0.00 0.00 576.00 93.18" xmlns="http://www.w3.org/2000/svg" xmlns:xlink="http://www.w3.org/1999/xlink">
<g id="graph0" class="graph" transform="scale(1.4118 1.4118) rotate(0) translate(4 62)">
<title>%3</title>
<!-- identificador -->
<g id="node1" class="node">
<title>identificador</title>
<polygon fill="transparent" stroke="transparent" points="114,-47 0,-47 0,-11 114,-11 114,-47"/>
<text text-anchor="middle" x="57" y="-25.6" font-family="monospace" font-size="13.00" fill="#000000">identificador</text>
</g>
<!-- variable -->
<g id="node3" class="node">
<title>variable</title>
<polygon fill="#ffffff" stroke="#000000" points="270,-47 193,-47 193,-11 270,-11 270,-47"/>
<text text-anchor="middle" x="231.5" y="-25.6" font-family="monospace" font-size="13.00" fill="#000000">variable</text>
</g>
<!-- identificador&#45;&gt;variable -->
<g id="edge1" class="edge">
<title>identificador&#45;&gt;variable</title>
<path fill="none" stroke="#000000" d="M114.1378,-29C136.347,-29 161.5231,-29 182.847,-29"/>
<polygon fill="#000000" stroke="#000000" points="182.9757,-32.5001 192.9757,-29 182.9757,-25.5001 182.9757,-32.5001"/>
<text text-anchor="middle" x="153.5" y="-32.4" font-family="Lato" font-size="12.00" fill="#000000">ligadura</text>
</g>
<!-- valor -->
<g id="node2" class="node">
<title>valor</title>
<ellipse fill="#ffffff" stroke="#000000" cx="371" cy="-29" rx="29" ry="29"/>
<text text-anchor="middle" x="371" y="-25.6" font-family="monospace" font-size="13.00" fill="#000000">valor</text>
</g>
<!-- variable&#45;&gt;valor -->
<g id="edge2" class="edge">
<title>variable&#45;&gt;valor</title>
<path fill="none" stroke="#000000" d="M270.3585,-29C289.4048,-29 312.3021,-29 331.4413,-29"/>
<polygon fill="#000000" stroke="#000000" points="331.6393,-32.5001 341.6393,-29 331.6393,-25.5001 331.6393,-32.5001"/>
<text text-anchor="middle" x="306" y="-32.4" font-family="Lato" font-size="12.00" fill="#000000">estado</text>
</g>
</g>
</svg>
