<?xml version="1.0" encoding="UTF-8" standalone="no"?>
<!DOCTYPE svg PUBLIC "-//W3C//DTD SVG 1.1//EN"
 "http://www.w3.org/Graphics/SVG/1.1/DTD/svg11.dtd">
<!-- Generated by graphviz version 2.43.0 (0)
 -->
<!-- Title: %3 Pages: 1 -->
<svg width="540pt" height="226pt"
 viewBox="0.00 0.00 540.00 226.00" xmlns="http://www.w3.org/2000/svg" xmlns:xlink="http://www.w3.org/1999/xlink">
<g id="graph0" class="graph" transform="scale(1 1) rotate(0) translate(4 222)">
<title>%3</title>
<g id="clust1" class="cluster">
<title>cluster2</title>
<path fill="#f2f2f2" stroke="black" d="M266,-8C266,-8 512,-8 512,-8 518,-8 524,-14 524,-20 524,-20 524,-198 524,-198 524,-204 518,-210 512,-210 512,-210 266,-210 266,-210 260,-210 254,-204 254,-198 254,-198 254,-20 254,-20 254,-14 260,-8 266,-8"/>
<text text-anchor="middle" x="389" y="-194.8" font-family="Lato" font-size="14.00">Montículo</text>
</g>
<g id="clust2" class="cluster">
<title>cluster0</title>
<path fill="white" stroke="black" d="M274,-62C274,-62 440,-62 440,-62 446,-62 452,-68 452,-74 452,-74 452,-167 452,-167 452,-173 446,-179 440,-179 440,-179 274,-179 274,-179 268,-179 262,-173 262,-167 262,-167 262,-74 262,-74 262,-68 268,-62 274,-62"/>
<text text-anchor="start" x="314" y="-164.8" font-family="Lato" font-size="14.00">Módulo </text>
<text text-anchor="start" x="366" y="-164.8" font-family="monospace" font-size="14.00">math</text>
</g>
<g id="clust3" class="cluster">
<title>cluster1</title>
<polygon fill="white" stroke="black" points="50,-59 50,-163 205,-163 205,-59 50,-59"/>
<text text-anchor="middle" x="127.5" y="-147.8" font-family="Lato" font-size="14.00">Marco global del script</text>
</g>
<!-- gcd -->
<g id="node1" class="node">
<title>gcd</title>
<polygon fill="white" stroke="black" points="325.5,-125 325.5,-147 388.5,-147 388.5,-125 325.5,-125"/>
<text text-anchor="middle" x="345" y="-132.6" font-family="monospace" font-size="13.00">gcd</text>
<polyline fill="none" stroke="black" points="364.5,-125 364.5,-147 "/>
<text text-anchor="middle" x="376.5" y="-132.6" font-family="monospace" font-size="13.00">⬤</text>
</g>
<!-- lambda -->
<g id="node5" class="node">
<title>lambda</title>
<ellipse fill="white" stroke="black" cx="498" cy="-136" rx="18" ry="18"/>
<text text-anchor="middle" x="498" y="-132.6" font-family="monospace" font-size="13.00">λ</text>
</g>
<!-- gcd&#45;&gt;lambda -->
<g id="edge3" class="edge">
<title>gcd:f1&#45;&gt;lambda</title>
<path fill="none" stroke="black" d="M390,-136C417.17,-136 448.23,-136 469.86,-136"/>
<polygon fill="black" stroke="black" points="469.95,-139.5 479.95,-136 469.95,-132.5 469.95,-139.5"/>
</g>
<!-- math -->
<g id="node2" class="node">
<title>math</title>
<polygon fill="white" stroke="black" points="92,-109 92,-131 163,-131 163,-109 92,-109"/>
<text text-anchor="middle" x="115.5" y="-116.6" font-family="monospace" font-size="13.00">math</text>
<polyline fill="none" stroke="black" points="139,-109 139,-131 "/>
<text text-anchor="middle" x="151" y="-116.6" font-family="monospace" font-size="13.00">⬤</text>
</g>
<!-- math&#45;&gt;gcd -->
<g id="edge1" class="edge">
<title>math:f1&#45;&gt;gcd</title>
<path fill="none" stroke="black" d="M164.5,-120C192.83,-120 223.45,-121.76 251.7,-124.11"/>
<polygon fill="black" stroke="black" points="251.74,-127.63 262,-125.01 252.34,-120.66 251.74,-127.63"/>
</g>
<!-- x -->
<g id="node3" class="node">
<title>x</title>
<polygon fill="white" stroke="black" points="109.5,-68 109.5,-90 145.5,-90 145.5,-68 109.5,-68"/>
<text text-anchor="middle" x="118.5" y="-75.6" font-family="monospace" font-size="13.00">x</text>
<polyline fill="none" stroke="black" points="127.5,-68 127.5,-90 "/>
<text text-anchor="middle" x="136.5" y="-75.6" font-family="monospace" font-size="13.00">⬤</text>
</g>
<!-- 2 -->
<g id="node4" class="node">
<title>2</title>
<ellipse fill="white" stroke="black" cx="357" cy="-34" rx="18" ry="18"/>
<text text-anchor="middle" x="357" y="-30.6" font-family="monospace" font-size="13.00">2</text>
</g>
<!-- x&#45;&gt;2 -->
<g id="edge2" class="edge">
<title>x:f1&#45;&gt;2</title>
<path fill="none" stroke="black" d="M146.5,-79C164.68,-79 277.31,-52.75 329.5,-40.35"/>
<polygon fill="black" stroke="black" points="330.46,-43.72 339.37,-37.99 328.83,-36.91 330.46,-43.72"/>
</g>
<!-- m -->
<g id="node6" class="node">
<title>m</title>
<polygon fill="transparent" stroke="transparent" points="444,-106 270,-106 270,-70 444,-70 444,-106"/>
<text text-anchor="middle" x="357" y="-84.6" font-family="monospace" font-size="13.00">(más definiciones...)</text>
</g>
<!-- E -->
<g id="node7" class="node">
<title>E</title>
<polygon fill="transparent" stroke="transparent" points="22,-138 0,-138 0,-102 22,-102 22,-138"/>
<text text-anchor="middle" x="11" y="-116.6" font-family="monospace" font-size="13.00">E</text>
</g>
<!-- E&#45;&gt;math -->
<g id="edge4" class="edge">
<title>E&#45;&gt;math</title>
<path fill="none" stroke="black" d="M22.16,-120C26.83,-120 32.83,-120 39.6,-120"/>
<polygon fill="black" stroke="black" points="40,-123.5 50,-120 40,-116.5 40,-123.5"/>
</g>
</g>
</svg>
