<?xml version="1.0" encoding="UTF-8" standalone="no"?>
<!DOCTYPE svg PUBLIC "-//W3C//DTD SVG 1.1//EN"
 "http://www.w3.org/Graphics/SVG/1.1/DTD/svg11.dtd">
<!-- Generated by graphviz version 2.42.4 (0)
 -->
<!-- Pages: 1 -->
<svg width="450pt" height="215pt"
 viewBox="0.00 0.00 450.00 215.00" xmlns="http://www.w3.org/2000/svg" xmlns:xlink="http://www.w3.org/1999/xlink">
<g id="graph0" class="graph" transform="scale(1 1) rotate(0) translate(4 211)">
<g id="clust1" class="cluster">
<title>cluster0</title>
<path fill="white" stroke="black" d="M297,-57C297,-57 366,-57 366,-57 372,-57 378,-63 378,-69 378,-69 378,-149 378,-149 378,-155 372,-161 366,-161 366,-161 297,-161 297,-161 291,-161 285,-155 285,-149 285,-149 285,-69 285,-69 285,-63 291,-57 297,-57"/>
<text text-anchor="start" x="293" y="-146.8" font-family="Lato" font-size="14.00">Módulo </text>
<text text-anchor="start" x="345" y="-146.8" font-family="monospace" font-size="14.00">dos</text>
</g>
<g id="clust2" class="cluster">
<title>cluster1</title>
<polygon fill="white" stroke="black" points="50,-13 50,-199 193,-199 193,-13 50,-13"/>
<text text-anchor="start" x="58" y="-184.8" font-family="Lato" font-size="14.00">Marco global de </text>
<text text-anchor="start" x="160" y="-184.8" font-family="monospace" font-size="14.00">uno</text>
</g>
<!-- 7 -->
<g id="node1" class="node">
<title>7</title>
<ellipse fill="white" stroke="black" cx="239" cy="-164" rx="18" ry="18"/>
<text text-anchor="middle" x="239" y="-160.6" font-family="monospace" font-size="13.00">7</text>
</g>
<!-- 5 -->
<g id="node2" class="node">
<title>5</title>
<ellipse fill="white" stroke="black" cx="424" cy="-71" rx="18" ry="18"/>
<text text-anchor="middle" x="424" y="-67.6" font-family="monospace" font-size="13.00">5</text>
</g>
<!-- 9 -->
<g id="node3" class="node">
<title>9</title>
<ellipse fill="white" stroke="black" cx="424" cy="-125" rx="18" ry="18"/>
<text text-anchor="middle" x="424" y="-121.6" font-family="monospace" font-size="13.00">9</text>
</g>
<!-- 4 -->
<g id="node4" class="node">
<title>4</title>
<ellipse fill="white" stroke="black" cx="239" cy="-72" rx="18" ry="18"/>
<text text-anchor="middle" x="239" y="-68.6" font-family="monospace" font-size="13.00">4</text>
</g>
<!-- 3 -->
<g id="node5" class="node">
<title>3</title>
<ellipse fill="white" stroke="black" cx="239" cy="-18" rx="18" ry="18"/>
<text text-anchor="middle" x="239" y="-14.6" font-family="monospace" font-size="13.00">3</text>
</g>
<!-- x -->
<g id="node6" class="node">
<title>x</title>
<polygon fill="white" stroke="black" points="103.5,-145 103.5,-167 139.5,-167 139.5,-145 103.5,-145"/>
<text text-anchor="middle" x="112.5" y="-152.6" font-family="monospace" font-size="13.00">x</text>
<polyline fill="none" stroke="black" points="121.5,-145 121.5,-167 "/>
<text text-anchor="middle" x="130.5" y="-152.6" font-family="monospace" font-size="13.00">⬤</text>
</g>
<!-- x&#45;&gt;7 -->
<g id="edge1" class="edge">
<title>x:f1&#45;&gt;7</title>
<path fill="none" stroke="black" d="M140.5,-156C164.43,-156 191.56,-158.42 211.11,-160.6"/>
<polygon fill="black" stroke="black" points="210.79,-164.09 221.13,-161.77 211.6,-157.14 210.79,-164.09"/>
</g>
<!-- dos -->
<g id="node7" class="node">
<title>dos</title>
<polygon fill="white" stroke="black" points="90,-104 90,-126 153,-126 153,-104 90,-104"/>
<text text-anchor="middle" x="109.5" y="-111.6" font-family="monospace" font-size="13.00">dos</text>
<polyline fill="none" stroke="black" points="129,-104 129,-126 "/>
<text text-anchor="middle" x="141" y="-111.6" font-family="monospace" font-size="13.00">⬤</text>
</g>
<!-- xl -->
<g id="node8" class="node">
<title>xl</title>
<polygon fill="white" stroke="black" points="313,-107 313,-129 349,-129 349,-107 313,-107"/>
<text text-anchor="middle" x="322" y="-114.6" font-family="monospace" font-size="13.00">x</text>
<polyline fill="none" stroke="black" points="331,-107 331,-129 "/>
<text text-anchor="middle" x="340" y="-114.6" font-family="monospace" font-size="13.00">⬤</text>
</g>
<!-- dos&#45;&gt;xl -->
<g id="edge2" class="edge">
<title>dos:f1&#45;&gt;xl</title>
<path fill="none" stroke="black" d="M154.5,-115C194.71,-115 240.11,-115.8 274.65,-116.57"/>
<polygon fill="black" stroke="black" points="274.93,-120.08 285,-116.81 275.09,-113.08 274.93,-120.08"/>
</g>
<!-- xl&#45;&gt;9 -->
<g id="edge5" class="edge">
<title>xl:f1&#45;&gt;9</title>
<path fill="none" stroke="black" d="M350,-118C365.17,-118 382.03,-119.52 395.73,-121.14"/>
<polygon fill="black" stroke="black" points="395.57,-124.65 405.93,-122.43 396.45,-117.7 395.57,-124.65"/>
</g>
<!-- y -->
<g id="node9" class="node">
<title>y</title>
<polygon fill="white" stroke="black" points="313,-66 313,-88 349,-88 349,-66 313,-66"/>
<text text-anchor="middle" x="322" y="-73.6" font-family="monospace" font-size="13.00">y</text>
<polyline fill="none" stroke="black" points="331,-66 331,-88 "/>
<text text-anchor="middle" x="340" y="-73.6" font-family="monospace" font-size="13.00">⬤</text>
</g>
<!-- y&#45;&gt;5 -->
<g id="edge6" class="edge">
<title>y:f1&#45;&gt;5</title>
<path fill="none" stroke="black" d="M350,-77C365.15,-77 382.01,-75.7 395.71,-74.31"/>
<polygon fill="black" stroke="black" points="396.36,-77.76 405.92,-73.2 395.6,-70.8 396.36,-77.76"/>
</g>
<!-- a -->
<g id="node10" class="node">
<title>a</title>
<polygon fill="white" stroke="black" points="103.5,-63 103.5,-85 139.5,-85 139.5,-63 103.5,-63"/>
<text text-anchor="middle" x="112.5" y="-70.6" font-family="monospace" font-size="13.00">a</text>
<polyline fill="none" stroke="black" points="121.5,-63 121.5,-85 "/>
<text text-anchor="middle" x="130.5" y="-70.6" font-family="monospace" font-size="13.00">⬤</text>
</g>
<!-- a&#45;&gt;4 -->
<g id="edge3" class="edge">
<title>a:e&#45;&gt;4</title>
<path fill="none" stroke="black" d="M140.5,-74C164.21,-74 191.16,-73.4 210.71,-72.86"/>
<polygon fill="black" stroke="black" points="210.85,-76.36 220.74,-72.57 210.64,-69.36 210.85,-76.36"/>
</g>
<!-- b -->
<g id="node11" class="node">
<title>b</title>
<polygon fill="white" stroke="black" points="103.5,-22 103.5,-44 139.5,-44 139.5,-22 103.5,-22"/>
<text text-anchor="middle" x="112.5" y="-29.6" font-family="monospace" font-size="13.00">b</text>
<polyline fill="none" stroke="black" points="121.5,-22 121.5,-44 "/>
<text text-anchor="middle" x="130.5" y="-29.6" font-family="monospace" font-size="13.00">⬤</text>
</g>
<!-- b&#45;&gt;3 -->
<g id="edge4" class="edge">
<title>b:f1&#45;&gt;3</title>
<path fill="none" stroke="black" d="M140.5,-33C164.63,-33 191.74,-28.46 211.23,-24.37"/>
<polygon fill="black" stroke="black" points="212.19,-27.74 221.21,-22.18 210.69,-20.9 212.19,-27.74"/>
</g>
<!-- E -->
<g id="node12" class="node">
<title>E</title>
<polygon fill="transparent" stroke="transparent" points="22,-133 0,-133 0,-97 22,-97 22,-133"/>
<text text-anchor="middle" x="11" y="-111.6" font-family="monospace" font-size="13.00">E</text>
</g>
<!-- E&#45;&gt;dos -->
<g id="edge7" class="edge">
<title>E&#45;&gt;dos</title>
<path fill="none" stroke="black" d="M22.01,-115C26.71,-115 32.77,-115 39.57,-115"/>
<polygon fill="black" stroke="black" points="40,-118.5 50,-115 40,-111.5 40,-118.5"/>
</g>
</g>
</svg>
