<?xml version="1.0" encoding="UTF-8" standalone="no"?>
<!DOCTYPE svg PUBLIC "-//W3C//DTD SVG 1.1//EN"
 "http://www.w3.org/Graphics/SVG/1.1/DTD/svg11.dtd">
<!-- Generated by graphviz version 2.40.1 (20161225.0304)
 -->
<!-- Title: %3 Pages: 1 -->
<svg width="576pt" height="216pt"
 viewBox="0.00 0.00 576.00 215.75" xmlns="http://www.w3.org/2000/svg" xmlns:xlink="http://www.w3.org/1999/xlink">
<g id="graph0" class="graph" transform="scale(1.1237 1.1237) rotate(0) translate(4 188)">
<title>%3</title>
<g id="clust1" class="cluster">
<title>cluster1</title>
<polygon fill="#ffffff" stroke="#000000" points="31.6,-8 31.6,-176 496.6,-176 496.6,-8 31.6,-8"/>
<text text-anchor="middle" x="264.1" y="-160.8" font-family="Lato" font-size="14.00" fill="#000000">Marco global del script</text>
</g>
<g id="clust2" class="cluster">
<title>cluster0</title>
<polygon fill="#ffffff" stroke="#000000" points="193.6,-16 193.6,-145 488.6,-145 488.6,-16 193.6,-16"/>
<text text-anchor="middle" x="341.1" y="-129.8" font-family="Lato" font-size="14.00" fill="#000000">Marco global de mates</text>
</g>
<!-- gcd -->
<g id="node1" class="node">
<title>gcd</title>
<polygon fill="transparent" stroke="transparent" points="315.6,-114 261.6,-114 261.6,-78 315.6,-78 315.6,-114"/>
<text text-anchor="middle" x="288.6" y="-92.6" font-family="monospace" font-size="13.00" fill="#000000">gcd</text>
</g>
<!-- función -->
<g id="node5" class="node">
<title>función</title>
<polygon fill="#ffffff" stroke="#000000" points="480.6,-114 411.6,-114 411.6,-78 480.6,-78 480.6,-114"/>
<text text-anchor="middle" x="446.1" y="-92.6" font-family="monospace" font-size="13.00" fill="#000000">función</text>
</g>
<!-- gcd&#45;&gt;función -->
<g id="edge1" class="edge">
<title>gcd&#45;&gt;función</title>
<path fill="none" stroke="#000000" d="M315.6752,-96C339.1499,-96 373.5927,-96 401.1893,-96"/>
<polygon fill="#000000" stroke="#000000" points="401.3936,-99.5001 411.3936,-96 401.3935,-92.5001 401.3936,-99.5001"/>
</g>
<!-- mates -->
<g id="node2" class="node">
<title>mates</title>
<polygon fill="transparent" stroke="transparent" points="93.6,-114 39.6,-114 39.6,-78 93.6,-78 93.6,-114"/>
<text text-anchor="middle" x="66.6" y="-92.6" font-family="monospace" font-size="13.00" fill="#000000">mates</text>
</g>
<!-- mates&#45;&gt;gcd -->
<g id="edge2" class="edge">
<title>mates&#45;&gt;gcd</title>
<path fill="none" stroke="#000000" d="M93.8216,-96C116.4771,-96 150.265,-96 183.367,-96"/>
<polygon fill="#000000" stroke="#000000" points="183.605,-99.5001 193.605,-96 183.605,-92.5001 183.605,-99.5001"/>
</g>
<!-- x -->
<g id="node3" class="node">
<title>x</title>
<polygon fill="transparent" stroke="transparent" points="93.6,-56 39.6,-56 39.6,-20 93.6,-20 93.6,-56"/>
<text text-anchor="middle" x="66.6" y="-34.6" font-family="monospace" font-size="13.00" fill="#000000">x</text>
</g>
<!-- 2 -->
<g id="node4" class="node">
<title>2</title>
<ellipse fill="#ffffff" stroke="#000000" cx="147.6" cy="-38" rx="18" ry="18"/>
<text text-anchor="middle" x="147.6" y="-34.6" font-family="monospace" font-size="13.00" fill="#000000">2</text>
</g>
<!-- x&#45;&gt;2 -->
<g id="edge3" class="edge">
<title>x&#45;&gt;2</title>
<path fill="none" stroke="#000000" d="M94.0229,-38C102.0647,-38 110.8772,-38 118.9909,-38"/>
<polygon fill="#000000" stroke="#000000" points="119.1312,-41.5001 129.1312,-38 119.1311,-34.5001 119.1312,-41.5001"/>
</g>
<!-- m -->
<g id="node6" class="node">
<title>m</title>
<polygon fill="transparent" stroke="transparent" points="375.6,-60 201.6,-60 201.6,-24 375.6,-24 375.6,-60"/>
<text text-anchor="middle" x="288.6" y="-38.6" font-family="monospace" font-size="13.00" fill="#000000">(más definiciones...)</text>
</g>
<!-- E -->
<g id="node7" class="node">
<title>E</title>
<ellipse fill="#ffffff" stroke="#000000" cx="1.8" cy="-96" rx="1.8" ry="1.8"/>
</g>
<!-- E&#45;&gt;mates -->
<g id="edge4" class="edge">
<title>E&#45;&gt;mates</title>
<path fill="none" stroke="#000000" d="M3.6695,-96C7.7685,-96 18.0715,-96 29.1814,-96"/>
<polygon fill="#000000" stroke="#000000" points="21.6001,-99.5004 31.6,-96 21.5999,-92.5004 21.6001,-99.5004"/>
</g>
</g>
</svg>
