<?xml version="1.0" encoding="UTF-8" standalone="no"?>
<!DOCTYPE svg PUBLIC "-//W3C//DTD SVG 1.1//EN"
 "http://www.w3.org/Graphics/SVG/1.1/DTD/svg11.dtd">
<!-- Generated by graphviz version 14.1.2 (0)
 -->
<!-- Pages: 1 -->
<svg width="508pt" height="232pt"
 viewBox="0.00 0.00 508.00 232.00" xmlns="http://www.w3.org/2000/svg" xmlns:xlink="http://www.w3.org/1999/xlink">
<g id="graph0" class="graph" transform="scale(1 1) rotate(0) translate(4 228)">
<g id="clust1" class="cluster">
<title>cluster2</title>
<path fill="#f2f2f2" stroke="black" d="M264.9,-8C264.9,-8 480.4,-8 480.4,-8 486.4,-8 492.4,-14 492.4,-20 492.4,-20 492.4,-204 492.4,-204 492.4,-210 486.4,-216 480.4,-216 480.4,-216 264.9,-216 264.9,-216 258.9,-216 252.9,-210 252.9,-204 252.9,-204 252.9,-20 252.9,-20 252.9,-14 258.9,-8 264.9,-8"/>
<text xml:space="preserve" text-anchor="middle" x="372.65" y="-198.7" font-family="Lato" font-size="14.00">Montículo</text>
</g>
<g id="clust2" class="cluster">
<title>cluster0</title>
<path fill="white" stroke="black" d="M272.9,-62C272.9,-62 408.4,-62 408.4,-62 414.4,-62 420.4,-68 420.4,-74 420.4,-74 420.4,-171 420.4,-171 420.4,-177 414.4,-183 408.4,-183 408.4,-183 272.9,-183 272.9,-183 266.9,-183 260.9,-177 260.9,-171 260.9,-171 260.9,-74 260.9,-74 260.9,-68 266.9,-62 272.9,-62"/>
<text xml:space="preserve" text-anchor="start" x="298.65" y="-166.7" font-family="Lato" font-size="14.00">Módulo </text>
<text xml:space="preserve" text-anchor="start" x="349.65" y="-166.7" font-family="monospace" font-size="14.00">math</text>
</g>
<g id="clust3" class="cluster">
<title>cluster1</title>
<polygon fill="white" stroke="black" points="49.9,-19 49.9,-126 203.9,-126 203.9,-19 49.9,-19"/>
<text xml:space="preserve" text-anchor="middle" x="126.9" y="-108.7" font-family="Lato" font-size="14.00">Marco global del script</text>
</g>
<!-- gcd -->
<g id="node1" class="node">
<title>gcd</title>
<polygon fill="white" stroke="black" points="309.65,-70.75 309.65,-95.25 371.65,-95.25 371.65,-70.75 309.65,-70.75"/>
<text xml:space="preserve" text-anchor="middle" x="328.9" y="-78.9" font-family="monospace" font-size="13.00">gcd</text>
<polyline fill="none" stroke="black" points="348.15,-70.75 348.15,-95.25"/>
<text xml:space="preserve" text-anchor="middle" x="359.9" y="-77.4" font-family="monospace" font-size="13.00">⬤</text>
</g>
<!-- lambda -->
<g id="node5" class="node">
<title>lambda</title>
<ellipse fill="white" stroke="black" cx="466.4" cy="-83" rx="18" ry="18"/>
<text xml:space="preserve" text-anchor="middle" x="466.4" y="-78.9" font-family="monospace" font-size="13.00">λ</text>
</g>
<!-- gcd&#45;&gt;lambda -->
<g id="edge3" class="edge">
<title>gcd:f1&#45;&gt;lambda</title>
<path fill="none" stroke="black" d="M372.65,-83C394.08,-83 418.29,-83 436.6,-83"/>
<polygon fill="black" stroke="black" points="436.45,-86.5 446.45,-83 436.45,-79.5 436.45,-86.5"/>
</g>
<!-- math -->
<g id="node2" class="node">
<title>math</title>
<polygon fill="white" stroke="black" points="91.65,-67.75 91.65,-92.25 161.15,-92.25 161.15,-67.75 91.65,-67.75"/>
<text xml:space="preserve" text-anchor="middle" x="114.65" y="-75.9" font-family="monospace" font-size="13.00">math</text>
<polyline fill="none" stroke="black" points="137.65,-67.75 137.65,-92.25"/>
<text xml:space="preserve" text-anchor="middle" x="149.4" y="-74.4" font-family="monospace" font-size="13.00">⬤</text>
</g>
<!-- math&#45;&gt;gcd -->
<g id="edge1" class="edge">
<title>math:f1&#45;&gt;gcd</title>
<path fill="none" stroke="black" d="M162.15,-80C190.56,-80 221.52,-80.39 249.52,-80.89"/>
<polygon fill="black" stroke="black" points="249.33,-84.38 259.39,-81.07 249.46,-77.38 249.33,-84.38"/>
</g>
<!-- x -->
<g id="node3" class="node">
<title>x</title>
<polygon fill="white" stroke="black" points="108.4,-27.2 108.4,-48.8 144.4,-48.8 144.4,-27.2 108.4,-27.2"/>
<text xml:space="preserve" text-anchor="middle" x="117.65" y="-33.45" font-family="monospace" font-size="13.00">x</text>
<polyline fill="none" stroke="black" points="126.9,-26.3 126.9,-48.8"/>
<text xml:space="preserve" text-anchor="middle" x="135.65" y="-31.95" font-family="monospace" font-size="13.00">⬤</text>
</g>
<!-- 2 -->
<g id="node4" class="node">
<title>2</title>
<ellipse fill="white" stroke="black" cx="340.65" cy="-34" rx="18" ry="18"/>
<text xml:space="preserve" text-anchor="middle" x="340.65" y="-29.9" font-family="monospace" font-size="13.00">2</text>
</g>
<!-- x&#45;&gt;2 -->
<g id="edge2" class="edge">
<title>x:f1&#45;&gt;2</title>
<path fill="none" stroke="black" d="M145.4,-37.55C204.29,-37.55 273.21,-35.9 311.09,-34.85"/>
<polygon fill="black" stroke="black" points="310.83,-38.36 320.73,-34.57 310.63,-31.36 310.83,-38.36"/>
</g>
<!-- m -->
<g id="node6" class="node">
<title>m</title>
<polygon fill="none" stroke="none" points="412.4,-150 268.9,-150 268.9,-114 412.4,-114 412.4,-150"/>
<text xml:space="preserve" text-anchor="middle" x="340.65" y="-127.9" font-family="monospace" font-size="13.00">(más miembros...)</text>
</g>
<!-- E -->
<g id="node7" class="node">
<title>E</title>
<polygon fill="none" stroke="none" points="21.9,-98 0,-98 0,-62 21.9,-62 21.9,-98"/>
<text xml:space="preserve" text-anchor="middle" x="10.95" y="-75.9" font-family="monospace" font-size="13.00">E</text>
</g>
<!-- E&#45;&gt;math -->
<g id="edge4" class="edge">
<title>E&#45;&gt;math</title>
<path fill="none" stroke="black" d="M21.62,-80C26.19,-80 32.11,-80 38.82,-80"/>
<polygon fill="black" stroke="black" points="38.39,-83.5 48.39,-80 38.39,-76.5 38.39,-83.5"/>
</g>
</g>
</svg>
