<?xml version="1.0" encoding="UTF-8" standalone="no"?>
<!DOCTYPE svg PUBLIC "-//W3C//DTD SVG 1.1//EN"
 "http://www.w3.org/Graphics/SVG/1.1/DTD/svg11.dtd">
<!-- Generated by graphviz version 2.43.0 (0)
 -->
<!-- Title: %3 Pages: 1 -->
<svg width="513pt" height="192pt"
 viewBox="0.00 0.00 512.60 192.00" xmlns="http://www.w3.org/2000/svg" xmlns:xlink="http://www.w3.org/1999/xlink">
<g id="graph0" class="graph" transform="scale(1 1) rotate(0) translate(4 188)">
<title>%3</title>
<g id="clust1" class="cluster">
<title>cluster1</title>
<polygon fill="white" stroke="black" points="31.6,-8 31.6,-176 496.6,-176 496.6,-8 31.6,-8"/>
<text text-anchor="middle" x="264.1" y="-160.8" font-family="Lato" font-size="14.00">Marco global del script</text>
</g>
<g id="clust2" class="cluster">
<title>cluster0</title>
<polygon fill="white" stroke="black" points="193.6,-16 193.6,-145 488.6,-145 488.6,-16 193.6,-16"/>
<text text-anchor="middle" x="341.1" y="-129.8" font-family="Lato" font-size="14.00">Marco global de mates</text>
</g>
<!-- gcd -->
<g id="node1" class="node">
<title>gcd</title>
<polygon fill="transparent" stroke="transparent" points="315.6,-114 261.6,-114 261.6,-78 315.6,-78 315.6,-114"/>
<text text-anchor="middle" x="288.6" y="-92.6" font-family="monospace" font-size="13.00">gcd</text>
</g>
<!-- función -->
<g id="node5" class="node">
<title>función</title>
<polygon fill="white" stroke="black" points="480.6,-114 411.6,-114 411.6,-78 480.6,-78 480.6,-114"/>
<text text-anchor="middle" x="446.1" y="-92.6" font-family="monospace" font-size="13.00">función</text>
</g>
<!-- gcd&#45;&gt;función -->
<g id="edge1" class="edge">
<title>gcd&#45;&gt;función</title>
<path fill="none" stroke="black" d="M315.63,-96C338.93,-96 373.59,-96 401.18,-96"/>
<polygon fill="black" stroke="black" points="401.37,-99.5 411.37,-96 401.37,-92.5 401.37,-99.5"/>
</g>
<!-- mates -->
<g id="node2" class="node">
<title>mates</title>
<polygon fill="transparent" stroke="transparent" points="93.6,-114 39.6,-114 39.6,-78 93.6,-78 93.6,-114"/>
<text text-anchor="middle" x="66.6" y="-92.6" font-family="monospace" font-size="13.00">mates</text>
</g>
<!-- mates&#45;&gt;gcd -->
<g id="edge2" class="edge">
<title>mates&#45;&gt;gcd</title>
<path fill="none" stroke="black" d="M93.7,-96C116.15,-96 150.09,-96 183.32,-96"/>
<polygon fill="black" stroke="black" points="183.6,-99.5 193.6,-96 183.6,-92.5 183.6,-99.5"/>
</g>
<!-- x -->
<g id="node3" class="node">
<title>x</title>
<polygon fill="transparent" stroke="transparent" points="93.6,-56 39.6,-56 39.6,-20 93.6,-20 93.6,-56"/>
<text text-anchor="middle" x="66.6" y="-34.6" font-family="monospace" font-size="13.00">x</text>
</g>
<!-- 2 -->
<g id="node4" class="node">
<title>2</title>
<ellipse fill="white" stroke="black" cx="147.6" cy="-38" rx="18" ry="18"/>
<text text-anchor="middle" x="147.6" y="-34.6" font-family="monospace" font-size="13.00">2</text>
</g>
<!-- x&#45;&gt;2 -->
<g id="edge3" class="edge">
<title>x&#45;&gt;2</title>
<path fill="none" stroke="black" d="M93.91,-38C102.02,-38 110.97,-38 119.16,-38"/>
<polygon fill="black" stroke="black" points="119.35,-41.5 129.35,-38 119.35,-34.5 119.35,-41.5"/>
</g>
<!-- m -->
<g id="node6" class="node">
<title>m</title>
<polygon fill="transparent" stroke="transparent" points="375.6,-60 201.6,-60 201.6,-24 375.6,-24 375.6,-60"/>
<text text-anchor="middle" x="288.6" y="-38.6" font-family="monospace" font-size="13.00">(más definiciones...)</text>
</g>
<!-- E -->
<g id="node7" class="node">
<title>E</title>
<ellipse fill="white" stroke="black" cx="1.8" cy="-96" rx="1.8" ry="1.8"/>
</g>
<!-- E&#45;&gt;mates -->
<g id="edge4" class="edge">
<title>E&#45;&gt;mates</title>
<path fill="none" stroke="black" d="M3.89,-96C7.24,-96 17.86,-96 29.37,-96"/>
<polygon fill="black" stroke="black" points="21.6,-99.5 31.6,-96 21.6,-92.5 21.6,-99.5"/>
</g>
</g>
</svg>
