<?xml version="1.0" encoding="UTF-8" standalone="no"?>
<!DOCTYPE svg PUBLIC "-//W3C//DTD SVG 1.1//EN"
 "http://www.w3.org/Graphics/SVG/1.1/DTD/svg11.dtd">
<!-- Generated by graphviz version 2.43.0 (0)
 -->
<!-- Title: %3 Pages: 1 -->
<svg width="265pt" height="87pt"
 viewBox="0.00 0.00 265.00 87.00" xmlns="http://www.w3.org/2000/svg" xmlns:xlink="http://www.w3.org/1999/xlink">
<g id="graph0" class="graph" transform="scale(1 1) rotate(0) translate(4 83)">
<title>%3</title>
<g id="clust1" class="cluster">
<title>cluster0</title>
<polygon fill="white" stroke="black" points="50,-8 50,-71 193,-71 193,-8 50,-8"/>
<text text-anchor="start" x="58" y="-56.8" font-family="Lato" font-size="14.00">Marco global de </text>
<text text-anchor="start" x="160" y="-56.8" font-family="monospace" font-size="14.00">uno</text>
</g>
<!-- 7 -->
<g id="node1" class="node">
<title>7</title>
<ellipse fill="white" stroke="black" cx="239" cy="-28" rx="18" ry="18"/>
<text text-anchor="middle" x="239" y="-24.6" font-family="monospace" font-size="13.00">7</text>
</g>
<!-- x -->
<g id="node2" class="node">
<title>x</title>
<polygon fill="white" stroke="black" points="103,-17 103,-39 139,-39 139,-17 103,-17"/>
<text text-anchor="middle" x="112" y="-24.6" font-family="monospace" font-size="13.00">x</text>
<polyline fill="none" stroke="black" points="121,-17 121,-39 "/>
<text text-anchor="middle" x="130" y="-24.6" font-family="monospace" font-size="13.00">⬤</text>
</g>
<!-- x&#45;&gt;7 -->
<g id="edge1" class="edge">
<title>x:f1&#45;&gt;7</title>
<path fill="none" stroke="black" d="M140,-28C163.83,-28 190.92,-28 210.57,-28"/>
<polygon fill="black" stroke="black" points="210.65,-31.5 220.65,-28 210.65,-24.5 210.65,-31.5"/>
</g>
<!-- E -->
<g id="node3" class="node">
<title>E</title>
<polygon fill="transparent" stroke="transparent" points="22,-46 0,-46 0,-10 22,-10 22,-46"/>
<text text-anchor="middle" x="11" y="-24.6" font-family="monospace" font-size="13.00">E</text>
</g>
<!-- E&#45;&gt;x -->
<g id="edge2" class="edge">
<title>E&#45;&gt;x</title>
<path fill="none" stroke="black" d="M22.36,-28C27.04,-28 33.03,-28 39.73,-28"/>
<polygon fill="black" stroke="black" points="40,-31.5 50,-28 40,-24.5 40,-31.5"/>
</g>
</g>
</svg>
