<?xml version="1.0" encoding="UTF-8" standalone="no"?>
<!DOCTYPE svg PUBLIC "-//W3C//DTD SVG 1.1//EN"
 "http://www.w3.org/Graphics/SVG/1.1/DTD/svg11.dtd">
<!-- Generated by graphviz version 2.42.4 (0)
 -->
<!-- Pages: 1 -->
<svg width="408pt" height="423pt"
 viewBox="0.00 0.00 408.00 423.00" xmlns="http://www.w3.org/2000/svg" xmlns:xlink="http://www.w3.org/1999/xlink">
<g id="graph0" class="graph" transform="scale(1 1) rotate(0) translate(4 419)">
<g id="clust2" class="cluster">
<title>cluster1</title>
<polygon fill="white" stroke="black" points="113,-152 113,-338 336,-338 336,-152 113,-152"/>
<text text-anchor="start" x="161" y="-323.8" font-family="Lato" font-size="14.00">Marco global de </text>
<text text-anchor="start" x="263" y="-323.8" font-family="monospace" font-size="14.00">uno</text>
</g>
<g id="clust1" class="cluster">
<title>cluster0</title>
<path fill="white" stroke="black" d="M12,-344C12,-344 81,-344 81,-344 87,-344 93,-350 93,-356 93,-356 93,-395 93,-395 93,-401 87,-407 81,-407 81,-407 12,-407 12,-407 6,-407 0,-401 0,-395 0,-395 0,-356 0,-356 0,-350 6,-344 12,-344"/>
<text text-anchor="start" x="8" y="-392.8" font-family="Lato" font-size="14.00">Módulo </text>
<text text-anchor="start" x="60" y="-392.8" font-family="monospace" font-size="14.00">dos</text>
</g>
<!-- 7 -->
<g id="node1" class="node">
<title>7</title>
<ellipse fill="white" stroke="black" cx="238" cy="-126" rx="18" ry="18"/>
<text text-anchor="middle" x="238" y="-122.6" font-family="monospace" font-size="13.00">7</text>
</g>
<!-- 5 -->
<g id="node2" class="node">
<title>5</title>
<ellipse fill="white" stroke="black" cx="152.5" cy="-364" rx="18" ry="18"/>
<text text-anchor="middle" x="152.5" y="-360.6" font-family="monospace" font-size="13.00">5</text>
</g>
<!-- 9 -->
<g id="node3" class="node">
<title>9</title>
<ellipse fill="white" stroke="black" cx="382" cy="-295" rx="18" ry="18"/>
<text text-anchor="middle" x="382" y="-291.6" font-family="monospace" font-size="13.00">9</text>
</g>
<!-- 4 -->
<g id="node4" class="node">
<title>4</title>
<ellipse fill="white" stroke="black" cx="238" cy="-72" rx="18" ry="18"/>
<text text-anchor="middle" x="238" y="-68.6" font-family="monospace" font-size="13.00">4</text>
</g>
<!-- 3 -->
<g id="node5" class="node">
<title>3</title>
<ellipse fill="white" stroke="black" cx="238" cy="-18" rx="18" ry="18"/>
<text text-anchor="middle" x="238" y="-14.6" font-family="monospace" font-size="13.00">3</text>
</g>
<!-- x -->
<g id="node6" class="node">
<title>x</title>
<polygon fill="white" stroke="black" points="134.5,-243 134.5,-265 170.5,-265 170.5,-243 134.5,-243"/>
<text text-anchor="middle" x="143.5" y="-250.6" font-family="monospace" font-size="13.00">x</text>
<polyline fill="none" stroke="black" points="152.5,-243 152.5,-265 "/>
<text text-anchor="middle" x="161.5" y="-250.6" font-family="monospace" font-size="13.00">⬤</text>
</g>
<!-- x&#45;&gt;7 -->
<g id="edge1" class="edge">
<title>x:f1&#45;&gt;7</title>
<path fill="none" stroke="black" d="M161.5,-242C161.5,-231.39 176.29,-241.3 184,-234 214.09,-205.51 199.15,-183.81 220,-148 220.05,-147.91 220.1,-147.82 220.16,-147.73"/>
<polygon fill="black" stroke="black" points="222.96,-149.83 225.63,-139.58 217.15,-145.93 222.96,-149.83"/>
</g>
<!-- dos -->
<g id="node7" class="node">
<title>dos</title>
<polygon fill="white" stroke="black" points="121,-284 121,-306 184,-306 184,-284 121,-284"/>
<text text-anchor="middle" x="140.5" y="-291.6" font-family="monospace" font-size="13.00">dos</text>
<polyline fill="none" stroke="black" points="160,-284 160,-306 "/>
<text text-anchor="middle" x="172" y="-291.6" font-family="monospace" font-size="13.00">⬤</text>
</g>
<!-- xl -->
<g id="node8" class="node">
<title>xl</title>
<polygon fill="white" stroke="black" points="292,-284 292,-306 328,-306 328,-284 292,-284"/>
<text text-anchor="middle" x="301" y="-291.6" font-family="monospace" font-size="13.00">x</text>
<polyline fill="none" stroke="black" points="310,-284 310,-306 "/>
<text text-anchor="middle" x="319" y="-291.6" font-family="monospace" font-size="13.00">⬤</text>
</g>
<!-- dos&#45;&gt;xl -->
<g id="edge2" class="edge">
<title>dos:f1&#45;&gt;xl</title>
<path fill="none" stroke="black" d="M184,-295C217.46,-295 255.96,-295 281.29,-295"/>
<polygon fill="black" stroke="black" points="281.61,-298.5 291.61,-295 281.61,-291.5 281.61,-298.5"/>
</g>
<!-- xl&#45;&gt;9 -->
<g id="edge5" class="edge">
<title>xl:f1&#45;&gt;9</title>
<path fill="none" stroke="black" d="M329,-295C336.94,-295 345.57,-295 353.47,-295"/>
<polygon fill="black" stroke="black" points="353.67,-298.5 363.67,-295 353.67,-291.5 353.67,-298.5"/>
</g>
<!-- y -->
<g id="node9" class="node">
<title>y</title>
<polygon fill="white" stroke="black" points="28,-353 28,-375 64,-375 64,-353 28,-353"/>
<text text-anchor="middle" x="37" y="-360.6" font-family="monospace" font-size="13.00">y</text>
<polyline fill="none" stroke="black" points="46,-353 46,-375 "/>
<text text-anchor="middle" x="55" y="-360.6" font-family="monospace" font-size="13.00">⬤</text>
</g>
<!-- y&#45;&gt;5 -->
<g id="edge6" class="edge">
<title>y:f1&#45;&gt;5</title>
<path fill="none" stroke="black" d="M65,-364C84.71,-364 106.95,-364 123.94,-364"/>
<polygon fill="black" stroke="black" points="124.27,-367.5 134.27,-364 124.27,-360.5 124.27,-367.5"/>
</g>
<!-- a -->
<g id="node10" class="node">
<title>a</title>
<polygon fill="white" stroke="black" points="134.5,-202 134.5,-224 170.5,-224 170.5,-202 134.5,-202"/>
<text text-anchor="middle" x="143.5" y="-209.6" font-family="monospace" font-size="13.00">a</text>
<polyline fill="none" stroke="black" points="152.5,-202 152.5,-224 "/>
<text text-anchor="middle" x="161.5" y="-209.6" font-family="monospace" font-size="13.00">⬤</text>
</g>
<!-- a&#45;&gt;4 -->
<g id="edge3" class="edge">
<title>a:e&#45;&gt;4</title>
<path fill="none" stroke="black" d="M171.5,-213C182.36,-213 179.25,-201.77 184,-192 203.4,-152.15 200.1,-138.6 220,-99 220.59,-97.83 221.21,-96.65 221.86,-95.46"/>
<polygon fill="black" stroke="black" points="225.05,-96.95 227.12,-86.56 219.02,-93.39 225.05,-96.95"/>
</g>
<!-- b -->
<g id="node11" class="node">
<title>b</title>
<polygon fill="white" stroke="black" points="134.5,-161 134.5,-183 170.5,-183 170.5,-161 134.5,-161"/>
<text text-anchor="middle" x="143.5" y="-168.6" font-family="monospace" font-size="13.00">b</text>
<polyline fill="none" stroke="black" points="152.5,-161 152.5,-183 "/>
<text text-anchor="middle" x="161.5" y="-168.6" font-family="monospace" font-size="13.00">⬤</text>
</g>
<!-- b&#45;&gt;3 -->
<g id="edge4" class="edge">
<title>b:f1&#45;&gt;3</title>
<path fill="none" stroke="black" d="M161.5,-160C161.5,-111.88 195.72,-64.19 218.08,-38.16"/>
<polygon fill="black" stroke="black" points="220.86,-40.31 224.87,-30.5 215.62,-35.67 220.86,-40.31"/>
</g>
<!-- E -->
<g id="node12" class="node">
<title>E</title>
<polygon fill="transparent" stroke="transparent" points="57,-313 35,-313 35,-277 57,-277 57,-313"/>
<text text-anchor="middle" x="46" y="-291.6" font-family="monospace" font-size="13.00">E</text>
</g>
<!-- E&#45;&gt;dos -->
<g id="edge7" class="edge">
<title>E&#45;&gt;dos</title>
<path fill="none" stroke="black" d="M57.02,-295C69.32,-295 90.94,-295 110.4,-295"/>
<polygon fill="black" stroke="black" points="103,-298.5 113,-295 103,-291.5 103,-298.5"/>
</g>
</g>
</svg>
