<?xml version="1.0" encoding="UTF-8" standalone="no"?>
<!DOCTYPE svg PUBLIC "-//W3C//DTD SVG 1.1//EN"
 "http://www.w3.org/Graphics/SVG/1.1/DTD/svg11.dtd">
<!-- Generated by graphviz version 2.43.0 (0)
 -->
<!-- Title: %3 Pages: 1 -->
<svg width="456pt" height="228pt"
 viewBox="0.00 0.00 455.60 228.00" xmlns="http://www.w3.org/2000/svg" xmlns:xlink="http://www.w3.org/1999/xlink">
<g id="graph0" class="graph" transform="scale(1 1) rotate(0) translate(4 224)">
<title>%3</title>
<g id="clust1" class="cluster">
<title>cluster1</title>
<polygon fill="white" stroke="black" points="31.6,-44 31.6,-212 391.6,-212 391.6,-44 31.6,-44"/>
<text text-anchor="middle" x="211.6" y="-196.8" font-family="Lato" font-size="14.00">Marco global del script</text>
</g>
<g id="clust2" class="cluster">
<title>cluster0</title>
<polygon fill="white" stroke="black" points="193.6,-52 193.6,-181 383.6,-181 383.6,-52 193.6,-52"/>
<text text-anchor="middle" x="288.6" y="-165.8" font-family="Lato" font-size="14.00">Marco global de math</text>
</g>
<!-- gcd -->
<g id="node1" class="node">
<title>gcd</title>
<polygon fill="transparent" stroke="transparent" points="315.6,-150 261.6,-150 261.6,-114 315.6,-114 315.6,-150"/>
<text text-anchor="middle" x="288.6" y="-128.6" font-family="monospace" font-size="13.00">gcd</text>
</g>
<!-- lambda -->
<g id="node5" class="node">
<title>lambda</title>
<ellipse fill="white" stroke="black" cx="429.6" cy="-132" rx="18" ry="18"/>
<text text-anchor="middle" x="429.6" y="-128.6" font-family="monospace" font-size="13.00">λ</text>
</g>
<!-- gcd&#45;&gt;lambda -->
<g id="edge3" class="edge">
<title>gcd&#45;&gt;lambda</title>
<path fill="none" stroke="black" d="M315.74,-132C340.13,-132 376.38,-132 401.17,-132"/>
<polygon fill="black" stroke="black" points="401.35,-135.5 411.35,-132 401.35,-128.5 401.35,-135.5"/>
</g>
<!-- math -->
<g id="node2" class="node">
<title>math</title>
<polygon fill="transparent" stroke="transparent" points="93.6,-150 39.6,-150 39.6,-114 93.6,-114 93.6,-150"/>
<text text-anchor="middle" x="66.6" y="-128.6" font-family="monospace" font-size="13.00">math</text>
</g>
<!-- math&#45;&gt;gcd -->
<g id="edge1" class="edge">
<title>math&#45;&gt;gcd</title>
<path fill="none" stroke="black" d="M93.7,-132C116.15,-132 150.09,-132 183.32,-132"/>
<polygon fill="black" stroke="black" points="183.6,-135.5 193.6,-132 183.6,-128.5 183.6,-135.5"/>
</g>
<!-- x -->
<g id="node3" class="node">
<title>x</title>
<polygon fill="transparent" stroke="transparent" points="93.6,-88 39.6,-88 39.6,-52 93.6,-52 93.6,-88"/>
<text text-anchor="middle" x="66.6" y="-66.6" font-family="monospace" font-size="13.00">x</text>
</g>
<!-- 2 -->
<g id="node4" class="node">
<title>2</title>
<ellipse fill="white" stroke="black" cx="147.6" cy="-18" rx="18" ry="18"/>
<text text-anchor="middle" x="147.6" y="-14.6" font-family="monospace" font-size="13.00">2</text>
</g>
<!-- x&#45;&gt;2 -->
<g id="edge2" class="edge">
<title>x&#45;&gt;2</title>
<path fill="none" stroke="black" d="M93.91,-52.68C103.57,-46.33 114.42,-39.18 123.75,-33.04"/>
<polygon fill="black" stroke="black" points="125.71,-35.94 132.14,-27.52 121.86,-30.09 125.71,-35.94"/>
</g>
<!-- m -->
<g id="node6" class="node">
<title>m</title>
<polygon fill="transparent" stroke="transparent" points="375.6,-96 201.6,-96 201.6,-60 375.6,-60 375.6,-96"/>
<text text-anchor="middle" x="288.6" y="-74.6" font-family="monospace" font-size="13.00">(más definiciones...)</text>
</g>
<!-- E -->
<g id="node7" class="node">
<title>E</title>
<ellipse fill="white" stroke="black" cx="1.8" cy="-132" rx="1.8" ry="1.8"/>
</g>
<!-- E&#45;&gt;math -->
<g id="edge4" class="edge">
<title>E&#45;&gt;math</title>
<path fill="none" stroke="black" d="M3.89,-132C7.24,-132 17.86,-132 29.37,-132"/>
<polygon fill="black" stroke="black" points="21.6,-135.5 31.6,-132 21.6,-128.5 21.6,-135.5"/>
</g>
</g>
</svg>
