<?xml version="1.0" encoding="UTF-8" standalone="no"?>
<!DOCTYPE svg PUBLIC "-//W3C//DTD SVG 1.1//EN"
 "http://www.w3.org/Graphics/SVG/1.1/DTD/svg11.dtd">
<!-- Generated by graphviz version 14.1.2 (0)
 -->
<!-- Pages: 1 -->
<svg width="448pt" height="219pt"
 viewBox="0.00 0.00 448.00 219.00" xmlns="http://www.w3.org/2000/svg" xmlns:xlink="http://www.w3.org/1999/xlink">
<g id="graph0" class="graph" transform="scale(1 1) rotate(0) translate(4 215)">
<g id="clust1" class="cluster">
<title>cluster0</title>
<path fill="white" stroke="black" d="M295.9,-58C295.9,-58 363.65,-58 363.65,-58 369.65,-58 375.65,-64 375.65,-70 375.65,-70 375.65,-151 375.65,-151 375.65,-157 369.65,-163 363.65,-163 363.65,-163 295.9,-163 295.9,-163 289.9,-163 283.9,-157 283.9,-151 283.9,-151 283.9,-70 283.9,-70 283.9,-64 289.9,-58 295.9,-58"/>
<text xml:space="preserve" text-anchor="start" x="291.9" y="-146.7" font-family="Lato" font-size="14.00">Módulo </text>
<text xml:space="preserve" text-anchor="start" x="342.9" y="-146.7" font-family="monospace" font-size="14.00">dos</text>
</g>
<g id="clust2" class="cluster">
<title>cluster1</title>
<polygon fill="white" stroke="black" points="49.9,-14 49.9,-203 191.9,-203 191.9,-14 49.9,-14"/>
<text xml:space="preserve" text-anchor="start" x="57.9" y="-186.7" font-family="Lato" font-size="14.00">Marco global de </text>
<text xml:space="preserve" text-anchor="start" x="159.15" y="-186.7" font-family="monospace" font-size="14.00">uno</text>
</g>
<!-- 7 -->
<g id="node1" class="node">
<title>7</title>
<ellipse fill="white" stroke="black" cx="237.9" cy="-164" rx="18" ry="18"/>
<text xml:space="preserve" text-anchor="middle" x="237.9" y="-159.9" font-family="monospace" font-size="13.00">7</text>
</g>
<!-- 5 -->
<g id="node2" class="node">
<title>5</title>
<ellipse fill="white" stroke="black" cx="421.65" cy="-70" rx="18" ry="18"/>
<text xml:space="preserve" text-anchor="middle" x="421.65" y="-65.9" font-family="monospace" font-size="13.00">5</text>
</g>
<!-- 9 -->
<g id="node3" class="node">
<title>9</title>
<ellipse fill="white" stroke="black" cx="421.65" cy="-124" rx="18" ry="18"/>
<text xml:space="preserve" text-anchor="middle" x="421.65" y="-119.9" font-family="monospace" font-size="13.00">9</text>
</g>
<!-- x -->
<g id="node4" class="node">
<title>x</title>
<polygon fill="white" stroke="black" points="102.4,-147.2 102.4,-168.8 138.4,-168.8 138.4,-147.2 102.4,-147.2"/>
<text xml:space="preserve" text-anchor="middle" x="111.65" y="-153.45" font-family="monospace" font-size="13.00">x</text>
<polyline fill="none" stroke="black" points="120.9,-146.3 120.9,-168.8"/>
<text xml:space="preserve" text-anchor="middle" x="129.65" y="-151.95" font-family="monospace" font-size="13.00">⬤</text>
</g>
<!-- x&#45;&gt;7 -->
<g id="edge1" class="edge">
<title>x:f1&#45;&gt;7</title>
<path fill="none" stroke="black" d="M139.4,-157.55C162.61,-157.55 188.86,-159.39 208.27,-161.11"/>
<polygon fill="black" stroke="black" points="207.87,-164.59 218.16,-162.03 208.52,-157.62 207.87,-164.59"/>
</g>
<!-- dos -->
<g id="node5" class="node">
<title>dos</title>
<polygon fill="white" stroke="black" points="89.4,-103.75 89.4,-128.25 151.4,-128.25 151.4,-103.75 89.4,-103.75"/>
<text xml:space="preserve" text-anchor="middle" x="108.65" y="-111.9" font-family="monospace" font-size="13.00">dos</text>
<polyline fill="none" stroke="black" points="127.9,-103.75 127.9,-128.25"/>
<text xml:space="preserve" text-anchor="middle" x="139.65" y="-110.4" font-family="monospace" font-size="13.00">⬤</text>
</g>
<!-- xl -->
<g id="node6" class="node">
<title>xl</title>
<polygon fill="white" stroke="black" points="311.27,-107.2 311.27,-128.8 347.27,-128.8 347.27,-107.2 311.27,-107.2"/>
<text xml:space="preserve" text-anchor="middle" x="320.52" y="-113.45" font-family="monospace" font-size="13.00">x</text>
<polyline fill="none" stroke="black" points="329.77,-106.3 329.77,-128.8"/>
<text xml:space="preserve" text-anchor="middle" x="338.52" y="-111.95" font-family="monospace" font-size="13.00">⬤</text>
</g>
<!-- dos&#45;&gt;xl -->
<g id="edge2" class="edge">
<title>dos:f1&#45;&gt;xl</title>
<path fill="none" stroke="black" d="M152.4,-116C192.62,-116 238.01,-116.53 272.61,-117.04"/>
<polygon fill="black" stroke="black" points="272.34,-120.54 282.39,-117.19 272.44,-113.54 272.34,-120.54"/>
</g>
<!-- xl&#45;&gt;9 -->
<g id="edge3" class="edge">
<title>xl:f1&#45;&gt;9</title>
<path fill="none" stroke="black" d="M348.27,-117.55C362.76,-117.55 378.82,-118.85 392.12,-120.28"/>
<polygon fill="black" stroke="black" points="391.59,-123.74 401.93,-121.42 392.4,-116.79 391.59,-123.74"/>
</g>
<!-- y -->
<g id="node7" class="node">
<title>y</title>
<polygon fill="white" stroke="black" points="311.27,-66.2 311.27,-87.8 347.27,-87.8 347.27,-66.2 311.27,-66.2"/>
<text xml:space="preserve" text-anchor="middle" x="320.52" y="-72.45" font-family="monospace" font-size="13.00">y</text>
<polyline fill="none" stroke="black" points="329.77,-65.3 329.77,-87.8"/>
<text xml:space="preserve" text-anchor="middle" x="338.52" y="-70.95" font-family="monospace" font-size="13.00">⬤</text>
</g>
<!-- y&#45;&gt;5 -->
<g id="edge4" class="edge">
<title>y:f1&#45;&gt;5</title>
<path fill="none" stroke="black" d="M348.27,-76.55C362.76,-76.55 378.82,-75.23 392.12,-73.78"/>
<polygon fill="black" stroke="black" points="392.41,-77.27 401.93,-72.62 391.59,-70.32 392.41,-77.27"/>
</g>
<!-- a -->
<g id="node8" class="node">
<title>a</title>
<polygon fill="white" stroke="black" points="102.4,-63.2 102.4,-84.8 138.4,-84.8 138.4,-63.2 102.4,-63.2"/>
<text xml:space="preserve" text-anchor="middle" x="111.65" y="-69.45" font-family="monospace" font-size="13.00">a</text>
<polyline fill="none" stroke="black" points="120.9,-62.3 120.9,-84.8"/>
<text xml:space="preserve" text-anchor="middle" x="129.65" y="-67.95" font-family="monospace" font-size="13.00">⬤</text>
</g>
<!-- 4 -->
<g id="node10" class="node">
<title>4</title>
<ellipse fill="white" stroke="black" cx="237.9" cy="-72" rx="18" ry="18"/>
<text xml:space="preserve" text-anchor="middle" x="237.9" y="-67.9" font-family="monospace" font-size="13.00">4</text>
</g>
<!-- a&#45;&gt;4 -->
<g id="edge5" class="edge">
<title>a:e&#45;&gt;4</title>
<path fill="none" stroke="black" d="M139.4,-73.55C162.56,-73.55 188.82,-73.11 208.24,-72.7"/>
<polygon fill="black" stroke="black" points="208.21,-76.2 218.13,-72.47 208.05,-69.2 208.21,-76.2"/>
</g>
<!-- b -->
<g id="node9" class="node">
<title>b</title>
<polygon fill="white" stroke="black" points="102.4,-22.2 102.4,-43.8 138.4,-43.8 138.4,-22.2 102.4,-22.2"/>
<text xml:space="preserve" text-anchor="middle" x="111.65" y="-28.45" font-family="monospace" font-size="13.00">b</text>
<polyline fill="none" stroke="black" points="120.9,-21.3 120.9,-43.8"/>
<text xml:space="preserve" text-anchor="middle" x="129.65" y="-26.95" font-family="monospace" font-size="13.00">⬤</text>
</g>
<!-- 3 -->
<g id="node11" class="node">
<title>3</title>
<ellipse fill="white" stroke="black" cx="237.9" cy="-18" rx="18" ry="18"/>
<text xml:space="preserve" text-anchor="middle" x="237.9" y="-13.9" font-family="monospace" font-size="13.00">3</text>
</g>
<!-- b&#45;&gt;3 -->
<g id="edge6" class="edge">
<title>b:f1&#45;&gt;3</title>
<path fill="none" stroke="black" d="M139.4,-32.55C163.07,-32.55 189.62,-28.3 209.03,-24.4"/>
<polygon fill="black" stroke="black" points="209.57,-27.86 218.62,-22.37 208.12,-21.02 209.57,-27.86"/>
</g>
<!-- E -->
<g id="node12" class="node">
<title>E</title>
<polygon fill="none" stroke="none" points="21.9,-176 0,-176 0,-140 21.9,-140 21.9,-176"/>
<text xml:space="preserve" text-anchor="middle" x="10.95" y="-153.9" font-family="monospace" font-size="13.00">E</text>
</g>
<!-- E&#45;&gt;x -->
<g id="edge7" class="edge">
<title>E&#45;&gt;x</title>
<path fill="none" stroke="black" d="M21.87,-158C26.34,-158 32.07,-158 38.5,-158"/>
<polygon fill="black" stroke="black" points="38.39,-161.5 48.39,-158 38.39,-154.5 38.39,-161.5"/>
</g>
</g>
</svg>
