<?xml version="1.0" encoding="UTF-8" standalone="no"?>
<!DOCTYPE svg PUBLIC "-//W3C//DTD SVG 1.1//EN"
 "http://www.w3.org/Graphics/SVG/1.1/DTD/svg11.dtd">
<!-- Generated by graphviz version 2.42.4 (0)
 -->
<!-- Pages: 1 -->
<svg width="450pt" height="171pt"
 viewBox="0.00 0.00 450.00 171.00" xmlns="http://www.w3.org/2000/svg" xmlns:xlink="http://www.w3.org/1999/xlink">
<g id="graph0" class="graph" transform="scale(1 1) rotate(0) translate(4 167)">
<g id="clust1" class="cluster">
<title>cluster0</title>
<path fill="white" stroke="black" d="M297,-8C297,-8 366,-8 366,-8 372,-8 378,-14 378,-20 378,-20 378,-100 378,-100 378,-106 372,-112 366,-112 366,-112 297,-112 297,-112 291,-112 285,-106 285,-100 285,-100 285,-20 285,-20 285,-14 291,-8 297,-8"/>
<text text-anchor="start" x="293" y="-97.8" font-family="Lato" font-size="14.00">Módulo </text>
<text text-anchor="start" x="345" y="-97.8" font-family="monospace" font-size="14.00">dos</text>
</g>
<g id="clust2" class="cluster">
<title>cluster1</title>
<polygon fill="white" stroke="black" points="50,-51 50,-155 193,-155 193,-51 50,-51"/>
<text text-anchor="start" x="58" y="-140.8" font-family="Lato" font-size="14.00">Marco global de </text>
<text text-anchor="start" x="160" y="-140.8" font-family="monospace" font-size="14.00">uno</text>
</g>
<!-- 7 -->
<g id="node1" class="node">
<title>7</title>
<ellipse fill="white" stroke="black" cx="239" cy="-115" rx="18" ry="18"/>
<text text-anchor="middle" x="239" y="-111.6" font-family="monospace" font-size="13.00">7</text>
</g>
<!-- 5 -->
<g id="node2" class="node">
<title>5</title>
<ellipse fill="white" stroke="black" cx="424" cy="-22" rx="18" ry="18"/>
<text text-anchor="middle" x="424" y="-18.6" font-family="monospace" font-size="13.00">5</text>
</g>
<!-- 9 -->
<g id="node3" class="node">
<title>9</title>
<ellipse fill="white" stroke="black" cx="424" cy="-76" rx="18" ry="18"/>
<text text-anchor="middle" x="424" y="-72.6" font-family="monospace" font-size="13.00">9</text>
</g>
<!-- x -->
<g id="node4" class="node">
<title>x</title>
<polygon fill="white" stroke="black" points="103.5,-101 103.5,-123 139.5,-123 139.5,-101 103.5,-101"/>
<text text-anchor="middle" x="112.5" y="-108.6" font-family="monospace" font-size="13.00">x</text>
<polyline fill="none" stroke="black" points="121.5,-101 121.5,-123 "/>
<text text-anchor="middle" x="130.5" y="-108.6" font-family="monospace" font-size="13.00">⬤</text>
</g>
<!-- x&#45;&gt;7 -->
<g id="edge1" class="edge">
<title>x:f1&#45;&gt;7</title>
<path fill="none" stroke="black" d="M140.5,-112C164.22,-112 191.17,-112.9 210.72,-113.71"/>
<polygon fill="black" stroke="black" points="210.6,-117.21 220.74,-114.15 210.91,-110.22 210.6,-117.21"/>
</g>
<!-- dos -->
<g id="node5" class="node">
<title>dos</title>
<polygon fill="white" stroke="black" points="90,-60 90,-82 153,-82 153,-60 90,-60"/>
<text text-anchor="middle" x="109.5" y="-67.6" font-family="monospace" font-size="13.00">dos</text>
<polyline fill="none" stroke="black" points="129,-60 129,-82 "/>
<text text-anchor="middle" x="141" y="-67.6" font-family="monospace" font-size="13.00">⬤</text>
</g>
<!-- xl -->
<g id="node6" class="node">
<title>xl</title>
<polygon fill="white" stroke="black" points="313,-58 313,-80 349,-80 349,-58 313,-58"/>
<text text-anchor="middle" x="322" y="-65.6" font-family="monospace" font-size="13.00">x</text>
<polyline fill="none" stroke="black" points="331,-58 331,-80 "/>
<text text-anchor="middle" x="340" y="-65.6" font-family="monospace" font-size="13.00">⬤</text>
</g>
<!-- dos&#45;&gt;xl -->
<g id="edge2" class="edge">
<title>dos:f1&#45;&gt;xl</title>
<path fill="none" stroke="black" d="M154.5,-71C194.71,-71 240.1,-70.47 274.65,-69.95"/>
<polygon fill="black" stroke="black" points="275.06,-73.45 285,-69.79 274.95,-66.45 275.06,-73.45"/>
</g>
<!-- xl&#45;&gt;9 -->
<g id="edge3" class="edge">
<title>xl:f1&#45;&gt;9</title>
<path fill="none" stroke="black" d="M350,-69C365.17,-69 382.03,-70.52 395.73,-72.14"/>
<polygon fill="black" stroke="black" points="395.57,-75.65 405.93,-73.43 396.45,-68.7 395.57,-75.65"/>
</g>
<!-- y -->
<g id="node7" class="node">
<title>y</title>
<polygon fill="white" stroke="black" points="313,-17 313,-39 349,-39 349,-17 313,-17"/>
<text text-anchor="middle" x="322" y="-24.6" font-family="monospace" font-size="13.00">y</text>
<polyline fill="none" stroke="black" points="331,-17 331,-39 "/>
<text text-anchor="middle" x="340" y="-24.6" font-family="monospace" font-size="13.00">⬤</text>
</g>
<!-- y&#45;&gt;5 -->
<g id="edge4" class="edge">
<title>y:f1&#45;&gt;5</title>
<path fill="none" stroke="black" d="M350,-28C365.15,-28 382.01,-26.7 395.71,-25.31"/>
<polygon fill="black" stroke="black" points="396.36,-28.76 405.92,-24.2 395.6,-21.8 396.36,-28.76"/>
</g>
<!-- E -->
<g id="node8" class="node">
<title>E</title>
<polygon fill="transparent" stroke="transparent" points="22,-130 0,-130 0,-94 22,-94 22,-130"/>
<text text-anchor="middle" x="11" y="-108.6" font-family="monospace" font-size="13.00">E</text>
</g>
<!-- E&#45;&gt;x -->
<g id="edge5" class="edge">
<title>E&#45;&gt;x</title>
<path fill="none" stroke="black" d="M22.01,-112C26.71,-112 32.77,-112 39.57,-112"/>
<polygon fill="black" stroke="black" points="40,-115.5 50,-112 40,-108.5 40,-115.5"/>
</g>
</g>
</svg>
