<?xml version="1.0" encoding="UTF-8" standalone="no"?>
<!DOCTYPE svg PUBLIC "-//W3C//DTD SVG 1.1//EN"
 "http://www.w3.org/Graphics/SVG/1.1/DTD/svg11.dtd">
<!-- Generated by graphviz version 2.43.0 (0)
 -->
<!-- Title: %3 Pages: 1 -->
<svg width="432pt" height="177pt"
 viewBox="0.00 0.00 431.60 177.00" xmlns="http://www.w3.org/2000/svg" xmlns:xlink="http://www.w3.org/1999/xlink">
<g id="graph0" class="graph" transform="scale(1 1) rotate(0) translate(4 173)">
<title>%3</title>
<g id="clust1" class="cluster">
<title>cluster0</title>
<path fill="white" stroke="black" d="M278.6,-57C278.6,-57 347.6,-57 347.6,-57 353.6,-57 359.6,-63 359.6,-69 359.6,-69 359.6,-149 359.6,-149 359.6,-155 353.6,-161 347.6,-161 347.6,-161 278.6,-161 278.6,-161 272.6,-161 266.6,-155 266.6,-149 266.6,-149 266.6,-69 266.6,-69 266.6,-63 272.6,-57 278.6,-57"/>
<text text-anchor="start" x="274.6" y="-146.8" font-family="Lato" font-size="14.00">Módulo </text>
<text text-anchor="start" x="326.6" y="-146.8" font-family="monospace" font-size="14.00">dos</text>
</g>
<g id="clust2" class="cluster">
<title>cluster1</title>
<polygon fill="white" stroke="black" points="31.6,-11 31.6,-156 174.6,-156 174.6,-11 31.6,-11"/>
<text text-anchor="start" x="39.6" y="-141.8" font-family="Lato" font-size="14.00">Marco global de </text>
<text text-anchor="start" x="141.6" y="-141.8" font-family="monospace" font-size="14.00">uno</text>
</g>
<!-- 5 -->
<g id="node1" class="node">
<title>5</title>
<ellipse fill="white" stroke="black" cx="405.6" cy="-71" rx="18" ry="18"/>
<text text-anchor="middle" x="405.6" y="-67.6" font-family="monospace" font-size="13.00">5</text>
</g>
<!-- 9 -->
<g id="node2" class="node">
<title>9</title>
<ellipse fill="white" stroke="black" cx="405.6" cy="-125" rx="18" ry="18"/>
<text text-anchor="middle" x="405.6" y="-121.6" font-family="monospace" font-size="13.00">9</text>
</g>
<!-- 4 -->
<g id="node3" class="node">
<title>4</title>
<ellipse fill="white" stroke="black" cx="220.6" cy="-72" rx="18" ry="18"/>
<text text-anchor="middle" x="220.6" y="-68.6" font-family="monospace" font-size="13.00">4</text>
</g>
<!-- 3 -->
<g id="node4" class="node">
<title>3</title>
<ellipse fill="white" stroke="black" cx="220.6" cy="-18" rx="18" ry="18"/>
<text text-anchor="middle" x="220.6" y="-14.6" font-family="monospace" font-size="13.00">3</text>
</g>
<!-- dos -->
<g id="node5" class="node">
<title>dos</title>
<polygon fill="white" stroke="black" points="71.6,-102 71.6,-124 134.6,-124 134.6,-102 71.6,-102"/>
<text text-anchor="middle" x="91.1" y="-109.6" font-family="monospace" font-size="13.00">dos</text>
<polyline fill="none" stroke="black" points="110.6,-102 110.6,-124 "/>
<text text-anchor="middle" x="122.6" y="-109.6" font-family="monospace" font-size="13.00">⬤</text>
</g>
<!-- x -->
<g id="node6" class="node">
<title>x</title>
<polygon fill="white" stroke="black" points="294.6,-107 294.6,-129 330.6,-129 330.6,-107 294.6,-107"/>
<text text-anchor="middle" x="303.6" y="-114.6" font-family="monospace" font-size="13.00">x</text>
<polyline fill="none" stroke="black" points="312.6,-107 312.6,-129 "/>
<text text-anchor="middle" x="321.6" y="-114.6" font-family="monospace" font-size="13.00">⬤</text>
</g>
<!-- dos&#45;&gt;x -->
<g id="edge1" class="edge">
<title>dos:f1&#45;&gt;x</title>
<path fill="none" stroke="black" d="M136.1,-113C176.32,-113 221.71,-114.33 256.25,-115.62"/>
<polygon fill="black" stroke="black" points="256.48,-119.13 266.6,-116.01 256.74,-112.13 256.48,-119.13"/>
</g>
<!-- x&#45;&gt;9 -->
<g id="edge4" class="edge">
<title>x:f1&#45;&gt;9</title>
<path fill="none" stroke="black" d="M331.6,-118C346.77,-118 363.63,-119.52 377.33,-121.14"/>
<polygon fill="black" stroke="black" points="377.17,-124.65 387.53,-122.43 378.05,-117.7 377.17,-124.65"/>
</g>
<!-- y -->
<g id="node7" class="node">
<title>y</title>
<polygon fill="white" stroke="black" points="294.6,-66 294.6,-88 330.6,-88 330.6,-66 294.6,-66"/>
<text text-anchor="middle" x="303.6" y="-73.6" font-family="monospace" font-size="13.00">y</text>
<polyline fill="none" stroke="black" points="312.6,-66 312.6,-88 "/>
<text text-anchor="middle" x="321.6" y="-73.6" font-family="monospace" font-size="13.00">⬤</text>
</g>
<!-- y&#45;&gt;5 -->
<g id="edge5" class="edge">
<title>y:f1&#45;&gt;5</title>
<path fill="none" stroke="black" d="M331.6,-77C346.75,-77 363.61,-75.7 377.31,-74.31"/>
<polygon fill="black" stroke="black" points="377.96,-77.76 387.52,-73.2 377.2,-70.8 377.96,-77.76"/>
</g>
<!-- a -->
<g id="node8" class="node">
<title>a</title>
<polygon fill="white" stroke="black" points="85.1,-61 85.1,-83 121.1,-83 121.1,-61 85.1,-61"/>
<text text-anchor="middle" x="94.1" y="-68.6" font-family="monospace" font-size="13.00">a</text>
<polyline fill="none" stroke="black" points="103.1,-61 103.1,-83 "/>
<text text-anchor="middle" x="112.1" y="-68.6" font-family="monospace" font-size="13.00">⬤</text>
</g>
<!-- a&#45;&gt;4 -->
<g id="edge2" class="edge">
<title>a:e&#45;&gt;4</title>
<path fill="none" stroke="black" d="M122.1,-72C145.81,-72 172.76,-72 192.31,-72"/>
<polygon fill="black" stroke="black" points="192.34,-75.5 202.34,-72 192.34,-68.5 192.34,-75.5"/>
</g>
<!-- b -->
<g id="node9" class="node">
<title>b</title>
<polygon fill="white" stroke="black" points="85.1,-20 85.1,-42 121.1,-42 121.1,-20 85.1,-20"/>
<text text-anchor="middle" x="94.1" y="-27.6" font-family="monospace" font-size="13.00">b</text>
<polyline fill="none" stroke="black" points="103.1,-20 103.1,-42 "/>
<text text-anchor="middle" x="112.1" y="-27.6" font-family="monospace" font-size="13.00">⬤</text>
</g>
<!-- b&#45;&gt;3 -->
<g id="edge3" class="edge">
<title>b:f1&#45;&gt;3</title>
<path fill="none" stroke="black" d="M122.1,-31C146.16,-31 173.27,-27.06 192.79,-23.52"/>
<polygon fill="black" stroke="black" points="193.61,-26.93 202.78,-21.62 192.3,-20.05 193.61,-26.93"/>
</g>
<!-- E -->
<g id="node10" class="node">
<title>E</title>
<ellipse fill="white" stroke="black" cx="1.8" cy="-72" rx="1.8" ry="1.8"/>
</g>
<!-- E&#45;&gt;a -->
<g id="edge6" class="edge">
<title>E&#45;&gt;a</title>
<path fill="none" stroke="black" d="M3.92,-72C6.42,-72 12.97,-72 21.57,-72"/>
<polygon fill="black" stroke="black" points="21.6,-75.5 31.6,-72 21.6,-68.5 21.6,-75.5"/>
</g>
</g>
</svg>
