<?xml version="1.0" encoding="UTF-8" standalone="no"?>
<!DOCTYPE svg PUBLIC "-//W3C//DTD SVG 1.1//EN"
 "http://www.w3.org/Graphics/SVG/1.1/DTD/svg11.dtd">
<!-- Generated by graphviz version 2.43.0 (0)
 -->
<!-- Title: %3 Pages: 1 -->
<svg width="510pt" height="226pt"
 viewBox="0.00 0.00 510.00 226.00" xmlns="http://www.w3.org/2000/svg" xmlns:xlink="http://www.w3.org/1999/xlink">
<g id="graph0" class="graph" transform="scale(1 1) rotate(0) translate(4 222)">
<title>%3</title>
<g id="clust1" class="cluster">
<title>cluster2</title>
<path fill="#f2f2f2" stroke="black" d="M266,-8C266,-8 482,-8 482,-8 488,-8 494,-14 494,-20 494,-20 494,-198 494,-198 494,-204 488,-210 482,-210 482,-210 266,-210 266,-210 260,-210 254,-204 254,-198 254,-198 254,-20 254,-20 254,-14 260,-8 266,-8"/>
<text text-anchor="middle" x="374" y="-194.8" font-family="Lato" font-size="14.00">Montículo</text>
</g>
<g id="clust2" class="cluster">
<title>cluster0</title>
<path fill="white" stroke="black" d="M274,-62C274,-62 410,-62 410,-62 416,-62 422,-68 422,-74 422,-74 422,-167 422,-167 422,-173 416,-179 410,-179 410,-179 274,-179 274,-179 268,-179 262,-173 262,-167 262,-167 262,-74 262,-74 262,-68 268,-62 274,-62"/>
<text text-anchor="start" x="295" y="-164.8" font-family="Lato" font-size="14.00">Módulo </text>
<text text-anchor="start" x="347" y="-164.8" font-family="monospace" font-size="14.00">mates</text>
</g>
<g id="clust3" class="cluster">
<title>cluster1</title>
<polygon fill="white" stroke="black" points="50,-59 50,-163 205,-163 205,-59 50,-59"/>
<text text-anchor="middle" x="127.5" y="-147.8" font-family="Lato" font-size="14.00">Marco global del script</text>
</g>
<!-- gcd -->
<g id="node1" class="node">
<title>gcd</title>
<polygon fill="white" stroke="black" points="310.5,-125 310.5,-147 373.5,-147 373.5,-125 310.5,-125"/>
<text text-anchor="middle" x="330" y="-132.6" font-family="monospace" font-size="13.00">gcd</text>
<polyline fill="none" stroke="black" points="349.5,-125 349.5,-147 "/>
<text text-anchor="middle" x="361.5" y="-132.6" font-family="monospace" font-size="13.00">⬤</text>
</g>
<!-- lambda -->
<g id="node5" class="node">
<title>lambda</title>
<ellipse fill="white" stroke="black" cx="468" cy="-136" rx="18" ry="18"/>
<text text-anchor="middle" x="468" y="-132.6" font-family="monospace" font-size="13.00">λ</text>
</g>
<!-- gcd&#45;&gt;lambda -->
<g id="edge3" class="edge">
<title>gcd:f1&#45;&gt;lambda</title>
<path fill="none" stroke="black" d="M375,-136C396.66,-136 421.19,-136 439.47,-136"/>
<polygon fill="black" stroke="black" points="439.7,-139.5 449.7,-136 439.7,-132.5 439.7,-139.5"/>
</g>
<!-- mates -->
<g id="node2" class="node">
<title>mates</title>
<polygon fill="white" stroke="black" points="88,-109 88,-131 166,-131 166,-109 88,-109"/>
<text text-anchor="middle" x="115" y="-116.6" font-family="monospace" font-size="13.00">mates</text>
<polyline fill="none" stroke="black" points="142,-109 142,-131 "/>
<text text-anchor="middle" x="154" y="-116.6" font-family="monospace" font-size="13.00">⬤</text>
</g>
<!-- mates&#45;&gt;gcd -->
<g id="edge1" class="edge">
<title>mates:f1&#45;&gt;gcd</title>
<path fill="none" stroke="black" d="M167,-120C194.61,-120 224.58,-122.02 251.74,-124.63"/>
<polygon fill="black" stroke="black" points="251.7,-128.14 262,-125.65 252.4,-121.18 251.7,-128.14"/>
</g>
<!-- x -->
<g id="node3" class="node">
<title>x</title>
<polygon fill="white" stroke="black" points="109,-68 109,-90 145,-90 145,-68 109,-68"/>
<text text-anchor="middle" x="118" y="-75.6" font-family="monospace" font-size="13.00">x</text>
<polyline fill="none" stroke="black" points="127,-68 127,-90 "/>
<text text-anchor="middle" x="136" y="-75.6" font-family="monospace" font-size="13.00">⬤</text>
</g>
<!-- 2 -->
<g id="node4" class="node">
<title>2</title>
<ellipse fill="white" stroke="black" cx="342" cy="-34" rx="18" ry="18"/>
<text text-anchor="middle" x="342" y="-30.6" font-family="monospace" font-size="13.00">2</text>
</g>
<!-- x&#45;&gt;2 -->
<g id="edge2" class="edge">
<title>x:f1&#45;&gt;2</title>
<path fill="none" stroke="black" d="M146,-79C162.75,-79 264.92,-53.46 314.31,-40.86"/>
<polygon fill="black" stroke="black" points="315.46,-44.18 324.28,-38.31 313.72,-37.4 315.46,-44.18"/>
</g>
<!-- m -->
<g id="node6" class="node">
<title>m</title>
<polygon fill="transparent" stroke="transparent" points="414,-106 270,-106 270,-70 414,-70 414,-106"/>
<text text-anchor="middle" x="342" y="-84.6" font-family="monospace" font-size="13.00">(más miembros...)</text>
</g>
<!-- E -->
<g id="node7" class="node">
<title>E</title>
<polygon fill="transparent" stroke="transparent" points="22,-138 0,-138 0,-102 22,-102 22,-138"/>
<text text-anchor="middle" x="11" y="-116.6" font-family="monospace" font-size="13.00">E</text>
</g>
<!-- E&#45;&gt;mates -->
<g id="edge4" class="edge">
<title>E&#45;&gt;mates</title>
<path fill="none" stroke="black" d="M22.12,-120C26.79,-120 32.8,-120 39.59,-120"/>
<polygon fill="black" stroke="black" points="40,-123.5 50,-120 40,-116.5 40,-123.5"/>
</g>
</g>
</svg>
