<?xml version="1.0" encoding="UTF-8" standalone="no"?>
<!DOCTYPE svg PUBLIC "-//W3C//DTD SVG 1.1//EN"
 "http://www.w3.org/Graphics/SVG/1.1/DTD/svg11.dtd">
<!-- Generated by graphviz version 14.1.2 (0)
 -->
<!-- Pages: 1 -->
<svg width="448pt" height="173pt"
 viewBox="0.00 0.00 448.00 173.00" xmlns="http://www.w3.org/2000/svg" xmlns:xlink="http://www.w3.org/1999/xlink">
<g id="graph0" class="graph" transform="scale(1 1) rotate(0) translate(4 169)">
<g id="clust1" class="cluster">
<title>cluster0</title>
<path fill="white" stroke="black" d="M295.9,-8C295.9,-8 363.65,-8 363.65,-8 369.65,-8 375.65,-14 375.65,-20 375.65,-20 375.65,-101 375.65,-101 375.65,-107 369.65,-113 363.65,-113 363.65,-113 295.9,-113 295.9,-113 289.9,-113 283.9,-107 283.9,-101 283.9,-101 283.9,-20 283.9,-20 283.9,-14 289.9,-8 295.9,-8"/>
<text xml:space="preserve" text-anchor="start" x="291.9" y="-96.7" font-family="Lato" font-size="14.00">Módulo </text>
<text xml:space="preserve" text-anchor="start" x="342.9" y="-96.7" font-family="monospace" font-size="14.00">dos</text>
</g>
<g id="clust2" class="cluster">
<title>cluster1</title>
<polygon fill="white" stroke="black" points="49.9,-49 49.9,-157 191.9,-157 191.9,-49 49.9,-49"/>
<text xml:space="preserve" text-anchor="start" x="57.9" y="-140.7" font-family="Lato" font-size="14.00">Marco global de </text>
<text xml:space="preserve" text-anchor="start" x="159.15" y="-140.7" font-family="monospace" font-size="14.00">uno</text>
</g>
<!-- 7 -->
<g id="node1" class="node">
<title>7</title>
<ellipse fill="white" stroke="black" cx="237.9" cy="-114" rx="18" ry="18"/>
<text xml:space="preserve" text-anchor="middle" x="237.9" y="-109.9" font-family="monospace" font-size="13.00">7</text>
</g>
<!-- 5 -->
<g id="node2" class="node">
<title>5</title>
<ellipse fill="white" stroke="black" cx="421.65" cy="-20" rx="18" ry="18"/>
<text xml:space="preserve" text-anchor="middle" x="421.65" y="-15.9" font-family="monospace" font-size="13.00">5</text>
</g>
<!-- 9 -->
<g id="node3" class="node">
<title>9</title>
<ellipse fill="white" stroke="black" cx="421.65" cy="-74" rx="18" ry="18"/>
<text xml:space="preserve" text-anchor="middle" x="421.65" y="-69.9" font-family="monospace" font-size="13.00">9</text>
</g>
<!-- x -->
<g id="node4" class="node">
<title>x</title>
<polygon fill="white" stroke="black" points="102.4,-101.2 102.4,-122.8 138.4,-122.8 138.4,-101.2 102.4,-101.2"/>
<text xml:space="preserve" text-anchor="middle" x="111.65" y="-107.45" font-family="monospace" font-size="13.00">x</text>
<polyline fill="none" stroke="black" points="120.9,-100.3 120.9,-122.8"/>
<text xml:space="preserve" text-anchor="middle" x="129.65" y="-105.95" font-family="monospace" font-size="13.00">⬤</text>
</g>
<!-- x&#45;&gt;7 -->
<g id="edge1" class="edge">
<title>x:f1&#45;&gt;7</title>
<path fill="none" stroke="black" d="M139.4,-111.55C162.57,-111.55 188.82,-112.25 208.24,-112.9"/>
<polygon fill="black" stroke="black" points="208.01,-116.4 218.13,-113.25 208.26,-109.4 208.01,-116.4"/>
</g>
<!-- dos -->
<g id="node5" class="node">
<title>dos</title>
<polygon fill="white" stroke="black" points="89.4,-57.75 89.4,-82.25 151.4,-82.25 151.4,-57.75 89.4,-57.75"/>
<text xml:space="preserve" text-anchor="middle" x="108.65" y="-65.9" font-family="monospace" font-size="13.00">dos</text>
<polyline fill="none" stroke="black" points="127.9,-57.75 127.9,-82.25"/>
<text xml:space="preserve" text-anchor="middle" x="139.65" y="-64.4" font-family="monospace" font-size="13.00">⬤</text>
</g>
<!-- xl -->
<g id="node6" class="node">
<title>xl</title>
<polygon fill="white" stroke="black" points="311.27,-57.2 311.27,-78.8 347.27,-78.8 347.27,-57.2 311.27,-57.2"/>
<text xml:space="preserve" text-anchor="middle" x="320.52" y="-63.45" font-family="monospace" font-size="13.00">x</text>
<polyline fill="none" stroke="black" points="329.77,-56.3 329.77,-78.8"/>
<text xml:space="preserve" text-anchor="middle" x="338.52" y="-61.95" font-family="monospace" font-size="13.00">⬤</text>
</g>
<!-- dos&#45;&gt;xl -->
<g id="edge2" class="edge">
<title>dos:f1&#45;&gt;xl</title>
<path fill="none" stroke="black" d="M152.4,-70C192.62,-70 238.01,-69.47 272.61,-68.96"/>
<polygon fill="black" stroke="black" points="272.44,-72.46 282.39,-68.81 272.34,-65.46 272.44,-72.46"/>
</g>
<!-- xl&#45;&gt;9 -->
<g id="edge3" class="edge">
<title>xl:f1&#45;&gt;9</title>
<path fill="none" stroke="black" d="M348.27,-67.55C362.76,-67.55 378.82,-68.85 392.12,-70.28"/>
<polygon fill="black" stroke="black" points="391.59,-73.74 401.93,-71.42 392.4,-66.79 391.59,-73.74"/>
</g>
<!-- y -->
<g id="node7" class="node">
<title>y</title>
<polygon fill="white" stroke="black" points="311.27,-16.2 311.27,-37.8 347.27,-37.8 347.27,-16.2 311.27,-16.2"/>
<text xml:space="preserve" text-anchor="middle" x="320.52" y="-22.45" font-family="monospace" font-size="13.00">y</text>
<polyline fill="none" stroke="black" points="329.77,-15.3 329.77,-37.8"/>
<text xml:space="preserve" text-anchor="middle" x="338.52" y="-20.95" font-family="monospace" font-size="13.00">⬤</text>
</g>
<!-- y&#45;&gt;5 -->
<g id="edge4" class="edge">
<title>y:f1&#45;&gt;5</title>
<path fill="none" stroke="black" d="M348.27,-26.55C362.76,-26.55 378.82,-25.23 392.12,-23.78"/>
<polygon fill="black" stroke="black" points="392.41,-27.27 401.93,-22.62 391.59,-20.32 392.41,-27.27"/>
</g>
<!-- E -->
<g id="node8" class="node">
<title>E</title>
<polygon fill="none" stroke="none" points="21.9,-130 0,-130 0,-94 21.9,-94 21.9,-130"/>
<text xml:space="preserve" text-anchor="middle" x="10.95" y="-107.9" font-family="monospace" font-size="13.00">E</text>
</g>
<!-- E&#45;&gt;x -->
<g id="edge5" class="edge">
<title>E&#45;&gt;x</title>
<path fill="none" stroke="black" d="M21.87,-112C26.34,-112 32.07,-112 38.5,-112"/>
<polygon fill="black" stroke="black" points="38.39,-115.5 48.39,-112 38.39,-108.5 38.39,-115.5"/>
</g>
</g>
</svg>
