<?xml version="1.0" encoding="UTF-8" standalone="no"?>
<!DOCTYPE svg PUBLIC "-//W3C//DTD SVG 1.1//EN"
 "http://www.w3.org/Graphics/SVG/1.1/DTD/svg11.dtd">
<!-- Generated by graphviz version 2.40.1 (20161225.0304)
 -->
<!-- Title: %3 Pages: 1 -->
<svg width="576pt" height="324pt"
 viewBox="0.00 0.00 576.00 324.35" xmlns="http://www.w3.org/2000/svg" xmlns:xlink="http://www.w3.org/1999/xlink">
<g id="graph0" class="graph" transform="scale(1.5669 1.5669) rotate(0) translate(4 203)">
<title>%3</title>
<g id="clust1" class="cluster">
<title>cluster1</title>
<polygon fill="#ffffff" stroke="#000000" points="31.6,-8 31.6,-191 352.6,-191 352.6,-8 31.6,-8"/>
<text text-anchor="middle" x="192.1" y="-175.8" font-family="Lato" font-size="14.00" fill="#000000">Marco global de uno</text>
</g>
<g id="clust2" class="cluster">
<title>cluster0</title>
<polygon fill="#ffffff" stroke="#000000" points="201.6,-31 201.6,-160 344.6,-160 344.6,-31 201.6,-31"/>
<text text-anchor="middle" x="273.1" y="-144.8" font-family="Lato" font-size="14.00" fill="#000000">Marco global de dos</text>
</g>
<!-- 5 -->
<g id="node1" class="node">
<title>5</title>
<ellipse fill="#ffffff" stroke="#000000" cx="317.6" cy="-57" rx="18" ry="18"/>
<text text-anchor="middle" x="317.6" y="-53.6" font-family="monospace" font-size="13.00" fill="#000000">5</text>
</g>
<!-- 9 -->
<g id="node2" class="node">
<title>9</title>
<ellipse fill="#ffffff" stroke="#000000" cx="317.6" cy="-111" rx="18" ry="18"/>
<text text-anchor="middle" x="317.6" y="-107.6" font-family="monospace" font-size="13.00" fill="#000000">9</text>
</g>
<!-- 4 -->
<g id="node3" class="node">
<title>4</title>
<ellipse fill="#ffffff" stroke="#000000" cx="147.6" cy="-88" rx="18" ry="18"/>
<text text-anchor="middle" x="147.6" y="-84.6" font-family="monospace" font-size="13.00" fill="#000000">4</text>
</g>
<!-- 3 -->
<g id="node4" class="node">
<title>3</title>
<ellipse fill="#ffffff" stroke="#000000" cx="147.6" cy="-34" rx="18" ry="18"/>
<text text-anchor="middle" x="147.6" y="-30.6" font-family="monospace" font-size="13.00" fill="#000000">3</text>
</g>
<!-- x -->
<g id="node5" class="node">
<title>x</title>
<polygon fill="transparent" stroke="transparent" points="263.6,-129 209.6,-129 209.6,-93 263.6,-93 263.6,-129"/>
<text text-anchor="middle" x="236.6" y="-107.6" font-family="monospace" font-size="13.00" fill="#000000">x</text>
</g>
<!-- x&#45;&gt;9 -->
<g id="edge3" class="edge">
<title>x&#45;&gt;9</title>
<path fill="none" stroke="#000000" d="M264.0229,-111C272.0647,-111 280.8772,-111 288.9909,-111"/>
<polygon fill="#000000" stroke="#000000" points="289.1312,-114.5001 299.1312,-111 289.1311,-107.5001 289.1312,-114.5001"/>
</g>
<!-- dos -->
<g id="node6" class="node">
<title>dos</title>
<polygon fill="transparent" stroke="transparent" points="93.6,-160 39.6,-160 39.6,-124 93.6,-124 93.6,-160"/>
<text text-anchor="middle" x="66.6" y="-138.6" font-family="monospace" font-size="13.00" fill="#000000">dos</text>
</g>
<!-- dos&#45;&gt;x -->
<g id="edge5" class="edge">
<title>dos&#45;&gt;x</title>
<path fill="none" stroke="#000000" d="M93.9134,-137.0193C122.4153,-131.8219 167.3018,-123.6367 199.1108,-117.8363"/>
<polygon fill="#000000" stroke="#000000" points="193.31,-123.5659 201.6,-116.9683 191.0051,-116.9562 193.31,-123.5659"/>
</g>
<!-- a -->
<g id="node7" class="node">
<title>a</title>
<polygon fill="transparent" stroke="transparent" points="93.6,-106 39.6,-106 39.6,-70 93.6,-70 93.6,-106"/>
<text text-anchor="middle" x="66.6" y="-84.6" font-family="monospace" font-size="13.00" fill="#000000">a</text>
</g>
<!-- a&#45;&gt;4 -->
<g id="edge1" class="edge">
<title>a&#45;&gt;4</title>
<path fill="none" stroke="#000000" d="M94.0229,-88C102.0647,-88 110.8772,-88 118.9909,-88"/>
<polygon fill="#000000" stroke="#000000" points="119.1312,-91.5001 129.1312,-88 119.1311,-84.5001 119.1312,-91.5001"/>
</g>
<!-- b -->
<g id="node8" class="node">
<title>b</title>
<polygon fill="transparent" stroke="transparent" points="93.6,-52 39.6,-52 39.6,-16 93.6,-16 93.6,-52"/>
<text text-anchor="middle" x="66.6" y="-30.6" font-family="monospace" font-size="13.00" fill="#000000">b</text>
</g>
<!-- b&#45;&gt;3 -->
<g id="edge2" class="edge">
<title>b&#45;&gt;3</title>
<path fill="none" stroke="#000000" d="M94.0229,-34C102.0647,-34 110.8772,-34 118.9909,-34"/>
<polygon fill="#000000" stroke="#000000" points="119.1312,-37.5001 129.1312,-34 119.1311,-30.5001 119.1312,-37.5001"/>
</g>
<!-- y -->
<g id="node9" class="node">
<title>y</title>
<polygon fill="transparent" stroke="transparent" points="263.6,-75 209.6,-75 209.6,-39 263.6,-39 263.6,-75"/>
<text text-anchor="middle" x="236.6" y="-53.6" font-family="monospace" font-size="13.00" fill="#000000">y</text>
</g>
<!-- y&#45;&gt;5 -->
<g id="edge4" class="edge">
<title>y&#45;&gt;5</title>
<path fill="none" stroke="#000000" d="M264.0229,-57C272.0647,-57 280.8772,-57 288.9909,-57"/>
<polygon fill="#000000" stroke="#000000" points="289.1312,-60.5001 299.1312,-57 289.1311,-53.5001 289.1312,-60.5001"/>
</g>
<!-- E -->
<g id="node10" class="node">
<title>E</title>
<ellipse fill="#ffffff" stroke="#000000" cx="1.8" cy="-88" rx="1.8" ry="1.8"/>
</g>
<!-- E&#45;&gt;a -->
<g id="edge6" class="edge">
<title>E&#45;&gt;a</title>
<path fill="none" stroke="#000000" d="M3.6695,-88C7.7685,-88 18.0715,-88 29.1814,-88"/>
<polygon fill="#000000" stroke="#000000" points="21.6001,-91.5004 31.6,-88 21.5999,-84.5004 21.6001,-91.5004"/>
</g>
</g>
</svg>
