<?xml version="1.0" encoding="UTF-8" standalone="no"?>
<!DOCTYPE svg PUBLIC "-//W3C//DTD SVG 1.1//EN"
 "http://www.w3.org/Graphics/SVG/1.1/DTD/svg11.dtd">
<!-- Generated by graphviz version 2.42.4 (0)
 -->
<!-- Pages: 1 -->
<svg width="378pt" height="176pt"
 viewBox="0.00 0.00 378.00 176.00" xmlns="http://www.w3.org/2000/svg" xmlns:xlink="http://www.w3.org/1999/xlink">
<g id="graph0" class="graph" transform="scale(1 1) rotate(0) translate(4 172)">
<g id="clust1" class="cluster">
<title>cluster0</title>
<polygon fill="white" stroke="black" points="163,-56 163,-160 306,-160 306,-56 163,-56"/>
<text text-anchor="start" x="171" y="-145.8" font-family="Lato" font-size="14.00">Marco global de </text>
<text text-anchor="start" x="273" y="-145.8" font-family="monospace" font-size="14.00">dos</text>
</g>
<g id="clust2" class="cluster">
<title>cluster1</title>
<polygon fill="white" stroke="black" points="0,-8 0,-71 143,-71 143,-8 0,-8"/>
<text text-anchor="start" x="8" y="-56.8" font-family="Lato" font-size="14.00">Marco global de </text>
<text text-anchor="start" x="110" y="-56.8" font-family="monospace" font-size="14.00">uno</text>
</g>
<!-- 7 -->
<g id="node1" class="node">
<title>7</title>
<ellipse fill="white" stroke="black" cx="234" cy="-28" rx="18" ry="18"/>
<text text-anchor="middle" x="234" y="-24.6" font-family="monospace" font-size="13.00">7</text>
</g>
<!-- 5 -->
<g id="node2" class="node">
<title>5</title>
<ellipse fill="white" stroke="black" cx="352" cy="-70" rx="18" ry="18"/>
<text text-anchor="middle" x="352" y="-66.6" font-family="monospace" font-size="13.00">5</text>
</g>
<!-- 9 -->
<g id="node3" class="node">
<title>9</title>
<ellipse fill="white" stroke="black" cx="352" cy="-124" rx="18" ry="18"/>
<text text-anchor="middle" x="352" y="-120.6" font-family="monospace" font-size="13.00">9</text>
</g>
<!-- x -->
<g id="node4" class="node">
<title>x</title>
<polygon fill="white" stroke="black" points="53,-17 53,-39 89,-39 89,-17 53,-17"/>
<text text-anchor="middle" x="62" y="-24.6" font-family="monospace" font-size="13.00">x</text>
<polyline fill="none" stroke="black" points="71,-17 71,-39 "/>
<text text-anchor="middle" x="80" y="-24.6" font-family="monospace" font-size="13.00">⬤</text>
</g>
<!-- x&#45;&gt;7 -->
<g id="edge1" class="edge">
<title>x:f1&#45;&gt;7</title>
<path fill="none" stroke="black" d="M90,-28C130.29,-28 176.96,-28 205.73,-28"/>
<polygon fill="black" stroke="black" points="205.83,-31.5 215.83,-28 205.83,-24.5 205.83,-31.5"/>
</g>
<!-- xl -->
<g id="node5" class="node">
<title>xl</title>
<polygon fill="white" stroke="black" points="216,-106 216,-128 252,-128 252,-106 216,-106"/>
<text text-anchor="middle" x="225" y="-113.6" font-family="monospace" font-size="13.00">x</text>
<polyline fill="none" stroke="black" points="234,-106 234,-128 "/>
<text text-anchor="middle" x="243" y="-113.6" font-family="monospace" font-size="13.00">⬤</text>
</g>
<!-- xl&#45;&gt;9 -->
<g id="edge2" class="edge">
<title>xl:f1&#45;&gt;9</title>
<path fill="none" stroke="black" d="M253,-117C277.03,-117 304.3,-119.12 323.96,-121.03"/>
<polygon fill="black" stroke="black" points="323.73,-124.52 334.03,-122.05 324.44,-117.56 323.73,-124.52"/>
</g>
<!-- y -->
<g id="node6" class="node">
<title>y</title>
<polygon fill="white" stroke="black" points="216,-65 216,-87 252,-87 252,-65 216,-65"/>
<text text-anchor="middle" x="225" y="-72.6" font-family="monospace" font-size="13.00">y</text>
<polyline fill="none" stroke="black" points="234,-65 234,-87 "/>
<text text-anchor="middle" x="243" y="-72.6" font-family="monospace" font-size="13.00">⬤</text>
</g>
<!-- y&#45;&gt;5 -->
<g id="edge3" class="edge">
<title>y:f1&#45;&gt;5</title>
<path fill="none" stroke="black" d="M253,-76C277.02,-76 304.29,-74.18 323.95,-72.55"/>
<polygon fill="black" stroke="black" points="324.36,-76.03 334.02,-71.67 323.76,-69.05 324.36,-76.03"/>
</g>
<!-- E -->
<g id="node7" class="node">
<title>E</title>
<polygon fill="transparent" stroke="transparent" points="82,-135 60,-135 60,-99 82,-99 82,-135"/>
<text text-anchor="middle" x="71" y="-113.6" font-family="monospace" font-size="13.00">E</text>
</g>
<!-- E&#45;&gt;xl -->
<g id="edge4" class="edge">
<title>E&#45;&gt;xl</title>
<path fill="none" stroke="black" d="M82.07,-117C96.56,-117 124.64,-117 152.69,-117"/>
<polygon fill="black" stroke="black" points="153,-120.5 163,-117 153,-113.5 153,-120.5"/>
</g>
</g>
</svg>
