<?xml version="1.0" encoding="UTF-8" standalone="no"?>
<!DOCTYPE svg PUBLIC "-//W3C//DTD SVG 1.1//EN"
 "http://www.w3.org/Graphics/SVG/1.1/DTD/svg11.dtd">
<!-- Generated by graphviz version 2.43.0 (0)
 -->
<!-- Title: %3 Pages: 1 -->
<svg width="414pt" height="297pt"
 viewBox="0.00 0.00 413.60 297.00" xmlns="http://www.w3.org/2000/svg" xmlns:xlink="http://www.w3.org/1999/xlink">
<g id="graph0" class="graph" transform="scale(1 1) rotate(0) translate(4 293)">
<title>%3</title>
<g id="clust1" class="cluster">
<title>cluster1</title>
<polygon fill="white" stroke="black" points="31.6,-98 31.6,-281 349.6,-281 349.6,-98 31.6,-98"/>
<text text-anchor="middle" x="190.6" y="-265.8" font-family="Lato" font-size="14.00">Marco global de uno</text>
</g>
<g id="clust2" class="cluster">
<title>cluster0</title>
<polygon fill="white" stroke="black" points="201.6,-121 201.6,-250 341.6,-250 341.6,-121 201.6,-121"/>
<text text-anchor="middle" x="271.6" y="-234.8" font-family="Lato" font-size="14.00">Marco global de dos</text>
</g>
<!-- 5 -->
<g id="node1" class="node">
<title>5</title>
<ellipse fill="white" stroke="black" cx="387.6" cy="-147" rx="18" ry="18"/>
<text text-anchor="middle" x="387.6" y="-143.6" font-family="monospace" font-size="13.00">5</text>
</g>
<!-- 9 -->
<g id="node2" class="node">
<title>9</title>
<ellipse fill="white" stroke="black" cx="387.6" cy="-201" rx="18" ry="18"/>
<text text-anchor="middle" x="387.6" y="-197.6" font-family="monospace" font-size="13.00">9</text>
</g>
<!-- 4 -->
<g id="node3" class="node">
<title>4</title>
<ellipse fill="white" stroke="black" cx="147.6" cy="-72" rx="18" ry="18"/>
<text text-anchor="middle" x="147.6" y="-68.6" font-family="monospace" font-size="13.00">4</text>
</g>
<!-- 3 -->
<g id="node4" class="node">
<title>3</title>
<ellipse fill="white" stroke="black" cx="147.6" cy="-18" rx="18" ry="18"/>
<text text-anchor="middle" x="147.6" y="-14.6" font-family="monospace" font-size="13.00">3</text>
</g>
<!-- dos -->
<g id="node5" class="node">
<title>dos</title>
<polygon fill="transparent" stroke="transparent" points="93.6,-250 39.6,-250 39.6,-214 93.6,-214 93.6,-250"/>
<text text-anchor="middle" x="66.6" y="-228.6" font-family="monospace" font-size="13.00">dos</text>
</g>
<!-- x -->
<g id="node8" class="node">
<title>x</title>
<polygon fill="transparent" stroke="transparent" points="298.6,-219 244.6,-219 244.6,-183 298.6,-183 298.6,-219"/>
<text text-anchor="middle" x="271.6" y="-197.6" font-family="monospace" font-size="13.00">x</text>
</g>
<!-- dos&#45;&gt;x -->
<g id="edge1" class="edge">
<title>dos&#45;&gt;x</title>
<path fill="none" stroke="black" d="M93.72,-228.01C118.43,-224.24 156.77,-218.38 191.46,-213.09"/>
<polygon fill="black" stroke="black" points="192.25,-216.51 201.6,-211.54 191.19,-209.59 192.25,-216.51"/>
</g>
<!-- a -->
<g id="node6" class="node">
<title>a</title>
<polygon fill="transparent" stroke="transparent" points="93.6,-196 39.6,-196 39.6,-160 93.6,-160 93.6,-196"/>
<text text-anchor="middle" x="66.6" y="-174.6" font-family="monospace" font-size="13.00">a</text>
</g>
<!-- a&#45;&gt;4 -->
<g id="edge2" class="edge">
<title>a&#45;&gt;4</title>
<path fill="none" stroke="black" d="M86.02,-159.86C88.66,-156.98 91.27,-153.97 93.6,-151 112.09,-127.42 112.42,-118.55 129.6,-94 129.66,-93.92 129.72,-93.83 129.78,-93.75"/>
<polygon fill="black" stroke="black" points="132.5,-95.95 135.61,-85.82 126.86,-91.8 132.5,-95.95"/>
</g>
<!-- b -->
<g id="node7" class="node">
<title>b</title>
<polygon fill="transparent" stroke="transparent" points="93.6,-142 39.6,-142 39.6,-106 93.6,-106 93.6,-142"/>
<text text-anchor="middle" x="66.6" y="-120.6" font-family="monospace" font-size="13.00">b</text>
</g>
<!-- b&#45;&gt;3 -->
<g id="edge3" class="edge">
<title>b&#45;&gt;3</title>
<path fill="none" stroke="black" d="M81.36,-105.54C94.85,-87.43 115.45,-59.8 129.88,-40.44"/>
<polygon fill="black" stroke="black" points="132.86,-42.3 136.03,-32.19 127.25,-38.11 132.86,-42.3"/>
</g>
<!-- x&#45;&gt;9 -->
<g id="edge4" class="edge">
<title>x&#45;&gt;9</title>
<path fill="none" stroke="black" d="M298.75,-201C316.89,-201 340.98,-201 359.35,-201"/>
<polygon fill="black" stroke="black" points="359.41,-204.5 369.41,-201 359.41,-197.5 359.41,-204.5"/>
</g>
<!-- y -->
<g id="node9" class="node">
<title>y</title>
<polygon fill="transparent" stroke="transparent" points="298.6,-165 244.6,-165 244.6,-129 298.6,-129 298.6,-165"/>
<text text-anchor="middle" x="271.6" y="-143.6" font-family="monospace" font-size="13.00">y</text>
</g>
<!-- y&#45;&gt;5 -->
<g id="edge5" class="edge">
<title>y&#45;&gt;5</title>
<path fill="none" stroke="black" d="M298.75,-147C316.89,-147 340.98,-147 359.35,-147"/>
<polygon fill="black" stroke="black" points="359.41,-150.5 369.41,-147 359.41,-143.5 359.41,-150.5"/>
</g>
<!-- E -->
<g id="node10" class="node">
<title>E</title>
<ellipse fill="white" stroke="black" cx="1.8" cy="-178" rx="1.8" ry="1.8"/>
</g>
<!-- E&#45;&gt;a -->
<g id="edge6" class="edge">
<title>E&#45;&gt;a</title>
<path fill="none" stroke="black" d="M3.89,-178C7.24,-178 17.86,-178 29.37,-178"/>
<polygon fill="black" stroke="black" points="21.6,-181.5 31.6,-178 21.6,-174.5 21.6,-181.5"/>
</g>
</g>
</svg>
