<?xml version="1.0" encoding="UTF-8" standalone="no"?>
<!DOCTYPE svg PUBLIC "-//W3C//DTD SVG 1.1//EN"
 "http://www.w3.org/Graphics/SVG/1.1/DTD/svg11.dtd">
<!-- Generated by graphviz version 2.43.0 (0)
 -->
<!-- Title: %3 Pages: 1 -->
<svg width="360pt" height="207pt"
 viewBox="0.00 0.00 359.60 207.00" xmlns="http://www.w3.org/2000/svg" xmlns:xlink="http://www.w3.org/1999/xlink">
<g id="graph0" class="graph" transform="scale(1 1) rotate(0) translate(4 203)">
<title>%3</title>
<g id="clust1" class="cluster">
<title>cluster1</title>
<polygon fill="white" stroke="black" points="31.6,-8 31.6,-191 343.6,-191 343.6,-8 31.6,-8"/>
<text text-anchor="middle" x="187.6" y="-175.8" font-family="Lato" font-size="14.00">Marco global de uno</text>
</g>
<g id="clust2" class="cluster">
<title>cluster0</title>
<polygon fill="white" stroke="black" points="193.6,-31 193.6,-160 335.6,-160 335.6,-31 193.6,-31"/>
<text text-anchor="middle" x="264.6" y="-144.8" font-family="Lato" font-size="14.00">Marco global de dos</text>
</g>
<!-- 5 -->
<g id="node1" class="node">
<title>5</title>
<ellipse fill="white" stroke="black" cx="309.6" cy="-57" rx="18" ry="18"/>
<text text-anchor="middle" x="309.6" y="-53.6" font-family="monospace" font-size="13.00">5</text>
</g>
<!-- 9 -->
<g id="node2" class="node">
<title>9</title>
<ellipse fill="white" stroke="black" cx="309.6" cy="-111" rx="18" ry="18"/>
<text text-anchor="middle" x="309.6" y="-107.6" font-family="monospace" font-size="13.00">9</text>
</g>
<!-- 4 -->
<g id="node3" class="node">
<title>4</title>
<ellipse fill="white" stroke="black" cx="147.6" cy="-88" rx="18" ry="18"/>
<text text-anchor="middle" x="147.6" y="-84.6" font-family="monospace" font-size="13.00">4</text>
</g>
<!-- 3 -->
<g id="node4" class="node">
<title>3</title>
<ellipse fill="white" stroke="black" cx="147.6" cy="-34" rx="18" ry="18"/>
<text text-anchor="middle" x="147.6" y="-30.6" font-family="monospace" font-size="13.00">3</text>
</g>
<!-- x -->
<g id="node5" class="node">
<title>x</title>
<polygon fill="transparent" stroke="transparent" points="255.6,-129 201.6,-129 201.6,-93 255.6,-93 255.6,-129"/>
<text text-anchor="middle" x="228.6" y="-107.6" font-family="monospace" font-size="13.00">x</text>
</g>
<!-- x&#45;&gt;9 -->
<g id="edge3" class="edge">
<title>x&#45;&gt;9</title>
<path fill="none" stroke="black" d="M255.91,-111C264.02,-111 272.97,-111 281.16,-111"/>
<polygon fill="black" stroke="black" points="281.35,-114.5 291.35,-111 281.35,-107.5 281.35,-114.5"/>
</g>
<!-- dos -->
<g id="node6" class="node">
<title>dos</title>
<polygon fill="transparent" stroke="transparent" points="93.6,-160 39.6,-160 39.6,-124 93.6,-124 93.6,-160"/>
<text text-anchor="middle" x="66.6" y="-138.6" font-family="monospace" font-size="13.00">dos</text>
</g>
<!-- dos&#45;&gt;x -->
<g id="edge5" class="edge">
<title>dos&#45;&gt;x</title>
<path fill="none" stroke="black" d="M93.66,-136.95C120.28,-131.79 161.8,-123.75 191.56,-117.98"/>
<polygon fill="black" stroke="black" points="185.97,-124.39 193.6,-117.05 183.05,-118.03 185.97,-124.39"/>
</g>
<!-- a -->
<g id="node7" class="node">
<title>a</title>
<polygon fill="transparent" stroke="transparent" points="93.6,-106 39.6,-106 39.6,-70 93.6,-70 93.6,-106"/>
<text text-anchor="middle" x="66.6" y="-84.6" font-family="monospace" font-size="13.00">a</text>
</g>
<!-- a&#45;&gt;4 -->
<g id="edge1" class="edge">
<title>a&#45;&gt;4</title>
<path fill="none" stroke="black" d="M93.91,-88C102.02,-88 110.97,-88 119.16,-88"/>
<polygon fill="black" stroke="black" points="119.35,-91.5 129.35,-88 119.35,-84.5 119.35,-91.5"/>
</g>
<!-- b -->
<g id="node8" class="node">
<title>b</title>
<polygon fill="transparent" stroke="transparent" points="93.6,-52 39.6,-52 39.6,-16 93.6,-16 93.6,-52"/>
<text text-anchor="middle" x="66.6" y="-30.6" font-family="monospace" font-size="13.00">b</text>
</g>
<!-- b&#45;&gt;3 -->
<g id="edge2" class="edge">
<title>b&#45;&gt;3</title>
<path fill="none" stroke="black" d="M93.91,-34C102.02,-34 110.97,-34 119.16,-34"/>
<polygon fill="black" stroke="black" points="119.35,-37.5 129.35,-34 119.35,-30.5 119.35,-37.5"/>
</g>
<!-- y -->
<g id="node9" class="node">
<title>y</title>
<polygon fill="transparent" stroke="transparent" points="255.6,-75 201.6,-75 201.6,-39 255.6,-39 255.6,-75"/>
<text text-anchor="middle" x="228.6" y="-53.6" font-family="monospace" font-size="13.00">y</text>
</g>
<!-- y&#45;&gt;5 -->
<g id="edge4" class="edge">
<title>y&#45;&gt;5</title>
<path fill="none" stroke="black" d="M255.91,-57C264.02,-57 272.97,-57 281.16,-57"/>
<polygon fill="black" stroke="black" points="281.35,-60.5 291.35,-57 281.35,-53.5 281.35,-60.5"/>
</g>
<!-- E -->
<g id="node10" class="node">
<title>E</title>
<ellipse fill="white" stroke="black" cx="1.8" cy="-88" rx="1.8" ry="1.8"/>
</g>
<!-- E&#45;&gt;a -->
<g id="edge6" class="edge">
<title>E&#45;&gt;a</title>
<path fill="none" stroke="black" d="M3.89,-88C7.24,-88 17.86,-88 29.37,-88"/>
<polygon fill="black" stroke="black" points="21.6,-91.5 31.6,-88 21.6,-84.5 21.6,-91.5"/>
</g>
</g>
</svg>
