<?xml version="1.0" encoding="UTF-8" standalone="no"?>
<!DOCTYPE svg PUBLIC "-//W3C//DTD SVG 1.1//EN"
 "http://www.w3.org/Graphics/SVG/1.1/DTD/svg11.dtd">
<!-- Generated by graphviz version 14.1.1 (0)
 -->
<!-- Pages: 1 -->
<svg width="264pt" height="88pt"
 viewBox="0.00 0.00 264.00 88.00" xmlns="http://www.w3.org/2000/svg" xmlns:xlink="http://www.w3.org/1999/xlink">
<g id="graph0" class="graph" transform="scale(1 1) rotate(0) translate(4 84)">
<g id="clust1" class="cluster">
<title>cluster0</title>
<polygon fill="white" stroke="black" points="49.9,-8 49.9,-72 191.9,-72 191.9,-8 49.9,-8"/>
<text xml:space="preserve" text-anchor="start" x="57.9" y="-55.7" font-family="Lato" font-size="14.00">Marco global de </text>
<text xml:space="preserve" text-anchor="start" x="159.15" y="-55.7" font-family="monospace" font-size="14.00">uno</text>
</g>
<!-- 7 -->
<g id="node1" class="node">
<title>7</title>
<ellipse fill="white" stroke="black" cx="237.9" cy="-27" rx="18" ry="18"/>
<text xml:space="preserve" text-anchor="middle" x="237.9" y="-22.9" font-family="monospace" font-size="13.00">7</text>
</g>
<!-- x -->
<g id="node2" class="node">
<title>x</title>
<polygon fill="white" stroke="black" points="102.4,-16.2 102.4,-37.8 138.4,-37.8 138.4,-16.2 102.4,-16.2"/>
<text xml:space="preserve" text-anchor="middle" x="111.65" y="-22.45" font-family="monospace" font-size="13.00">x</text>
<polyline fill="none" stroke="black" points="120.9,-15.3 120.9,-37.8"/>
<text xml:space="preserve" text-anchor="middle" x="129.65" y="-20.95" font-family="monospace" font-size="13.00">⬤</text>
</g>
<!-- x&#45;&gt;7 -->
<g id="edge1" class="edge">
<title>x:f1&#45;&gt;7</title>
<path fill="none" stroke="black" d="M139.4,-26.55C162.56,-26.55 188.81,-26.68 208.24,-26.8"/>
<polygon fill="black" stroke="black" points="208.1,-30.3 218.13,-26.86 208.15,-23.3 208.1,-30.3"/>
</g>
<!-- E -->
<g id="node3" class="node">
<title>E</title>
<polygon fill="none" stroke="none" points="21.9,-45 0,-45 0,-9 21.9,-9 21.9,-45"/>
<text xml:space="preserve" text-anchor="middle" x="10.95" y="-22.9" font-family="monospace" font-size="13.00">E</text>
</g>
<!-- E&#45;&gt;x -->
<g id="edge2" class="edge">
<title>E&#45;&gt;x</title>
<path fill="none" stroke="black" d="M21.87,-27C26.34,-27 32.07,-27 38.5,-27"/>
<polygon fill="black" stroke="black" points="38.39,-30.5 48.39,-27 38.39,-23.5 38.39,-30.5"/>
</g>
</g>
</svg>
