<?xml version="1.0" encoding="UTF-8" standalone="no"?>
<!DOCTYPE svg PUBLIC "-//W3C//DTD SVG 1.1//EN"
 "http://www.w3.org/Graphics/SVG/1.1/DTD/svg11.dtd">
<!-- Generated by graphviz version 14.1.2 (0)
 -->
<!-- Pages: 1 -->
<svg width="376pt" height="176pt"
 viewBox="0.00 0.00 376.00 176.00" xmlns="http://www.w3.org/2000/svg" xmlns:xlink="http://www.w3.org/1999/xlink">
<g id="graph0" class="graph" transform="scale(1 1) rotate(0) translate(4 172)">
<g id="clust1" class="cluster">
<title>cluster0</title>
<polygon fill="white" stroke="black" points="162,-55 162,-160 304,-160 304,-55 162,-55"/>
<text xml:space="preserve" text-anchor="start" x="170" y="-143.7" font-family="Lato" font-size="14.00">Marco global de </text>
<text xml:space="preserve" text-anchor="start" x="271.25" y="-143.7" font-family="monospace" font-size="14.00">dos</text>
</g>
<g id="clust2" class="cluster">
<title>cluster1</title>
<polygon fill="white" stroke="black" points="0,-8 0,-72 142,-72 142,-8 0,-8"/>
<text xml:space="preserve" text-anchor="start" x="8" y="-55.7" font-family="Lato" font-size="14.00">Marco global de </text>
<text xml:space="preserve" text-anchor="start" x="109.25" y="-55.7" font-family="monospace" font-size="14.00">uno</text>
</g>
<!-- 7 -->
<g id="node1" class="node">
<title>7</title>
<ellipse fill="white" stroke="black" cx="232.5" cy="-27" rx="18" ry="18"/>
<text xml:space="preserve" text-anchor="middle" x="232.5" y="-22.9" font-family="monospace" font-size="13.00">7</text>
</g>
<!-- 5 -->
<g id="node2" class="node">
<title>5</title>
<ellipse fill="white" stroke="black" cx="350" cy="-67" rx="18" ry="18"/>
<text xml:space="preserve" text-anchor="middle" x="350" y="-62.9" font-family="monospace" font-size="13.00">5</text>
</g>
<!-- 9 -->
<g id="node3" class="node">
<title>9</title>
<ellipse fill="white" stroke="black" cx="350" cy="-121" rx="18" ry="18"/>
<text xml:space="preserve" text-anchor="middle" x="350" y="-116.9" font-family="monospace" font-size="13.00">9</text>
</g>
<!-- x -->
<g id="node4" class="node">
<title>x</title>
<polygon fill="white" stroke="black" points="52.5,-16.2 52.5,-37.8 88.5,-37.8 88.5,-16.2 52.5,-16.2"/>
<text xml:space="preserve" text-anchor="middle" x="61.75" y="-22.45" font-family="monospace" font-size="13.00">x</text>
<polyline fill="none" stroke="black" points="71,-15.3 71,-37.8"/>
<text xml:space="preserve" text-anchor="middle" x="79.75" y="-20.95" font-family="monospace" font-size="13.00">⬤</text>
</g>
<!-- x&#45;&gt;7 -->
<g id="edge1" class="edge">
<title>x:f1&#45;&gt;7</title>
<path fill="none" stroke="black" d="M89.5,-26.55C128.76,-26.55 174.12,-26.72 202.81,-26.86"/>
<polygon fill="black" stroke="black" points="202.48,-30.35 212.5,-26.9 202.51,-23.35 202.48,-30.35"/>
</g>
<!-- xl -->
<g id="node5" class="node">
<title>xl</title>
<polygon fill="white" stroke="black" points="214.5,-104.2 214.5,-125.8 250.5,-125.8 250.5,-104.2 214.5,-104.2"/>
<text xml:space="preserve" text-anchor="middle" x="223.75" y="-110.45" font-family="monospace" font-size="13.00">x</text>
<polyline fill="none" stroke="black" points="233,-103.3 233,-125.8"/>
<text xml:space="preserve" text-anchor="middle" x="241.75" y="-108.95" font-family="monospace" font-size="13.00">⬤</text>
</g>
<!-- xl&#45;&gt;9 -->
<g id="edge2" class="edge">
<title>xl:f1&#45;&gt;9</title>
<path fill="none" stroke="black" d="M251.5,-114.55C274.71,-114.55 300.96,-116.39 320.37,-118.11"/>
<polygon fill="black" stroke="black" points="319.97,-121.59 330.26,-119.03 320.62,-114.62 319.97,-121.59"/>
</g>
<!-- y -->
<g id="node6" class="node">
<title>y</title>
<polygon fill="white" stroke="black" points="214.5,-63.2 214.5,-84.8 250.5,-84.8 250.5,-63.2 214.5,-63.2"/>
<text xml:space="preserve" text-anchor="middle" x="223.75" y="-69.45" font-family="monospace" font-size="13.00">y</text>
<polyline fill="none" stroke="black" points="233,-62.3 233,-84.8"/>
<text xml:space="preserve" text-anchor="middle" x="241.75" y="-67.95" font-family="monospace" font-size="13.00">⬤</text>
</g>
<!-- y&#45;&gt;5 -->
<g id="edge3" class="edge">
<title>y:f1&#45;&gt;5</title>
<path fill="none" stroke="black" d="M251.5,-73.55C274.71,-73.55 300.96,-71.68 320.37,-69.94"/>
<polygon fill="black" stroke="black" points="320.63,-73.43 330.26,-69 319.97,-66.46 320.63,-73.43"/>
</g>
<!-- E -->
<g id="node7" class="node">
<title>E</title>
<polygon fill="none" stroke="none" points="81.45,-133 59.55,-133 59.55,-97 81.45,-97 81.45,-133"/>
<text xml:space="preserve" text-anchor="middle" x="70.5" y="-110.9" font-family="monospace" font-size="13.00">E</text>
</g>
<!-- E&#45;&gt;xl -->
<g id="edge4" class="edge">
<title>E&#45;&gt;xl</title>
<path fill="none" stroke="black" d="M81.03,-115C95.09,-115 122.74,-115 150.54,-115"/>
<polygon fill="black" stroke="black" points="150.49,-118.5 160.49,-115 150.49,-111.5 150.49,-118.5"/>
</g>
</g>
</svg>
