<?xml version="1.0" encoding="UTF-8" standalone="no"?>
<!DOCTYPE svg PUBLIC "-//W3C//DTD SVG 1.1//EN"
 "http://www.w3.org/Graphics/SVG/1.1/DTD/svg11.dtd">
<!-- Generated by graphviz version 2.43.0 (0)
 -->
<!-- Title: %3 Pages: 1 -->
<svg width="522pt" height="226pt"
 viewBox="0.00 0.00 521.60 226.00" xmlns="http://www.w3.org/2000/svg" xmlns:xlink="http://www.w3.org/1999/xlink">
<g id="graph0" class="graph" transform="scale(1 1) rotate(0) translate(4 222)">
<title>%3</title>
<g id="clust1" class="cluster">
<title>cluster2</title>
<path fill="#f2f2f2" stroke="black" d="M247.6,-8C247.6,-8 493.6,-8 493.6,-8 499.6,-8 505.6,-14 505.6,-20 505.6,-20 505.6,-198 505.6,-198 505.6,-204 499.6,-210 493.6,-210 493.6,-210 247.6,-210 247.6,-210 241.6,-210 235.6,-204 235.6,-198 235.6,-198 235.6,-20 235.6,-20 235.6,-14 241.6,-8 247.6,-8"/>
<text text-anchor="middle" x="370.6" y="-194.8" font-family="Lato" font-size="14.00">Montículo</text>
</g>
<g id="clust2" class="cluster">
<title>cluster0</title>
<path fill="white" stroke="black" d="M255.6,-62C255.6,-62 421.6,-62 421.6,-62 427.6,-62 433.6,-68 433.6,-74 433.6,-74 433.6,-167 433.6,-167 433.6,-173 427.6,-179 421.6,-179 421.6,-179 255.6,-179 255.6,-179 249.6,-179 243.6,-173 243.6,-167 243.6,-167 243.6,-74 243.6,-74 243.6,-68 249.6,-62 255.6,-62"/>
<text text-anchor="start" x="295.6" y="-164.8" font-family="Lato" font-size="14.00">Módulo </text>
<text text-anchor="start" x="347.6" y="-164.8" font-family="monospace" font-size="14.00">math</text>
</g>
<g id="clust3" class="cluster">
<title>cluster1</title>
<polygon fill="white" stroke="black" points="31.6,-59 31.6,-163 186.6,-163 186.6,-59 31.6,-59"/>
<text text-anchor="middle" x="109.1" y="-147.8" font-family="Lato" font-size="14.00">Marco global del script</text>
</g>
<!-- gcd -->
<g id="node1" class="node">
<title>gcd</title>
<polygon fill="white" stroke="black" points="307.1,-125 307.1,-147 370.1,-147 370.1,-125 307.1,-125"/>
<text text-anchor="middle" x="326.6" y="-132.6" font-family="monospace" font-size="13.00">gcd</text>
<polyline fill="none" stroke="black" points="346.1,-125 346.1,-147 "/>
<text text-anchor="middle" x="358.1" y="-132.6" font-family="monospace" font-size="13.00">⬤</text>
</g>
<!-- lambda -->
<g id="node5" class="node">
<title>lambda</title>
<ellipse fill="white" stroke="black" cx="479.6" cy="-136" rx="18" ry="18"/>
<text text-anchor="middle" x="479.6" y="-132.6" font-family="monospace" font-size="13.00">λ</text>
</g>
<!-- gcd&#45;&gt;lambda -->
<g id="edge3" class="edge">
<title>gcd:f1&#45;&gt;lambda</title>
<path fill="none" stroke="black" d="M371.6,-136C398.77,-136 429.83,-136 451.46,-136"/>
<polygon fill="black" stroke="black" points="451.55,-139.5 461.55,-136 451.55,-132.5 451.55,-139.5"/>
</g>
<!-- math -->
<g id="node2" class="node">
<title>math</title>
<polygon fill="white" stroke="black" points="73.6,-109 73.6,-131 144.6,-131 144.6,-109 73.6,-109"/>
<text text-anchor="middle" x="97.1" y="-116.6" font-family="monospace" font-size="13.00">math</text>
<polyline fill="none" stroke="black" points="120.6,-109 120.6,-131 "/>
<text text-anchor="middle" x="132.6" y="-116.6" font-family="monospace" font-size="13.00">⬤</text>
</g>
<!-- math&#45;&gt;gcd -->
<g id="edge1" class="edge">
<title>math:f1&#45;&gt;gcd</title>
<path fill="none" stroke="black" d="M146.1,-120C174.43,-120 205.05,-121.76 233.3,-124.11"/>
<polygon fill="black" stroke="black" points="233.34,-127.63 243.6,-125.01 233.94,-120.66 233.34,-127.63"/>
</g>
<!-- x -->
<g id="node3" class="node">
<title>x</title>
<polygon fill="white" stroke="black" points="91.1,-68 91.1,-90 127.1,-90 127.1,-68 91.1,-68"/>
<text text-anchor="middle" x="100.1" y="-75.6" font-family="monospace" font-size="13.00">x</text>
<polyline fill="none" stroke="black" points="109.1,-68 109.1,-90 "/>
<text text-anchor="middle" x="118.1" y="-75.6" font-family="monospace" font-size="13.00">⬤</text>
</g>
<!-- 2 -->
<g id="node4" class="node">
<title>2</title>
<ellipse fill="white" stroke="black" cx="338.6" cy="-34" rx="18" ry="18"/>
<text text-anchor="middle" x="338.6" y="-30.6" font-family="monospace" font-size="13.00">2</text>
</g>
<!-- x&#45;&gt;2 -->
<g id="edge2" class="edge">
<title>x:f1&#45;&gt;2</title>
<path fill="none" stroke="black" d="M128.1,-79C146.28,-79 258.91,-52.75 311.1,-40.35"/>
<polygon fill="black" stroke="black" points="312.06,-43.72 320.97,-37.99 310.43,-36.91 312.06,-43.72"/>
</g>
<!-- m -->
<g id="node6" class="node">
<title>m</title>
<polygon fill="transparent" stroke="transparent" points="425.6,-106 251.6,-106 251.6,-70 425.6,-70 425.6,-106"/>
<text text-anchor="middle" x="338.6" y="-84.6" font-family="monospace" font-size="13.00">(más definiciones...)</text>
</g>
<!-- E -->
<g id="node7" class="node">
<title>E</title>
<ellipse fill="white" stroke="black" cx="1.8" cy="-120" rx="1.8" ry="1.8"/>
</g>
<!-- E&#45;&gt;math -->
<g id="edge4" class="edge">
<title>E&#45;&gt;math</title>
<path fill="none" stroke="black" d="M3.98,-120C6.53,-120 13.02,-120 21.58,-120"/>
<polygon fill="black" stroke="black" points="21.6,-123.5 31.6,-120 21.6,-116.5 21.6,-123.5"/>
</g>
</g>
</svg>
