<?xml version="1.0" encoding="UTF-8" standalone="no"?>
<!DOCTYPE svg PUBLIC "-//W3C//DTD SVG 1.1//EN"
 "http://www.w3.org/Graphics/SVG/1.1/DTD/svg11.dtd">
<!-- Generated by graphviz version 2.43.0 (0)
 -->
<!-- Title: %3 Pages: 1 -->
<svg width="426pt" height="177pt"
 viewBox="0.00 0.00 425.60 177.00" xmlns="http://www.w3.org/2000/svg" xmlns:xlink="http://www.w3.org/1999/xlink">
<g id="graph0" class="graph" transform="scale(1 1) rotate(0) translate(4 173)">
<title>%3</title>
<g id="clust1" class="cluster">
<title>cluster0</title>
<path fill="white" stroke="black" d="M276.6,-57C276.6,-57 341.6,-57 341.6,-57 347.6,-57 353.6,-63 353.6,-69 353.6,-69 353.6,-149 353.6,-149 353.6,-155 347.6,-161 341.6,-161 341.6,-161 276.6,-161 276.6,-161 270.6,-161 264.6,-155 264.6,-149 264.6,-149 264.6,-69 264.6,-69 264.6,-63 270.6,-57 276.6,-57"/>
<text text-anchor="middle" x="309.1" y="-145.8" font-family="Lato" font-size="14.00">Módulo dos</text>
</g>
<g id="clust2" class="cluster">
<title>cluster1</title>
<polygon fill="white" stroke="black" points="31.6,-11 31.6,-156 172.6,-156 172.6,-11 31.6,-11"/>
<text text-anchor="middle" x="102.1" y="-140.8" font-family="Lato" font-size="14.00">Marco global de uno</text>
</g>
<!-- 5 -->
<g id="node1" class="node">
<title>5</title>
<ellipse fill="white" stroke="black" cx="399.6" cy="-71" rx="18" ry="18"/>
<text text-anchor="middle" x="399.6" y="-67.6" font-family="monospace" font-size="13.00">5</text>
</g>
<!-- 9 -->
<g id="node2" class="node">
<title>9</title>
<ellipse fill="white" stroke="black" cx="399.6" cy="-125" rx="18" ry="18"/>
<text text-anchor="middle" x="399.6" y="-121.6" font-family="monospace" font-size="13.00">9</text>
</g>
<!-- 4 -->
<g id="node3" class="node">
<title>4</title>
<ellipse fill="white" stroke="black" cx="218.6" cy="-72" rx="18" ry="18"/>
<text text-anchor="middle" x="218.6" y="-68.6" font-family="monospace" font-size="13.00">4</text>
</g>
<!-- 3 -->
<g id="node4" class="node">
<title>3</title>
<ellipse fill="white" stroke="black" cx="218.6" cy="-18" rx="18" ry="18"/>
<text text-anchor="middle" x="218.6" y="-14.6" font-family="monospace" font-size="13.00">3</text>
</g>
<!-- dos -->
<g id="node5" class="node">
<title>dos</title>
<polygon fill="white" stroke="black" points="70.6,-102 70.6,-124 133.6,-124 133.6,-102 70.6,-102"/>
<text text-anchor="middle" x="90.1" y="-109.6" font-family="monospace" font-size="13.00">dos</text>
<polyline fill="none" stroke="black" points="109.6,-102 109.6,-124 "/>
<text text-anchor="middle" x="121.6" y="-109.6" font-family="monospace" font-size="13.00">⬤</text>
</g>
<!-- x -->
<g id="node6" class="node">
<title>x</title>
<polygon fill="white" stroke="black" points="290.6,-107 290.6,-129 326.6,-129 326.6,-107 290.6,-107"/>
<text text-anchor="middle" x="299.6" y="-114.6" font-family="monospace" font-size="13.00">x</text>
<polyline fill="none" stroke="black" points="308.6,-107 308.6,-129 "/>
<text text-anchor="middle" x="317.6" y="-114.6" font-family="monospace" font-size="13.00">⬤</text>
</g>
<!-- dos&#45;&gt;x -->
<g id="edge1" class="edge">
<title>dos:f1&#45;&gt;x</title>
<path fill="none" stroke="black" d="M135.1,-113C175.1,-113 220.3,-114.36 254.4,-115.66"/>
<polygon fill="black" stroke="black" points="254.48,-119.17 264.6,-116.06 254.75,-112.17 254.48,-119.17"/>
</g>
<!-- x&#45;&gt;9 -->
<g id="edge4" class="edge">
<title>x:f1&#45;&gt;9</title>
<path fill="none" stroke="black" d="M327.6,-118C342.12,-118 358.22,-119.47 371.42,-121.06"/>
<polygon fill="black" stroke="black" points="371.35,-124.58 381.72,-122.39 372.25,-117.64 371.35,-124.58"/>
</g>
<!-- y -->
<g id="node7" class="node">
<title>y</title>
<polygon fill="white" stroke="black" points="290.6,-66 290.6,-88 326.6,-88 326.6,-66 290.6,-66"/>
<text text-anchor="middle" x="299.6" y="-73.6" font-family="monospace" font-size="13.00">y</text>
<polyline fill="none" stroke="black" points="308.6,-66 308.6,-88 "/>
<text text-anchor="middle" x="317.6" y="-73.6" font-family="monospace" font-size="13.00">⬤</text>
</g>
<!-- y&#45;&gt;5 -->
<g id="edge5" class="edge">
<title>y:f1&#45;&gt;5</title>
<path fill="none" stroke="black" d="M327.6,-77C342.1,-77 358.2,-75.74 371.4,-74.38"/>
<polygon fill="black" stroke="black" points="372.15,-77.82 381.71,-73.23 371.38,-70.86 372.15,-77.82"/>
</g>
<!-- a -->
<g id="node8" class="node">
<title>a</title>
<polygon fill="white" stroke="black" points="84.1,-61 84.1,-83 120.1,-83 120.1,-61 84.1,-61"/>
<text text-anchor="middle" x="93.1" y="-68.6" font-family="monospace" font-size="13.00">a</text>
<polyline fill="none" stroke="black" points="102.1,-61 102.1,-83 "/>
<text text-anchor="middle" x="111.1" y="-68.6" font-family="monospace" font-size="13.00">⬤</text>
</g>
<!-- a&#45;&gt;4 -->
<g id="edge2" class="edge">
<title>a:e&#45;&gt;4</title>
<path fill="none" stroke="black" d="M121.1,-72C144.46,-72 170.99,-72 190.32,-72"/>
<polygon fill="black" stroke="black" points="190.52,-75.5 200.52,-72 190.52,-68.5 190.52,-75.5"/>
</g>
<!-- b -->
<g id="node9" class="node">
<title>b</title>
<polygon fill="white" stroke="black" points="84.1,-20 84.1,-42 120.1,-42 120.1,-20 84.1,-20"/>
<text text-anchor="middle" x="93.1" y="-27.6" font-family="monospace" font-size="13.00">b</text>
<polyline fill="none" stroke="black" points="102.1,-20 102.1,-42 "/>
<text text-anchor="middle" x="111.1" y="-27.6" font-family="monospace" font-size="13.00">⬤</text>
</g>
<!-- b&#45;&gt;3 -->
<g id="edge3" class="edge">
<title>b:f1&#45;&gt;3</title>
<path fill="none" stroke="black" d="M121.1,-31C144.92,-31 171.75,-27.06 191.07,-23.52"/>
<polygon fill="black" stroke="black" points="191.8,-26.94 200.96,-21.62 190.48,-20.07 191.8,-26.94"/>
</g>
<!-- E -->
<g id="node10" class="node">
<title>E</title>
<ellipse fill="white" stroke="black" cx="1.8" cy="-72" rx="1.8" ry="1.8"/>
</g>
<!-- E&#45;&gt;a -->
<g id="edge6" class="edge">
<title>E&#45;&gt;a</title>
<path fill="none" stroke="black" d="M3.9,-72C6.41,-72 12.96,-72 21.56,-72"/>
<polygon fill="black" stroke="black" points="21.6,-75.5 31.6,-72 21.6,-68.5 21.6,-75.5"/>
</g>
</g>
</svg>
