<?xml version="1.0" encoding="UTF-8" standalone="no"?>
<!DOCTYPE svg PUBLIC "-//W3C//DTD SVG 1.1//EN"
 "http://www.w3.org/Graphics/SVG/1.1/DTD/svg11.dtd">
<!-- Generated by graphviz version 2.43.0 (0)
 -->
<!-- Title: %3 Pages: 1 -->
<svg width="224pt" height="113pt"
 viewBox="0.00 0.00 224.00 113.00" xmlns="http://www.w3.org/2000/svg" xmlns:xlink="http://www.w3.org/1999/xlink">
<g id="graph0" class="graph" transform="scale(1 1) rotate(0) translate(4 109)">
<title>%3</title>
<!-- z -->
<g id="node1" class="node">
<title>z</title>
<polygon fill="white" stroke="black" points="0,-0.5 0,-22.5 36,-22.5 36,-0.5 0,-0.5"/>
<text text-anchor="middle" x="9" y="-8.1" font-family="monospace" font-size="13.00">z</text>
<polyline fill="none" stroke="black" points="18,-0.5 18,-22.5 "/>
<text text-anchor="middle" x="27" y="-8.1" font-family="monospace" font-size="13.00">⬤</text>
</g>
<!-- t3 -->
<g id="node6" class="node">
<title>t3</title>
<polygon fill="white" stroke="black" points="72,-0.5 72,-22.5 216,-22.5 216,-0.5 72,-0.5"/>
<text text-anchor="middle" x="84" y="-8.1" font-family="monospace" font-size="13.00">1</text>
<polyline fill="none" stroke="black" points="96,-0.5 96,-22.5 "/>
<text text-anchor="middle" x="108" y="-8.1" font-family="monospace" font-size="13.00">2</text>
<polyline fill="none" stroke="black" points="120,-0.5 120,-22.5 "/>
<text text-anchor="middle" x="132" y="-8.1" font-family="monospace" font-size="13.00">3</text>
<polyline fill="none" stroke="black" points="144,-0.5 144,-22.5 "/>
<text text-anchor="middle" x="156" y="-8.1" font-family="monospace" font-size="13.00">4</text>
<polyline fill="none" stroke="black" points="168,-0.5 168,-22.5 "/>
<text text-anchor="middle" x="180" y="-8.1" font-family="monospace" font-size="13.00">5</text>
<polyline fill="none" stroke="black" points="192,-0.5 192,-22.5 "/>
<text text-anchor="middle" x="204" y="-8.1" font-family="monospace" font-size="13.00">6</text>
</g>
<!-- z&#45;&gt;t3 -->
<g id="edge3" class="edge">
<title>z:f1&#45;&gt;t3</title>
<path fill="none" stroke="black" d="M36,-11.5C36,-11.5 46.88,-11.5 61.7,-11.5"/>
<polygon fill="black" stroke="black" points="61.93,-15 71.93,-11.5 61.93,-8 61.93,-15"/>
</g>
<!-- y -->
<g id="node2" class="node">
<title>y</title>
<polygon fill="white" stroke="black" points="0,-41.5 0,-63.5 36,-63.5 36,-41.5 0,-41.5"/>
<text text-anchor="middle" x="9" y="-49.1" font-family="monospace" font-size="13.00">y</text>
<polyline fill="none" stroke="black" points="18,-41.5 18,-63.5 "/>
<text text-anchor="middle" x="27" y="-49.1" font-family="monospace" font-size="13.00">⬤</text>
</g>
<!-- t2 -->
<g id="node5" class="node">
<title>t2</title>
<polygon fill="white" stroke="black" points="108,-41.5 108,-63.5 180,-63.5 180,-41.5 108,-41.5"/>
<text text-anchor="middle" x="120" y="-49.1" font-family="monospace" font-size="13.00">4</text>
<polyline fill="none" stroke="black" points="132,-41.5 132,-63.5 "/>
<text text-anchor="middle" x="144" y="-49.1" font-family="monospace" font-size="13.00">5</text>
<polyline fill="none" stroke="black" points="156,-41.5 156,-63.5 "/>
<text text-anchor="middle" x="168" y="-49.1" font-family="monospace" font-size="13.00">6</text>
</g>
<!-- y&#45;&gt;t2 -->
<g id="edge2" class="edge">
<title>y:f1&#45;&gt;t2</title>
<path fill="none" stroke="black" d="M36,-52.5C36,-52.5 68.61,-52.5 97.83,-52.5"/>
<polygon fill="black" stroke="black" points="97.96,-56 107.96,-52.5 97.96,-49 97.96,-56"/>
</g>
<!-- x -->
<g id="node3" class="node">
<title>x</title>
<polygon fill="white" stroke="black" points="0,-82.5 0,-104.5 36,-104.5 36,-82.5 0,-82.5"/>
<text text-anchor="middle" x="9" y="-90.1" font-family="monospace" font-size="13.00">x</text>
<polyline fill="none" stroke="black" points="18,-82.5 18,-104.5 "/>
<text text-anchor="middle" x="27" y="-90.1" font-family="monospace" font-size="13.00">⬤</text>
</g>
<!-- t1 -->
<g id="node4" class="node">
<title>t1</title>
<polygon fill="white" stroke="black" points="108,-82.5 108,-104.5 180,-104.5 180,-82.5 108,-82.5"/>
<text text-anchor="middle" x="120" y="-90.1" font-family="monospace" font-size="13.00">1</text>
<polyline fill="none" stroke="black" points="132,-82.5 132,-104.5 "/>
<text text-anchor="middle" x="144" y="-90.1" font-family="monospace" font-size="13.00">2</text>
<polyline fill="none" stroke="black" points="156,-82.5 156,-104.5 "/>
<text text-anchor="middle" x="168" y="-90.1" font-family="monospace" font-size="13.00">3</text>
</g>
<!-- x&#45;&gt;t1 -->
<g id="edge1" class="edge">
<title>x:f1&#45;&gt;t1</title>
<path fill="none" stroke="black" d="M36,-93.5C36,-93.5 68.61,-93.5 97.83,-93.5"/>
<polygon fill="black" stroke="black" points="97.96,-97 107.96,-93.5 97.96,-90 97.96,-97"/>
</g>
</g>
</svg>
