<?xml version="1.0" encoding="UTF-8" standalone="no"?>
<!DOCTYPE svg PUBLIC "-//W3C//DTD SVG 1.1//EN"
 "http://www.w3.org/Graphics/SVG/1.1/DTD/svg11.dtd">
<!-- Generated by graphviz version 14.1.1 (0)
 -->
<!-- Pages: 1 -->
<svg width="152pt" height="98pt"
 viewBox="0.00 0.00 152.00 98.00" xmlns="http://www.w3.org/2000/svg" xmlns:xlink="http://www.w3.org/1999/xlink">
<g id="graph0" class="graph" transform="scale(1 1) rotate(0) translate(4 94)">
<!-- x -->
<g id="node1" class="node">
<title>x</title>
<polygon fill="white" stroke="black" points="0,-54.2 0,-75.8 36,-75.8 36,-54.2 0,-54.2"/>
<text xml:space="preserve" text-anchor="middle" x="9.25" y="-60.45" font-family="monospace" font-size="13.00">x</text>
<polyline fill="none" stroke="black" points="18.5,-53.3 18.5,-75.8"/>
<text xml:space="preserve" text-anchor="middle" x="27.25" y="-58.95" font-family="monospace" font-size="13.00">⬤</text>
</g>
<!-- hola -->
<g id="node3" class="node">
<title>hola</title>
<ellipse fill="white" stroke="black" cx="108" cy="-72" rx="36" ry="18"/>
<text xml:space="preserve" text-anchor="middle" x="108" y="-67.9" font-family="monospace" font-size="13.00">&#39;hola&#39;</text>
</g>
<!-- x&#45;&gt;hola -->
<g id="edge1" class="edge">
<title>x:f1&#45;&gt;hola</title>
<path fill="none" stroke="grey" stroke-dasharray="5,2" d="M36,-64.55C36,-64.55 47.4,-65.75 61.06,-67.18"/>
<polygon fill="grey" stroke="grey" points="60.52,-70.64 70.83,-68.2 61.25,-63.68 60.52,-70.64"/>
</g>
<!-- pepe -->
<g id="node4" class="node">
<title>pepe</title>
<ellipse fill="white" stroke="black" cx="108" cy="-18" rx="36" ry="18"/>
<text xml:space="preserve" text-anchor="middle" x="108" y="-13.9" font-family="monospace" font-size="13.00">&#39;pepe&#39;</text>
</g>
<!-- x&#45;&gt;pepe -->
<g id="edge2" class="edge">
<title>x:f1&#45;&gt;pepe</title>
<path fill="none" stroke="black" d="M36,-64.55C36,-64.55 56.81,-50.91 75.89,-38.39"/>
<polygon fill="black" stroke="black" points="77.6,-41.46 84.05,-33.05 73.76,-35.61 77.6,-41.46"/>
</g>
<!-- y -->
<g id="node2" class="node">
<title>y</title>
<polygon fill="white" stroke="black" points="0,-7.2 0,-28.8 36,-28.8 36,-7.2 0,-7.2"/>
<text xml:space="preserve" text-anchor="middle" x="9.25" y="-13.45" font-family="monospace" font-size="13.00">y</text>
<polyline fill="none" stroke="black" points="18.5,-6.3 18.5,-28.8"/>
<text xml:space="preserve" text-anchor="middle" x="27.25" y="-11.95" font-family="monospace" font-size="13.00">⬤</text>
</g>
<!-- y&#45;&gt;pepe -->
<g id="edge3" class="edge">
<title>y:f1&#45;&gt;pepe</title>
<path fill="none" stroke="black" d="M36,-17.55C36,-17.55 47.22,-17.62 60.75,-17.71"/>
<polygon fill="black" stroke="black" points="60.38,-21.2 70.4,-17.77 60.42,-14.2 60.38,-21.2"/>
</g>
</g>
</svg>
