<?xml version="1.0" encoding="UTF-8" standalone="no"?>
<!DOCTYPE svg PUBLIC "-//W3C//DTD SVG 1.1//EN"
 "http://www.w3.org/Graphics/SVG/1.1/DTD/svg11.dtd">
<!-- Generated by graphviz version 14.1.1 (0)
 -->
<!-- Pages: 1 -->
<svg width="221pt" height="78pt"
 viewBox="0.00 0.00 221.00 78.00" xmlns="http://www.w3.org/2000/svg" xmlns:xlink="http://www.w3.org/1999/xlink">
<g id="graph0" class="graph" transform="scale(1 1) rotate(0) translate(4 73.5)">
<!-- z -->
<g id="node1" class="node">
<title>z</title>
<polygon fill="white" stroke="black" points="0,-23.95 0,-45.55 36,-45.55 36,-23.95 0,-23.95"/>
<text xml:space="preserve" text-anchor="middle" x="9.25" y="-30.2" font-family="monospace" font-size="13.00">z</text>
<polyline fill="none" stroke="black" points="18.5,-23.05 18.5,-45.55"/>
<text xml:space="preserve" text-anchor="middle" x="27.25" y="-28.7" font-family="monospace" font-size="13.00">⬤</text>
</g>
<!-- t3 -->
<g id="node2" class="node">
<title>t3</title>
<polygon fill="white" stroke="black" points="72,-44.5 72,-69 213,-69 213,-44.5 72,-44.5"/>
<text xml:space="preserve" text-anchor="middle" x="83.75" y="-52.65" font-family="monospace" font-size="13.00">1</text>
<polyline fill="none" stroke="black" points="95.5,-44.5 95.5,-69"/>
<text xml:space="preserve" text-anchor="middle" x="107.25" y="-52.65" font-family="monospace" font-size="13.00">2</text>
<polyline fill="none" stroke="black" points="119,-44.5 119,-69"/>
<text xml:space="preserve" text-anchor="middle" x="130.75" y="-52.65" font-family="monospace" font-size="13.00">3</text>
<polyline fill="none" stroke="black" points="142.5,-44.5 142.5,-69"/>
<text xml:space="preserve" text-anchor="middle" x="154.25" y="-52.65" font-family="monospace" font-size="13.00">4</text>
<polyline fill="none" stroke="black" points="166,-44.5 166,-69"/>
<text xml:space="preserve" text-anchor="middle" x="177.75" y="-52.65" font-family="monospace" font-size="13.00">5</text>
<polyline fill="none" stroke="black" points="189.5,-44.5 189.5,-69"/>
<text xml:space="preserve" text-anchor="middle" x="201.25" y="-52.65" font-family="monospace" font-size="13.00">6</text>
</g>
<!-- z&#45;&gt;t3 -->
<g id="edge1" class="edge">
<title>z:f1&#45;&gt;t3:w</title>
<path fill="none" stroke="grey" stroke-dasharray="5,2" d="M36,-34.3C36,-34.3 51.88,-44.2 62.54,-50.85"/>
<polygon fill="grey" stroke="grey" points="60.38,-53.63 70.72,-55.95 64.08,-47.69 60.38,-53.63"/>
</g>
<!-- t4 -->
<g id="node3" class="node">
<title>t4</title>
<polygon fill="white" stroke="black" points="107.25,-0.5 107.25,-25 177.75,-25 177.75,-0.5 107.25,-0.5"/>
<text xml:space="preserve" text-anchor="middle" x="119" y="-8.65" font-family="monospace" font-size="13.00">7</text>
<polyline fill="none" stroke="black" points="130.75,-0.5 130.75,-25"/>
<text xml:space="preserve" text-anchor="middle" x="142.5" y="-8.65" font-family="monospace" font-size="13.00">8</text>
<polyline fill="none" stroke="black" points="154.25,-0.5 154.25,-25"/>
<text xml:space="preserve" text-anchor="middle" x="166" y="-8.65" font-family="monospace" font-size="13.00">9</text>
</g>
<!-- z&#45;&gt;t4 -->
<g id="edge2" class="edge">
<title>z:f1&#45;&gt;t4</title>
<path fill="none" stroke="black" d="M36,-34.3C36,-34.3 67.32,-27.9 95.83,-22.08"/>
<polygon fill="black" stroke="black" points="96.38,-25.54 105.47,-20.11 94.97,-18.68 96.38,-25.54"/>
</g>
</g>
</svg>
