<?xml version="1.0" encoding="UTF-8" standalone="no"?>
<!DOCTYPE svg PUBLIC "-//W3C//DTD SVG 1.1//EN"
 "http://www.w3.org/Graphics/SVG/1.1/DTD/svg11.dtd">
<!-- Generated by graphviz version 2.40.1 (20161225.0304)
 -->
<!-- Title: %3 Pages: 1 -->
<svg width="576pt" height="248pt"
 viewBox="0.00 0.00 576.00 247.58" xmlns="http://www.w3.org/2000/svg" xmlns:xlink="http://www.w3.org/1999/xlink">
<g id="graph0" class="graph" transform="scale(2.5263 2.5263) rotate(0) translate(4 94)">
<title>%3</title>
<!-- x -->
<g id="node1" class="node">
<title>x</title>
<polygon fill="transparent" stroke="transparent" points="54,-90 0,-90 0,-54 54,-54 54,-90"/>
<text text-anchor="middle" x="27" y="-68.6" font-family="monospace" font-size="13.00" fill="#000000">x</text>
</g>
<!-- v1 -->
<g id="node6" class="node">
<title>v1</title>
<polygon fill="#ffffff" stroke="#000000" points="112,-83 90,-83 90,-61 112,-61 112,-83"/>
<text text-anchor="middle" x="101" y="-68.6" font-family="monospace" font-size="13.00" fill="#000000">⬤</text>
</g>
<!-- x&#45;&gt;v1 -->
<g id="edge4" class="edge">
<title>x&#45;&gt;v1</title>
<path fill="none" stroke="#000000" d="M45.2921,-72C55.5842,-72 68.4969,-72 79.2984,-72"/>
<polygon fill="#000000" stroke="#000000" points="79.5921,-75.5001 89.5921,-72 79.5921,-68.5001 79.5921,-75.5001"/>
</g>
<!-- y -->
<g id="node2" class="node">
<title>y</title>
<polygon fill="transparent" stroke="transparent" points="54,-36 0,-36 0,0 54,0 54,-36"/>
<text text-anchor="middle" x="27" y="-14.6" font-family="monospace" font-size="13.00" fill="#000000">y</text>
</g>
<!-- v2 -->
<g id="node5" class="node">
<title>v2</title>
<polygon fill="#ffffff" stroke="#000000" points="112,-29 90,-29 90,-7 112,-7 112,-29"/>
<text text-anchor="middle" x="101" y="-14.6" font-family="monospace" font-size="13.00" fill="#000000">⬤</text>
</g>
<!-- y&#45;&gt;v2 -->
<g id="edge2" class="edge">
<title>y&#45;&gt;v2</title>
<path fill="none" stroke="#000000" d="M45.2921,-18C55.5842,-18 68.4969,-18 79.2984,-18"/>
<polygon fill="#000000" stroke="#000000" points="79.5921,-21.5001 89.5921,-18 79.5921,-14.5001 79.5921,-21.5001"/>
</g>
<!-- pepe -->
<g id="node3" class="node">
<title>pepe</title>
<ellipse fill="#ffffff" stroke="#000000" cx="184" cy="-18" rx="36" ry="18"/>
<text text-anchor="middle" x="184" y="-14.6" font-family="monospace" font-size="13.00" fill="#000000">&#39;pepe&#39;</text>
</g>
<!-- hola -->
<g id="node4" class="node">
<title>hola</title>
<ellipse fill="#ffffff" stroke="#000000" cx="184" cy="-72" rx="36" ry="18"/>
<text text-anchor="middle" x="184" y="-68.6" font-family="monospace" font-size="13.00" fill="#000000">&#39;hola&#39;</text>
</g>
<!-- v2&#45;&gt;pepe -->
<g id="edge3" class="edge">
<title>v2&#45;&gt;pepe</title>
<path fill="none" stroke="#000000" d="M112.1937,-18C119.0247,-18 128.2643,-18 137.8391,-18"/>
<polygon fill="#000000" stroke="#000000" points="137.8516,-21.5001 147.8515,-18 137.8515,-14.5001 137.8516,-21.5001"/>
</g>
<!-- v1&#45;&gt;pepe -->
<g id="edge5" class="edge">
<title>v1&#45;&gt;pepe</title>
<path fill="none" stroke="#000000" d="M112.1937,-64.7173C122.6738,-57.899 138.8235,-47.3919 153.1549,-38.0679"/>
<polygon fill="#000000" stroke="#000000" points="155.3028,-40.846 161.7763,-32.4588 151.4854,-34.9785 155.3028,-40.846"/>
</g>
<!-- v1&#45;&gt;hola -->
<g id="edge1" class="edge">
<title>v1&#45;&gt;hola</title>
<path fill="none" stroke="#c0c0c0" stroke-dasharray="5,2" d="M112.1937,-72C119.0247,-72 128.2643,-72 137.8391,-72"/>
<polygon fill="#c0c0c0" stroke="#c0c0c0" points="137.8516,-75.5001 147.8515,-72 137.8515,-68.5001 137.8516,-75.5001"/>
</g>
</g>
</svg>
