<?xml version="1.0" encoding="UTF-8" standalone="no"?>
<!DOCTYPE svg PUBLIC "-//W3C//DTD SVG 1.1//EN"
 "http://www.w3.org/Graphics/SVG/1.1/DTD/svg11.dtd">
<!-- Generated by graphviz version 2.43.0 (0)
 -->
<!-- Title: %3 Pages: 1 -->
<svg width="180pt" height="98pt"
 viewBox="0.00 0.00 180.00 98.00" xmlns="http://www.w3.org/2000/svg" xmlns:xlink="http://www.w3.org/1999/xlink">
<g id="graph0" class="graph" transform="scale(1 1) rotate(0) translate(4 94)">
<title>%3</title>
<!-- x -->
<g id="node1" class="node">
<title>x</title>
<polygon fill="transparent" stroke="transparent" points="54,-90 0,-90 0,-54 54,-54 54,-90"/>
<text text-anchor="middle" x="27" y="-68.6" font-family="monospace" font-size="13.00">x</text>
</g>
<!-- v1 -->
<g id="node4" class="node">
<title>v1</title>
<polygon fill="white" stroke="black" points="112,-79 90,-79 90,-57 112,-57 112,-79"/>
<text text-anchor="middle" x="101" y="-64.6" font-family="monospace" font-size="13.00">⬤</text>
</g>
<!-- x&#45;&gt;v1 -->
<g id="edge1" class="edge">
<title>x&#45;&gt;v1</title>
<path fill="none" stroke="black" d="M45.06,-71.05C55.43,-70.48 68.73,-69.74 79.65,-69.13"/>
<polygon fill="black" stroke="black" points="80.15,-72.61 89.94,-68.56 79.76,-65.62 80.15,-72.61"/>
</g>
<!-- y -->
<g id="node2" class="node">
<title>y</title>
<polygon fill="transparent" stroke="transparent" points="54,-36 0,-36 0,0 54,0 54,-36"/>
<text text-anchor="middle" x="27" y="-14.6" font-family="monospace" font-size="13.00">y</text>
</g>
<!-- v2 -->
<g id="node5" class="node">
<title>v2</title>
<polygon fill="white" stroke="black" points="112,-36 90,-36 90,-14 112,-14 112,-36"/>
<text text-anchor="middle" x="101" y="-21.6" font-family="monospace" font-size="13.00">⬤</text>
</g>
<!-- y&#45;&gt;v2 -->
<g id="edge3" class="edge">
<title>y&#45;&gt;v2</title>
<path fill="none" stroke="black" d="M45.06,-19.66C55.43,-20.67 68.73,-21.96 79.65,-23.02"/>
<polygon fill="black" stroke="black" points="79.65,-26.54 89.94,-24.02 80.33,-19.57 79.65,-26.54"/>
</g>
<!-- 5 -->
<g id="node3" class="node">
<title>5</title>
<ellipse fill="white" stroke="black" cx="160" cy="-45" rx="11" ry="11"/>
<text text-anchor="middle" x="160" y="-41.6" font-family="monospace" font-size="13.00">5</text>
</g>
<!-- v1&#45;&gt;5 -->
<g id="edge2" class="edge">
<title>v1&#45;&gt;5</title>
<path fill="none" stroke="black" d="M112.19,-63.89C120,-60.74 130.98,-56.3 140.35,-52.52"/>
<polygon fill="black" stroke="black" points="141.69,-55.76 149.65,-48.77 139.07,-49.27 141.69,-55.76"/>
</g>
<!-- v2&#45;&gt;5 -->
<g id="edge4" class="edge">
<title>v2&#45;&gt;5</title>
<path fill="none" stroke="black" d="M112.19,-28.58C119.82,-31.25 130.49,-35 139.72,-38.23"/>
<polygon fill="black" stroke="black" points="138.68,-41.58 149.28,-41.59 141,-34.98 138.68,-41.58"/>
</g>
</g>
</svg>
