<?xml version="1.0" encoding="UTF-8" standalone="no"?>
<!DOCTYPE svg PUBLIC "-//W3C//DTD SVG 1.1//EN"
 "http://www.w3.org/Graphics/SVG/1.1/DTD/svg11.dtd">
<!-- Generated by graphviz version 14.0.5 (0)
 -->
<!-- Pages: 1 -->
<svg width="217pt" height="76pt"
 viewBox="0.00 0.00 217.00 76.00" xmlns="http://www.w3.org/2000/svg" xmlns:xlink="http://www.w3.org/1999/xlink">
<g id="graph0" class="graph" transform="scale(1 1) rotate(0) translate(4 71.6)">
<!-- z -->
<g id="node1" class="node">
<title>z</title>
<polygon fill="white" stroke="black" points="0,-22.5 0,-44.1 36,-44.1 36,-22.5 0,-22.5"/>
<text xml:space="preserve" text-anchor="middle" x="9" y="-28.75" font-family="monospace" font-size="13.00">z</text>
<polyline fill="none" stroke="black" points="18,-22.5 18,-44.1"/>
<text xml:space="preserve" text-anchor="middle" x="27" y="-28.75" font-family="monospace" font-size="13.00">⬤</text>
</g>
<!-- t3 -->
<g id="node2" class="node">
<title>t3</title>
<polygon fill="white" stroke="black" points="72,-43.5 72,-67.1 209,-67.1 209,-43.5 72,-43.5"/>
<text xml:space="preserve" text-anchor="middle" x="83" y="-50.75" font-family="monospace" font-size="13.00">1</text>
<polyline fill="none" stroke="black" points="94,-43.5 94,-67.1"/>
<text xml:space="preserve" text-anchor="middle" x="105.5" y="-50.75" font-family="monospace" font-size="13.00">2</text>
<polyline fill="none" stroke="black" points="117,-43.5 117,-67.1"/>
<text xml:space="preserve" text-anchor="middle" x="128.5" y="-50.75" font-family="monospace" font-size="13.00">3</text>
<polyline fill="none" stroke="black" points="140,-43.5 140,-67.1"/>
<text xml:space="preserve" text-anchor="middle" x="151.5" y="-50.75" font-family="monospace" font-size="13.00">4</text>
<polyline fill="none" stroke="black" points="163,-43.5 163,-67.1"/>
<text xml:space="preserve" text-anchor="middle" x="174.5" y="-50.75" font-family="monospace" font-size="13.00">5</text>
<polyline fill="none" stroke="black" points="186,-43.5 186,-67.1"/>
<text xml:space="preserve" text-anchor="middle" x="197.5" y="-50.75" font-family="monospace" font-size="13.00">6</text>
</g>
<!-- z&#45;&gt;t3 -->
<g id="edge1" class="edge">
<title>z:f1&#45;&gt;t3:w</title>
<path fill="none" stroke="grey" stroke-dasharray="5,2" d="M36,-33.3C36,-33.3 51.88,-43 62.54,-49.52"/>
<polygon fill="grey" stroke="grey" points="60.35,-52.28 70.71,-54.51 64,-46.31 60.35,-52.28"/>
</g>
<!-- t4 -->
<g id="node3" class="node">
<title>t4</title>
<polygon fill="white" stroke="black" points="106,-0.5 106,-24.1 175,-24.1 175,-0.5 106,-0.5"/>
<text xml:space="preserve" text-anchor="middle" x="117.5" y="-7.75" font-family="monospace" font-size="13.00">7</text>
<polyline fill="none" stroke="black" points="129,-0.5 129,-24.1"/>
<text xml:space="preserve" text-anchor="middle" x="140.5" y="-7.75" font-family="monospace" font-size="13.00">8</text>
<polyline fill="none" stroke="black" points="152,-0.5 152,-24.1"/>
<text xml:space="preserve" text-anchor="middle" x="163.5" y="-7.75" font-family="monospace" font-size="13.00">9</text>
</g>
<!-- z&#45;&gt;t4 -->
<g id="edge2" class="edge">
<title>z:f1&#45;&gt;t4</title>
<path fill="none" stroke="black" d="M36,-33.3C36,-33.3 66.73,-27.07 94.7,-21.39"/>
<polygon fill="black" stroke="black" points="95.02,-24.9 104.13,-19.48 93.63,-18.04 95.02,-24.9"/>
</g>
</g>
</svg>
