<?xml version="1.0" encoding="UTF-8" standalone="no"?>
<!DOCTYPE svg PUBLIC "-//W3C//DTD SVG 1.1//EN"
 "http://www.w3.org/Graphics/SVG/1.1/DTD/svg11.dtd">
<!-- Generated by graphviz version 2.43.0 (0)
 -->
<!-- Title: %3 Pages: 1 -->
<svg width="104pt" height="72pt"
 viewBox="0.00 0.00 104.00 72.00" xmlns="http://www.w3.org/2000/svg" xmlns:xlink="http://www.w3.org/1999/xlink">
<g id="graph0" class="graph" transform="scale(1 1) rotate(0) translate(4 68)">
<title>%3</title>
<!-- y -->
<g id="node1" class="node">
<title>y</title>
<polygon fill="white" stroke="black" points="0,-0.5 0,-22.5 36,-22.5 36,-0.5 0,-0.5"/>
<text text-anchor="middle" x="9" y="-8.1" font-family="monospace" font-size="13.00">y</text>
<polyline fill="none" stroke="black" points="18,-0.5 18,-22.5 "/>
<text text-anchor="middle" x="27" y="-8.1" font-family="monospace" font-size="13.00">⬤</text>
</g>
<!-- 5 -->
<g id="node4" class="node">
<title>5</title>
<ellipse fill="white" stroke="black" cx="84" cy="-11.5" rx="11" ry="11"/>
<text text-anchor="middle" x="84" y="-8.1" font-family="monospace" font-size="13.00">5</text>
</g>
<!-- y&#45;&gt;5 -->
<g id="edge2" class="edge">
<title>y:f1&#45;&gt;5</title>
<path fill="none" stroke="black" d="M36,-11.5C44.75,-11.5 54.42,-11.5 62.7,-11.5"/>
<polygon fill="black" stroke="black" points="62.91,-15 72.91,-11.5 62.91,-8 62.91,-15"/>
</g>
<!-- x -->
<g id="node2" class="node">
<title>x</title>
<polygon fill="white" stroke="black" points="0,-41.5 0,-63.5 36,-63.5 36,-41.5 0,-41.5"/>
<text text-anchor="middle" x="9" y="-49.1" font-family="monospace" font-size="13.00">x</text>
<polyline fill="none" stroke="black" points="18,-41.5 18,-63.5 "/>
<text text-anchor="middle" x="27" y="-49.1" font-family="monospace" font-size="13.00">⬤</text>
</g>
<!-- 4 -->
<g id="node3" class="node">
<title>4</title>
<ellipse fill="white" stroke="black" cx="84" cy="-52.5" rx="11" ry="11"/>
<text text-anchor="middle" x="84" y="-49.1" font-family="monospace" font-size="13.00">4</text>
</g>
<!-- x&#45;&gt;4 -->
<g id="edge1" class="edge">
<title>x:f1&#45;&gt;4</title>
<path fill="none" stroke="black" d="M36,-52.5C44.75,-52.5 54.42,-52.5 62.7,-52.5"/>
<polygon fill="black" stroke="black" points="62.91,-56 72.91,-52.5 62.91,-49 62.91,-56"/>
</g>
</g>
</svg>
