<?xml version="1.0" encoding="UTF-8" standalone="no"?>
<!DOCTYPE svg PUBLIC "-//W3C//DTD SVG 1.1//EN"
 "http://www.w3.org/Graphics/SVG/1.1/DTD/svg11.dtd">
<!-- Generated by graphviz version 14.1.1 (0)
 -->
<!-- Pages: 1 -->
<svg width="210pt" height="98pt"
 viewBox="0.00 0.00 210.00 98.00" xmlns="http://www.w3.org/2000/svg" xmlns:xlink="http://www.w3.org/1999/xlink">
<g id="graph0" class="graph" transform="scale(1 1) rotate(0) translate(4 94)">
<!-- x -->
<g id="node1" class="node">
<title>x</title>
<polygon fill="white" stroke="black" points="0,-34.2 0,-55.8 36,-55.8 36,-34.2 0,-34.2"/>
<text xml:space="preserve" text-anchor="middle" x="9.25" y="-40.45" font-family="monospace" font-size="13.00">x</text>
<polyline fill="none" stroke="black" points="18.5,-33.3 18.5,-55.8"/>
<text xml:space="preserve" text-anchor="middle" x="27.25" y="-38.95" font-family="monospace" font-size="13.00">⬤</text>
</g>
<!-- hola -->
<g id="node2" class="node">
<title>hola</title>
<ellipse fill="white" stroke="black" cx="136.8" cy="-72" rx="28.8" ry="18"/>
<text xml:space="preserve" text-anchor="middle" x="136.8" y="-67.9" font-family="monospace" font-size="13.00">&#39;hola&#39;</text>
</g>
<!-- x&#45;&gt;hola -->
<g id="edge1" class="edge">
<title>x:f1&#45;&gt;hola</title>
<path fill="none" stroke="grey" stroke-dasharray="5,2" d="M36,-44.55C36,-44.55 70.5,-54.04 98.93,-61.86"/>
<polygon fill="grey" stroke="grey" points="97.81,-65.18 108.38,-64.46 99.67,-58.43 97.81,-65.18"/>
</g>
<!-- holamanolo -->
<g id="node3" class="node">
<title>holamanolo</title>
<ellipse fill="white" stroke="black" cx="136.8" cy="-18" rx="64.8" ry="18"/>
<text xml:space="preserve" text-anchor="middle" x="136.8" y="-13.9" font-family="monospace" font-size="13.00">&#39;hola manolo&#39;</text>
</g>
<!-- x&#45;&gt;holamanolo -->
<g id="edge2" class="edge">
<title>x:f1&#45;&gt;holamanolo</title>
<path fill="none" stroke="black" d="M36,-44.55C36,-44.55 55.89,-39.26 77.92,-33.4"/>
<polygon fill="black" stroke="black" points="78.6,-36.84 87.36,-30.89 76.8,-30.08 78.6,-36.84"/>
</g>
</g>
</svg>
