<?xml version="1.0" encoding="UTF-8" standalone="no"?>
<!DOCTYPE svg PUBLIC "-//W3C//DTD SVG 1.1//EN"
 "http://www.w3.org/Graphics/SVG/1.1/DTD/svg11.dtd">
<!-- Generated by graphviz version 2.40.1 (20161225.0304)
 -->
<!-- Title: %3 Pages: 1 -->
<svg width="576pt" height="314pt"
 viewBox="0.00 0.00 576.00 313.60" xmlns="http://www.w3.org/2000/svg" xmlns:xlink="http://www.w3.org/1999/xlink">
<g id="graph0" class="graph" transform="scale(3.2 3.2) rotate(0) translate(4 94)">
<title>%3</title>
<!-- x -->
<g id="node1" class="node">
<title>x</title>
<polygon fill="transparent" stroke="transparent" points="54,-90 0,-90 0,-54 54,-54 54,-90"/>
<text text-anchor="middle" x="27" y="-68.6" font-family="monospace" font-size="13.00" fill="#000000">x</text>
</g>
<!-- v1 -->
<g id="node4" class="node">
<title>v1</title>
<polygon fill="#ffffff" stroke="#000000" points="112,-79 90,-79 90,-57 112,-57 112,-79"/>
<text text-anchor="middle" x="101" y="-64.6" font-family="monospace" font-size="13.00" fill="#000000">⬤</text>
</g>
<!-- x&#45;&gt;v1 -->
<g id="edge1" class="edge">
<title>x&#45;&gt;v1</title>
<path fill="none" stroke="#000000" d="M45.2921,-71.0112C55.5842,-70.4549 68.4969,-69.7569 79.2984,-69.1731"/>
<polygon fill="#000000" stroke="#000000" points="79.7956,-72.6514 89.5921,-68.6166 79.4177,-65.6616 79.7956,-72.6514"/>
</g>
<!-- y -->
<g id="node2" class="node">
<title>y</title>
<polygon fill="transparent" stroke="transparent" points="54,-36 0,-36 0,0 54,0 54,-36"/>
<text text-anchor="middle" x="27" y="-14.6" font-family="monospace" font-size="13.00" fill="#000000">y</text>
</g>
<!-- v2 -->
<g id="node5" class="node">
<title>v2</title>
<polygon fill="#ffffff" stroke="#000000" points="112,-36 90,-36 90,-14 112,-14 112,-36"/>
<text text-anchor="middle" x="101" y="-21.6" font-family="monospace" font-size="13.00" fill="#000000">⬤</text>
</g>
<!-- y&#45;&gt;v2 -->
<g id="edge3" class="edge">
<title>y&#45;&gt;v2</title>
<path fill="none" stroke="#000000" d="M45.2921,-19.7303C55.5842,-20.7039 68.4969,-21.9254 79.2984,-22.9471"/>
<polygon fill="#000000" stroke="#000000" points="79.3069,-26.4635 89.5921,-23.9209 79.9662,-19.4946 79.3069,-26.4635"/>
</g>
<!-- 5 -->
<g id="node3" class="node">
<title>5</title>
<ellipse fill="#ffffff" stroke="#000000" cx="160" cy="-45" rx="11" ry="11"/>
<text text-anchor="middle" x="160" y="-41.6" font-family="monospace" font-size="13.00" fill="#000000">5</text>
</g>
<!-- v1&#45;&gt;5 -->
<g id="edge2" class="edge">
<title>v1&#45;&gt;5</title>
<path fill="none" stroke="#000000" d="M112.0974,-63.6739C120.0399,-60.5776 130.9457,-56.3263 140.3452,-52.6621"/>
<polygon fill="#000000" stroke="#000000" points="141.6961,-55.892 149.7419,-48.9989 139.1536,-49.3701 141.6961,-55.892"/>
</g>
<!-- v2&#45;&gt;5 -->
<g id="edge4" class="edge">
<title>v2&#45;&gt;5</title>
<path fill="none" stroke="#000000" d="M112.0974,-28.7618C119.8584,-31.3927 130.4488,-34.9826 139.6985,-38.1181"/>
<polygon fill="#000000" stroke="#000000" points="138.7554,-41.494 149.3497,-41.3897 141.0027,-34.8645 138.7554,-41.494"/>
</g>
</g>
</svg>
