<?xml version="1.0" encoding="UTF-8" standalone="no"?>
<!DOCTYPE svg PUBLIC "-//W3C//DTD SVG 1.1//EN"
 "http://www.w3.org/Graphics/SVG/1.1/DTD/svg11.dtd">
<!-- Generated by graphviz version 2.40.1 (20161225.0304)
 -->
<!-- Title: %3 Pages: 1 -->
<svg width="576pt" height="291pt"
 viewBox="0.00 0.00 576.00 290.97" xmlns="http://www.w3.org/2000/svg" xmlns:xlink="http://www.w3.org/1999/xlink">
<g id="graph0" class="graph" transform="scale(2.9691 2.9691) rotate(0) translate(4 94)">
<title>%3</title>
<!-- y -->
<g id="node1" class="node">
<title>y</title>
<polygon fill="transparent" stroke="transparent" points="54,-36 0,-36 0,0 54,0 54,-36"/>
<text text-anchor="middle" x="27" y="-14.6" font-family="monospace" font-size="13.00" fill="#000000">y</text>
</g>
<!-- v2 -->
<g id="node6" class="node">
<title>v2</title>
<polygon fill="#ffffff" stroke="#000000" points="126,-36 90,-36 90,0 126,0 126,-36"/>
<text text-anchor="middle" x="108" y="-14.6" font-family="monospace" font-size="13.00" fill="#000000">⬤</text>
</g>
<!-- y&#45;&gt;v2 -->
<g id="edge3" class="edge">
<title>y&#45;&gt;v2</title>
<path fill="none" stroke="#000000" d="M45.3802,-18C55.4966,-18 68.2691,-18 79.6363,-18"/>
<polygon fill="#000000" stroke="#000000" points="79.9716,-21.5001 89.9716,-18 79.9716,-14.5001 79.9716,-21.5001"/>
</g>
<!-- x -->
<g id="node2" class="node">
<title>x</title>
<polygon fill="transparent" stroke="transparent" points="54,-90 0,-90 0,-54 54,-54 54,-90"/>
<text text-anchor="middle" x="27" y="-68.6" font-family="monospace" font-size="13.00" fill="#000000">x</text>
</g>
<!-- v1 -->
<g id="node5" class="node">
<title>v1</title>
<polygon fill="#ffffff" stroke="#000000" points="126,-90 90,-90 90,-54 126,-54 126,-90"/>
<text text-anchor="middle" x="108" y="-68.6" font-family="monospace" font-size="13.00" fill="#000000">⬤</text>
</g>
<!-- x&#45;&gt;v1 -->
<g id="edge1" class="edge">
<title>x&#45;&gt;v1</title>
<path fill="none" stroke="#000000" d="M45.3802,-72C55.4966,-72 68.2691,-72 79.6363,-72"/>
<polygon fill="#000000" stroke="#000000" points="79.9716,-75.5001 89.9716,-72 79.9716,-68.5001 79.9716,-75.5001"/>
</g>
<!-- 4 -->
<g id="node3" class="node">
<title>4</title>
<ellipse fill="#ffffff" stroke="#000000" cx="174" cy="-72" rx="11" ry="11"/>
<text text-anchor="middle" x="174" y="-68.6" font-family="monospace" font-size="13.00" fill="#000000">4</text>
</g>
<!-- 5 -->
<g id="node4" class="node">
<title>5</title>
<ellipse fill="#ffffff" stroke="#000000" cx="174" cy="-18" rx="11" ry="11"/>
<text text-anchor="middle" x="174" y="-14.6" font-family="monospace" font-size="13.00" fill="#000000">5</text>
</g>
<!-- v1&#45;&gt;4 -->
<g id="edge2" class="edge">
<title>v1&#45;&gt;4</title>
<path fill="none" stroke="#000000" d="M126.0348,-72C134.3003,-72 144.1549,-72 152.7756,-72"/>
<polygon fill="#000000" stroke="#000000" points="152.8227,-75.5001 162.8227,-72 152.8226,-68.5001 152.8227,-75.5001"/>
</g>
<!-- v2&#45;&gt;5 -->
<g id="edge4" class="edge">
<title>v2&#45;&gt;5</title>
<path fill="none" stroke="#000000" d="M126.0348,-18C134.3003,-18 144.1549,-18 152.7756,-18"/>
<polygon fill="#000000" stroke="#000000" points="152.8227,-21.5001 162.8227,-18 152.8226,-14.5001 152.8227,-21.5001"/>
</g>
</g>
</svg>
