<?xml version="1.0" encoding="UTF-8" standalone="no"?>
<!DOCTYPE svg PUBLIC "-//W3C//DTD SVG 1.1//EN"
 "http://www.w3.org/Graphics/SVG/1.1/DTD/svg11.dtd">
<!-- Generated by graphviz version 14.0.5 (0)
 -->
<!-- Pages: 1 -->
<svg width="217pt" height="119pt"
 viewBox="0.00 0.00 217.00 119.00" xmlns="http://www.w3.org/2000/svg" xmlns:xlink="http://www.w3.org/1999/xlink">
<g id="graph0" class="graph" transform="scale(1 1) rotate(0) translate(4 114.6)">
<!-- z -->
<g id="node1" class="node">
<title>z</title>
<polygon fill="white" stroke="black" points="0,-1.5 0,-23.1 36,-23.1 36,-1.5 0,-1.5"/>
<text xml:space="preserve" text-anchor="middle" x="9" y="-7.75" font-family="monospace" font-size="13.00">z</text>
<polyline fill="none" stroke="black" points="18,-1.5 18,-23.1"/>
<text xml:space="preserve" text-anchor="middle" x="27" y="-7.75" font-family="monospace" font-size="13.00">⬤</text>
</g>
<!-- t3 -->
<g id="node6" class="node">
<title>t3</title>
<polygon fill="white" stroke="black" points="72,-0.5 72,-24.1 209,-24.1 209,-0.5 72,-0.5"/>
<text xml:space="preserve" text-anchor="middle" x="83" y="-7.75" font-family="monospace" font-size="13.00">1</text>
<polyline fill="none" stroke="black" points="94,-0.5 94,-24.1"/>
<text xml:space="preserve" text-anchor="middle" x="105.5" y="-7.75" font-family="monospace" font-size="13.00">2</text>
<polyline fill="none" stroke="black" points="117,-0.5 117,-24.1"/>
<text xml:space="preserve" text-anchor="middle" x="128.5" y="-7.75" font-family="monospace" font-size="13.00">3</text>
<polyline fill="none" stroke="black" points="140,-0.5 140,-24.1"/>
<text xml:space="preserve" text-anchor="middle" x="151.5" y="-7.75" font-family="monospace" font-size="13.00">4</text>
<polyline fill="none" stroke="black" points="163,-0.5 163,-24.1"/>
<text xml:space="preserve" text-anchor="middle" x="174.5" y="-7.75" font-family="monospace" font-size="13.00">5</text>
<polyline fill="none" stroke="black" points="186,-0.5 186,-24.1"/>
<text xml:space="preserve" text-anchor="middle" x="197.5" y="-7.75" font-family="monospace" font-size="13.00">6</text>
</g>
<!-- z&#45;&gt;t3 -->
<g id="edge3" class="edge">
<title>z:f1&#45;&gt;t3</title>
<path fill="none" stroke="black" d="M36,-12.3C36,-12.3 46.23,-12.3 60.26,-12.3"/>
<polygon fill="black" stroke="black" points="60.11,-15.8 70.11,-12.3 60.11,-8.8 60.11,-15.8"/>
</g>
<!-- y -->
<g id="node2" class="node">
<title>y</title>
<polygon fill="white" stroke="black" points="0,-44.5 0,-66.1 36,-66.1 36,-44.5 0,-44.5"/>
<text xml:space="preserve" text-anchor="middle" x="9" y="-50.75" font-family="monospace" font-size="13.00">y</text>
<polyline fill="none" stroke="black" points="18,-44.5 18,-66.1"/>
<text xml:space="preserve" text-anchor="middle" x="27" y="-50.75" font-family="monospace" font-size="13.00">⬤</text>
</g>
<!-- t2 -->
<g id="node5" class="node">
<title>t2</title>
<polygon fill="white" stroke="black" points="106,-43.5 106,-67.1 175,-67.1 175,-43.5 106,-43.5"/>
<text xml:space="preserve" text-anchor="middle" x="117.5" y="-50.75" font-family="monospace" font-size="13.00">4</text>
<polyline fill="none" stroke="black" points="129,-43.5 129,-67.1"/>
<text xml:space="preserve" text-anchor="middle" x="140.5" y="-50.75" font-family="monospace" font-size="13.00">5</text>
<polyline fill="none" stroke="black" points="152,-43.5 152,-67.1"/>
<text xml:space="preserve" text-anchor="middle" x="163.5" y="-50.75" font-family="monospace" font-size="13.00">6</text>
</g>
<!-- y&#45;&gt;t2 -->
<g id="edge2" class="edge">
<title>y:f1&#45;&gt;t2</title>
<path fill="none" stroke="black" d="M36,-55.3C36,-55.3 66.46,-55.3 94.32,-55.3"/>
<polygon fill="black" stroke="black" points="94.1,-58.8 104.1,-55.3 94.1,-51.8 94.1,-58.8"/>
</g>
<!-- x -->
<g id="node3" class="node">
<title>x</title>
<polygon fill="white" stroke="black" points="0,-87.5 0,-109.1 36,-109.1 36,-87.5 0,-87.5"/>
<text xml:space="preserve" text-anchor="middle" x="9" y="-93.75" font-family="monospace" font-size="13.00">x</text>
<polyline fill="none" stroke="black" points="18,-87.5 18,-109.1"/>
<text xml:space="preserve" text-anchor="middle" x="27" y="-93.75" font-family="monospace" font-size="13.00">⬤</text>
</g>
<!-- t1 -->
<g id="node4" class="node">
<title>t1</title>
<polygon fill="white" stroke="black" points="106.5,-86.5 106.5,-110.1 174.5,-110.1 174.5,-86.5 106.5,-86.5"/>
<text xml:space="preserve" text-anchor="middle" x="117.5" y="-93.75" font-family="monospace" font-size="13.00">1</text>
<polyline fill="none" stroke="black" points="128.5,-86.5 128.5,-110.1"/>
<text xml:space="preserve" text-anchor="middle" x="140" y="-93.75" font-family="monospace" font-size="13.00">2</text>
<polyline fill="none" stroke="black" points="151.5,-86.5 151.5,-110.1"/>
<text xml:space="preserve" text-anchor="middle" x="163" y="-93.75" font-family="monospace" font-size="13.00">3</text>
</g>
<!-- x&#45;&gt;t1 -->
<g id="edge1" class="edge">
<title>x:f1&#45;&gt;t1</title>
<path fill="none" stroke="black" d="M36,-98.3C36,-98.3 66.84,-98.3 94.85,-98.3"/>
<polygon fill="black" stroke="black" points="94.67,-101.8 104.67,-98.3 94.67,-94.8 94.67,-101.8"/>
</g>
</g>
</svg>
