<?xml version="1.0" encoding="UTF-8" standalone="no"?>
<!DOCTYPE svg PUBLIC "-//W3C//DTD SVG 1.1//EN"
 "http://www.w3.org/Graphics/SVG/1.1/DTD/svg11.dtd">
<!-- Generated by graphviz version 2.43.0 (0)
 -->
<!-- Title: %3 Pages: 1 -->
<svg width="119pt" height="98pt"
 viewBox="0.00 0.00 119.00 98.00" xmlns="http://www.w3.org/2000/svg" xmlns:xlink="http://www.w3.org/1999/xlink">
<g id="graph0" class="graph" transform="scale(1 1) rotate(0) translate(4 94)">
<title>%3</title>
<!-- y -->
<g id="node1" class="node">
<title>y</title>
<polygon fill="white" stroke="black" points="0,-7 0,-29 36,-29 36,-7 0,-7"/>
<text text-anchor="middle" x="9" y="-14.6" font-family="monospace" font-size="13.00">y</text>
<polyline fill="none" stroke="black" points="18,-7 18,-29 "/>
<text text-anchor="middle" x="27" y="-14.6" font-family="monospace" font-size="13.00">⬤</text>
</g>
<!-- c2 -->
<g id="node4" class="node">
<title>c2</title>
<ellipse fill="white" stroke="black" cx="91.5" cy="-18" rx="18" ry="18"/>
<text text-anchor="middle" x="91.5" y="-14.6" font-family="monospace" font-size="13.00">480</text>
</g>
<!-- y&#45;&gt;c2 -->
<g id="edge2" class="edge">
<title>y:f1&#45;&gt;c2</title>
<path fill="none" stroke="black" d="M36,-18C44.88,-18 54.57,-18 63.29,-18"/>
<polygon fill="black" stroke="black" points="63.32,-21.5 73.32,-18 63.32,-14.5 63.32,-21.5"/>
</g>
<!-- x -->
<g id="node2" class="node">
<title>x</title>
<polygon fill="white" stroke="black" points="0,-61 0,-83 36,-83 36,-61 0,-61"/>
<text text-anchor="middle" x="9" y="-68.6" font-family="monospace" font-size="13.00">x</text>
<polyline fill="none" stroke="black" points="18,-61 18,-83 "/>
<text text-anchor="middle" x="27" y="-68.6" font-family="monospace" font-size="13.00">⬤</text>
</g>
<!-- c1 -->
<g id="node3" class="node">
<title>c1</title>
<ellipse fill="white" stroke="black" cx="91.5" cy="-72" rx="18" ry="18"/>
<text text-anchor="middle" x="91.5" y="-68.6" font-family="monospace" font-size="13.00">480</text>
</g>
<!-- x&#45;&gt;c1 -->
<g id="edge1" class="edge">
<title>x:f1&#45;&gt;c1</title>
<path fill="none" stroke="black" d="M36,-72C44.88,-72 54.57,-72 63.29,-72"/>
<polygon fill="black" stroke="black" points="63.32,-75.5 73.32,-72 63.32,-68.5 63.32,-75.5"/>
</g>
</g>
</svg>
