<?xml version="1.0" encoding="UTF-8" standalone="no"?>
<!DOCTYPE svg PUBLIC "-//W3C//DTD SVG 1.1//EN"
 "http://www.w3.org/Graphics/SVG/1.1/DTD/svg11.dtd">
<!-- Generated by graphviz version 2.43.0 (0)
 -->
<!-- Title: %3 Pages: 1 -->
<svg width="214pt" height="44pt"
 viewBox="0.00 0.00 214.00 44.00" xmlns="http://www.w3.org/2000/svg" xmlns:xlink="http://www.w3.org/1999/xlink">
<g id="graph0" class="graph" transform="scale(1 1) rotate(0) translate(4 40)">
<title>%3</title>
<!-- x -->
<g id="node1" class="node">
<title>x</title>
<polygon fill="transparent" stroke="transparent" points="54,-36 0,-36 0,0 54,0 54,-36"/>
<text text-anchor="middle" x="27" y="-14.6" font-family="monospace" font-size="13.00">x</text>
</g>
<!-- v1 -->
<g id="node2" class="node">
<title>v1</title>
<polygon fill="white" stroke="black" points="112,-29 90,-29 90,-7 112,-7 112,-29"/>
<text text-anchor="middle" x="101" y="-14.6" font-family="monospace" font-size="13.00">⬤</text>
</g>
<!-- x&#45;&gt;v1 -->
<g id="edge1" class="edge">
<title>x&#45;&gt;v1</title>
<path fill="none" stroke="black" d="M45.06,-18C55.43,-18 68.73,-18 79.65,-18"/>
<polygon fill="black" stroke="black" points="79.94,-21.5 89.94,-18 79.94,-14.5 79.94,-21.5"/>
</g>
<!-- hola -->
<g id="node3" class="node">
<title>hola</title>
<ellipse fill="white" stroke="black" cx="177" cy="-18" rx="29" ry="18"/>
<text text-anchor="middle" x="177" y="-14.6" font-family="monospace" font-size="13.00">&#39;hola&#39;</text>
</g>
<!-- v1&#45;&gt;hola -->
<g id="edge2" class="edge">
<title>v1&#45;&gt;hola</title>
<path fill="none" stroke="black" d="M112.29,-18C119.06,-18 128.37,-18 137.8,-18"/>
<polygon fill="black" stroke="black" points="137.94,-21.5 147.94,-18 137.94,-14.5 137.94,-21.5"/>
</g>
</g>
</svg>
