<?xml version="1.0" encoding="UTF-8" standalone="no"?>
<!DOCTYPE svg PUBLIC "-//W3C//DTD SVG 1.1//EN"
 "http://www.w3.org/Graphics/SVG/1.1/DTD/svg11.dtd">
<!-- Generated by graphviz version 14.0.5 (0)
 -->
<!-- Pages: 1 -->
<svg width="103pt" height="116pt"
 viewBox="0.00 0.00 103.00 116.00" xmlns="http://www.w3.org/2000/svg" xmlns:xlink="http://www.w3.org/1999/xlink">
<g id="graph0" class="graph" transform="scale(1 1) rotate(0) translate(4 111.6)">
<!-- y -->
<g id="node1" class="node">
<title>y</title>
<polygon fill="white" stroke="black" points="0,-1 0,-22.6 36,-22.6 36,-1 0,-1"/>
<text xml:space="preserve" text-anchor="middle" x="9" y="-7.25" font-family="monospace" font-size="13.00">y</text>
<polyline fill="none" stroke="black" points="18,-1 18,-22.6"/>
<text xml:space="preserve" text-anchor="middle" x="27" y="-7.25" font-family="monospace" font-size="13.00">⬤</text>
</g>
<!-- 5 -->
<g id="node3" class="node">
<title>5</title>
<ellipse fill="white" stroke="black" cx="83.5" cy="-11.8" rx="10.8" ry="10.8"/>
<text xml:space="preserve" text-anchor="middle" x="83.5" y="-7.25" font-family="monospace" font-size="13.00">5</text>
</g>
<!-- y&#45;&gt;5 -->
<g id="edge3" class="edge">
<title>y:f1&#45;&gt;5</title>
<path fill="none" stroke="black" d="M36,-11.8C36,-11.8 49.5,-11.8 61.95,-11.8"/>
<polygon fill="black" stroke="black" points="61.58,-15.3 71.58,-11.8 61.58,-8.3 61.58,-15.3"/>
</g>
<!-- x -->
<g id="node2" class="node">
<title>x</title>
<polygon fill="white" stroke="black" points="0,-64 0,-85.6 36,-85.6 36,-64 0,-64"/>
<text xml:space="preserve" text-anchor="middle" x="9" y="-70.25" font-family="monospace" font-size="13.00">x</text>
<polyline fill="none" stroke="black" points="18,-64 18,-85.6"/>
<text xml:space="preserve" text-anchor="middle" x="27" y="-70.25" font-family="monospace" font-size="13.00">⬤</text>
</g>
<!-- 4 -->
<g id="node4" class="node">
<title>4</title>
<ellipse fill="white" stroke="black" cx="83.5" cy="-95.8" rx="10.8" ry="10.8"/>
<text xml:space="preserve" text-anchor="middle" x="83.5" y="-91.25" font-family="monospace" font-size="13.00">4</text>
</g>
<!-- x&#45;&gt;4 -->
<g id="edge2" class="edge">
<title>x:f1&#45;&gt;4</title>
<path fill="none" stroke="grey" stroke-dasharray="5,2" d="M36,-74.8C36,-74.8 50.37,-81.29 63.13,-87.05"/>
<polygon fill="grey" stroke="grey" points="61.6,-90.2 72.15,-91.13 64.48,-83.82 61.6,-90.2"/>
</g>
<!-- 7 -->
<g id="node5" class="node">
<title>7</title>
<ellipse fill="white" stroke="black" cx="83.5" cy="-53.8" rx="10.8" ry="10.8"/>
<text xml:space="preserve" text-anchor="middle" x="83.5" y="-49.25" font-family="monospace" font-size="13.00">7</text>
</g>
<!-- x&#45;&gt;7 -->
<g id="edge1" class="edge">
<title>x:f1&#45;&gt;7</title>
<path fill="none" stroke="black" d="M36,-74.8C36,-74.8 50.37,-68.31 63.13,-62.55"/>
<polygon fill="black" stroke="black" points="64.48,-65.78 72.15,-58.47 61.6,-59.4 64.48,-65.78"/>
</g>
</g>
</svg>
