<?xml version="1.0" encoding="UTF-8" standalone="no"?>
<!DOCTYPE svg PUBLIC "-//W3C//DTD SVG 1.1//EN"
 "http://www.w3.org/Graphics/SVG/1.1/DTD/svg11.dtd">
<!-- Generated by graphviz version 2.43.0 (0)
 -->
<!-- Title: %3 Pages: 1 -->
<svg width="152pt" height="98pt"
 viewBox="0.00 0.00 152.00 98.00" xmlns="http://www.w3.org/2000/svg" xmlns:xlink="http://www.w3.org/1999/xlink">
<g id="graph0" class="graph" transform="scale(1 1) rotate(0) translate(4 94)">
<title>%3</title>
<!-- x -->
<g id="node1" class="node">
<title>x</title>
<polygon fill="white" stroke="black" points="0,-54 0,-76 36,-76 36,-54 0,-54"/>
<text text-anchor="middle" x="9" y="-61.6" font-family="monospace" font-size="13.00">x</text>
<polyline fill="none" stroke="black" points="18,-54 18,-76 "/>
<text text-anchor="middle" x="27" y="-61.6" font-family="monospace" font-size="13.00">⬤</text>
</g>
<!-- hola -->
<g id="node3" class="node">
<title>hola</title>
<ellipse fill="white" stroke="black" cx="108" cy="-72" rx="36" ry="18"/>
<text text-anchor="middle" x="108" y="-68.6" font-family="monospace" font-size="13.00">&#39;hola&#39;</text>
</g>
<!-- x&#45;&gt;hola -->
<g id="edge1" class="edge">
<title>x:f1&#45;&gt;hola</title>
<path fill="none" stroke="grey" stroke-dasharray="5,2" d="M36,-65C36,-65 48.09,-66.19 62.29,-67.59"/>
<polygon fill="grey" stroke="grey" points="62.04,-71.08 72.33,-68.58 62.72,-64.12 62.04,-71.08"/>
</g>
<!-- pepe -->
<g id="node4" class="node">
<title>pepe</title>
<ellipse fill="white" stroke="black" cx="108" cy="-18" rx="36" ry="18"/>
<text text-anchor="middle" x="108" y="-14.6" font-family="monospace" font-size="13.00">&#39;pepe&#39;</text>
</g>
<!-- x&#45;&gt;pepe -->
<g id="edge2" class="edge">
<title>x:f1&#45;&gt;pepe</title>
<path fill="none" stroke="black" d="M36,-65C36,-65 57.57,-50.72 76.94,-37.9"/>
<polygon fill="black" stroke="black" points="78.91,-40.8 85.31,-32.36 75.04,-34.96 78.91,-40.8"/>
</g>
<!-- y -->
<g id="node2" class="node">
<title>y</title>
<polygon fill="white" stroke="black" points="0,-7 0,-29 36,-29 36,-7 0,-7"/>
<text text-anchor="middle" x="9" y="-14.6" font-family="monospace" font-size="13.00">y</text>
<polyline fill="none" stroke="black" points="18,-7 18,-29 "/>
<text text-anchor="middle" x="27" y="-14.6" font-family="monospace" font-size="13.00">⬤</text>
</g>
<!-- y&#45;&gt;pepe -->
<g id="edge3" class="edge">
<title>y:f1&#45;&gt;pepe</title>
<path fill="none" stroke="black" d="M36,-18C36,-18 47.67,-18 61.55,-18"/>
<polygon fill="black" stroke="black" points="61.92,-21.5 71.92,-18 61.92,-14.5 61.92,-21.5"/>
</g>
</g>
</svg>
