<?xml version="1.0" encoding="UTF-8" standalone="no"?>
<!DOCTYPE svg PUBLIC "-//W3C//DTD SVG 1.1//EN"
 "http://www.w3.org/Graphics/SVG/1.1/DTD/svg11.dtd">
<!-- Generated by graphviz version 2.42.4 (0)
 -->
<!-- Pages: 1 -->
<svg width="224pt" height="72pt"
 viewBox="0.00 0.00 224.00 72.00" xmlns="http://www.w3.org/2000/svg" xmlns:xlink="http://www.w3.org/1999/xlink">
<g id="graph0" class="graph" transform="scale(1 1) rotate(0) translate(4 68)">
<!-- z -->
<g id="node1" class="node">
<title>z</title>
<polygon fill="white" stroke="black" points="0,-20.5 0,-42.5 36,-42.5 36,-20.5 0,-20.5"/>
<text text-anchor="middle" x="9" y="-28.1" font-family="monospace" font-size="13.00">z</text>
<polyline fill="none" stroke="black" points="18,-20.5 18,-42.5 "/>
<text text-anchor="middle" x="27" y="-28.1" font-family="monospace" font-size="13.00">⬤</text>
</g>
<!-- t3 -->
<g id="node2" class="node">
<title>t3</title>
<polygon fill="white" stroke="black" points="72,-41.5 72,-63.5 216,-63.5 216,-41.5 72,-41.5"/>
<text text-anchor="middle" x="84" y="-49.1" font-family="monospace" font-size="13.00">1</text>
<polyline fill="none" stroke="black" points="96,-41.5 96,-63.5 "/>
<text text-anchor="middle" x="108" y="-49.1" font-family="monospace" font-size="13.00">2</text>
<polyline fill="none" stroke="black" points="120,-41.5 120,-63.5 "/>
<text text-anchor="middle" x="132" y="-49.1" font-family="monospace" font-size="13.00">3</text>
<polyline fill="none" stroke="black" points="144,-41.5 144,-63.5 "/>
<text text-anchor="middle" x="156" y="-49.1" font-family="monospace" font-size="13.00">4</text>
<polyline fill="none" stroke="black" points="168,-41.5 168,-63.5 "/>
<text text-anchor="middle" x="180" y="-49.1" font-family="monospace" font-size="13.00">5</text>
<polyline fill="none" stroke="black" points="192,-41.5 192,-63.5 "/>
<text text-anchor="middle" x="204" y="-49.1" font-family="monospace" font-size="13.00">6</text>
</g>
<!-- z&#45;&gt;t3 -->
<g id="edge1" class="edge">
<title>z:f1&#45;&gt;t3:w</title>
<path fill="none" stroke="grey" stroke-dasharray="5,2" d="M36,-31.5C36,-31.5 52.63,-41.2 63.29,-47.42"/>
<polygon fill="grey" stroke="grey" points="61.6,-50.48 72,-52.5 65.13,-44.44 61.6,-50.48"/>
</g>
<!-- t4 -->
<g id="node3" class="node">
<title>t4</title>
<polygon fill="white" stroke="black" points="108,-0.5 108,-22.5 180,-22.5 180,-0.5 108,-0.5"/>
<text text-anchor="middle" x="120" y="-8.1" font-family="monospace" font-size="13.00">7</text>
<polyline fill="none" stroke="black" points="132,-0.5 132,-22.5 "/>
<text text-anchor="middle" x="144" y="-8.1" font-family="monospace" font-size="13.00">8</text>
<polyline fill="none" stroke="black" points="156,-0.5 156,-22.5 "/>
<text text-anchor="middle" x="168" y="-8.1" font-family="monospace" font-size="13.00">9</text>
</g>
<!-- z&#45;&gt;t4 -->
<g id="edge2" class="edge">
<title>z:f1&#45;&gt;t4</title>
<path fill="none" stroke="black" d="M36,-31.5C36,-31.5 68.61,-25.4 97.83,-19.94"/>
<polygon fill="black" stroke="black" points="98.78,-23.33 107.96,-18.05 97.49,-16.45 98.78,-23.33"/>
</g>
</g>
</svg>
