<?xml version="1.0" encoding="UTF-8" standalone="no"?>
<!DOCTYPE svg PUBLIC "-//W3C//DTD SVG 1.1//EN"
 "http://www.w3.org/Graphics/SVG/1.1/DTD/svg11.dtd">
<!-- Generated by graphviz version 14.0.5 (0)
 -->
<!-- Pages: 1 -->
<svg width="103pt" height="72pt"
 viewBox="0.00 0.00 103.00 72.00" xmlns="http://www.w3.org/2000/svg" xmlns:xlink="http://www.w3.org/1999/xlink">
<g id="graph0" class="graph" transform="scale(1 1) rotate(0) translate(4 67.6)">
<!-- x -->
<g id="node1" class="node">
<title>x</title>
<polygon fill="white" stroke="black" points="0,-41.5 0,-63.1 36,-63.1 36,-41.5 0,-41.5"/>
<text xml:space="preserve" text-anchor="middle" x="9" y="-47.75" font-family="monospace" font-size="13.00">x</text>
<polyline fill="none" stroke="black" points="18,-41.5 18,-63.1"/>
<text xml:space="preserve" text-anchor="middle" x="27" y="-47.75" font-family="monospace" font-size="13.00">⬤</text>
</g>
<!-- 5 -->
<g id="node3" class="node">
<title>5</title>
<ellipse fill="white" stroke="black" cx="83.5" cy="-31.3" rx="10.8" ry="10.8"/>
<text xml:space="preserve" text-anchor="middle" x="83.5" y="-26.75" font-family="monospace" font-size="13.00">5</text>
</g>
<!-- x&#45;&gt;5 -->
<g id="edge1" class="edge">
<title>x:f1&#45;&gt;5</title>
<path fill="none" stroke="black" d="M36,-52.3C36,-52.3 50.37,-45.81 63.13,-40.05"/>
<polygon fill="black" stroke="black" points="64.48,-43.28 72.15,-35.97 61.6,-36.9 64.48,-43.28"/>
</g>
<!-- y -->
<g id="node2" class="node">
<title>y</title>
<polygon fill="white" stroke="black" points="0,-0.5 0,-22.1 36,-22.1 36,-0.5 0,-0.5"/>
<text xml:space="preserve" text-anchor="middle" x="9" y="-6.75" font-family="monospace" font-size="13.00">y</text>
<polyline fill="none" stroke="black" points="18,-0.5 18,-22.1"/>
<text xml:space="preserve" text-anchor="middle" x="27" y="-6.75" font-family="monospace" font-size="13.00">⬤</text>
</g>
<!-- y&#45;&gt;5 -->
<g id="edge2" class="edge">
<title>y:f1&#45;&gt;5</title>
<path fill="none" stroke="black" d="M36,-11.3C36,-11.3 50.37,-17.48 63.13,-22.97"/>
<polygon fill="black" stroke="black" points="61.57,-26.11 72.14,-26.85 64.34,-19.68 61.57,-26.11"/>
</g>
</g>
</svg>
