<?xml version="1.0" encoding="UTF-8" standalone="no"?>
<!DOCTYPE svg PUBLIC "-//W3C//DTD SVG 1.1//EN"
 "http://www.w3.org/Graphics/SVG/1.1/DTD/svg11.dtd">
<!-- Generated by graphviz version 2.40.1 (20161225.0304)
 -->
<!-- Title: %3 Pages: 1 -->
<svg width="576pt" height="248pt"
 viewBox="0.00 0.00 576.00 247.58" xmlns="http://www.w3.org/2000/svg" xmlns:xlink="http://www.w3.org/1999/xlink">
<g id="graph0" class="graph" transform="scale(2.5263 2.5263) rotate(0) translate(4 94)">
<title>%3</title>
<!-- x -->
<g id="node1" class="node">
<title>x</title>
<polygon fill="transparent" stroke="transparent" points="54,-90 0,-90 0,-54 54,-54 54,-90"/>
<text text-anchor="middle" x="27" y="-68.6" font-family="monospace" font-size="13.00" fill="#000000">x</text>
</g>
<!-- v1 -->
<g id="node4" class="node">
<title>v1</title>
<polygon fill="#ffffff" stroke="#000000" points="112,-56 90,-56 90,-34 112,-34 112,-56"/>
<text text-anchor="middle" x="101" y="-41.6" font-family="monospace" font-size="13.00" fill="#000000">⬤</text>
</g>
<!-- x&#45;&gt;v1 -->
<g id="edge1" class="edge">
<title>x&#45;&gt;v1</title>
<path fill="none" stroke="#000000" d="M45.2921,-65.3258C55.8008,-61.4916 69.0418,-56.6604 79.9778,-52.6703"/>
<polygon fill="#000000" stroke="#000000" points="81.3976,-55.878 89.5921,-49.1623 78.9982,-49.3021 81.3976,-55.878"/>
</g>
<!-- y -->
<g id="node2" class="node">
<title>y</title>
<polygon fill="transparent" stroke="transparent" points="54,-36 0,-36 0,0 54,0 54,-36"/>
<text text-anchor="middle" x="27" y="-14.6" font-family="monospace" font-size="13.00" fill="#000000">y</text>
</g>
<!-- y&#45;&gt;v1 -->
<g id="edge3" class="edge">
<title>y&#45;&gt;v1</title>
<path fill="none" stroke="#000000" d="M45.2921,-24.6742C55.8008,-28.5084 69.0418,-33.3396 79.9778,-37.3297"/>
<polygon fill="#000000" stroke="#000000" points="78.9982,-40.6979 89.5921,-40.8377 81.3976,-34.122 78.9982,-40.6979"/>
</g>
<!-- pepe -->
<g id="node3" class="node">
<title>pepe</title>
<ellipse fill="#ffffff" stroke="#000000" cx="184" cy="-45" rx="36" ry="18"/>
<text text-anchor="middle" x="184" y="-41.6" font-family="monospace" font-size="13.00" fill="#000000">&#39;pepe&#39;</text>
</g>
<!-- v1&#45;&gt;pepe -->
<g id="edge2" class="edge">
<title>v1&#45;&gt;pepe</title>
<path fill="none" stroke="#000000" d="M112.1937,-45C119.0247,-45 128.2643,-45 137.8391,-45"/>
<polygon fill="#000000" stroke="#000000" points="137.8516,-48.5001 147.8515,-45 137.8515,-41.5001 137.8516,-48.5001"/>
</g>
</g>
</svg>
