<?xml version="1.0" encoding="UTF-8" standalone="no"?>
<!DOCTYPE svg PUBLIC "-//W3C//DTD SVG 1.1//EN"
 "http://www.w3.org/Graphics/SVG/1.1/DTD/svg11.dtd">
<!-- Generated by graphviz version 2.42.4 (0)
 -->
<!-- Pages: 1 -->
<svg width="152pt" height="98pt"
 viewBox="0.00 0.00 152.00 98.00" xmlns="http://www.w3.org/2000/svg" xmlns:xlink="http://www.w3.org/1999/xlink">
<g id="graph0" class="graph" transform="scale(1 1) rotate(0) translate(4 94)">
<!-- x -->
<g id="node1" class="node">
<title>x</title>
<polygon fill="white" stroke="black" points="0,-7 0,-29 36,-29 36,-7 0,-7"/>
<text text-anchor="middle" x="9" y="-14.6" font-family="monospace" font-size="13.00">x</text>
<polyline fill="none" stroke="black" points="18,-7 18,-29 "/>
<text text-anchor="middle" x="27" y="-14.6" font-family="monospace" font-size="13.00">⬤</text>
</g>
<!-- hola -->
<g id="node3" class="node">
<title>hola</title>
<ellipse fill="white" stroke="black" cx="108" cy="-18" rx="36" ry="18"/>
<text text-anchor="middle" x="108" y="-14.6" font-family="monospace" font-size="13.00">&#39;hola&#39;</text>
</g>
<!-- x&#45;&gt;hola -->
<g id="edge1" class="edge">
<title>x:f1&#45;&gt;hola</title>
<path fill="none" stroke="black" d="M36,-18C44.33,-18 53.2,-18 61.75,-18"/>
<polygon fill="black" stroke="black" points="61.97,-21.5 71.97,-18 61.97,-14.5 61.97,-21.5"/>
</g>
<!-- y -->
<g id="node2" class="node">
<title>y</title>
<polygon fill="white" stroke="black" points="0,-61 0,-83 36,-83 36,-61 0,-61"/>
<text text-anchor="middle" x="9" y="-68.6" font-family="monospace" font-size="13.00">y</text>
<polyline fill="none" stroke="black" points="18,-61 18,-83 "/>
<text text-anchor="middle" x="27" y="-68.6" font-family="monospace" font-size="13.00">⬤</text>
</g>
<!-- pepe -->
<g id="node4" class="node">
<title>pepe</title>
<ellipse fill="white" stroke="black" cx="108" cy="-72" rx="36" ry="18"/>
<text text-anchor="middle" x="108" y="-68.6" font-family="monospace" font-size="13.00">&#39;pepe&#39;</text>
</g>
<!-- y&#45;&gt;pepe -->
<g id="edge2" class="edge">
<title>y:f1&#45;&gt;pepe</title>
<path fill="none" stroke="black" d="M36,-72C44.33,-72 53.2,-72 61.75,-72"/>
<polygon fill="black" stroke="black" points="61.97,-75.5 71.97,-72 61.97,-68.5 61.97,-75.5"/>
</g>
</g>
</svg>
