<?xml version="1.0" encoding="UTF-8" standalone="no"?>
<!DOCTYPE svg PUBLIC "-//W3C//DTD SVG 1.1//EN"
 "http://www.w3.org/Graphics/SVG/1.1/DTD/svg11.dtd">
<!-- Generated by graphviz version 2.43.0 (0)
 -->
<!-- Title: %3 Pages: 1 -->
<svg width="286pt" height="98pt"
 viewBox="0.00 0.00 286.00 98.00" xmlns="http://www.w3.org/2000/svg" xmlns:xlink="http://www.w3.org/1999/xlink">
<g id="graph0" class="graph" transform="scale(1 1) rotate(0) translate(4 94)">
<title>%3</title>
<!-- x -->
<g id="node1" class="node">
<title>x</title>
<polygon fill="transparent" stroke="transparent" points="54,-63 0,-63 0,-27 54,-27 54,-63"/>
<text text-anchor="middle" x="27" y="-41.6" font-family="monospace" font-size="13.00">x</text>
</g>
<!-- v1 -->
<g id="node2" class="node">
<title>v1</title>
<polygon fill="white" stroke="black" points="112,-56 90,-56 90,-34 112,-34 112,-56"/>
<text text-anchor="middle" x="101" y="-41.6" font-family="monospace" font-size="13.00">⬤</text>
</g>
<!-- x&#45;&gt;v1 -->
<g id="edge1" class="edge">
<title>x&#45;&gt;v1</title>
<path fill="none" stroke="black" d="M45.06,-45C55.43,-45 68.73,-45 79.65,-45"/>
<polygon fill="black" stroke="black" points="79.94,-48.5 89.94,-45 79.94,-41.5 79.94,-48.5"/>
</g>
<!-- holamanolo -->
<g id="node3" class="node">
<title>holamanolo</title>
<ellipse fill="white" stroke="black" cx="213" cy="-72" rx="65" ry="18"/>
<text text-anchor="middle" x="213" y="-68.6" font-family="monospace" font-size="13.00">&#39;hola manolo&#39;</text>
</g>
<!-- v1&#45;&gt;holamanolo -->
<g id="edge2" class="edge">
<title>v1&#45;&gt;holamanolo</title>
<path fill="none" stroke="black" d="M112.15,-47.49C121.97,-49.9 137.7,-53.76 153.79,-57.71"/>
<polygon fill="black" stroke="black" points="153.27,-61.19 163.81,-60.17 154.94,-54.39 153.27,-61.19"/>
</g>
<!-- hola -->
<g id="node4" class="node">
<title>hola</title>
<ellipse fill="white" stroke="black" cx="213" cy="-18" rx="29" ry="18"/>
<text text-anchor="middle" x="213" y="-14.6" font-family="monospace" font-size="13.00">&#39;hola&#39;</text>
</g>
<!-- v1&#45;&gt;hola -->
<g id="edge3" class="edge">
<title>v1&#45;&gt;hola</title>
<path fill="none" stroke="grey" stroke-dasharray="5,2" d="M112.15,-42.51C126.54,-38.98 153.61,-32.33 175.93,-26.85"/>
<polygon fill="grey" stroke="grey" points="176.91,-30.22 185.79,-24.43 175.25,-23.42 176.91,-30.22"/>
</g>
</g>
</svg>
