<?xml version="1.0" encoding="UTF-8" standalone="no"?>
<!DOCTYPE svg PUBLIC "-//W3C//DTD SVG 1.1//EN"
 "http://www.w3.org/Graphics/SVG/1.1/DTD/svg11.dtd">
<!-- Generated by graphviz version 14.1.1 (0)
 -->
<!-- Pages: 1 -->
<svg width="221pt" height="122pt"
 viewBox="0.00 0.00 221.00 122.00" xmlns="http://www.w3.org/2000/svg" xmlns:xlink="http://www.w3.org/1999/xlink">
<g id="graph0" class="graph" transform="scale(1 1) rotate(0) translate(4 117.5)">
<!-- z -->
<g id="node1" class="node">
<title>z</title>
<polygon fill="white" stroke="black" points="0,-1.95 0,-23.55 36,-23.55 36,-1.95 0,-1.95"/>
<text xml:space="preserve" text-anchor="middle" x="9.25" y="-8.2" font-family="monospace" font-size="13.00">z</text>
<polyline fill="none" stroke="black" points="18.5,-1.05 18.5,-23.55"/>
<text xml:space="preserve" text-anchor="middle" x="27.25" y="-6.7" font-family="monospace" font-size="13.00">⬤</text>
</g>
<!-- t3 -->
<g id="node6" class="node">
<title>t3</title>
<polygon fill="white" stroke="black" points="72,-0.5 72,-25 213,-25 213,-0.5 72,-0.5"/>
<text xml:space="preserve" text-anchor="middle" x="83.75" y="-8.65" font-family="monospace" font-size="13.00">1</text>
<polyline fill="none" stroke="black" points="95.5,-0.5 95.5,-25"/>
<text xml:space="preserve" text-anchor="middle" x="107.25" y="-8.65" font-family="monospace" font-size="13.00">2</text>
<polyline fill="none" stroke="black" points="119,-0.5 119,-25"/>
<text xml:space="preserve" text-anchor="middle" x="130.75" y="-8.65" font-family="monospace" font-size="13.00">3</text>
<polyline fill="none" stroke="black" points="142.5,-0.5 142.5,-25"/>
<text xml:space="preserve" text-anchor="middle" x="154.25" y="-8.65" font-family="monospace" font-size="13.00">4</text>
<polyline fill="none" stroke="black" points="166,-0.5 166,-25"/>
<text xml:space="preserve" text-anchor="middle" x="177.75" y="-8.65" font-family="monospace" font-size="13.00">5</text>
<polyline fill="none" stroke="black" points="189.5,-0.5 189.5,-25"/>
<text xml:space="preserve" text-anchor="middle" x="201.25" y="-8.65" font-family="monospace" font-size="13.00">6</text>
</g>
<!-- z&#45;&gt;t3 -->
<g id="edge3" class="edge">
<title>z:f1&#45;&gt;t3</title>
<path fill="none" stroke="black" d="M36,-12.3C36,-12.3 46.22,-12.34 60.3,-12.4"/>
<polygon fill="black" stroke="black" points="60.19,-15.9 70.2,-12.45 60.22,-8.9 60.19,-15.9"/>
</g>
<!-- y -->
<g id="node2" class="node">
<title>y</title>
<polygon fill="white" stroke="black" points="0,-45.95 0,-67.55 36,-67.55 36,-45.95 0,-45.95"/>
<text xml:space="preserve" text-anchor="middle" x="9.25" y="-52.2" font-family="monospace" font-size="13.00">y</text>
<polyline fill="none" stroke="black" points="18.5,-45.05 18.5,-67.55"/>
<text xml:space="preserve" text-anchor="middle" x="27.25" y="-50.7" font-family="monospace" font-size="13.00">⬤</text>
</g>
<!-- t2 -->
<g id="node5" class="node">
<title>t2</title>
<polygon fill="white" stroke="black" points="107.25,-44.5 107.25,-69 177.75,-69 177.75,-44.5 107.25,-44.5"/>
<text xml:space="preserve" text-anchor="middle" x="119" y="-52.65" font-family="monospace" font-size="13.00">4</text>
<polyline fill="none" stroke="black" points="130.75,-44.5 130.75,-69"/>
<text xml:space="preserve" text-anchor="middle" x="142.5" y="-52.65" font-family="monospace" font-size="13.00">5</text>
<polyline fill="none" stroke="black" points="154.25,-44.5 154.25,-69"/>
<text xml:space="preserve" text-anchor="middle" x="166" y="-52.65" font-family="monospace" font-size="13.00">6</text>
</g>
<!-- y&#45;&gt;t2 -->
<g id="edge2" class="edge">
<title>y:f1&#45;&gt;t2</title>
<path fill="none" stroke="black" d="M36,-56.3C36,-56.3 67.04,-56.43 95.45,-56.55"/>
<polygon fill="black" stroke="black" points="95.43,-60.05 105.44,-56.6 95.46,-53.05 95.43,-60.05"/>
</g>
<!-- x -->
<g id="node3" class="node">
<title>x</title>
<polygon fill="white" stroke="black" points="0,-89.95 0,-111.55 36,-111.55 36,-89.95 0,-89.95"/>
<text xml:space="preserve" text-anchor="middle" x="9.25" y="-96.2" font-family="monospace" font-size="13.00">x</text>
<polyline fill="none" stroke="black" points="18.5,-89.05 18.5,-111.55"/>
<text xml:space="preserve" text-anchor="middle" x="27.25" y="-94.7" font-family="monospace" font-size="13.00">⬤</text>
</g>
<!-- t1 -->
<g id="node4" class="node">
<title>t1</title>
<polygon fill="white" stroke="black" points="107.25,-88.5 107.25,-113 177.75,-113 177.75,-88.5 107.25,-88.5"/>
<text xml:space="preserve" text-anchor="middle" x="119" y="-96.65" font-family="monospace" font-size="13.00">1</text>
<polyline fill="none" stroke="black" points="130.75,-88.5 130.75,-113"/>
<text xml:space="preserve" text-anchor="middle" x="142.5" y="-96.65" font-family="monospace" font-size="13.00">2</text>
<polyline fill="none" stroke="black" points="154.25,-88.5 154.25,-113"/>
<text xml:space="preserve" text-anchor="middle" x="166" y="-96.65" font-family="monospace" font-size="13.00">3</text>
</g>
<!-- x&#45;&gt;t1 -->
<g id="edge1" class="edge">
<title>x:f1&#45;&gt;t1</title>
<path fill="none" stroke="black" d="M36,-100.3C36,-100.3 67.04,-100.43 95.45,-100.55"/>
<polygon fill="black" stroke="black" points="95.43,-104.05 105.44,-100.6 95.46,-97.05 95.43,-104.05"/>
</g>
</g>
</svg>
