<?xml version="1.0" encoding="UTF-8" standalone="no"?>
<!DOCTYPE svg PUBLIC "-//W3C//DTD SVG 1.1//EN"
 "http://www.w3.org/Graphics/SVG/1.1/DTD/svg11.dtd">
<!-- Generated by graphviz version 2.40.1 (20161225.0304)
 -->
<!-- Title: %3 Pages: 1 -->
<svg width="576pt" height="118pt"
 viewBox="0.00 0.00 576.00 118.43" xmlns="http://www.w3.org/2000/svg" xmlns:xlink="http://www.w3.org/1999/xlink">
<g id="graph0" class="graph" transform="scale(2.6916 2.6916) rotate(0) translate(4 40)">
<title>%3</title>
<!-- x -->
<g id="node1" class="node">
<title>x</title>
<polygon fill="transparent" stroke="transparent" points="54,-36 0,-36 0,0 54,0 54,-36"/>
<text text-anchor="middle" x="27" y="-14.6" font-family="monospace" font-size="13.00" fill="#000000">x</text>
</g>
<!-- v1 -->
<g id="node2" class="node">
<title>v1</title>
<polygon fill="#ffffff" stroke="#000000" points="112,-29 90,-29 90,-7 112,-7 112,-29"/>
<text text-anchor="middle" x="101" y="-14.6" font-family="monospace" font-size="13.00" fill="#000000">⬤</text>
</g>
<!-- x&#45;&gt;v1 -->
<g id="edge1" class="edge">
<title>x&#45;&gt;v1</title>
<path fill="none" stroke="#000000" d="M45.2921,-18C55.5842,-18 68.4969,-18 79.2984,-18"/>
<polygon fill="#000000" stroke="#000000" points="79.5921,-21.5001 89.5921,-18 79.5921,-14.5001 79.5921,-21.5001"/>
</g>
<!-- hola -->
<g id="node3" class="node">
<title>hola</title>
<ellipse fill="#ffffff" stroke="#000000" cx="177" cy="-18" rx="29" ry="18"/>
<text text-anchor="middle" x="177" y="-14.6" font-family="monospace" font-size="13.00" fill="#000000">&#39;hola&#39;</text>
</g>
<!-- v1&#45;&gt;hola -->
<g id="edge2" class="edge">
<title>v1&#45;&gt;hola</title>
<path fill="none" stroke="#000000" d="M112.2141,-18C119.067,-18 128.2846,-18 137.6138,-18"/>
<polygon fill="#000000" stroke="#000000" points="137.6742,-21.5001 147.6742,-18 137.6741,-14.5001 137.6742,-21.5001"/>
</g>
</g>
</svg>
