<?xml version="1.0" encoding="UTF-8" standalone="no"?>
<!DOCTYPE svg PUBLIC "-//W3C//DTD SVG 1.1//EN"
 "http://www.w3.org/Graphics/SVG/1.1/DTD/svg11.dtd">
<!-- Generated by graphviz version 2.40.1 (20161225.0304)
 -->
<!-- Title: %3 Pages: 1 -->
<svg width="576pt" height="416pt"
 viewBox="0.00 0.00 576.00 416.00" xmlns="http://www.w3.org/2000/svg" xmlns:xlink="http://www.w3.org/1999/xlink">
<g id="graph0" class="graph" transform="scale(3.2 3.2) rotate(0) translate(4 126)">
<title>%3</title>
<!-- y -->
<g id="node1" class="node">
<title>y</title>
<polygon fill="transparent" stroke="transparent" points="54,-36 0,-36 0,0 54,0 54,-36"/>
<text text-anchor="middle" x="27" y="-14.6" font-family="monospace" font-size="13.00" fill="#000000">y</text>
</g>
<!-- v2 -->
<g id="node7" class="node">
<title>v2</title>
<polygon fill="#ffffff" stroke="#000000" points="112,-29 90,-29 90,-7 112,-7 112,-29"/>
<text text-anchor="middle" x="101" y="-14.6" font-family="monospace" font-size="13.00" fill="#000000">⬤</text>
</g>
<!-- y&#45;&gt;v2 -->
<g id="edge4" class="edge">
<title>y&#45;&gt;v2</title>
<path fill="none" stroke="#000000" d="M45.2921,-18C55.5842,-18 68.4969,-18 79.2984,-18"/>
<polygon fill="#000000" stroke="#000000" points="79.5921,-21.5001 89.5921,-18 79.5921,-14.5001 79.5921,-21.5001"/>
</g>
<!-- x -->
<g id="node2" class="node">
<title>x</title>
<polygon fill="transparent" stroke="transparent" points="54,-103 0,-103 0,-67 54,-67 54,-103"/>
<text text-anchor="middle" x="27" y="-81.6" font-family="monospace" font-size="13.00" fill="#000000">x</text>
</g>
<!-- v1 -->
<g id="node6" class="node">
<title>v1</title>
<polygon fill="#ffffff" stroke="#000000" points="112,-96 90,-96 90,-74 112,-74 112,-96"/>
<text text-anchor="middle" x="101" y="-81.6" font-family="monospace" font-size="13.00" fill="#000000">⬤</text>
</g>
<!-- x&#45;&gt;v1 -->
<g id="edge1" class="edge">
<title>x&#45;&gt;v1</title>
<path fill="none" stroke="#000000" d="M45.2921,-85C55.5842,-85 68.4969,-85 79.2984,-85"/>
<polygon fill="#000000" stroke="#000000" points="79.5921,-88.5001 89.5921,-85 79.5921,-81.5001 79.5921,-88.5001"/>
</g>
<!-- c2 -->
<g id="node3" class="node">
<title>c2</title>
<ellipse fill="#ffffff" stroke="#000000" cx="160" cy="-18" rx="11" ry="11"/>
<text text-anchor="middle" x="160" y="-14.6" font-family="monospace" font-size="13.00" fill="#000000">5</text>
</g>
<!-- c1 -->
<g id="node4" class="node">
<title>c1</title>
<ellipse fill="#ffffff" stroke="#000000" cx="160" cy="-111" rx="11" ry="11"/>
<text text-anchor="middle" x="160" y="-107.6" font-family="monospace" font-size="13.00" fill="#000000">7</text>
</g>
<!-- 4 -->
<g id="node5" class="node">
<title>4</title>
<ellipse fill="#ffffff" stroke="#000000" cx="160" cy="-71" rx="11" ry="11"/>
<text text-anchor="middle" x="160" y="-67.6" font-family="monospace" font-size="13.00" fill="#000000">4</text>
</g>
<!-- v1&#45;&gt;c1 -->
<g id="edge2" class="edge">
<title>v1&#45;&gt;c1</title>
<path fill="none" stroke="#000000" d="M112.0974,-89.8904C120.0399,-93.3905 130.9457,-98.1964 140.3452,-102.3385"/>
<polygon fill="#000000" stroke="#000000" points="139.1796,-105.6497 149.7419,-106.4795 142.0025,-99.2441 139.1796,-105.6497"/>
</g>
<!-- v1&#45;&gt;4 -->
<g id="edge3" class="edge">
<title>v1&#45;&gt;4</title>
<path fill="none" stroke="#c0c0c0" stroke-dasharray="5,2" d="M112.0974,-82.3667C119.679,-80.5677 129.9606,-78.128 139.0548,-75.97"/>
<polygon fill="#c0c0c0" stroke="#c0c0c0" points="140.0306,-79.3358 148.9523,-73.6215 138.4144,-72.5249 140.0306,-79.3358"/>
</g>
<!-- v2&#45;&gt;c2 -->
<g id="edge5" class="edge">
<title>v2&#45;&gt;c2</title>
<path fill="none" stroke="#000000" d="M112.0974,-18C119.5966,-18 129.7374,-18 138.7579,-18"/>
<polygon fill="#000000" stroke="#000000" points="138.9523,-21.5001 148.9523,-18 138.9523,-14.5001 138.9523,-21.5001"/>
</g>
</g>
</svg>
