<?xml version="1.0" encoding="UTF-8" standalone="no"?>
<!DOCTYPE svg PUBLIC "-//W3C//DTD SVG 1.1//EN"
 "http://www.w3.org/Graphics/SVG/1.1/DTD/svg11.dtd">
<!-- Generated by graphviz version 2.40.1 (20161225.0304)
 -->
<!-- Title: %3 Pages: 1 -->
<svg width="576pt" height="289pt"
 viewBox="0.00 0.00 576.00 289.48" xmlns="http://www.w3.org/2000/svg" xmlns:xlink="http://www.w3.org/1999/xlink">
<g id="graph0" class="graph" transform="scale(2.9538 2.9538) rotate(0) translate(4 94)">
<title>%3</title>
<!-- x -->
<g id="node1" class="node">
<title>x</title>
<polygon fill="transparent" stroke="transparent" points="54,-36 0,-36 0,0 54,0 54,-36"/>
<text text-anchor="middle" x="27" y="-14.6" font-family="monospace" font-size="13.00" fill="#000000">x</text>
</g>
<!-- v1 -->
<g id="node5" class="node">
<title>v1</title>
<polygon fill="#ffffff" stroke="#000000" points="112,-29 90,-29 90,-7 112,-7 112,-29"/>
<text text-anchor="middle" x="101" y="-14.6" font-family="monospace" font-size="13.00" fill="#000000">⬤</text>
</g>
<!-- x&#45;&gt;v1 -->
<g id="edge1" class="edge">
<title>x&#45;&gt;v1</title>
<path fill="none" stroke="#000000" d="M45.2921,-18C55.5842,-18 68.4969,-18 79.2984,-18"/>
<polygon fill="#000000" stroke="#000000" points="79.5921,-21.5001 89.5921,-18 79.5921,-14.5001 79.5921,-21.5001"/>
</g>
<!-- y -->
<g id="node2" class="node">
<title>y</title>
<polygon fill="transparent" stroke="transparent" points="54,-90 0,-90 0,-54 54,-54 54,-90"/>
<text text-anchor="middle" x="27" y="-68.6" font-family="monospace" font-size="13.00" fill="#000000">y</text>
</g>
<!-- v2 -->
<g id="node6" class="node">
<title>v2</title>
<polygon fill="#ffffff" stroke="#000000" points="112,-83 90,-83 90,-61 112,-61 112,-83"/>
<text text-anchor="middle" x="101" y="-68.6" font-family="monospace" font-size="13.00" fill="#000000">⬤</text>
</g>
<!-- y&#45;&gt;v2 -->
<g id="edge3" class="edge">
<title>y&#45;&gt;v2</title>
<path fill="none" stroke="#000000" d="M45.2921,-72C55.5842,-72 68.4969,-72 79.2984,-72"/>
<polygon fill="#000000" stroke="#000000" points="79.5921,-75.5001 89.5921,-72 79.5921,-68.5001 79.5921,-75.5001"/>
</g>
<!-- c1 -->
<g id="node3" class="node">
<title>c1</title>
<ellipse fill="#ffffff" stroke="#000000" cx="167.5" cy="-18" rx="18" ry="18"/>
<text text-anchor="middle" x="167.5" y="-14.6" font-family="monospace" font-size="13.00" fill="#000000">480</text>
</g>
<!-- c2 -->
<g id="node4" class="node">
<title>c2</title>
<ellipse fill="#ffffff" stroke="#000000" cx="167.5" cy="-72" rx="18" ry="18"/>
<text text-anchor="middle" x="167.5" y="-68.6" font-family="monospace" font-size="13.00" fill="#000000">480</text>
</g>
<!-- v1&#45;&gt;c1 -->
<g id="edge2" class="edge">
<title>v1&#45;&gt;c1</title>
<path fill="none" stroke="#000000" d="M112.2808,-18C119.6579,-18 129.6465,-18 139.1004,-18"/>
<polygon fill="#000000" stroke="#000000" points="139.3794,-21.5001 149.3794,-18 139.3793,-14.5001 139.3794,-21.5001"/>
</g>
<!-- v2&#45;&gt;c2 -->
<g id="edge4" class="edge">
<title>v2&#45;&gt;c2</title>
<path fill="none" stroke="#000000" d="M112.2808,-72C119.6579,-72 129.6465,-72 139.1004,-72"/>
<polygon fill="#000000" stroke="#000000" points="139.3794,-75.5001 149.3794,-72 139.3793,-68.5001 139.3794,-75.5001"/>
</g>
</g>
</svg>
