<?xml version="1.0" encoding="UTF-8" standalone="no"?>
<!DOCTYPE svg PUBLIC "-//W3C//DTD SVG 1.1//EN"
 "http://www.w3.org/Graphics/SVG/1.1/DTD/svg11.dtd">
<!-- Generated by graphviz version 2.40.1 (20161225.0304)
 -->
<!-- Title: %3 Pages: 1 -->
<svg width="576pt" height="197pt"
 viewBox="0.00 0.00 576.00 197.37" xmlns="http://www.w3.org/2000/svg" xmlns:xlink="http://www.w3.org/1999/xlink">
<g id="graph0" class="graph" transform="scale(2.014 2.014) rotate(0) translate(4 94)">
<title>%3</title>
<!-- x -->
<g id="node1" class="node">
<title>x</title>
<polygon fill="transparent" stroke="transparent" points="54,-63 0,-63 0,-27 54,-27 54,-63"/>
<text text-anchor="middle" x="27" y="-41.6" font-family="monospace" font-size="13.00" fill="#000000">x</text>
</g>
<!-- v1 -->
<g id="node2" class="node">
<title>v1</title>
<polygon fill="#ffffff" stroke="#000000" points="112,-56 90,-56 90,-34 112,-34 112,-56"/>
<text text-anchor="middle" x="101" y="-41.6" font-family="monospace" font-size="13.00" fill="#000000">⬤</text>
</g>
<!-- x&#45;&gt;v1 -->
<g id="edge1" class="edge">
<title>x&#45;&gt;v1</title>
<path fill="none" stroke="#000000" d="M45.2921,-45C55.5842,-45 68.4969,-45 79.2984,-45"/>
<polygon fill="#000000" stroke="#000000" points="79.5921,-48.5001 89.5921,-45 79.5921,-41.5001 79.5921,-48.5001"/>
</g>
<!-- holamanolo -->
<g id="node3" class="node">
<title>holamanolo</title>
<ellipse fill="#ffffff" stroke="#000000" cx="213" cy="-72" rx="65" ry="18"/>
<text text-anchor="middle" x="213" y="-68.6" font-family="monospace" font-size="13.00" fill="#000000">&#39;hola manolo&#39;</text>
</g>
<!-- v1&#45;&gt;holamanolo -->
<g id="edge2" class="edge">
<title>v1&#45;&gt;holamanolo</title>
<path fill="none" stroke="#000000" d="M112.1485,-47.6876C122.2289,-50.1177 137.9051,-53.8968 153.9183,-57.7571"/>
<polygon fill="#000000" stroke="#000000" points="153.3436,-61.2187 163.8854,-60.1599 154.9841,-54.4137 153.3436,-61.2187"/>
</g>
<!-- hola -->
<g id="node4" class="node">
<title>hola</title>
<ellipse fill="#ffffff" stroke="#000000" cx="213" cy="-18" rx="29" ry="18"/>
<text text-anchor="middle" x="213" y="-14.6" font-family="monospace" font-size="13.00" fill="#000000">&#39;hola&#39;</text>
</g>
<!-- v1&#45;&gt;hola -->
<g id="edge3" class="edge">
<title>v1&#45;&gt;hola</title>
<path fill="none" stroke="#c0c0c0" stroke-dasharray="5,2" d="M112.1485,-42.3124C126.9268,-38.7498 153.7318,-32.2879 175.9939,-26.9211"/>
<polygon fill="#c0c0c0" stroke="#c0c0c0" points="176.942,-30.2929 185.8433,-24.5467 175.3015,-23.4878 176.942,-30.2929"/>
</g>
</g>
</svg>
