<?xml version="1.0" encoding="UTF-8" standalone="no"?>
<!DOCTYPE svg PUBLIC "-//W3C//DTD SVG 1.1//EN"
 "http://www.w3.org/Graphics/SVG/1.1/DTD/svg11.dtd">
<!-- Generated by graphviz version 14.1.1 (0)
 -->
<!-- Pages: 1 -->
<svg width="104pt" height="119pt"
 viewBox="0.00 0.00 104.00 119.00" xmlns="http://www.w3.org/2000/svg" xmlns:xlink="http://www.w3.org/1999/xlink">
<g id="graph0" class="graph" transform="scale(1 1) rotate(0) translate(4 114.5)">
<!-- y -->
<g id="node1" class="node">
<title>y</title>
<polygon fill="white" stroke="black" points="0,-1.45 0,-23.05 36,-23.05 36,-1.45 0,-1.45"/>
<text xml:space="preserve" text-anchor="middle" x="9.25" y="-7.7" font-family="monospace" font-size="13.00">y</text>
<polyline fill="none" stroke="black" points="18.5,-0.55 18.5,-23.05"/>
<text xml:space="preserve" text-anchor="middle" x="27.25" y="-6.2" font-family="monospace" font-size="13.00">⬤</text>
</g>
<!-- 5 -->
<g id="node3" class="node">
<title>5</title>
<ellipse fill="white" stroke="black" cx="83.75" cy="-12.25" rx="10.8" ry="10.8"/>
<text xml:space="preserve" text-anchor="middle" x="83.75" y="-8.15" font-family="monospace" font-size="13.00">5</text>
</g>
<!-- y&#45;&gt;5 -->
<g id="edge3" class="edge">
<title>y:f1&#45;&gt;5</title>
<path fill="none" stroke="black" d="M36,-11.8C36,-11.8 49.57,-11.93 62.09,-12.05"/>
<polygon fill="black" stroke="black" points="61.74,-15.55 71.78,-12.14 61.81,-8.55 61.74,-15.55"/>
</g>
<!-- x -->
<g id="node2" class="node">
<title>x</title>
<polygon fill="white" stroke="black" points="0,-65.45 0,-87.05 36,-87.05 36,-65.45 0,-65.45"/>
<text xml:space="preserve" text-anchor="middle" x="9.25" y="-71.7" font-family="monospace" font-size="13.00">x</text>
<polyline fill="none" stroke="black" points="18.5,-64.55 18.5,-87.05"/>
<text xml:space="preserve" text-anchor="middle" x="27.25" y="-70.2" font-family="monospace" font-size="13.00">⬤</text>
</g>
<!-- 4 -->
<g id="node4" class="node">
<title>4</title>
<ellipse fill="white" stroke="black" cx="83.75" cy="-98.25" rx="10.8" ry="10.8"/>
<text xml:space="preserve" text-anchor="middle" x="83.75" y="-94.15" font-family="monospace" font-size="13.00">4</text>
</g>
<!-- x&#45;&gt;4 -->
<g id="edge2" class="edge">
<title>x:f1&#45;&gt;4</title>
<path fill="none" stroke="grey" stroke-dasharray="5,2" d="M36,-75.8C36,-75.8 51.06,-83.03 64.09,-89.29"/>
<polygon fill="grey" stroke="grey" points="62.28,-92.3 72.81,-93.48 65.31,-85.99 62.28,-92.3"/>
</g>
<!-- 7 -->
<g id="node5" class="node">
<title>7</title>
<ellipse fill="white" stroke="black" cx="83.75" cy="-55.25" rx="10.8" ry="10.8"/>
<text xml:space="preserve" text-anchor="middle" x="83.75" y="-51.15" font-family="monospace" font-size="13.00">7</text>
</g>
<!-- x&#45;&gt;7 -->
<g id="edge1" class="edge">
<title>x:f1&#45;&gt;7</title>
<path fill="none" stroke="black" d="M36,-75.8C36,-75.8 50.45,-69.45 63.28,-63.81"/>
<polygon fill="black" stroke="black" points="64.6,-67.05 72.35,-59.82 61.79,-60.64 64.6,-67.05"/>
</g>
</g>
</svg>
