<?xml version="1.0" encoding="UTF-8" standalone="no"?>
<!DOCTYPE svg PUBLIC "-//W3C//DTD SVG 1.1//EN"
 "http://www.w3.org/Graphics/SVG/1.1/DTD/svg11.dtd">
<!-- Generated by graphviz version 2.43.0 (0)
 -->
<!-- Title: %3 Pages: 1 -->
<svg width="195pt" height="98pt"
 viewBox="0.00 0.00 195.00 98.00" xmlns="http://www.w3.org/2000/svg" xmlns:xlink="http://www.w3.org/1999/xlink">
<g id="graph0" class="graph" transform="scale(1 1) rotate(0) translate(4 94)">
<title>%3</title>
<!-- x -->
<g id="node1" class="node">
<title>x</title>
<polygon fill="transparent" stroke="transparent" points="54,-36 0,-36 0,0 54,0 54,-36"/>
<text text-anchor="middle" x="27" y="-14.6" font-family="monospace" font-size="13.00">x</text>
</g>
<!-- v1 -->
<g id="node5" class="node">
<title>v1</title>
<polygon fill="white" stroke="black" points="112,-29 90,-29 90,-7 112,-7 112,-29"/>
<text text-anchor="middle" x="101" y="-14.6" font-family="monospace" font-size="13.00">⬤</text>
</g>
<!-- x&#45;&gt;v1 -->
<g id="edge1" class="edge">
<title>x&#45;&gt;v1</title>
<path fill="none" stroke="black" d="M45.06,-18C55.43,-18 68.73,-18 79.65,-18"/>
<polygon fill="black" stroke="black" points="79.94,-21.5 89.94,-18 79.94,-14.5 79.94,-21.5"/>
</g>
<!-- y -->
<g id="node2" class="node">
<title>y</title>
<polygon fill="transparent" stroke="transparent" points="54,-90 0,-90 0,-54 54,-54 54,-90"/>
<text text-anchor="middle" x="27" y="-68.6" font-family="monospace" font-size="13.00">y</text>
</g>
<!-- v2 -->
<g id="node6" class="node">
<title>v2</title>
<polygon fill="white" stroke="black" points="112,-83 90,-83 90,-61 112,-61 112,-83"/>
<text text-anchor="middle" x="101" y="-68.6" font-family="monospace" font-size="13.00">⬤</text>
</g>
<!-- y&#45;&gt;v2 -->
<g id="edge3" class="edge">
<title>y&#45;&gt;v2</title>
<path fill="none" stroke="black" d="M45.06,-72C55.43,-72 68.73,-72 79.65,-72"/>
<polygon fill="black" stroke="black" points="79.94,-75.5 89.94,-72 79.94,-68.5 79.94,-75.5"/>
</g>
<!-- c1 -->
<g id="node3" class="node">
<title>c1</title>
<ellipse fill="white" stroke="black" cx="167.5" cy="-18" rx="18" ry="18"/>
<text text-anchor="middle" x="167.5" y="-14.6" font-family="monospace" font-size="13.00">480</text>
</g>
<!-- c2 -->
<g id="node4" class="node">
<title>c2</title>
<ellipse fill="white" stroke="black" cx="167.5" cy="-72" rx="18" ry="18"/>
<text text-anchor="middle" x="167.5" y="-68.6" font-family="monospace" font-size="13.00">480</text>
</g>
<!-- v1&#45;&gt;c1 -->
<g id="edge2" class="edge">
<title>v1&#45;&gt;c1</title>
<path fill="none" stroke="black" d="M112.08,-18C119.42,-18 129.72,-18 139.39,-18"/>
<polygon fill="black" stroke="black" points="139.47,-21.5 149.47,-18 139.47,-14.5 139.47,-21.5"/>
</g>
<!-- v2&#45;&gt;c2 -->
<g id="edge4" class="edge">
<title>v2&#45;&gt;c2</title>
<path fill="none" stroke="black" d="M112.08,-72C119.42,-72 129.72,-72 139.39,-72"/>
<polygon fill="black" stroke="black" points="139.47,-75.5 149.47,-72 139.47,-68.5 139.47,-75.5"/>
</g>
</g>
</svg>
