<?xml version="1.0" encoding="UTF-8" standalone="no"?>
<!DOCTYPE svg PUBLIC "-//W3C//DTD SVG 1.1//EN"
 "http://www.w3.org/Graphics/SVG/1.1/DTD/svg11.dtd">
<!-- Generated by graphviz version 14.1.1 (0)
 -->
<!-- Pages: 1 -->
<svg width="119pt" height="98pt"
 viewBox="0.00 0.00 119.00 98.00" xmlns="http://www.w3.org/2000/svg" xmlns:xlink="http://www.w3.org/1999/xlink">
<g id="graph0" class="graph" transform="scale(1 1) rotate(0) translate(4 94)">
<!-- y -->
<g id="node1" class="node">
<title>y</title>
<polygon fill="white" stroke="black" points="0,-7.2 0,-28.8 36,-28.8 36,-7.2 0,-7.2"/>
<text xml:space="preserve" text-anchor="middle" x="9.25" y="-13.45" font-family="monospace" font-size="13.00">y</text>
<polyline fill="none" stroke="black" points="18.5,-6.3 18.5,-28.8"/>
<text xml:space="preserve" text-anchor="middle" x="27.25" y="-11.95" font-family="monospace" font-size="13.00">⬤</text>
</g>
<!-- c2 -->
<g id="node4" class="node">
<title>c2</title>
<ellipse fill="white" stroke="black" cx="91.25" cy="-18" rx="18" ry="18"/>
<text xml:space="preserve" text-anchor="middle" x="91.25" y="-13.9" font-family="monospace" font-size="13.00">480</text>
</g>
<!-- y&#45;&gt;c2 -->
<g id="edge2" class="edge">
<title>y:f1&#45;&gt;c2</title>
<path fill="none" stroke="black" d="M36,-17.55C44.58,-17.55 53.92,-17.61 62.39,-17.68"/>
<polygon fill="black" stroke="black" points="62.08,-21.18 72.12,-17.78 62.15,-14.18 62.08,-21.18"/>
</g>
<!-- x -->
<g id="node2" class="node">
<title>x</title>
<polygon fill="white" stroke="black" points="0,-61.2 0,-82.8 36,-82.8 36,-61.2 0,-61.2"/>
<text xml:space="preserve" text-anchor="middle" x="9.25" y="-67.45" font-family="monospace" font-size="13.00">x</text>
<polyline fill="none" stroke="black" points="18.5,-60.3 18.5,-82.8"/>
<text xml:space="preserve" text-anchor="middle" x="27.25" y="-65.95" font-family="monospace" font-size="13.00">⬤</text>
</g>
<!-- c1 -->
<g id="node3" class="node">
<title>c1</title>
<ellipse fill="white" stroke="black" cx="91.25" cy="-72" rx="18" ry="18"/>
<text xml:space="preserve" text-anchor="middle" x="91.25" y="-67.9" font-family="monospace" font-size="13.00">480</text>
</g>
<!-- x&#45;&gt;c1 -->
<g id="edge1" class="edge">
<title>x:f1&#45;&gt;c1</title>
<path fill="none" stroke="black" d="M36,-71.55C44.58,-71.55 53.92,-71.61 62.39,-71.68"/>
<polygon fill="black" stroke="black" points="62.08,-75.18 72.12,-71.78 62.15,-68.18 62.08,-75.18"/>
</g>
</g>
</svg>
