<?xml version="1.0" encoding="UTF-8" standalone="no"?>
<!DOCTYPE svg PUBLIC "-//W3C//DTD SVG 1.1//EN"
 "http://www.w3.org/Graphics/SVG/1.1/DTD/svg11.dtd">
<!-- Generated by graphviz version 2.43.0 (0)
 -->
<!-- Title: %3 Pages: 1 -->
<svg width="210pt" height="98pt"
 viewBox="0.00 0.00 210.00 98.00" xmlns="http://www.w3.org/2000/svg" xmlns:xlink="http://www.w3.org/1999/xlink">
<g id="graph0" class="graph" transform="scale(1 1) rotate(0) translate(4 94)">
<title>%3</title>
<!-- x -->
<g id="node1" class="node">
<title>x</title>
<polygon fill="white" stroke="black" points="0,-34 0,-56 36,-56 36,-34 0,-34"/>
<text text-anchor="middle" x="9" y="-41.6" font-family="monospace" font-size="13.00">x</text>
<polyline fill="none" stroke="black" points="18,-34 18,-56 "/>
<text text-anchor="middle" x="27" y="-41.6" font-family="monospace" font-size="13.00">⬤</text>
</g>
<!-- hola -->
<g id="node2" class="node">
<title>hola</title>
<ellipse fill="white" stroke="black" cx="137" cy="-72" rx="29" ry="18"/>
<text text-anchor="middle" x="137" y="-68.6" font-family="monospace" font-size="13.00">&#39;hola&#39;</text>
</g>
<!-- x&#45;&gt;hola -->
<g id="edge1" class="edge">
<title>x:f1&#45;&gt;hola</title>
<path fill="none" stroke="grey" stroke-dasharray="5,2" d="M36,-45C36,-45 71.7,-54.64 100.44,-62.4"/>
<polygon fill="grey" stroke="grey" points="99.68,-65.82 110.25,-65.05 101.51,-59.06 99.68,-65.82"/>
</g>
<!-- holamanolo -->
<g id="node3" class="node">
<title>holamanolo</title>
<ellipse fill="white" stroke="black" cx="137" cy="-18" rx="65" ry="18"/>
<text text-anchor="middle" x="137" y="-14.6" font-family="monospace" font-size="13.00">&#39;hola manolo&#39;</text>
</g>
<!-- x&#45;&gt;holamanolo -->
<g id="edge2" class="edge">
<title>x:f1&#45;&gt;holamanolo</title>
<path fill="none" stroke="black" d="M36,-45C36,-45 57.13,-39.29 79.97,-33.13"/>
<polygon fill="black" stroke="black" points="81.06,-36.46 89.81,-30.47 79.24,-29.7 81.06,-36.46"/>
</g>
</g>
</svg>
