<?xml version="1.0" encoding="UTF-8" standalone="no"?>
<!DOCTYPE svg PUBLIC "-//W3C//DTD SVG 1.1//EN"
 "http://www.w3.org/Graphics/SVG/1.1/DTD/svg11.dtd">
<!-- Generated by graphviz version 2.43.0 (0)
 -->
<!-- Title: %3 Pages: 1 -->
<svg width="180pt" height="130pt"
 viewBox="0.00 0.00 180.00 130.00" xmlns="http://www.w3.org/2000/svg" xmlns:xlink="http://www.w3.org/1999/xlink">
<g id="graph0" class="graph" transform="scale(1 1) rotate(0) translate(4 126)">
<title>%3</title>
<!-- y -->
<g id="node1" class="node">
<title>y</title>
<polygon fill="transparent" stroke="transparent" points="54,-36 0,-36 0,0 54,0 54,-36"/>
<text text-anchor="middle" x="27" y="-14.6" font-family="monospace" font-size="13.00">y</text>
</g>
<!-- v2 -->
<g id="node7" class="node">
<title>v2</title>
<polygon fill="white" stroke="black" points="112,-29 90,-29 90,-7 112,-7 112,-29"/>
<text text-anchor="middle" x="101" y="-14.6" font-family="monospace" font-size="13.00">⬤</text>
</g>
<!-- y&#45;&gt;v2 -->
<g id="edge4" class="edge">
<title>y&#45;&gt;v2</title>
<path fill="none" stroke="black" d="M45.06,-18C55.43,-18 68.73,-18 79.65,-18"/>
<polygon fill="black" stroke="black" points="79.94,-21.5 89.94,-18 79.94,-14.5 79.94,-21.5"/>
</g>
<!-- x -->
<g id="node2" class="node">
<title>x</title>
<polygon fill="transparent" stroke="transparent" points="54,-103 0,-103 0,-67 54,-67 54,-103"/>
<text text-anchor="middle" x="27" y="-81.6" font-family="monospace" font-size="13.00">x</text>
</g>
<!-- v1 -->
<g id="node6" class="node">
<title>v1</title>
<polygon fill="white" stroke="black" points="112,-96 90,-96 90,-74 112,-74 112,-96"/>
<text text-anchor="middle" x="101" y="-81.6" font-family="monospace" font-size="13.00">⬤</text>
</g>
<!-- x&#45;&gt;v1 -->
<g id="edge1" class="edge">
<title>x&#45;&gt;v1</title>
<path fill="none" stroke="black" d="M45.06,-85C55.43,-85 68.73,-85 79.65,-85"/>
<polygon fill="black" stroke="black" points="79.94,-88.5 89.94,-85 79.94,-81.5 79.94,-88.5"/>
</g>
<!-- c2 -->
<g id="node3" class="node">
<title>c2</title>
<ellipse fill="white" stroke="black" cx="160" cy="-18" rx="11" ry="11"/>
<text text-anchor="middle" x="160" y="-14.6" font-family="monospace" font-size="13.00">5</text>
</g>
<!-- c1 -->
<g id="node4" class="node">
<title>c1</title>
<ellipse fill="white" stroke="black" cx="160" cy="-111" rx="11" ry="11"/>
<text text-anchor="middle" x="160" y="-107.6" font-family="monospace" font-size="13.00">7</text>
</g>
<!-- 4 -->
<g id="node5" class="node">
<title>4</title>
<ellipse fill="white" stroke="black" cx="160" cy="-71" rx="11" ry="11"/>
<text text-anchor="middle" x="160" y="-67.6" font-family="monospace" font-size="13.00">4</text>
</g>
<!-- v1&#45;&gt;c1 -->
<g id="edge2" class="edge">
<title>v1&#45;&gt;c1</title>
<path fill="none" stroke="black" d="M112.19,-89.65C120,-93.21 130.98,-98.22 140.35,-102.49"/>
<polygon fill="black" stroke="black" points="139.1,-105.77 149.65,-106.74 142.01,-99.4 139.1,-105.77"/>
</g>
<!-- v1&#45;&gt;4 -->
<g id="edge3" class="edge">
<title>v1&#45;&gt;4</title>
<path fill="none" stroke="grey" stroke-dasharray="5,2" d="M112.19,-82.5C119.65,-80.67 130,-78.12 139.08,-75.89"/>
<polygon fill="grey" stroke="grey" points="140.02,-79.27 148.9,-73.48 138.35,-72.47 140.02,-79.27"/>
</g>
<!-- v2&#45;&gt;c2 -->
<g id="edge5" class="edge">
<title>v2&#45;&gt;c2</title>
<path fill="none" stroke="black" d="M112.19,-18C119.57,-18 129.78,-18 138.79,-18"/>
<polygon fill="black" stroke="black" points="138.9,-21.5 148.9,-18 138.9,-14.5 138.9,-21.5"/>
</g>
</g>
</svg>
