<?xml version="1.0" encoding="UTF-8" standalone="no"?>
<!DOCTYPE svg PUBLIC "-//W3C//DTD SVG 1.1//EN"
 "http://www.w3.org/Graphics/SVG/1.1/DTD/svg11.dtd">
<!-- Generated by graphviz version 2.43.0 (0)
 -->
<!-- Title: %3 Pages: 1 -->
<svg width="104pt" height="111pt"
 viewBox="0.00 0.00 104.00 110.50" xmlns="http://www.w3.org/2000/svg" xmlns:xlink="http://www.w3.org/1999/xlink">
<g id="graph0" class="graph" transform="scale(1 1) rotate(0) translate(4 106.5)">
<title>%3</title>
<!-- y -->
<g id="node1" class="node">
<title>y</title>
<polygon fill="white" stroke="black" points="0,-0.5 0,-22.5 36,-22.5 36,-0.5 0,-0.5"/>
<text text-anchor="middle" x="9" y="-8.1" font-family="monospace" font-size="13.00">y</text>
<polyline fill="none" stroke="black" points="18,-0.5 18,-22.5 "/>
<text text-anchor="middle" x="27" y="-8.1" font-family="monospace" font-size="13.00">⬤</text>
</g>
<!-- 5 -->
<g id="node3" class="node">
<title>5</title>
<ellipse fill="white" stroke="black" cx="84" cy="-11.5" rx="11" ry="11"/>
<text text-anchor="middle" x="84" y="-8.1" font-family="monospace" font-size="13.00">5</text>
</g>
<!-- y&#45;&gt;5 -->
<g id="edge3" class="edge">
<title>y:f1&#45;&gt;5</title>
<path fill="none" stroke="black" d="M36,-11.5C36,-11.5 49.87,-11.5 62.54,-11.5"/>
<polygon fill="black" stroke="black" points="62.57,-15 72.57,-11.5 62.57,-8 62.57,-15"/>
</g>
<!-- x -->
<g id="node2" class="node">
<title>x</title>
<polygon fill="white" stroke="black" points="0,-60.5 0,-82.5 36,-82.5 36,-60.5 0,-60.5"/>
<text text-anchor="middle" x="9" y="-68.1" font-family="monospace" font-size="13.00">x</text>
<polyline fill="none" stroke="black" points="18,-60.5 18,-82.5 "/>
<text text-anchor="middle" x="27" y="-68.1" font-family="monospace" font-size="13.00">⬤</text>
</g>
<!-- 7 -->
<g id="node4" class="node">
<title>7</title>
<ellipse fill="white" stroke="black" cx="84" cy="-91.5" rx="11" ry="11"/>
<text text-anchor="middle" x="84" y="-88.1" font-family="monospace" font-size="13.00">7</text>
</g>
<!-- x&#45;&gt;7 -->
<g id="edge1" class="edge">
<title>x:f1&#45;&gt;7</title>
<path fill="none" stroke="black" d="M36,-71.5C36,-71.5 51.08,-77.92 64.16,-83.48"/>
<polygon fill="black" stroke="black" points="62.92,-86.76 73.49,-87.45 65.66,-80.32 62.92,-86.76"/>
</g>
<!-- 4 -->
<g id="node5" class="node">
<title>4</title>
<ellipse fill="white" stroke="black" cx="84" cy="-51.5" rx="11" ry="11"/>
<text text-anchor="middle" x="84" y="-48.1" font-family="monospace" font-size="13.00">4</text>
</g>
<!-- x&#45;&gt;4 -->
<g id="edge2" class="edge">
<title>x:f1&#45;&gt;4</title>
<path fill="none" stroke="grey" stroke-dasharray="5,2" d="M36,-71.5C36,-71.5 51.08,-65.08 64.16,-59.52"/>
<polygon fill="grey" stroke="grey" points="65.66,-62.68 73.49,-55.55 62.92,-56.24 65.66,-62.68"/>
</g>
</g>
</svg>
