<?xml version="1.0" encoding="UTF-8" standalone="no"?>
<!DOCTYPE svg PUBLIC "-//W3C//DTD SVG 1.1//EN"
 "http://www.w3.org/Graphics/SVG/1.1/DTD/svg11.dtd">
<!-- Generated by graphviz version 14.1.1 (0)
 -->
<!-- Pages: 1 -->
<svg width="104pt" height="72pt"
 viewBox="0.00 0.00 104.00 72.00" xmlns="http://www.w3.org/2000/svg" xmlns:xlink="http://www.w3.org/1999/xlink">
<g id="graph0" class="graph" transform="scale(1 1) rotate(0) translate(4 67.6)">
<!-- x -->
<g id="node1" class="node">
<title>x</title>
<polygon fill="white" stroke="black" points="0,-41.5 0,-63.1 36,-63.1 36,-41.5 0,-41.5"/>
<text xml:space="preserve" text-anchor="middle" x="9.25" y="-47.75" font-family="monospace" font-size="13.00">x</text>
<polyline fill="none" stroke="black" points="18.5,-40.6 18.5,-63.1"/>
<text xml:space="preserve" text-anchor="middle" x="27.25" y="-46.25" font-family="monospace" font-size="13.00">⬤</text>
</g>
<!-- 5 -->
<g id="node3" class="node">
<title>5</title>
<ellipse fill="white" stroke="black" cx="83.75" cy="-31.3" rx="10.8" ry="10.8"/>
<text xml:space="preserve" text-anchor="middle" x="83.75" y="-27.2" font-family="monospace" font-size="13.00">5</text>
</g>
<!-- x&#45;&gt;5 -->
<g id="edge1" class="edge">
<title>x:f1&#45;&gt;5</title>
<path fill="none" stroke="black" d="M36,-51.85C36,-51.85 50.45,-45.5 63.28,-39.86"/>
<polygon fill="black" stroke="black" points="64.6,-43.1 72.35,-35.87 61.79,-36.69 64.6,-43.1"/>
</g>
<!-- y -->
<g id="node2" class="node">
<title>y</title>
<polygon fill="white" stroke="black" points="0,-0.5 0,-22.1 36,-22.1 36,-0.5 0,-0.5"/>
<text xml:space="preserve" text-anchor="middle" x="9.25" y="-6.75" font-family="monospace" font-size="13.00">y</text>
<polyline fill="none" stroke="black" points="18.5,0.4 18.5,-22.1"/>
<text xml:space="preserve" text-anchor="middle" x="27.25" y="-5.25" font-family="monospace" font-size="13.00">⬤</text>
</g>
<!-- y&#45;&gt;5 -->
<g id="edge2" class="edge">
<title>y:f1&#45;&gt;5</title>
<path fill="none" stroke="black" d="M36,-10.85C36,-10.85 50.45,-17.17 63.28,-22.78"/>
<polygon fill="black" stroke="black" points="61.78,-25.95 72.35,-26.75 64.59,-19.54 61.78,-25.95"/>
</g>
</g>
</svg>
