<?xml version="1.0" encoding="UTF-8" standalone="no"?>
<!DOCTYPE svg PUBLIC "-//W3C//DTD SVG 1.1//EN"
 "http://www.w3.org/Graphics/SVG/1.1/DTD/svg11.dtd">
<!-- Generated by graphviz version 2.40.1 (20161225.0304)
 -->
<!-- Title: %3 Pages: 1 -->
<svg width="576pt" height="70pt"
 viewBox="0.00 0.00 576.00 70.01" xmlns="http://www.w3.org/2000/svg" xmlns:xlink="http://www.w3.org/1999/xlink">
<g id="graph0" class="graph" transform="scale(1.5912 1.5912) rotate(0) translate(4 40)">
<title>%3</title>
<!-- F -->
<g id="node1" class="node">
<title>F</title>
<polygon fill="#f0f8ff" stroke="#000000" points="103,-36 0,-36 0,0 109,0 109,-30 103,-36"/>
<polyline fill="none" stroke="#000000" points="103,-36 103,-30 "/>
<polyline fill="none" stroke="#000000" points="109,-30 103,-30 "/>
<text text-anchor="middle" x="54.5" y="-21.6" font-family="Lato" font-size="13.00" fill="#000000">Código fuente</text>
<text text-anchor="middle" x="54.5" y="-7.6" font-family="Lato" font-size="13.00" fill="#000000">(lenguaje fuente)</text>
</g>
<!-- I -->
<g id="node2" class="node">
<title>I</title>
<polygon fill="#ffffff" stroke="#000000" points="354,-36 145,-36 145,0 354,0 354,-36"/>
<text text-anchor="middle" x="249.5" y="-21.6" font-family="Lato" font-size="13.00" fill="#000000">Intérprete</text>
<text text-anchor="middle" x="249.5" y="-7.6" font-family="Lato" font-size="13.00" fill="#000000">(ejecuta el programa directamente)</text>
</g>
<!-- F&#45;&gt;I -->
<g id="edge1" class="edge">
<title>F&#45;&gt;I</title>
<path fill="none" stroke="#000000" d="M109.0777,-18C117.264,-18 125.9546,-18 134.8417,-18"/>
<polygon fill="#000000" stroke="#000000" points="134.9425,-21.5001 144.9425,-18 134.9424,-14.5001 134.9425,-21.5001"/>
</g>
</g>
</svg>
