<?xml version="1.0" encoding="UTF-8" standalone="no"?>
<!DOCTYPE svg PUBLIC "-//W3C//DTD SVG 1.1//EN"
 "http://www.w3.org/Graphics/SVG/1.1/DTD/svg11.dtd">
<!-- Generated by graphviz version 14.1.1 (0)
 -->
<!-- Pages: 1 -->
<svg width="369pt" height="49pt"
 viewBox="0.00 0.00 369.00 49.00" xmlns="http://www.w3.org/2000/svg" xmlns:xlink="http://www.w3.org/1999/xlink">
<g id="graph0" class="graph" transform="scale(1 1) rotate(0) translate(4 45)">
<!-- F -->
<g id="node1" class="node">
<title>F</title>
<polygon fill="aliceblue" stroke="black" points="106,-41 0,-41 0,0 112,0 112,-35 106,-41"/>
<polyline fill="none" stroke="black" points="106,-41 106,-35"/>
<polyline fill="none" stroke="black" points="112,-35 106,-35"/>
<text xml:space="preserve" text-anchor="middle" x="56" y="-24.65" font-family="Lato" font-size="13.00">Código fuente</text>
<text xml:space="preserve" text-anchor="middle" x="56" y="-8.15" font-family="Lato" font-size="13.00">(lenguaje fuente)</text>
</g>
<!-- I -->
<g id="node2" class="node">
<title>I</title>
<polygon fill="white" stroke="black" points="360.5,-41 148,-41 148,0 360.5,0 360.5,-41"/>
<text xml:space="preserve" text-anchor="middle" x="254.25" y="-24.65" font-family="Lato" font-size="13.00">Intérprete</text>
<text xml:space="preserve" text-anchor="middle" x="254.25" y="-8.15" font-family="Lato" font-size="13.00">(ejecuta el programa directamente)</text>
</g>
<!-- F&#45;&gt;I -->
<g id="edge1" class="edge">
<title>F&#45;&gt;I</title>
<path fill="none" stroke="black" d="M112.45,-20.5C120.09,-20.5 128.15,-20.5 136.4,-20.5"/>
<polygon fill="black" stroke="black" points="136.23,-24 146.23,-20.5 136.23,-17 136.23,-24"/>
</g>
</g>
</svg>
