<?xml version="1.0" encoding="UTF-8" standalone="no"?>
<!DOCTYPE svg PUBLIC "-//W3C//DTD SVG 1.1//EN"
 "http://www.w3.org/Graphics/SVG/1.1/DTD/svg11.dtd">
<!-- Generated by graphviz version 2.43.0 (0)
 -->
<!-- Title: %3 Pages: 1 -->
<svg width="370pt" height="44pt"
 viewBox="0.00 0.00 370.00 44.00" xmlns="http://www.w3.org/2000/svg" xmlns:xlink="http://www.w3.org/1999/xlink">
<g id="graph0" class="graph" transform="scale(1 1) rotate(0) translate(4 40)">
<title>%3</title>
<!-- F -->
<g id="node1" class="node">
<title>F</title>
<polygon fill="aliceblue" stroke="black" points="107,-36 0,-36 0,0 113,0 113,-30 107,-36"/>
<polyline fill="none" stroke="black" points="107,-36 107,-30 "/>
<polyline fill="none" stroke="black" points="113,-30 107,-30 "/>
<text text-anchor="middle" x="56.5" y="-21.6" font-family="Lato" font-size="13.00">Código fuente</text>
<text text-anchor="middle" x="56.5" y="-7.6" font-family="Lato" font-size="13.00">(lenguaje fuente)</text>
</g>
<!-- I -->
<g id="node2" class="node">
<title>I</title>
<polygon fill="white" stroke="black" points="362,-36 149,-36 149,0 362,0 362,-36"/>
<text text-anchor="middle" x="255.5" y="-21.6" font-family="Lato" font-size="13.00">Intérprete</text>
<text text-anchor="middle" x="255.5" y="-7.6" font-family="Lato" font-size="13.00">(ejecuta el programa directamente)</text>
</g>
<!-- F&#45;&gt;I -->
<g id="edge1" class="edge">
<title>F&#45;&gt;I</title>
<path fill="none" stroke="black" d="M113.16,-18C121.35,-18 130.02,-18 138.89,-18"/>
<polygon fill="black" stroke="black" points="138.96,-21.5 148.96,-18 138.96,-14.5 138.96,-21.5"/>
</g>
</g>
</svg>
