<?xml version="1.0" encoding="UTF-8" standalone="no"?>
<!DOCTYPE svg PUBLIC "-//W3C//DTD SVG 1.1//EN"
 "http://www.w3.org/Graphics/SVG/1.1/DTD/svg11.dtd">
<!-- Generated by graphviz version 2.43.0 (0)
 -->
<!-- Title: %3 Pages: 1 -->
<svg width="331pt" height="88pt"
 viewBox="0.00 0.00 331.00 88.00" xmlns="http://www.w3.org/2000/svg" xmlns:xlink="http://www.w3.org/1999/xlink">
<g id="graph0" class="graph" transform="scale(1 1) rotate(0) translate(4 84)">
<title>%3</title>
<!-- F -->
<g id="node1" class="node">
<title>F</title>
<polygon fill="aliceblue" stroke="black" points="93,-69 0,-69 0,-11 99,-11 99,-63 93,-69"/>
<polyline fill="none" stroke="black" points="93,-69 93,-63 "/>
<polyline fill="none" stroke="black" points="99,-63 93,-63 "/>
<text text-anchor="start" x="8.5" y="-55.6" font-family="Lato" font-size="13.00">Código fuente</text>
<text text-anchor="start" x="8" y="-42.6" font-family="Lato" font-size="13.00">(lenguaje Java)</text>
<text text-anchor="start" x="12" y="-18.2" font-family="monospace" font-size="11.00">fuente.java</text>
</g>
<!-- javac -->
<g id="node3" class="node">
<title>javac</title>
<polygon fill="white" stroke="black" points="189,-58 135,-58 135,-22 189,-22 189,-58"/>
<text text-anchor="middle" x="162" y="-36.6" font-family="monospace" font-size="13.00">javac</text>
</g>
<!-- F&#45;&gt;javac -->
<g id="edge1" class="edge">
<title>F&#45;&gt;javac</title>
<path fill="none" stroke="black" d="M99.29,-40C107.81,-40 116.54,-40 124.65,-40"/>
<polygon fill="black" stroke="black" points="124.89,-43.5 134.89,-40 124.89,-36.5 124.89,-43.5"/>
</g>
<!-- O -->
<g id="node2" class="node">
<title>O</title>
<polygon fill="aliceblue" stroke="black" points="317,-80 225,-80 225,0 323,0 323,-74 317,-80"/>
<polyline fill="none" stroke="black" points="317,-80 317,-74 "/>
<polyline fill="none" stroke="black" points="323,-74 317,-74 "/>
<text text-anchor="start" x="233.5" y="-66.6" font-family="Lato" font-size="13.00">Código objeto</text>
<text text-anchor="start" x="245.5" y="-53.6" font-family="Lato" font-size="13.00">(</text>
<text text-anchor="start" x="249.5" y="-53.6" font-family="Lato" font-style="italic" font-size="13.00">bytecode</text>
<text text-anchor="start" x="298.5" y="-53.6" font-family="Lato" font-size="13.00">)</text>
<text text-anchor="start" x="233" y="-29.2" font-family="monospace" font-size="11.00">clase1.class</text>
<text text-anchor="start" x="233" y="-18.2" font-family="monospace" font-size="11.00">clase2.class</text>
<text text-anchor="start" x="263.5" y="-7.2" font-family="monospace" font-size="11.00">...</text>
</g>
<!-- javac&#45;&gt;O -->
<g id="edge2" class="edge">
<title>javac&#45;&gt;O</title>
<path fill="none" stroke="black" d="M189.07,-40C196.82,-40 205.65,-40 214.6,-40"/>
<polygon fill="black" stroke="black" points="214.7,-43.5 224.7,-40 214.7,-36.5 214.7,-43.5"/>
</g>
</g>
</svg>
