<?xml version="1.0" encoding="UTF-8" standalone="no"?>
<!DOCTYPE svg PUBLIC "-//W3C//DTD SVG 1.1//EN"
 "http://www.w3.org/Graphics/SVG/1.1/DTD/svg11.dtd">
<!-- Generated by graphviz version 2.43.0 (0)
 -->
<!-- Title: %3 Pages: 1 -->
<svg width="337pt" height="66pt"
 viewBox="0.00 0.00 337.00 66.00" xmlns="http://www.w3.org/2000/svg" xmlns:xlink="http://www.w3.org/1999/xlink">
<g id="graph0" class="graph" transform="scale(1 1) rotate(0) translate(4 62)">
<title>%3</title>
<!-- F -->
<g id="node1" class="node">
<title>F</title>
<polygon fill="aliceblue" stroke="black" points="93,-58 0,-58 0,0 99,0 99,-52 93,-58"/>
<polyline fill="none" stroke="black" points="93,-58 93,-52 "/>
<polyline fill="none" stroke="black" points="99,-52 93,-52 "/>
<text text-anchor="start" x="8.5" y="-44.6" font-family="Lato" font-size="13.00">Código fuente</text>
<text text-anchor="start" x="8" y="-31.6" font-family="Lato" font-size="13.00">(lenguaje Java)</text>
<text text-anchor="start" x="8.5" y="-7.2" font-family="monospace" font-size="11.00">archivo.java</text>
</g>
<!-- javac -->
<g id="node3" class="node">
<title>javac</title>
<polygon fill="white" stroke="black" points="189,-47 135,-47 135,-11 189,-11 189,-47"/>
<text text-anchor="middle" x="162" y="-25.6" font-family="monospace" font-size="13.00">javac</text>
</g>
<!-- F&#45;&gt;javac -->
<g id="edge1" class="edge">
<title>F&#45;&gt;javac</title>
<path fill="none" stroke="black" d="M99.29,-29C107.81,-29 116.54,-29 124.65,-29"/>
<polygon fill="black" stroke="black" points="124.89,-32.5 134.89,-29 124.89,-25.5 124.89,-32.5"/>
</g>
<!-- O -->
<g id="node2" class="node">
<title>O</title>
<polygon fill="aliceblue" stroke="black" points="323,-58 225,-58 225,0 329,0 329,-52 323,-58"/>
<polyline fill="none" stroke="black" points="323,-58 323,-52 "/>
<polyline fill="none" stroke="black" points="329,-52 323,-52 "/>
<text text-anchor="start" x="236.5" y="-44.6" font-family="Lato" font-size="13.00">Código objeto</text>
<text text-anchor="start" x="248.5" y="-31.6" font-family="Lato" font-size="13.00">(</text>
<text text-anchor="start" x="252.5" y="-31.6" font-family="Lato" font-style="italic" font-size="13.00">bytecode</text>
<text text-anchor="start" x="301.5" y="-31.6" font-family="Lato" font-size="13.00">)</text>
<text text-anchor="start" x="233" y="-7.2" font-family="monospace" font-size="11.00">archivo.class</text>
</g>
<!-- javac&#45;&gt;O -->
<g id="edge2" class="edge">
<title>javac&#45;&gt;O</title>
<path fill="none" stroke="black" d="M189.21,-29C196.88,-29 205.62,-29 214.51,-29"/>
<polygon fill="black" stroke="black" points="214.58,-32.5 224.58,-29 214.58,-25.5 214.58,-32.5"/>
</g>
</g>
</svg>
