<?xml version="1.0" encoding="UTF-8" standalone="no"?>
<!DOCTYPE svg PUBLIC "-//W3C//DTD SVG 1.1//EN"
 "http://www.w3.org/Graphics/SVG/1.1/DTD/svg11.dtd">
<!-- Generated by graphviz version 14.1.1 (0)
 -->
<!-- Pages: 1 -->
<svg width="94pt" height="101pt"
 viewBox="0.00 0.00 94.00 101.00" xmlns="http://www.w3.org/2000/svg" xmlns:xlink="http://www.w3.org/1999/xlink">
<g id="graph0" class="graph" transform="scale(1 1) rotate(0) translate(4 97)">
<g id="clust1" class="cluster">
<title>cluster0</title>
<path fill="#fcfcfc" stroke="black" d="M20,-8C20,-8 66,-8 66,-8 72,-8 78,-14 78,-20 78,-20 78,-73 78,-73 78,-79 72,-85 66,-85 66,-85 20,-85 20,-85 14,-85 8,-79 8,-73 8,-73 8,-20 8,-20 8,-14 14,-8 20,-8"/>
<text xml:space="preserve" text-anchor="start" x="39.25" y="-68.7" font-family="Lato" font-style="italic" font-size="14.00">P</text>
</g>
<!-- Q -->
<g id="node1" class="node">
<title>Q</title>
<path fill="#e5e5e5" stroke="black" d="M58,-52C58,-52 28,-52 28,-52 22,-52 16,-46 16,-40 16,-40 16,-28 16,-28 16,-22 22,-16 28,-16 28,-16 58,-16 58,-16 64,-16 70,-22 70,-28 70,-28 70,-40 70,-40 70,-46 64,-52 58,-52"/>
<text xml:space="preserve" text-anchor="start" x="38.12" y="-30.9" font-family="Lato" font-style="italic" font-size="13.00">Q</text>
</g>
</g>
</svg>
