<?xml version="1.0" encoding="UTF-8" standalone="no"?>
<!DOCTYPE svg PUBLIC "-//W3C//DTD SVG 1.1//EN"
 "http://www.w3.org/Graphics/SVG/1.1/DTD/svg11.dtd">
<!-- Generated by graphviz version 2.40.1 (20161225.0304)
 -->
<!-- Title: %3 Pages: 1 -->
<svg width="547pt" height="576pt"
 viewBox="0.00 0.00 546.91 576.00" xmlns="http://www.w3.org/2000/svg" xmlns:xlink="http://www.w3.org/1999/xlink">
<g id="graph0" class="graph" transform="scale(5.8182 5.8182) rotate(0) translate(4 95)">
<title>%3</title>
<g id="clust1" class="cluster">
<title>cluster0</title>
<path fill="transparent" stroke="#000000" d="M20,-8C20,-8 66,-8 66,-8 72,-8 78,-14 78,-20 78,-20 78,-71 78,-71 78,-77 72,-83 66,-83 66,-83 20,-83 20,-83 14,-83 8,-77 8,-71 8,-71 8,-20 8,-20 8,-14 14,-8 20,-8"/>
<text text-anchor="start" x="38.5" y="-68.8" font-family="Lato" font-style="italic" font-size="14.00" fill="#000000">P</text>
</g>
<!-- Q -->
<g id="node1" class="node">
<title>Q</title>
<path fill="none" stroke="#000000" d="M58,-52C58,-52 28,-52 28,-52 22,-52 16,-46 16,-40 16,-40 16,-28 16,-28 16,-22 22,-16 28,-16 28,-16 58,-16 58,-16 64,-16 70,-22 70,-28 70,-28 70,-40 70,-40 70,-46 64,-52 58,-52"/>
<text text-anchor="start" x="38" y="-31.6" font-family="Lato" font-style="italic" font-size="13.00" fill="#000000">Q</text>
</g>
</g>
</svg>
