<?xml version="1.0" encoding="UTF-8" standalone="no"?>
<!DOCTYPE svg PUBLIC "-//W3C//DTD SVG 1.1//EN"
 "http://www.w3.org/Graphics/SVG/1.1/DTD/svg11.dtd">
<!-- Generated by graphviz version 2.43.0 (0)
 -->
<!-- Title: %3 Pages: 1 -->
<svg width="643pt" height="99pt"
 viewBox="0.00 0.00 643.00 99.00" xmlns="http://www.w3.org/2000/svg" xmlns:xlink="http://www.w3.org/1999/xlink">
<g id="graph0" class="graph" transform="scale(1 1) rotate(0) translate(4 95)">
<title>%3</title>
<g id="clust1" class="cluster">
<title>cluster0</title>
<polygon fill="#f2f2f2" stroke="black" points="357,-8 357,-83 627,-83 627,-8 357,-8"/>
<text text-anchor="middle" x="492" y="-67.8" font-family="Lato" font-size="14.00">JRE</text>
</g>
<!-- F -->
<g id="node1" class="node">
<title>F</title>
<polygon fill="aliceblue" stroke="black" points="93,-63 0,-63 0,-5 99,-5 99,-57 93,-63"/>
<polyline fill="none" stroke="black" points="93,-63 93,-57 "/>
<polyline fill="none" stroke="black" points="99,-57 93,-57 "/>
<text text-anchor="start" x="8.5" y="-49.6" font-family="Lato" font-size="13.00">C칩digo fuente</text>
<text text-anchor="start" x="8" y="-36.6" font-family="Lato" font-size="13.00">(lenguaje Java)</text>
<text text-anchor="start" x="8.5" y="-12.2" font-family="monospace" font-size="11.00">archivo.java</text>
</g>
<!-- javac -->
<g id="node5" class="node">
<title>javac</title>
<polygon fill="white" stroke="black" points="189,-52 135,-52 135,-16 189,-16 189,-52"/>
<text text-anchor="middle" x="162" y="-30.6" font-family="monospace" font-size="13.00">javac</text>
</g>
<!-- F&#45;&gt;javac -->
<g id="edge2" class="edge">
<title>F&#45;&gt;javac</title>
<path fill="none" stroke="black" d="M99.29,-34C107.81,-34 116.54,-34 124.65,-34"/>
<polygon fill="black" stroke="black" points="124.89,-37.5 134.89,-34 124.89,-30.5 124.89,-37.5"/>
</g>
<!-- O -->
<g id="node2" class="node">
<title>O</title>
<polygon fill="aliceblue" stroke="black" points="323,-63 225,-63 225,-5 329,-5 329,-57 323,-63"/>
<polyline fill="none" stroke="black" points="323,-63 323,-57 "/>
<polyline fill="none" stroke="black" points="329,-57 323,-57 "/>
<text text-anchor="start" x="236.5" y="-49.6" font-family="Lato" font-size="13.00">C칩digo objeto</text>
<text text-anchor="start" x="248.5" y="-36.6" font-family="Lato" font-size="13.00">(</text>
<text text-anchor="start" x="252.5" y="-36.6" font-family="Lato" font-style="italic" font-size="13.00">bytecode</text>
<text text-anchor="start" x="301.5" y="-36.6" font-family="Lato" font-size="13.00">)</text>
<text text-anchor="start" x="233" y="-12.2" font-family="monospace" font-size="11.00">archivo.class</text>
</g>
<!-- JIT -->
<g id="node4" class="node">
<title>JIT</title>
<polygon fill="white" stroke="black" points="419,-52 365,-52 365,-16 419,-16 419,-52"/>
<text text-anchor="middle" x="392" y="-30.6" font-family="Lato" font-size="13.00">JIT</text>
</g>
<!-- O&#45;&gt;JIT -->
<g id="edge4" class="edge">
<title>O&#45;&gt;JIT</title>
<path fill="none" stroke="black" d="M329.21,-34C337.82,-34 346.59,-34 354.72,-34"/>
<polygon fill="black" stroke="black" points="354.97,-37.5 364.97,-34 354.97,-30.5 354.97,-37.5"/>
</g>
<!-- N -->
<g id="node3" class="node">
<title>N</title>
<polygon fill="aliceblue" stroke="black" points="613,-52 455,-52 455,-16 619,-16 619,-46 613,-52"/>
<polyline fill="none" stroke="black" points="613,-52 613,-46 "/>
<polyline fill="none" stroke="black" points="619,-46 613,-46 "/>
<text text-anchor="start" x="496.5" y="-37.6" font-family="Lato" font-size="13.00">C칩digo objeto</text>
<text text-anchor="start" x="463" y="-23.6" font-family="Lato" font-size="13.00">(lenguaje m치quina nativo)</text>
</g>
<!-- JIT&#45;&gt;N -->
<g id="edge1" class="edge">
<title>JIT&#45;&gt;N</title>
<path fill="none" stroke="black" d="M419.23,-34C426.81,-34 435.54,-34 444.75,-34"/>
<polygon fill="black" stroke="black" points="444.89,-37.5 454.89,-34 444.89,-30.5 444.89,-37.5"/>
</g>
<!-- javac&#45;&gt;O -->
<g id="edge3" class="edge">
<title>javac&#45;&gt;O</title>
<path fill="none" stroke="black" d="M189.21,-34C196.88,-34 205.62,-34 214.51,-34"/>
<polygon fill="black" stroke="black" points="214.58,-37.5 224.58,-34 214.58,-30.5 214.58,-37.5"/>
</g>
</g>
</svg>
