<?xml version="1.0" encoding="UTF-8" standalone="no"?>
<!DOCTYPE svg PUBLIC "-//W3C//DTD SVG 1.1//EN"
 "http://www.w3.org/Graphics/SVG/1.1/DTD/svg11.dtd">
<!-- Generated by graphviz version 2.43.0 (0)
 -->
<!-- Title: %3 Pages: 1 -->
<svg width="699pt" height="99pt"
 viewBox="0.00 0.00 699.00 99.00" xmlns="http://www.w3.org/2000/svg" xmlns:xlink="http://www.w3.org/1999/xlink">
<g id="graph0" class="graph" transform="scale(1 1) rotate(0) translate(4 95)">
<title>%3</title>
<g id="clust1" class="cluster">
<title>cluster0</title>
<polygon fill="#f2f2f2" stroke="black" points="413,-8 413,-83 683,-83 683,-8 413,-8"/>
<text text-anchor="middle" x="548" y="-67.8" font-family="Lato" font-size="14.00">JRE</text>
</g>
<!-- F -->
<g id="node1" class="node">
<title>F</title>
<polygon fill="aliceblue" stroke="black" points="93,-63 0,-63 0,-5 99,-5 99,-57 93,-63"/>
<polyline fill="none" stroke="black" points="93,-63 93,-57 "/>
<polyline fill="none" stroke="black" points="99,-57 93,-57 "/>
<text text-anchor="start" x="8.5" y="-49.6" font-family="Lato" font-size="13.00">C칩digo fuente</text>
<text text-anchor="start" x="8" y="-36.6" font-family="Lato" font-size="13.00">(lenguaje Java)</text>
<text text-anchor="start" x="8.5" y="-12.2" font-family="monospace" font-size="11.00">archivo.java</text>
</g>
<!-- Compilador Java -->
<g id="node5" class="node">
<title>Compilador Java</title>
<polygon fill="white" stroke="black" points="245,-52 135,-52 135,-16 245,-16 245,-52"/>
<text text-anchor="middle" x="190" y="-30.6" font-family="Lato" font-size="13.00">Compilador Java</text>
</g>
<!-- F&#45;&gt;Compilador Java -->
<g id="edge2" class="edge">
<title>F&#45;&gt;Compilador Java</title>
<path fill="none" stroke="black" d="M99.33,-34C107.61,-34 116.33,-34 124.93,-34"/>
<polygon fill="black" stroke="black" points="124.95,-37.5 134.95,-34 124.95,-30.5 124.95,-37.5"/>
</g>
<!-- O -->
<g id="node2" class="node">
<title>O</title>
<polygon fill="aliceblue" stroke="black" points="379,-63 281,-63 281,-5 385,-5 385,-57 379,-63"/>
<polyline fill="none" stroke="black" points="379,-63 379,-57 "/>
<polyline fill="none" stroke="black" points="385,-57 379,-57 "/>
<text text-anchor="start" x="292.5" y="-49.6" font-family="Lato" font-size="13.00">C칩digo objeto</text>
<text text-anchor="start" x="304.5" y="-36.6" font-family="Lato" font-size="13.00">(</text>
<text text-anchor="start" x="308.5" y="-36.6" font-family="Lato" font-style="italic" font-size="13.00">bytecode</text>
<text text-anchor="start" x="357.5" y="-36.6" font-family="Lato" font-size="13.00">)</text>
<text text-anchor="start" x="289" y="-12.2" font-family="monospace" font-size="11.00">archivo.class</text>
</g>
<!-- JIT -->
<g id="node4" class="node">
<title>JIT</title>
<polygon fill="white" stroke="black" points="475,-52 421,-52 421,-16 475,-16 475,-52"/>
<text text-anchor="middle" x="448" y="-30.6" font-family="Lato" font-size="13.00">JIT</text>
</g>
<!-- O&#45;&gt;JIT -->
<g id="edge4" class="edge">
<title>O&#45;&gt;JIT</title>
<path fill="none" stroke="black" d="M385.21,-34C393.82,-34 402.59,-34 410.72,-34"/>
<polygon fill="black" stroke="black" points="410.97,-37.5 420.97,-34 410.97,-30.5 410.97,-37.5"/>
</g>
<!-- N -->
<g id="node3" class="node">
<title>N</title>
<polygon fill="aliceblue" stroke="black" points="669,-52 511,-52 511,-16 675,-16 675,-46 669,-52"/>
<polyline fill="none" stroke="black" points="669,-52 669,-46 "/>
<polyline fill="none" stroke="black" points="675,-46 669,-46 "/>
<text text-anchor="start" x="552.5" y="-37.6" font-family="Lato" font-size="13.00">C칩digo objeto</text>
<text text-anchor="start" x="519" y="-23.6" font-family="Lato" font-size="13.00">(lenguaje m치quina nativo)</text>
</g>
<!-- JIT&#45;&gt;N -->
<g id="edge1" class="edge">
<title>JIT&#45;&gt;N</title>
<path fill="none" stroke="black" d="M475.23,-34C482.81,-34 491.54,-34 500.75,-34"/>
<polygon fill="black" stroke="black" points="500.89,-37.5 510.89,-34 500.89,-30.5 500.89,-37.5"/>
</g>
<!-- Compilador Java&#45;&gt;O -->
<g id="edge3" class="edge">
<title>Compilador Java&#45;&gt;O</title>
<path fill="none" stroke="black" d="M245.11,-34C253.39,-34 261.99,-34 270.42,-34"/>
<polygon fill="black" stroke="black" points="270.58,-37.5 280.58,-34 270.58,-30.5 270.58,-37.5"/>
</g>
</g>
</svg>
