<?xml version="1.0" encoding="UTF-8" standalone="no"?>
<!DOCTYPE svg PUBLIC "-//W3C//DTD SVG 1.1//EN"
 "http://www.w3.org/Graphics/SVG/1.1/DTD/svg11.dtd">
<!-- Generated by graphviz version 2.42.4 (0)
 -->
<!-- Pages: 1 -->
<svg width="637pt" height="105pt"
 viewBox="0.00 0.00 637.00 105.00" xmlns="http://www.w3.org/2000/svg" xmlns:xlink="http://www.w3.org/1999/xlink">
<g id="graph0" class="graph" transform="scale(1 1) rotate(0) translate(4 101)">
<g id="clust1" class="cluster">
<title>cluster0</title>
<polygon fill="#f2f2f2" stroke="black" points="351,-14 351,-89 621,-89 621,-14 351,-14"/>
<text text-anchor="middle" x="486" y="-73.8" font-family="Lato" font-size="14.00">JRE</text>
</g>
<!-- F -->
<g id="node1" class="node">
<title>F</title>
<polygon fill="aliceblue" stroke="black" points="93,-69 0,-69 0,-11 99,-11 99,-63 93,-69"/>
<polyline fill="none" stroke="black" points="93,-69 93,-63 "/>
<polyline fill="none" stroke="black" points="99,-63 93,-63 "/>
<text text-anchor="start" x="8.5" y="-55.6" font-family="Lato" font-size="13.00">C칩digo fuente</text>
<text text-anchor="start" x="8" y="-42.6" font-family="Lato" font-size="13.00">(lenguaje Java)</text>
<text text-anchor="start" x="12" y="-18.2" font-family="monospace" font-size="11.00">fuente.java</text>
</g>
<!-- javac -->
<g id="node5" class="node">
<title>javac</title>
<polygon fill="white" stroke="black" points="189,-58 135,-58 135,-22 189,-22 189,-58"/>
<text text-anchor="middle" x="162" y="-36.6" font-family="monospace" font-size="13.00">javac</text>
</g>
<!-- F&#45;&gt;javac -->
<g id="edge2" class="edge">
<title>F&#45;&gt;javac</title>
<path fill="none" stroke="black" d="M99.29,-40C107.81,-40 116.54,-40 124.65,-40"/>
<polygon fill="black" stroke="black" points="124.89,-43.5 134.89,-40 124.89,-36.5 124.89,-43.5"/>
</g>
<!-- O -->
<g id="node2" class="node">
<title>O</title>
<polygon fill="aliceblue" stroke="black" points="317,-80 225,-80 225,0 323,0 323,-74 317,-80"/>
<polyline fill="none" stroke="black" points="317,-80 317,-74 "/>
<polyline fill="none" stroke="black" points="323,-74 317,-74 "/>
<text text-anchor="start" x="233.5" y="-66.6" font-family="Lato" font-size="13.00">C칩digo objeto</text>
<text text-anchor="start" x="245.5" y="-53.6" font-family="Lato" font-size="13.00">(</text>
<text text-anchor="start" x="249.5" y="-53.6" font-family="Lato" font-style="italic" font-size="13.00">bytecode</text>
<text text-anchor="start" x="298.5" y="-53.6" font-family="Lato" font-size="13.00">)</text>
<text text-anchor="start" x="233" y="-29.2" font-family="monospace" font-size="11.00">clase1.class</text>
<text text-anchor="start" x="233" y="-18.2" font-family="monospace" font-size="11.00">clase2.class</text>
<text text-anchor="start" x="263.5" y="-7.2" font-family="monospace" font-size="11.00">...</text>
</g>
<!-- JIT -->
<g id="node4" class="node">
<title>JIT</title>
<polygon fill="white" stroke="black" points="413,-58 359,-58 359,-22 413,-22 413,-58"/>
<text text-anchor="middle" x="386" y="-36.6" font-family="Lato" font-size="13.00">JIT</text>
</g>
<!-- O&#45;&gt;JIT -->
<g id="edge4" class="edge">
<title>O&#45;&gt;JIT</title>
<path fill="none" stroke="black" d="M323.25,-40C331.76,-40 340.48,-40 348.6,-40"/>
<polygon fill="black" stroke="black" points="348.85,-43.5 358.85,-40 348.85,-36.5 348.85,-43.5"/>
</g>
<!-- N -->
<g id="node3" class="node">
<title>N</title>
<polygon fill="aliceblue" stroke="black" points="607,-58 449,-58 449,-22 613,-22 613,-52 607,-58"/>
<polyline fill="none" stroke="black" points="607,-58 607,-52 "/>
<polyline fill="none" stroke="black" points="613,-52 607,-52 "/>
<text text-anchor="start" x="490.5" y="-43.6" font-family="Lato" font-size="13.00">C칩digo objeto</text>
<text text-anchor="start" x="457" y="-29.6" font-family="Lato" font-size="13.00">(lenguaje m치quina nativo)</text>
</g>
<!-- JIT&#45;&gt;N -->
<g id="edge1" class="edge">
<title>JIT&#45;&gt;N</title>
<path fill="none" stroke="black" d="M413.23,-40C420.81,-40 429.54,-40 438.75,-40"/>
<polygon fill="black" stroke="black" points="438.89,-43.5 448.89,-40 438.89,-36.5 438.89,-43.5"/>
</g>
<!-- javac&#45;&gt;O -->
<g id="edge3" class="edge">
<title>javac&#45;&gt;O</title>
<path fill="none" stroke="black" d="M189.07,-40C196.82,-40 205.65,-40 214.6,-40"/>
<polygon fill="black" stroke="black" points="214.7,-43.5 224.7,-40 214.7,-36.5 214.7,-43.5"/>
</g>
</g>
</svg>
