<?xml version="1.0" encoding="UTF-8" standalone="no"?>
<!DOCTYPE svg PUBLIC "-//W3C//DTD SVG 1.1//EN"
 "http://www.w3.org/Graphics/SVG/1.1/DTD/svg11.dtd">
<!-- Generated by graphviz version 14.1.1 (0)
 -->
<!-- Pages: 1 -->
<svg width="420pt" height="88pt"
 viewBox="0.00 0.00 420.00 88.00" xmlns="http://www.w3.org/2000/svg" xmlns:xlink="http://www.w3.org/1999/xlink">
<g id="graph0" class="graph" transform="scale(1 1) rotate(0) translate(4 84)">
<!-- F -->
<g id="node1" class="node">
<title>F</title>
<polygon fill="aliceblue" stroke="black" points="92.5,-69 0,-69 0,-11 98.5,-11 98.5,-63 92.5,-69"/>
<polyline fill="none" stroke="black" points="92.5,-69 92.5,-63"/>
<polyline fill="none" stroke="black" points="98.5,-63 92.5,-63"/>
<text xml:space="preserve" text-anchor="start" x="8.75" y="-53.65" font-family="Lato" font-size="13.00">Código fuente</text>
<text xml:space="preserve" text-anchor="start" x="8" y="-40.65" font-family="Lato" font-size="13.00">(lenguaje Java)</text>
<text xml:space="preserve" text-anchor="start" x="12.12" y="-16.55" font-family="monospace" font-size="11.00">fuente.java</text>
</g>
<!-- javac -->
<g id="node3" class="node">
<title>javac</title>
<polygon fill="white" stroke="black" points="188.5,-58 134.5,-58 134.5,-22 188.5,-22 188.5,-58"/>
<text xml:space="preserve" text-anchor="middle" x="161.5" y="-35.9" font-family="monospace" font-size="13.00">javac</text>
</g>
<!-- F&#45;&gt;javac -->
<g id="edge1" class="edge">
<title>F&#45;&gt;javac</title>
<path fill="none" stroke="black" d="M98.93,-40C106.88,-40 115.01,-40 122.65,-40"/>
<polygon fill="black" stroke="black" points="122.64,-43.5 132.64,-40 122.64,-36.5 122.64,-43.5"/>
</g>
<!-- O -->
<g id="node2" class="node">
<title>O</title>
<polygon fill="aliceblue" stroke="black" points="315.5,-80 224.5,-80 224.5,0 321.5,0 321.5,-74 315.5,-80"/>
<polyline fill="none" stroke="black" points="315.5,-80 315.5,-74"/>
<polyline fill="none" stroke="black" points="321.5,-74 315.5,-74"/>
<text xml:space="preserve" text-anchor="start" x="232.88" y="-64.65" font-family="Lato" font-size="13.00">Código objeto</text>
<text xml:space="preserve" text-anchor="start" x="244.88" y="-51.65" font-family="Lato" font-size="13.00">(</text>
<text xml:space="preserve" text-anchor="start" x="248.62" y="-51.65" font-family="Lato" font-style="italic" font-size="13.00">bytecode</text>
<text xml:space="preserve" text-anchor="start" x="297.38" y="-51.65" font-family="Lato" font-size="13.00">)</text>
<text xml:space="preserve" text-anchor="start" x="232.5" y="-27.55" font-family="monospace" font-size="11.00">clase1.class</text>
<text xml:space="preserve" text-anchor="start" x="232.5" y="-16.55" font-family="monospace" font-size="11.00">clase2.class</text>
<text xml:space="preserve" text-anchor="start" x="262.88" y="-5.55" font-family="monospace" font-size="11.00">...</text>
</g>
<!-- JRE -->
<g id="node4" class="node">
<title>JRE</title>
<polygon fill="white" stroke="black" points="411.5,-58 357.5,-58 357.5,-22 411.5,-22 411.5,-58"/>
<text xml:space="preserve" text-anchor="middle" x="384.5" y="-35.9" font-family="Lato" font-size="13.00">JRE</text>
</g>
<!-- O&#45;&gt;JRE -->
<g id="edge3" class="edge">
<title>O&#45;&gt;JRE</title>
<path fill="none" stroke="black" d="M321.71,-40C329.82,-40 338.15,-40 345.95,-40"/>
<polygon fill="black" stroke="black" points="345.79,-43.5 355.79,-40 345.79,-36.5 345.79,-43.5"/>
</g>
<!-- javac&#45;&gt;O -->
<g id="edge2" class="edge">
<title>javac&#45;&gt;O</title>
<path fill="none" stroke="black" d="M188.73,-40C196.04,-40 204.28,-40 212.68,-40"/>
<polygon fill="black" stroke="black" points="212.62,-43.5 222.62,-40 212.62,-36.5 212.62,-43.5"/>
</g>
</g>
</svg>
