<?xml version="1.0" encoding="UTF-8" standalone="no"?>
<!DOCTYPE svg PUBLIC "-//W3C//DTD SVG 1.1//EN"
 "http://www.w3.org/Graphics/SVG/1.1/DTD/svg11.dtd">
<!-- Generated by graphviz version 2.43.0 (0)
 -->
<!-- Title: %3 Pages: 1 -->
<svg width="483pt" height="66pt"
 viewBox="0.00 0.00 483.00 66.00" xmlns="http://www.w3.org/2000/svg" xmlns:xlink="http://www.w3.org/1999/xlink">
<g id="graph0" class="graph" transform="scale(1 1) rotate(0) translate(4 62)">
<title>%3</title>
<!-- F -->
<g id="node1" class="node">
<title>F</title>
<polygon fill="aliceblue" stroke="black" points="93,-58 0,-58 0,0 99,0 99,-52 93,-58"/>
<polyline fill="none" stroke="black" points="93,-58 93,-52 "/>
<polyline fill="none" stroke="black" points="99,-52 93,-52 "/>
<text text-anchor="start" x="8.5" y="-44.6" font-family="Lato" font-size="13.00">Código fuente</text>
<text text-anchor="start" x="8" y="-31.6" font-family="Lato" font-size="13.00">(lenguaje Java)</text>
<text text-anchor="start" x="8.5" y="-7.2" font-family="monospace" font-size="11.00">archivo.java</text>
</g>
<!-- Compilador Java -->
<g id="node3" class="node">
<title>Compilador Java</title>
<polygon fill="white" stroke="black" points="245,-47 135,-47 135,-11 245,-11 245,-47"/>
<text text-anchor="middle" x="190" y="-25.6" font-family="Lato" font-size="13.00">Compilador Java</text>
</g>
<!-- F&#45;&gt;Compilador Java -->
<g id="edge1" class="edge">
<title>F&#45;&gt;Compilador Java</title>
<path fill="none" stroke="black" d="M99.33,-29C107.61,-29 116.33,-29 124.93,-29"/>
<polygon fill="black" stroke="black" points="124.95,-32.5 134.95,-29 124.95,-25.5 124.95,-32.5"/>
</g>
<!-- O -->
<g id="node2" class="node">
<title>O</title>
<polygon fill="aliceblue" stroke="black" points="379,-58 281,-58 281,0 385,0 385,-52 379,-58"/>
<polyline fill="none" stroke="black" points="379,-58 379,-52 "/>
<polyline fill="none" stroke="black" points="385,-52 379,-52 "/>
<text text-anchor="start" x="292.5" y="-44.6" font-family="Lato" font-size="13.00">Código objeto</text>
<text text-anchor="start" x="304.5" y="-31.6" font-family="Lato" font-size="13.00">(</text>
<text text-anchor="start" x="308.5" y="-31.6" font-family="Lato" font-style="italic" font-size="13.00">bytecode</text>
<text text-anchor="start" x="357.5" y="-31.6" font-family="Lato" font-size="13.00">)</text>
<text text-anchor="start" x="289" y="-7.2" font-family="monospace" font-size="11.00">archivo.class</text>
</g>
<!-- JRE -->
<g id="node4" class="node">
<title>JRE</title>
<polygon fill="white" stroke="black" points="475,-47 421,-47 421,-11 475,-11 475,-47"/>
<text text-anchor="middle" x="448" y="-25.6" font-family="Lato" font-size="13.00">JRE</text>
</g>
<!-- O&#45;&gt;JRE -->
<g id="edge3" class="edge">
<title>O&#45;&gt;JRE</title>
<path fill="none" stroke="black" d="M385.21,-29C393.82,-29 402.59,-29 410.72,-29"/>
<polygon fill="black" stroke="black" points="410.97,-32.5 420.97,-29 410.97,-25.5 410.97,-32.5"/>
</g>
<!-- Compilador Java&#45;&gt;O -->
<g id="edge2" class="edge">
<title>Compilador Java&#45;&gt;O</title>
<path fill="none" stroke="black" d="M245.11,-29C253.39,-29 261.99,-29 270.42,-29"/>
<polygon fill="black" stroke="black" points="270.58,-32.5 280.58,-29 270.58,-25.5 270.58,-32.5"/>
</g>
</g>
</svg>
