<?xml version="1.0" encoding="UTF-8" standalone="no"?>
<!DOCTYPE svg PUBLIC "-//W3C//DTD SVG 1.1//EN"
 "http://www.w3.org/Graphics/SVG/1.1/DTD/svg11.dtd">
<!-- Generated by graphviz version 2.43.0 (0)
 -->
<!-- Title: %3 Pages: 1 -->
<svg width="430pt" height="106pt"
 viewBox="0.00 0.00 430.00 106.00" xmlns="http://www.w3.org/2000/svg" xmlns:xlink="http://www.w3.org/1999/xlink">
<g id="graph0" class="graph" transform="scale(1 1) rotate(0) translate(4 102)">
<title>%3</title>
<g id="clust1" class="cluster">
<title>cluster0</title>
<polygon fill="white" stroke="black" points="263,-8 263,-83 358,-83 358,-8 263,-8"/>
<text text-anchor="middle" x="310.5" y="-67.8" font-family="Lato" font-size="14.00">Marco global</text>
</g>
<g id="clust2" class="cluster">
<title>cluster1</title>
<polygon fill="white" stroke="black" points="50,-8 50,-83 171,-83 171,-8 50,-8"/>
<text text-anchor="middle" x="110.5" y="-67.8" font-family="Lato" font-size="14.00">Marco de lambda</text>
</g>
<!-- 4 -->
<g id="node1" class="node">
<title>4</title>
<ellipse fill="white" stroke="black" cx="404" cy="-34" rx="18" ry="18"/>
<text text-anchor="middle" x="404" y="-30.6" font-family="monospace" font-size="13.00">4</text>
</g>
<!-- 3 -->
<g id="node2" class="node">
<title>3</title>
<ellipse fill="white" stroke="black" cx="217" cy="-80" rx="18" ry="18"/>
<text text-anchor="middle" x="217" y="-76.6" font-family="monospace" font-size="13.00">3</text>
</g>
<!-- x -->
<g id="node3" class="node">
<title>x</title>
<polygon fill="transparent" stroke="transparent" points="322,-52 298,-52 298,-16 322,-16 322,-52"/>
<text text-anchor="middle" x="310" y="-30.6" font-family="monospace" font-size="13.00">x</text>
</g>
<!-- x&#45;&gt;4 -->
<g id="edge1" class="edge">
<title>x&#45;&gt;4</title>
<path fill="none" stroke="black" d="M322.28,-34C335.54,-34 357.98,-34 375.85,-34"/>
<polygon fill="black" stroke="black" points="375.99,-37.5 385.99,-34 375.99,-30.5 375.99,-37.5"/>
</g>
<!-- xl -->
<g id="node4" class="node">
<title>xl</title>
<polygon fill="transparent" stroke="transparent" points="122,-52 98,-52 98,-16 122,-16 122,-52"/>
<text text-anchor="middle" x="110" y="-30.6" font-family="monospace" font-size="13.00">x</text>
</g>
<!-- xl&#45;&gt;3 -->
<g id="edge2" class="edge">
<title>xl&#45;&gt;3</title>
<path fill="none" stroke="black" d="M122.24,-38.92C138.48,-46.04 168.95,-59.39 190.75,-68.94"/>
<polygon fill="black" stroke="black" points="189.51,-72.22 200.07,-73.02 192.32,-65.8 189.51,-72.22"/>
</g>
<!-- xl&#45;&gt;x -->
<g id="edge3" class="edge">
<title>xl&#45;&gt;x</title>
<path fill="none" stroke="black" d="M171,-34C197.04,-34 227.37,-34 252.96,-34"/>
<polygon fill="black" stroke="black" points="253,-37.5 263,-34 253,-30.5 253,-37.5"/>
</g>
<!-- E -->
<g id="node5" class="node">
<title>E</title>
<polygon fill="transparent" stroke="transparent" points="22,-52 0,-52 0,-16 22,-16 22,-52"/>
<text text-anchor="middle" x="11" y="-30.6" font-family="monospace" font-size="13.00">E</text>
</g>
<!-- E&#45;&gt;xl -->
<g id="edge4" class="edge">
<title>E&#45;&gt;xl</title>
<path fill="none" stroke="black" d="M22.02,-34C26.76,-34 32.87,-34 39.66,-34"/>
<polygon fill="black" stroke="black" points="40,-37.5 50,-34 40,-30.5 40,-37.5"/>
</g>
</g>
</svg>
