<?xml version="1.0" encoding="UTF-8" standalone="no"?>
<!DOCTYPE svg PUBLIC "-//W3C//DTD SVG 1.1//EN"
 "http://www.w3.org/Graphics/SVG/1.1/DTD/svg11.dtd">
<!-- Generated by graphviz version 2.43.0 (0)
 -->
<!-- Title: %3 Pages: 1 -->
<svg width="217pt" height="87pt"
 viewBox="0.00 0.00 217.00 87.00" xmlns="http://www.w3.org/2000/svg" xmlns:xlink="http://www.w3.org/1999/xlink">
<g id="graph0" class="graph" transform="scale(1 1) rotate(0) translate(4 83)">
<title>%3</title>
<g id="clust1" class="cluster">
<title>cluster0</title>
<polygon fill="white" stroke="black" points="50,-8 50,-71 145,-71 145,-8 50,-8"/>
<text text-anchor="middle" x="97.5" y="-55.8" font-family="Lato" font-size="14.00">Marco global</text>
</g>
<!-- 4 -->
<g id="node1" class="node">
<title>4</title>
<ellipse fill="white" stroke="black" cx="191" cy="-28" rx="18" ry="18"/>
<text text-anchor="middle" x="191" y="-24.6" font-family="Lato" font-size="13.00">4</text>
</g>
<!-- x -->
<g id="node2" class="node">
<title>x</title>
<polygon fill="white" stroke="black" points="79,-17 79,-39 115,-39 115,-17 79,-17"/>
<text text-anchor="middle" x="88" y="-24.6" font-family="monospace" font-size="13.00">x</text>
<polyline fill="none" stroke="black" points="97,-17 97,-39 "/>
<text text-anchor="middle" x="106" y="-24.6" font-family="monospace" font-size="13.00">⬤</text>
</g>
<!-- x&#45;&gt;4 -->
<g id="edge1" class="edge">
<title>x:f1&#45;&gt;4</title>
<path fill="none" stroke="black" d="M116,-28C131.41,-28 148.62,-28 162.57,-28"/>
<polygon fill="black" stroke="black" points="162.95,-31.5 172.95,-28 162.95,-24.5 162.95,-31.5"/>
</g>
<!-- E -->
<g id="node3" class="node">
<title>E</title>
<polygon fill="transparent" stroke="transparent" points="22,-46 0,-46 0,-10 22,-10 22,-46"/>
<text text-anchor="middle" x="11" y="-24.6" font-family="Lato" font-size="13.00">E</text>
</g>
<!-- E&#45;&gt;x -->
<g id="edge2" class="edge">
<title>E&#45;&gt;x</title>
<path fill="none" stroke="black" d="M22.3,-28C27.11,-28 33.25,-28 39.93,-28"/>
<polygon fill="black" stroke="black" points="40,-31.5 50,-28 40,-24.5 40,-31.5"/>
</g>
</g>
</svg>
