<?xml version="1.0" encoding="UTF-8" standalone="no"?>
<!DOCTYPE svg PUBLIC "-//W3C//DTD SVG 1.1//EN"
 "http://www.w3.org/Graphics/SVG/1.1/DTD/svg11.dtd">
<!-- Generated by graphviz version 14.1.1 (0)
 -->
<!-- Pages: 1 -->
<svg width="223pt" height="317pt"
 viewBox="0.00 0.00 223.00 317.00" xmlns="http://www.w3.org/2000/svg" xmlns:xlink="http://www.w3.org/1999/xlink">
<g id="graph0" class="graph" transform="scale(1 1) rotate(0) translate(4 313)">
<g id="clust1" class="cluster">
<title>cluster0</title>
<polygon fill="white" stroke="black" points="49.9,-8 49.9,-301 144.65,-301 144.65,-8 49.9,-8"/>
<text xml:space="preserve" text-anchor="middle" x="97.28" y="-283.7" font-family="Lato" font-size="14.00">Marco global</text>
</g>
<!-- 21 -->
<g id="node1" class="node">
<title>21</title>
<ellipse fill="white" stroke="black" cx="193.8" cy="-142" rx="21.15" ry="21.15"/>
<text xml:space="preserve" text-anchor="middle" x="193.8" y="-137.9" font-family="Lato" font-size="13.00">21</text>
</g>
<!-- 1 -->
<g id="node2" class="node">
<title>1</title>
<ellipse fill="white" stroke="black" cx="193.8" cy="-199" rx="18" ry="18"/>
<text xml:space="preserve" text-anchor="middle" x="193.8" y="-194.9" font-family="Lato" font-size="13.00">1</text>
</g>
<!-- 3 -->
<g id="node3" class="node">
<title>3</title>
<ellipse fill="white" stroke="black" cx="193.8" cy="-85" rx="18" ry="18"/>
<text xml:space="preserve" text-anchor="middle" x="193.8" y="-80.9" font-family="Lato" font-size="13.00">3</text>
</g>
<!-- 4 -->
<g id="node4" class="node">
<title>4</title>
<ellipse fill="white" stroke="black" cx="193.8" cy="-253" rx="18" ry="18"/>
<text xml:space="preserve" text-anchor="middle" x="193.8" y="-248.9" font-family="Lato" font-size="13.00">4</text>
</g>
<!-- 9 -->
<g id="node5" class="node">
<title>9</title>
<ellipse fill="white" stroke="black" cx="193.8" cy="-31" rx="18" ry="18"/>
<text xml:space="preserve" text-anchor="middle" x="193.8" y="-26.9" font-family="Lato" font-size="13.00">9</text>
</g>
<!-- x -->
<g id="node6" class="node">
<title>x</title>
<polygon fill="none" stroke="none" points="100.38,-268 93.18,-268 93.18,-232 100.38,-232 100.38,-268"/>
<text xml:space="preserve" text-anchor="middle" x="96.78" y="-245.9" font-family="monospace" font-size="13.00">x</text>
</g>
<!-- x&#45;&gt;4 -->
<g id="edge1" class="edge">
<title>x&#45;&gt;4</title>
<path fill="none" stroke="black" d="M114.76,-250.54C128.38,-250.97 147.79,-251.58 163.85,-252.09"/>
<polygon fill="black" stroke="black" points="163.7,-255.58 173.81,-252.4 163.92,-248.59 163.7,-255.58"/>
</g>
<!-- z -->
<g id="node7" class="node">
<title>z</title>
<polygon fill="none" stroke="none" points="100.38,-214 93.18,-214 93.18,-178 100.38,-178 100.38,-214"/>
<text xml:space="preserve" text-anchor="middle" x="96.78" y="-191.9" font-family="monospace" font-size="13.00">z</text>
</g>
<!-- z&#45;&gt;1 -->
<g id="edge3" class="edge">
<title>z&#45;&gt;1</title>
<path fill="none" stroke="black" d="M114.76,-196.54C128.38,-196.97 147.79,-197.58 163.85,-198.09"/>
<polygon fill="black" stroke="black" points="163.7,-201.58 173.81,-198.4 163.92,-194.59 163.7,-201.58"/>
</g>
<!-- suma -->
<g id="node8" class="node">
<title>suma</title>
<polygon fill="none" stroke="none" points="123.78,-160 69.78,-160 69.78,-124 123.78,-124 123.78,-160"/>
<text xml:space="preserve" text-anchor="middle" x="96.78" y="-137.9" font-family="monospace" font-size="13.00">suma</text>
</g>
<!-- suma&#45;&gt;21 -->
<g id="edge4" class="edge">
<title>suma&#45;&gt;21</title>
<path fill="none" stroke="black" d="M114.76,-142C127.61,-142 145.62,-142 161.11,-142"/>
<polygon fill="black" stroke="black" points="160.81,-145.5 170.81,-142 160.81,-138.5 160.81,-145.5"/>
</g>
<!-- y -->
<g id="node9" class="node">
<title>y</title>
<polygon fill="none" stroke="none" points="100.38,-106 93.18,-106 93.18,-70 100.38,-70 100.38,-106"/>
<text xml:space="preserve" text-anchor="middle" x="96.78" y="-83.9" font-family="monospace" font-size="13.00">y</text>
</g>
<!-- y&#45;&gt;3 -->
<g id="edge2" class="edge">
<title>y&#45;&gt;3</title>
<path fill="none" stroke="black" d="M114.76,-87.46C128.38,-87.03 147.79,-86.42 163.85,-85.91"/>
<polygon fill="black" stroke="black" points="163.92,-89.41 173.81,-85.6 163.7,-82.42 163.92,-89.41"/>
</g>
<!-- w -->
<g id="node10" class="node">
<title>w</title>
<polygon fill="none" stroke="none" points="100.38,-52 93.18,-52 93.18,-16 100.38,-16 100.38,-52"/>
<text xml:space="preserve" text-anchor="middle" x="96.78" y="-29.9" font-family="monospace" font-size="13.00">w</text>
</g>
<!-- w&#45;&gt;9 -->
<g id="edge5" class="edge">
<title>w&#45;&gt;9</title>
<path fill="none" stroke="black" d="M114.76,-33.46C128.38,-33.03 147.79,-32.42 163.85,-31.91"/>
<polygon fill="black" stroke="black" points="163.92,-35.41 173.81,-31.6 163.7,-28.42 163.92,-35.41"/>
</g>
<!-- E -->
<g id="node11" class="node">
<title>E</title>
<polygon fill="none" stroke="none" points="21.9,-214 0,-214 0,-178 21.9,-178 21.9,-214"/>
<text xml:space="preserve" text-anchor="middle" x="10.95" y="-191.9" font-family="Lato" font-size="13.00">E</text>
</g>
<!-- E&#45;&gt;z -->
<g id="edge6" class="edge">
<title>E&#45;&gt;z</title>
<path fill="none" stroke="black" d="M21.9,-196C26.49,-196 32.35,-196 38.75,-196"/>
<polygon fill="black" stroke="black" points="38.39,-199.5 48.39,-196 38.39,-192.5 38.39,-199.5"/>
</g>
</g>
</svg>
