<?xml version="1.0" encoding="UTF-8" standalone="no"?>
<!DOCTYPE svg PUBLIC "-//W3C//DTD SVG 1.1//EN"
 "http://www.w3.org/Graphics/SVG/1.1/DTD/svg11.dtd">
<!-- Generated by graphviz version 2.40.1 (20161225.0304)
 -->
<!-- Title: %3 Pages: 1 -->
<svg width="534pt" height="576pt"
 viewBox="0.00 0.00 534.26 576.00" xmlns="http://www.w3.org/2000/svg" xmlns:xlink="http://www.w3.org/1999/xlink">
<g id="graph0" class="graph" transform="scale(2.7826 2.7826) rotate(0) translate(4 203)">
<title>%3</title>
<g id="clust1" class="cluster">
<title>cluster0</title>
<polygon fill="#ffffff" stroke="#000000" points="8,-8 8,-191 176,-191 176,-8 8,-8"/>
<text text-anchor="middle" x="92" y="-175.8" font-family="Lato" font-size="14.00" fill="#000000">Marco global</text>
</g>
<!-- 1 -->
<g id="node1" class="node">
<title>1</title>
<ellipse fill="#ffffff" stroke="#000000" cx="137" cy="-88" rx="18" ry="18"/>
<text text-anchor="middle" x="137" y="-84.6" font-family="monospace" font-size="13.00" fill="#000000">1</text>
</g>
<!-- 4 -->
<g id="node2" class="node">
<title>4</title>
<ellipse fill="#ffffff" stroke="#000000" cx="137" cy="-142" rx="18" ry="18"/>
<text text-anchor="middle" x="137" y="-138.6" font-family="monospace" font-size="13.00" fill="#000000">4</text>
</g>
<!-- x -->
<g id="node3" class="node">
<title>x</title>
<polygon fill="transparent" stroke="transparent" points="70,-160 16,-160 16,-124 70,-124 70,-160"/>
<text text-anchor="middle" x="43" y="-138.6" font-family="monospace" font-size="13.00" fill="#000000">x</text>
</g>
<!-- x&#45;&gt;4 -->
<g id="edge2" class="edge">
<title>x&#45;&gt;4</title>
<path fill="none" stroke="#000000" d="M70.1887,-142C82.2667,-142 96.4812,-142 108.6871,-142"/>
<polygon fill="#000000" stroke="#000000" points="108.7923,-145.5001 118.7923,-142 108.7922,-138.5001 108.7923,-145.5001"/>
</g>
<!-- z -->
<g id="node4" class="node">
<title>z</title>
<polygon fill="transparent" stroke="transparent" points="70,-106 16,-106 16,-70 70,-70 70,-106"/>
<text text-anchor="middle" x="43" y="-84.6" font-family="monospace" font-size="13.00" fill="#000000">z</text>
</g>
<!-- z&#45;&gt;1 -->
<g id="edge3" class="edge">
<title>z&#45;&gt;1</title>
<path fill="none" stroke="#000000" d="M70.1887,-88C82.2667,-88 96.4812,-88 108.6871,-88"/>
<polygon fill="#000000" stroke="#000000" points="108.7923,-91.5001 118.7923,-88 108.7922,-84.5001 108.7923,-91.5001"/>
</g>
<!-- suma -->
<g id="node5" class="node">
<title>suma</title>
<polygon fill="transparent" stroke="transparent" points="70,-52 16,-52 16,-16 70,-16 70,-52"/>
<text text-anchor="middle" x="43" y="-30.6" font-family="monospace" font-size="13.00" fill="#000000">suma</text>
</g>
<!-- lambda -->
<g id="node6" class="node">
<title>lambda</title>
<polygon fill="#ffffff" stroke="#000000" points="168,-52 106,-52 106,-16 168,-16 168,-52"/>
<text text-anchor="middle" x="137" y="-30.6" font-family="monospace" font-size="13.00" fill="#000000">lambda</text>
</g>
<!-- suma&#45;&gt;lambda -->
<g id="edge1" class="edge">
<title>suma&#45;&gt;lambda</title>
<path fill="none" stroke="#000000" d="M70.1887,-34C78.217,-34 87.1892,-34 95.8881,-34"/>
<polygon fill="#000000" stroke="#000000" points="95.9013,-37.5001 105.9013,-34 95.9012,-30.5001 95.9013,-37.5001"/>
</g>
</g>
</svg>
