<?xml version="1.0" encoding="UTF-8" standalone="no"?>
<!DOCTYPE svg PUBLIC "-//W3C//DTD SVG 1.1//EN"
 "http://www.w3.org/Graphics/SVG/1.1/DTD/svg11.dtd">
<!-- Generated by graphviz version 2.43.0 (0)
 -->
<!-- Title: %3 Pages: 1 -->
<svg width="217pt" height="172pt"
 viewBox="0.00 0.00 217.00 172.00" xmlns="http://www.w3.org/2000/svg" xmlns:xlink="http://www.w3.org/1999/xlink">
<g id="graph0" class="graph" transform="scale(1 1) rotate(0) translate(4 168)">
<title>%3</title>
<g id="clust1" class="cluster">
<title>cluster0</title>
<polygon fill="white" stroke="black" points="50,-11 50,-156 145,-156 145,-11 50,-11"/>
<text text-anchor="middle" x="97.5" y="-140.8" font-family="Lato" font-size="14.00">Marco global</text>
</g>
<!-- 1 -->
<g id="node1" class="node">
<title>1</title>
<ellipse fill="white" stroke="black" cx="191" cy="-72" rx="18" ry="18"/>
<text text-anchor="middle" x="191" y="-68.6" font-family="Lato" font-size="13.00">1</text>
</g>
<!-- 4 -->
<g id="node2" class="node">
<title>4</title>
<ellipse fill="white" stroke="black" cx="191" cy="-126" rx="18" ry="18"/>
<text text-anchor="middle" x="191" y="-122.6" font-family="Lato" font-size="13.00">4</text>
</g>
<!-- x -->
<g id="node3" class="node">
<title>x</title>
<polygon fill="white" stroke="black" points="79.5,-102 79.5,-124 115.5,-124 115.5,-102 79.5,-102"/>
<text text-anchor="middle" x="88.5" y="-109.6" font-family="monospace" font-size="13.00">x</text>
<polyline fill="none" stroke="black" points="97.5,-102 97.5,-124 "/>
<text text-anchor="middle" x="106.5" y="-109.6" font-family="monospace" font-size="13.00">⬤</text>
</g>
<!-- x&#45;&gt;4 -->
<g id="edge2" class="edge">
<title>x:f1&#45;&gt;4</title>
<path fill="none" stroke="black" d="M116.5,-113C132.3,-113 149.72,-115.95 163.64,-119.04"/>
<polygon fill="black" stroke="black" points="162.97,-122.48 173.51,-121.38 164.59,-115.67 162.97,-122.48"/>
</g>
<!-- z -->
<g id="node4" class="node">
<title>z</title>
<polygon fill="white" stroke="black" points="79.5,-61 79.5,-83 115.5,-83 115.5,-61 79.5,-61"/>
<text text-anchor="middle" x="88.5" y="-68.6" font-family="monospace" font-size="13.00">z</text>
<polyline fill="none" stroke="black" points="97.5,-61 97.5,-83 "/>
<text text-anchor="middle" x="106.5" y="-68.6" font-family="monospace" font-size="13.00">⬤</text>
</g>
<!-- z&#45;&gt;1 -->
<g id="edge3" class="edge">
<title>z:f1&#45;&gt;1</title>
<path fill="none" stroke="black" d="M116.5,-72C131.7,-72 148.68,-72 162.48,-72"/>
<polygon fill="black" stroke="black" points="162.77,-75.5 172.77,-72 162.77,-68.5 162.77,-75.5"/>
</g>
<!-- suma -->
<g id="node5" class="node">
<title>suma</title>
<polygon fill="white" stroke="black" points="62,-20 62,-42 133,-42 133,-20 62,-20"/>
<text text-anchor="middle" x="85.5" y="-27.6" font-family="monospace" font-size="13.00">suma</text>
<polyline fill="none" stroke="black" points="109,-20 109,-42 "/>
<text text-anchor="middle" x="121" y="-27.6" font-family="monospace" font-size="13.00">⬤</text>
</g>
<!-- lambda -->
<g id="node6" class="node">
<title>lambda</title>
<ellipse fill="white" stroke="black" cx="191" cy="-18" rx="18" ry="18"/>
<text text-anchor="middle" x="191" y="-14.6" font-family="Lato" font-size="13.00">λ</text>
</g>
<!-- suma&#45;&gt;lambda -->
<g id="edge1" class="edge">
<title>suma:f1&#45;&gt;lambda</title>
<path fill="none" stroke="black" d="M134.5,-31C144.28,-31 154.78,-29.06 163.98,-26.68"/>
<polygon fill="black" stroke="black" points="165.07,-30.01 173.72,-23.89 163.14,-23.28 165.07,-30.01"/>
</g>
<!-- E -->
<g id="node7" class="node">
<title>E</title>
<polygon fill="transparent" stroke="transparent" points="22,-131 0,-131 0,-95 22,-95 22,-131"/>
<text text-anchor="middle" x="11" y="-109.6" font-family="Lato" font-size="13.00">E</text>
</g>
<!-- E&#45;&gt;x -->
<g id="edge4" class="edge">
<title>E&#45;&gt;x</title>
<path fill="none" stroke="black" d="M22.03,-113C26.84,-113 33.04,-113 39.8,-113"/>
<polygon fill="black" stroke="black" points="40,-116.5 50,-113 40,-109.5 40,-116.5"/>
</g>
</g>
</svg>
