<?xml version="1.0" encoding="UTF-8" standalone="no"?>
<!DOCTYPE svg PUBLIC "-//W3C//DTD SVG 1.1//EN"
 "http://www.w3.org/Graphics/SVG/1.1/DTD/svg11.dtd">
<!-- Generated by graphviz version 2.43.0 (0)
 -->
<!-- Title: %3 Pages: 1 -->
<svg width="419pt" height="207pt"
 viewBox="0.00 0.00 419.03 207.00" xmlns="http://www.w3.org/2000/svg" xmlns:xlink="http://www.w3.org/1999/xlink">
<g id="graph0" class="graph" transform="scale(1 1) rotate(0) translate(4 203)">
<title>%3</title>
<g id="clust1" class="cluster">
<title>cluster0</title>
<polygon fill="white" stroke="black" points="235.03,-8 235.03,-191 403.03,-191 403.03,-8 235.03,-8"/>
<text text-anchor="middle" x="319.03" y="-175.8" font-family="Lato" font-size="14.00">Marco global</text>
</g>
<g id="clust2" class="cluster">
<title>cluster1</title>
<polygon fill="white" stroke="black" points="31.6,-58 31.6,-191 178.03,-191 178.03,-58 31.6,-58"/>
<text text-anchor="middle" x="104.81" y="-175.8" font-family="Lato" font-size="14.00">Marco de lambda</text>
</g>
<!-- 1 -->
<g id="node1" class="node">
<title>1</title>
<ellipse fill="white" stroke="black" cx="364.03" cy="-88" rx="18" ry="18"/>
<text text-anchor="middle" x="364.03" y="-84.6" font-family="monospace" font-size="13.00">1</text>
</g>
<!-- 4 -->
<g id="node2" class="node">
<title>4</title>
<ellipse fill="white" stroke="black" cx="364.03" cy="-142" rx="18" ry="18"/>
<text text-anchor="middle" x="364.03" y="-138.6" font-family="monospace" font-size="13.00">4</text>
</g>
<!-- 8 -->
<g id="node3" class="node">
<title>8</title>
<ellipse fill="white" stroke="black" cx="149.81" cy="-142" rx="18" ry="18"/>
<text text-anchor="middle" x="149.81" y="-138.6" font-family="monospace" font-size="13.00">8</text>
</g>
<!-- x -->
<g id="node5" class="node">
<title>x</title>
<polygon fill="transparent" stroke="transparent" points="297.03,-160 243.03,-160 243.03,-124 297.03,-124 297.03,-160"/>
<text text-anchor="middle" x="270.03" y="-138.6" font-family="monospace" font-size="13.00">x</text>
</g>
<!-- 8&#45;&gt;x -->
<g id="edge6" class="edge">
<title>8&#45;&gt;x</title>
<path fill="none" stroke="black" d="M178.03,-142C196.14,-142 232.65,-142 232.65,-142"/>
<polygon fill="black" stroke="black" points="225.03,-145.5 235.03,-142 225.03,-138.5 225.03,-145.5"/>
</g>
<!-- 12 -->
<g id="node4" class="node">
<title>12</title>
<ellipse fill="white" stroke="black" cx="149.81" cy="-86" rx="20.43" ry="20.43"/>
<text text-anchor="middle" x="149.81" y="-82.6" font-family="monospace" font-size="13.00">12</text>
</g>
<!-- x&#45;&gt;4 -->
<g id="edge2" class="edge">
<title>x&#45;&gt;4</title>
<path fill="none" stroke="black" d="M297.22,-142C297.22,-142 335.82,-142 335.82,-142"/>
<polygon fill="black" stroke="black" points="335.82,-145.5 345.82,-142 335.82,-138.5 335.82,-145.5"/>
</g>
<!-- xl -->
<g id="node6" class="node">
<title>xl</title>
<polygon fill="transparent" stroke="transparent" points="93.6,-160 39.6,-160 39.6,-124 93.6,-124 93.6,-160"/>
<text text-anchor="middle" x="66.6" y="-138.6" font-family="monospace" font-size="13.00">x</text>
</g>
<!-- xl&#45;&gt;8 -->
<g id="edge4" class="edge">
<title>xl&#45;&gt;8</title>
<path fill="none" stroke="black" d="M93.85,-142C93.85,-142 121.7,-142 121.7,-142"/>
<polygon fill="black" stroke="black" points="121.7,-145.5 131.7,-142 121.7,-138.5 121.7,-145.5"/>
</g>
<!-- yl -->
<g id="node7" class="node">
<title>yl</title>
<polygon fill="transparent" stroke="transparent" points="93.6,-104 39.6,-104 39.6,-68 93.6,-68 93.6,-104"/>
<text text-anchor="middle" x="66.6" y="-82.6" font-family="monospace" font-size="13.00">y</text>
</g>
<!-- yl&#45;&gt;12 -->
<g id="edge5" class="edge">
<title>yl&#45;&gt;12</title>
<path fill="none" stroke="black" d="M93.85,-86C93.85,-86 119.37,-86 119.37,-86"/>
<polygon fill="black" stroke="black" points="119.37,-89.5 129.37,-86 119.37,-82.5 119.37,-89.5"/>
</g>
<!-- z -->
<g id="node8" class="node">
<title>z</title>
<polygon fill="transparent" stroke="transparent" points="297.03,-106 243.03,-106 243.03,-70 297.03,-70 297.03,-106"/>
<text text-anchor="middle" x="270.03" y="-84.6" font-family="monospace" font-size="13.00">z</text>
</g>
<!-- z&#45;&gt;1 -->
<g id="edge3" class="edge">
<title>z&#45;&gt;1</title>
<path fill="none" stroke="black" d="M297.22,-88C297.22,-88 335.82,-88 335.82,-88"/>
<polygon fill="black" stroke="black" points="335.82,-91.5 345.82,-88 335.82,-84.5 335.82,-91.5"/>
</g>
<!-- suma -->
<g id="node9" class="node">
<title>suma</title>
<polygon fill="transparent" stroke="transparent" points="297.03,-52 243.03,-52 243.03,-16 297.03,-16 297.03,-52"/>
<text text-anchor="middle" x="270.03" y="-30.6" font-family="monospace" font-size="13.00">suma</text>
</g>
<!-- lambda -->
<g id="node10" class="node">
<title>lambda</title>
<polygon fill="white" stroke="black" points="395.03,-52 333.03,-52 333.03,-16 395.03,-16 395.03,-52"/>
<text text-anchor="middle" x="364.03" y="-30.6" font-family="monospace" font-size="13.00">lambda</text>
</g>
<!-- suma&#45;&gt;lambda -->
<g id="edge1" class="edge">
<title>suma&#45;&gt;lambda</title>
<path fill="none" stroke="black" d="M297.22,-34C297.22,-34 322.93,-34 322.93,-34"/>
<polygon fill="black" stroke="black" points="322.93,-37.5 332.93,-34 322.93,-30.5 322.93,-37.5"/>
</g>
<!-- E -->
<g id="node11" class="node">
<title>E</title>
<ellipse fill="white" stroke="black" cx="1.8" cy="-142" rx="1.8" ry="1.8"/>
</g>
<!-- E&#45;&gt;xl -->
<g id="edge7" class="edge">
<title>E&#45;&gt;xl</title>
<path fill="none" stroke="black" d="M3.67,-142C3.67,-142 29.46,-142 29.46,-142"/>
<polygon fill="black" stroke="black" points="21.6,-145.5 31.6,-142 21.6,-138.5 21.6,-145.5"/>
</g>
</g>
</svg>
