<?xml version="1.0" encoding="UTF-8" standalone="no"?>
<!DOCTYPE svg PUBLIC "-//W3C//DTD SVG 1.1//EN"
 "http://www.w3.org/Graphics/SVG/1.1/DTD/svg11.dtd">
<!-- Generated by graphviz version 2.42.4 (0)
 -->
<!-- Pages: 1 -->
<svg width="217pt" height="153pt"
 viewBox="0.00 0.00 217.00 153.00" xmlns="http://www.w3.org/2000/svg" xmlns:xlink="http://www.w3.org/1999/xlink">
<g id="graph0" class="graph" transform="scale(1 1) rotate(0) translate(4 149)">
<g id="clust1" class="cluster">
<title>cluster0</title>
<polygon fill="white" stroke="black" points="50,-8 50,-137 145,-137 145,-8 50,-8"/>
<text text-anchor="middle" x="97.5" y="-121.8" font-family="Lato" font-size="14.00">Marco global</text>
</g>
<!-- 1 -->
<g id="node1" class="node">
<title>1</title>
<ellipse fill="white" stroke="black" cx="191" cy="-34" rx="18" ry="18"/>
<text text-anchor="middle" x="191" y="-30.6" font-family="Lato" font-size="13.00">1</text>
</g>
<!-- 4 -->
<g id="node2" class="node">
<title>4</title>
<ellipse fill="white" stroke="black" cx="191" cy="-88" rx="18" ry="18"/>
<text text-anchor="middle" x="191" y="-84.6" font-family="Lato" font-size="13.00">4</text>
</g>
<!-- x -->
<g id="node3" class="node">
<title>x</title>
<polygon fill="transparent" stroke="transparent" points="109,-106 85,-106 85,-70 109,-70 109,-106"/>
<text text-anchor="middle" x="97" y="-84.6" font-family="monospace" font-size="13.00">x</text>
</g>
<!-- x&#45;&gt;4 -->
<g id="edge1" class="edge">
<title>x&#45;&gt;4</title>
<path fill="none" stroke="black" d="M109.28,-88C122.54,-88 144.98,-88 162.85,-88"/>
<polygon fill="black" stroke="black" points="162.99,-91.5 172.99,-88 162.99,-84.5 162.99,-91.5"/>
</g>
<!-- z -->
<g id="node4" class="node">
<title>z</title>
<polygon fill="transparent" stroke="transparent" points="109,-52 85,-52 85,-16 109,-16 109,-52"/>
<text text-anchor="middle" x="97" y="-30.6" font-family="monospace" font-size="13.00">z</text>
</g>
<!-- z&#45;&gt;1 -->
<g id="edge2" class="edge">
<title>z&#45;&gt;1</title>
<path fill="none" stroke="black" d="M109.28,-34C122.54,-34 144.98,-34 162.85,-34"/>
<polygon fill="black" stroke="black" points="162.99,-37.5 172.99,-34 162.99,-30.5 162.99,-37.5"/>
</g>
<!-- E -->
<g id="node5" class="node">
<title>E</title>
<polygon fill="transparent" stroke="transparent" points="22,-106 0,-106 0,-70 22,-70 22,-106"/>
<text text-anchor="middle" x="11" y="-84.6" font-family="Lato" font-size="13.00">E</text>
</g>
<!-- E&#45;&gt;x -->
<g id="edge3" class="edge">
<title>E&#45;&gt;x</title>
<path fill="none" stroke="black" d="M22.3,-88C27.11,-88 33.25,-88 39.93,-88"/>
<polygon fill="black" stroke="black" points="40,-91.5 50,-88 40,-84.5 40,-91.5"/>
</g>
</g>
</svg>
