<?xml version="1.0" encoding="UTF-8" standalone="no"?>
<!DOCTYPE svg PUBLIC "-//W3C//DTD SVG 1.1//EN"
 "http://www.w3.org/Graphics/SVG/1.1/DTD/svg11.dtd">
<!-- Generated by graphviz version 2.43.0 (0)
 -->
<!-- Title: %3 Pages: 1 -->
<svg width="221pt" height="222pt"
 viewBox="0.00 0.00 221.43 222.00" xmlns="http://www.w3.org/2000/svg" xmlns:xlink="http://www.w3.org/1999/xlink">
<g id="graph0" class="graph" transform="scale(1 1) rotate(0) translate(4 218)">
<title>%3</title>
<g id="clust1" class="cluster">
<title>cluster0</title>
<polygon fill="white" stroke="black" points="50,-20 50,-206 145,-206 145,-20 50,-20"/>
<text text-anchor="middle" x="97.5" y="-190.8" font-family="Lato" font-size="14.00">Marco global</text>
</g>
<!-- 21 -->
<g id="node1" class="node">
<title>21</title>
<ellipse fill="white" stroke="black" cx="193.21" cy="-74" rx="20.43" ry="20.43"/>
<text text-anchor="middle" x="193.21" y="-70.6" font-family="Lato" font-size="13.00">21</text>
</g>
<!-- 1 -->
<g id="node2" class="node">
<title>1</title>
<ellipse fill="white" stroke="black" cx="193.21" cy="-130" rx="18" ry="18"/>
<text text-anchor="middle" x="193.21" y="-126.6" font-family="Lato" font-size="13.00">1</text>
</g>
<!-- 3 -->
<g id="node3" class="node">
<title>3</title>
<ellipse fill="white" stroke="black" cx="193.21" cy="-18" rx="18" ry="18"/>
<text text-anchor="middle" x="193.21" y="-14.6" font-family="Lato" font-size="13.00">3</text>
</g>
<!-- 4 -->
<g id="node4" class="node">
<title>4</title>
<ellipse fill="white" stroke="black" cx="193.21" cy="-184" rx="18" ry="18"/>
<text text-anchor="middle" x="193.21" y="-180.6" font-family="Lato" font-size="13.00">4</text>
</g>
<!-- x -->
<g id="node5" class="node">
<title>x</title>
<polygon fill="white" stroke="black" points="79.5,-152 79.5,-174 115.5,-174 115.5,-152 79.5,-152"/>
<text text-anchor="middle" x="88.5" y="-159.6" font-family="monospace" font-size="13.00">x</text>
<polyline fill="none" stroke="black" points="97.5,-152 97.5,-174 "/>
<text text-anchor="middle" x="106.5" y="-159.6" font-family="monospace" font-size="13.00">⬤</text>
</g>
<!-- x&#45;&gt;4 -->
<g id="edge1" class="edge">
<title>x:f1&#45;&gt;4</title>
<path fill="none" stroke="black" d="M116.5,-163C133.73,-163 152.4,-168.11 166.88,-173.3"/>
<polygon fill="black" stroke="black" points="166.02,-176.71 176.61,-177.01 168.52,-170.17 166.02,-176.71"/>
</g>
<!-- z -->
<g id="node6" class="node">
<title>z</title>
<polygon fill="white" stroke="black" points="79.5,-111 79.5,-133 115.5,-133 115.5,-111 79.5,-111"/>
<text text-anchor="middle" x="88.5" y="-118.6" font-family="monospace" font-size="13.00">z</text>
<polyline fill="none" stroke="black" points="97.5,-111 97.5,-133 "/>
<text text-anchor="middle" x="106.5" y="-118.6" font-family="monospace" font-size="13.00">⬤</text>
</g>
<!-- z&#45;&gt;1 -->
<g id="edge3" class="edge">
<title>z:f1&#45;&gt;1</title>
<path fill="none" stroke="black" d="M116.5,-122C132.72,-122 150.79,-123.84 165.21,-125.75"/>
<polygon fill="black" stroke="black" points="165.03,-129.26 175.43,-127.2 166.02,-122.33 165.03,-129.26"/>
</g>
<!-- suma -->
<g id="node7" class="node">
<title>suma</title>
<polygon fill="white" stroke="black" points="62,-70 62,-92 133,-92 133,-70 62,-70"/>
<text text-anchor="middle" x="85.5" y="-77.6" font-family="monospace" font-size="13.00">suma</text>
<polyline fill="none" stroke="black" points="109,-70 109,-92 "/>
<text text-anchor="middle" x="121" y="-77.6" font-family="monospace" font-size="13.00">⬤</text>
</g>
<!-- suma&#45;&gt;21 -->
<g id="edge4" class="edge">
<title>suma:f1&#45;&gt;21</title>
<path fill="none" stroke="black" d="M134.5,-81C143.79,-81 153.85,-80.1 162.94,-78.94"/>
<polygon fill="black" stroke="black" points="163.64,-82.37 173.05,-77.5 162.65,-75.44 163.64,-82.37"/>
</g>
<!-- y -->
<g id="node8" class="node">
<title>y</title>
<polygon fill="white" stroke="black" points="79.5,-29 79.5,-51 115.5,-51 115.5,-29 79.5,-29"/>
<text text-anchor="middle" x="88.5" y="-36.6" font-family="monospace" font-size="13.00">y</text>
<polyline fill="none" stroke="black" points="97.5,-29 97.5,-51 "/>
<text text-anchor="middle" x="106.5" y="-36.6" font-family="monospace" font-size="13.00">⬤</text>
</g>
<!-- y&#45;&gt;3 -->
<g id="edge2" class="edge">
<title>y:f1&#45;&gt;3</title>
<path fill="none" stroke="black" d="M116.5,-40C133.96,-40 152.82,-34.54 167.35,-29.06"/>
<polygon fill="black" stroke="black" points="168.67,-32.3 176.64,-25.33 166.06,-25.8 168.67,-32.3"/>
</g>
<!-- E -->
<g id="node9" class="node">
<title>E</title>
<polygon fill="transparent" stroke="transparent" points="22,-181 0,-181 0,-145 22,-145 22,-181"/>
<text text-anchor="middle" x="11" y="-159.6" font-family="Lato" font-size="13.00">E</text>
</g>
<!-- E&#45;&gt;x -->
<g id="edge5" class="edge">
<title>E&#45;&gt;x</title>
<path fill="none" stroke="black" d="M22.03,-163C26.84,-163 33.04,-163 39.8,-163"/>
<polygon fill="black" stroke="black" points="40,-166.5 50,-163 40,-159.5 40,-166.5"/>
</g>
</g>
</svg>
