<?xml version="1.0" encoding="UTF-8" standalone="no"?>
<!DOCTYPE svg PUBLIC "-//W3C//DTD SVG 1.1//EN"
 "http://www.w3.org/Graphics/SVG/1.1/DTD/svg11.dtd">
<!-- Generated by graphviz version 2.43.0 (0)
 -->
<!-- Title: %3 Pages: 1 -->
<svg width="430pt" height="153pt"
 viewBox="0.00 0.00 430.00 153.00" xmlns="http://www.w3.org/2000/svg" xmlns:xlink="http://www.w3.org/1999/xlink">
<g id="graph0" class="graph" transform="scale(1 1) rotate(0) translate(4 149)">
<title>%3</title>
<g id="clust1" class="cluster">
<title>cluster0</title>
<polygon fill="white" stroke="black" points="263,-8 263,-137 358,-137 358,-8 263,-8"/>
<text text-anchor="middle" x="310.5" y="-121.8" font-family="Lato" font-size="14.00">Marco global</text>
</g>
<g id="clust2" class="cluster">
<title>cluster1</title>
<polygon fill="white" stroke="black" points="50,-31 50,-106 171,-106 171,-31 50,-31"/>
<text text-anchor="middle" x="110.5" y="-90.8" font-family="Lato" font-size="14.00">Marco de lambda</text>
</g>
<!-- total -->
<g id="node1" class="node">
<title>total</title>
<polygon fill="transparent" stroke="transparent" points="337,-106 283,-106 283,-70 337,-70 337,-106"/>
<text text-anchor="middle" x="310" y="-84.6" font-family="monospace" font-size="13.00">total</text>
</g>
<!-- lambda -->
<g id="node6" class="node">
<title>lambda</title>
<ellipse fill="white" stroke="black" cx="404" cy="-88" rx="18" ry="18"/>
<text text-anchor="middle" x="404" y="-84.6" font-family="monospace" font-size="13.00">λ</text>
</g>
<!-- total&#45;&gt;lambda -->
<g id="edge1" class="edge">
<title>total&#45;&gt;lambda</title>
<path fill="none" stroke="black" d="M337.12,-88C349.2,-88 363.54,-88 375.76,-88"/>
<polygon fill="black" stroke="black" points="375.83,-91.5 385.83,-88 375.83,-84.5 375.83,-91.5"/>
</g>
<!-- 4 -->
<g id="node2" class="node">
<title>4</title>
<ellipse fill="white" stroke="black" cx="404" cy="-34" rx="18" ry="18"/>
<text text-anchor="middle" x="404" y="-30.6" font-family="monospace" font-size="13.00">4</text>
</g>
<!-- 3 -->
<g id="node3" class="node">
<title>3</title>
<ellipse fill="white" stroke="black" cx="217" cy="-80" rx="18" ry="18"/>
<text text-anchor="middle" x="217" y="-76.6" font-family="monospace" font-size="13.00">3</text>
</g>
<!-- x -->
<g id="node4" class="node">
<title>x</title>
<polygon fill="transparent" stroke="transparent" points="337,-52 283,-52 283,-16 337,-16 337,-52"/>
<text text-anchor="middle" x="310" y="-30.6" font-family="monospace" font-size="13.00">x</text>
</g>
<!-- x&#45;&gt;4 -->
<g id="edge2" class="edge">
<title>x&#45;&gt;4</title>
<path fill="none" stroke="black" d="M337.12,-34C349.2,-34 363.54,-34 375.76,-34"/>
<polygon fill="black" stroke="black" points="375.83,-37.5 385.83,-34 375.83,-30.5 375.83,-37.5"/>
</g>
<!-- w -->
<g id="node5" class="node">
<title>w</title>
<polygon fill="transparent" stroke="transparent" points="137,-75 83,-75 83,-39 137,-39 137,-75"/>
<text text-anchor="middle" x="110" y="-53.6" font-family="monospace" font-size="13.00">w</text>
</g>
<!-- w&#45;&gt;3 -->
<g id="edge3" class="edge">
<title>w&#45;&gt;3</title>
<path fill="none" stroke="black" d="M137.23,-62.74C153.17,-66.24 173.47,-70.68 189.47,-74.19"/>
<polygon fill="black" stroke="black" points="188.76,-77.62 199.28,-76.34 190.26,-70.78 188.76,-77.62"/>
</g>
<!-- w&#45;&gt;x -->
<g id="edge4" class="edge">
<title>w&#45;&gt;x</title>
<path fill="none" stroke="black" d="M171,-50.03C196.93,-47.02 227.1,-43.51 252.61,-40.55"/>
<polygon fill="black" stroke="black" points="253.47,-43.97 263,-39.34 252.67,-37.02 253.47,-43.97"/>
</g>
<!-- E -->
<g id="node7" class="node">
<title>E</title>
<polygon fill="transparent" stroke="transparent" points="22,-75 0,-75 0,-39 22,-39 22,-75"/>
<text text-anchor="middle" x="11" y="-53.6" font-family="monospace" font-size="13.00">E</text>
</g>
<!-- E&#45;&gt;w -->
<g id="edge5" class="edge">
<title>E&#45;&gt;w</title>
<path fill="none" stroke="black" d="M22.02,-57C26.76,-57 32.87,-57 39.66,-57"/>
<polygon fill="black" stroke="black" points="40,-60.5 50,-57 40,-53.5 40,-60.5"/>
</g>
</g>
</svg>
