<?xml version="1.0" encoding="UTF-8" standalone="no"?>
<!DOCTYPE svg PUBLIC "-//W3C//DTD SVG 1.1//EN"
 "http://www.w3.org/Graphics/SVG/1.1/DTD/svg11.dtd">
<!-- Generated by graphviz version 2.43.0 (0)
 -->
<!-- Title: %3 Pages: 1 -->
<svg width="221pt" height="269pt"
 viewBox="0.00 0.00 221.43 269.00" xmlns="http://www.w3.org/2000/svg" xmlns:xlink="http://www.w3.org/1999/xlink">
<g id="graph0" class="graph" transform="scale(1 1) rotate(0) translate(4 265)">
<title>%3</title>
<g id="clust1" class="cluster">
<title>cluster0</title>
<polygon fill="white" stroke="black" points="50,-26 50,-253 145,-253 145,-26 50,-26"/>
<text text-anchor="middle" x="97.5" y="-237.8" font-family="Lato" font-size="14.00">Marco global</text>
</g>
<!-- 21 -->
<g id="node1" class="node">
<title>21</title>
<ellipse fill="white" stroke="black" cx="193.21" cy="-128" rx="20.43" ry="20.43"/>
<text text-anchor="middle" x="193.21" y="-124.6" font-family="Lato" font-size="13.00">21</text>
</g>
<!-- 1 -->
<g id="node2" class="node">
<title>1</title>
<ellipse fill="white" stroke="black" cx="193.21" cy="-184" rx="18" ry="18"/>
<text text-anchor="middle" x="193.21" y="-180.6" font-family="Lato" font-size="13.00">1</text>
</g>
<!-- 3 -->
<g id="node3" class="node">
<title>3</title>
<ellipse fill="white" stroke="black" cx="193.21" cy="-72" rx="18" ry="18"/>
<text text-anchor="middle" x="193.21" y="-68.6" font-family="Lato" font-size="13.00">3</text>
</g>
<!-- 4 -->
<g id="node4" class="node">
<title>4</title>
<ellipse fill="white" stroke="black" cx="193.21" cy="-238" rx="18" ry="18"/>
<text text-anchor="middle" x="193.21" y="-234.6" font-family="Lato" font-size="13.00">4</text>
</g>
<!-- 9 -->
<g id="node5" class="node">
<title>9</title>
<ellipse fill="white" stroke="black" cx="193.21" cy="-18" rx="18" ry="18"/>
<text text-anchor="middle" x="193.21" y="-14.6" font-family="Lato" font-size="13.00">9</text>
</g>
<!-- x -->
<g id="node6" class="node">
<title>x</title>
<polygon fill="white" stroke="black" points="79.5,-199 79.5,-221 115.5,-221 115.5,-199 79.5,-199"/>
<text text-anchor="middle" x="88.5" y="-206.6" font-family="monospace" font-size="13.00">x</text>
<polyline fill="none" stroke="black" points="97.5,-199 97.5,-221 "/>
<text text-anchor="middle" x="106.5" y="-206.6" font-family="monospace" font-size="13.00">⬤</text>
</g>
<!-- x&#45;&gt;4 -->
<g id="edge1" class="edge">
<title>x:f1&#45;&gt;4</title>
<path fill="none" stroke="black" d="M116.5,-210C134.61,-210 153.72,-217.13 168.21,-224.19"/>
<polygon fill="black" stroke="black" points="166.95,-227.48 177.44,-228.99 170.18,-221.27 166.95,-227.48"/>
</g>
<!-- z -->
<g id="node7" class="node">
<title>z</title>
<polygon fill="white" stroke="black" points="79.5,-158 79.5,-180 115.5,-180 115.5,-158 79.5,-158"/>
<text text-anchor="middle" x="88.5" y="-165.6" font-family="monospace" font-size="13.00">z</text>
<polyline fill="none" stroke="black" points="97.5,-158 97.5,-180 "/>
<text text-anchor="middle" x="106.5" y="-165.6" font-family="monospace" font-size="13.00">⬤</text>
</g>
<!-- z&#45;&gt;1 -->
<g id="edge3" class="edge">
<title>z:f1&#45;&gt;1</title>
<path fill="none" stroke="black" d="M116.5,-169C133.21,-169 151.61,-172.56 166.09,-176.21"/>
<polygon fill="black" stroke="black" points="165.29,-179.62 175.86,-178.84 167.11,-172.86 165.29,-179.62"/>
</g>
<!-- suma -->
<g id="node8" class="node">
<title>suma</title>
<polygon fill="white" stroke="black" points="62,-117 62,-139 133,-139 133,-117 62,-117"/>
<text text-anchor="middle" x="85.5" y="-124.6" font-family="monospace" font-size="13.00">suma</text>
<polyline fill="none" stroke="black" points="109,-117 109,-139 "/>
<text text-anchor="middle" x="121" y="-124.6" font-family="monospace" font-size="13.00">⬤</text>
</g>
<!-- suma&#45;&gt;21 -->
<g id="edge4" class="edge">
<title>suma:f1&#45;&gt;21</title>
<path fill="none" stroke="black" d="M134.5,-128C143.72,-128 153.76,-128 162.85,-128"/>
<polygon fill="black" stroke="black" points="162.98,-131.5 172.98,-128 162.98,-124.5 162.98,-131.5"/>
</g>
<!-- y -->
<g id="node9" class="node">
<title>y</title>
<polygon fill="white" stroke="black" points="79.5,-76 79.5,-98 115.5,-98 115.5,-76 79.5,-76"/>
<text text-anchor="middle" x="88.5" y="-83.6" font-family="monospace" font-size="13.00">y</text>
<polyline fill="none" stroke="black" points="97.5,-76 97.5,-98 "/>
<text text-anchor="middle" x="106.5" y="-83.6" font-family="monospace" font-size="13.00">⬤</text>
</g>
<!-- y&#45;&gt;3 -->
<g id="edge2" class="edge">
<title>y:f1&#45;&gt;3</title>
<path fill="none" stroke="black" d="M116.5,-87C133.21,-87 151.61,-83.44 166.09,-79.79"/>
<polygon fill="black" stroke="black" points="167.11,-83.14 175.86,-77.16 165.29,-76.38 167.11,-83.14"/>
</g>
<!-- w -->
<g id="node10" class="node">
<title>w</title>
<polygon fill="white" stroke="black" points="79.5,-35 79.5,-57 115.5,-57 115.5,-35 79.5,-35"/>
<text text-anchor="middle" x="88.5" y="-42.6" font-family="monospace" font-size="13.00">w</text>
<polyline fill="none" stroke="black" points="97.5,-35 97.5,-57 "/>
<text text-anchor="middle" x="106.5" y="-42.6" font-family="monospace" font-size="13.00">⬤</text>
</g>
<!-- w&#45;&gt;9 -->
<g id="edge5" class="edge">
<title>w:f1&#45;&gt;9</title>
<path fill="none" stroke="black" d="M116.5,-46C134.61,-46 153.72,-38.87 168.21,-31.81"/>
<polygon fill="black" stroke="black" points="170.18,-34.73 177.44,-27.01 166.95,-28.52 170.18,-34.73"/>
</g>
<!-- E -->
<g id="node11" class="node">
<title>E</title>
<polygon fill="transparent" stroke="transparent" points="22,-228 0,-228 0,-192 22,-192 22,-228"/>
<text text-anchor="middle" x="11" y="-206.6" font-family="Lato" font-size="13.00">E</text>
</g>
<!-- E&#45;&gt;x -->
<g id="edge6" class="edge">
<title>E&#45;&gt;x</title>
<path fill="none" stroke="black" d="M22.03,-210C26.84,-210 33.04,-210 39.8,-210"/>
<polygon fill="black" stroke="black" points="40,-213.5 50,-210 40,-206.5 40,-213.5"/>
</g>
</g>
</svg>
