<?xml version="1.0" encoding="UTF-8" standalone="no"?>
<!DOCTYPE svg PUBLIC "-//W3C//DTD SVG 1.1//EN"
 "http://www.w3.org/Graphics/SVG/1.1/DTD/svg11.dtd">
<!-- Generated by graphviz version 2.40.1 (20161225.0304)
 -->
<!-- Title: %3 Pages: 1 -->
<svg width="576pt" height="398pt"
 viewBox="0.00 0.00 576.00 397.96" xmlns="http://www.w3.org/2000/svg" xmlns:xlink="http://www.w3.org/1999/xlink">
<g id="graph0" class="graph" transform="scale(2.6182 2.6182) rotate(0) translate(4 148)">
<title>%3</title>
<!-- 1 -->
<g id="node1" class="node">
<title>1</title>
<ellipse fill="#ffffff" stroke="#000000" cx="181" cy="-18" rx="18" ry="18"/>
<text text-anchor="middle" x="181" y="-14.6" font-family="monospace" font-size="13.00" fill="#000000">1</text>
</g>
<!-- 4 -->
<g id="node2" class="node">
<title>4</title>
<ellipse fill="#ffffff" stroke="#000000" cx="181" cy="-72" rx="18" ry="18"/>
<text text-anchor="middle" x="181" y="-68.6" font-family="monospace" font-size="13.00" fill="#000000">4</text>
</g>
<!-- x -->
<g id="node3" class="node">
<title>x</title>
<polygon fill="transparent" stroke="transparent" points="103,-90 11,-90 11,-54 103,-54 103,-90"/>
<text text-anchor="middle" x="57" y="-68.6" font-family="monospace" font-size="13.00" fill="#000000">x (global)</text>
</g>
<!-- x&#45;&gt;4 -->
<g id="edge2" class="edge">
<title>x&#45;&gt;4</title>
<path fill="none" stroke="#000000" d="M103.173,-72C119.744,-72 137.9315,-72 152.5549,-72"/>
<polygon fill="#000000" stroke="#000000" points="152.9569,-75.5001 162.9569,-72 152.9569,-68.5001 152.9569,-75.5001"/>
</g>
<!-- z -->
<g id="node4" class="node">
<title>z</title>
<polygon fill="transparent" stroke="transparent" points="103,-36 11,-36 11,0 103,0 103,-36"/>
<text text-anchor="middle" x="57" y="-14.6" font-family="monospace" font-size="13.00" fill="#000000">z (global)</text>
</g>
<!-- z&#45;&gt;1 -->
<g id="edge3" class="edge">
<title>z&#45;&gt;1</title>
<path fill="none" stroke="#000000" d="M103.173,-18C119.744,-18 137.9315,-18 152.5549,-18"/>
<polygon fill="#000000" stroke="#000000" points="152.9569,-21.5001 162.9569,-18 152.9569,-14.5001 152.9569,-21.5001"/>
</g>
<!-- suma -->
<g id="node5" class="node">
<title>suma</title>
<polygon fill="transparent" stroke="transparent" points="114,-144 0,-144 0,-108 114,-108 114,-144"/>
<text text-anchor="middle" x="57" y="-122.6" font-family="monospace" font-size="13.00" fill="#000000">suma (global)</text>
</g>
<!-- lambda -->
<g id="node6" class="node">
<title>lambda</title>
<polygon fill="#ffffff" stroke="#000000" points="212,-144 150,-144 150,-108 212,-108 212,-144"/>
<text text-anchor="middle" x="181" y="-122.6" font-family="monospace" font-size="13.00" fill="#000000">lambda</text>
</g>
<!-- suma&#45;&gt;lambda -->
<g id="edge1" class="edge">
<title>suma&#45;&gt;lambda</title>
<path fill="none" stroke="#000000" d="M114.2814,-126C122.753,-126 131.3427,-126 139.4131,-126"/>
<polygon fill="#000000" stroke="#000000" points="139.6695,-129.5001 149.6695,-126 139.6695,-122.5001 139.6695,-129.5001"/>
</g>
</g>
</svg>
