<?xml version="1.0" encoding="UTF-8" standalone="no"?>
<!DOCTYPE svg PUBLIC "-//W3C//DTD SVG 1.1//EN"
 "http://www.w3.org/Graphics/SVG/1.1/DTD/svg11.dtd">
<!-- Generated by graphviz version 2.40.1 (20161225.0304)
 -->
<!-- Title: %3 Pages: 1 -->
<svg width="462pt" height="576pt"
 viewBox="0.00 0.00 461.91 576.00" xmlns="http://www.w3.org/2000/svg" xmlns:xlink="http://www.w3.org/1999/xlink">
<g id="graph0" class="graph" transform="scale(2.7826 2.7826) rotate(0) translate(4 203)">
<title>%3</title>
<g id="clust1" class="cluster">
<title>cluster0</title>
<polygon fill="#ffffff" stroke="#000000" points="8,-8 8,-191 150,-191 150,-8 8,-8"/>
<text text-anchor="middle" x="79" y="-175.8" font-family="Lato" font-size="14.00" fill="#000000">Marco global</text>
</g>
<!-- 3 -->
<g id="node1" class="node">
<title>3</title>
<ellipse fill="#ffffff" stroke="#000000" cx="124" cy="-61" rx="18" ry="18"/>
<text text-anchor="middle" x="124" y="-57.6" font-family="monospace" font-size="13.00" fill="#000000">3</text>
</g>
<!-- 4 -->
<g id="node2" class="node">
<title>4</title>
<ellipse fill="#ffffff" stroke="#000000" cx="124" cy="-142" rx="18" ry="18"/>
<text text-anchor="middle" x="124" y="-138.6" font-family="monospace" font-size="13.00" fill="#000000">4</text>
</g>
<!-- x -->
<g id="node3" class="node">
<title>x</title>
<polygon fill="transparent" stroke="transparent" points="70,-160 16,-160 16,-124 70,-124 70,-160"/>
<text text-anchor="middle" x="43" y="-138.6" font-family="monospace" font-size="13.00" fill="#000000">x</text>
</g>
<!-- x&#45;&gt;4 -->
<g id="edge1" class="edge">
<title>x&#45;&gt;4</title>
<path fill="none" stroke="#000000" d="M61.3802,-142C71.4966,-142 84.2691,-142 95.6363,-142"/>
<polygon fill="#000000" stroke="#000000" points="95.9716,-145.5001 105.9716,-142 95.9716,-138.5001 95.9716,-145.5001"/>
</g>
<!-- y -->
<g id="node4" class="node">
<title>y</title>
<polygon fill="transparent" stroke="transparent" points="70,-106 16,-106 16,-70 70,-70 70,-106"/>
<text text-anchor="middle" x="43" y="-84.6" font-family="monospace" font-size="13.00" fill="#000000">y</text>
</g>
<!-- y&#45;&gt;3 -->
<g id="edge2" class="edge">
<title>y&#45;&gt;3</title>
<path fill="none" stroke="#000000" d="M61.3802,-81.8733C71.9218,-78.3594 85.3475,-73.8842 97.0619,-69.9794"/>
<polygon fill="#000000" stroke="#000000" points="98.4203,-73.216 106.8003,-66.7332 96.2066,-66.5752 98.4203,-73.216"/>
</g>
<!-- z -->
<g id="node5" class="node">
<title>z</title>
<polygon fill="transparent" stroke="transparent" points="70,-52 16,-52 16,-16 70,-16 70,-52"/>
<text text-anchor="middle" x="43" y="-30.6" font-family="monospace" font-size="13.00" fill="#000000">z</text>
</g>
<!-- z&#45;&gt;3 -->
<g id="edge3" class="edge">
<title>z&#45;&gt;3</title>
<path fill="none" stroke="#000000" d="M61.3802,-40.1267C71.9218,-43.6406 85.3475,-48.1158 97.0619,-52.0206"/>
<polygon fill="#000000" stroke="#000000" points="96.2066,-55.4248 106.8003,-55.2668 98.4203,-48.784 96.2066,-55.4248"/>
</g>
</g>
</svg>
