<?xml version="1.0" encoding="UTF-8" standalone="no"?>
<!DOCTYPE svg PUBLIC "-//W3C//DTD SVG 1.1//EN"
 "http://www.w3.org/Graphics/SVG/1.1/DTD/svg11.dtd">
<!-- Generated by graphviz version 2.43.0 (0)
 -->
<!-- Title: %3 Pages: 1 -->
<svg width="190pt" height="153pt"
 viewBox="0.00 0.00 189.60 153.00" xmlns="http://www.w3.org/2000/svg" xmlns:xlink="http://www.w3.org/1999/xlink">
<g id="graph0" class="graph" transform="scale(1 1) rotate(0) translate(4 149)">
<title>%3</title>
<g id="clust1" class="cluster">
<title>cluster0</title>
<polygon fill="white" stroke="black" points="31.6,-8 31.6,-137 173.6,-137 173.6,-8 31.6,-8"/>
<text text-anchor="middle" x="102.6" y="-121.8" font-family="Lato" font-size="14.00">Marco global</text>
</g>
<!-- 1 -->
<g id="node1" class="node">
<title>1</title>
<ellipse fill="white" stroke="black" cx="147.6" cy="-34" rx="18" ry="18"/>
<text text-anchor="middle" x="147.6" y="-30.6" font-family="monospace" font-size="13.00">1</text>
</g>
<!-- 4 -->
<g id="node2" class="node">
<title>4</title>
<ellipse fill="white" stroke="black" cx="147.6" cy="-88" rx="18" ry="18"/>
<text text-anchor="middle" x="147.6" y="-84.6" font-family="monospace" font-size="13.00">4</text>
</g>
<!-- x -->
<g id="node3" class="node">
<title>x</title>
<polygon fill="transparent" stroke="transparent" points="93.6,-106 39.6,-106 39.6,-70 93.6,-70 93.6,-106"/>
<text text-anchor="middle" x="66.6" y="-84.6" font-family="monospace" font-size="13.00">x</text>
</g>
<!-- x&#45;&gt;4 -->
<g id="edge1" class="edge">
<title>x&#45;&gt;4</title>
<path fill="none" stroke="black" d="M93.91,-88C102.02,-88 110.97,-88 119.16,-88"/>
<polygon fill="black" stroke="black" points="119.35,-91.5 129.35,-88 119.35,-84.5 119.35,-91.5"/>
</g>
<!-- z -->
<g id="node4" class="node">
<title>z</title>
<polygon fill="transparent" stroke="transparent" points="93.6,-52 39.6,-52 39.6,-16 93.6,-16 93.6,-52"/>
<text text-anchor="middle" x="66.6" y="-30.6" font-family="monospace" font-size="13.00">z</text>
</g>
<!-- z&#45;&gt;1 -->
<g id="edge2" class="edge">
<title>z&#45;&gt;1</title>
<path fill="none" stroke="black" d="M93.91,-34C102.02,-34 110.97,-34 119.16,-34"/>
<polygon fill="black" stroke="black" points="119.35,-37.5 129.35,-34 119.35,-30.5 119.35,-37.5"/>
</g>
<!-- E -->
<g id="node5" class="node">
<title>E</title>
<ellipse fill="white" stroke="black" cx="1.8" cy="-88" rx="1.8" ry="1.8"/>
</g>
<!-- E&#45;&gt;x -->
<g id="edge3" class="edge">
<title>E&#45;&gt;x</title>
<path fill="none" stroke="black" d="M3.89,-88C7.24,-88 17.86,-88 29.37,-88"/>
<polygon fill="black" stroke="black" points="21.6,-91.5 31.6,-88 21.6,-84.5 21.6,-91.5"/>
</g>
</g>
</svg>
