<?xml version="1.0" encoding="UTF-8" standalone="no"?>
<!DOCTYPE svg PUBLIC "-//W3C//DTD SVG 1.1//EN"
 "http://www.w3.org/Graphics/SVG/1.1/DTD/svg11.dtd">
<!-- Generated by graphviz version 2.40.1 (20161225.0304)
 -->
<!-- Title: %3 Pages: 1 -->
<svg width="347pt" height="576pt"
 viewBox="0.00 0.00 346.70 576.00" xmlns="http://www.w3.org/2000/svg" xmlns:xlink="http://www.w3.org/1999/xlink">
<g id="graph0" class="graph" transform="scale(1.8286 1.8286) rotate(0) translate(4 311)">
<title>%3</title>
<g id="clust1" class="cluster">
<title>cluster0</title>
<polygon fill="#ffffff" stroke="#000000" points="31.6,-8 31.6,-299 173.6,-299 173.6,-8 31.6,-8"/>
<text text-anchor="middle" x="102.6" y="-283.8" font-family="Lato" font-size="14.00" fill="#000000">Marco global</text>
</g>
<!-- 21 -->
<g id="node1" class="node">
<title>21</title>
<ellipse fill="#ffffff" stroke="#000000" cx="147.6" cy="-142" rx="18" ry="18"/>
<text text-anchor="middle" x="147.6" y="-138.6" font-family="monospace" font-size="13.00" fill="#000000">21</text>
</g>
<!-- 1 -->
<g id="node2" class="node">
<title>1</title>
<ellipse fill="#ffffff" stroke="#000000" cx="147.6" cy="-196" rx="18" ry="18"/>
<text text-anchor="middle" x="147.6" y="-192.6" font-family="monospace" font-size="13.00" fill="#000000">1</text>
</g>
<!-- 3 -->
<g id="node3" class="node">
<title>3</title>
<ellipse fill="#ffffff" stroke="#000000" cx="147.6" cy="-88" rx="18" ry="18"/>
<text text-anchor="middle" x="147.6" y="-84.6" font-family="monospace" font-size="13.00" fill="#000000">3</text>
</g>
<!-- 4 -->
<g id="node4" class="node">
<title>4</title>
<ellipse fill="#ffffff" stroke="#000000" cx="147.6" cy="-250" rx="18" ry="18"/>
<text text-anchor="middle" x="147.6" y="-246.6" font-family="monospace" font-size="13.00" fill="#000000">4</text>
</g>
<!-- 9 -->
<g id="node5" class="node">
<title>9</title>
<ellipse fill="#ffffff" stroke="#000000" cx="147.6" cy="-34" rx="18" ry="18"/>
<text text-anchor="middle" x="147.6" y="-30.6" font-family="monospace" font-size="13.00" fill="#000000">9</text>
</g>
<!-- x -->
<g id="node6" class="node">
<title>x</title>
<polygon fill="transparent" stroke="transparent" points="93.6,-268 39.6,-268 39.6,-232 93.6,-232 93.6,-268"/>
<text text-anchor="middle" x="66.6" y="-246.6" font-family="monospace" font-size="13.00" fill="#000000">x</text>
</g>
<!-- x&#45;&gt;4 -->
<g id="edge1" class="edge">
<title>x&#45;&gt;4</title>
<path fill="none" stroke="#000000" d="M84.9802,-250C95.0966,-250 107.8691,-250 119.2363,-250"/>
<polygon fill="#000000" stroke="#000000" points="119.5716,-253.5001 129.5716,-250 119.5716,-246.5001 119.5716,-253.5001"/>
</g>
<!-- z -->
<g id="node7" class="node">
<title>z</title>
<polygon fill="transparent" stroke="transparent" points="93.6,-214 39.6,-214 39.6,-178 93.6,-178 93.6,-214"/>
<text text-anchor="middle" x="66.6" y="-192.6" font-family="monospace" font-size="13.00" fill="#000000">z</text>
</g>
<!-- z&#45;&gt;1 -->
<g id="edge3" class="edge">
<title>z&#45;&gt;1</title>
<path fill="none" stroke="#000000" d="M84.9802,-196C95.0966,-196 107.8691,-196 119.2363,-196"/>
<polygon fill="#000000" stroke="#000000" points="119.5716,-199.5001 129.5716,-196 119.5716,-192.5001 119.5716,-199.5001"/>
</g>
<!-- suma -->
<g id="node8" class="node">
<title>suma</title>
<polygon fill="transparent" stroke="transparent" points="93.6,-160 39.6,-160 39.6,-124 93.6,-124 93.6,-160"/>
<text text-anchor="middle" x="66.6" y="-138.6" font-family="monospace" font-size="13.00" fill="#000000">suma</text>
</g>
<!-- suma&#45;&gt;21 -->
<g id="edge4" class="edge">
<title>suma&#45;&gt;21</title>
<path fill="none" stroke="#000000" d="M84.9802,-142C95.0966,-142 107.8691,-142 119.2363,-142"/>
<polygon fill="#000000" stroke="#000000" points="119.5716,-145.5001 129.5716,-142 119.5716,-138.5001 119.5716,-145.5001"/>
</g>
<!-- y -->
<g id="node9" class="node">
<title>y</title>
<polygon fill="transparent" stroke="transparent" points="93.6,-106 39.6,-106 39.6,-70 93.6,-70 93.6,-106"/>
<text text-anchor="middle" x="66.6" y="-84.6" font-family="monospace" font-size="13.00" fill="#000000">y</text>
</g>
<!-- y&#45;&gt;3 -->
<g id="edge2" class="edge">
<title>y&#45;&gt;3</title>
<path fill="none" stroke="#000000" d="M84.9802,-88C95.0966,-88 107.8691,-88 119.2363,-88"/>
<polygon fill="#000000" stroke="#000000" points="119.5716,-91.5001 129.5716,-88 119.5716,-84.5001 119.5716,-91.5001"/>
</g>
<!-- w -->
<g id="node10" class="node">
<title>w</title>
<polygon fill="transparent" stroke="transparent" points="93.6,-52 39.6,-52 39.6,-16 93.6,-16 93.6,-52"/>
<text text-anchor="middle" x="66.6" y="-30.6" font-family="monospace" font-size="13.00" fill="#000000">w</text>
</g>
<!-- w&#45;&gt;9 -->
<g id="edge5" class="edge">
<title>w&#45;&gt;9</title>
<path fill="none" stroke="#000000" d="M84.9802,-34C95.0966,-34 107.8691,-34 119.2363,-34"/>
<polygon fill="#000000" stroke="#000000" points="119.5716,-37.5001 129.5716,-34 119.5716,-30.5001 119.5716,-37.5001"/>
</g>
<!-- E -->
<g id="node11" class="node">
<title>E</title>
<ellipse fill="#ffffff" stroke="#000000" cx="1.8" cy="-250" rx="1.8" ry="1.8"/>
</g>
<!-- E&#45;&gt;x -->
<g id="edge6" class="edge">
<title>E&#45;&gt;x</title>
<path fill="none" stroke="#000000" d="M3.6695,-250C6.7942,-250 13.5241,-250 21.4684,-250"/>
<polygon fill="#000000" stroke="#000000" points="21.6003,-253.5001 31.6002,-250 21.6002,-246.5001 21.6003,-253.5001"/>
</g>
</g>
</svg>
