<?xml version="1.0" encoding="UTF-8" standalone="no"?>
<!DOCTYPE svg PUBLIC "-//W3C//DTD SVG 1.1//EN"
 "http://www.w3.org/Graphics/SVG/1.1/DTD/svg11.dtd">
<!-- Generated by graphviz version 2.43.0 (0)
 -->
<!-- Title: %3 Pages: 1 -->
<svg width="217pt" height="128pt"
 viewBox="0.00 0.00 217.00 128.00" xmlns="http://www.w3.org/2000/svg" xmlns:xlink="http://www.w3.org/1999/xlink">
<g id="graph0" class="graph" transform="scale(1 1) rotate(0) translate(4 124)">
<title>%3</title>
<g id="clust1" class="cluster">
<title>cluster0</title>
<polygon fill="white" stroke="black" points="50,-8 50,-112 145,-112 145,-8 50,-8"/>
<text text-anchor="middle" x="97.5" y="-96.8" font-family="Lato" font-size="14.00">Marco global</text>
</g>
<!-- 1 -->
<g id="node1" class="node">
<title>1</title>
<ellipse fill="white" stroke="black" cx="191" cy="-22" rx="18" ry="18"/>
<text text-anchor="middle" x="191" y="-18.6" font-family="Lato" font-size="13.00">1</text>
</g>
<!-- 4 -->
<g id="node2" class="node">
<title>4</title>
<ellipse fill="white" stroke="black" cx="191" cy="-76" rx="18" ry="18"/>
<text text-anchor="middle" x="191" y="-72.6" font-family="Lato" font-size="13.00">4</text>
</g>
<!-- x -->
<g id="node3" class="node">
<title>x</title>
<polygon fill="white" stroke="black" points="79,-58 79,-80 115,-80 115,-58 79,-58"/>
<text text-anchor="middle" x="88" y="-65.6" font-family="monospace" font-size="13.00">x</text>
<polyline fill="none" stroke="black" points="97,-58 97,-80 "/>
<text text-anchor="middle" x="106" y="-65.6" font-family="monospace" font-size="13.00">⬤</text>
</g>
<!-- x&#45;&gt;4 -->
<g id="edge1" class="edge">
<title>x:f1&#45;&gt;4</title>
<path fill="none" stroke="black" d="M116,-69C131.63,-69 149.04,-70.57 163.04,-72.22"/>
<polygon fill="black" stroke="black" points="162.64,-75.7 173,-73.47 163.51,-68.75 162.64,-75.7"/>
</g>
<!-- z -->
<g id="node4" class="node">
<title>z</title>
<polygon fill="white" stroke="black" points="79,-17 79,-39 115,-39 115,-17 79,-17"/>
<text text-anchor="middle" x="88" y="-24.6" font-family="monospace" font-size="13.00">z</text>
<polyline fill="none" stroke="black" points="97,-17 97,-39 "/>
<text text-anchor="middle" x="106" y="-24.6" font-family="monospace" font-size="13.00">⬤</text>
</g>
<!-- z&#45;&gt;1 -->
<g id="edge2" class="edge">
<title>z:f1&#45;&gt;1</title>
<path fill="none" stroke="black" d="M116,-28C131.61,-28 149.02,-26.66 163.02,-25.24"/>
<polygon fill="black" stroke="black" points="163.42,-28.72 172.98,-24.17 162.67,-21.76 163.42,-28.72"/>
</g>
<!-- E -->
<g id="node5" class="node">
<title>E</title>
<polygon fill="transparent" stroke="transparent" points="22,-87 0,-87 0,-51 22,-51 22,-87"/>
<text text-anchor="middle" x="11" y="-65.6" font-family="Lato" font-size="13.00">E</text>
</g>
<!-- E&#45;&gt;x -->
<g id="edge3" class="edge">
<title>E&#45;&gt;x</title>
<path fill="none" stroke="black" d="M22.3,-69C27.11,-69 33.25,-69 39.93,-69"/>
<polygon fill="black" stroke="black" points="40,-72.5 50,-69 40,-65.5 40,-72.5"/>
</g>
</g>
</svg>
