<?xml version="1.0" encoding="UTF-8" standalone="no"?>
<!DOCTYPE svg PUBLIC "-//W3C//DTD SVG 1.1//EN"
 "http://www.w3.org/Graphics/SVG/1.1/DTD/svg11.dtd">
<!-- Generated by graphviz version 2.42.4 (0)
 -->
<!-- Pages: 1 -->
<svg width="221pt" height="207pt"
 viewBox="0.00 0.00 221.43 207.00" xmlns="http://www.w3.org/2000/svg" xmlns:xlink="http://www.w3.org/1999/xlink">
<g id="graph0" class="graph" transform="scale(1 1) rotate(0) translate(4 203)">
<g id="clust1" class="cluster">
<title>cluster0</title>
<polygon fill="white" stroke="black" points="50,-8 50,-191 145,-191 145,-8 50,-8"/>
<text text-anchor="middle" x="97.5" y="-175.8" font-family="Lato" font-size="14.00">Marco global</text>
</g>
<!-- 21 -->
<g id="node1" class="node">
<title>21</title>
<ellipse fill="white" stroke="black" cx="193.21" cy="-32" rx="20.43" ry="20.43"/>
<text text-anchor="middle" x="193.21" y="-28.6" font-family="Lato" font-size="13.00">21</text>
</g>
<!-- 1 -->
<g id="node2" class="node">
<title>1</title>
<ellipse fill="white" stroke="black" cx="193.21" cy="-88" rx="18" ry="18"/>
<text text-anchor="middle" x="193.21" y="-84.6" font-family="Lato" font-size="13.00">1</text>
</g>
<!-- 4 -->
<g id="node3" class="node">
<title>4</title>
<ellipse fill="white" stroke="black" cx="193.21" cy="-142" rx="18" ry="18"/>
<text text-anchor="middle" x="193.21" y="-138.6" font-family="Lato" font-size="13.00">4</text>
</g>
<!-- x -->
<g id="node4" class="node">
<title>x</title>
<polygon fill="transparent" stroke="transparent" points="100.5,-160 93.5,-160 93.5,-124 100.5,-124 100.5,-160"/>
<text text-anchor="middle" x="97" y="-138.6" font-family="monospace" font-size="13.00">x</text>
</g>
<!-- x&#45;&gt;4 -->
<g id="edge1" class="edge">
<title>x&#45;&gt;4</title>
<path fill="none" stroke="black" d="M115.28,-142C129.09,-142 148.72,-142 164.69,-142"/>
<polygon fill="black" stroke="black" points="165.04,-145.5 175.04,-142 165.04,-138.5 165.04,-145.5"/>
</g>
<!-- z -->
<g id="node5" class="node">
<title>z</title>
<polygon fill="transparent" stroke="transparent" points="100.5,-106 93.5,-106 93.5,-70 100.5,-70 100.5,-106"/>
<text text-anchor="middle" x="97" y="-84.6" font-family="monospace" font-size="13.00">z</text>
</g>
<!-- z&#45;&gt;1 -->
<g id="edge2" class="edge">
<title>z&#45;&gt;1</title>
<path fill="none" stroke="black" d="M115.28,-88C129.09,-88 148.72,-88 164.69,-88"/>
<polygon fill="black" stroke="black" points="165.04,-91.5 175.04,-88 165.04,-84.5 165.04,-91.5"/>
</g>
<!-- suma -->
<g id="node6" class="node">
<title>suma</title>
<polygon fill="transparent" stroke="transparent" points="124,-52 70,-52 70,-16 124,-16 124,-52"/>
<text text-anchor="middle" x="97" y="-30.6" font-family="monospace" font-size="13.00">suma</text>
</g>
<!-- suma&#45;&gt;21 -->
<g id="edge3" class="edge">
<title>suma&#45;&gt;21</title>
<path fill="none" stroke="black" d="M115.28,-33.63C128.49,-33.35 147.01,-32.96 162.57,-32.63"/>
<polygon fill="black" stroke="black" points="162.84,-36.12 172.77,-32.41 162.7,-29.13 162.84,-36.12"/>
</g>
<!-- E -->
<g id="node7" class="node">
<title>E</title>
<polygon fill="transparent" stroke="transparent" points="22,-106 0,-106 0,-70 22,-70 22,-106"/>
<text text-anchor="middle" x="11" y="-84.6" font-family="Lato" font-size="13.00">E</text>
</g>
<!-- E&#45;&gt;z -->
<g id="edge4" class="edge">
<title>E&#45;&gt;z</title>
<path fill="none" stroke="black" d="M22.3,-88C27.11,-88 33.25,-88 39.93,-88"/>
<polygon fill="black" stroke="black" points="40,-91.5 50,-88 40,-84.5 40,-91.5"/>
</g>
</g>
</svg>
