<?xml version="1.0" encoding="UTF-8" standalone="no"?>
<!DOCTYPE svg PUBLIC "-//W3C//DTD SVG 1.1//EN"
 "http://www.w3.org/Graphics/SVG/1.1/DTD/svg11.dtd">
<!-- Generated by graphviz version 2.43.0 (0)
 -->
<!-- Title: %3 Pages: 1 -->
<svg width="190pt" height="261pt"
 viewBox="0.00 0.00 189.60 261.00" xmlns="http://www.w3.org/2000/svg" xmlns:xlink="http://www.w3.org/1999/xlink">
<g id="graph0" class="graph" transform="scale(1 1) rotate(0) translate(4 257)">
<title>%3</title>
<g id="clust1" class="cluster">
<title>cluster0</title>
<polygon fill="white" stroke="black" points="31.6,-8 31.6,-245 173.6,-245 173.6,-8 31.6,-8"/>
<text text-anchor="middle" x="102.6" y="-229.8" font-family="Lato" font-size="14.00">Marco global</text>
</g>
<!-- 21 -->
<g id="node1" class="node">
<title>21</title>
<ellipse fill="white" stroke="black" cx="147.6" cy="-88" rx="18" ry="18"/>
<text text-anchor="middle" x="147.6" y="-84.6" font-family="monospace" font-size="13.00">21</text>
</g>
<!-- 1 -->
<g id="node2" class="node">
<title>1</title>
<ellipse fill="white" stroke="black" cx="147.6" cy="-142" rx="18" ry="18"/>
<text text-anchor="middle" x="147.6" y="-138.6" font-family="monospace" font-size="13.00">1</text>
</g>
<!-- 3 -->
<g id="node3" class="node">
<title>3</title>
<ellipse fill="white" stroke="black" cx="147.6" cy="-34" rx="18" ry="18"/>
<text text-anchor="middle" x="147.6" y="-30.6" font-family="monospace" font-size="13.00">3</text>
</g>
<!-- 4 -->
<g id="node4" class="node">
<title>4</title>
<ellipse fill="white" stroke="black" cx="147.6" cy="-196" rx="18" ry="18"/>
<text text-anchor="middle" x="147.6" y="-192.6" font-family="monospace" font-size="13.00">4</text>
</g>
<!-- x -->
<g id="node5" class="node">
<title>x</title>
<polygon fill="transparent" stroke="transparent" points="93.6,-214 39.6,-214 39.6,-178 93.6,-178 93.6,-214"/>
<text text-anchor="middle" x="66.6" y="-192.6" font-family="monospace" font-size="13.00">x</text>
</g>
<!-- x&#45;&gt;4 -->
<g id="edge1" class="edge">
<title>x&#45;&gt;4</title>
<path fill="none" stroke="black" d="M84.74,-196C94.89,-196 107.97,-196 119.48,-196"/>
<polygon fill="black" stroke="black" points="119.49,-199.5 129.49,-196 119.49,-192.5 119.49,-199.5"/>
</g>
<!-- z -->
<g id="node6" class="node">
<title>z</title>
<polygon fill="transparent" stroke="transparent" points="93.6,-160 39.6,-160 39.6,-124 93.6,-124 93.6,-160"/>
<text text-anchor="middle" x="66.6" y="-138.6" font-family="monospace" font-size="13.00">z</text>
</g>
<!-- z&#45;&gt;1 -->
<g id="edge3" class="edge">
<title>z&#45;&gt;1</title>
<path fill="none" stroke="black" d="M84.74,-142C94.89,-142 107.97,-142 119.48,-142"/>
<polygon fill="black" stroke="black" points="119.49,-145.5 129.49,-142 119.49,-138.5 119.49,-145.5"/>
</g>
<!-- suma -->
<g id="node7" class="node">
<title>suma</title>
<polygon fill="transparent" stroke="transparent" points="93.6,-106 39.6,-106 39.6,-70 93.6,-70 93.6,-106"/>
<text text-anchor="middle" x="66.6" y="-84.6" font-family="monospace" font-size="13.00">suma</text>
</g>
<!-- suma&#45;&gt;21 -->
<g id="edge4" class="edge">
<title>suma&#45;&gt;21</title>
<path fill="none" stroke="black" d="M84.74,-88C94.89,-88 107.97,-88 119.48,-88"/>
<polygon fill="black" stroke="black" points="119.49,-91.5 129.49,-88 119.49,-84.5 119.49,-91.5"/>
</g>
<!-- y -->
<g id="node8" class="node">
<title>y</title>
<polygon fill="transparent" stroke="transparent" points="93.6,-52 39.6,-52 39.6,-16 93.6,-16 93.6,-52"/>
<text text-anchor="middle" x="66.6" y="-30.6" font-family="monospace" font-size="13.00">y</text>
</g>
<!-- y&#45;&gt;3 -->
<g id="edge2" class="edge">
<title>y&#45;&gt;3</title>
<path fill="none" stroke="black" d="M84.74,-34C94.89,-34 107.97,-34 119.48,-34"/>
<polygon fill="black" stroke="black" points="119.49,-37.5 129.49,-34 119.49,-30.5 119.49,-37.5"/>
</g>
<!-- E -->
<g id="node9" class="node">
<title>E</title>
<ellipse fill="white" stroke="black" cx="1.8" cy="-196" rx="1.8" ry="1.8"/>
</g>
<!-- E&#45;&gt;x -->
<g id="edge5" class="edge">
<title>E&#45;&gt;x</title>
<path fill="none" stroke="black" d="M3.89,-196C6.45,-196 13.27,-196 21.49,-196"/>
<polygon fill="black" stroke="black" points="21.6,-199.5 31.6,-196 21.6,-192.5 21.6,-199.5"/>
</g>
</g>
</svg>
