<?xml version="1.0" encoding="UTF-8" standalone="no"?>
<!DOCTYPE svg PUBLIC "-//W3C//DTD SVG 1.1//EN"
 "http://www.w3.org/Graphics/SVG/1.1/DTD/svg11.dtd">
<!-- Generated by graphviz version 2.40.1 (20161225.0304)
 -->
<!-- Title: %3 Pages: 1 -->
<svg width="576pt" height="302pt"
 viewBox="0.00 0.00 576.00 301.53" xmlns="http://www.w3.org/2000/svg" xmlns:xlink="http://www.w3.org/1999/xlink">
<g id="graph0" class="graph" transform="scale(1.4567 1.4567) rotate(0) translate(4 203)">
<title>%3</title>
<g id="clust1" class="cluster">
<title>cluster0</title>
<polygon fill="#ffffff" stroke="#000000" points="211.4273,-8 211.4273,-191 379.4273,-191 379.4273,-8 211.4273,-8"/>
<text text-anchor="middle" x="295.4273" y="-175.8" font-family="Lato" font-size="14.00" fill="#000000">Marco global</text>
</g>
<g id="clust2" class="cluster">
<title>cluster1</title>
<polygon fill="#ffffff" stroke="#000000" points="8,-58 8,-191 154.4273,-191 154.4273,-58 8,-58"/>
<text text-anchor="middle" x="81.2136" y="-175.8" font-family="Lato" font-size="14.00" fill="#000000">Marco de lambda</text>
</g>
<!-- 1 -->
<g id="node1" class="node">
<title>1</title>
<ellipse fill="#ffffff" stroke="#000000" cx="340.4273" cy="-88" rx="18" ry="18"/>
<text text-anchor="middle" x="340.4273" y="-84.6" font-family="monospace" font-size="13.00" fill="#000000">1</text>
</g>
<!-- 4 -->
<g id="node2" class="node">
<title>4</title>
<ellipse fill="#ffffff" stroke="#000000" cx="340.4273" cy="-142" rx="18" ry="18"/>
<text text-anchor="middle" x="340.4273" y="-138.6" font-family="monospace" font-size="13.00" fill="#000000">4</text>
</g>
<!-- 8 -->
<g id="node3" class="node">
<title>8</title>
<ellipse fill="#ffffff" stroke="#000000" cx="126.2136" cy="-142" rx="18" ry="18"/>
<text text-anchor="middle" x="126.2136" y="-138.6" font-family="monospace" font-size="13.00" fill="#000000">8</text>
</g>
<!-- x -->
<g id="node5" class="node">
<title>x</title>
<polygon fill="transparent" stroke="transparent" points="273.4273,-160 219.4273,-160 219.4273,-124 273.4273,-124 273.4273,-160"/>
<text text-anchor="middle" x="246.4273" y="-138.6" font-family="monospace" font-size="13.00" fill="#000000">x</text>
</g>
<!-- 8&#45;&gt;x -->
<g id="edge6" class="edge">
<title>8&#45;&gt;x</title>
<path fill="none" stroke="#000000" d="M154.4252,-142C172.5422,-142 209.0526,-142 209.0526,-142"/>
<polygon fill="#000000" stroke="#000000" points="201.4274,-145.5004 211.4273,-142 201.4271,-138.5004 201.4274,-145.5004"/>
</g>
<!-- 12 -->
<g id="node4" class="node">
<title>12</title>
<ellipse fill="#ffffff" stroke="#000000" cx="126.2136" cy="-86" rx="20.4296" ry="20.4296"/>
<text text-anchor="middle" x="126.2136" y="-82.6" font-family="monospace" font-size="13.00" fill="#000000">12</text>
</g>
<!-- x&#45;&gt;4 -->
<g id="edge2" class="edge">
<title>x&#45;&gt;4</title>
<path fill="none" stroke="#000000" d="M273.616,-142C273.616,-142 312.2196,-142 312.2196,-142"/>
<polygon fill="#000000" stroke="#000000" points="312.2196,-145.5001 322.2196,-142 312.2195,-138.5001 312.2196,-145.5001"/>
</g>
<!-- xl -->
<g id="node6" class="node">
<title>xl</title>
<polygon fill="transparent" stroke="transparent" points="70,-160 16,-160 16,-124 70,-124 70,-160"/>
<text text-anchor="middle" x="43" y="-138.6" font-family="monospace" font-size="13.00" fill="#000000">x</text>
</g>
<!-- xl&#45;&gt;8 -->
<g id="edge4" class="edge">
<title>xl&#45;&gt;8</title>
<path fill="none" stroke="#000000" d="M70.2473,-142C70.2473,-142 98.0966,-142 98.0966,-142"/>
<polygon fill="#000000" stroke="#000000" points="98.0966,-145.5001 108.0966,-142 98.0966,-138.5001 98.0966,-145.5001"/>
</g>
<!-- yl -->
<g id="node7" class="node">
<title>yl</title>
<polygon fill="transparent" stroke="transparent" points="70,-104 16,-104 16,-68 70,-68 70,-104"/>
<text text-anchor="middle" x="43" y="-82.6" font-family="monospace" font-size="13.00" fill="#000000">y</text>
</g>
<!-- yl&#45;&gt;12 -->
<g id="edge5" class="edge">
<title>yl&#45;&gt;12</title>
<path fill="none" stroke="#000000" d="M70.2473,-86C70.2473,-86 95.7707,-86 95.7707,-86"/>
<polygon fill="#000000" stroke="#000000" points="95.7707,-89.5001 105.7707,-86 95.7707,-82.5001 95.7707,-89.5001"/>
</g>
<!-- z -->
<g id="node8" class="node">
<title>z</title>
<polygon fill="transparent" stroke="transparent" points="273.4273,-106 219.4273,-106 219.4273,-70 273.4273,-70 273.4273,-106"/>
<text text-anchor="middle" x="246.4273" y="-84.6" font-family="monospace" font-size="13.00" fill="#000000">z</text>
</g>
<!-- z&#45;&gt;1 -->
<g id="edge3" class="edge">
<title>z&#45;&gt;1</title>
<path fill="none" stroke="#000000" d="M273.616,-88C273.616,-88 312.2196,-88 312.2196,-88"/>
<polygon fill="#000000" stroke="#000000" points="312.2196,-91.5001 322.2196,-88 312.2195,-84.5001 312.2196,-91.5001"/>
</g>
<!-- suma -->
<g id="node9" class="node">
<title>suma</title>
<polygon fill="transparent" stroke="transparent" points="273.4273,-52 219.4273,-52 219.4273,-16 273.4273,-16 273.4273,-52"/>
<text text-anchor="middle" x="246.4273" y="-30.6" font-family="monospace" font-size="13.00" fill="#000000">suma</text>
</g>
<!-- lambda -->
<g id="node10" class="node">
<title>lambda</title>
<polygon fill="#ffffff" stroke="#000000" points="371.4273,-52 309.4273,-52 309.4273,-16 371.4273,-16 371.4273,-52"/>
<text text-anchor="middle" x="340.4273" y="-30.6" font-family="monospace" font-size="13.00" fill="#000000">lambda</text>
</g>
<!-- suma&#45;&gt;lambda -->
<g id="edge1" class="edge">
<title>suma&#45;&gt;lambda</title>
<path fill="none" stroke="#000000" d="M273.616,-34C273.616,-34 299.3286,-34 299.3286,-34"/>
<polygon fill="#000000" stroke="#000000" points="299.3286,-37.5001 309.3286,-34 299.3285,-30.5001 299.3286,-37.5001"/>
</g>
</g>
</svg>
