<?xml version="1.0" encoding="UTF-8" standalone="no"?>
<!DOCTYPE svg PUBLIC "-//W3C//DTD SVG 1.1//EN"
 "http://www.w3.org/Graphics/SVG/1.1/DTD/svg11.dtd">
<!-- Generated by graphviz version 2.40.1 (20161225.0304)
 -->
<!-- Title: %3 Pages: 1 -->
<svg width="576pt" height="465pt"
 viewBox="0.00 0.00 576.00 464.81" xmlns="http://www.w3.org/2000/svg" xmlns:xlink="http://www.w3.org/1999/xlink">
<g id="graph0" class="graph" transform="scale(3.038 3.038) rotate(0) translate(4 149)">
<title>%3</title>
<g id="clust1" class="cluster">
<title>cluster0</title>
<polygon fill="#ffffff" stroke="#000000" points="31.6,-8 31.6,-137 173.6,-137 173.6,-8 31.6,-8"/>
<text text-anchor="middle" x="102.6" y="-121.8" font-family="Lato" font-size="14.00" fill="#000000">Marco global</text>
</g>
<!-- 1 -->
<g id="node1" class="node">
<title>1</title>
<ellipse fill="#ffffff" stroke="#000000" cx="147.6" cy="-34" rx="18" ry="18"/>
<text text-anchor="middle" x="147.6" y="-30.6" font-family="monospace" font-size="13.00" fill="#000000">1</text>
</g>
<!-- 4 -->
<g id="node2" class="node">
<title>4</title>
<ellipse fill="#ffffff" stroke="#000000" cx="147.6" cy="-88" rx="18" ry="18"/>
<text text-anchor="middle" x="147.6" y="-84.6" font-family="monospace" font-size="13.00" fill="#000000">4</text>
</g>
<!-- x -->
<g id="node3" class="node">
<title>x</title>
<polygon fill="transparent" stroke="transparent" points="93.6,-106 39.6,-106 39.6,-70 93.6,-70 93.6,-106"/>
<text text-anchor="middle" x="66.6" y="-84.6" font-family="monospace" font-size="13.00" fill="#000000">x</text>
</g>
<!-- x&#45;&gt;4 -->
<g id="edge1" class="edge">
<title>x&#45;&gt;4</title>
<path fill="none" stroke="#000000" d="M94.0229,-88C102.0647,-88 110.8772,-88 118.9909,-88"/>
<polygon fill="#000000" stroke="#000000" points="119.1312,-91.5001 129.1312,-88 119.1311,-84.5001 119.1312,-91.5001"/>
</g>
<!-- z -->
<g id="node4" class="node">
<title>z</title>
<polygon fill="transparent" stroke="transparent" points="93.6,-52 39.6,-52 39.6,-16 93.6,-16 93.6,-52"/>
<text text-anchor="middle" x="66.6" y="-30.6" font-family="monospace" font-size="13.00" fill="#000000">z</text>
</g>
<!-- z&#45;&gt;1 -->
<g id="edge2" class="edge">
<title>z&#45;&gt;1</title>
<path fill="none" stroke="#000000" d="M94.0229,-34C102.0647,-34 110.8772,-34 118.9909,-34"/>
<polygon fill="#000000" stroke="#000000" points="119.1312,-37.5001 129.1312,-34 119.1311,-30.5001 119.1312,-37.5001"/>
</g>
<!-- E -->
<g id="node5" class="node">
<title>E</title>
<ellipse fill="#ffffff" stroke="#000000" cx="1.8" cy="-88" rx="1.8" ry="1.8"/>
</g>
<!-- E&#45;&gt;x -->
<g id="edge3" class="edge">
<title>E&#45;&gt;x</title>
<path fill="none" stroke="#000000" d="M3.6695,-88C7.7685,-88 18.0715,-88 29.1814,-88"/>
<polygon fill="#000000" stroke="#000000" points="21.6001,-91.5004 31.6,-88 21.5999,-84.5004 21.6001,-91.5004"/>
</g>
</g>
</svg>
