<?xml version="1.0" encoding="UTF-8" standalone="no"?>
<!DOCTYPE svg PUBLIC "-//W3C//DTD SVG 1.1//EN"
 "http://www.w3.org/Graphics/SVG/1.1/DTD/svg11.dtd">
<!-- Generated by graphviz version 14.1.1 (0)
 -->
<!-- Pages: 1 -->
<svg width="487pt" height="160pt"
 viewBox="0.00 0.00 487.00 160.00" xmlns="http://www.w3.org/2000/svg" xmlns:xlink="http://www.w3.org/1999/xlink">
<g id="graph0" class="graph" transform="scale(1 1) rotate(0) translate(4 156)">
<g id="clust1" class="cluster">
<title>cluster0</title>
<polygon fill="white" stroke="black" points="252.4,-8 252.4,-139 347.15,-139 347.15,-8 252.4,-8"/>
<text xml:space="preserve" text-anchor="middle" x="299.77" y="-121.7" font-family="Lato" font-size="14.00">Marco global</text>
</g>
<g id="clust2" class="cluster">
<title>cluster1</title>
<polygon fill="white" stroke="black" points="49.9,-12 49.9,-143 160.4,-143 160.4,-12 49.9,-12"/>
<text xml:space="preserve" text-anchor="start" x="57.9" y="-126.7" font-family="Lato" font-size="14.00">Marco de </text>
<text xml:space="preserve" text-anchor="start" x="119.4" y="-126.7" font-family="monospace" font-size="14.00">suma</text>
</g>
<!-- Manolo -->
<g id="node1" class="node">
<title>Manolo</title>
<ellipse fill="white" stroke="black" cx="427.01" cy="-88" rx="51.86" ry="18"/>
<text xml:space="preserve" text-anchor="middle" x="427.01" y="-83.9" font-family="monospace" font-size="13.00">&#39;Manolo&#39;</text>
</g>
<!-- 3 -->
<g id="node2" class="node">
<title>3</title>
<ellipse fill="white" stroke="black" cx="206.4" cy="-134" rx="18" ry="18"/>
<text xml:space="preserve" text-anchor="middle" x="206.4" y="-129.9" font-family="monospace" font-size="13.00">3</text>
</g>
<!-- 5 -->
<g id="node3" class="node">
<title>5</title>
<ellipse fill="white" stroke="black" cx="206.4" cy="-38" rx="18" ry="18"/>
<text xml:space="preserve" text-anchor="middle" x="206.4" y="-33.9" font-family="monospace" font-size="13.00">5</text>
</g>
<!-- nombre -->
<g id="node4" class="node">
<title>nombre</title>
<polygon fill="none" stroke="none" points="329.77,-106 268.77,-106 268.77,-70 329.77,-70 329.77,-106"/>
<text xml:space="preserve" text-anchor="middle" x="299.27" y="-83.9" font-family="monospace" font-size="13.00">nombre</text>
</g>
<!-- nombre&#45;&gt;Manolo -->
<g id="edge2" class="edge">
<title>nombre&#45;&gt;Manolo</title>
<path fill="none" stroke="black" d="M329.76,-88C339.99,-88 351.88,-88 363.74,-88"/>
<polygon fill="black" stroke="black" points="363.54,-91.5 373.54,-88 363.54,-84.5 363.54,-91.5"/>
</g>
<!-- suma -->
<g id="node5" class="node">
<title>suma</title>
<polygon fill="none" stroke="none" points="326.27,-52 272.27,-52 272.27,-16 326.27,-16 326.27,-52"/>
<text xml:space="preserve" text-anchor="middle" x="299.27" y="-29.9" font-family="monospace" font-size="13.00">suma</text>
</g>
<!-- lambda -->
<g id="node6" class="node">
<title>lambda</title>
<ellipse fill="white" stroke="black" cx="427.01" cy="-34" rx="18" ry="18"/>
<text xml:space="preserve" text-anchor="middle" x="427.01" y="-29.9" font-family="monospace" font-size="13.00">λ</text>
</g>
<!-- suma&#45;&gt;lambda -->
<g id="edge1" class="edge">
<title>suma&#45;&gt;lambda</title>
<path fill="none" stroke="black" d="M326.02,-34C346.78,-34 375.95,-34 397.43,-34"/>
<polygon fill="black" stroke="black" points="397.25,-37.5 407.25,-34 397.25,-30.5 397.25,-37.5"/>
</g>
<!-- xl -->
<g id="node7" class="node">
<title>xl</title>
<polygon fill="none" stroke="none" points="116.4,-110 92.9,-110 92.9,-74 116.4,-74 116.4,-110"/>
<text xml:space="preserve" text-anchor="middle" x="104.65" y="-87.9" font-family="monospace" font-size="13.00">x</text>
</g>
<!-- xl&#45;&gt;3 -->
<g id="edge3" class="edge">
<title>xl&#45;&gt;3</title>
<path fill="none" stroke="black" d="M116.32,-96.49C131.08,-102.71 158.21,-114.13 178.66,-122.74"/>
<polygon fill="black" stroke="black" points="177.25,-125.95 187.83,-126.6 179.97,-119.49 177.25,-125.95"/>
</g>
<!-- xl&#45;&gt;nombre -->
<g id="edge5" class="edge">
<title>xl&#45;&gt;nombre</title>
<path fill="none" stroke="black" d="M160.4,-90.86C185.58,-90.34 215.44,-89.72 240.93,-89.19"/>
<polygon fill="black" stroke="black" points="240.97,-92.69 250.89,-88.98 240.82,-85.69 240.97,-92.69"/>
</g>
<!-- yl -->
<g id="node8" class="node">
<title>yl</title>
<polygon fill="none" stroke="none" points="116.4,-56 92.9,-56 92.9,-20 116.4,-20 116.4,-56"/>
<text xml:space="preserve" text-anchor="middle" x="104.65" y="-33.9" font-family="monospace" font-size="13.00">y</text>
</g>
<!-- yl&#45;&gt;5 -->
<g id="edge4" class="edge">
<title>yl&#45;&gt;5</title>
<path fill="none" stroke="black" d="M116.32,-38C130.63,-38 156.54,-38 176.75,-38"/>
<polygon fill="black" stroke="black" points="176.63,-41.5 186.63,-38 176.63,-34.5 176.63,-41.5"/>
</g>
<!-- E -->
<g id="node9" class="node">
<title>E</title>
<polygon fill="none" stroke="none" points="21.9,-110 0,-110 0,-74 21.9,-74 21.9,-110"/>
<text xml:space="preserve" text-anchor="middle" x="10.95" y="-87.9" font-family="monospace" font-size="13.00">E</text>
</g>
<!-- E&#45;&gt;xl -->
<g id="edge6" class="edge">
<title>E&#45;&gt;xl</title>
<path fill="none" stroke="black" d="M21.76,-92C26.31,-92 32.14,-92 38.59,-92"/>
<polygon fill="black" stroke="black" points="38.39,-95.5 48.39,-92 38.39,-88.5 38.39,-95.5"/>
</g>
</g>
</svg>
