<?xml version="1.0" encoding="UTF-8" standalone="no"?>
<!DOCTYPE svg PUBLIC "-//W3C//DTD SVG 1.1//EN"
 "http://www.w3.org/Graphics/SVG/1.1/DTD/svg11.dtd">
<!-- Generated by graphviz version 2.43.0 (0)
 -->
<!-- Title: %3 Pages: 1 -->
<svg width="190pt" height="99pt"
 viewBox="0.00 0.00 189.60 99.00" xmlns="http://www.w3.org/2000/svg" xmlns:xlink="http://www.w3.org/1999/xlink">
<g id="graph0" class="graph" transform="scale(1 1) rotate(0) translate(4 95)">
<title>%3</title>
<g id="clust1" class="cluster">
<title>cluster0</title>
<polygon fill="white" stroke="black" points="31.6,-8 31.6,-83 173.6,-83 173.6,-8 31.6,-8"/>
<text text-anchor="middle" x="102.6" y="-67.8" font-family="Lato" font-size="14.00">Marco global</text>
</g>
<!-- 4 -->
<g id="node1" class="node">
<title>4</title>
<ellipse fill="white" stroke="black" cx="147.6" cy="-34" rx="18" ry="18"/>
<text text-anchor="middle" x="147.6" y="-30.6" font-family="monospace" font-size="13.00">4</text>
</g>
<!-- x -->
<g id="node2" class="node">
<title>x</title>
<polygon fill="transparent" stroke="transparent" points="93.6,-52 39.6,-52 39.6,-16 93.6,-16 93.6,-52"/>
<text text-anchor="middle" x="66.6" y="-30.6" font-family="monospace" font-size="13.00">x</text>
</g>
<!-- x&#45;&gt;4 -->
<g id="edge1" class="edge">
<title>x&#45;&gt;4</title>
<path fill="none" stroke="black" d="M93.91,-34C102.02,-34 110.97,-34 119.16,-34"/>
<polygon fill="black" stroke="black" points="119.35,-37.5 129.35,-34 119.35,-30.5 119.35,-37.5"/>
</g>
<!-- E -->
<g id="node3" class="node">
<title>E</title>
<ellipse fill="white" stroke="black" cx="1.8" cy="-34" rx="1.8" ry="1.8"/>
</g>
<!-- E&#45;&gt;x -->
<g id="edge2" class="edge">
<title>E&#45;&gt;x</title>
<path fill="none" stroke="black" d="M3.89,-34C7.24,-34 17.86,-34 29.37,-34"/>
<polygon fill="black" stroke="black" points="21.6,-37.5 31.6,-34 21.6,-30.5 21.6,-37.5"/>
</g>
</g>
</svg>
