<?xml version="1.0" encoding="UTF-8" standalone="no"?>
<!DOCTYPE svg PUBLIC "-//W3C//DTD SVG 1.1//EN"
 "http://www.w3.org/Graphics/SVG/1.1/DTD/svg11.dtd">
<!-- Generated by graphviz version 14.1.1 (0)
 -->
<!-- Pages: 1 -->
<svg width="429pt" height="124pt"
 viewBox="0.00 0.00 429.00 124.00" xmlns="http://www.w3.org/2000/svg" xmlns:xlink="http://www.w3.org/1999/xlink">
<g id="graph0" class="graph" transform="scale(1 1) rotate(0) translate(4 120)">
<g id="clust1" class="cluster">
<title>cluster0</title>
<polygon fill="white" stroke="black" points="262.15,-8 262.15,-85 356.9,-85 356.9,-8 262.15,-8"/>
<text xml:space="preserve" text-anchor="middle" x="309.52" y="-67.7" font-family="Lato" font-size="14.00">Marco global</text>
</g>
<g id="clust2" class="cluster">
<title>cluster1</title>
<polygon fill="white" stroke="black" points="49.9,-31 49.9,-108 170.15,-108 170.15,-31 49.9,-31"/>
<text xml:space="preserve" text-anchor="middle" x="110.02" y="-90.7" font-family="Lato" font-size="14.00">Marco de lambda</text>
</g>
<!-- 4 -->
<g id="node1" class="node">
<title>4</title>
<ellipse fill="white" stroke="black" cx="402.9" cy="-34" rx="18" ry="18"/>
<text xml:space="preserve" text-anchor="middle" x="402.9" y="-29.9" font-family="monospace" font-size="13.00">4</text>
</g>
<!-- 3 -->
<g id="node2" class="node">
<title>3</title>
<ellipse fill="white" stroke="black" cx="216.15" cy="-80" rx="18" ry="18"/>
<text xml:space="preserve" text-anchor="middle" x="216.15" y="-75.9" font-family="monospace" font-size="13.00">3</text>
</g>
<!-- x -->
<g id="node3" class="node">
<title>x</title>
<polygon fill="none" stroke="none" points="320.77,-52 297.27,-52 297.27,-16 320.77,-16 320.77,-52"/>
<text xml:space="preserve" text-anchor="middle" x="309.02" y="-29.9" font-family="monospace" font-size="13.00">x</text>
</g>
<!-- x&#45;&gt;4 -->
<g id="edge1" class="edge">
<title>x&#45;&gt;4</title>
<path fill="none" stroke="black" d="M320.56,-34C333.34,-34 355.38,-34 373.3,-34"/>
<polygon fill="black" stroke="black" points="373.1,-37.5 383.1,-34 373.1,-30.5 373.1,-37.5"/>
</g>
<!-- xl -->
<g id="node4" class="node">
<title>xl</title>
<polygon fill="none" stroke="none" points="121.27,-75 97.77,-75 97.77,-39 121.27,-39 121.27,-75"/>
<text xml:space="preserve" text-anchor="middle" x="109.52" y="-52.9" font-family="monospace" font-size="13.00">x</text>
</g>
<!-- xl&#45;&gt;3 -->
<g id="edge2" class="edge">
<title>xl&#45;&gt;3</title>
<path fill="none" stroke="black" d="M120.94,-59.29C136.2,-62.64 165.2,-69.02 187.01,-73.81"/>
<polygon fill="black" stroke="black" points="186.26,-77.23 196.78,-75.96 187.76,-70.4 186.26,-77.23"/>
</g>
<!-- xl&#45;&gt;x -->
<g id="edge3" class="edge">
<title>xl&#45;&gt;x</title>
<path fill="none" stroke="black" d="M170.15,-50.06C195.76,-47.07 225.57,-43.6 250.9,-40.65"/>
<polygon fill="black" stroke="black" points="251.12,-44.15 260.65,-39.52 250.31,-37.2 251.12,-44.15"/>
</g>
<!-- E -->
<g id="node5" class="node">
<title>E</title>
<polygon fill="none" stroke="none" points="21.9,-75 0,-75 0,-39 21.9,-39 21.9,-75"/>
<text xml:space="preserve" text-anchor="middle" x="10.95" y="-52.9" font-family="monospace" font-size="13.00">E</text>
</g>
<!-- E&#45;&gt;xl -->
<g id="edge4" class="edge">
<title>E&#45;&gt;xl</title>
<path fill="none" stroke="black" d="M21.56,-57C26.09,-57 31.93,-57 38.44,-57"/>
<polygon fill="black" stroke="black" points="38.39,-60.5 48.39,-57 38.39,-53.5 38.39,-60.5"/>
</g>
</g>
</svg>
