<?xml version="1.0" encoding="UTF-8" standalone="no"?>
<!DOCTYPE svg PUBLIC "-//W3C//DTD SVG 1.1//EN"
 "http://www.w3.org/Graphics/SVG/1.1/DTD/svg11.dtd">
<!-- Generated by graphviz version 2.43.0 (0)
 -->
<!-- Title: %3 Pages: 1 -->
<svg width="434pt" height="214pt"
 viewBox="0.00 0.00 434.43 214.00" xmlns="http://www.w3.org/2000/svg" xmlns:xlink="http://www.w3.org/1999/xlink">
<g id="graph0" class="graph" transform="scale(1 1) rotate(0) translate(4 210)">
<title>%3</title>
<g id="clust1" class="cluster">
<title>cluster0</title>
<polygon fill="white" stroke="black" points="267.43,-8 267.43,-191 362.43,-191 362.43,-8 267.43,-8"/>
<text text-anchor="middle" x="314.93" y="-175.8" font-family="Lato" font-size="14.00">Marco global</text>
</g>
<g id="clust2" class="cluster">
<title>cluster1</title>
<polygon fill="white" stroke="black" points="50,-65 50,-194 171,-194 171,-65 50,-65"/>
<text text-anchor="middle" x="110.5" y="-178.8" font-family="Lato" font-size="14.00">Marco de lambda</text>
</g>
<!-- 1 -->
<g id="node1" class="node">
<title>1</title>
<ellipse fill="white" stroke="black" cx="408.43" cy="-88" rx="18" ry="18"/>
<text text-anchor="middle" x="408.43" y="-84.6" font-family="monospace" font-size="13.00">1</text>
</g>
<!-- 4 -->
<g id="node2" class="node">
<title>4</title>
<ellipse fill="white" stroke="black" cx="408.43" cy="-142" rx="18" ry="18"/>
<text text-anchor="middle" x="408.43" y="-138.6" font-family="monospace" font-size="13.00">4</text>
</g>
<!-- 8 -->
<g id="node3" class="node">
<title>8</title>
<ellipse fill="white" stroke="black" cx="219.21" cy="-188" rx="18" ry="18"/>
<text text-anchor="middle" x="219.21" y="-184.6" font-family="monospace" font-size="13.00">8</text>
</g>
<!-- 12 -->
<g id="node4" class="node">
<title>12</title>
<ellipse fill="white" stroke="black" cx="219.21" cy="-91" rx="20.43" ry="20.43"/>
<text text-anchor="middle" x="219.21" y="-87.6" font-family="monospace" font-size="13.00">12</text>
</g>
<!-- x -->
<g id="node5" class="node">
<title>x</title>
<polygon fill="transparent" stroke="transparent" points="341.43,-160 287.43,-160 287.43,-124 341.43,-124 341.43,-160"/>
<text text-anchor="middle" x="314.43" y="-138.6" font-family="monospace" font-size="13.00">x</text>
</g>
<!-- x&#45;&gt;4 -->
<g id="edge2" class="edge">
<title>x&#45;&gt;4</title>
<path fill="none" stroke="black" d="M341.54,-142C353.62,-142 367.97,-142 380.18,-142"/>
<polygon fill="black" stroke="black" points="380.26,-145.5 390.26,-142 380.26,-138.5 380.26,-145.5"/>
</g>
<!-- z -->
<g id="node6" class="node">
<title>z</title>
<polygon fill="transparent" stroke="transparent" points="341.43,-106 287.43,-106 287.43,-70 341.43,-70 341.43,-106"/>
<text text-anchor="middle" x="314.43" y="-84.6" font-family="monospace" font-size="13.00">z</text>
</g>
<!-- z&#45;&gt;1 -->
<g id="edge3" class="edge">
<title>z&#45;&gt;1</title>
<path fill="none" stroke="black" d="M341.54,-88C353.62,-88 367.97,-88 380.18,-88"/>
<polygon fill="black" stroke="black" points="380.26,-91.5 390.26,-88 380.26,-84.5 380.26,-91.5"/>
</g>
<!-- suma -->
<g id="node7" class="node">
<title>suma</title>
<polygon fill="transparent" stroke="transparent" points="341.43,-52 287.43,-52 287.43,-16 341.43,-16 341.43,-52"/>
<text text-anchor="middle" x="314.43" y="-30.6" font-family="monospace" font-size="13.00">suma</text>
</g>
<!-- lambda -->
<g id="node8" class="node">
<title>lambda</title>
<ellipse fill="white" stroke="black" cx="408.43" cy="-34" rx="18" ry="18"/>
<text text-anchor="middle" x="408.43" y="-30.6" font-family="monospace" font-size="13.00">λ</text>
</g>
<!-- suma&#45;&gt;lambda -->
<g id="edge1" class="edge">
<title>suma&#45;&gt;lambda</title>
<path fill="none" stroke="black" d="M341.54,-34C353.62,-34 367.97,-34 380.18,-34"/>
<polygon fill="black" stroke="black" points="380.26,-37.5 390.26,-34 380.26,-30.5 380.26,-37.5"/>
</g>
<!-- xl -->
<g id="node9" class="node">
<title>xl</title>
<polygon fill="transparent" stroke="transparent" points="137,-163 83,-163 83,-127 137,-127 137,-163"/>
<text text-anchor="middle" x="110" y="-141.6" font-family="monospace" font-size="13.00">x</text>
</g>
<!-- xl&#45;&gt;8 -->
<g id="edge4" class="edge">
<title>xl&#45;&gt;8</title>
<path fill="none" stroke="black" d="M137.23,-155.52C154.07,-162.27 175.83,-171 192.56,-177.71"/>
<polygon fill="black" stroke="black" points="191.65,-181.12 202.23,-181.59 194.25,-174.62 191.65,-181.12"/>
</g>
<!-- xl&#45;&gt;x -->
<g id="edge6" class="edge">
<title>xl&#45;&gt;x</title>
<path fill="none" stroke="black" d="M171,-144.11C198.28,-143.71 230.38,-143.23 257.19,-142.83"/>
<polygon fill="black" stroke="black" points="257.48,-146.33 267.43,-142.68 257.38,-139.33 257.48,-146.33"/>
</g>
<!-- yl -->
<g id="node10" class="node">
<title>yl</title>
<polygon fill="transparent" stroke="transparent" points="137,-109 83,-109 83,-73 137,-73 137,-109"/>
<text text-anchor="middle" x="110" y="-87.6" font-family="monospace" font-size="13.00">y</text>
</g>
<!-- yl&#45;&gt;12 -->
<g id="edge5" class="edge">
<title>yl&#45;&gt;12</title>
<path fill="none" stroke="black" d="M137.23,-91C152.74,-91 172.44,-91 188.52,-91"/>
<polygon fill="black" stroke="black" points="188.98,-94.5 198.98,-91 188.98,-87.5 188.98,-94.5"/>
</g>
<!-- E -->
<g id="node11" class="node">
<title>E</title>
<polygon fill="transparent" stroke="transparent" points="22,-163 0,-163 0,-127 22,-127 22,-163"/>
<text text-anchor="middle" x="11" y="-141.6" font-family="monospace" font-size="13.00">E</text>
</g>
<!-- E&#45;&gt;xl -->
<g id="edge7" class="edge">
<title>E&#45;&gt;xl</title>
<path fill="none" stroke="black" d="M22.02,-145C26.76,-145 32.87,-145 39.66,-145"/>
<polygon fill="black" stroke="black" points="40,-148.5 50,-145 40,-141.5 40,-148.5"/>
</g>
</g>
</svg>
