<?xml version="1.0" encoding="UTF-8" standalone="no"?>
<!DOCTYPE svg PUBLIC "-//W3C//DTD SVG 1.1//EN"
 "http://www.w3.org/Graphics/SVG/1.1/DTD/svg11.dtd">
<!-- Generated by graphviz version 2.43.0 (0)
 -->
<!-- Title: %3 Pages: 1 -->
<svg width="395pt" height="172pt"
 viewBox="0.00 0.00 395.00 172.00" xmlns="http://www.w3.org/2000/svg" xmlns:xlink="http://www.w3.org/1999/xlink">
<g id="graph0" class="graph" transform="scale(1 1) rotate(0) translate(4 168)">
<title>%3</title>
<g id="clust1" class="cluster">
<title>cluster0</title>
<polygon fill="white" stroke="black" points="228,-11 228,-156 323,-156 323,-11 228,-11"/>
<text text-anchor="middle" x="275.5" y="-140.8" font-family="Lato" font-size="14.00">Marco global</text>
</g>
<g id="clust2" class="cluster">
<title>cluster1</title>
<polygon fill="white" stroke="black" points="50,-52 50,-156 171,-156 171,-52 50,-52"/>
<text text-anchor="middle" x="110.5" y="-140.8" font-family="Lato" font-size="14.00">Marco de lambda</text>
</g>
<!-- 1 -->
<g id="node1" class="node">
<title>1</title>
<ellipse fill="white" stroke="black" cx="369" cy="-72" rx="18" ry="18"/>
<text text-anchor="middle" x="369" y="-68.6" font-family="monospace" font-size="13.00">1</text>
</g>
<!-- 4 -->
<g id="node2" class="node">
<title>4</title>
<ellipse fill="white" stroke="black" cx="369" cy="-126" rx="18" ry="18"/>
<text text-anchor="middle" x="369" y="-122.6" font-family="monospace" font-size="13.00">4</text>
</g>
<!-- x -->
<g id="node3" class="node">
<title>x</title>
<polygon fill="white" stroke="black" points="257.5,-102 257.5,-124 293.5,-124 293.5,-102 257.5,-102"/>
<text text-anchor="middle" x="266.5" y="-109.6" font-family="monospace" font-size="13.00">x</text>
<polyline fill="none" stroke="black" points="275.5,-102 275.5,-124 "/>
<text text-anchor="middle" x="284.5" y="-109.6" font-family="monospace" font-size="13.00">⬤</text>
</g>
<!-- x&#45;&gt;4 -->
<g id="edge2" class="edge">
<title>x:f1&#45;&gt;4</title>
<path fill="none" stroke="black" d="M294.5,-113C310.3,-113 327.72,-115.95 341.64,-119.04"/>
<polygon fill="black" stroke="black" points="340.97,-122.48 351.51,-121.38 342.59,-115.67 340.97,-122.48"/>
</g>
<!-- z -->
<g id="node4" class="node">
<title>z</title>
<polygon fill="white" stroke="black" points="257.5,-61 257.5,-83 293.5,-83 293.5,-61 257.5,-61"/>
<text text-anchor="middle" x="266.5" y="-68.6" font-family="monospace" font-size="13.00">z</text>
<polyline fill="none" stroke="black" points="275.5,-61 275.5,-83 "/>
<text text-anchor="middle" x="284.5" y="-68.6" font-family="monospace" font-size="13.00">⬤</text>
</g>
<!-- z&#45;&gt;1 -->
<g id="edge3" class="edge">
<title>z:f1&#45;&gt;1</title>
<path fill="none" stroke="black" d="M294.5,-72C309.7,-72 326.68,-72 340.48,-72"/>
<polygon fill="black" stroke="black" points="340.77,-75.5 350.77,-72 340.77,-68.5 340.77,-75.5"/>
</g>
<!-- suma -->
<g id="node5" class="node">
<title>suma</title>
<polygon fill="white" stroke="black" points="240,-20 240,-42 311,-42 311,-20 240,-20"/>
<text text-anchor="middle" x="263.5" y="-27.6" font-family="monospace" font-size="13.00">suma</text>
<polyline fill="none" stroke="black" points="287,-20 287,-42 "/>
<text text-anchor="middle" x="299" y="-27.6" font-family="monospace" font-size="13.00">⬤</text>
</g>
<!-- lambda -->
<g id="node6" class="node">
<title>lambda</title>
<ellipse fill="white" stroke="black" cx="369" cy="-18" rx="18" ry="18"/>
<text text-anchor="middle" x="369" y="-14.6" font-family="monospace" font-size="13.00">λ</text>
</g>
<!-- suma&#45;&gt;lambda -->
<g id="edge1" class="edge">
<title>suma:f1&#45;&gt;lambda</title>
<path fill="none" stroke="black" d="M312.5,-31C322.28,-31 332.78,-29.06 341.98,-26.68"/>
<polygon fill="black" stroke="black" points="343.07,-30.01 351.72,-23.89 341.14,-23.28 343.07,-30.01"/>
</g>
<!-- xl -->
<g id="node7" class="node">
<title>xl</title>
<polygon fill="white" stroke="black" points="92,-102 92,-124 128,-124 128,-102 92,-102"/>
<text text-anchor="middle" x="101" y="-109.6" font-family="monospace" font-size="13.00">x</text>
<polyline fill="none" stroke="black" points="110,-102 110,-124 "/>
<text text-anchor="middle" x="119" y="-109.6" font-family="monospace" font-size="13.00">⬤</text>
</g>
<!-- xl&#45;&gt;x -->
<g id="edge4" class="edge">
<title>xl&#45;&gt;x</title>
<path fill="none" stroke="black" d="M171,-113C186.35,-113 202.81,-113 217.99,-113"/>
<polygon fill="black" stroke="black" points="218,-116.5 228,-113 218,-109.5 218,-116.5"/>
</g>
<!-- yl -->
<g id="node8" class="node">
<title>yl</title>
<polygon fill="white" stroke="black" points="92,-61 92,-83 128,-83 128,-61 92,-61"/>
<text text-anchor="middle" x="101" y="-68.6" font-family="monospace" font-size="13.00">y</text>
<polyline fill="none" stroke="black" points="110,-61 110,-83 "/>
<text text-anchor="middle" x="119" y="-68.6" font-family="monospace" font-size="13.00">⬤</text>
</g>
<!-- E -->
<g id="node9" class="node">
<title>E</title>
<polygon fill="transparent" stroke="transparent" points="22,-131 0,-131 0,-95 22,-95 22,-131"/>
<text text-anchor="middle" x="11" y="-109.6" font-family="monospace" font-size="13.00">E</text>
</g>
<!-- E&#45;&gt;xl -->
<g id="edge5" class="edge">
<title>E&#45;&gt;xl</title>
<path fill="none" stroke="black" d="M22.02,-113C26.76,-113 32.87,-113 39.66,-113"/>
<polygon fill="black" stroke="black" points="40,-116.5 50,-113 40,-109.5 40,-116.5"/>
</g>
</g>
</svg>
