<?xml version="1.0" encoding="UTF-8" standalone="no"?>
<!DOCTYPE svg PUBLIC "-//W3C//DTD SVG 1.1//EN"
 "http://www.w3.org/Graphics/SVG/1.1/DTD/svg11.dtd">
<!-- Generated by graphviz version 2.43.0 (0)
 -->
<!-- Title: %3 Pages: 1 -->
<svg width="221pt" height="261pt"
 viewBox="0.00 0.00 221.43 261.00" xmlns="http://www.w3.org/2000/svg" xmlns:xlink="http://www.w3.org/1999/xlink">
<g id="graph0" class="graph" transform="scale(1 1) rotate(0) translate(4 257)">
<title>%3</title>
<g id="clust1" class="cluster">
<title>cluster0</title>
<polygon fill="white" stroke="black" points="50,-8 50,-245 145,-245 145,-8 50,-8"/>
<text text-anchor="middle" x="97.5" y="-229.8" font-family="Lato" font-size="14.00">Marco global</text>
</g>
<!-- 21 -->
<g id="node1" class="node">
<title>21</title>
<ellipse fill="white" stroke="black" cx="193.21" cy="-87" rx="20.43" ry="20.43"/>
<text text-anchor="middle" x="193.21" y="-83.6" font-family="Lato" font-size="13.00">21</text>
</g>
<!-- 1 -->
<g id="node2" class="node">
<title>1</title>
<ellipse fill="white" stroke="black" cx="193.21" cy="-143" rx="18" ry="18"/>
<text text-anchor="middle" x="193.21" y="-139.6" font-family="Lato" font-size="13.00">1</text>
</g>
<!-- 3 -->
<g id="node3" class="node">
<title>3</title>
<ellipse fill="white" stroke="black" cx="193.21" cy="-31" rx="18" ry="18"/>
<text text-anchor="middle" x="193.21" y="-27.6" font-family="Lato" font-size="13.00">3</text>
</g>
<!-- 4 -->
<g id="node4" class="node">
<title>4</title>
<ellipse fill="white" stroke="black" cx="193.21" cy="-197" rx="18" ry="18"/>
<text text-anchor="middle" x="193.21" y="-193.6" font-family="Lato" font-size="13.00">4</text>
</g>
<!-- x -->
<g id="node5" class="node">
<title>x</title>
<polygon fill="transparent" stroke="transparent" points="124,-214 70,-214 70,-178 124,-178 124,-214"/>
<text text-anchor="middle" x="97" y="-192.6" font-family="monospace" font-size="13.00">x</text>
</g>
<!-- x&#45;&gt;4 -->
<g id="edge1" class="edge">
<title>x&#45;&gt;4</title>
<path fill="none" stroke="black" d="M115.28,-196.18C129.09,-196.33 148.72,-196.54 164.69,-196.71"/>
<polygon fill="black" stroke="black" points="165.01,-200.21 175.04,-196.82 165.08,-193.21 165.01,-200.21"/>
</g>
<!-- z -->
<g id="node6" class="node">
<title>z</title>
<polygon fill="transparent" stroke="transparent" points="124,-160 70,-160 70,-124 124,-124 124,-160"/>
<text text-anchor="middle" x="97" y="-138.6" font-family="monospace" font-size="13.00">z</text>
</g>
<!-- z&#45;&gt;1 -->
<g id="edge3" class="edge">
<title>z&#45;&gt;1</title>
<path fill="none" stroke="black" d="M115.28,-142.18C129.09,-142.33 148.72,-142.54 164.69,-142.71"/>
<polygon fill="black" stroke="black" points="165.01,-146.21 175.04,-142.82 165.08,-139.21 165.01,-146.21"/>
</g>
<!-- suma -->
<g id="node7" class="node">
<title>suma</title>
<polygon fill="transparent" stroke="transparent" points="124,-106 70,-106 70,-70 124,-70 124,-106"/>
<text text-anchor="middle" x="97" y="-84.6" font-family="monospace" font-size="13.00">suma</text>
</g>
<!-- suma&#45;&gt;21 -->
<g id="edge4" class="edge">
<title>suma&#45;&gt;21</title>
<path fill="none" stroke="black" d="M115.28,-87.82C128.49,-87.68 147.01,-87.48 162.57,-87.31"/>
<polygon fill="black" stroke="black" points="162.81,-90.81 172.77,-87.21 162.73,-83.81 162.81,-90.81"/>
</g>
<!-- y -->
<g id="node8" class="node">
<title>y</title>
<polygon fill="transparent" stroke="transparent" points="124,-52 70,-52 70,-16 124,-16 124,-52"/>
<text text-anchor="middle" x="97" y="-30.6" font-family="monospace" font-size="13.00">y</text>
</g>
<!-- y&#45;&gt;3 -->
<g id="edge2" class="edge">
<title>y&#45;&gt;3</title>
<path fill="none" stroke="black" d="M115.28,-33.45C129.09,-33.01 148.72,-32.39 164.69,-31.88"/>
<polygon fill="black" stroke="black" points="165.16,-35.36 175.04,-31.55 164.94,-28.37 165.16,-35.36"/>
</g>
<!-- E -->
<g id="node9" class="node">
<title>E</title>
<polygon fill="transparent" stroke="transparent" points="22,-214 0,-214 0,-178 22,-178 22,-214"/>
<text text-anchor="middle" x="11" y="-192.6" font-family="Lato" font-size="13.00">E</text>
</g>
<!-- E&#45;&gt;x -->
<g id="edge5" class="edge">
<title>E&#45;&gt;x</title>
<path fill="none" stroke="black" d="M22.3,-196C27.11,-196 33.25,-196 39.93,-196"/>
<polygon fill="black" stroke="black" points="40,-199.5 50,-196 40,-192.5 40,-199.5"/>
</g>
</g>
</svg>
