<?xml version="1.0" encoding="UTF-8" standalone="no"?>
<!DOCTYPE svg PUBLIC "-//W3C//DTD SVG 1.1//EN"
 "http://www.w3.org/Graphics/SVG/1.1/DTD/svg11.dtd">
<!-- Generated by graphviz version 2.43.0 (0)
 -->
<!-- Title: %3 Pages: 1 -->
<svg width="395pt" height="207pt"
 viewBox="0.00 0.00 395.00 207.00" xmlns="http://www.w3.org/2000/svg" xmlns:xlink="http://www.w3.org/1999/xlink">
<g id="graph0" class="graph" transform="scale(1 1) rotate(0) translate(4 203)">
<title>%3</title>
<g id="clust1" class="cluster">
<title>cluster0</title>
<polygon fill="white" stroke="black" points="228,-8 228,-191 323,-191 323,-8 228,-8"/>
<text text-anchor="middle" x="275.5" y="-175.8" font-family="Lato" font-size="14.00">Marco global</text>
</g>
<g id="clust2" class="cluster">
<title>cluster1</title>
<polygon fill="white" stroke="black" points="50,-62 50,-191 171,-191 171,-62 50,-62"/>
<text text-anchor="middle" x="110.5" y="-175.8" font-family="Lato" font-size="14.00">Marco de lambda</text>
</g>
<!-- 1 -->
<g id="node1" class="node">
<title>1</title>
<ellipse fill="white" stroke="black" cx="369" cy="-88" rx="18" ry="18"/>
<text text-anchor="middle" x="369" y="-84.6" font-family="monospace" font-size="13.00">1</text>
</g>
<!-- 4 -->
<g id="node2" class="node">
<title>4</title>
<ellipse fill="white" stroke="black" cx="369" cy="-142" rx="18" ry="18"/>
<text text-anchor="middle" x="369" y="-138.6" font-family="monospace" font-size="13.00">4</text>
</g>
<!-- x -->
<g id="node3" class="node">
<title>x</title>
<polygon fill="transparent" stroke="transparent" points="302,-160 248,-160 248,-124 302,-124 302,-160"/>
<text text-anchor="middle" x="275" y="-138.6" font-family="monospace" font-size="13.00">x</text>
</g>
<!-- x&#45;&gt;4 -->
<g id="edge2" class="edge">
<title>x&#45;&gt;4</title>
<path fill="none" stroke="black" d="M302.12,-142C314.2,-142 328.54,-142 340.76,-142"/>
<polygon fill="black" stroke="black" points="340.83,-145.5 350.83,-142 340.83,-138.5 340.83,-145.5"/>
</g>
<!-- z -->
<g id="node4" class="node">
<title>z</title>
<polygon fill="transparent" stroke="transparent" points="302,-106 248,-106 248,-70 302,-70 302,-106"/>
<text text-anchor="middle" x="275" y="-84.6" font-family="monospace" font-size="13.00">z</text>
</g>
<!-- z&#45;&gt;1 -->
<g id="edge3" class="edge">
<title>z&#45;&gt;1</title>
<path fill="none" stroke="black" d="M302.12,-88C314.2,-88 328.54,-88 340.76,-88"/>
<polygon fill="black" stroke="black" points="340.83,-91.5 350.83,-88 340.83,-84.5 340.83,-91.5"/>
</g>
<!-- suma -->
<g id="node5" class="node">
<title>suma</title>
<polygon fill="transparent" stroke="transparent" points="302,-52 248,-52 248,-16 302,-16 302,-52"/>
<text text-anchor="middle" x="275" y="-30.6" font-family="monospace" font-size="13.00">suma</text>
</g>
<!-- lambda -->
<g id="node6" class="node">
<title>lambda</title>
<ellipse fill="white" stroke="black" cx="369" cy="-34" rx="18" ry="18"/>
<text text-anchor="middle" x="369" y="-30.6" font-family="monospace" font-size="13.00">λ</text>
</g>
<!-- suma&#45;&gt;lambda -->
<g id="edge1" class="edge">
<title>suma&#45;&gt;lambda</title>
<path fill="none" stroke="black" d="M302.12,-34C314.2,-34 328.54,-34 340.76,-34"/>
<polygon fill="black" stroke="black" points="340.83,-37.5 350.83,-34 340.83,-30.5 340.83,-37.5"/>
</g>
<!-- xl -->
<g id="node7" class="node">
<title>xl</title>
<polygon fill="transparent" stroke="transparent" points="137,-160 83,-160 83,-124 137,-124 137,-160"/>
<text text-anchor="middle" x="110" y="-138.6" font-family="monospace" font-size="13.00">x</text>
</g>
<!-- xl&#45;&gt;x -->
<g id="edge4" class="edge">
<title>xl&#45;&gt;x</title>
<path fill="none" stroke="black" d="M171,-142C186.29,-142 202.66,-142 217.76,-142"/>
<polygon fill="black" stroke="black" points="218,-145.5 228,-142 218,-138.5 218,-145.5"/>
</g>
<!-- yl -->
<g id="node8" class="node">
<title>yl</title>
<polygon fill="transparent" stroke="transparent" points="137,-106 83,-106 83,-70 137,-70 137,-106"/>
<text text-anchor="middle" x="110" y="-84.6" font-family="monospace" font-size="13.00">y</text>
</g>
<!-- E -->
<g id="node9" class="node">
<title>E</title>
<polygon fill="transparent" stroke="transparent" points="22,-160 0,-160 0,-124 22,-124 22,-160"/>
<text text-anchor="middle" x="11" y="-138.6" font-family="monospace" font-size="13.00">E</text>
</g>
<!-- E&#45;&gt;xl -->
<g id="edge5" class="edge">
<title>E&#45;&gt;xl</title>
<path fill="none" stroke="black" d="M22.02,-142C26.76,-142 32.87,-142 39.66,-142"/>
<polygon fill="black" stroke="black" points="40,-145.5 50,-142 40,-138.5 40,-145.5"/>
</g>
</g>
</svg>
