<?xml version="1.0" encoding="UTF-8" standalone="no"?>
<!DOCTYPE svg PUBLIC "-//W3C//DTD SVG 1.1//EN"
 "http://www.w3.org/Graphics/SVG/1.1/DTD/svg11.dtd">
<!-- Generated by graphviz version 2.43.0 (0)
 -->
<!-- Title: %3 Pages: 1 -->
<svg width="434pt" height="185pt"
 viewBox="0.00 0.00 434.43 185.00" xmlns="http://www.w3.org/2000/svg" xmlns:xlink="http://www.w3.org/1999/xlink">
<g id="graph0" class="graph" transform="scale(1 1) rotate(0) translate(4 181)">
<title>%3</title>
<g id="clust1" class="cluster">
<title>cluster0</title>
<polygon fill="white" stroke="black" points="267.43,-11 267.43,-156 362.43,-156 362.43,-11 267.43,-11"/>
<text text-anchor="middle" x="314.93" y="-140.8" font-family="Lato" font-size="14.00">Marco global</text>
</g>
<g id="clust2" class="cluster">
<title>cluster1</title>
<polygon fill="white" stroke="black" points="50,-52 50,-156 171,-156 171,-52 50,-52"/>
<text text-anchor="middle" x="110.5" y="-140.8" font-family="Lato" font-size="14.00">Marco de lambda</text>
</g>
<!-- 1 -->
<g id="node1" class="node">
<title>1</title>
<ellipse fill="white" stroke="black" cx="408.43" cy="-72" rx="18" ry="18"/>
<text text-anchor="middle" x="408.43" y="-68.6" font-family="monospace" font-size="13.00">1</text>
</g>
<!-- 4 -->
<g id="node2" class="node">
<title>4</title>
<ellipse fill="white" stroke="black" cx="408.43" cy="-126" rx="18" ry="18"/>
<text text-anchor="middle" x="408.43" y="-122.6" font-family="monospace" font-size="13.00">4</text>
</g>
<!-- 8 -->
<g id="node3" class="node">
<title>8</title>
<ellipse fill="white" stroke="black" cx="219.21" cy="-159" rx="18" ry="18"/>
<text text-anchor="middle" x="219.21" y="-155.6" font-family="monospace" font-size="13.00">8</text>
</g>
<!-- 12 -->
<g id="node4" class="node">
<title>12</title>
<ellipse fill="white" stroke="black" cx="219.21" cy="-65" rx="20.43" ry="20.43"/>
<text text-anchor="middle" x="219.21" y="-61.6" font-family="monospace" font-size="13.00">12</text>
</g>
<!-- x -->
<g id="node5" class="node">
<title>x</title>
<polygon fill="white" stroke="black" points="296.93,-102 296.93,-124 332.93,-124 332.93,-102 296.93,-102"/>
<text text-anchor="middle" x="305.93" y="-109.6" font-family="monospace" font-size="13.00">x</text>
<polyline fill="none" stroke="black" points="314.93,-102 314.93,-124 "/>
<text text-anchor="middle" x="323.93" y="-109.6" font-family="monospace" font-size="13.00">⬤</text>
</g>
<!-- x&#45;&gt;4 -->
<g id="edge2" class="edge">
<title>x:f1&#45;&gt;4</title>
<path fill="none" stroke="black" d="M333.93,-113C349.73,-113 367.15,-115.95 381.06,-119.04"/>
<polygon fill="black" stroke="black" points="380.4,-122.48 390.94,-121.38 382.01,-115.67 380.4,-122.48"/>
</g>
<!-- z -->
<g id="node6" class="node">
<title>z</title>
<polygon fill="white" stroke="black" points="296.93,-61 296.93,-83 332.93,-83 332.93,-61 296.93,-61"/>
<text text-anchor="middle" x="305.93" y="-68.6" font-family="monospace" font-size="13.00">z</text>
<polyline fill="none" stroke="black" points="314.93,-61 314.93,-83 "/>
<text text-anchor="middle" x="323.93" y="-68.6" font-family="monospace" font-size="13.00">⬤</text>
</g>
<!-- z&#45;&gt;1 -->
<g id="edge3" class="edge">
<title>z:f1&#45;&gt;1</title>
<path fill="none" stroke="black" d="M333.93,-72C349.13,-72 366.1,-72 379.91,-72"/>
<polygon fill="black" stroke="black" points="380.2,-75.5 390.2,-72 380.2,-68.5 380.2,-75.5"/>
</g>
<!-- suma -->
<g id="node7" class="node">
<title>suma</title>
<polygon fill="white" stroke="black" points="279.43,-20 279.43,-42 350.43,-42 350.43,-20 279.43,-20"/>
<text text-anchor="middle" x="302.93" y="-27.6" font-family="monospace" font-size="13.00">suma</text>
<polyline fill="none" stroke="black" points="326.43,-20 326.43,-42 "/>
<text text-anchor="middle" x="338.43" y="-27.6" font-family="monospace" font-size="13.00">⬤</text>
</g>
<!-- lambda -->
<g id="node8" class="node">
<title>lambda</title>
<ellipse fill="white" stroke="black" cx="408.43" cy="-18" rx="18" ry="18"/>
<text text-anchor="middle" x="408.43" y="-14.6" font-family="monospace" font-size="13.00">λ</text>
</g>
<!-- suma&#45;&gt;lambda -->
<g id="edge1" class="edge">
<title>suma:f1&#45;&gt;lambda</title>
<path fill="none" stroke="black" d="M351.93,-31C361.71,-31 372.2,-29.06 381.41,-26.68"/>
<polygon fill="black" stroke="black" points="382.5,-30.01 391.15,-23.89 380.57,-23.28 382.5,-30.01"/>
</g>
<!-- xl -->
<g id="node9" class="node">
<title>xl</title>
<polygon fill="white" stroke="black" points="92,-102 92,-124 128,-124 128,-102 92,-102"/>
<text text-anchor="middle" x="101" y="-109.6" font-family="monospace" font-size="13.00">x</text>
<polyline fill="none" stroke="black" points="110,-102 110,-124 "/>
<text text-anchor="middle" x="119" y="-109.6" font-family="monospace" font-size="13.00">⬤</text>
</g>
<!-- xl&#45;&gt;8 -->
<g id="edge4" class="edge">
<title>xl:f1&#45;&gt;8</title>
<path fill="none" stroke="black" d="M129,-113C154.52,-113 180.05,-128.06 197.21,-140.94"/>
<polygon fill="black" stroke="black" points="195.36,-143.94 205.38,-147.39 199.7,-138.45 195.36,-143.94"/>
</g>
<!-- xl&#45;&gt;x -->
<g id="edge6" class="edge">
<title>xl&#45;&gt;x</title>
<path fill="none" stroke="black" d="M171,-113C198.28,-113 230.39,-113 257.26,-113"/>
<polygon fill="black" stroke="black" points="257.43,-116.5 267.43,-113 257.43,-109.5 257.43,-116.5"/>
</g>
<!-- yl -->
<g id="node10" class="node">
<title>yl</title>
<polygon fill="white" stroke="black" points="92,-61 92,-83 128,-83 128,-61 92,-61"/>
<text text-anchor="middle" x="101" y="-68.6" font-family="monospace" font-size="13.00">y</text>
<polyline fill="none" stroke="black" points="110,-61 110,-83 "/>
<text text-anchor="middle" x="119" y="-68.6" font-family="monospace" font-size="13.00">⬤</text>
</g>
<!-- yl&#45;&gt;12 -->
<g id="edge5" class="edge">
<title>yl:f1&#45;&gt;12</title>
<path fill="none" stroke="black" d="M129,-72C149.07,-72 171.6,-70.22 189,-68.45"/>
<polygon fill="black" stroke="black" points="189.53,-71.91 199.1,-67.37 188.79,-64.95 189.53,-71.91"/>
</g>
<!-- E -->
<g id="node11" class="node">
<title>E</title>
<polygon fill="transparent" stroke="transparent" points="22,-131 0,-131 0,-95 22,-95 22,-131"/>
<text text-anchor="middle" x="11" y="-109.6" font-family="monospace" font-size="13.00">E</text>
</g>
<!-- E&#45;&gt;xl -->
<g id="edge7" class="edge">
<title>E&#45;&gt;xl</title>
<path fill="none" stroke="black" d="M22.02,-113C26.76,-113 32.87,-113 39.66,-113"/>
<polygon fill="black" stroke="black" points="40,-116.5 50,-113 40,-109.5 40,-116.5"/>
</g>
</g>
</svg>
