<?xml version="1.0" encoding="UTF-8" standalone="no"?>
<!DOCTYPE svg PUBLIC "-//W3C//DTD SVG 1.1//EN"
 "http://www.w3.org/Graphics/SVG/1.1/DTD/svg11.dtd">
<!-- Generated by graphviz version 2.43.0 (0)
 -->
<!-- Title: %3 Pages: 1 -->
<svg width="394pt" height="225pt"
 viewBox="0.00 0.00 393.60 225.00" xmlns="http://www.w3.org/2000/svg" xmlns:xlink="http://www.w3.org/1999/xlink">
<g id="graph0" class="graph" transform="scale(1 1) rotate(0) translate(4 221)">
<title>%3</title>
<g id="clust1" class="cluster">
<title>cluster0</title>
<polygon fill="white" stroke="black" points="209.6,-8 209.6,-191 377.6,-191 377.6,-8 209.6,-8"/>
<text text-anchor="middle" x="293.6" y="-175.8" font-family="Lato" font-size="14.00">Marco global</text>
</g>
<g id="clust2" class="cluster">
<title>cluster1</title>
<polygon fill="white" stroke="black" points="31.6,-44 31.6,-209 152.6,-209 152.6,-44 31.6,-44"/>
<text text-anchor="middle" x="92.1" y="-193.8" font-family="Lato" font-size="14.00">Marco de lambda</text>
</g>
<!-- 1 -->
<g id="node1" class="node">
<title>1</title>
<ellipse fill="white" stroke="black" cx="338.6" cy="-88" rx="18" ry="18"/>
<text text-anchor="middle" x="338.6" y="-84.6" font-family="monospace" font-size="13.00">1</text>
</g>
<!-- 4 -->
<g id="node2" class="node">
<title>4</title>
<ellipse fill="white" stroke="black" cx="338.6" cy="-142" rx="18" ry="18"/>
<text text-anchor="middle" x="338.6" y="-138.6" font-family="monospace" font-size="13.00">4</text>
</g>
<!-- x -->
<g id="node3" class="node">
<title>x</title>
<polygon fill="transparent" stroke="transparent" points="271.6,-160 217.6,-160 217.6,-124 271.6,-124 271.6,-160"/>
<text text-anchor="middle" x="244.6" y="-138.6" font-family="monospace" font-size="13.00">x</text>
</g>
<!-- x&#45;&gt;4 -->
<g id="edge2" class="edge">
<title>x&#45;&gt;4</title>
<path fill="none" stroke="black" d="M271.72,-142C283.8,-142 298.14,-142 310.36,-142"/>
<polygon fill="black" stroke="black" points="310.43,-145.5 320.43,-142 310.43,-138.5 310.43,-145.5"/>
</g>
<!-- xl -->
<g id="node4" class="node">
<title>xl</title>
<polygon fill="transparent" stroke="transparent" points="118.6,-160 64.6,-160 64.6,-124 118.6,-124 118.6,-160"/>
<text text-anchor="middle" x="91.6" y="-138.6" font-family="monospace" font-size="13.00">x</text>
</g>
<!-- xl&#45;&gt;x -->
<g id="edge6" class="edge">
<title>xl&#45;&gt;x</title>
<path fill="none" stroke="black" d="M152.6,-142C171.1,-142 190.9,-142 207.3,-142"/>
<polygon fill="black" stroke="black" points="199.6,-145.5 209.6,-142 199.6,-138.5 199.6,-145.5"/>
</g>
<!-- xl&#45;&gt;xl -->
<g id="edge4" class="edge">
<title>xl&#45;&gt;xl</title>
<path fill="none" stroke="black" d="M75.68,-160.15C73.23,-169.54 78.54,-178 91.6,-178 99.56,-178 104.64,-174.86 106.84,-170.28"/>
<polygon fill="black" stroke="black" points="110.34,-170.36 107.52,-160.15 103.36,-169.9 110.34,-170.36"/>
</g>
<!-- yl -->
<g id="node5" class="node">
<title>yl</title>
<polygon fill="transparent" stroke="transparent" points="118.6,-88 64.6,-88 64.6,-52 118.6,-52 118.6,-88"/>
<text text-anchor="middle" x="91.6" y="-66.6" font-family="monospace" font-size="13.00">y</text>
</g>
<!-- yl&#45;&gt;yl -->
<g id="edge5" class="edge">
<title>yl&#45;&gt;yl</title>
<path fill="none" stroke="black" d="M75.68,-88.15C73.23,-97.54 78.54,-106 91.6,-106 99.56,-106 104.64,-102.86 106.84,-98.28"/>
<polygon fill="black" stroke="black" points="110.34,-98.36 107.52,-88.15 103.36,-97.9 110.34,-98.36"/>
</g>
<!-- z -->
<g id="node6" class="node">
<title>z</title>
<polygon fill="transparent" stroke="transparent" points="271.6,-106 217.6,-106 217.6,-70 271.6,-70 271.6,-106"/>
<text text-anchor="middle" x="244.6" y="-84.6" font-family="monospace" font-size="13.00">z</text>
</g>
<!-- z&#45;&gt;1 -->
<g id="edge3" class="edge">
<title>z&#45;&gt;1</title>
<path fill="none" stroke="black" d="M271.72,-88C283.8,-88 298.14,-88 310.36,-88"/>
<polygon fill="black" stroke="black" points="310.43,-91.5 320.43,-88 310.43,-84.5 310.43,-91.5"/>
</g>
<!-- suma -->
<g id="node7" class="node">
<title>suma</title>
<polygon fill="transparent" stroke="transparent" points="271.6,-52 217.6,-52 217.6,-16 271.6,-16 271.6,-52"/>
<text text-anchor="middle" x="244.6" y="-30.6" font-family="monospace" font-size="13.00">suma</text>
</g>
<!-- lambda -->
<g id="node8" class="node">
<title>lambda</title>
<polygon fill="white" stroke="black" points="369.6,-52 307.6,-52 307.6,-16 369.6,-16 369.6,-52"/>
<text text-anchor="middle" x="338.6" y="-30.6" font-family="monospace" font-size="13.00">lambda</text>
</g>
<!-- suma&#45;&gt;lambda -->
<g id="edge1" class="edge">
<title>suma&#45;&gt;lambda</title>
<path fill="none" stroke="black" d="M271.72,-34C279.74,-34 288.75,-34 297.48,-34"/>
<polygon fill="black" stroke="black" points="297.52,-37.5 307.52,-34 297.52,-30.5 297.52,-37.5"/>
</g>
<!-- E -->
<g id="node9" class="node">
<title>E</title>
<ellipse fill="white" stroke="black" cx="1.8" cy="-142" rx="1.8" ry="1.8"/>
</g>
<!-- E&#45;&gt;xl -->
<g id="edge7" class="edge">
<title>E&#45;&gt;xl</title>
<path fill="none" stroke="black" d="M3.79,-142C6.21,-142 12.9,-142 21.55,-142"/>
<polygon fill="black" stroke="black" points="21.6,-145.5 31.6,-142 21.6,-138.5 21.6,-145.5"/>
</g>
</g>
</svg>
