<?xml version="1.0" encoding="UTF-8" standalone="no"?>
<!DOCTYPE svg PUBLIC "-//W3C//DTD SVG 1.1//EN"
 "http://www.w3.org/Graphics/SVG/1.1/DTD/svg11.dtd">
<!-- Generated by graphviz version 2.43.0 (0)
 -->
<!-- Title: %3 Pages: 1 -->
<svg width="216pt" height="207pt"
 viewBox="0.00 0.00 215.60 207.00" xmlns="http://www.w3.org/2000/svg" xmlns:xlink="http://www.w3.org/1999/xlink">
<g id="graph0" class="graph" transform="scale(1 1) rotate(0) translate(4 203)">
<title>%3</title>
<g id="clust1" class="cluster">
<title>cluster0</title>
<polygon fill="white" stroke="black" points="31.6,-8 31.6,-191 199.6,-191 199.6,-8 31.6,-8"/>
<text text-anchor="middle" x="115.6" y="-175.8" font-family="Lato" font-size="14.00">Marco global</text>
</g>
<!-- 1 -->
<g id="node1" class="node">
<title>1</title>
<ellipse fill="white" stroke="black" cx="160.6" cy="-88" rx="18" ry="18"/>
<text text-anchor="middle" x="160.6" y="-84.6" font-family="monospace" font-size="13.00">1</text>
</g>
<!-- 4 -->
<g id="node2" class="node">
<title>4</title>
<ellipse fill="white" stroke="black" cx="160.6" cy="-142" rx="18" ry="18"/>
<text text-anchor="middle" x="160.6" y="-138.6" font-family="monospace" font-size="13.00">4</text>
</g>
<!-- x -->
<g id="node3" class="node">
<title>x</title>
<polygon fill="transparent" stroke="transparent" points="93.6,-160 39.6,-160 39.6,-124 93.6,-124 93.6,-160"/>
<text text-anchor="middle" x="66.6" y="-138.6" font-family="monospace" font-size="13.00">x</text>
</g>
<!-- x&#45;&gt;4 -->
<g id="edge2" class="edge">
<title>x&#45;&gt;4</title>
<path fill="none" stroke="black" d="M93.72,-142C105.8,-142 120.14,-142 132.36,-142"/>
<polygon fill="black" stroke="black" points="132.43,-145.5 142.43,-142 132.43,-138.5 132.43,-145.5"/>
</g>
<!-- z -->
<g id="node4" class="node">
<title>z</title>
<polygon fill="transparent" stroke="transparent" points="93.6,-106 39.6,-106 39.6,-70 93.6,-70 93.6,-106"/>
<text text-anchor="middle" x="66.6" y="-84.6" font-family="monospace" font-size="13.00">z</text>
</g>
<!-- z&#45;&gt;1 -->
<g id="edge3" class="edge">
<title>z&#45;&gt;1</title>
<path fill="none" stroke="black" d="M93.72,-88C105.8,-88 120.14,-88 132.36,-88"/>
<polygon fill="black" stroke="black" points="132.43,-91.5 142.43,-88 132.43,-84.5 132.43,-91.5"/>
</g>
<!-- suma -->
<g id="node5" class="node">
<title>suma</title>
<polygon fill="transparent" stroke="transparent" points="93.6,-52 39.6,-52 39.6,-16 93.6,-16 93.6,-52"/>
<text text-anchor="middle" x="66.6" y="-30.6" font-family="monospace" font-size="13.00">suma</text>
</g>
<!-- lambda -->
<g id="node6" class="node">
<title>lambda</title>
<polygon fill="white" stroke="black" points="191.6,-52 129.6,-52 129.6,-16 191.6,-16 191.6,-52"/>
<text text-anchor="middle" x="160.6" y="-30.6" font-family="monospace" font-size="13.00">lambda</text>
</g>
<!-- suma&#45;&gt;lambda -->
<g id="edge1" class="edge">
<title>suma&#45;&gt;lambda</title>
<path fill="none" stroke="black" d="M93.72,-34C101.74,-34 110.75,-34 119.48,-34"/>
<polygon fill="black" stroke="black" points="119.52,-37.5 129.52,-34 119.52,-30.5 119.52,-37.5"/>
</g>
<!-- E -->
<g id="node7" class="node">
<title>E</title>
<ellipse fill="white" stroke="black" cx="1.8" cy="-142" rx="1.8" ry="1.8"/>
</g>
<!-- E&#45;&gt;x -->
<g id="edge4" class="edge">
<title>E&#45;&gt;x</title>
<path fill="none" stroke="black" d="M3.89,-142C7.24,-142 17.86,-142 29.37,-142"/>
<polygon fill="black" stroke="black" points="21.6,-145.5 31.6,-142 21.6,-138.5 21.6,-145.5"/>
</g>
</g>
</svg>
