<?xml version="1.0" encoding="UTF-8" standalone="no"?>
<!DOCTYPE svg PUBLIC "-//W3C//DTD SVG 1.1//EN"
 "http://www.w3.org/Graphics/SVG/1.1/DTD/svg11.dtd">
<!-- Generated by graphviz version 14.1.1 (0)
 -->
<!-- Pages: 1 -->
<svg width="223pt" height="263pt"
 viewBox="0.00 0.00 223.00 263.00" xmlns="http://www.w3.org/2000/svg" xmlns:xlink="http://www.w3.org/1999/xlink">
<g id="graph0" class="graph" transform="scale(1 1) rotate(0) translate(4 259)">
<g id="clust1" class="cluster">
<title>cluster0</title>
<polygon fill="white" stroke="black" points="49.9,-8 49.9,-247 144.65,-247 144.65,-8 49.9,-8"/>
<text xml:space="preserve" text-anchor="middle" x="97.28" y="-229.7" font-family="Lato" font-size="14.00">Marco global</text>
</g>
<!-- 21 -->
<g id="node1" class="node">
<title>21</title>
<ellipse fill="white" stroke="black" cx="193.8" cy="-86" rx="21.15" ry="21.15"/>
<text xml:space="preserve" text-anchor="middle" x="193.8" y="-81.9" font-family="Lato" font-size="13.00">21</text>
</g>
<!-- 1 -->
<g id="node2" class="node">
<title>1</title>
<ellipse fill="white" stroke="black" cx="193.8" cy="-143" rx="18" ry="18"/>
<text xml:space="preserve" text-anchor="middle" x="193.8" y="-138.9" font-family="Lato" font-size="13.00">1</text>
</g>
<!-- 3 -->
<g id="node3" class="node">
<title>3</title>
<ellipse fill="white" stroke="black" cx="193.8" cy="-29" rx="18" ry="18"/>
<text xml:space="preserve" text-anchor="middle" x="193.8" y="-24.9" font-family="Lato" font-size="13.00">3</text>
</g>
<!-- 4 -->
<g id="node4" class="node">
<title>4</title>
<ellipse fill="white" stroke="black" cx="193.8" cy="-197" rx="18" ry="18"/>
<text xml:space="preserve" text-anchor="middle" x="193.8" y="-192.9" font-family="Lato" font-size="13.00">4</text>
</g>
<!-- x -->
<g id="node5" class="node">
<title>x</title>
<polygon fill="none" stroke="none" points="100.38,-214 93.18,-214 93.18,-178 100.38,-178 100.38,-214"/>
<text xml:space="preserve" text-anchor="middle" x="96.78" y="-191.9" font-family="monospace" font-size="13.00">x</text>
</g>
<!-- x&#45;&gt;4 -->
<g id="edge1" class="edge">
<title>x&#45;&gt;4</title>
<path fill="none" stroke="black" d="M114.76,-196.18C128.38,-196.32 147.79,-196.53 163.85,-196.7"/>
<polygon fill="black" stroke="black" points="163.77,-200.19 173.81,-196.8 163.84,-193.19 163.77,-200.19"/>
</g>
<!-- z -->
<g id="node6" class="node">
<title>z</title>
<polygon fill="none" stroke="none" points="100.38,-160 93.18,-160 93.18,-124 100.38,-124 100.38,-160"/>
<text xml:space="preserve" text-anchor="middle" x="96.78" y="-137.9" font-family="monospace" font-size="13.00">z</text>
</g>
<!-- z&#45;&gt;1 -->
<g id="edge3" class="edge">
<title>z&#45;&gt;1</title>
<path fill="none" stroke="black" d="M114.76,-142.18C128.38,-142.32 147.79,-142.53 163.85,-142.7"/>
<polygon fill="black" stroke="black" points="163.77,-146.19 173.81,-142.8 163.84,-139.19 163.77,-146.19"/>
</g>
<!-- suma -->
<g id="node7" class="node">
<title>suma</title>
<polygon fill="none" stroke="none" points="123.78,-106 69.78,-106 69.78,-70 123.78,-70 123.78,-106"/>
<text xml:space="preserve" text-anchor="middle" x="96.78" y="-83.9" font-family="monospace" font-size="13.00">suma</text>
</g>
<!-- suma&#45;&gt;21 -->
<g id="edge4" class="edge">
<title>suma&#45;&gt;21</title>
<path fill="none" stroke="black" d="M114.76,-87.64C127.61,-87.37 145.62,-86.99 161.11,-86.67"/>
<polygon fill="black" stroke="black" points="160.89,-90.17 170.81,-86.46 160.74,-83.17 160.89,-90.17"/>
</g>
<!-- y -->
<g id="node8" class="node">
<title>y</title>
<polygon fill="none" stroke="none" points="100.38,-52 93.18,-52 93.18,-16 100.38,-16 100.38,-52"/>
<text xml:space="preserve" text-anchor="middle" x="96.78" y="-29.9" font-family="monospace" font-size="13.00">y</text>
</g>
<!-- y&#45;&gt;3 -->
<g id="edge2" class="edge">
<title>y&#45;&gt;3</title>
<path fill="none" stroke="black" d="M114.76,-33.11C128.46,-32.39 148.03,-31.36 164.15,-30.51"/>
<polygon fill="black" stroke="black" points="164.33,-34 174.13,-29.98 163.96,-27.01 164.33,-34"/>
</g>
<!-- E -->
<g id="node9" class="node">
<title>E</title>
<polygon fill="none" stroke="none" points="21.9,-160 0,-160 0,-124 21.9,-124 21.9,-160"/>
<text xml:space="preserve" text-anchor="middle" x="10.95" y="-137.9" font-family="Lato" font-size="13.00">E</text>
</g>
<!-- E&#45;&gt;z -->
<g id="edge5" class="edge">
<title>E&#45;&gt;z</title>
<path fill="none" stroke="black" d="M21.9,-142C26.49,-142 32.35,-142 38.75,-142"/>
<polygon fill="black" stroke="black" points="38.39,-145.5 48.39,-142 38.39,-138.5 38.39,-145.5"/>
</g>
</g>
</svg>
