<?xml version="1.0" encoding="UTF-8" standalone="no"?>
<!DOCTYPE svg PUBLIC "-//W3C//DTD SVG 1.1//EN"
 "http://www.w3.org/Graphics/SVG/1.1/DTD/svg11.dtd">
<!-- Generated by graphviz version 14.1.1 (0)
 -->
<!-- Pages: 1 -->
<svg width="223pt" height="209pt"
 viewBox="0.00 0.00 223.00 209.00" xmlns="http://www.w3.org/2000/svg" xmlns:xlink="http://www.w3.org/1999/xlink">
<g id="graph0" class="graph" transform="scale(1 1) rotate(0) translate(4 205)">
<g id="clust1" class="cluster">
<title>cluster0</title>
<polygon fill="white" stroke="black" points="49.9,-8 49.9,-193 144.65,-193 144.65,-8 49.9,-8"/>
<text xml:space="preserve" text-anchor="middle" x="97.28" y="-175.7" font-family="Lato" font-size="14.00">Marco global</text>
</g>
<!-- 21 -->
<g id="node1" class="node">
<title>21</title>
<ellipse fill="white" stroke="black" cx="193.8" cy="-31" rx="21.15" ry="21.15"/>
<text xml:space="preserve" text-anchor="middle" x="193.8" y="-26.9" font-family="Lato" font-size="13.00">21</text>
</g>
<!-- 1 -->
<g id="node2" class="node">
<title>1</title>
<ellipse fill="white" stroke="black" cx="193.8" cy="-88" rx="18" ry="18"/>
<text xml:space="preserve" text-anchor="middle" x="193.8" y="-83.9" font-family="Lato" font-size="13.00">1</text>
</g>
<!-- 4 -->
<g id="node3" class="node">
<title>4</title>
<ellipse fill="white" stroke="black" cx="193.8" cy="-142" rx="18" ry="18"/>
<text xml:space="preserve" text-anchor="middle" x="193.8" y="-137.9" font-family="Lato" font-size="13.00">4</text>
</g>
<!-- x -->
<g id="node4" class="node">
<title>x</title>
<polygon fill="none" stroke="none" points="100.38,-160 93.18,-160 93.18,-124 100.38,-124 100.38,-160"/>
<text xml:space="preserve" text-anchor="middle" x="96.78" y="-137.9" font-family="monospace" font-size="13.00">x</text>
</g>
<!-- x&#45;&gt;4 -->
<g id="edge1" class="edge">
<title>x&#45;&gt;4</title>
<path fill="none" stroke="black" d="M114.76,-142C128.38,-142 147.79,-142 163.85,-142"/>
<polygon fill="black" stroke="black" points="163.81,-145.5 173.81,-142 163.81,-138.5 163.81,-145.5"/>
</g>
<!-- z -->
<g id="node5" class="node">
<title>z</title>
<polygon fill="none" stroke="none" points="100.38,-106 93.18,-106 93.18,-70 100.38,-70 100.38,-106"/>
<text xml:space="preserve" text-anchor="middle" x="96.78" y="-83.9" font-family="monospace" font-size="13.00">z</text>
</g>
<!-- z&#45;&gt;1 -->
<g id="edge2" class="edge">
<title>z&#45;&gt;1</title>
<path fill="none" stroke="black" d="M114.76,-88C128.38,-88 147.79,-88 163.85,-88"/>
<polygon fill="black" stroke="black" points="163.81,-91.5 173.81,-88 163.81,-84.5 163.81,-91.5"/>
</g>
<!-- suma -->
<g id="node6" class="node">
<title>suma</title>
<polygon fill="none" stroke="none" points="123.78,-52 69.78,-52 69.78,-16 123.78,-16 123.78,-52"/>
<text xml:space="preserve" text-anchor="middle" x="96.78" y="-29.9" font-family="monospace" font-size="13.00">suma</text>
</g>
<!-- suma&#45;&gt;21 -->
<g id="edge3" class="edge">
<title>suma&#45;&gt;21</title>
<path fill="none" stroke="black" d="M114.76,-33.46C127.61,-33.06 145.62,-32.49 161.11,-32"/>
<polygon fill="black" stroke="black" points="160.93,-35.51 170.81,-31.69 160.71,-28.51 160.93,-35.51"/>
</g>
<!-- E -->
<g id="node7" class="node">
<title>E</title>
<polygon fill="none" stroke="none" points="21.9,-106 0,-106 0,-70 21.9,-70 21.9,-106"/>
<text xml:space="preserve" text-anchor="middle" x="10.95" y="-83.9" font-family="Lato" font-size="13.00">E</text>
</g>
<!-- E&#45;&gt;z -->
<g id="edge4" class="edge">
<title>E&#45;&gt;z</title>
<path fill="none" stroke="black" d="M21.9,-88C26.49,-88 32.35,-88 38.75,-88"/>
<polygon fill="black" stroke="black" points="38.39,-91.5 48.39,-88 38.39,-84.5 38.39,-91.5"/>
</g>
</g>
</svg>
