<?xml version="1.0" encoding="UTF-8" standalone="no"?>
<!DOCTYPE svg PUBLIC "-//W3C//DTD SVG 1.1//EN"
 "http://www.w3.org/Graphics/SVG/1.1/DTD/svg11.dtd">
<!-- Generated by graphviz version 2.40.1 (20161225.0304)
 -->
<!-- Title: %3 Pages: 1 -->
<svg width="576pt" height="326pt"
 viewBox="0.00 0.00 576.00 325.96" xmlns="http://www.w3.org/2000/svg" xmlns:xlink="http://www.w3.org/1999/xlink">
<g id="graph0" class="graph" transform="scale(1.4487 1.4487) rotate(0) translate(4 221)">
<title>%3</title>
<g id="clust1" class="cluster">
<title>cluster0</title>
<polygon fill="#ffffff" stroke="#000000" points="213.6,-8 213.6,-191 381.6,-191 381.6,-8 213.6,-8"/>
<text text-anchor="middle" x="297.6" y="-175.8" font-family="Lato" font-size="14.00" fill="#000000">Marco global</text>
</g>
<g id="clust2" class="cluster">
<title>cluster1</title>
<polygon fill="#ffffff" stroke="#000000" points="31.6,-44 31.6,-209 156.6,-209 156.6,-44 31.6,-44"/>
<text text-anchor="middle" x="94.1" y="-193.8" font-family="Lato" font-size="14.00" fill="#000000">Marco de lambda</text>
</g>
<!-- 1 -->
<g id="node1" class="node">
<title>1</title>
<ellipse fill="#ffffff" stroke="#000000" cx="342.6" cy="-88" rx="18" ry="18"/>
<text text-anchor="middle" x="342.6" y="-84.6" font-family="monospace" font-size="13.00" fill="#000000">1</text>
</g>
<!-- 4 -->
<g id="node2" class="node">
<title>4</title>
<ellipse fill="#ffffff" stroke="#000000" cx="342.6" cy="-142" rx="18" ry="18"/>
<text text-anchor="middle" x="342.6" y="-138.6" font-family="monospace" font-size="13.00" fill="#000000">4</text>
</g>
<!-- x -->
<g id="node3" class="node">
<title>x</title>
<polygon fill="transparent" stroke="transparent" points="275.6,-160 221.6,-160 221.6,-124 275.6,-124 275.6,-160"/>
<text text-anchor="middle" x="248.6" y="-138.6" font-family="monospace" font-size="13.00" fill="#000000">x</text>
</g>
<!-- x&#45;&gt;4 -->
<g id="edge2" class="edge">
<title>x&#45;&gt;4</title>
<path fill="none" stroke="#000000" d="M275.7887,-142C287.8667,-142 302.0812,-142 314.2871,-142"/>
<polygon fill="#000000" stroke="#000000" points="314.3923,-145.5001 324.3923,-142 314.3922,-138.5001 314.3923,-145.5001"/>
</g>
<!-- xl -->
<g id="node4" class="node">
<title>xl</title>
<polygon fill="transparent" stroke="transparent" points="120.6,-160 66.6,-160 66.6,-124 120.6,-124 120.6,-160"/>
<text text-anchor="middle" x="93.6" y="-138.6" font-family="monospace" font-size="13.00" fill="#000000">x</text>
</g>
<!-- xl&#45;&gt;x -->
<g id="edge6" class="edge">
<title>xl&#45;&gt;x</title>
<path fill="none" stroke="#000000" d="M156.5955,-142C175.1935,-142 194.9472,-142 211.3638,-142"/>
<polygon fill="#000000" stroke="#000000" points="203.6002,-145.5004 213.6,-142 203.5998,-138.5004 203.6002,-145.5004"/>
</g>
<!-- xl&#45;&gt;xl -->
<g id="edge4" class="edge">
<title>xl&#45;&gt;xl</title>
<path fill="none" stroke="#000000" d="M77.3183,-160.1527C74.8134,-169.5391 80.2406,-178 93.6,-178 101.7409,-178 106.9362,-174.8581 109.1861,-170.2796"/>
<polygon fill="#000000" stroke="#000000" points="112.6881,-170.3691 109.8817,-160.1527 105.7046,-169.8893 112.6881,-170.3691"/>
</g>
<!-- yl -->
<g id="node5" class="node">
<title>yl</title>
<polygon fill="transparent" stroke="transparent" points="120.6,-88 66.6,-88 66.6,-52 120.6,-52 120.6,-88"/>
<text text-anchor="middle" x="93.6" y="-66.6" font-family="monospace" font-size="13.00" fill="#000000">y</text>
</g>
<!-- yl&#45;&gt;yl -->
<g id="edge5" class="edge">
<title>yl&#45;&gt;yl</title>
<path fill="none" stroke="#000000" d="M77.3183,-88.1527C74.8134,-97.5391 80.2406,-106 93.6,-106 101.7409,-106 106.9362,-102.8581 109.1861,-98.2796"/>
<polygon fill="#000000" stroke="#000000" points="112.6881,-98.3691 109.8817,-88.1527 105.7046,-97.8893 112.6881,-98.3691"/>
</g>
<!-- z -->
<g id="node6" class="node">
<title>z</title>
<polygon fill="transparent" stroke="transparent" points="275.6,-106 221.6,-106 221.6,-70 275.6,-70 275.6,-106"/>
<text text-anchor="middle" x="248.6" y="-84.6" font-family="monospace" font-size="13.00" fill="#000000">z</text>
</g>
<!-- z&#45;&gt;1 -->
<g id="edge3" class="edge">
<title>z&#45;&gt;1</title>
<path fill="none" stroke="#000000" d="M275.7887,-88C287.8667,-88 302.0812,-88 314.2871,-88"/>
<polygon fill="#000000" stroke="#000000" points="314.3923,-91.5001 324.3923,-88 314.3922,-84.5001 314.3923,-91.5001"/>
</g>
<!-- suma -->
<g id="node7" class="node">
<title>suma</title>
<polygon fill="transparent" stroke="transparent" points="275.6,-52 221.6,-52 221.6,-16 275.6,-16 275.6,-52"/>
<text text-anchor="middle" x="248.6" y="-30.6" font-family="monospace" font-size="13.00" fill="#000000">suma</text>
</g>
<!-- lambda -->
<g id="node8" class="node">
<title>lambda</title>
<polygon fill="#ffffff" stroke="#000000" points="373.6,-52 311.6,-52 311.6,-16 373.6,-16 373.6,-52"/>
<text text-anchor="middle" x="342.6" y="-30.6" font-family="monospace" font-size="13.00" fill="#000000">lambda</text>
</g>
<!-- suma&#45;&gt;lambda -->
<g id="edge1" class="edge">
<title>suma&#45;&gt;lambda</title>
<path fill="none" stroke="#000000" d="M275.7887,-34C283.817,-34 292.7892,-34 301.4881,-34"/>
<polygon fill="#000000" stroke="#000000" points="301.5013,-37.5001 311.5013,-34 301.5012,-30.5001 301.5013,-37.5001"/>
</g>
<!-- E -->
<g id="node9" class="node">
<title>E</title>
<ellipse fill="#ffffff" stroke="#000000" cx="1.8" cy="-142" rx="1.8" ry="1.8"/>
</g>
<!-- E&#45;&gt;xl -->
<g id="edge7" class="edge">
<title>E&#45;&gt;xl</title>
<path fill="none" stroke="#000000" d="M3.7174,-142C6.7743,-142 13.2468,-142 21.3864,-142"/>
<polygon fill="#000000" stroke="#000000" points="21.6026,-145.5001 31.6026,-142 21.6025,-138.5001 21.6026,-145.5001"/>
</g>
</g>
</svg>
