<?xml version="1.0" encoding="UTF-8" standalone="no"?>
<!DOCTYPE svg PUBLIC "-//W3C//DTD SVG 1.1//EN"
 "http://www.w3.org/Graphics/SVG/1.1/DTD/svg11.dtd">
<!-- Generated by graphviz version 2.40.1 (20161225.0304)
 -->
<!-- Title: %3 Pages: 1 -->
<svg width="576pt" height="550pt"
 viewBox="0.00 0.00 576.00 549.82" xmlns="http://www.w3.org/2000/svg" xmlns:xlink="http://www.w3.org/1999/xlink">
<g id="graph0" class="graph" transform="scale(2.6182 2.6182) rotate(0) translate(4 206)">
<title>%3</title>
<!-- 1 -->
<g id="node1" class="node">
<title>1</title>
<ellipse fill="#ffffff" stroke="#000000" cx="181" cy="-18" rx="18" ry="18"/>
<text text-anchor="middle" x="181" y="-14.6" font-family="monospace" font-size="13.00" fill="#000000">1</text>
</g>
<!-- 12 -->
<g id="node2" class="node">
<title>12</title>
<ellipse fill="#ffffff" stroke="#000000" cx="181" cy="-74" rx="20.4296" ry="20.4296"/>
<text text-anchor="middle" x="181" y="-70.6" font-family="monospace" font-size="13.00" fill="#000000">12</text>
</g>
<!-- 8 -->
<g id="node3" class="node">
<title>8</title>
<ellipse fill="#ffffff" stroke="#000000" cx="181" cy="-130" rx="18" ry="18"/>
<text text-anchor="middle" x="181" y="-126.6" font-family="monospace" font-size="13.00" fill="#000000">8</text>
</g>
<!-- xl -->
<g id="node4" class="node">
<title>xl</title>
<polygon fill="transparent" stroke="transparent" points="99,-148 15,-148 15,-112 99,-112 99,-148"/>
<text text-anchor="middle" x="57" y="-126.6" font-family="monospace" font-size="13.00" fill="#000000">x (local)</text>
</g>
<!-- xl&#45;&gt;8 -->
<g id="edge2" class="edge">
<title>xl&#45;&gt;8</title>
<path fill="none" stroke="#000000" d="M99.3269,-130C116.8845,-130 136.7901,-130 152.5542,-130"/>
<polygon fill="#000000" stroke="#000000" points="152.7263,-133.5001 162.7263,-130 152.7263,-126.5001 152.7263,-133.5001"/>
</g>
<!-- yl -->
<g id="node5" class="node">
<title>yl</title>
<polygon fill="transparent" stroke="transparent" points="99,-92 15,-92 15,-56 99,-56 99,-92"/>
<text text-anchor="middle" x="57" y="-70.6" font-family="monospace" font-size="13.00" fill="#000000">y (local)</text>
</g>
<!-- yl&#45;&gt;12 -->
<g id="edge3" class="edge">
<title>yl&#45;&gt;12</title>
<path fill="none" stroke="#000000" d="M99.3269,-74C116.2004,-74 135.2426,-74 150.6931,-74"/>
<polygon fill="#000000" stroke="#000000" points="150.7451,-77.5001 160.7451,-74 150.745,-70.5001 150.7451,-77.5001"/>
</g>
<!-- z -->
<g id="node6" class="node">
<title>z</title>
<polygon fill="transparent" stroke="transparent" points="103,-36 11,-36 11,0 103,0 103,-36"/>
<text text-anchor="middle" x="57" y="-14.6" font-family="monospace" font-size="13.00" fill="#000000">z (global)</text>
</g>
<!-- z&#45;&gt;1 -->
<g id="edge4" class="edge">
<title>z&#45;&gt;1</title>
<path fill="none" stroke="#000000" d="M103.173,-18C119.744,-18 137.9315,-18 152.5549,-18"/>
<polygon fill="#000000" stroke="#000000" points="152.9569,-21.5001 162.9569,-18 152.9569,-14.5001 152.9569,-21.5001"/>
</g>
<!-- suma -->
<g id="node7" class="node">
<title>suma</title>
<polygon fill="transparent" stroke="transparent" points="114,-202 0,-202 0,-166 114,-166 114,-202"/>
<text text-anchor="middle" x="57" y="-180.6" font-family="monospace" font-size="13.00" fill="#000000">suma (global)</text>
</g>
<!-- lambda -->
<g id="node8" class="node">
<title>lambda</title>
<polygon fill="#ffffff" stroke="#000000" points="212,-202 150,-202 150,-166 212,-166 212,-202"/>
<text text-anchor="middle" x="181" y="-180.6" font-family="monospace" font-size="13.00" fill="#000000">lambda</text>
</g>
<!-- suma&#45;&gt;lambda -->
<g id="edge1" class="edge">
<title>suma&#45;&gt;lambda</title>
<path fill="none" stroke="#000000" d="M114.2814,-184C122.753,-184 131.3427,-184 139.4131,-184"/>
<polygon fill="#000000" stroke="#000000" points="139.6695,-187.5001 149.6695,-184 139.6695,-180.5001 139.6695,-187.5001"/>
</g>
</g>
</svg>
