<?xml version="1.0" encoding="UTF-8" standalone="no"?>
<!DOCTYPE svg PUBLIC "-//W3C//DTD SVG 1.1//EN"
 "http://www.w3.org/Graphics/SVG/1.1/DTD/svg11.dtd">
<!-- Generated by graphviz version 2.43.0 (0)
 -->
<!-- Title: %3 Pages: 1 -->
<svg width="221pt" height="315pt"
 viewBox="0.00 0.00 221.43 315.00" xmlns="http://www.w3.org/2000/svg" xmlns:xlink="http://www.w3.org/1999/xlink">
<g id="graph0" class="graph" transform="scale(1 1) rotate(0) translate(4 311)">
<title>%3</title>
<g id="clust1" class="cluster">
<title>cluster0</title>
<polygon fill="white" stroke="black" points="50,-8 50,-299 145,-299 145,-8 50,-8"/>
<text text-anchor="middle" x="97.5" y="-283.8" font-family="Lato" font-size="14.00">Marco global</text>
</g>
<!-- 21 -->
<g id="node1" class="node">
<title>21</title>
<ellipse fill="white" stroke="black" cx="193.21" cy="-142" rx="20.43" ry="20.43"/>
<text text-anchor="middle" x="193.21" y="-138.6" font-family="Lato" font-size="13.00">21</text>
</g>
<!-- 1 -->
<g id="node2" class="node">
<title>1</title>
<ellipse fill="white" stroke="black" cx="193.21" cy="-198" rx="18" ry="18"/>
<text text-anchor="middle" x="193.21" y="-194.6" font-family="Lato" font-size="13.00">1</text>
</g>
<!-- 3 -->
<g id="node3" class="node">
<title>3</title>
<ellipse fill="white" stroke="black" cx="193.21" cy="-86" rx="18" ry="18"/>
<text text-anchor="middle" x="193.21" y="-82.6" font-family="Lato" font-size="13.00">3</text>
</g>
<!-- 4 -->
<g id="node4" class="node">
<title>4</title>
<ellipse fill="white" stroke="black" cx="193.21" cy="-252" rx="18" ry="18"/>
<text text-anchor="middle" x="193.21" y="-248.6" font-family="Lato" font-size="13.00">4</text>
</g>
<!-- 9 -->
<g id="node5" class="node">
<title>9</title>
<ellipse fill="white" stroke="black" cx="193.21" cy="-32" rx="18" ry="18"/>
<text text-anchor="middle" x="193.21" y="-28.6" font-family="Lato" font-size="13.00">9</text>
</g>
<!-- x -->
<g id="node6" class="node">
<title>x</title>
<polygon fill="transparent" stroke="transparent" points="100.5,-268 93.5,-268 93.5,-232 100.5,-232 100.5,-268"/>
<text text-anchor="middle" x="97" y="-246.6" font-family="monospace" font-size="13.00">x</text>
</g>
<!-- x&#45;&gt;4 -->
<g id="edge1" class="edge">
<title>x&#45;&gt;4</title>
<path fill="none" stroke="black" d="M115.28,-250.37C129.09,-250.66 148.72,-251.08 164.69,-251.42"/>
<polygon fill="black" stroke="black" points="164.97,-254.92 175.04,-251.64 165.12,-247.92 164.97,-254.92"/>
</g>
<!-- z -->
<g id="node7" class="node">
<title>z</title>
<polygon fill="transparent" stroke="transparent" points="100.5,-214 93.5,-214 93.5,-178 100.5,-178 100.5,-214"/>
<text text-anchor="middle" x="97" y="-192.6" font-family="monospace" font-size="13.00">z</text>
</g>
<!-- z&#45;&gt;1 -->
<g id="edge3" class="edge">
<title>z&#45;&gt;1</title>
<path fill="none" stroke="black" d="M115.28,-196.37C129.09,-196.66 148.72,-197.08 164.69,-197.42"/>
<polygon fill="black" stroke="black" points="164.97,-200.92 175.04,-197.64 165.12,-193.92 164.97,-200.92"/>
</g>
<!-- suma -->
<g id="node8" class="node">
<title>suma</title>
<polygon fill="transparent" stroke="transparent" points="124,-160 70,-160 70,-124 124,-124 124,-160"/>
<text text-anchor="middle" x="97" y="-138.6" font-family="monospace" font-size="13.00">suma</text>
</g>
<!-- suma&#45;&gt;21 -->
<g id="edge4" class="edge">
<title>suma&#45;&gt;21</title>
<path fill="none" stroke="black" d="M115.28,-142C128.49,-142 147.01,-142 162.57,-142"/>
<polygon fill="black" stroke="black" points="162.77,-145.5 172.77,-142 162.77,-138.5 162.77,-145.5"/>
</g>
<!-- y -->
<g id="node9" class="node">
<title>y</title>
<polygon fill="transparent" stroke="transparent" points="100.5,-106 93.5,-106 93.5,-70 100.5,-70 100.5,-106"/>
<text text-anchor="middle" x="97" y="-84.6" font-family="monospace" font-size="13.00">y</text>
</g>
<!-- y&#45;&gt;3 -->
<g id="edge2" class="edge">
<title>y&#45;&gt;3</title>
<path fill="none" stroke="black" d="M115.28,-87.63C129.09,-87.34 148.72,-86.92 164.69,-86.58"/>
<polygon fill="black" stroke="black" points="165.12,-90.08 175.04,-86.36 164.97,-83.08 165.12,-90.08"/>
</g>
<!-- w -->
<g id="node10" class="node">
<title>w</title>
<polygon fill="transparent" stroke="transparent" points="100.5,-52 93.5,-52 93.5,-16 100.5,-16 100.5,-52"/>
<text text-anchor="middle" x="97" y="-30.6" font-family="monospace" font-size="13.00">w</text>
</g>
<!-- w&#45;&gt;9 -->
<g id="edge5" class="edge">
<title>w&#45;&gt;9</title>
<path fill="none" stroke="black" d="M115.28,-33.63C129.09,-33.34 148.72,-32.92 164.69,-32.58"/>
<polygon fill="black" stroke="black" points="165.12,-36.08 175.04,-32.36 164.97,-29.08 165.12,-36.08"/>
</g>
<!-- E -->
<g id="node11" class="node">
<title>E</title>
<polygon fill="transparent" stroke="transparent" points="22,-268 0,-268 0,-232 22,-232 22,-268"/>
<text text-anchor="middle" x="11" y="-246.6" font-family="Lato" font-size="13.00">E</text>
</g>
<!-- E&#45;&gt;x -->
<g id="edge6" class="edge">
<title>E&#45;&gt;x</title>
<path fill="none" stroke="black" d="M22.3,-250C27.11,-250 33.25,-250 39.93,-250"/>
<polygon fill="black" stroke="black" points="40,-253.5 50,-250 40,-246.5 40,-253.5"/>
</g>
</g>
</svg>
