<?xml version="1.0" encoding="UTF-8" standalone="no"?>
<!DOCTYPE svg PUBLIC "-//W3C//DTD SVG 1.1//EN"
 "http://www.w3.org/Graphics/SVG/1.1/DTD/svg11.dtd">
<!-- Generated by graphviz version 2.43.0 (0)
 -->
<!-- Title: %3 Pages: 1 -->
<svg width="482pt" height="160pt"
 viewBox="0.00 0.00 482.28 160.00" xmlns="http://www.w3.org/2000/svg" xmlns:xlink="http://www.w3.org/1999/xlink">
<g id="graph0" class="graph" transform="scale(1 1) rotate(0) translate(4 156)">
<title>%3</title>
<g id="clust1" class="cluster">
<title>cluster0</title>
<polygon fill="white" stroke="black" points="254,-8 254,-137 349,-137 349,-8 254,-8"/>
<text text-anchor="middle" x="301.5" y="-121.8" font-family="Lato" font-size="14.00">Marco global</text>
</g>
<g id="clust2" class="cluster">
<title>cluster1</title>
<polygon fill="white" stroke="black" points="50,-12 50,-141 162,-141 162,-12 50,-12"/>
<text text-anchor="start" x="58" y="-126.8" font-family="Lato" font-size="14.00">Marco de </text>
<text text-anchor="start" x="120" y="-126.8" font-family="monospace" font-size="14.00">suma</text>
</g>
<!-- Manolo -->
<g id="node1" class="node">
<title>Manolo</title>
<ellipse fill="white" stroke="black" cx="425.64" cy="-88" rx="48.78" ry="18"/>
<text text-anchor="middle" x="425.64" y="-84.6" font-family="monospace" font-size="13.00">&#39;Manolo&#39;</text>
</g>
<!-- 3 -->
<g id="node2" class="node">
<title>3</title>
<ellipse fill="white" stroke="black" cx="208" cy="-134" rx="18" ry="18"/>
<text text-anchor="middle" x="208" y="-130.6" font-family="monospace" font-size="13.00">3</text>
</g>
<!-- 5 -->
<g id="node3" class="node">
<title>5</title>
<ellipse fill="white" stroke="black" cx="208" cy="-38" rx="18" ry="18"/>
<text text-anchor="middle" x="208" y="-34.6" font-family="monospace" font-size="13.00">5</text>
</g>
<!-- nombre -->
<g id="node4" class="node">
<title>nombre</title>
<polygon fill="transparent" stroke="transparent" points="332,-106 270,-106 270,-70 332,-70 332,-106"/>
<text text-anchor="middle" x="301" y="-84.6" font-family="monospace" font-size="13.00">nombre</text>
</g>
<!-- nombre&#45;&gt;Manolo -->
<g id="edge2" class="edge">
<title>nombre&#45;&gt;Manolo</title>
<path fill="none" stroke="black" d="M332,-88C342.53,-88 354.74,-88 366.77,-88"/>
<polygon fill="black" stroke="black" points="366.79,-91.5 376.79,-88 366.79,-84.5 366.79,-91.5"/>
</g>
<!-- suma -->
<g id="node5" class="node">
<title>suma</title>
<polygon fill="transparent" stroke="transparent" points="328,-52 274,-52 274,-16 328,-16 328,-52"/>
<text text-anchor="middle" x="301" y="-30.6" font-family="monospace" font-size="13.00">suma</text>
</g>
<!-- lambda -->
<g id="node6" class="node">
<title>lambda</title>
<ellipse fill="white" stroke="black" cx="425.64" cy="-34" rx="18" ry="18"/>
<text text-anchor="middle" x="425.64" y="-30.6" font-family="monospace" font-size="13.00">λ</text>
</g>
<!-- suma&#45;&gt;lambda -->
<g id="edge1" class="edge">
<title>suma&#45;&gt;lambda</title>
<path fill="none" stroke="black" d="M328.01,-34C348.37,-34 376.6,-34 397.29,-34"/>
<polygon fill="black" stroke="black" points="397.34,-37.5 407.34,-34 397.34,-30.5 397.34,-37.5"/>
</g>
<!-- xl -->
<g id="node7" class="node">
<title>xl</title>
<polygon fill="transparent" stroke="transparent" points="118,-110 94,-110 94,-74 118,-74 118,-110"/>
<text text-anchor="middle" x="106" y="-88.6" font-family="monospace" font-size="13.00">x</text>
</g>
<!-- xl&#45;&gt;3 -->
<g id="edge3" class="edge">
<title>xl&#45;&gt;3</title>
<path fill="none" stroke="black" d="M118.08,-96.66C133.29,-103.04 161.07,-114.71 181.55,-123.31"/>
<polygon fill="black" stroke="black" points="180.35,-126.6 190.92,-127.25 183.06,-120.15 180.35,-126.6"/>
</g>
<!-- xl&#45;&gt;nombre -->
<g id="edge5" class="edge">
<title>xl&#45;&gt;nombre</title>
<path fill="none" stroke="black" d="M162,-90.86C187.67,-90.33 218.19,-89.7 243.99,-89.16"/>
<polygon fill="black" stroke="black" points="244.07,-92.66 254,-88.95 243.93,-85.66 244.07,-92.66"/>
</g>
<!-- yl -->
<g id="node8" class="node">
<title>yl</title>
<polygon fill="transparent" stroke="transparent" points="118,-56 94,-56 94,-20 118,-20 118,-56"/>
<text text-anchor="middle" x="106" y="-34.6" font-family="monospace" font-size="13.00">y</text>
</g>
<!-- yl&#45;&gt;5 -->
<g id="edge4" class="edge">
<title>yl&#45;&gt;5</title>
<path fill="none" stroke="black" d="M118.08,-38C132.83,-38 159.38,-38 179.64,-38"/>
<polygon fill="black" stroke="black" points="179.85,-41.5 189.85,-38 179.85,-34.5 179.85,-41.5"/>
</g>
<!-- E -->
<g id="node9" class="node">
<title>E</title>
<polygon fill="transparent" stroke="transparent" points="22,-110 0,-110 0,-74 22,-74 22,-110"/>
<text text-anchor="middle" x="11" y="-88.6" font-family="monospace" font-size="13.00">E</text>
</g>
<!-- E&#45;&gt;xl -->
<g id="edge6" class="edge">
<title>E&#45;&gt;xl</title>
<path fill="none" stroke="black" d="M22.31,-92C27.06,-92 33.14,-92 39.83,-92"/>
<polygon fill="black" stroke="black" points="40,-95.5 50,-92 40,-88.5 40,-95.5"/>
</g>
</g>
</svg>
