<?xml version="1.0" encoding="UTF-8" standalone="no"?>
<!DOCTYPE svg PUBLIC "-//W3C//DTD SVG 1.1//EN"
 "http://www.w3.org/Graphics/SVG/1.1/DTD/svg11.dtd">
<!-- Generated by graphviz version 2.43.0 (0)
 -->
<!-- Title: %3 Pages: 1 -->
<svg width="425pt" height="160pt"
 viewBox="0.00 0.00 425.43 160.00" xmlns="http://www.w3.org/2000/svg" xmlns:xlink="http://www.w3.org/1999/xlink">
<g id="graph0" class="graph" transform="scale(1 1) rotate(0) translate(4 156)">
<title>%3</title>
<g id="clust1" class="cluster">
<title>cluster0</title>
<polygon fill="white" stroke="black" points="258.43,-8 258.43,-137 353.43,-137 353.43,-8 258.43,-8"/>
<text text-anchor="middle" x="305.93" y="-121.8" font-family="Lato" font-size="14.00">Marco global</text>
</g>
<g id="clust2" class="cluster">
<title>cluster1</title>
<polygon fill="white" stroke="black" points="50,-11 50,-140 162,-140 162,-11 50,-11"/>
<text text-anchor="start" x="58" y="-125.8" font-family="Lato" font-size="14.00">Marco de </text>
<text text-anchor="start" x="120" y="-125.8" font-family="monospace" font-size="14.00">suma</text>
</g>
<!-- 1 -->
<g id="node1" class="node">
<title>1</title>
<ellipse fill="white" stroke="black" cx="399.43" cy="-88" rx="18" ry="18"/>
<text text-anchor="middle" x="399.43" y="-84.6" font-family="monospace" font-size="13.00">1</text>
</g>
<!-- 8 -->
<g id="node2" class="node">
<title>8</title>
<ellipse fill="white" stroke="black" cx="210.21" cy="-134" rx="18" ry="18"/>
<text text-anchor="middle" x="210.21" y="-130.6" font-family="monospace" font-size="13.00">8</text>
</g>
<!-- 12 -->
<g id="node3" class="node">
<title>12</title>
<ellipse fill="white" stroke="black" cx="210.21" cy="-37" rx="20.43" ry="20.43"/>
<text text-anchor="middle" x="210.21" y="-33.6" font-family="monospace" font-size="13.00">12</text>
</g>
<!-- z -->
<g id="node4" class="node">
<title>z</title>
<polygon fill="transparent" stroke="transparent" points="317.43,-106 293.43,-106 293.43,-70 317.43,-70 317.43,-106"/>
<text text-anchor="middle" x="305.43" y="-84.6" font-family="monospace" font-size="13.00">z</text>
</g>
<!-- z&#45;&gt;1 -->
<g id="edge2" class="edge">
<title>z&#45;&gt;1</title>
<path fill="none" stroke="black" d="M317.71,-88C330.96,-88 353.41,-88 371.27,-88"/>
<polygon fill="black" stroke="black" points="371.42,-91.5 381.42,-88 371.42,-84.5 371.42,-91.5"/>
</g>
<!-- suma -->
<g id="node5" class="node">
<title>suma</title>
<polygon fill="transparent" stroke="transparent" points="332.43,-52 278.43,-52 278.43,-16 332.43,-16 332.43,-52"/>
<text text-anchor="middle" x="305.43" y="-30.6" font-family="monospace" font-size="13.00">suma</text>
</g>
<!-- lambda -->
<g id="node6" class="node">
<title>lambda</title>
<ellipse fill="white" stroke="black" cx="399.43" cy="-34" rx="18" ry="18"/>
<text text-anchor="middle" x="399.43" y="-30.6" font-family="monospace" font-size="13.00">λ</text>
</g>
<!-- suma&#45;&gt;lambda -->
<g id="edge1" class="edge">
<title>suma&#45;&gt;lambda</title>
<path fill="none" stroke="black" d="M332.54,-34C344.62,-34 358.97,-34 371.18,-34"/>
<polygon fill="black" stroke="black" points="371.26,-37.5 381.26,-34 371.26,-30.5 371.26,-37.5"/>
</g>
<!-- xl -->
<g id="node7" class="node">
<title>xl</title>
<polygon fill="transparent" stroke="transparent" points="118,-109 94,-109 94,-73 118,-73 118,-109"/>
<text text-anchor="middle" x="106" y="-87.6" font-family="monospace" font-size="13.00">x</text>
</g>
<!-- xl&#45;&gt;8 -->
<g id="edge3" class="edge">
<title>xl&#45;&gt;8</title>
<path fill="none" stroke="black" d="M118.33,-95.77C134.03,-102.37 162.85,-114.5 183.84,-123.33"/>
<polygon fill="black" stroke="black" points="182.56,-126.59 193.14,-127.24 185.28,-120.13 182.56,-126.59"/>
</g>
<!-- xl&#45;&gt;z -->
<g id="edge5" class="edge">
<title>xl&#45;&gt;z</title>
<path fill="none" stroke="black" d="M162,-90.16C188.94,-89.75 221.33,-89.26 248.41,-88.85"/>
<polygon fill="black" stroke="black" points="248.48,-92.35 258.43,-88.7 248.38,-85.35 248.48,-92.35"/>
</g>
<!-- yl -->
<g id="node8" class="node">
<title>yl</title>
<polygon fill="transparent" stroke="transparent" points="118,-55 94,-55 94,-19 118,-19 118,-55"/>
<text text-anchor="middle" x="106" y="-33.6" font-family="monospace" font-size="13.00">y</text>
</g>
<!-- yl&#45;&gt;12 -->
<g id="edge4" class="edge">
<title>yl&#45;&gt;12</title>
<path fill="none" stroke="black" d="M118.33,-37C133.02,-37 159.2,-37 179.7,-37"/>
<polygon fill="black" stroke="black" points="179.81,-40.5 189.81,-37 179.81,-33.5 179.81,-40.5"/>
</g>
<!-- E -->
<g id="node9" class="node">
<title>E</title>
<polygon fill="transparent" stroke="transparent" points="22,-109 0,-109 0,-73 22,-73 22,-109"/>
<text text-anchor="middle" x="11" y="-87.6" font-family="monospace" font-size="13.00">E</text>
</g>
<!-- E&#45;&gt;xl -->
<g id="edge6" class="edge">
<title>E&#45;&gt;xl</title>
<path fill="none" stroke="black" d="M22.31,-91C27.06,-91 33.14,-91 39.83,-91"/>
<polygon fill="black" stroke="black" points="40,-94.5 50,-91 40,-87.5 40,-94.5"/>
</g>
</g>
</svg>
