<?xml version="1.0" encoding="UTF-8" standalone="no"?>
<!DOCTYPE svg PUBLIC "-//W3C//DTD SVG 1.1//EN"
 "http://www.w3.org/Graphics/SVG/1.1/DTD/svg11.dtd">
<!-- Generated by graphviz version 2.43.0 (0)
 -->
<!-- Title: %3 Pages: 1 -->
<svg width="430pt" height="128pt"
 viewBox="0.00 0.00 430.00 128.00" xmlns="http://www.w3.org/2000/svg" xmlns:xlink="http://www.w3.org/1999/xlink">
<g id="graph0" class="graph" transform="scale(1 1) rotate(0) translate(4 124)">
<title>%3</title>
<g id="clust1" class="cluster">
<title>cluster0</title>
<polygon fill="white" stroke="black" points="263,-8 263,-112 358,-112 358,-8 263,-8"/>
<text text-anchor="middle" x="310.5" y="-96.8" font-family="Lato" font-size="14.00">Marco global</text>
</g>
<g id="clust2" class="cluster">
<title>cluster1</title>
<polygon fill="white" stroke="black" points="50,-28 50,-91 171,-91 171,-28 50,-28"/>
<text text-anchor="middle" x="110.5" y="-75.8" font-family="Lato" font-size="14.00">Marco de lambda</text>
</g>
<!-- total -->
<g id="node1" class="node">
<title>total</title>
<polygon fill="white" stroke="black" points="271,-58 271,-80 349,-80 349,-58 271,-58"/>
<text text-anchor="middle" x="298" y="-65.6" font-family="monospace" font-size="13.00">total</text>
<polyline fill="none" stroke="black" points="325,-58 325,-80 "/>
<text text-anchor="middle" x="337" y="-65.6" font-family="monospace" font-size="13.00">⬤</text>
</g>
<!-- lambda -->
<g id="node6" class="node">
<title>lambda</title>
<ellipse fill="white" stroke="black" cx="404" cy="-76" rx="18" ry="18"/>
<text text-anchor="middle" x="404" y="-72.6" font-family="monospace" font-size="13.00">λ</text>
</g>
<!-- total&#45;&gt;lambda -->
<g id="edge1" class="edge">
<title>total:f1&#45;&gt;lambda</title>
<path fill="none" stroke="black" d="M350,-69C358.48,-69 367.67,-69.89 375.97,-71.04"/>
<polygon fill="black" stroke="black" points="375.47,-74.5 385.89,-72.58 376.55,-67.59 375.47,-74.5"/>
</g>
<!-- 4 -->
<g id="node2" class="node">
<title>4</title>
<ellipse fill="white" stroke="black" cx="404" cy="-22" rx="18" ry="18"/>
<text text-anchor="middle" x="404" y="-18.6" font-family="monospace" font-size="13.00">4</text>
</g>
<!-- 3 -->
<g id="node3" class="node">
<title>3</title>
<ellipse fill="white" stroke="black" cx="217" cy="-74" rx="18" ry="18"/>
<text text-anchor="middle" x="217" y="-70.6" font-family="monospace" font-size="13.00">3</text>
</g>
<!-- x -->
<g id="node4" class="node">
<title>x</title>
<polygon fill="white" stroke="black" points="292,-17 292,-39 328,-39 328,-17 292,-17"/>
<text text-anchor="middle" x="301" y="-24.6" font-family="monospace" font-size="13.00">x</text>
<polyline fill="none" stroke="black" points="310,-17 310,-39 "/>
<text text-anchor="middle" x="319" y="-24.6" font-family="monospace" font-size="13.00">⬤</text>
</g>
<!-- x&#45;&gt;4 -->
<g id="edge2" class="edge">
<title>x:f1&#45;&gt;4</title>
<path fill="none" stroke="black" d="M329,-28C344.61,-28 362.02,-26.66 376.02,-25.24"/>
<polygon fill="black" stroke="black" points="376.42,-28.72 385.98,-24.17 375.67,-21.76 376.42,-28.72"/>
</g>
<!-- xl -->
<g id="node5" class="node">
<title>xl</title>
<polygon fill="white" stroke="black" points="92,-37 92,-59 128,-59 128,-37 92,-37"/>
<text text-anchor="middle" x="101" y="-44.6" font-family="monospace" font-size="13.00">x</text>
<polyline fill="none" stroke="black" points="110,-37 110,-59 "/>
<text text-anchor="middle" x="119" y="-44.6" font-family="monospace" font-size="13.00">⬤</text>
</g>
<!-- xl&#45;&gt;3 -->
<g id="edge3" class="edge">
<title>xl:f1&#45;&gt;3</title>
<path fill="none" stroke="black" d="M129,-48C150.61,-48 174.03,-55.46 191.12,-62.38"/>
<polygon fill="black" stroke="black" points="189.81,-65.63 200.38,-66.34 192.56,-59.19 189.81,-65.63"/>
</g>
<!-- xl&#45;&gt;x -->
<g id="edge4" class="edge">
<title>xl:f1&#45;&gt;x</title>
<path fill="none" stroke="black" d="M171,-46.47C200.09,-44.51 229.04,-40.95 252.86,-37.47"/>
<polygon fill="black" stroke="black" points="253.63,-40.89 263,-35.95 252.59,-33.97 253.63,-40.89"/>
</g>
<!-- E -->
<g id="node7" class="node">
<title>E</title>
<polygon fill="transparent" stroke="transparent" points="22,-66 0,-66 0,-30 22,-30 22,-66"/>
<text text-anchor="middle" x="11" y="-44.6" font-family="monospace" font-size="13.00">E</text>
</g>
<!-- E&#45;&gt;xl -->
<g id="edge5" class="edge">
<title>E&#45;&gt;xl</title>
<path fill="none" stroke="black" d="M22.02,-48C26.76,-48 32.87,-48 39.66,-48"/>
<polygon fill="black" stroke="black" points="40,-51.5 50,-48 40,-44.5 40,-51.5"/>
</g>
</g>
</svg>
