<?xml version="1.0" encoding="UTF-8" standalone="no"?>
<!DOCTYPE svg PUBLIC "-//W3C//DTD SVG 1.1//EN"
 "http://www.w3.org/Graphics/SVG/1.1/DTD/svg11.dtd">
<!-- Generated by graphviz version 2.40.1 (20161225.0304)
 -->
<!-- Title: %3 Pages: 1 -->
<svg width="576pt" height="328pt"
 viewBox="0.00 0.00 576.00 328.19" xmlns="http://www.w3.org/2000/svg" xmlns:xlink="http://www.w3.org/1999/xlink">
<g id="graph0" class="graph" transform="scale(3.3488 3.3488) rotate(0) translate(4 94)">
<title>%3</title>
<!-- 1 -->
<g id="node1" class="node">
<title>1</title>
<ellipse fill="#ffffff" stroke="#000000" cx="146" cy="-18" rx="18" ry="18"/>
<text text-anchor="middle" x="146" y="-14.6" font-family="monospace" font-size="13.00" fill="#000000">1</text>
</g>
<!-- 4 -->
<g id="node2" class="node">
<title>4</title>
<ellipse fill="#ffffff" stroke="#000000" cx="146" cy="-72" rx="18" ry="18"/>
<text text-anchor="middle" x="146" y="-68.6" font-family="monospace" font-size="13.00" fill="#000000">4</text>
</g>
<!-- x -->
<g id="node3" class="node">
<title>x</title>
<polygon fill="transparent" stroke="transparent" points="92,-90 0,-90 0,-54 92,-54 92,-90"/>
<text text-anchor="middle" x="46" y="-68.6" font-family="monospace" font-size="13.00" fill="#000000">x (global)</text>
</g>
<!-- x&#45;&gt;4 -->
<g id="edge1" class="edge">
<title>x&#45;&gt;4</title>
<path fill="none" stroke="#000000" d="M92.1947,-72C100.9201,-72 109.8009,-72 117.7661,-72"/>
<polygon fill="#000000" stroke="#000000" points="117.9596,-75.5001 127.9595,-72 117.9595,-68.5001 117.9596,-75.5001"/>
</g>
<!-- z -->
<g id="node4" class="node">
<title>z</title>
<polygon fill="transparent" stroke="transparent" points="92,-36 0,-36 0,0 92,0 92,-36"/>
<text text-anchor="middle" x="46" y="-14.6" font-family="monospace" font-size="13.00" fill="#000000">z (global)</text>
</g>
<!-- z&#45;&gt;1 -->
<g id="edge2" class="edge">
<title>z&#45;&gt;1</title>
<path fill="none" stroke="#000000" d="M92.1947,-18C100.9201,-18 109.8009,-18 117.7661,-18"/>
<polygon fill="#000000" stroke="#000000" points="117.9596,-21.5001 127.9595,-18 117.9595,-14.5001 117.9596,-21.5001"/>
</g>
</g>
</svg>
