<?xml version="1.0" encoding="UTF-8" standalone="no"?>
<!DOCTYPE svg PUBLIC "-//W3C//DTD SVG 1.1//EN"
 "http://www.w3.org/Graphics/SVG/1.1/DTD/svg11.dtd">
<!-- Generated by graphviz version 2.40.1 (20161225.0304)
 -->
<!-- Title: %3 Pages: 1 -->
<svg width="576pt" height="285pt"
 viewBox="0.00 0.00 576.00 284.54" xmlns="http://www.w3.org/2000/svg" xmlns:xlink="http://www.w3.org/1999/xlink">
<g id="graph0" class="graph" transform="scale(1.3746 1.3746) rotate(0) translate(4 203)">
<title>%3</title>
<g id="clust1" class="cluster">
<title>cluster0</title>
<polygon fill="#ffffff" stroke="#000000" points="235.0273,-8 235.0273,-191 403.0273,-191 403.0273,-8 235.0273,-8"/>
<text text-anchor="middle" x="319.0273" y="-175.8" font-family="Lato" font-size="14.00" fill="#000000">Marco global</text>
</g>
<g id="clust2" class="cluster">
<title>cluster1</title>
<polygon fill="#ffffff" stroke="#000000" points="31.6,-58 31.6,-191 178.0273,-191 178.0273,-58 31.6,-58"/>
<text text-anchor="middle" x="104.8136" y="-175.8" font-family="Lato" font-size="14.00" fill="#000000">Marco de lambda</text>
</g>
<!-- 1 -->
<g id="node1" class="node">
<title>1</title>
<ellipse fill="#ffffff" stroke="#000000" cx="364.0273" cy="-88" rx="18" ry="18"/>
<text text-anchor="middle" x="364.0273" y="-84.6" font-family="monospace" font-size="13.00" fill="#000000">1</text>
</g>
<!-- 4 -->
<g id="node2" class="node">
<title>4</title>
<ellipse fill="#ffffff" stroke="#000000" cx="364.0273" cy="-142" rx="18" ry="18"/>
<text text-anchor="middle" x="364.0273" y="-138.6" font-family="monospace" font-size="13.00" fill="#000000">4</text>
</g>
<!-- 8 -->
<g id="node3" class="node">
<title>8</title>
<ellipse fill="#ffffff" stroke="#000000" cx="149.8136" cy="-142" rx="18" ry="18"/>
<text text-anchor="middle" x="149.8136" y="-138.6" font-family="monospace" font-size="13.00" fill="#000000">8</text>
</g>
<!-- x -->
<g id="node5" class="node">
<title>x</title>
<polygon fill="transparent" stroke="transparent" points="297.0273,-160 243.0273,-160 243.0273,-124 297.0273,-124 297.0273,-160"/>
<text text-anchor="middle" x="270.0273" y="-138.6" font-family="monospace" font-size="13.00" fill="#000000">x</text>
</g>
<!-- 8&#45;&gt;x -->
<g id="edge6" class="edge">
<title>8&#45;&gt;x</title>
<path fill="none" stroke="#000000" d="M178.0252,-142C196.1422,-142 232.6526,-142 232.6526,-142"/>
<polygon fill="#000000" stroke="#000000" points="225.0274,-145.5004 235.0273,-142 225.0271,-138.5004 225.0274,-145.5004"/>
</g>
<!-- 12 -->
<g id="node4" class="node">
<title>12</title>
<ellipse fill="#ffffff" stroke="#000000" cx="149.8136" cy="-86" rx="20.4296" ry="20.4296"/>
<text text-anchor="middle" x="149.8136" y="-82.6" font-family="monospace" font-size="13.00" fill="#000000">12</text>
</g>
<!-- x&#45;&gt;4 -->
<g id="edge2" class="edge">
<title>x&#45;&gt;4</title>
<path fill="none" stroke="#000000" d="M297.216,-142C297.216,-142 335.8196,-142 335.8196,-142"/>
<polygon fill="#000000" stroke="#000000" points="335.8196,-145.5001 345.8196,-142 335.8195,-138.5001 335.8196,-145.5001"/>
</g>
<!-- xl -->
<g id="node6" class="node">
<title>xl</title>
<polygon fill="transparent" stroke="transparent" points="93.6,-160 39.6,-160 39.6,-124 93.6,-124 93.6,-160"/>
<text text-anchor="middle" x="66.6" y="-138.6" font-family="monospace" font-size="13.00" fill="#000000">x</text>
</g>
<!-- xl&#45;&gt;8 -->
<g id="edge4" class="edge">
<title>xl&#45;&gt;8</title>
<path fill="none" stroke="#000000" d="M93.8473,-142C93.8473,-142 121.6966,-142 121.6966,-142"/>
<polygon fill="#000000" stroke="#000000" points="121.6966,-145.5001 131.6966,-142 121.6966,-138.5001 121.6966,-145.5001"/>
</g>
<!-- yl -->
<g id="node7" class="node">
<title>yl</title>
<polygon fill="transparent" stroke="transparent" points="93.6,-104 39.6,-104 39.6,-68 93.6,-68 93.6,-104"/>
<text text-anchor="middle" x="66.6" y="-82.6" font-family="monospace" font-size="13.00" fill="#000000">y</text>
</g>
<!-- yl&#45;&gt;12 -->
<g id="edge5" class="edge">
<title>yl&#45;&gt;12</title>
<path fill="none" stroke="#000000" d="M93.8473,-86C93.8473,-86 119.3707,-86 119.3707,-86"/>
<polygon fill="#000000" stroke="#000000" points="119.3707,-89.5001 129.3707,-86 119.3707,-82.5001 119.3707,-89.5001"/>
</g>
<!-- z -->
<g id="node8" class="node">
<title>z</title>
<polygon fill="transparent" stroke="transparent" points="297.0273,-106 243.0273,-106 243.0273,-70 297.0273,-70 297.0273,-106"/>
<text text-anchor="middle" x="270.0273" y="-84.6" font-family="monospace" font-size="13.00" fill="#000000">z</text>
</g>
<!-- z&#45;&gt;1 -->
<g id="edge3" class="edge">
<title>z&#45;&gt;1</title>
<path fill="none" stroke="#000000" d="M297.216,-88C297.216,-88 335.8196,-88 335.8196,-88"/>
<polygon fill="#000000" stroke="#000000" points="335.8196,-91.5001 345.8196,-88 335.8195,-84.5001 335.8196,-91.5001"/>
</g>
<!-- suma -->
<g id="node9" class="node">
<title>suma</title>
<polygon fill="transparent" stroke="transparent" points="297.0273,-52 243.0273,-52 243.0273,-16 297.0273,-16 297.0273,-52"/>
<text text-anchor="middle" x="270.0273" y="-30.6" font-family="monospace" font-size="13.00" fill="#000000">suma</text>
</g>
<!-- lambda -->
<g id="node10" class="node">
<title>lambda</title>
<polygon fill="#ffffff" stroke="#000000" points="395.0273,-52 333.0273,-52 333.0273,-16 395.0273,-16 395.0273,-52"/>
<text text-anchor="middle" x="364.0273" y="-30.6" font-family="monospace" font-size="13.00" fill="#000000">lambda</text>
</g>
<!-- suma&#45;&gt;lambda -->
<g id="edge1" class="edge">
<title>suma&#45;&gt;lambda</title>
<path fill="none" stroke="#000000" d="M297.216,-34C297.216,-34 322.9286,-34 322.9286,-34"/>
<polygon fill="#000000" stroke="#000000" points="322.9286,-37.5001 332.9286,-34 322.9285,-30.5001 322.9286,-37.5001"/>
</g>
<!-- E -->
<g id="node11" class="node">
<title>E</title>
<ellipse fill="#ffffff" stroke="#000000" cx="1.8" cy="-142" rx="1.8" ry="1.8"/>
</g>
<!-- E&#45;&gt;xl -->
<g id="edge7" class="edge">
<title>E&#45;&gt;xl</title>
<path fill="none" stroke="#000000" d="M3.6695,-142C3.6695,-142 29.4563,-142 29.4563,-142"/>
<polygon fill="#000000" stroke="#000000" points="21.6002,-145.5005 31.6,-142 21.5998,-138.5005 21.6002,-145.5005"/>
</g>
</g>
</svg>
