<?xml version="1.0" encoding="UTF-8" standalone="no"?>
<!DOCTYPE svg PUBLIC "-//W3C//DTD SVG 1.1//EN"
 "http://www.w3.org/Graphics/SVG/1.1/DTD/svg11.dtd">
<!-- Generated by graphviz version 2.43.0 (0)
 -->
<!-- Title: %3 Pages: 1 -->
<svg width="217pt" height="207pt"
 viewBox="0.00 0.00 217.00 207.00" xmlns="http://www.w3.org/2000/svg" xmlns:xlink="http://www.w3.org/1999/xlink">
<g id="graph0" class="graph" transform="scale(1 1) rotate(0) translate(4 203)">
<title>%3</title>
<g id="clust1" class="cluster">
<title>cluster0</title>
<polygon fill="white" stroke="black" points="50,-8 50,-191 145,-191 145,-8 50,-8"/>
<text text-anchor="middle" x="97.5" y="-175.8" font-family="Lato" font-size="14.00">Marco global</text>
</g>
<!-- 1 -->
<g id="node1" class="node">
<title>1</title>
<ellipse fill="white" stroke="black" cx="191" cy="-88" rx="18" ry="18"/>
<text text-anchor="middle" x="191" y="-84.6" font-family="Lato" font-size="13.00">1</text>
</g>
<!-- 4 -->
<g id="node2" class="node">
<title>4</title>
<ellipse fill="white" stroke="black" cx="191" cy="-142" rx="18" ry="18"/>
<text text-anchor="middle" x="191" y="-138.6" font-family="Lato" font-size="13.00">4</text>
</g>
<!-- x -->
<g id="node3" class="node">
<title>x</title>
<polygon fill="transparent" stroke="transparent" points="124,-160 70,-160 70,-124 124,-124 124,-160"/>
<text text-anchor="middle" x="97" y="-138.6" font-family="monospace" font-size="13.00">x</text>
</g>
<!-- x&#45;&gt;4 -->
<g id="edge2" class="edge">
<title>x&#45;&gt;4</title>
<path fill="none" stroke="black" d="M124.12,-142C136.2,-142 150.54,-142 162.76,-142"/>
<polygon fill="black" stroke="black" points="162.83,-145.5 172.83,-142 162.83,-138.5 162.83,-145.5"/>
</g>
<!-- z -->
<g id="node4" class="node">
<title>z</title>
<polygon fill="transparent" stroke="transparent" points="124,-106 70,-106 70,-70 124,-70 124,-106"/>
<text text-anchor="middle" x="97" y="-84.6" font-family="monospace" font-size="13.00">z</text>
</g>
<!-- z&#45;&gt;1 -->
<g id="edge3" class="edge">
<title>z&#45;&gt;1</title>
<path fill="none" stroke="black" d="M124.12,-88C136.2,-88 150.54,-88 162.76,-88"/>
<polygon fill="black" stroke="black" points="162.83,-91.5 172.83,-88 162.83,-84.5 162.83,-91.5"/>
</g>
<!-- suma -->
<g id="node5" class="node">
<title>suma</title>
<polygon fill="transparent" stroke="transparent" points="124,-52 70,-52 70,-16 124,-16 124,-52"/>
<text text-anchor="middle" x="97" y="-30.6" font-family="monospace" font-size="13.00">suma</text>
</g>
<!-- lambda -->
<g id="node6" class="node">
<title>lambda</title>
<ellipse fill="white" stroke="black" cx="191" cy="-34" rx="18" ry="18"/>
<text text-anchor="middle" x="191" y="-30.6" font-family="Lato" font-size="13.00">λ</text>
</g>
<!-- suma&#45;&gt;lambda -->
<g id="edge1" class="edge">
<title>suma&#45;&gt;lambda</title>
<path fill="none" stroke="black" d="M124.12,-34C136.2,-34 150.54,-34 162.76,-34"/>
<polygon fill="black" stroke="black" points="162.83,-37.5 172.83,-34 162.83,-30.5 162.83,-37.5"/>
</g>
<!-- E -->
<g id="node7" class="node">
<title>E</title>
<polygon fill="transparent" stroke="transparent" points="22,-160 0,-160 0,-124 22,-124 22,-160"/>
<text text-anchor="middle" x="11" y="-138.6" font-family="Lato" font-size="13.00">E</text>
</g>
<!-- E&#45;&gt;x -->
<g id="edge4" class="edge">
<title>E&#45;&gt;x</title>
<path fill="none" stroke="black" d="M22.3,-142C27.11,-142 33.25,-142 39.93,-142"/>
<polygon fill="black" stroke="black" points="40,-145.5 50,-142 40,-138.5 40,-145.5"/>
</g>
</g>
</svg>
