<?xml version="1.0" encoding="UTF-8" standalone="no"?>
<!DOCTYPE svg PUBLIC "-//W3C//DTD SVG 1.1//EN"
 "http://www.w3.org/Graphics/SVG/1.1/DTD/svg11.dtd">
<!-- Generated by graphviz version 2.43.0 (0)
 -->
<!-- Title: %3 Pages: 1 -->
<svg width="421pt" height="225pt"
 viewBox="0.00 0.00 421.00 225.00" xmlns="http://www.w3.org/2000/svg" xmlns:xlink="http://www.w3.org/1999/xlink">
<g id="graph0" class="graph" transform="scale(1 1) rotate(0) translate(4 221)">
<title>%3</title>
<g id="clust1" class="cluster">
<title>cluster0</title>
<polygon fill="white" stroke="black" points="228,-26 228,-209 323,-209 323,-26 228,-26"/>
<text text-anchor="middle" x="275.5" y="-193.8" font-family="Lato" font-size="14.00">Marco global</text>
</g>
<g id="clust2" class="cluster">
<title>cluster1</title>
<polygon fill="white" stroke="black" points="50,-8 50,-173 171,-173 171,-8 50,-8"/>
<text text-anchor="middle" x="110.5" y="-157.8" font-family="Lato" font-size="14.00">Marco de lambda</text>
</g>
<!-- 1 -->
<g id="node1" class="node">
<title>1</title>
<ellipse fill="white" stroke="black" cx="382" cy="-52" rx="18" ry="18"/>
<text text-anchor="middle" x="382" y="-48.6" font-family="monospace" font-size="13.00">1</text>
</g>
<!-- 4 -->
<g id="node2" class="node">
<title>4</title>
<ellipse fill="white" stroke="black" cx="382" cy="-106" rx="18" ry="18"/>
<text text-anchor="middle" x="382" y="-102.6" font-family="monospace" font-size="13.00">4</text>
</g>
<!-- suma -->
<g id="node3" class="node">
<title>suma</title>
<polygon fill="transparent" stroke="transparent" points="302,-178 248,-178 248,-142 302,-142 302,-178"/>
<text text-anchor="middle" x="275" y="-156.6" font-family="monospace" font-size="13.00">suma</text>
</g>
<!-- lambda -->
<g id="node6" class="node">
<title>lambda</title>
<polygon fill="white" stroke="black" points="413,-178 351,-178 351,-142 413,-142 413,-178"/>
<text text-anchor="middle" x="382" y="-156.6" font-family="monospace" font-size="13.00">lambda</text>
</g>
<!-- suma&#45;&gt;lambda -->
<g id="edge1" class="edge">
<title>suma&#45;&gt;lambda</title>
<path fill="none" stroke="black" d="M302.23,-160C313.82,-160 327.73,-160 340.61,-160"/>
<polygon fill="black" stroke="black" points="340.65,-163.5 350.65,-160 340.65,-156.5 340.65,-163.5"/>
</g>
<!-- x -->
<g id="node4" class="node">
<title>x</title>
<polygon fill="transparent" stroke="transparent" points="302,-124 248,-124 248,-88 302,-88 302,-124"/>
<text text-anchor="middle" x="275" y="-102.6" font-family="monospace" font-size="13.00">x</text>
</g>
<!-- x&#45;&gt;4 -->
<g id="edge2" class="edge">
<title>x&#45;&gt;4</title>
<path fill="none" stroke="black" d="M302.23,-106C317.92,-106 337.83,-106 353.71,-106"/>
<polygon fill="black" stroke="black" points="353.96,-109.5 363.96,-106 353.96,-102.5 353.96,-109.5"/>
</g>
<!-- z -->
<g id="node5" class="node">
<title>z</title>
<polygon fill="transparent" stroke="transparent" points="302,-70 248,-70 248,-34 302,-34 302,-70"/>
<text text-anchor="middle" x="275" y="-48.6" font-family="monospace" font-size="13.00">z</text>
</g>
<!-- z&#45;&gt;1 -->
<g id="edge3" class="edge">
<title>z&#45;&gt;1</title>
<path fill="none" stroke="black" d="M302.23,-52C317.92,-52 337.83,-52 353.71,-52"/>
<polygon fill="black" stroke="black" points="353.96,-55.5 363.96,-52 353.96,-48.5 353.96,-55.5"/>
</g>
<!-- xl -->
<g id="node7" class="node">
<title>xl</title>
<polygon fill="transparent" stroke="transparent" points="137,-124 83,-124 83,-88 137,-88 137,-124"/>
<text text-anchor="middle" x="110" y="-102.6" font-family="monospace" font-size="13.00">x</text>
</g>
<!-- xl&#45;&gt;x -->
<g id="edge6" class="edge">
<title>xl&#45;&gt;x</title>
<path fill="none" stroke="black" d="M171,-106C186.29,-106 202.66,-106 217.76,-106"/>
<polygon fill="black" stroke="black" points="218,-109.5 228,-106 218,-102.5 218,-109.5"/>
</g>
<!-- xl&#45;&gt;xl -->
<g id="edge4" class="edge">
<title>xl&#45;&gt;xl</title>
<path fill="none" stroke="black" d="M94.08,-124.15C91.63,-133.54 96.94,-142 110,-142 117.96,-142 123.04,-138.86 125.24,-134.28"/>
<polygon fill="black" stroke="black" points="128.74,-134.36 125.92,-124.15 121.76,-133.9 128.74,-134.36"/>
</g>
<!-- yl -->
<g id="node8" class="node">
<title>yl</title>
<polygon fill="transparent" stroke="transparent" points="137,-52 83,-52 83,-16 137,-16 137,-52"/>
<text text-anchor="middle" x="110" y="-30.6" font-family="monospace" font-size="13.00">y</text>
</g>
<!-- yl&#45;&gt;yl -->
<g id="edge5" class="edge">
<title>yl&#45;&gt;yl</title>
<path fill="none" stroke="black" d="M94.08,-52.15C91.63,-61.54 96.94,-70 110,-70 117.96,-70 123.04,-66.86 125.24,-62.28"/>
<polygon fill="black" stroke="black" points="128.74,-62.36 125.92,-52.15 121.76,-61.9 128.74,-62.36"/>
</g>
<!-- E -->
<g id="node9" class="node">
<title>E</title>
<polygon fill="transparent" stroke="transparent" points="22,-124 0,-124 0,-88 22,-88 22,-124"/>
<text text-anchor="middle" x="11" y="-102.6" font-family="monospace" font-size="13.00">E</text>
</g>
<!-- E&#45;&gt;xl -->
<g id="edge7" class="edge">
<title>E&#45;&gt;xl</title>
<path fill="none" stroke="black" d="M22.02,-106C26.76,-106 32.87,-106 39.66,-106"/>
<polygon fill="black" stroke="black" points="40,-109.5 50,-106 40,-102.5 40,-109.5"/>
</g>
</g>
</svg>
