<?xml version="1.0" encoding="UTF-8" standalone="no"?>
<!DOCTYPE svg PUBLIC "-//W3C//DTD SVG 1.1//EN"
 "http://www.w3.org/Graphics/SVG/1.1/DTD/svg11.dtd">
<!-- Generated by graphviz version 2.43.0 (0)
 -->
<!-- Title: %3 Pages: 1 -->
<svg width="460pt" height="207pt"
 viewBox="0.00 0.00 460.43 207.00" xmlns="http://www.w3.org/2000/svg" xmlns:xlink="http://www.w3.org/1999/xlink">
<g id="graph0" class="graph" transform="scale(1 1) rotate(0) translate(4 203)">
<title>%3</title>
<g id="clust1" class="cluster">
<title>cluster0</title>
<polygon fill="white" stroke="black" points="267.43,-8 267.43,-191 362.43,-191 362.43,-8 267.43,-8"/>
<text text-anchor="middle" x="314.93" y="-175.8" font-family="Lato" font-size="14.00">Marco global</text>
</g>
<g id="clust2" class="cluster">
<title>cluster1</title>
<polygon fill="white" stroke="black" points="50,-11 50,-140 171,-140 171,-11 50,-11"/>
<text text-anchor="middle" x="110.5" y="-124.8" font-family="Lato" font-size="14.00">Marco de lambda</text>
</g>
<!-- 1 -->
<g id="node1" class="node">
<title>1</title>
<ellipse fill="white" stroke="black" cx="421.43" cy="-34" rx="18" ry="18"/>
<text text-anchor="middle" x="421.43" y="-30.6" font-family="monospace" font-size="13.00">1</text>
</g>
<!-- 4 -->
<g id="node2" class="node">
<title>4</title>
<ellipse fill="white" stroke="black" cx="421.43" cy="-88" rx="18" ry="18"/>
<text text-anchor="middle" x="421.43" y="-84.6" font-family="monospace" font-size="13.00">4</text>
</g>
<!-- 8 -->
<g id="node3" class="node">
<title>8</title>
<ellipse fill="white" stroke="black" cx="219.21" cy="-134" rx="18" ry="18"/>
<text text-anchor="middle" x="219.21" y="-130.6" font-family="monospace" font-size="13.00">8</text>
</g>
<!-- 12 -->
<g id="node4" class="node">
<title>12</title>
<ellipse fill="white" stroke="black" cx="219.21" cy="-37" rx="20.43" ry="20.43"/>
<text text-anchor="middle" x="219.21" y="-33.6" font-family="monospace" font-size="13.00">12</text>
</g>
<!-- suma -->
<g id="node5" class="node">
<title>suma</title>
<polygon fill="transparent" stroke="transparent" points="341.43,-160 287.43,-160 287.43,-124 341.43,-124 341.43,-160"/>
<text text-anchor="middle" x="314.43" y="-138.6" font-family="monospace" font-size="13.00">suma</text>
</g>
<!-- lambda -->
<g id="node8" class="node">
<title>lambda</title>
<polygon fill="white" stroke="black" points="452.43,-160 390.43,-160 390.43,-124 452.43,-124 452.43,-160"/>
<text text-anchor="middle" x="421.43" y="-138.6" font-family="monospace" font-size="13.00">lambda</text>
</g>
<!-- suma&#45;&gt;lambda -->
<g id="edge1" class="edge">
<title>suma&#45;&gt;lambda</title>
<path fill="none" stroke="black" d="M341.65,-142C353.25,-142 367.16,-142 380.03,-142"/>
<polygon fill="black" stroke="black" points="380.08,-145.5 390.08,-142 380.08,-138.5 380.08,-145.5"/>
</g>
<!-- x -->
<g id="node6" class="node">
<title>x</title>
<polygon fill="transparent" stroke="transparent" points="341.43,-106 287.43,-106 287.43,-70 341.43,-70 341.43,-106"/>
<text text-anchor="middle" x="314.43" y="-84.6" font-family="monospace" font-size="13.00">x</text>
</g>
<!-- x&#45;&gt;4 -->
<g id="edge2" class="edge">
<title>x&#45;&gt;4</title>
<path fill="none" stroke="black" d="M341.65,-88C357.35,-88 377.26,-88 393.14,-88"/>
<polygon fill="black" stroke="black" points="393.39,-91.5 403.39,-88 393.39,-84.5 393.39,-91.5"/>
</g>
<!-- z -->
<g id="node7" class="node">
<title>z</title>
<polygon fill="transparent" stroke="transparent" points="341.43,-52 287.43,-52 287.43,-16 341.43,-16 341.43,-52"/>
<text text-anchor="middle" x="314.43" y="-30.6" font-family="monospace" font-size="13.00">z</text>
</g>
<!-- z&#45;&gt;1 -->
<g id="edge3" class="edge">
<title>z&#45;&gt;1</title>
<path fill="none" stroke="black" d="M341.65,-34C357.35,-34 377.26,-34 393.14,-34"/>
<polygon fill="black" stroke="black" points="393.39,-37.5 403.39,-34 393.39,-30.5 393.39,-37.5"/>
</g>
<!-- xl -->
<g id="node9" class="node">
<title>xl</title>
<polygon fill="transparent" stroke="transparent" points="137,-109 83,-109 83,-73 137,-73 137,-109"/>
<text text-anchor="middle" x="110" y="-87.6" font-family="monospace" font-size="13.00">x</text>
</g>
<!-- xl&#45;&gt;8 -->
<g id="edge4" class="edge">
<title>xl&#45;&gt;8</title>
<path fill="none" stroke="black" d="M137.23,-101.52C154.07,-108.27 175.83,-117 192.56,-123.71"/>
<polygon fill="black" stroke="black" points="191.65,-127.12 202.23,-127.59 194.25,-120.62 191.65,-127.12"/>
</g>
<!-- xl&#45;&gt;x -->
<g id="edge6" class="edge">
<title>xl&#45;&gt;x</title>
<path fill="none" stroke="black" d="M171,-90.11C198.28,-89.71 230.38,-89.23 257.19,-88.83"/>
<polygon fill="black" stroke="black" points="257.48,-92.33 267.43,-88.68 257.38,-85.33 257.48,-92.33"/>
</g>
<!-- yl -->
<g id="node10" class="node">
<title>yl</title>
<polygon fill="transparent" stroke="transparent" points="137,-55 83,-55 83,-19 137,-19 137,-55"/>
<text text-anchor="middle" x="110" y="-33.6" font-family="monospace" font-size="13.00">y</text>
</g>
<!-- yl&#45;&gt;12 -->
<g id="edge5" class="edge">
<title>yl&#45;&gt;12</title>
<path fill="none" stroke="black" d="M137.23,-37C152.74,-37 172.44,-37 188.52,-37"/>
<polygon fill="black" stroke="black" points="188.98,-40.5 198.98,-37 188.98,-33.5 188.98,-40.5"/>
</g>
<!-- E -->
<g id="node11" class="node">
<title>E</title>
<polygon fill="transparent" stroke="transparent" points="22,-109 0,-109 0,-73 22,-73 22,-109"/>
<text text-anchor="middle" x="11" y="-87.6" font-family="monospace" font-size="13.00">E</text>
</g>
<!-- E&#45;&gt;xl -->
<g id="edge7" class="edge">
<title>E&#45;&gt;xl</title>
<path fill="none" stroke="black" d="M22.02,-91C26.76,-91 32.87,-91 39.66,-91"/>
<polygon fill="black" stroke="black" points="40,-94.5 50,-91 40,-87.5 40,-94.5"/>
</g>
</g>
</svg>
