<?xml version="1.0" encoding="UTF-8" standalone="no"?>
<!DOCTYPE svg PUBLIC "-//W3C//DTD SVG 1.1//EN"
 "http://www.w3.org/Graphics/SVG/1.1/DTD/svg11.dtd">
<!-- Generated by graphviz version 2.40.1 (20161225.0304)
 -->
<!-- Title: %3 Pages: 1 -->
<svg width="576pt" height="425pt"
 viewBox="0.00 0.00 576.00 425.42" xmlns="http://www.w3.org/2000/svg" xmlns:xlink="http://www.w3.org/1999/xlink">
<g id="graph0" class="graph" transform="scale(1.7223 1.7223) rotate(0) translate(4 243)">
<title>%3</title>
<g id="clust1" class="cluster">
<title>cluster0</title>
<polygon fill="#ffffff" stroke="#000000" points="142,-98 142,-231 318.4273,-231 318.4273,-98 142,-98"/>
<text text-anchor="middle" x="230.2136" y="-215.8" font-family="Lato" font-size="14.00" fill="#000000">lambda</text>
</g>
<!-- 1 -->
<g id="node1" class="node">
<title>1</title>
<ellipse fill="#ffffff" stroke="#000000" cx="192" cy="-18" rx="18" ry="18"/>
<text text-anchor="middle" x="192" y="-14.6" font-family="monospace" font-size="13.00" fill="#000000">1</text>
</g>
<!-- 4 -->
<g id="node2" class="node">
<title>4</title>
<ellipse fill="#ffffff" stroke="#000000" cx="192" cy="-72" rx="18" ry="18"/>
<text text-anchor="middle" x="192" y="-68.6" font-family="monospace" font-size="13.00" fill="#000000">4</text>
</g>
<!-- 8 -->
<g id="node3" class="node">
<title>8</title>
<ellipse fill="#ffffff" stroke="#000000" cx="290.2136" cy="-182" rx="18" ry="18"/>
<text text-anchor="middle" x="290.2136" y="-178.6" font-family="monospace" font-size="13.00" fill="#000000">8</text>
</g>
<!-- 12 -->
<g id="node4" class="node">
<title>12</title>
<ellipse fill="#ffffff" stroke="#000000" cx="290.2136" cy="-126" rx="20.4296" ry="20.4296"/>
<text text-anchor="middle" x="290.2136" y="-122.6" font-family="monospace" font-size="13.00" fill="#000000">12</text>
</g>
<!-- x -->
<g id="node5" class="node">
<title>x</title>
<polygon fill="transparent" stroke="transparent" points="103,-90 11,-90 11,-54 103,-54 103,-90"/>
<text text-anchor="middle" x="57" y="-68.6" font-family="monospace" font-size="13.00" fill="#000000">x (global)</text>
</g>
<!-- x&#45;&gt;4 -->
<g id="edge4" class="edge">
<title>x&#45;&gt;4</title>
<path fill="none" stroke="#000000" d="M103.0818,-72C123.1969,-72 146.1431,-72 163.6867,-72"/>
<polygon fill="#000000" stroke="#000000" points="163.8382,-75.5001 173.8382,-72 163.8382,-68.5001 163.8382,-75.5001"/>
</g>
<!-- xl -->
<g id="node6" class="node">
<title>xl</title>
<polygon fill="transparent" stroke="transparent" points="234,-200 150,-200 150,-164 234,-164 234,-200"/>
<text text-anchor="middle" x="192" y="-178.6" font-family="monospace" font-size="13.00" fill="#000000">x (local)</text>
</g>
<!-- xl&#45;&gt;8 -->
<g id="edge1" class="edge">
<title>xl&#45;&gt;8</title>
<path fill="none" stroke="#000000" d="M234.2214,-182C243.5797,-182 253.2784,-182 261.9215,-182"/>
<polygon fill="#000000" stroke="#000000" points="262.1998,-185.5001 272.1997,-182 262.1997,-178.5001 262.1998,-185.5001"/>
</g>
<!-- yl -->
<g id="node7" class="node">
<title>yl</title>
<polygon fill="transparent" stroke="transparent" points="234,-144 150,-144 150,-108 234,-108 234,-144"/>
<text text-anchor="middle" x="192" y="-122.6" font-family="monospace" font-size="13.00" fill="#000000">y (local)</text>
</g>
<!-- yl&#45;&gt;12 -->
<g id="edge2" class="edge">
<title>yl&#45;&gt;12</title>
<path fill="none" stroke="#000000" d="M234.2214,-126C242.8251,-126 251.7164,-126 259.8106,-126"/>
<polygon fill="#000000" stroke="#000000" points="259.901,-129.5001 269.9009,-126 259.9009,-122.5001 259.901,-129.5001"/>
</g>
<!-- z -->
<g id="node8" class="node">
<title>z</title>
<polygon fill="transparent" stroke="transparent" points="103,-36 11,-36 11,0 103,0 103,-36"/>
<text text-anchor="middle" x="57" y="-14.6" font-family="monospace" font-size="13.00" fill="#000000">z (global)</text>
</g>
<!-- z&#45;&gt;1 -->
<g id="edge5" class="edge">
<title>z&#45;&gt;1</title>
<path fill="none" stroke="#000000" d="M103.0818,-18C123.1969,-18 146.1431,-18 163.6867,-18"/>
<polygon fill="#000000" stroke="#000000" points="163.8382,-21.5001 173.8382,-18 163.8382,-14.5001 163.8382,-21.5001"/>
</g>
<!-- suma -->
<g id="node9" class="node">
<title>suma</title>
<polygon fill="transparent" stroke="transparent" points="114,-200 0,-200 0,-164 114,-164 114,-200"/>
<text text-anchor="middle" x="57" y="-178.6" font-family="monospace" font-size="13.00" fill="#000000">suma (global)</text>
</g>
<!-- suma&#45;&gt;xl -->
<g id="edge3" class="edge">
<title>suma&#45;&gt;xl</title>
<path fill="none" stroke="#000000" d="M114.2522,-182C122.7332,-182 131.4352,-182 139.8058,-182"/>
<polygon fill="#000000" stroke="#000000" points="132.0002,-185.5005 142,-182 131.9998,-178.5005 132.0002,-185.5005"/>
</g>
</g>
</svg>
