<?xml version="1.0" encoding="UTF-8" standalone="no"?>
<!DOCTYPE svg PUBLIC "-//W3C//DTD SVG 1.1//EN"
 "http://www.w3.org/Graphics/SVG/1.1/DTD/svg11.dtd">
<!-- Generated by graphviz version 14.1.1 (0)
 -->
<!-- Pages: 1 -->
<svg width="435pt" height="160pt"
 viewBox="0.00 0.00 435.00 160.00" xmlns="http://www.w3.org/2000/svg" xmlns:xlink="http://www.w3.org/1999/xlink">
<g id="graph0" class="graph" transform="scale(1 1) rotate(0) translate(4 156)">
<g id="clust1" class="cluster">
<title>cluster0</title>
<polygon fill="white" stroke="black" points="268.46,-8 268.46,-139 363.21,-139 363.21,-8 268.46,-8"/>
<text xml:space="preserve" text-anchor="middle" x="315.83" y="-121.7" font-family="Lato" font-size="14.00">Marco global</text>
</g>
<g id="clust2" class="cluster">
<title>cluster1</title>
<polygon fill="white" stroke="black" points="49.9,-11 49.9,-142 170.15,-142 170.15,-11 49.9,-11"/>
<text xml:space="preserve" text-anchor="middle" x="110.02" y="-124.7" font-family="Lato" font-size="14.00">Marco de lambda</text>
</g>
<!-- 1 -->
<g id="node1" class="node">
<title>1</title>
<ellipse fill="white" stroke="black" cx="409.21" cy="-34" rx="18" ry="18"/>
<text xml:space="preserve" text-anchor="middle" x="409.21" y="-29.9" font-family="monospace" font-size="13.00">1</text>
</g>
<!-- 4 -->
<g id="node2" class="node">
<title>4</title>
<ellipse fill="white" stroke="black" cx="409.21" cy="-88" rx="18" ry="18"/>
<text xml:space="preserve" text-anchor="middle" x="409.21" y="-83.9" font-family="monospace" font-size="13.00">4</text>
</g>
<!-- 8 -->
<g id="node3" class="node">
<title>8</title>
<ellipse fill="white" stroke="black" cx="219.3" cy="-134" rx="18" ry="18"/>
<text xml:space="preserve" text-anchor="middle" x="219.3" y="-129.9" font-family="monospace" font-size="13.00">8</text>
</g>
<!-- 12 -->
<g id="node4" class="node">
<title>12</title>
<ellipse fill="white" stroke="black" cx="219.3" cy="-37" rx="21.15" ry="21.15"/>
<text xml:space="preserve" text-anchor="middle" x="219.3" y="-32.9" font-family="monospace" font-size="13.00">12</text>
</g>
<!-- x -->
<g id="node5" class="node">
<title>x</title>
<polygon fill="none" stroke="none" points="327.08,-106 303.58,-106 303.58,-70 327.08,-70 327.08,-106"/>
<text xml:space="preserve" text-anchor="middle" x="315.33" y="-83.9" font-family="monospace" font-size="13.00">x</text>
</g>
<!-- x&#45;&gt;4 -->
<g id="edge1" class="edge">
<title>x&#45;&gt;4</title>
<path fill="none" stroke="black" d="M326.87,-88C339.65,-88 361.69,-88 379.61,-88"/>
<polygon fill="black" stroke="black" points="379.41,-91.5 389.41,-88 379.41,-84.5 379.41,-91.5"/>
</g>
<!-- z -->
<g id="node6" class="node">
<title>z</title>
<polygon fill="none" stroke="none" points="327.08,-52 303.58,-52 303.58,-16 327.08,-16 327.08,-52"/>
<text xml:space="preserve" text-anchor="middle" x="315.33" y="-29.9" font-family="monospace" font-size="13.00">z</text>
</g>
<!-- z&#45;&gt;1 -->
<g id="edge2" class="edge">
<title>z&#45;&gt;1</title>
<path fill="none" stroke="black" d="M326.87,-34C339.65,-34 361.69,-34 379.61,-34"/>
<polygon fill="black" stroke="black" points="379.41,-37.5 389.41,-34 379.41,-30.5 379.41,-37.5"/>
</g>
<!-- xl -->
<g id="node7" class="node">
<title>xl</title>
<polygon fill="none" stroke="none" points="121.27,-109 97.77,-109 97.77,-73 121.27,-73 121.27,-109"/>
<text xml:space="preserve" text-anchor="middle" x="109.52" y="-86.9" font-family="monospace" font-size="13.00">x</text>
</g>
<!-- xl&#45;&gt;8 -->
<g id="edge3" class="edge">
<title>xl&#45;&gt;8</title>
<path fill="none" stroke="black" d="M121.25,-95.28C137.47,-101.75 168.73,-114.22 191.4,-123.27"/>
<polygon fill="black" stroke="black" points="190.05,-126.5 200.64,-126.95 192.65,-120 190.05,-126.5"/>
</g>
<!-- xl&#45;&gt;x -->
<g id="edge5" class="edge">
<title>xl&#45;&gt;x</title>
<path fill="none" stroke="black" d="M170.15,-90.12C197.57,-89.72 229.96,-89.24 257.09,-88.84"/>
<polygon fill="black" stroke="black" points="257,-92.34 266.95,-88.7 256.9,-85.35 257,-92.34"/>
</g>
<!-- yl -->
<g id="node8" class="node">
<title>yl</title>
<polygon fill="none" stroke="none" points="121.27,-55 97.77,-55 97.77,-19 121.27,-19 121.27,-55"/>
<text xml:space="preserve" text-anchor="middle" x="109.52" y="-32.9" font-family="monospace" font-size="13.00">y</text>
</g>
<!-- yl&#45;&gt;12 -->
<g id="edge4" class="edge">
<title>yl&#45;&gt;12</title>
<path fill="none" stroke="black" d="M121.25,-37C136.33,-37 164.41,-37 186.5,-37"/>
<polygon fill="black" stroke="black" points="186.21,-40.5 196.21,-37 186.21,-33.5 186.21,-40.5"/>
</g>
<!-- E -->
<g id="node9" class="node">
<title>E</title>
<polygon fill="none" stroke="none" points="21.9,-109 0,-109 0,-73 21.9,-73 21.9,-109"/>
<text xml:space="preserve" text-anchor="middle" x="10.95" y="-86.9" font-family="monospace" font-size="13.00">E</text>
</g>
<!-- E&#45;&gt;xl -->
<g id="edge6" class="edge">
<title>E&#45;&gt;xl</title>
<path fill="none" stroke="black" d="M21.56,-91C26.09,-91 31.93,-91 38.44,-91"/>
<polygon fill="black" stroke="black" points="38.39,-94.5 48.39,-91 38.39,-87.5 38.39,-94.5"/>
</g>
</g>
</svg>
