<?xml version="1.0" encoding="UTF-8" standalone="no"?>
<!DOCTYPE svg PUBLIC "-//W3C//DTD SVG 1.1//EN"
 "http://www.w3.org/Graphics/SVG/1.1/DTD/svg11.dtd">
<!-- Generated by graphviz version 2.40.1 (20161225.0304)
 -->
<!-- Title: %3 Pages: 1 -->
<svg width="576pt" height="553pt"
 viewBox="0.00 0.00 576.00 553.02" xmlns="http://www.w3.org/2000/svg" xmlns:xlink="http://www.w3.org/1999/xlink">
<g id="graph0" class="graph" transform="scale(2.6716 2.6716) rotate(0) translate(4 203)">
<title>%3</title>
<g id="clust1" class="cluster">
<title>cluster0</title>
<polygon fill="#ffffff" stroke="#000000" points="31.6,-8 31.6,-191 199.6,-191 199.6,-8 31.6,-8"/>
<text text-anchor="middle" x="115.6" y="-175.8" font-family="Lato" font-size="14.00" fill="#000000">Marco global</text>
</g>
<!-- 1 -->
<g id="node1" class="node">
<title>1</title>
<ellipse fill="#ffffff" stroke="#000000" cx="160.6" cy="-88" rx="18" ry="18"/>
<text text-anchor="middle" x="160.6" y="-84.6" font-family="monospace" font-size="13.00" fill="#000000">1</text>
</g>
<!-- 4 -->
<g id="node2" class="node">
<title>4</title>
<ellipse fill="#ffffff" stroke="#000000" cx="160.6" cy="-142" rx="18" ry="18"/>
<text text-anchor="middle" x="160.6" y="-138.6" font-family="monospace" font-size="13.00" fill="#000000">4</text>
</g>
<!-- x -->
<g id="node3" class="node">
<title>x</title>
<polygon fill="transparent" stroke="transparent" points="93.6,-160 39.6,-160 39.6,-124 93.6,-124 93.6,-160"/>
<text text-anchor="middle" x="66.6" y="-138.6" font-family="monospace" font-size="13.00" fill="#000000">x</text>
</g>
<!-- x&#45;&gt;4 -->
<g id="edge2" class="edge">
<title>x&#45;&gt;4</title>
<path fill="none" stroke="#000000" d="M93.7887,-142C105.8667,-142 120.0812,-142 132.2871,-142"/>
<polygon fill="#000000" stroke="#000000" points="132.3923,-145.5001 142.3923,-142 132.3922,-138.5001 132.3923,-145.5001"/>
</g>
<!-- z -->
<g id="node4" class="node">
<title>z</title>
<polygon fill="transparent" stroke="transparent" points="93.6,-106 39.6,-106 39.6,-70 93.6,-70 93.6,-106"/>
<text text-anchor="middle" x="66.6" y="-84.6" font-family="monospace" font-size="13.00" fill="#000000">z</text>
</g>
<!-- z&#45;&gt;1 -->
<g id="edge3" class="edge">
<title>z&#45;&gt;1</title>
<path fill="none" stroke="#000000" d="M93.7887,-88C105.8667,-88 120.0812,-88 132.2871,-88"/>
<polygon fill="#000000" stroke="#000000" points="132.3923,-91.5001 142.3923,-88 132.3922,-84.5001 132.3923,-91.5001"/>
</g>
<!-- suma -->
<g id="node5" class="node">
<title>suma</title>
<polygon fill="transparent" stroke="transparent" points="93.6,-52 39.6,-52 39.6,-16 93.6,-16 93.6,-52"/>
<text text-anchor="middle" x="66.6" y="-30.6" font-family="monospace" font-size="13.00" fill="#000000">suma</text>
</g>
<!-- lambda -->
<g id="node6" class="node">
<title>lambda</title>
<polygon fill="#ffffff" stroke="#000000" points="191.6,-52 129.6,-52 129.6,-16 191.6,-16 191.6,-52"/>
<text text-anchor="middle" x="160.6" y="-30.6" font-family="monospace" font-size="13.00" fill="#000000">lambda</text>
</g>
<!-- suma&#45;&gt;lambda -->
<g id="edge1" class="edge">
<title>suma&#45;&gt;lambda</title>
<path fill="none" stroke="#000000" d="M93.7887,-34C101.817,-34 110.7892,-34 119.4881,-34"/>
<polygon fill="#000000" stroke="#000000" points="119.5013,-37.5001 129.5013,-34 119.5012,-30.5001 119.5013,-37.5001"/>
</g>
<!-- E -->
<g id="node7" class="node">
<title>E</title>
<ellipse fill="#ffffff" stroke="#000000" cx="1.8" cy="-142" rx="1.8" ry="1.8"/>
</g>
<!-- E&#45;&gt;x -->
<g id="edge4" class="edge">
<title>E&#45;&gt;x</title>
<path fill="none" stroke="#000000" d="M3.6695,-142C7.7685,-142 18.0715,-142 29.1814,-142"/>
<polygon fill="#000000" stroke="#000000" points="21.6001,-145.5004 31.6,-142 21.5999,-138.5004 21.6001,-145.5004"/>
</g>
</g>
</svg>
