<?xml version="1.0" encoding="UTF-8" standalone="no"?>
<!DOCTYPE svg PUBLIC "-//W3C//DTD SVG 1.1//EN"
 "http://www.w3.org/Graphics/SVG/1.1/DTD/svg11.dtd">
<!-- Generated by graphviz version 2.40.1 (20161225.0304)
 -->
<!-- Title: %3 Pages: 1 -->
<svg width="576pt" height="354pt"
 viewBox="0.00 0.00 576.00 354.10" xmlns="http://www.w3.org/2000/svg" xmlns:xlink="http://www.w3.org/1999/xlink">
<g id="graph0" class="graph" transform="scale(1.5738 1.5738) rotate(0) translate(4 221)">
<title>%3</title>
<g id="clust1" class="cluster">
<title>cluster0</title>
<polygon fill="#ffffff" stroke="#000000" points="182,-8 182,-191 350,-191 350,-8 182,-8"/>
<text text-anchor="middle" x="266" y="-175.8" font-family="Lato" font-size="14.00" fill="#000000">Marco global</text>
</g>
<g id="clust2" class="cluster">
<title>cluster1</title>
<polygon fill="#ffffff" stroke="#000000" points="0,-44 0,-209 125,-209 125,-44 0,-44"/>
<text text-anchor="middle" x="62.5" y="-193.8" font-family="Lato" font-size="14.00" fill="#000000">Marco de lambda</text>
</g>
<!-- 1 -->
<g id="node1" class="node">
<title>1</title>
<ellipse fill="#ffffff" stroke="#000000" cx="311" cy="-88" rx="18" ry="18"/>
<text text-anchor="middle" x="311" y="-84.6" font-family="monospace" font-size="13.00" fill="#000000">1</text>
</g>
<!-- 4 -->
<g id="node2" class="node">
<title>4</title>
<ellipse fill="#ffffff" stroke="#000000" cx="311" cy="-142" rx="18" ry="18"/>
<text text-anchor="middle" x="311" y="-138.6" font-family="monospace" font-size="13.00" fill="#000000">4</text>
</g>
<!-- x -->
<g id="node3" class="node">
<title>x</title>
<polygon fill="transparent" stroke="transparent" points="244,-160 190,-160 190,-124 244,-124 244,-160"/>
<text text-anchor="middle" x="217" y="-138.6" font-family="monospace" font-size="13.00" fill="#000000">x</text>
</g>
<!-- x&#45;&gt;4 -->
<g id="edge2" class="edge">
<title>x&#45;&gt;4</title>
<path fill="none" stroke="#000000" d="M244.1887,-142C256.2667,-142 270.4812,-142 282.6871,-142"/>
<polygon fill="#000000" stroke="#000000" points="282.7923,-145.5001 292.7923,-142 282.7922,-138.5001 282.7923,-145.5001"/>
</g>
<!-- xl -->
<g id="node4" class="node">
<title>xl</title>
<polygon fill="transparent" stroke="transparent" points="89,-160 35,-160 35,-124 89,-124 89,-160"/>
<text text-anchor="middle" x="62" y="-138.6" font-family="monospace" font-size="13.00" fill="#000000">x</text>
</g>
<!-- xl&#45;&gt;x -->
<g id="edge6" class="edge">
<title>xl&#45;&gt;x</title>
<path fill="none" stroke="#000000" d="M124.9955,-142C143.5935,-142 163.3472,-142 179.7638,-142"/>
<polygon fill="#000000" stroke="#000000" points="172.0002,-145.5004 182,-142 171.9998,-138.5004 172.0002,-145.5004"/>
</g>
<!-- xl&#45;&gt;xl -->
<g id="edge4" class="edge">
<title>xl&#45;&gt;xl</title>
<path fill="none" stroke="#000000" d="M45.7183,-160.1527C43.2134,-169.5391 48.6406,-178 62,-178 70.1409,-178 75.3362,-174.8581 77.5861,-170.2796"/>
<polygon fill="#000000" stroke="#000000" points="81.0881,-170.3691 78.2817,-160.1527 74.1046,-169.8893 81.0881,-170.3691"/>
</g>
<!-- yl -->
<g id="node5" class="node">
<title>yl</title>
<polygon fill="transparent" stroke="transparent" points="89,-88 35,-88 35,-52 89,-52 89,-88"/>
<text text-anchor="middle" x="62" y="-66.6" font-family="monospace" font-size="13.00" fill="#000000">y</text>
</g>
<!-- yl&#45;&gt;yl -->
<g id="edge5" class="edge">
<title>yl&#45;&gt;yl</title>
<path fill="none" stroke="#000000" d="M45.7183,-88.1527C43.2134,-97.5391 48.6406,-106 62,-106 70.1409,-106 75.3362,-102.8581 77.5861,-98.2796"/>
<polygon fill="#000000" stroke="#000000" points="81.0881,-98.3691 78.2817,-88.1527 74.1046,-97.8893 81.0881,-98.3691"/>
</g>
<!-- z -->
<g id="node6" class="node">
<title>z</title>
<polygon fill="transparent" stroke="transparent" points="244,-106 190,-106 190,-70 244,-70 244,-106"/>
<text text-anchor="middle" x="217" y="-84.6" font-family="monospace" font-size="13.00" fill="#000000">z</text>
</g>
<!-- z&#45;&gt;1 -->
<g id="edge3" class="edge">
<title>z&#45;&gt;1</title>
<path fill="none" stroke="#000000" d="M244.1887,-88C256.2667,-88 270.4812,-88 282.6871,-88"/>
<polygon fill="#000000" stroke="#000000" points="282.7923,-91.5001 292.7923,-88 282.7922,-84.5001 282.7923,-91.5001"/>
</g>
<!-- suma -->
<g id="node7" class="node">
<title>suma</title>
<polygon fill="transparent" stroke="transparent" points="244,-52 190,-52 190,-16 244,-16 244,-52"/>
<text text-anchor="middle" x="217" y="-30.6" font-family="monospace" font-size="13.00" fill="#000000">suma</text>
</g>
<!-- lambda -->
<g id="node8" class="node">
<title>lambda</title>
<polygon fill="#ffffff" stroke="#000000" points="342,-52 280,-52 280,-16 342,-16 342,-52"/>
<text text-anchor="middle" x="311" y="-30.6" font-family="monospace" font-size="13.00" fill="#000000">lambda</text>
</g>
<!-- suma&#45;&gt;lambda -->
<g id="edge1" class="edge">
<title>suma&#45;&gt;lambda</title>
<path fill="none" stroke="#000000" d="M244.1887,-34C252.217,-34 261.1892,-34 269.8881,-34"/>
<polygon fill="#000000" stroke="#000000" points="269.9013,-37.5001 279.9013,-34 269.9012,-30.5001 269.9013,-37.5001"/>
</g>
</g>
</svg>
