<?xml version="1.0" encoding="UTF-8" standalone="no"?>
<!DOCTYPE svg PUBLIC "-//W3C//DTD SVG 1.1//EN"
 "http://www.w3.org/Graphics/SVG/1.1/DTD/svg11.dtd">
<!-- Generated by graphviz version 2.43.0 (0)
 -->
<!-- Title: %3 Pages: 1 -->
<svg width="142pt" height="98pt"
 viewBox="0.00 0.00 142.00 98.00" xmlns="http://www.w3.org/2000/svg" xmlns:xlink="http://www.w3.org/1999/xlink">
<g id="graph0" class="graph" transform="scale(1 1) rotate(0) translate(4 94)">
<title>%3</title>
<!-- lambda -->
<g id="node1" class="node">
<title>lambda</title>
<ellipse fill="white" stroke="black" cx="116" cy="-45" rx="18" ry="18"/>
<text text-anchor="middle" x="116" y="-41.6" font-family="monospace" font-size="13.00">λ</text>
</g>
<!-- max -->
<g id="node2" class="node">
<title>max</title>
<polygon fill="transparent" stroke="transparent" points="58,-90 4,-90 4,-54 58,-54 58,-90"/>
<text text-anchor="middle" x="31" y="-68.6" font-family="monospace" font-size="13.00">max</text>
</g>
<!-- max&#45;&gt;lambda -->
<g id="edge1" class="edge">
<title>max&#45;&gt;lambda</title>
<path fill="none" stroke="black" d="M49.2,-66.41C60.66,-62.68 75.95,-57.7 88.9,-53.49"/>
<polygon fill="black" stroke="black" points="90.24,-56.73 98.67,-50.31 88.08,-50.08 90.24,-56.73"/>
</g>
<!-- maximo -->
<g id="node3" class="node">
<title>maximo</title>
<polygon fill="transparent" stroke="transparent" points="58,-36 4,-36 4,0 58,0 58,-36"/>
<text text-anchor="middle" x="31" y="-14.6" font-family="monospace" font-size="13.00">maximo</text>
</g>
<!-- maximo&#45;&gt;lambda -->
<g id="edge2" class="edge">
<title>maximo&#45;&gt;lambda</title>
<path fill="none" stroke="black" d="M49.2,-23.59C60.66,-27.32 75.95,-32.3 88.9,-36.51"/>
<polygon fill="black" stroke="black" points="88.08,-39.92 98.67,-39.69 90.24,-33.27 88.08,-39.92"/>
</g>
</g>
</svg>
