<?xml version="1.0" encoding="UTF-8" standalone="no"?>
<!DOCTYPE svg PUBLIC "-//W3C//DTD SVG 1.1//EN"
 "http://www.w3.org/Graphics/SVG/1.1/DTD/svg11.dtd">
<!-- Generated by graphviz version 2.43.0 (0)
 -->
<!-- Title: %3 Pages: 1 -->
<svg width="142pt" height="98pt"
 viewBox="0.00 0.00 142.00 98.00" xmlns="http://www.w3.org/2000/svg" xmlns:xlink="http://www.w3.org/1999/xlink">
<g id="graph0" class="graph" transform="scale(1 1) rotate(0) translate(4 94)">
<title>%3</title>
<!-- lambda -->
<g id="node1" class="node">
<title>lambda</title>
<ellipse fill="white" stroke="black" cx="116" cy="-45" rx="18" ry="18"/>
<text text-anchor="middle" x="116" y="-41.6" font-family="monospace" font-size="13.00">λ</text>
</g>
<!-- max -->
<g id="node2" class="node">
<title>max</title>
<polygon fill="transparent" stroke="transparent" points="50.5,-90 11.5,-90 11.5,-54 50.5,-54 50.5,-90"/>
<text text-anchor="middle" x="31" y="-68.6" font-family="monospace" font-size="13.00">max</text>
</g>
<!-- max&#45;&gt;lambda -->
<g id="edge1" class="edge">
<title>max&#45;&gt;lambda</title>
<path fill="none" stroke="black" d="M50.83,-65.87C62.12,-62.2 76.63,-57.48 89,-53.46"/>
<polygon fill="black" stroke="black" points="90.33,-56.7 98.76,-50.28 88.17,-50.05 90.33,-56.7"/>
</g>
<!-- maximo -->
<g id="node3" class="node">
<title>maximo</title>
<polygon fill="transparent" stroke="transparent" points="62,-36 0,-36 0,0 62,0 62,-36"/>
<text text-anchor="middle" x="31" y="-14.6" font-family="monospace" font-size="13.00">maximo</text>
</g>
<!-- maximo&#45;&gt;lambda -->
<g id="edge2" class="edge">
<title>maximo&#45;&gt;lambda</title>
<path fill="none" stroke="black" d="M62.43,-27.9C71.12,-30.73 80.5,-33.78 88.9,-36.51"/>
<polygon fill="black" stroke="black" points="87.95,-39.88 98.55,-39.65 90.12,-33.23 87.95,-39.88"/>
</g>
</g>
</svg>
