<?xml version="1.0" encoding="UTF-8" standalone="no"?>
<!DOCTYPE svg PUBLIC "-//W3C//DTD SVG 1.1//EN"
 "http://www.w3.org/Graphics/SVG/1.1/DTD/svg11.dtd">
<!-- Generated by graphviz version 14.1.1 (0)
 -->
<!-- Pages: 1 -->
<svg width="141pt" height="98pt"
 viewBox="0.00 0.00 141.00 98.00" xmlns="http://www.w3.org/2000/svg" xmlns:xlink="http://www.w3.org/1999/xlink">
<g id="graph0" class="graph" transform="scale(1 1) rotate(0) translate(4 94)">
<!-- lambda -->
<g id="node1" class="node">
<title>lambda</title>
<ellipse fill="white" stroke="black" cx="115" cy="-45" rx="18" ry="18"/>
<text xml:space="preserve" text-anchor="middle" x="115" y="-40.9" font-family="monospace" font-size="13.00">λ</text>
</g>
<!-- max -->
<g id="node2" class="node">
<title>max</title>
<polygon fill="none" stroke="none" points="49.75,-90 11.25,-90 11.25,-54 49.75,-54 49.75,-90"/>
<text xml:space="preserve" text-anchor="middle" x="30.5" y="-67.9" font-family="monospace" font-size="13.00">max</text>
</g>
<!-- max&#45;&gt;lambda -->
<g id="edge1" class="edge">
<title>max&#45;&gt;lambda</title>
<path fill="none" stroke="black" d="M49.4,-66.14C60.36,-62.56 74.59,-57.9 86.91,-53.87"/>
<polygon fill="black" stroke="black" points="87.68,-57.3 96.1,-50.86 85.5,-50.64 87.68,-57.3"/>
</g>
<!-- maximo -->
<g id="node3" class="node">
<title>maximo</title>
<polygon fill="none" stroke="none" points="61,-36 0,-36 0,0 61,0 61,-36"/>
<text xml:space="preserve" text-anchor="middle" x="30.5" y="-13.9" font-family="monospace" font-size="13.00">maximo</text>
</g>
<!-- maximo&#45;&gt;lambda -->
<g id="edge2" class="edge">
<title>maximo&#45;&gt;lambda</title>
<path fill="none" stroke="black" d="M60.82,-27.6C69.35,-30.39 78.63,-33.42 87.01,-36.17"/>
<polygon fill="black" stroke="black" points="85.7,-39.42 96.3,-39.21 87.88,-32.77 85.7,-39.42"/>
</g>
</g>
</svg>
