<?xml version="1.0" encoding="UTF-8" standalone="no"?>
<!DOCTYPE svg PUBLIC "-//W3C//DTD SVG 1.1//EN"
 "http://www.w3.org/Graphics/SVG/1.1/DTD/svg11.dtd">
<!-- Generated by graphviz version 14.1.1 (0)
 -->
<!-- Pages: 1 -->
<svg width="134pt" height="98pt"
 viewBox="0.00 0.00 134.00 98.00" xmlns="http://www.w3.org/2000/svg" xmlns:xlink="http://www.w3.org/1999/xlink">
<g id="graph0" class="graph" transform="scale(1 1) rotate(0) translate(4 94)">
<!-- 25 -->
<g id="node1" class="node">
<title>25</title>
<ellipse fill="white" stroke="black" cx="108" cy="-45" rx="18" ry="18"/>
<text xml:space="preserve" text-anchor="middle" x="108" y="-40.9" font-family="monospace" font-size="13.00">25</text>
</g>
<!-- x -->
<g id="node2" class="node">
<title>x</title>
<polygon fill="none" stroke="none" points="54,-90 0,-90 0,-54 54,-54 54,-90"/>
<text xml:space="preserve" text-anchor="middle" x="27" y="-67.9" font-family="monospace" font-size="13.00">x</text>
</g>
<!-- x&#45;&gt;25 -->
<g id="edge1" class="edge">
<title>x&#45;&gt;25</title>
<path fill="none" stroke="black" d="M44.75,-66.27C55.12,-62.73 68.66,-58.11 80.46,-54.07"/>
<polygon fill="black" stroke="black" points="81.32,-57.48 89.65,-50.93 79.05,-50.85 81.32,-57.48"/>
</g>
<!-- y -->
<g id="node3" class="node">
<title>y</title>
<polygon fill="none" stroke="none" points="54,-36 0,-36 0,0 54,0 54,-36"/>
<text xml:space="preserve" text-anchor="middle" x="27" y="-13.9" font-family="monospace" font-size="13.00">y</text>
</g>
<!-- y&#45;&gt;25 -->
<g id="edge2" class="edge">
<title>y&#45;&gt;25</title>
<path fill="none" stroke="black" d="M44.75,-23.73C55.12,-27.27 68.66,-31.89 80.46,-35.93"/>
<polygon fill="black" stroke="black" points="79.05,-39.15 89.65,-39.07 81.32,-32.52 79.05,-39.15"/>
</g>
</g>
</svg>
