<?xml version="1.0" encoding="UTF-8" standalone="no"?>
<!DOCTYPE svg PUBLIC "-//W3C//DTD SVG 1.1//EN"
 "http://www.w3.org/Graphics/SVG/1.1/DTD/svg11.dtd">
<!-- Generated by graphviz version 2.40.1 (20161225.0304)
 -->
<!-- Title: %3 Pages: 1 -->
<svg width="576pt" height="421pt"
 viewBox="0.00 0.00 576.00 421.25" xmlns="http://www.w3.org/2000/svg" xmlns:xlink="http://www.w3.org/1999/xlink">
<g id="graph0" class="graph" transform="scale(4.2985 4.2985) rotate(0) translate(4 94)">
<title>%3</title>
<!-- 25 -->
<g id="node1" class="node">
<title>25</title>
<ellipse fill="#ffffff" stroke="#000000" cx="108" cy="-45" rx="18" ry="18"/>
<text text-anchor="middle" x="108" y="-41.6" font-family="monospace" font-size="13.00" fill="#000000">25</text>
</g>
<!-- x -->
<g id="node2" class="node">
<title>x</title>
<polygon fill="transparent" stroke="transparent" points="54,-90 0,-90 0,-54 54,-54 54,-90"/>
<text text-anchor="middle" x="27" y="-68.6" font-family="monospace" font-size="13.00" fill="#000000">x</text>
</g>
<!-- x&#45;&gt;25 -->
<g id="edge1" class="edge">
<title>x&#45;&gt;25</title>
<path fill="none" stroke="#000000" d="M45.3802,-65.8733C55.9218,-62.3594 69.3475,-57.8842 81.0619,-53.9794"/>
<polygon fill="#000000" stroke="#000000" points="82.4203,-57.216 90.8003,-50.7332 80.2066,-50.5752 82.4203,-57.216"/>
</g>
<!-- y -->
<g id="node3" class="node">
<title>y</title>
<polygon fill="transparent" stroke="transparent" points="54,-36 0,-36 0,0 54,0 54,-36"/>
<text text-anchor="middle" x="27" y="-14.6" font-family="monospace" font-size="13.00" fill="#000000">y</text>
</g>
<!-- y&#45;&gt;25 -->
<g id="edge2" class="edge">
<title>y&#45;&gt;25</title>
<path fill="none" stroke="#000000" d="M45.3802,-24.1267C55.9218,-27.6406 69.3475,-32.1158 81.0619,-36.0206"/>
<polygon fill="#000000" stroke="#000000" points="80.2066,-39.4248 90.8003,-39.2668 82.4203,-32.784 80.2066,-39.4248"/>
</g>
</g>
</svg>
