<?xml version="1.0" encoding="UTF-8" standalone="no"?>
<!DOCTYPE svg PUBLIC "-//W3C//DTD SVG 1.1//EN"
 "http://www.w3.org/Graphics/SVG/1.1/DTD/svg11.dtd">
<!-- Generated by graphviz version 2.42.4 (0)
 -->
<!-- Pages: 1 -->
<svg width="134pt" height="98pt"
 viewBox="0.00 0.00 134.00 98.00" xmlns="http://www.w3.org/2000/svg" xmlns:xlink="http://www.w3.org/1999/xlink">
<g id="graph0" class="graph" transform="scale(1 1) rotate(0) translate(4 94)">
<!-- 25 -->
<g id="node1" class="node">
<title>25</title>
<ellipse fill="white" stroke="black" cx="108" cy="-45" rx="18" ry="18"/>
<text text-anchor="middle" x="108" y="-41.6" font-family="monospace" font-size="13.00">25</text>
</g>
<!-- x -->
<g id="node2" class="node">
<title>x</title>
<polygon fill="transparent" stroke="transparent" points="54,-90 0,-90 0,-54 54,-54 54,-90"/>
<text text-anchor="middle" x="27" y="-68.6" font-family="monospace" font-size="13.00">x</text>
</g>
<!-- x&#45;&gt;25 -->
<g id="edge1" class="edge">
<title>x&#45;&gt;25</title>
<path fill="none" stroke="black" d="M45.14,-66.14C55.6,-62.57 69.18,-57.93 80.95,-53.9"/>
<polygon fill="black" stroke="black" points="82.37,-57.12 90.7,-50.57 80.11,-50.49 82.37,-57.12"/>
</g>
<!-- y -->
<g id="node3" class="node">
<title>y</title>
<polygon fill="transparent" stroke="transparent" points="54,-36 0,-36 0,0 54,0 54,-36"/>
<text text-anchor="middle" x="27" y="-14.6" font-family="monospace" font-size="13.00">y</text>
</g>
<!-- y&#45;&gt;25 -->
<g id="edge2" class="edge">
<title>y&#45;&gt;25</title>
<path fill="none" stroke="black" d="M45.14,-23.86C55.6,-27.43 69.18,-32.07 80.95,-36.1"/>
<polygon fill="black" stroke="black" points="80.11,-39.51 90.7,-39.43 82.37,-32.88 80.11,-39.51"/>
</g>
</g>
</svg>
