<?xml version="1.0" encoding="UTF-8" standalone="no"?>
<!DOCTYPE svg PUBLIC "-//W3C//DTD SVG 1.1//EN"
 "http://www.w3.org/Graphics/SVG/1.1/DTD/svg11.dtd">
<!-- Generated by graphviz version 2.40.1 (20161225.0304)
 -->
<!-- Title: %3 Pages: 1 -->
<svg width="576pt" height="408pt"
 viewBox="0.00 0.00 576.00 407.78" xmlns="http://www.w3.org/2000/svg" xmlns:xlink="http://www.w3.org/1999/xlink">
<g id="graph0" class="graph" transform="scale(4.161 4.161) rotate(0) translate(4 94)">
<title>%3</title>
<!-- 25 -->
<g id="node1" class="node">
<title>25</title>
<ellipse fill="#ffffff" stroke="#000000" cx="110.2136" cy="-45" rx="20.4296" ry="20.4296"/>
<text text-anchor="middle" x="110.2136" y="-41.6" font-family="Lato" font-size="13.00" fill="#000000">25</text>
</g>
<!-- x -->
<g id="node2" class="node">
<title>x</title>
<polygon fill="#ffffff" stroke="#000000" points="54,-90 0,-90 0,-54 54,-54 54,-90"/>
<text text-anchor="middle" x="27" y="-68.6" font-family="Lato" font-size="13.00" fill="#000000">x</text>
</g>
<!-- x&#45;&gt;25 -->
<g id="edge1" class="edge">
<title>x&#45;&gt;25</title>
<path fill="none" stroke="#000000" d="M54.2473,-63.1592C62.8325,-60.3736 72.3475,-57.2863 81.06,-54.4594"/>
<polygon fill="#000000" stroke="#000000" points="82.3837,-57.7096 90.8153,-51.2941 80.2233,-51.0513 82.3837,-57.7096"/>
</g>
<!-- y -->
<g id="node3" class="node">
<title>y</title>
<polygon fill="#ffffff" stroke="#000000" points="54,-36 0,-36 0,0 54,0 54,-36"/>
<text text-anchor="middle" x="27" y="-14.6" font-family="Lato" font-size="13.00" fill="#000000">y</text>
</g>
<!-- y&#45;&gt;25 -->
<g id="edge2" class="edge">
<title>y&#45;&gt;25</title>
<path fill="none" stroke="#000000" d="M54.2473,-26.8408C62.8325,-29.6264 72.3475,-32.7137 81.06,-35.5406"/>
<polygon fill="#000000" stroke="#000000" points="80.2233,-38.9487 90.8153,-38.7059 82.3837,-32.2904 80.2233,-38.9487"/>
</g>
</g>
</svg>
