<?xml version="1.0" encoding="UTF-8" standalone="no"?>
<!DOCTYPE svg PUBLIC "-//W3C//DTD SVG 1.1//EN"
 "http://www.w3.org/Graphics/SVG/1.1/DTD/svg11.dtd">
<!-- Generated by graphviz version 2.43.0 (0)
 -->
<!-- Title: %3 Pages: 1 -->
<svg width="243pt" height="153pt"
 viewBox="0.00 0.00 243.00 153.00" xmlns="http://www.w3.org/2000/svg" xmlns:xlink="http://www.w3.org/1999/xlink">
<g id="graph0" class="graph" transform="scale(1 1) rotate(0) translate(4 149)">
<title>%3</title>
<g id="clust1" class="cluster">
<title>cluster0</title>
<path fill="#f2f2f2" stroke="black" d="M168,-22C168,-22 223,-22 223,-22 229,-22 235,-28 235,-34 235,-34 235,-111 235,-111 235,-117 229,-123 223,-123 223,-123 168,-123 168,-123 162,-123 156,-117 156,-111 156,-111 156,-34 156,-34 156,-28 162,-22 168,-22"/>
<text text-anchor="middle" x="195.5" y="-107.8" font-family="Lato" font-size="14.00">Montículo</text>
</g>
<g id="clust2" class="cluster">
<title>cluster1</title>
<polygon fill="white" stroke="black" points="8,-8 8,-137 136,-137 136,-8 8,-8"/>
<text text-anchor="middle" x="72" y="-121.8" font-family="Lato" font-size="14.00">Marco global</text>
</g>
<!-- 4 -->
<g id="node1" class="node">
<title>4</title>
<ellipse fill="white" stroke="black" cx="195" cy="-81" rx="11" ry="11"/>
<text text-anchor="middle" x="195" y="-77.6" font-family="Lato" font-size="13.00">4</text>
</g>
<!-- 5 -->
<g id="node2" class="node">
<title>5</title>
<ellipse fill="white" stroke="black" cx="195" cy="-41" rx="11" ry="11"/>
<text text-anchor="middle" x="195" y="-37.6" font-family="Lato" font-size="13.00">5</text>
</g>
<!-- x -->
<g id="node3" class="node">
<title>x</title>
<polygon fill="transparent" stroke="transparent" points="70,-106 16,-106 16,-70 70,-70 70,-106"/>
<text text-anchor="middle" x="43" y="-84.6" font-family="monospace" font-size="13.00">x</text>
</g>
<!-- v1 -->
<g id="node5" class="node">
<title>v1</title>
<polygon fill="white" stroke="black" points="128,-95 106,-95 106,-73 128,-73 128,-95"/>
<text text-anchor="middle" x="117" y="-80.6" font-family="monospace" font-size="13.00">⬤</text>
</g>
<!-- x&#45;&gt;v1 -->
<g id="edge1" class="edge">
<title>x&#45;&gt;v1</title>
<path fill="none" stroke="black" d="M61.06,-87.05C71.43,-86.48 84.73,-85.74 95.65,-85.13"/>
<polygon fill="black" stroke="black" points="96.15,-88.61 105.94,-84.56 95.76,-81.62 96.15,-88.61"/>
</g>
<!-- y -->
<g id="node4" class="node">
<title>y</title>
<polygon fill="transparent" stroke="transparent" points="70,-52 16,-52 16,-16 70,-16 70,-52"/>
<text text-anchor="middle" x="43" y="-30.6" font-family="monospace" font-size="13.00">y</text>
</g>
<!-- v2 -->
<g id="node6" class="node">
<title>v2</title>
<polygon fill="white" stroke="black" points="128,-48 106,-48 106,-26 128,-26 128,-48"/>
<text text-anchor="middle" x="117" y="-33.6" font-family="monospace" font-size="13.00">⬤</text>
</g>
<!-- y&#45;&gt;v2 -->
<g id="edge3" class="edge">
<title>y&#45;&gt;v2</title>
<path fill="none" stroke="black" d="M61.06,-34.71C71.43,-35.14 84.73,-35.7 95.65,-36.15"/>
<polygon fill="black" stroke="black" points="95.8,-39.66 105.94,-36.58 96.1,-32.67 95.8,-39.66"/>
</g>
<!-- v1&#45;&gt;4 -->
<g id="edge2" class="edge">
<title>v1&#45;&gt;4</title>
<path fill="none" stroke="black" d="M128.25,-83.6C139.87,-83.14 159.11,-82.38 173.78,-81.8"/>
<polygon fill="black" stroke="black" points="174.06,-85.29 183.91,-81.4 173.78,-78.3 174.06,-85.29"/>
</g>
<!-- v2&#45;&gt;5 -->
<g id="edge4" class="edge">
<title>v2&#45;&gt;5</title>
<path fill="none" stroke="black" d="M128.25,-37.54C139.87,-38.15 159.11,-39.16 173.78,-39.94"/>
<polygon fill="black" stroke="black" points="173.74,-43.44 183.91,-40.47 174.11,-36.45 173.74,-43.44"/>
</g>
</g>
</svg>
