<?xml version="1.0" encoding="UTF-8" standalone="no"?>
<!DOCTYPE svg PUBLIC "-//W3C//DTD SVG 1.1//EN"
 "http://www.w3.org/Graphics/SVG/1.1/DTD/svg11.dtd">
<!-- Generated by graphviz version 14.1.1 (0)
 -->
<!-- Pages: 1 -->
<svg width="167pt" height="209pt"
 viewBox="0.00 0.00 167.00 209.00" xmlns="http://www.w3.org/2000/svg" xmlns:xlink="http://www.w3.org/1999/xlink">
<g id="graph0" class="graph" transform="scale(1 1) rotate(0) translate(4 205)">
<g id="clust1" class="cluster">
<title>cluster0</title>
<polygon fill="white" stroke="black" points="0,-8 0,-193 94.75,-193 94.75,-8 0,-8"/>
<text xml:space="preserve" text-anchor="middle" x="47.38" y="-175.7" font-family="Lato" font-size="14.00">Marco global</text>
</g>
<!-- 3 -->
<g id="node1" class="node">
<title>3</title>
<ellipse fill="white" stroke="black" cx="140.75" cy="-61" rx="18" ry="18"/>
<text xml:space="preserve" text-anchor="middle" x="140.75" y="-56.9" font-family="Lato" font-size="13.00">3</text>
</g>
<!-- 4 -->
<g id="node2" class="node">
<title>4</title>
<ellipse fill="white" stroke="black" cx="140.75" cy="-142" rx="18" ry="18"/>
<text xml:space="preserve" text-anchor="middle" x="140.75" y="-137.9" font-family="Lato" font-size="13.00">4</text>
</g>
<!-- x -->
<g id="node3" class="node">
<title>x</title>
<polygon fill="none" stroke="none" points="73.88,-160 19.88,-160 19.88,-124 73.88,-124 73.88,-160"/>
<text xml:space="preserve" text-anchor="middle" x="46.88" y="-137.9" font-family="monospace" font-size="13.00">x</text>
</g>
<!-- x&#45;&gt;4 -->
<g id="edge1" class="edge">
<title>x&#45;&gt;4</title>
<path fill="none" stroke="black" d="M64.73,-142C77.64,-142 95.77,-142 110.97,-142"/>
<polygon fill="black" stroke="black" points="110.87,-145.5 120.87,-142 110.87,-138.5 110.87,-145.5"/>
</g>
<!-- y -->
<g id="node4" class="node">
<title>y</title>
<polygon fill="none" stroke="none" points="73.88,-52 19.88,-52 19.88,-16 73.88,-16 73.88,-52"/>
<text xml:space="preserve" text-anchor="middle" x="46.88" y="-29.9" font-family="monospace" font-size="13.00">y</text>
</g>
<!-- y&#45;&gt;3 -->
<g id="edge2" class="edge">
<title>y&#45;&gt;3</title>
<path fill="none" stroke="black" d="M64.73,-38.95C77.94,-42.83 96.6,-48.32 112,-52.85"/>
<polygon fill="black" stroke="black" points="110.97,-56.19 121.55,-55.65 112.95,-49.47 110.97,-56.19"/>
</g>
<!-- z -->
<g id="node5" class="node">
<title>z</title>
<polygon fill="none" stroke="none" points="73.88,-106 19.88,-106 19.88,-70 73.88,-70 73.88,-106"/>
<text xml:space="preserve" text-anchor="middle" x="46.88" y="-83.9" font-family="monospace" font-size="13.00">z</text>
</g>
<!-- z&#45;&gt;3 -->
<g id="edge3" class="edge">
<title>z&#45;&gt;3</title>
<path fill="none" stroke="black" d="M64.73,-83.05C77.94,-79.17 96.6,-73.68 112,-69.15"/>
<polygon fill="black" stroke="black" points="112.95,-72.53 121.55,-66.35 110.97,-65.81 112.95,-72.53"/>
</g>
</g>
</svg>
