<?xml version="1.0" encoding="UTF-8" standalone="no"?>
<!DOCTYPE svg PUBLIC "-//W3C//DTD SVG 1.1//EN"
 "http://www.w3.org/Graphics/SVG/1.1/DTD/svg11.dtd">
<!-- Generated by graphviz version 2.40.1 (20161225.0304)
 -->
<!-- Title: %3 Pages: 1 -->
<svg width="576pt" height="416pt"
 viewBox="0.00 0.00 576.00 415.70" xmlns="http://www.w3.org/2000/svg" xmlns:xlink="http://www.w3.org/1999/xlink">
<g id="graph0" class="graph" transform="scale(2.717 2.717) rotate(0) translate(4 149)">
<title>%3</title>
<g id="clust1" class="cluster">
<title>cluster0</title>
<polygon fill="#ffffff" stroke="#000000" points="8,-8 8,-137 196,-137 196,-8 8,-8"/>
<text text-anchor="middle" x="102" y="-121.8" font-family="Lato" font-size="14.00" fill="#000000">Marco global</text>
</g>
<!-- x -->
<g id="node1" class="node">
<title>x</title>
<polygon fill="transparent" stroke="transparent" points="70,-106 16,-106 16,-70 70,-70 70,-106"/>
<text text-anchor="middle" x="43" y="-84.6" font-family="monospace" font-size="13.00" fill="#000000">x</text>
</g>
<!-- v1 -->
<g id="node5" class="node">
<title>v1</title>
<polygon fill="#ffffff" stroke="#000000" points="128,-99 106,-99 106,-77 128,-77 128,-99"/>
<text text-anchor="middle" x="117" y="-84.6" font-family="monospace" font-size="13.00" fill="#000000">⬤</text>
</g>
<!-- x&#45;&gt;v1 -->
<g id="edge1" class="edge">
<title>x&#45;&gt;v1</title>
<path fill="none" stroke="#000000" d="M61.2921,-88C71.5842,-88 84.4969,-88 95.2984,-88"/>
<polygon fill="#000000" stroke="#000000" points="95.5921,-91.5001 105.5921,-88 95.5921,-84.5001 95.5921,-91.5001"/>
</g>
<!-- y -->
<g id="node2" class="node">
<title>y</title>
<polygon fill="transparent" stroke="transparent" points="70,-52 16,-52 16,-16 70,-16 70,-52"/>
<text text-anchor="middle" x="43" y="-30.6" font-family="monospace" font-size="13.00" fill="#000000">y</text>
</g>
<!-- v2 -->
<g id="node6" class="node">
<title>v2</title>
<polygon fill="#ffffff" stroke="#000000" points="128,-45 106,-45 106,-23 128,-23 128,-45"/>
<text text-anchor="middle" x="117" y="-30.6" font-family="monospace" font-size="13.00" fill="#000000">⬤</text>
</g>
<!-- y&#45;&gt;v2 -->
<g id="edge3" class="edge">
<title>y&#45;&gt;v2</title>
<path fill="none" stroke="#000000" d="M61.2921,-34C71.5842,-34 84.4969,-34 95.2984,-34"/>
<polygon fill="#000000" stroke="#000000" points="95.5921,-37.5001 105.5921,-34 95.5921,-30.5001 95.5921,-37.5001"/>
</g>
<!-- 4 -->
<g id="node3" class="node">
<title>4</title>
<ellipse fill="#ffffff" stroke="#000000" cx="176" cy="-88" rx="11" ry="11"/>
<text text-anchor="middle" x="176" y="-84.6" font-family="monospace" font-size="13.00" fill="#000000">4</text>
</g>
<!-- 5 -->
<g id="node4" class="node">
<title>5</title>
<ellipse fill="#ffffff" stroke="#000000" cx="176" cy="-34" rx="11" ry="11"/>
<text text-anchor="middle" x="176" y="-30.6" font-family="monospace" font-size="13.00" fill="#000000">5</text>
</g>
<!-- v1&#45;&gt;4 -->
<g id="edge2" class="edge">
<title>v1&#45;&gt;4</title>
<path fill="none" stroke="#000000" d="M128.0974,-88C135.5966,-88 145.7374,-88 154.7579,-88"/>
<polygon fill="#000000" stroke="#000000" points="154.9523,-91.5001 164.9523,-88 154.9523,-84.5001 154.9523,-91.5001"/>
</g>
<!-- v2&#45;&gt;5 -->
<g id="edge4" class="edge">
<title>v2&#45;&gt;5</title>
<path fill="none" stroke="#000000" d="M128.0974,-34C135.5966,-34 145.7374,-34 154.7579,-34"/>
<polygon fill="#000000" stroke="#000000" points="154.9523,-37.5001 164.9523,-34 154.9523,-30.5001 154.9523,-37.5001"/>
</g>
</g>
</svg>
