<?xml version="1.0" encoding="UTF-8" standalone="no"?>
<!DOCTYPE svg PUBLIC "-//W3C//DTD SVG 1.1//EN"
 "http://www.w3.org/Graphics/SVG/1.1/DTD/svg11.dtd">
<!-- Generated by graphviz version 14.1.1 (0)
 -->
<!-- Pages: 1 -->
<svg width="211pt" height="155pt"
 viewBox="0.00 0.00 211.00 155.00" xmlns="http://www.w3.org/2000/svg" xmlns:xlink="http://www.w3.org/1999/xlink">
<g id="graph0" class="graph" transform="scale(1 1) rotate(0) translate(4 151)">
<g id="clust1" class="cluster">
<title>cluster0</title>
<path fill="#f2f2f2" stroke="black" d="M137.1,-22C137.1,-22 191.35,-22 191.35,-22 197.35,-22 203.35,-28 203.35,-34 203.35,-34 203.35,-119 203.35,-119 203.35,-125 197.35,-131 191.35,-131 191.35,-131 137.1,-131 137.1,-131 131.1,-131 125.1,-125 125.1,-119 125.1,-119 125.1,-34 125.1,-34 125.1,-28 131.1,-22 137.1,-22"/>
<text xml:space="preserve" text-anchor="middle" x="164.22" y="-113.7" font-family="Lato" font-size="14.00">Montículo</text>
</g>
<g id="clust2" class="cluster">
<title>cluster1</title>
<polygon fill="white" stroke="black" points="8,-8 8,-139 105.1,-139 105.1,-8 8,-8"/>
<text xml:space="preserve" text-anchor="middle" x="56.55" y="-121.7" font-family="Lato" font-size="14.00">Marco global</text>
</g>
<!-- 4 -->
<g id="node1" class="node">
<title>4</title>
<ellipse fill="white" stroke="black" cx="163.72" cy="-42" rx="10.8" ry="10.8"/>
<text xml:space="preserve" text-anchor="middle" x="163.72" y="-37.9" font-family="Lato" font-size="13.00">4</text>
</g>
<!-- 5 -->
<g id="node2" class="node">
<title>5</title>
<ellipse fill="white" stroke="black" cx="163.72" cy="-85" rx="10.8" ry="10.8"/>
<text xml:space="preserve" text-anchor="middle" x="163.72" y="-80.9" font-family="Lato" font-size="13.00">5</text>
</g>
<!-- x -->
<g id="node3" class="node">
<title>x</title>
<polygon fill="none" stroke="none" points="28.11,-52 27.39,-52 27.39,-16 28.11,-16 28.11,-52"/>
<text xml:space="preserve" text-anchor="middle" x="27.75" y="-29.9" font-family="monospace" font-size="13.00">x</text>
</g>
<!-- v1 -->
<g id="node5" class="node">
<title>v1</title>
<polygon fill="white" stroke="black" points="97.1,-47.8 75.5,-47.8 75.5,-26.2 97.1,-26.2 97.1,-47.8"/>
<text xml:space="preserve" text-anchor="middle" x="86.3" y="-31.4" font-family="monospace" font-size="13.00">⬤</text>
</g>
<!-- x&#45;&gt;v1 -->
<g id="edge1" class="edge">
<title>x&#45;&gt;v1</title>
<path fill="none" stroke="black" d="M35.24,-34.34C42.17,-34.71 53.53,-35.31 63.68,-35.85"/>
<polygon fill="black" stroke="black" points="63.39,-39.34 73.56,-36.38 63.76,-32.35 63.39,-39.34"/>
</g>
<!-- y -->
<g id="node4" class="node">
<title>y</title>
<polygon fill="none" stroke="none" points="28.11,-106 27.39,-106 27.39,-70 28.11,-70 28.11,-106"/>
<text xml:space="preserve" text-anchor="middle" x="27.75" y="-83.9" font-family="monospace" font-size="13.00">y</text>
</g>
<!-- v2 -->
<g id="node6" class="node">
<title>v2</title>
<polygon fill="white" stroke="black" points="97.1,-96.8 75.5,-96.8 75.5,-75.2 97.1,-75.2 97.1,-96.8"/>
<text xml:space="preserve" text-anchor="middle" x="86.3" y="-80.4" font-family="monospace" font-size="13.00">⬤</text>
</g>
<!-- y&#45;&gt;v2 -->
<g id="edge3" class="edge">
<title>y&#45;&gt;v2</title>
<path fill="none" stroke="black" d="M38.86,-87.64C45.86,-87.4 55.43,-87.06 64.06,-86.75"/>
<polygon fill="black" stroke="black" points="63.89,-90.26 73.76,-86.41 63.65,-83.26 63.89,-90.26"/>
</g>
<!-- v1&#45;&gt;4 -->
<g id="edge2" class="edge">
<title>v1&#45;&gt;4</title>
<path fill="none" stroke="black" d="M97.47,-37.67C108.79,-38.42 127.39,-39.66 141.84,-40.62"/>
<polygon fill="black" stroke="black" points="141.47,-44.1 151.68,-41.27 141.93,-37.11 141.47,-44.1"/>
</g>
<!-- v2&#45;&gt;5 -->
<g id="edge4" class="edge">
<title>v2&#45;&gt;5</title>
<path fill="none" stroke="black" d="M97.47,-85.87C108.79,-85.72 127.39,-85.47 141.84,-85.28"/>
<polygon fill="black" stroke="black" points="141.72,-88.78 151.68,-85.15 141.63,-81.78 141.72,-88.78"/>
</g>
</g>
</svg>
