<?xml version="1.0" encoding="UTF-8" standalone="no"?>
<!DOCTYPE svg PUBLIC "-//W3C//DTD SVG 1.1//EN"
 "http://www.w3.org/Graphics/SVG/1.1/DTD/svg11.dtd">
<!-- Generated by graphviz version 2.43.0 (0)
 -->
<!-- Title: %3 Pages: 1 -->
<svg width="167pt" height="207pt"
 viewBox="0.00 0.00 167.00 207.00" xmlns="http://www.w3.org/2000/svg" xmlns:xlink="http://www.w3.org/1999/xlink">
<g id="graph0" class="graph" transform="scale(1 1) rotate(0) translate(4 203)">
<title>%3</title>
<g id="clust1" class="cluster">
<title>cluster0</title>
<polygon fill="white" stroke="black" points="0,-8 0,-191 95,-191 95,-8 0,-8"/>
<text text-anchor="middle" x="47.5" y="-175.8" font-family="Lato" font-size="14.00">Marco global</text>
</g>
<!-- 3 -->
<g id="node1" class="node">
<title>3</title>
<ellipse fill="white" stroke="black" cx="141" cy="-61" rx="18" ry="18"/>
<text text-anchor="middle" x="141" y="-57.6" font-family="Lato" font-size="13.00">3</text>
</g>
<!-- 4 -->
<g id="node2" class="node">
<title>4</title>
<ellipse fill="white" stroke="black" cx="141" cy="-142" rx="18" ry="18"/>
<text text-anchor="middle" x="141" y="-138.6" font-family="Lato" font-size="13.00">4</text>
</g>
<!-- x -->
<g id="node3" class="node">
<title>x</title>
<polygon fill="transparent" stroke="transparent" points="74,-160 20,-160 20,-124 74,-124 74,-160"/>
<text text-anchor="middle" x="47" y="-138.6" font-family="monospace" font-size="13.00">x</text>
</g>
<!-- x&#45;&gt;4 -->
<g id="edge1" class="edge">
<title>x&#45;&gt;4</title>
<path fill="none" stroke="black" d="M65.3,-142C78.54,-142 97.05,-142 112.34,-142"/>
<polygon fill="black" stroke="black" points="112.77,-145.5 122.77,-142 112.77,-138.5 112.77,-145.5"/>
</g>
<!-- y -->
<g id="node4" class="node">
<title>y</title>
<polygon fill="transparent" stroke="transparent" points="74,-106 20,-106 20,-70 74,-70 74,-106"/>
<text text-anchor="middle" x="47" y="-84.6" font-family="monospace" font-size="13.00">y</text>
</g>
<!-- y&#45;&gt;3 -->
<g id="edge2" class="edge">
<title>y&#45;&gt;3</title>
<path fill="none" stroke="black" d="M65.3,-82.92C78.84,-78.95 97.89,-73.36 113.36,-68.82"/>
<polygon fill="black" stroke="black" points="114.78,-72.05 123.39,-65.87 112.81,-65.33 114.78,-72.05"/>
</g>
<!-- z -->
<g id="node5" class="node">
<title>z</title>
<polygon fill="transparent" stroke="transparent" points="74,-52 20,-52 20,-16 74,-16 74,-52"/>
<text text-anchor="middle" x="47" y="-30.6" font-family="monospace" font-size="13.00">z</text>
</g>
<!-- z&#45;&gt;3 -->
<g id="edge3" class="edge">
<title>z&#45;&gt;3</title>
<path fill="none" stroke="black" d="M65.3,-39.08C78.84,-43.05 97.89,-48.64 113.36,-53.18"/>
<polygon fill="black" stroke="black" points="112.81,-56.67 123.39,-56.13 114.78,-49.95 112.81,-56.67"/>
</g>
</g>
</svg>
