<?xml version="1.0" encoding="UTF-8" standalone="no"?>
<!DOCTYPE svg PUBLIC "-//W3C//DTD SVG 1.1//EN"
 "http://www.w3.org/Graphics/SVG/1.1/DTD/svg11.dtd">
<!-- Generated by graphviz version 2.40.1 (20161225.0304)
 -->
<!-- Title: %3 Pages: 1 -->
<svg width="576pt" height="358pt"
 viewBox="0.00 0.00 576.00 358.24" xmlns="http://www.w3.org/2000/svg" xmlns:xlink="http://www.w3.org/1999/xlink">
<g id="graph0" class="graph" transform="scale(2.3415 2.3415) rotate(0) translate(4 149)">
<title>%3</title>
<g id="clust1" class="cluster">
<title>cluster0</title>
<path fill="#f2f2f2" stroke="#000000" d="M168,-22C168,-22 226,-22 226,-22 232,-22 238,-28 238,-34 238,-34 238,-111 238,-111 238,-117 232,-123 226,-123 226,-123 168,-123 168,-123 162,-123 156,-117 156,-111 156,-111 156,-34 156,-34 156,-28 162,-22 168,-22"/>
<text text-anchor="middle" x="197" y="-107.8" font-family="Lato" font-size="14.00" fill="#000000">Montículo</text>
</g>
<g id="clust2" class="cluster">
<title>cluster1</title>
<polygon fill="#ffffff" stroke="#000000" points="8,-8 8,-137 136,-137 136,-8 8,-8"/>
<text text-anchor="middle" x="72" y="-121.8" font-family="Lato" font-size="14.00" fill="#000000">Marco global</text>
</g>
<!-- 4 -->
<g id="node1" class="node">
<title>4</title>
<ellipse fill="#ffffff" stroke="#000000" cx="197" cy="-81" rx="11" ry="11"/>
<text text-anchor="middle" x="197" y="-77.6" font-family="Lato" font-size="13.00" fill="#000000">4</text>
</g>
<!-- 5 -->
<g id="node2" class="node">
<title>5</title>
<ellipse fill="#ffffff" stroke="#000000" cx="197" cy="-41" rx="11" ry="11"/>
<text text-anchor="middle" x="197" y="-37.6" font-family="Lato" font-size="13.00" fill="#000000">5</text>
</g>
<!-- x -->
<g id="node3" class="node">
<title>x</title>
<polygon fill="transparent" stroke="transparent" points="70,-106 16,-106 16,-70 70,-70 70,-106"/>
<text text-anchor="middle" x="43" y="-84.6" font-family="monospace" font-size="13.00" fill="#000000">x</text>
</g>
<!-- v1 -->
<g id="node5" class="node">
<title>v1</title>
<polygon fill="#ffffff" stroke="#000000" points="128,-95 106,-95 106,-73 128,-73 128,-95"/>
<text text-anchor="middle" x="117" y="-80.6" font-family="monospace" font-size="13.00" fill="#000000">⬤</text>
</g>
<!-- x&#45;&gt;v1 -->
<g id="edge1" class="edge">
<title>x&#45;&gt;v1</title>
<path fill="none" stroke="#000000" d="M61.2921,-87.0112C71.5842,-86.4549 84.4969,-85.7569 95.2984,-85.1731"/>
<polygon fill="#000000" stroke="#000000" points="95.7956,-88.6514 105.5921,-84.6166 95.4177,-81.6616 95.7956,-88.6514"/>
</g>
<!-- y -->
<g id="node4" class="node">
<title>y</title>
<polygon fill="transparent" stroke="transparent" points="70,-52 16,-52 16,-16 70,-16 70,-52"/>
<text text-anchor="middle" x="43" y="-30.6" font-family="monospace" font-size="13.00" fill="#000000">y</text>
</g>
<!-- v2 -->
<g id="node6" class="node">
<title>v2</title>
<polygon fill="#ffffff" stroke="#000000" points="128,-48 106,-48 106,-26 128,-26 128,-48"/>
<text text-anchor="middle" x="117" y="-33.6" font-family="monospace" font-size="13.00" fill="#000000">⬤</text>
</g>
<!-- y&#45;&gt;v2 -->
<g id="edge3" class="edge">
<title>y&#45;&gt;v2</title>
<path fill="none" stroke="#000000" d="M61.2921,-34.7416C71.5842,-35.1588 84.4969,-35.6823 95.2984,-36.1202"/>
<polygon fill="#000000" stroke="#000000" points="95.4585,-39.6295 105.5921,-36.5375 95.7421,-32.6352 95.4585,-39.6295"/>
</g>
<!-- v1&#45;&gt;4 -->
<g id="edge2" class="edge">
<title>v1&#45;&gt;4</title>
<path fill="none" stroke="#000000" d="M128.1237,-83.5829C140.4227,-83.1216 160.5207,-82.368 175.8402,-81.7935"/>
<polygon fill="#000000" stroke="#000000" points="176.109,-85.286 185.9708,-81.4136 175.8466,-78.2909 176.109,-85.286"/>
</g>
<!-- v2&#45;&gt;5 -->
<g id="edge4" class="edge">
<title>v2&#45;&gt;5</title>
<path fill="none" stroke="#000000" d="M128.1237,-37.5562C140.4227,-38.1711 160.5207,-39.176 175.8402,-39.942"/>
<polygon fill="#000000" stroke="#000000" points="175.8085,-43.4447 185.9708,-40.4485 176.1581,-36.4534 175.8085,-43.4447"/>
</g>
</g>
</svg>
