<?xml version="1.0" encoding="UTF-8" standalone="no"?>
<!DOCTYPE svg PUBLIC "-//W3C//DTD SVG 1.1//EN"
 "http://www.w3.org/Graphics/SVG/1.1/DTD/svg11.dtd">
<!-- Generated by graphviz version 14.1.1 (0)
 -->
<!-- Pages: 1 -->
<svg width="104pt" height="76pt"
 viewBox="0.00 0.00 104.00 76.00" xmlns="http://www.w3.org/2000/svg" xmlns:xlink="http://www.w3.org/1999/xlink">
<g id="graph0" class="graph" transform="scale(1 1) rotate(0) translate(4 71.5)">
<!-- 5 -->
<g id="node1" class="node">
<title>5</title>
<ellipse fill="white" stroke="black" cx="83.75" cy="-12.25" rx="10.8" ry="10.8"/>
<text xml:space="preserve" text-anchor="middle" x="83.75" y="-8.15" font-family="monospace" font-size="13.00">5</text>
</g>
<!-- 4 -->
<g id="node2" class="node">
<title>4</title>
<ellipse fill="white" stroke="black" cx="83.75" cy="-55.25" rx="10.8" ry="10.8"/>
<text xml:space="preserve" text-anchor="middle" x="83.75" y="-51.15" font-family="monospace" font-size="13.00">4</text>
</g>
<!-- x -->
<g id="node3" class="node">
<title>x</title>
<polygon fill="white" stroke="black" points="0,-44.45 0,-66.05 36,-66.05 36,-44.45 0,-44.45"/>
<text xml:space="preserve" text-anchor="middle" x="9.25" y="-50.7" font-family="monospace" font-size="13.00">x</text>
<polyline fill="none" stroke="black" points="18.5,-43.55 18.5,-66.05"/>
<text xml:space="preserve" text-anchor="middle" x="27.25" y="-49.2" font-family="monospace" font-size="13.00">⬤</text>
</g>
<!-- x&#45;&gt;4 -->
<g id="edge1" class="edge">
<title>x:f1&#45;&gt;4</title>
<path fill="none" stroke="black" d="M36,-54.8C44.42,-54.8 53.68,-54.87 61.73,-54.96"/>
<polygon fill="black" stroke="black" points="61.52,-58.46 71.57,-55.08 61.61,-51.46 61.52,-58.46"/>
</g>
<!-- y -->
<g id="node4" class="node">
<title>y</title>
<polygon fill="white" stroke="black" points="0,-1.45 0,-23.05 36,-23.05 36,-1.45 0,-1.45"/>
<text xml:space="preserve" text-anchor="middle" x="9.25" y="-7.7" font-family="monospace" font-size="13.00">y</text>
<polyline fill="none" stroke="black" points="18.5,-0.55 18.5,-23.05"/>
<text xml:space="preserve" text-anchor="middle" x="27.25" y="-6.2" font-family="monospace" font-size="13.00">⬤</text>
</g>
<!-- y&#45;&gt;5 -->
<g id="edge2" class="edge">
<title>y:f1&#45;&gt;5</title>
<path fill="none" stroke="black" d="M36,-11.8C44.42,-11.8 53.68,-11.87 61.73,-11.96"/>
<polygon fill="black" stroke="black" points="61.52,-15.46 71.57,-12.08 61.61,-8.46 61.52,-15.46"/>
</g>
</g>
</svg>
