<?xml version="1.0" encoding="UTF-8" standalone="no"?>
<!DOCTYPE svg PUBLIC "-//W3C//DTD SVG 1.1//EN"
 "http://www.w3.org/Graphics/SVG/1.1/DTD/svg11.dtd">
<!-- Generated by graphviz version 2.43.0 (0)
 -->
<!-- Title: %3 Pages: 1 -->
<svg width="166pt" height="207pt"
 viewBox="0.00 0.00 166.00 207.00" xmlns="http://www.w3.org/2000/svg" xmlns:xlink="http://www.w3.org/1999/xlink">
<g id="graph0" class="graph" transform="scale(1 1) rotate(0) translate(4 203)">
<title>%3</title>
<g id="clust1" class="cluster">
<title>cluster0</title>
<polygon fill="white" stroke="black" points="8,-8 8,-191 150,-191 150,-8 8,-8"/>
<text text-anchor="middle" x="79" y="-175.8" font-family="Lato" font-size="14.00">Marco global</text>
</g>
<!-- 3 -->
<g id="node1" class="node">
<title>3</title>
<ellipse fill="white" stroke="black" cx="124" cy="-61" rx="18" ry="18"/>
<text text-anchor="middle" x="124" y="-57.6" font-family="monospace" font-size="13.00">3</text>
</g>
<!-- 4 -->
<g id="node2" class="node">
<title>4</title>
<ellipse fill="white" stroke="black" cx="124" cy="-142" rx="18" ry="18"/>
<text text-anchor="middle" x="124" y="-138.6" font-family="monospace" font-size="13.00">4</text>
</g>
<!-- x -->
<g id="node3" class="node">
<title>x</title>
<polygon fill="transparent" stroke="transparent" points="70,-160 16,-160 16,-124 70,-124 70,-160"/>
<text text-anchor="middle" x="43" y="-138.6" font-family="monospace" font-size="13.00">x</text>
</g>
<!-- x&#45;&gt;4 -->
<g id="edge1" class="edge">
<title>x&#45;&gt;4</title>
<path fill="none" stroke="black" d="M61.14,-142C71.29,-142 84.37,-142 95.88,-142"/>
<polygon fill="black" stroke="black" points="95.89,-145.5 105.89,-142 95.89,-138.5 95.89,-145.5"/>
</g>
<!-- y -->
<g id="node4" class="node">
<title>y</title>
<polygon fill="transparent" stroke="transparent" points="70,-106 16,-106 16,-70 70,-70 70,-106"/>
<text text-anchor="middle" x="43" y="-84.6" font-family="monospace" font-size="13.00">y</text>
</g>
<!-- y&#45;&gt;3 -->
<g id="edge2" class="edge">
<title>y&#45;&gt;3</title>
<path fill="none" stroke="black" d="M61.14,-82.14C71.6,-78.57 85.18,-73.93 96.95,-69.9"/>
<polygon fill="black" stroke="black" points="98.37,-73.12 106.7,-66.57 96.11,-66.49 98.37,-73.12"/>
</g>
<!-- z -->
<g id="node5" class="node">
<title>z</title>
<polygon fill="transparent" stroke="transparent" points="70,-52 16,-52 16,-16 70,-16 70,-52"/>
<text text-anchor="middle" x="43" y="-30.6" font-family="monospace" font-size="13.00">z</text>
</g>
<!-- z&#45;&gt;3 -->
<g id="edge3" class="edge">
<title>z&#45;&gt;3</title>
<path fill="none" stroke="black" d="M61.14,-39.86C71.6,-43.43 85.18,-48.07 96.95,-52.1"/>
<polygon fill="black" stroke="black" points="96.11,-55.51 106.7,-55.43 98.37,-48.88 96.11,-55.51"/>
</g>
</g>
</svg>
