<?xml version="1.0" encoding="UTF-8" standalone="no"?>
<!DOCTYPE svg PUBLIC "-//W3C//DTD SVG 1.1//EN"
 "http://www.w3.org/Graphics/SVG/1.1/DTD/svg11.dtd">
<!-- Generated by graphviz version 2.43.0 (0)
 -->
<!-- Title: %3 Pages: 1 -->
<svg width="213pt" height="153pt"
 viewBox="0.00 0.00 213.00 153.00" xmlns="http://www.w3.org/2000/svg" xmlns:xlink="http://www.w3.org/1999/xlink">
<g id="graph0" class="graph" transform="scale(1 1) rotate(0) translate(4 149)">
<title>%3</title>
<g id="clust1" class="cluster">
<title>cluster0</title>
<path fill="#f2f2f2" stroke="black" d="M138,-22C138,-22 193,-22 193,-22 199,-22 205,-28 205,-34 205,-34 205,-111 205,-111 205,-117 199,-123 193,-123 193,-123 138,-123 138,-123 132,-123 126,-117 126,-111 126,-111 126,-34 126,-34 126,-28 132,-22 138,-22"/>
<text text-anchor="middle" x="165.5" y="-107.8" font-family="Lato" font-size="14.00">Montículo</text>
</g>
<g id="clust2" class="cluster">
<title>cluster1</title>
<polygon fill="white" stroke="black" points="8,-8 8,-137 106,-137 106,-8 8,-8"/>
<text text-anchor="middle" x="57" y="-121.8" font-family="Lato" font-size="14.00">Marco global</text>
</g>
<!-- 4 -->
<g id="node1" class="node">
<title>4</title>
<ellipse fill="white" stroke="black" cx="165" cy="-81" rx="11" ry="11"/>
<text text-anchor="middle" x="165" y="-77.6" font-family="Lato" font-size="13.00">4</text>
</g>
<!-- 5 -->
<g id="node2" class="node">
<title>5</title>
<ellipse fill="white" stroke="black" cx="165" cy="-41" rx="11" ry="11"/>
<text text-anchor="middle" x="165" y="-37.6" font-family="Lato" font-size="13.00">5</text>
</g>
<!-- x -->
<g id="node3" class="node">
<title>x</title>
<polygon fill="transparent" stroke="transparent" points="28.5,-106 27.5,-106 27.5,-70 28.5,-70 28.5,-106"/>
<text text-anchor="middle" x="28" y="-84.6" font-family="monospace" font-size="13.00">x</text>
</g>
<!-- v1 -->
<g id="node5" class="node">
<title>v1</title>
<polygon fill="white" stroke="black" points="98,-95 76,-95 76,-73 98,-73 98,-95"/>
<text text-anchor="middle" x="87" y="-80.6" font-family="monospace" font-size="13.00">⬤</text>
</g>
<!-- x&#45;&gt;v1 -->
<g id="edge1" class="edge">
<title>x&#45;&gt;v1</title>
<path fill="none" stroke="black" d="M36.45,-87.48C43.81,-86.96 55.4,-86.15 65.51,-85.44"/>
<polygon fill="black" stroke="black" points="65.92,-88.92 75.65,-84.73 65.43,-81.94 65.92,-88.92"/>
</g>
<!-- y -->
<g id="node4" class="node">
<title>y</title>
<polygon fill="transparent" stroke="transparent" points="28.5,-52 27.5,-52 27.5,-16 28.5,-16 28.5,-52"/>
<text text-anchor="middle" x="28" y="-30.6" font-family="monospace" font-size="13.00">y</text>
</g>
<!-- v2 -->
<g id="node6" class="node">
<title>v2</title>
<polygon fill="white" stroke="black" points="98,-48 76,-48 76,-26 98,-26 98,-48"/>
<text text-anchor="middle" x="87" y="-33.6" font-family="monospace" font-size="13.00">⬤</text>
</g>
<!-- y&#45;&gt;v2 -->
<g id="edge3" class="edge">
<title>y&#45;&gt;v2</title>
<path fill="none" stroke="black" d="M38.67,-34.51C45.99,-34.89 56.3,-35.44 65.43,-35.92"/>
<polygon fill="black" stroke="black" points="65.53,-39.43 75.7,-36.46 65.9,-32.44 65.53,-39.43"/>
</g>
<!-- v1&#45;&gt;4 -->
<g id="edge2" class="edge">
<title>v1&#45;&gt;4</title>
<path fill="none" stroke="black" d="M98.25,-83.6C109.87,-83.14 129.11,-82.38 143.78,-81.8"/>
<polygon fill="black" stroke="black" points="144.06,-85.29 153.91,-81.4 143.78,-78.3 144.06,-85.29"/>
</g>
<!-- v2&#45;&gt;5 -->
<g id="edge4" class="edge">
<title>v2&#45;&gt;5</title>
<path fill="none" stroke="black" d="M98.25,-37.54C109.87,-38.15 129.11,-39.16 143.78,-39.94"/>
<polygon fill="black" stroke="black" points="143.74,-43.44 153.91,-40.47 144.11,-36.45 143.74,-43.44"/>
</g>
</g>
</svg>
