<?xml version="1.0" encoding="UTF-8" standalone="no"?>
<!DOCTYPE svg PUBLIC "-//W3C//DTD SVG 1.1//EN"
 "http://www.w3.org/Graphics/SVG/1.1/DTD/svg11.dtd">
<!-- Generated by graphviz version 14.1.1 (0)
 -->
<!-- Pages: 1 -->
<svg width="167pt" height="155pt"
 viewBox="0.00 0.00 167.00 155.00" xmlns="http://www.w3.org/2000/svg" xmlns:xlink="http://www.w3.org/1999/xlink">
<g id="graph0" class="graph" transform="scale(1 1) rotate(0) translate(4 151)">
<g id="clust1" class="cluster">
<title>cluster0</title>
<polygon fill="white" stroke="black" points="0,-8 0,-139 94.75,-139 94.75,-8 0,-8"/>
<text xml:space="preserve" text-anchor="middle" x="47.38" y="-121.7" font-family="Lato" font-size="14.00">Marco global</text>
</g>
<!-- 3 -->
<g id="node1" class="node">
<title>3</title>
<ellipse fill="white" stroke="black" cx="140.75" cy="-34" rx="18" ry="18"/>
<text xml:space="preserve" text-anchor="middle" x="140.75" y="-29.9" font-family="Lato" font-size="13.00">3</text>
</g>
<!-- 4 -->
<g id="node2" class="node">
<title>4</title>
<ellipse fill="white" stroke="black" cx="140.75" cy="-88" rx="18" ry="18"/>
<text xml:space="preserve" text-anchor="middle" x="140.75" y="-83.9" font-family="Lato" font-size="13.00">4</text>
</g>
<!-- x -->
<g id="node3" class="node">
<title>x</title>
<polygon fill="none" stroke="none" points="73.88,-106 19.88,-106 19.88,-70 73.88,-70 73.88,-106"/>
<text xml:space="preserve" text-anchor="middle" x="46.88" y="-83.9" font-family="monospace" font-size="13.00">x</text>
</g>
<!-- x&#45;&gt;4 -->
<g id="edge1" class="edge">
<title>x&#45;&gt;4</title>
<path fill="none" stroke="black" d="M64.73,-88C77.64,-88 95.77,-88 110.97,-88"/>
<polygon fill="black" stroke="black" points="110.87,-91.5 120.87,-88 110.87,-84.5 110.87,-91.5"/>
</g>
<!-- y -->
<g id="node4" class="node">
<title>y</title>
<polygon fill="none" stroke="none" points="73.88,-52 19.88,-52 19.88,-16 73.88,-16 73.88,-52"/>
<text xml:space="preserve" text-anchor="middle" x="46.88" y="-29.9" font-family="monospace" font-size="13.00">y</text>
</g>
<!-- y&#45;&gt;3 -->
<g id="edge2" class="edge">
<title>y&#45;&gt;3</title>
<path fill="none" stroke="black" d="M64.73,-34C77.64,-34 95.77,-34 110.97,-34"/>
<polygon fill="black" stroke="black" points="110.87,-37.5 120.87,-34 110.87,-30.5 110.87,-37.5"/>
</g>
</g>
</svg>
