<?xml version="1.0" encoding="UTF-8" standalone="no"?>
<!DOCTYPE svg PUBLIC "-//W3C//DTD SVG 1.1//EN"
 "http://www.w3.org/Graphics/SVG/1.1/DTD/svg11.dtd">
<!-- Generated by graphviz version 2.40.1 (20161225.0304)
 -->
<!-- Title: %3 Pages: 1 -->
<svg width="576pt" height="531pt"
 viewBox="0.00 0.00 576.00 530.89" xmlns="http://www.w3.org/2000/svg" xmlns:xlink="http://www.w3.org/1999/xlink">
<g id="graph0" class="graph" transform="scale(3.4699 3.4699) rotate(0) translate(4 149)">
<title>%3</title>
<g id="clust1" class="cluster">
<title>cluster0</title>
<polygon fill="#ffffff" stroke="#000000" points="8,-8 8,-137 150,-137 150,-8 8,-8"/>
<text text-anchor="middle" x="79" y="-121.8" font-family="Lato" font-size="14.00" fill="#000000">Marco global</text>
</g>
<!-- 3 -->
<g id="node1" class="node">
<title>3</title>
<ellipse fill="#ffffff" stroke="#000000" cx="124" cy="-34" rx="18" ry="18"/>
<text text-anchor="middle" x="124" y="-30.6" font-family="monospace" font-size="13.00" fill="#000000">3</text>
</g>
<!-- 4 -->
<g id="node2" class="node">
<title>4</title>
<ellipse fill="#ffffff" stroke="#000000" cx="124" cy="-88" rx="18" ry="18"/>
<text text-anchor="middle" x="124" y="-84.6" font-family="monospace" font-size="13.00" fill="#000000">4</text>
</g>
<!-- x -->
<g id="node3" class="node">
<title>x</title>
<polygon fill="transparent" stroke="transparent" points="70,-106 16,-106 16,-70 70,-70 70,-106"/>
<text text-anchor="middle" x="43" y="-84.6" font-family="monospace" font-size="13.00" fill="#000000">x</text>
</g>
<!-- x&#45;&gt;4 -->
<g id="edge1" class="edge">
<title>x&#45;&gt;4</title>
<path fill="none" stroke="#000000" d="M61.3802,-88C71.4966,-88 84.2691,-88 95.6363,-88"/>
<polygon fill="#000000" stroke="#000000" points="95.9716,-91.5001 105.9716,-88 95.9716,-84.5001 95.9716,-91.5001"/>
</g>
<!-- y -->
<g id="node4" class="node">
<title>y</title>
<polygon fill="transparent" stroke="transparent" points="70,-52 16,-52 16,-16 70,-16 70,-52"/>
<text text-anchor="middle" x="43" y="-30.6" font-family="monospace" font-size="13.00" fill="#000000">y</text>
</g>
<!-- y&#45;&gt;3 -->
<g id="edge2" class="edge">
<title>y&#45;&gt;3</title>
<path fill="none" stroke="#000000" d="M61.3802,-34C71.4966,-34 84.2691,-34 95.6363,-34"/>
<polygon fill="#000000" stroke="#000000" points="95.9716,-37.5001 105.9716,-34 95.9716,-30.5001 95.9716,-37.5001"/>
</g>
</g>
</svg>
