<?xml version="1.0" encoding="UTF-8" standalone="no"?>
<!DOCTYPE svg PUBLIC "-//W3C//DTD SVG 1.1//EN"
 "http://www.w3.org/Graphics/SVG/1.1/DTD/svg11.dtd">
<!-- Generated by graphviz version 14.1.1 (0)
 -->
<!-- Pages: 1 -->
<svg width="434pt" height="44pt"
 viewBox="0.00 0.00 434.00 44.00" xmlns="http://www.w3.org/2000/svg" xmlns:xlink="http://www.w3.org/1999/xlink">
<g id="graph0" class="graph" transform="scale(1 1) rotate(0) translate(4 40)">
<!-- E -->
<g id="node1" class="node">
<title>E</title>
<polygon fill="none" stroke="none" points="21.9,-36 0,-36 0,0 21.9,0 21.9,-36"/>
<text xml:space="preserve" text-anchor="middle" x="10.95" y="-13.9" font-family="monospace" font-size="13.00">E</text>
</g>
<!-- Marco de la expresión lambda -->
<g id="node2" class="node">
<title>Marco de la expresión lambda</title>
<polygon fill="white" stroke="black" points="283.9,-36 57.9,-36 57.9,0 283.9,0 283.9,-36"/>
<text xml:space="preserve" text-anchor="middle" x="170.9" y="-13.9" font-family="monospace" font-size="13.00">Marco de la expresión lambda</text>
</g>
<!-- E&#45;&gt;Marco de la expresión lambda -->
<g id="edge1" class="edge">
<title>E&#45;&gt;Marco de la expresión lambda</title>
<path fill="none" stroke="black" d="M21.83,-18C27.93,-18 36.49,-18 46.44,-18"/>
<polygon fill="black" stroke="black" points="46.23,-21.5 56.23,-18 46.23,-14.5 46.23,-21.5"/>
</g>
<!-- Marco global -->
<g id="node3" class="node">
<title>Marco global</title>
<polygon fill="white" stroke="black" points="425.9,-36 319.9,-36 319.9,0 425.9,0 425.9,-36"/>
<text xml:space="preserve" text-anchor="middle" x="372.9" y="-13.9" font-family="monospace" font-size="13.00">Marco global</text>
</g>
<!-- Marco de la expresión lambda&#45;&gt;Marco global -->
<g id="edge2" class="edge">
<title>Marco de la expresión lambda&#45;&gt;Marco global</title>
<path fill="none" stroke="black" d="M284.18,-18C292.34,-18 300.39,-18 308.1,-18"/>
<polygon fill="black" stroke="black" points="308.02,-21.5 318.02,-18 308.02,-14.5 308.02,-21.5"/>
</g>
</g>
</svg>
