<?xml version="1.0" encoding="UTF-8" standalone="no"?>
<!DOCTYPE svg PUBLIC "-//W3C//DTD SVG 1.1//EN"
 "http://www.w3.org/Graphics/SVG/1.1/DTD/svg11.dtd">
<!-- Generated by graphviz version 2.43.0 (0)
 -->
<!-- Title: %3 Pages: 1 -->
<svg width="166pt" height="153pt"
 viewBox="0.00 0.00 166.00 153.00" xmlns="http://www.w3.org/2000/svg" xmlns:xlink="http://www.w3.org/1999/xlink">
<g id="graph0" class="graph" transform="scale(1 1) rotate(0) translate(4 149)">
<title>%3</title>
<g id="clust1" class="cluster">
<title>cluster0</title>
<polygon fill="white" stroke="black" points="8,-8 8,-137 150,-137 150,-8 8,-8"/>
<text text-anchor="middle" x="79" y="-121.8" font-family="Lato" font-size="14.00">Marco global</text>
</g>
<!-- 3 -->
<g id="node1" class="node">
<title>3</title>
<ellipse fill="white" stroke="black" cx="124" cy="-34" rx="18" ry="18"/>
<text text-anchor="middle" x="124" y="-30.6" font-family="monospace" font-size="13.00">3</text>
</g>
<!-- 4 -->
<g id="node2" class="node">
<title>4</title>
<ellipse fill="white" stroke="black" cx="124" cy="-88" rx="18" ry="18"/>
<text text-anchor="middle" x="124" y="-84.6" font-family="monospace" font-size="13.00">4</text>
</g>
<!-- x -->
<g id="node3" class="node">
<title>x</title>
<polygon fill="transparent" stroke="transparent" points="70,-106 16,-106 16,-70 70,-70 70,-106"/>
<text text-anchor="middle" x="43" y="-84.6" font-family="monospace" font-size="13.00">x</text>
</g>
<!-- x&#45;&gt;4 -->
<g id="edge1" class="edge">
<title>x&#45;&gt;4</title>
<path fill="none" stroke="black" d="M61.14,-88C71.29,-88 84.37,-88 95.88,-88"/>
<polygon fill="black" stroke="black" points="95.89,-91.5 105.89,-88 95.89,-84.5 95.89,-91.5"/>
</g>
<!-- y -->
<g id="node4" class="node">
<title>y</title>
<polygon fill="transparent" stroke="transparent" points="70,-52 16,-52 16,-16 70,-16 70,-52"/>
<text text-anchor="middle" x="43" y="-30.6" font-family="monospace" font-size="13.00">y</text>
</g>
<!-- y&#45;&gt;3 -->
<g id="edge2" class="edge">
<title>y&#45;&gt;3</title>
<path fill="none" stroke="black" d="M61.14,-34C71.29,-34 84.37,-34 95.88,-34"/>
<polygon fill="black" stroke="black" points="95.89,-37.5 105.89,-34 95.89,-30.5 95.89,-37.5"/>
</g>
</g>
</svg>
