<?xml version="1.0" encoding="UTF-8" standalone="no"?>
<!DOCTYPE svg PUBLIC "-//W3C//DTD SVG 1.1//EN"
 "http://www.w3.org/Graphics/SVG/1.1/DTD/svg11.dtd">
<!-- Generated by graphviz version 2.42.4 (0)
 -->
<!-- Pages: 1 -->
<svg width="167pt" height="153pt"
 viewBox="0.00 0.00 167.00 153.00" xmlns="http://www.w3.org/2000/svg" xmlns:xlink="http://www.w3.org/1999/xlink">
<g id="graph0" class="graph" transform="scale(1 1) rotate(0) translate(4 149)">
<g id="clust1" class="cluster">
<title>cluster0</title>
<polygon fill="white" stroke="black" points="0,-8 0,-137 95,-137 95,-8 0,-8"/>
<text text-anchor="middle" x="47.5" y="-121.8" font-family="Lato" font-size="14.00">Marco global</text>
</g>
<!-- 3 -->
<g id="node1" class="node">
<title>3</title>
<ellipse fill="white" stroke="black" cx="141" cy="-34" rx="18" ry="18"/>
<text text-anchor="middle" x="141" y="-30.6" font-family="Lato" font-size="13.00">3</text>
</g>
<!-- 4 -->
<g id="node2" class="node">
<title>4</title>
<ellipse fill="white" stroke="black" cx="141" cy="-88" rx="18" ry="18"/>
<text text-anchor="middle" x="141" y="-84.6" font-family="Lato" font-size="13.00">4</text>
</g>
<!-- x -->
<g id="node3" class="node">
<title>x</title>
<polygon fill="transparent" stroke="transparent" points="74,-106 20,-106 20,-70 74,-70 74,-106"/>
<text text-anchor="middle" x="47" y="-84.6" font-family="monospace" font-size="13.00">x</text>
</g>
<!-- x&#45;&gt;4 -->
<g id="edge1" class="edge">
<title>x&#45;&gt;4</title>
<path fill="none" stroke="black" d="M65.3,-88C78.54,-88 97.05,-88 112.34,-88"/>
<polygon fill="black" stroke="black" points="112.77,-91.5 122.77,-88 112.77,-84.5 112.77,-91.5"/>
</g>
<!-- y -->
<g id="node4" class="node">
<title>y</title>
<polygon fill="transparent" stroke="transparent" points="74,-52 20,-52 20,-16 74,-16 74,-52"/>
<text text-anchor="middle" x="47" y="-30.6" font-family="monospace" font-size="13.00">y</text>
</g>
<!-- y&#45;&gt;3 -->
<g id="edge2" class="edge">
<title>y&#45;&gt;3</title>
<path fill="none" stroke="black" d="M65.3,-34C78.54,-34 97.05,-34 112.34,-34"/>
<polygon fill="black" stroke="black" points="112.77,-37.5 122.77,-34 112.77,-30.5 112.77,-37.5"/>
</g>
</g>
</svg>
