<?xml version="1.0" encoding="UTF-8" standalone="no"?>
<!DOCTYPE svg PUBLIC "-//W3C//DTD SVG 1.1//EN"
 "http://www.w3.org/Graphics/SVG/1.1/DTD/svg11.dtd">
<!-- Generated by graphviz version 2.40.1 (20161225.0304)
 -->
<!-- Title: %3 Pages: 1 -->
<svg width="576pt" height="176pt"
 viewBox="0.00 0.00 576.00 176.45" xmlns="http://www.w3.org/2000/svg" xmlns:xlink="http://www.w3.org/1999/xlink">
<g id="graph0" class="graph" transform="scale(1.5615 1.5615) rotate(0) translate(4 109)">
<title>%3</title>
<g id="clust1" class="cluster">
<title>cluster0</title>
<path fill="#ffffff" stroke="#000000" d="M201.6,-8C201.6,-8 340.8707,-8 340.8707,-8 346.8707,-8 352.8707,-14 352.8707,-20 352.8707,-20 352.8707,-85 352.8707,-85 352.8707,-91 346.8707,-97 340.8707,-97 340.8707,-97 201.6,-97 201.6,-97 195.6,-97 189.6,-91 189.6,-85 189.6,-85 189.6,-20 189.6,-20 189.6,-14 195.6,-8 201.6,-8"/>
<text text-anchor="start" x="234.2354" y="-82.8" font-family="Lato" font-size="14.00" fill="#000000">Objeto </text>
<text text-anchor="start" x="283.2354" y="-82.8" font-family="Lato" font-weight="bold" font-size="14.00" fill="#000000">dep</text>
</g>
<g id="clust2" class="cluster">
<title>cluster1</title>
<polygon fill="#ffffff" stroke="#000000" points="31.6,-15 31.6,-90 132.6,-90 132.6,-15 31.6,-15"/>
<text text-anchor="start" x="39.6" y="-75.8" font-family="Lato" font-size="14.00" fill="#000000">Marco </text>
<text text-anchor="start" x="84.6" y="-75.8" font-family="Lato" font-weight="bold" font-size="14.00" fill="#000000">global</text>
</g>
<!-- 100 -->
<g id="node1" class="node">
<title>100</title>
<ellipse fill="#ffffff" stroke="#000000" cx="320.2354" cy="-41" rx="24.7715" ry="24.7715"/>
<text text-anchor="middle" x="320.2354" y="-37.6" font-family="monospace" font-size="13.00" fill="#000000">100</text>
</g>
<!-- dep -->
<g id="node2" class="node">
<title>dep</title>
<polygon fill="transparent" stroke="transparent" points="108.6,-59 54.6,-59 54.6,-23 108.6,-23 108.6,-59"/>
<text text-anchor="middle" x="81.6" y="-37.6" font-family="monospace" font-size="13.00" fill="#000000">dep</text>
</g>
<!-- fondos -->
<g id="node3" class="node">
<title>fondos</title>
<polygon fill="transparent" stroke="transparent" points="259.6,-59 197.6,-59 197.6,-23 259.6,-23 259.6,-59"/>
<text text-anchor="middle" x="228.6" y="-37.6" font-family="monospace" font-size="13.00" fill="#000000">fondos</text>
</g>
<!-- dep&#45;&gt;fondos -->
<g id="edge2" class="edge">
<title>dep&#45;&gt;fondos</title>
<path fill="none" stroke="#000000" d="M108.9051,-41C130.8457,-41 162.0221,-41 187.0565,-41"/>
<polygon fill="#000000" stroke="#000000" points="179.6001,-44.5004 189.6,-41 179.5999,-37.5004 179.6001,-44.5004"/>
</g>
<!-- fondos&#45;&gt;100 -->
<g id="edge1" class="edge">
<title>fondos&#45;&gt;100</title>
<path fill="none" stroke="#000000" d="M259.6236,-41C267.8013,-41 276.6834,-41 285.0627,-41"/>
<polygon fill="#000000" stroke="#000000" points="285.3167,-44.5001 295.3166,-41 285.3166,-37.5001 285.3167,-44.5001"/>
</g>
<!-- E -->
<g id="node4" class="node">
<title>E</title>
<ellipse fill="#ffffff" stroke="#000000" cx="1.8" cy="-41" rx="1.8" ry="1.8"/>
</g>
<!-- E&#45;&gt;dep -->
<g id="edge3" class="edge">
<title>E&#45;&gt;dep</title>
<path fill="none" stroke="#000000" d="M3.7726,-41C6.9018,-41 13.4837,-41 21.5572,-41"/>
<polygon fill="#000000" stroke="#000000" points="21.6024,-44.5001 31.6024,-41 21.6023,-37.5001 21.6024,-44.5001"/>
</g>
</g>
</svg>
