<?xml version="1.0" encoding="UTF-8" standalone="no"?>
<!DOCTYPE svg PUBLIC "-//W3C//DTD SVG 1.1//EN"
 "http://www.w3.org/Graphics/SVG/1.1/DTD/svg11.dtd">
<!-- Generated by graphviz version 14.1.2 (0)
 -->
<!-- Pages: 1 -->
<svg width="359pt" height="132pt"
 viewBox="0.00 0.00 359.00 132.00" xmlns="http://www.w3.org/2000/svg" xmlns:xlink="http://www.w3.org/1999/xlink">
<g id="graph0" class="graph" transform="scale(1 1) rotate(0) translate(4 128)">
<g id="clust1" class="cluster">
<title>cluster0</title>
<path fill="#f2f2f2" stroke="black" d="M158,-8C158,-8 331.05,-8 331.05,-8 337.05,-8 343.05,-14 343.05,-20 343.05,-20 343.05,-104 343.05,-104 343.05,-110 337.05,-116 331.05,-116 331.05,-116 158,-116 158,-116 152,-116 146,-110 146,-104 146,-104 146,-20 146,-20 146,-14 152,-8 158,-8"/>
<text xml:space="preserve" text-anchor="middle" x="244.52" y="-98.7" font-family="Lato" font-size="14.00">Montículo</text>
</g>
<g id="clust2" class="cluster">
<title>cluster1</title>
<path fill="white" stroke="black" d="M166,-16C166,-16 242.5,-16 242.5,-16 248.5,-16 254.5,-22 254.5,-28 254.5,-28 254.5,-71 254.5,-71 254.5,-77 248.5,-83 242.5,-83 242.5,-83 166,-83 166,-83 160,-83 154,-77 154,-71 154,-71 154,-28 154,-28 154,-22 160,-16 166,-16"/>
<text xml:space="preserve" text-anchor="start" x="169" y="-66.7" font-family="Lato" font-size="14.00">Objeto </text>
<text xml:space="preserve" text-anchor="start" x="215.5" y="-66.7" font-family="Lato" font-weight="bold" font-size="14.00">dep</text>
</g>
<g id="clust3" class="cluster">
<title>cluster2</title>
<polygon fill="white" stroke="black" points="0,-16 0,-83 97,-83 97,-16 0,-16"/>
<text xml:space="preserve" text-anchor="start" x="8" y="-66.7" font-family="Lato" font-size="14.00">Marco </text>
<text xml:space="preserve" text-anchor="start" x="50.75" y="-66.7" font-family="Lato" font-weight="bold" font-size="14.00">global</text>
</g>
<!-- 100 -->
<g id="node1" class="node">
<title>100</title>
<ellipse fill="white" stroke="black" cx="308.77" cy="-42" rx="26.27" ry="26.27"/>
<text xml:space="preserve" text-anchor="middle" x="308.77" y="-37.9" font-family="monospace" font-size="13.00">100</text>
</g>
<!-- fondos -->
<g id="node2" class="node">
<title>fondos</title>
<polygon fill="white" stroke="black" points="162,-24.75 162,-49.25 246.5,-49.25 246.5,-24.75 162,-24.75"/>
<text xml:space="preserve" text-anchor="middle" x="192.5" y="-32.9" font-family="monospace" font-size="13.00">fondos</text>
<polyline fill="none" stroke="black" points="223,-24.75 223,-49.25"/>
<text xml:space="preserve" text-anchor="middle" x="234.75" y="-31.4" font-family="monospace" font-size="13.00">⬤</text>
</g>
<!-- fondos&#45;&gt;100 -->
<g id="edge1" class="edge">
<title>fondos:f1&#45;&gt;100</title>
<path fill="none" stroke="black" d="M247.5,-37C255.1,-37 263.22,-37.4 270.96,-37.97"/>
<polygon fill="black" stroke="black" points="270.53,-41.45 280.79,-38.82 271.13,-34.47 270.53,-41.45"/>
</g>
<!-- dep -->
<g id="node3" class="node">
<title>dep</title>
<polygon fill="white" stroke="black" points="17,-24.75 17,-49.25 79,-49.25 79,-24.75 17,-24.75"/>
<text xml:space="preserve" text-anchor="middle" x="36.25" y="-32.9" font-family="monospace" font-size="13.00">dep</text>
<polyline fill="none" stroke="black" points="55.5,-24.75 55.5,-49.25"/>
<text xml:space="preserve" text-anchor="middle" x="67.25" y="-31.4" font-family="monospace" font-size="13.00">⬤</text>
</g>
<!-- dep&#45;&gt;fondos -->
<g id="edge2" class="edge">
<title>dep:f1&#45;&gt;fondos</title>
<path fill="none" stroke="black" d="M80,-37C103.03,-37 128.49,-37 150.26,-37"/>
<polygon fill="black" stroke="black" points="142.49,-40.5 152.49,-37 142.49,-33.5 142.49,-40.5"/>
</g>
</g>
</svg>
