<?xml version="1.0" encoding="UTF-8" standalone="no"?>
<!DOCTYPE svg PUBLIC "-//W3C//DTD SVG 1.1//EN"
 "http://www.w3.org/Graphics/SVG/1.1/DTD/svg11.dtd">
<!-- Generated by graphviz version 2.42.4 (0)
 -->
<!-- Pages: 1 -->
<svg width="546pt" height="266pt"
 viewBox="0.00 0.00 546.27 266.00" xmlns="http://www.w3.org/2000/svg" xmlns:xlink="http://www.w3.org/1999/xlink">
<g id="graph0" class="graph" transform="scale(1 1) rotate(0) translate(4 262)">
<g id="clust2" class="cluster">
<title>cluster3</title>
<path fill="white" stroke="black" d="M140,-146C140,-146 240,-146 240,-146 246,-146 252,-152 252,-158 252,-158 252,-238 252,-238 252,-244 246,-250 240,-250 240,-250 140,-250 140,-250 134,-250 128,-244 128,-238 128,-238 128,-158 128,-158 128,-152 134,-146 140,-146"/>
<text text-anchor="start" x="168.5" y="-234.8" font-family="Lato" font-size="14.00">Objeto</text>
</g>
<g id="clust1" class="cluster">
<title>cluster2</title>
<path fill="white" stroke="black" d="M369.27,-17C369.27,-17 462.27,-17 462.27,-17 468.27,-17 474.27,-23 474.27,-29 474.27,-29 474.27,-191 474.27,-191 474.27,-197 468.27,-203 462.27,-203 462.27,-203 369.27,-203 369.27,-203 363.27,-203 357.27,-197 357.27,-191 357.27,-191 357.27,-29 357.27,-29 357.27,-23 363.27,-17 369.27,-17"/>
<text text-anchor="start" x="368.27" y="-188.8" font-family="Lato" font-size="14.00">Clase </text>
<text text-anchor="start" x="405.27" y="-188.8" font-family="Lato" font-weight="bold" font-size="14.00">Deposito</text>
</g>
<!-- l1 -->
<g id="node1" class="node">
<title>l1</title>
<ellipse fill="white" stroke="black" cx="520.27" cy="-180" rx="18" ry="18"/>
<text text-anchor="middle" x="520.27" y="-176.6" font-family="monospace" font-size="13.00">λ</text>
</g>
<!-- l2 -->
<g id="node2" class="node">
<title>l2</title>
<ellipse fill="white" stroke="black" cx="520.27" cy="-126" rx="18" ry="18"/>
<text text-anchor="middle" x="520.27" y="-122.6" font-family="monospace" font-size="13.00">λ</text>
</g>
<!-- l3 -->
<g id="node3" class="node">
<title>l3</title>
<ellipse fill="white" stroke="black" cx="520.27" cy="-72" rx="18" ry="18"/>
<text text-anchor="middle" x="520.27" y="-68.6" font-family="monospace" font-size="13.00">λ</text>
</g>
<!-- l4 -->
<g id="node4" class="node">
<title>l4</title>
<ellipse fill="white" stroke="black" cx="520.27" cy="-18" rx="18" ry="18"/>
<text text-anchor="middle" x="520.27" y="-14.6" font-family="monospace" font-size="13.00">λ</text>
</g>
<!-- p3 -->
<g id="node5" class="node">
<title>p3</title>
<ellipse fill="white" stroke="black" cx="304.64" cy="-213" rx="24.77" ry="24.77"/>
<text text-anchor="middle" x="304.64" y="-209.6" font-family="monospace" font-size="13.00">100</text>
</g>
<!-- init -->
<g id="node6" class="node">
<title>init</title>
<polygon fill="white" stroke="black" points="365.27,-149 365.27,-171 466.27,-171 466.27,-149 365.27,-149"/>
<text text-anchor="middle" x="403.77" y="-156.6" font-family="monospace" font-size="13.00">__init__</text>
<polyline fill="none" stroke="black" points="442.27,-149 442.27,-171 "/>
<text text-anchor="middle" x="454.27" y="-156.6" font-family="monospace" font-size="13.00">⬤</text>
</g>
<!-- init&#45;&gt;l1 -->
<g id="edge4" class="edge">
<title>init:f1&#45;&gt;l1</title>
<path fill="none" stroke="black" d="M467.77,-160C477.15,-160 486.87,-162.92 495.31,-166.52"/>
<polygon fill="black" stroke="black" points="494,-169.77 504.53,-170.94 497.02,-163.46 494,-169.77"/>
</g>
<!-- retirar -->
<g id="node7" class="node">
<title>retirar</title>
<polygon fill="white" stroke="black" points="369.27,-108 369.27,-130 462.27,-130 462.27,-108 369.27,-108"/>
<text text-anchor="middle" x="403.77" y="-115.6" font-family="monospace" font-size="13.00">retirar</text>
<polyline fill="none" stroke="black" points="438.27,-108 438.27,-130 "/>
<text text-anchor="middle" x="450.27" y="-115.6" font-family="monospace" font-size="13.00">⬤</text>
</g>
<!-- retirar&#45;&gt;l2 -->
<g id="edge5" class="edge">
<title>retirar:f1&#45;&gt;l2</title>
<path fill="none" stroke="black" d="M463.77,-119C473.12,-119 483.3,-119.99 492.35,-121.23"/>
<polygon fill="black" stroke="black" points="491.92,-124.7 502.34,-122.75 492.98,-117.78 491.92,-124.7"/>
</g>
<!-- ingresar -->
<g id="node8" class="node">
<title>ingresar</title>
<polygon fill="white" stroke="black" points="365.27,-67 365.27,-89 466.27,-89 466.27,-67 365.27,-67"/>
<text text-anchor="middle" x="403.77" y="-74.6" font-family="monospace" font-size="13.00">ingresar</text>
<polyline fill="none" stroke="black" points="442.27,-67 442.27,-89 "/>
<text text-anchor="middle" x="454.27" y="-74.6" font-family="monospace" font-size="13.00">⬤</text>
</g>
<!-- ingresar&#45;&gt;l3 -->
<g id="edge6" class="edge">
<title>ingresar:f1&#45;&gt;l3</title>
<path fill="none" stroke="black" d="M467.77,-78C475.69,-78 484.25,-77.29 492.08,-76.36"/>
<polygon fill="black" stroke="black" points="492.72,-79.81 502.16,-75 491.78,-72.87 492.72,-79.81"/>
</g>
<!-- saldo -->
<g id="node9" class="node">
<title>saldo</title>
<polygon fill="white" stroke="black" points="376.77,-26 376.77,-48 454.77,-48 454.77,-26 376.77,-26"/>
<text text-anchor="middle" x="403.77" y="-33.6" font-family="monospace" font-size="13.00">saldo</text>
<polyline fill="none" stroke="black" points="430.77,-26 430.77,-48 "/>
<text text-anchor="middle" x="442.77" y="-33.6" font-family="monospace" font-size="13.00">⬤</text>
</g>
<!-- saldo&#45;&gt;l4 -->
<g id="edge7" class="edge">
<title>saldo:f1&#45;&gt;l4</title>
<path fill="none" stroke="black" d="M455.77,-37C468.85,-37 482.84,-33.25 494.35,-29.09"/>
<polygon fill="black" stroke="black" points="495.71,-32.31 503.74,-25.4 493.15,-25.8 495.71,-32.31"/>
</g>
<!-- fondos -->
<g id="node10" class="node">
<title>fondos</title>
<polygon fill="white" stroke="black" points="147,-196 147,-218 233,-218 233,-196 147,-196"/>
<text text-anchor="middle" x="178" y="-203.6" font-family="monospace" font-size="13.00">fondos</text>
<polyline fill="none" stroke="black" points="209,-196 209,-218 "/>
<text text-anchor="middle" x="221" y="-203.6" font-family="monospace" font-size="13.00">⬤</text>
</g>
<!-- fondos&#45;&gt;p3 -->
<g id="edge3" class="edge">
<title>fondos:f1&#45;&gt;p3</title>
<path fill="none" stroke="black" d="M234,-207C245.8,-207 258.68,-207.87 270.12,-208.94"/>
<polygon fill="black" stroke="black" points="269.84,-212.43 280.15,-209.96 270.56,-205.47 269.84,-212.43"/>
</g>
<!-- __class__ -->
<g id="node11" class="node">
<title>__class__</title>
<polygon fill="white" stroke="black" points="136,-155 136,-177 244,-177 244,-155 136,-155"/>
<text text-anchor="middle" x="178" y="-162.6" font-family="monospace" font-size="13.00">__class__</text>
<polyline fill="none" stroke="black" points="220,-155 220,-177 "/>
<text text-anchor="middle" x="232" y="-162.6" font-family="monospace" font-size="13.00">⬤</text>
</g>
<!-- __class__&#45;&gt;init -->
<g id="edge1" class="edge">
<title>__class__:f1&#45;&gt;init</title>
<path fill="none" stroke="black" d="M245,-166C281.46,-166 322.29,-164.6 354.78,-163.15"/>
<polygon fill="black" stroke="black" points="348.09,-167.98 357.27,-162.68 346.8,-161.1 348.09,-167.98"/>
</g>
<!-- dep -->
<g id="node12" class="node">
<title>dep</title>
<polygon fill="white" stroke="black" points="0,-196 0,-218 63,-218 63,-196 0,-196"/>
<text text-anchor="middle" x="19.5" y="-203.6" font-family="monospace" font-size="13.00">dep</text>
<polyline fill="none" stroke="black" points="39,-196 39,-218 "/>
<text text-anchor="middle" x="51" y="-203.6" font-family="monospace" font-size="13.00">⬤</text>
</g>
<!-- dep&#45;&gt;fondos -->
<g id="edge2" class="edge">
<title>dep:f1&#45;&gt;fondos</title>
<path fill="none" stroke="black" d="M63,-207C80.79,-207 99.99,-207 117.91,-207"/>
<polygon fill="black" stroke="black" points="118,-210.5 128,-207 118,-203.5 118,-210.5"/>
</g>
</g>
</svg>
