<?xml version="1.0" encoding="UTF-8" standalone="no"?>
<!DOCTYPE svg PUBLIC "-//W3C//DTD SVG 1.1//EN"
 "http://www.w3.org/Graphics/SVG/1.1/DTD/svg11.dtd">
<!-- Generated by graphviz version 2.43.0 (0)
 -->
<!-- Title: %3 Pages: 1 -->
<svg width="298pt" height="138pt"
 viewBox="0.00 0.00 298.00 138.00" xmlns="http://www.w3.org/2000/svg" xmlns:xlink="http://www.w3.org/1999/xlink">
<g id="graph0" class="graph" transform="scale(1 1) rotate(0) translate(4 134)">
<title>%3</title>
<g id="clust1" class="cluster">
<title>cluster0</title>
<path fill="#f2f2f2" stroke="black" d="M159,-8C159,-8 270,-8 270,-8 276,-8 282,-14 282,-20 282,-20 282,-110 282,-110 282,-116 276,-122 270,-122 270,-122 159,-122 159,-122 153,-122 147,-116 147,-110 147,-110 147,-20 147,-20 147,-14 153,-8 159,-8"/>
<text text-anchor="middle" x="214.5" y="-106.8" font-family="Lato" font-size="14.00">Montículo</text>
</g>
<g id="clust2" class="cluster">
<title>cluster1</title>
<polygon fill="white" stroke="black" points="155,-16 155,-91 274,-91 274,-16 155,-16"/>
<text text-anchor="start" x="178.5" y="-76.8" font-family="Lato" font-size="14.00">Objeto </text>
<text text-anchor="start" x="225.5" y="-76.8" font-family="Lato" font-weight="bold" font-size="14.00">dep</text>
</g>
<g id="clust3" class="cluster">
<title>cluster2</title>
<polygon fill="white" stroke="black" points="0,-16 0,-91 98,-91 98,-16 0,-16"/>
<text text-anchor="start" x="8" y="-76.8" font-family="Lato" font-size="14.00">Marco </text>
<text text-anchor="start" x="51" y="-76.8" font-family="Lato" font-weight="bold" font-size="14.00">global</text>
</g>
<!-- dep -->
<g id="node1" class="node">
<title>dep</title>
<polygon fill="transparent" stroke="transparent" points="76,-60 22,-60 22,-24 76,-24 76,-60"/>
<text text-anchor="middle" x="49" y="-38.6" font-family="monospace" font-size="13.00">dep</text>
</g>
<!-- fondos -->
<g id="node2" class="node">
<title>fondos</title>
<polygon fill="transparent" stroke="transparent" points="266,-60 163,-60 163,-24 266,-24 266,-60"/>
<polygon fill="none" stroke="black" points="173.5,-32 173.5,-52 225.5,-52 225.5,-32 173.5,-32"/>
<text text-anchor="start" x="176.5" y="-38.6" font-family="monospace" font-size="13.00">fondos</text>
<polygon fill="none" stroke="black" points="227.5,-32 227.5,-52 256.5,-52 256.5,-32 227.5,-32"/>
<text text-anchor="start" x="230.5" y="-38.6" font-family="monospace" font-size="13.00">100</text>
</g>
<!-- dep&#45;&gt;fondos -->
<g id="edge1" class="edge">
<title>dep&#45;&gt;fondos</title>
<path fill="none" stroke="black" d="M76.27,-42C96.83,-42 126.25,-42 152.59,-42"/>
<polygon fill="black" stroke="black" points="145,-45.5 155,-42 145,-38.5 145,-45.5"/>
</g>
</g>
</svg>
