<?xml version="1.0" encoding="UTF-8" standalone="no"?>
<!DOCTYPE svg PUBLIC "-//W3C//DTD SVG 1.1//EN"
 "http://www.w3.org/Graphics/SVG/1.1/DTD/svg11.dtd">
<!-- Generated by graphviz version 2.40.1 (20161225.0304)
 -->
<!-- Title: %3 Pages: 1 -->
<svg width="576pt" height="193pt"
 viewBox="0.00 0.00 576.00 192.98" xmlns="http://www.w3.org/2000/svg" xmlns:xlink="http://www.w3.org/1999/xlink">
<g id="graph0" class="graph" transform="scale(1.7078 1.7078) rotate(0) translate(4 109)">
<title>%3</title>
<g id="clust1" class="cluster">
<title>cluster0</title>
<path fill="#ffffff" stroke="#000000" d="M170,-8C170,-8 309.2707,-8 309.2707,-8 315.2707,-8 321.2707,-14 321.2707,-20 321.2707,-20 321.2707,-85 321.2707,-85 321.2707,-91 315.2707,-97 309.2707,-97 309.2707,-97 170,-97 170,-97 164,-97 158,-91 158,-85 158,-85 158,-20 158,-20 158,-14 164,-8 170,-8"/>
<text text-anchor="start" x="202.6354" y="-82.8" font-family="Lato" font-size="14.00" fill="#000000">Objeto </text>
<text text-anchor="start" x="251.6354" y="-82.8" font-family="Lato" font-weight="bold" font-size="14.00" fill="#000000">dep</text>
</g>
<g id="clust2" class="cluster">
<title>cluster1</title>
<polygon fill="#ffffff" stroke="#000000" points="0,-15 0,-90 101,-90 101,-15 0,-15"/>
<text text-anchor="start" x="8" y="-75.8" font-family="Lato" font-size="14.00" fill="#000000">Marco </text>
<text text-anchor="start" x="53" y="-75.8" font-family="Lato" font-weight="bold" font-size="14.00" fill="#000000">global</text>
</g>
<!-- 100 -->
<g id="node1" class="node">
<title>100</title>
<ellipse fill="#ffffff" stroke="#000000" cx="288.6354" cy="-41" rx="24.7715" ry="24.7715"/>
<text text-anchor="middle" x="288.6354" y="-37.6" font-family="monospace" font-size="13.00" fill="#000000">100</text>
</g>
<!-- dep -->
<g id="node2" class="node">
<title>dep</title>
<polygon fill="transparent" stroke="transparent" points="77,-59 23,-59 23,-23 77,-23 77,-59"/>
<text text-anchor="middle" x="50" y="-37.6" font-family="monospace" font-size="13.00" fill="#000000">dep</text>
</g>
<!-- fondos -->
<g id="node3" class="node">
<title>fondos</title>
<polygon fill="transparent" stroke="transparent" points="228,-59 166,-59 166,-23 228,-23 228,-59"/>
<text text-anchor="middle" x="197" y="-37.6" font-family="monospace" font-size="13.00" fill="#000000">fondos</text>
</g>
<!-- dep&#45;&gt;fondos -->
<g id="edge2" class="edge">
<title>dep&#45;&gt;fondos</title>
<path fill="none" stroke="#000000" d="M77.3051,-41C99.2457,-41 130.4221,-41 155.4565,-41"/>
<polygon fill="#000000" stroke="#000000" points="148.0001,-44.5004 158,-41 147.9999,-37.5004 148.0001,-44.5004"/>
</g>
<!-- fondos&#45;&gt;100 -->
<g id="edge1" class="edge">
<title>fondos&#45;&gt;100</title>
<path fill="none" stroke="#000000" d="M228.0236,-41C236.2013,-41 245.0834,-41 253.4627,-41"/>
<polygon fill="#000000" stroke="#000000" points="253.7167,-44.5001 263.7166,-41 253.7166,-37.5001 253.7167,-44.5001"/>
</g>
</g>
</svg>
