<?xml version="1.0" encoding="UTF-8" standalone="no"?>
<!DOCTYPE svg PUBLIC "-//W3C//DTD SVG 1.1//EN"
 "http://www.w3.org/Graphics/SVG/1.1/DTD/svg11.dtd">
<!-- Generated by graphviz version 2.40.1 (20161225.0304)
 -->
<!-- Title: %3 Pages: 1 -->
<svg width="576pt" height="254pt"
 viewBox="0.00 0.00 576.00 253.57" xmlns="http://www.w3.org/2000/svg" xmlns:xlink="http://www.w3.org/1999/xlink">
<g id="graph0" class="graph" transform="scale(1.6683 1.6683) rotate(0) translate(4 148)">
<title>%3</title>
<g id="clust1" class="cluster">
<title>cluster0</title>
<path fill="#f2f2f2" stroke="#000000" d="M162,-8C162,-8 317.2707,-8 317.2707,-8 323.2707,-8 329.2707,-14 329.2707,-20 329.2707,-20 329.2707,-124 329.2707,-124 329.2707,-130 323.2707,-136 317.2707,-136 317.2707,-136 162,-136 162,-136 156,-136 150,-130 150,-124 150,-124 150,-20 150,-20 150,-14 156,-8 162,-8"/>
<text text-anchor="middle" x="239.6354" y="-120.8" font-family="Lato" font-size="14.00" fill="#000000">Montículo</text>
</g>
<g id="clust2" class="cluster">
<title>cluster1</title>
<polygon fill="#ffffff" stroke="#000000" points="158,-16 158,-105 321.2707,-105 321.2707,-16 158,-16"/>
<text text-anchor="start" x="202.6354" y="-90.8" font-family="Lato" font-size="14.00" fill="#000000">Objeto </text>
<text text-anchor="start" x="251.6354" y="-90.8" font-family="Lato" font-weight="bold" font-size="14.00" fill="#000000">dep</text>
</g>
<g id="clust3" class="cluster">
<title>cluster2</title>
<polygon fill="#ffffff" stroke="#000000" points="0,-23 0,-98 101,-98 101,-23 0,-23"/>
<text text-anchor="start" x="8" y="-83.8" font-family="Lato" font-size="14.00" fill="#000000">Marco </text>
<text text-anchor="start" x="53" y="-83.8" font-family="Lato" font-weight="bold" font-size="14.00" fill="#000000">global</text>
</g>
<!-- 100 -->
<g id="node1" class="node">
<title>100</title>
<ellipse fill="#ffffff" stroke="#000000" cx="288.6354" cy="-49" rx="24.7715" ry="24.7715"/>
<text text-anchor="middle" x="288.6354" y="-45.6" font-family="monospace" font-size="13.00" fill="#000000">100</text>
</g>
<!-- dep -->
<g id="node2" class="node">
<title>dep</title>
<polygon fill="transparent" stroke="transparent" points="77,-67 23,-67 23,-31 77,-31 77,-67"/>
<text text-anchor="middle" x="50" y="-45.6" font-family="monospace" font-size="13.00" fill="#000000">dep</text>
</g>
<!-- fondos -->
<g id="node3" class="node">
<title>fondos</title>
<polygon fill="transparent" stroke="transparent" points="228,-67 166,-67 166,-31 228,-31 228,-67"/>
<text text-anchor="middle" x="197" y="-45.6" font-family="monospace" font-size="13.00" fill="#000000">fondos</text>
</g>
<!-- dep&#45;&gt;fondos -->
<g id="edge2" class="edge">
<title>dep&#45;&gt;fondos</title>
<path fill="none" stroke="#000000" d="M77.3051,-49C99.2457,-49 130.4221,-49 155.4565,-49"/>
<polygon fill="#000000" stroke="#000000" points="148.0001,-52.5004 158,-49 147.9999,-45.5004 148.0001,-52.5004"/>
</g>
<!-- fondos&#45;&gt;100 -->
<g id="edge1" class="edge">
<title>fondos&#45;&gt;100</title>
<path fill="none" stroke="#000000" d="M228.0236,-49C236.2013,-49 245.0834,-49 253.4627,-49"/>
<polygon fill="#000000" stroke="#000000" points="253.7167,-52.5001 263.7166,-49 253.7166,-45.5001 253.7167,-52.5001"/>
</g>
</g>
</svg>
