<?xml version="1.0" encoding="UTF-8" standalone="no"?>
<!DOCTYPE svg PUBLIC "-//W3C//DTD SVG 1.1//EN"
 "http://www.w3.org/Graphics/SVG/1.1/DTD/svg11.dtd">
<!-- Generated by graphviz version 2.42.4 (0)
 -->
<!-- Pages: 1 -->
<svg width="358pt" height="126pt"
 viewBox="0.00 0.00 358.27 126.00" xmlns="http://www.w3.org/2000/svg" xmlns:xlink="http://www.w3.org/1999/xlink">
<g id="graph0" class="graph" transform="scale(1 1) rotate(0) translate(4 122)">
<g id="clust1" class="cluster">
<title>cluster0</title>
<path fill="#f2f2f2" stroke="black" d="M159,-8C159,-8 330.27,-8 330.27,-8 336.27,-8 342.27,-14 342.27,-20 342.27,-20 342.27,-98 342.27,-98 342.27,-104 336.27,-110 330.27,-110 330.27,-110 159,-110 159,-110 153,-110 147,-104 147,-98 147,-98 147,-20 147,-20 147,-14 153,-8 159,-8"/>
<text text-anchor="middle" x="244.64" y="-94.8" font-family="Lato" font-size="14.00">Montículo</text>
</g>
<g id="clust2" class="cluster">
<title>cluster1</title>
<path fill="white" stroke="black" d="M167,-16C167,-16 245,-16 245,-16 251,-16 257,-22 257,-28 257,-28 257,-67 257,-67 257,-73 251,-79 245,-79 245,-79 167,-79 167,-79 161,-79 155,-73 155,-67 155,-67 155,-28 155,-28 155,-22 161,-16 167,-16"/>
<text text-anchor="start" x="170" y="-64.8" font-family="Lato" font-size="14.00">Objeto </text>
<text text-anchor="start" x="217" y="-64.8" font-family="Lato" font-weight="bold" font-size="14.00">dep</text>
</g>
<g id="clust3" class="cluster">
<title>cluster2</title>
<polygon fill="white" stroke="black" points="0,-16 0,-79 98,-79 98,-16 0,-16"/>
<text text-anchor="start" x="8" y="-64.8" font-family="Lato" font-size="14.00">Marco </text>
<text text-anchor="start" x="51" y="-64.8" font-family="Lato" font-weight="bold" font-size="14.00">global</text>
</g>
<!-- 100 -->
<g id="node1" class="node">
<title>100</title>
<ellipse fill="white" stroke="black" cx="309.64" cy="-41" rx="24.77" ry="24.77"/>
<text text-anchor="middle" x="309.64" y="-37.6" font-family="monospace" font-size="13.00">100</text>
</g>
<!-- fondos -->
<g id="node2" class="node">
<title>fondos</title>
<polygon fill="white" stroke="black" points="163,-25 163,-47 249,-47 249,-25 163,-25"/>
<text text-anchor="middle" x="194" y="-32.6" font-family="monospace" font-size="13.00">fondos</text>
<polyline fill="none" stroke="black" points="225,-25 225,-47 "/>
<text text-anchor="middle" x="237" y="-32.6" font-family="monospace" font-size="13.00">⬤</text>
</g>
<!-- fondos&#45;&gt;100 -->
<g id="edge1" class="edge">
<title>fondos:f1&#45;&gt;100</title>
<path fill="none" stroke="black" d="M250,-36C258.12,-36 266.84,-36.48 275.02,-37.15"/>
<polygon fill="black" stroke="black" points="274.72,-40.63 284.99,-38.06 275.36,-33.66 274.72,-40.63"/>
</g>
<!-- dep -->
<g id="node3" class="node">
<title>dep</title>
<polygon fill="white" stroke="black" points="17,-25 17,-47 80,-47 80,-25 17,-25"/>
<text text-anchor="middle" x="36.5" y="-32.6" font-family="monospace" font-size="13.00">dep</text>
<polyline fill="none" stroke="black" points="56,-25 56,-47 "/>
<text text-anchor="middle" x="68" y="-32.6" font-family="monospace" font-size="13.00">⬤</text>
</g>
<!-- dep&#45;&gt;fondos -->
<g id="edge2" class="edge">
<title>dep:f1&#45;&gt;fondos</title>
<path fill="none" stroke="black" d="M81.5,-36C104.91,-36 130.83,-36 152.84,-36"/>
<polygon fill="black" stroke="black" points="145,-39.5 155,-36 145,-32.5 145,-39.5"/>
</g>
</g>
</svg>
