<?xml version="1.0" encoding="UTF-8" standalone="no"?>
<!DOCTYPE svg PUBLIC "-//W3C//DTD SVG 1.1//EN"
 "http://www.w3.org/Graphics/SVG/1.1/DTD/svg11.dtd">
<!-- Generated by graphviz version 2.43.0 (0)
 -->
<!-- Title: %3 Pages: 1 -->
<svg width="342pt" height="152pt"
 viewBox="0.00 0.00 342.27 152.00" xmlns="http://www.w3.org/2000/svg" xmlns:xlink="http://www.w3.org/1999/xlink">
<g id="graph0" class="graph" transform="scale(1 1) rotate(0) translate(4 148)">
<title>%3</title>
<g id="clust1" class="cluster">
<title>cluster0</title>
<path fill="#f2f2f2" stroke="black" d="M159,-8C159,-8 314.27,-8 314.27,-8 320.27,-8 326.27,-14 326.27,-20 326.27,-20 326.27,-124 326.27,-124 326.27,-130 320.27,-136 314.27,-136 314.27,-136 159,-136 159,-136 153,-136 147,-130 147,-124 147,-124 147,-20 147,-20 147,-14 153,-8 159,-8"/>
<text text-anchor="middle" x="236.64" y="-120.8" font-family="Lato" font-size="14.00">Montículo</text>
</g>
<g id="clust2" class="cluster">
<title>cluster1</title>
<polygon fill="white" stroke="black" points="155,-16 155,-105 318.27,-105 318.27,-16 155,-16"/>
<text text-anchor="start" x="200.64" y="-90.8" font-family="Lato" font-size="14.00">Objeto </text>
<text text-anchor="start" x="247.64" y="-90.8" font-family="Lato" font-weight="bold" font-size="14.00">dep</text>
</g>
<g id="clust3" class="cluster">
<title>cluster2</title>
<polygon fill="white" stroke="black" points="0,-23 0,-98 98,-98 98,-23 0,-23"/>
<text text-anchor="start" x="8" y="-83.8" font-family="Lato" font-size="14.00">Marco </text>
<text text-anchor="start" x="51" y="-83.8" font-family="Lato" font-weight="bold" font-size="14.00">global</text>
</g>
<!-- 100 -->
<g id="node1" class="node">
<title>100</title>
<ellipse fill="white" stroke="black" cx="285.64" cy="-49" rx="24.77" ry="24.77"/>
<text text-anchor="middle" x="285.64" y="-45.6" font-family="monospace" font-size="13.00">100</text>
</g>
<!-- dep -->
<g id="node2" class="node">
<title>dep</title>
<polygon fill="transparent" stroke="transparent" points="76,-67 22,-67 22,-31 76,-31 76,-67"/>
<text text-anchor="middle" x="49" y="-45.6" font-family="monospace" font-size="13.00">dep</text>
</g>
<!-- fondos -->
<g id="node3" class="node">
<title>fondos</title>
<polygon fill="transparent" stroke="transparent" points="225,-67 163,-67 163,-31 225,-31 225,-67"/>
<text text-anchor="middle" x="194" y="-45.6" font-family="monospace" font-size="13.00">fondos</text>
</g>
<!-- dep&#45;&gt;fondos -->
<g id="edge2" class="edge">
<title>dep&#45;&gt;fondos</title>
<path fill="none" stroke="black" d="M76.23,-49C97.68,-49 128.36,-49 152.89,-49"/>
<polygon fill="black" stroke="black" points="145,-52.5 155,-49 145,-45.5 145,-52.5"/>
</g>
<!-- fondos&#45;&gt;100 -->
<g id="edge1" class="edge">
<title>fondos&#45;&gt;100</title>
<path fill="none" stroke="black" d="M225.35,-49C233.49,-49 242.34,-49 250.67,-49"/>
<polygon fill="black" stroke="black" points="250.84,-52.5 260.84,-49 250.84,-45.5 250.84,-52.5"/>
</g>
</g>
</svg>
