<?xml version="1.0" encoding="UTF-8" standalone="no"?>
<!DOCTYPE svg PUBLIC "-//W3C//DTD SVG 1.1//EN"
 "http://www.w3.org/Graphics/SVG/1.1/DTD/svg11.dtd">
<!-- Generated by graphviz version 14.1.1 (0)
 -->
<!-- Pages: 1 -->
<svg width="271pt" height="44pt"
 viewBox="0.00 0.00 271.00 44.00" xmlns="http://www.w3.org/2000/svg" xmlns:xlink="http://www.w3.org/1999/xlink">
<g id="graph0" class="graph" transform="scale(1 1) rotate(0) translate(4 40)">
<!-- E -->
<g id="node1" class="node">
<title>E</title>
<polygon fill="none" stroke="none" points="61,-36 0,-36 0,0 61,0 61,-36"/>
<text xml:space="preserve" text-anchor="middle" x="30.5" y="-13.9" font-family="Lato" font-size="13.00">Entrada</text>
</g>
<!-- Operación -->
<g id="node3" class="node">
<title>Operación</title>
<polygon fill="white" stroke="black" points="173,-36 97,-36 97,0 173,0 173,-36"/>
<text xml:space="preserve" text-anchor="middle" x="135" y="-13.9" font-family="Lato" font-size="13.00">Operación</text>
</g>
<!-- E&#45;&gt;Operación -->
<g id="edge1" class="edge">
<title>E&#45;&gt;Operación</title>
<path fill="none" stroke="black" d="M60.87,-18C68.52,-18 76.96,-18 85.32,-18"/>
<polygon fill="black" stroke="black" points="85.06,-21.5 95.06,-18 85.06,-14.5 85.06,-21.5"/>
</g>
<!-- S -->
<g id="node2" class="node">
<title>S</title>
<polygon fill="none" stroke="none" points="263,-36 209,-36 209,0 263,0 263,-36"/>
<text xml:space="preserve" text-anchor="middle" x="236" y="-13.9" font-family="Lato" font-size="13.00">Salida</text>
</g>
<!-- Operación&#45;&gt;S -->
<g id="edge2" class="edge">
<title>Operación&#45;&gt;S</title>
<path fill="none" stroke="black" d="M173.43,-18C181.45,-18 189.92,-18 197.92,-18"/>
<polygon fill="black" stroke="black" points="197.7,-21.5 207.7,-18 197.7,-14.5 197.7,-21.5"/>
</g>
</g>
</svg>
