<?xml version="1.0" encoding="UTF-8" standalone="no"?>
<!DOCTYPE svg PUBLIC "-//W3C//DTD SVG 1.1//EN"
 "http://www.w3.org/Graphics/SVG/1.1/DTD/svg11.dtd">
<!-- Generated by graphviz version 2.42.4 (0)
 -->
<!-- Pages: 1 -->
<svg width="273pt" height="44pt"
 viewBox="0.00 0.00 273.00 44.00" xmlns="http://www.w3.org/2000/svg" xmlns:xlink="http://www.w3.org/1999/xlink">
<g id="graph0" class="graph" transform="scale(1 1) rotate(0) translate(4 40)">
<!-- E -->
<g id="node1" class="node">
<title>E</title>
<polygon fill="transparent" stroke="transparent" points="62,-36 0,-36 0,0 62,0 62,-36"/>
<text text-anchor="middle" x="31" y="-14.6" font-family="Lato" font-size="13.00">Entrada</text>
</g>
<!-- Operación -->
<g id="node3" class="node">
<title>Operación</title>
<polygon fill="white" stroke="black" points="175,-36 98,-36 98,0 175,0 175,-36"/>
<text text-anchor="middle" x="136.5" y="-14.6" font-family="Lato" font-size="13.00">Operación</text>
</g>
<!-- E&#45;&gt;Operación -->
<g id="edge1" class="edge">
<title>E&#45;&gt;Operación</title>
<path fill="none" stroke="black" d="M62.21,-18C70.19,-18 79,-18 87.66,-18"/>
<polygon fill="black" stroke="black" points="87.7,-21.5 97.7,-18 87.7,-14.5 87.7,-21.5"/>
</g>
<!-- S -->
<g id="node2" class="node">
<title>S</title>
<polygon fill="transparent" stroke="transparent" points="265,-36 211,-36 211,0 265,0 265,-36"/>
<text text-anchor="middle" x="238" y="-14.6" font-family="Lato" font-size="13.00">Salida</text>
</g>
<!-- Operación&#45;&gt;S -->
<g id="edge2" class="edge">
<title>Operación&#45;&gt;S</title>
<path fill="none" stroke="black" d="M175.12,-18C183.47,-18 192.32,-18 200.63,-18"/>
<polygon fill="black" stroke="black" points="200.78,-21.5 210.78,-18 200.78,-14.5 200.78,-21.5"/>
</g>
</g>
</svg>
