<?xml version="1.0" encoding="UTF-8" standalone="no"?>
<!DOCTYPE svg PUBLIC "-//W3C//DTD SVG 1.1//EN"
 "http://www.w3.org/Graphics/SVG/1.1/DTD/svg11.dtd">
<!-- Generated by graphviz version 2.43.0 (0)
 -->
<!-- Title: %3 Pages: 1 -->
<svg width="431pt" height="398pt"
 viewBox="0.00 0.00 431.43 398.00" xmlns="http://www.w3.org/2000/svg" xmlns:xlink="http://www.w3.org/1999/xlink">
<g id="graph0" class="graph" transform="scale(1 1) rotate(0) translate(4 394)">
<title>%3</title>
<g id="clust1" class="cluster">
<title>cluster2</title>
<polygon fill="white" stroke="black" points="249,-199 249,-382 344,-382 344,-199 249,-199"/>
<text text-anchor="start" x="257" y="-366.8" font-family="Lato" font-size="14.00">Marco global</text>
</g>
<g id="clust2" class="cluster">
<title>cluster0</title>
<polygon fill="white" stroke="red" points="238,-8 238,-191 355,-191 355,-8 238,-8"/>
<text text-anchor="start" x="246" y="-176.8" font-family="Lato" font-size="14.00">Marco de </text>
<text text-anchor="start" x="308" y="-176.8" font-family="Lato" font-weight="bold" font-size="14.00">pareja</text>
</g>
<!-- pila -->
<g id="node1" class="node">
<title>pila</title>
<polygon fill="white" stroke="black" points="53,-284 53,-320 115,-320 115,-284 53,-284"/>
<text text-anchor="middle" x="84" y="-298.6" font-family="monospace" font-size="13.00">Global</text>
<text text-anchor="middle" x="26.5" y="-273.1" font-family="monospace" font-size="13.00">Pila de</text>
<text text-anchor="middle" x="26.5" y="-259.1" font-family="monospace" font-size="13.00">control</text>
</g>
<!-- select -->
<g id="node8" class="node">
<title>select</title>
<polygon fill="transparent" stroke="transparent" points="327,-297 265,-297 265,-261 327,-261 327,-297"/>
<text text-anchor="middle" x="296" y="-275.6" font-family="monospace" font-size="13.00">select</text>
</g>
<!-- pila&#45;&gt;select -->
<g id="edge8" class="edge">
<title>pila:f0&#45;&gt;select</title>
<path fill="none" stroke="black" d="M115.13,-298.61C147.64,-295.06 199.31,-289.43 238.94,-285.11"/>
<polygon fill="black" stroke="black" points="239.44,-288.58 249,-284.01 238.68,-281.62 239.44,-288.58"/>
</g>
<!-- 14 -->
<g id="node2" class="node">
<title>14</title>
<ellipse fill="white" stroke="black" cx="403.21" cy="-88" rx="20.43" ry="20.43"/>
<text text-anchor="middle" x="403.21" y="-84.6" font-family="monospace" font-size="13.00">14</text>
</g>
<!-- 20 -->
<g id="node3" class="node">
<title>20</title>
<ellipse fill="white" stroke="black" cx="403.21" cy="-30" rx="20.43" ry="20.43"/>
<text text-anchor="middle" x="403.21" y="-26.6" font-family="monospace" font-size="13.00">20</text>
</g>
<!-- f1 -->
<g id="node4" class="node">
<title>f1</title>
<ellipse fill="white" stroke="black" cx="403.21" cy="-333" rx="18" ry="18"/>
<text text-anchor="middle" x="403.21" y="-329.6" font-family="monospace" font-size="13.00">λ</text>
</g>
<!-- f2 -->
<g id="node5" class="node">
<title>f2</title>
<ellipse fill="white" stroke="black" cx="403.21" cy="-279" rx="18" ry="18"/>
<text text-anchor="middle" x="403.21" y="-275.6" font-family="monospace" font-size="13.00">λ</text>
</g>
<!-- f3 -->
<g id="node6" class="node">
<title>f3</title>
<ellipse fill="white" stroke="red" cx="403.21" cy="-144" rx="18" ry="18"/>
<text text-anchor="middle" x="403.21" y="-140.6" font-family="monospace" font-size="13.00">λ</text>
</g>
<!-- y -->
<g id="node11" class="node">
<title>y</title>
<polygon fill="transparent" stroke="transparent" points="323,-106 269,-106 269,-70 323,-70 323,-106"/>
<text text-anchor="middle" x="296" y="-84.6" font-family="monospace" font-size="13.00">y</text>
</g>
<!-- f3&#45;&gt;y -->
<g id="edge10" class="edge">
<title>f3&#45;&gt;y</title>
<path fill="none" stroke="red" d="M387.59,-134.41C380.76,-130.05 372.28,-124.78 363.78,-119.9"/>
<polygon fill="red" stroke="red" points="365.44,-116.81 355,-115 362.03,-122.93 365.44,-116.81"/>
</g>
<!-- pareja -->
<g id="node7" class="node">
<title>pareja</title>
<polygon fill="transparent" stroke="transparent" points="327,-351 265,-351 265,-315 327,-315 327,-351"/>
<text text-anchor="middle" x="296" y="-329.6" font-family="monospace" font-size="13.00">pareja</text>
</g>
<!-- pareja&#45;&gt;f1 -->
<g id="edge1" class="edge">
<title>pareja&#45;&gt;f1</title>
<path fill="none" stroke="black" d="M327.15,-333C342.15,-333 360.15,-333 374.76,-333"/>
<polygon fill="black" stroke="black" points="375.17,-336.5 385.17,-333 375.17,-329.5 375.17,-336.5"/>
</g>
<!-- select&#45;&gt;f2 -->
<g id="edge2" class="edge">
<title>select&#45;&gt;f2</title>
<path fill="none" stroke="black" d="M327.15,-279C342.15,-279 360.15,-279 374.76,-279"/>
<polygon fill="black" stroke="black" points="375.17,-282.5 385.17,-279 375.17,-275.5 375.17,-282.5"/>
</g>
<!-- p -->
<g id="node9" class="node">
<title>p</title>
<polygon fill="transparent" stroke="transparent" points="323,-243 269,-243 269,-207 323,-207 323,-243"/>
<text text-anchor="middle" x="296" y="-221.6" font-family="monospace" font-size="13.00">p</text>
</g>
<!-- p&#45;&gt;f3 -->
<g id="edge3" class="edge">
<title>p&#45;&gt;f3</title>
<path fill="none" stroke="black" d="M323.26,-213.81C333.63,-208.79 345.35,-202.35 355,-195 365.95,-186.66 376.52,-175.63 384.87,-165.96"/>
<polygon fill="black" stroke="black" points="387.59,-168.16 391.32,-158.25 382.22,-163.67 387.59,-168.16"/>
</g>
<!-- x -->
<g id="node10" class="node">
<title>x</title>
<polygon fill="transparent" stroke="transparent" points="323,-52 269,-52 269,-16 323,-16 323,-52"/>
<text text-anchor="middle" x="296" y="-30.6" font-family="monospace" font-size="13.00">x</text>
</g>
<!-- x&#45;&gt;20 -->
<g id="edge4" class="edge">
<title>x&#45;&gt;20</title>
<path fill="none" stroke="black" d="M323.01,-33.01C338.04,-32.44 357,-31.72 372.6,-31.13"/>
<polygon fill="black" stroke="black" points="372.92,-34.62 382.78,-30.74 372.65,-27.62 372.92,-34.62"/>
</g>
<!-- x&#45;&gt;pareja -->
<g id="edge7" class="edge">
<title>x&#45;&gt;pareja</title>
<path fill="none" stroke="red" d="M238,-54.25C232.33,-58.55 227.42,-63.74 224,-70 211.91,-92.14 211.91,-274.86 224,-297 227.86,-304.06 233.62,-309.77 240.24,-314.38"/>
<polygon fill="red" stroke="red" points="238.63,-317.49 249,-319.64 242.23,-311.49 238.63,-317.49"/>
</g>
<!-- y&#45;&gt;14 -->
<g id="edge5" class="edge">
<title>y&#45;&gt;14</title>
<path fill="none" stroke="black" d="M323.01,-88C338.04,-88 357,-88 372.6,-88"/>
<polygon fill="black" stroke="black" points="372.78,-91.5 382.78,-88 372.78,-84.5 372.78,-91.5"/>
</g>
<!-- get -->
<g id="node12" class="node">
<title>get</title>
<polygon fill="transparent" stroke="transparent" points="323,-160 269,-160 269,-124 323,-124 323,-160"/>
<text text-anchor="middle" x="296" y="-138.6" font-family="monospace" font-size="13.00">get</text>
</g>
<!-- get&#45;&gt;f3 -->
<g id="edge6" class="edge">
<title>get&#45;&gt;f3</title>
<path fill="none" stroke="black" d="M323.01,-142.49C338.73,-142.79 358.76,-143.17 374.74,-143.48"/>
<polygon fill="black" stroke="black" points="374.99,-146.98 385.05,-143.67 375.12,-139.98 374.99,-146.98"/>
</g>
<!-- E -->
<g id="node13" class="node">
<title>E</title>
<polygon fill="transparent" stroke="transparent" points="173,-274 151,-274 151,-238 173,-238 173,-274"/>
<text text-anchor="middle" x="162" y="-252.6" font-family="monospace" font-size="13.00">E</text>
</g>
<!-- E&#45;&gt;select -->
<g id="edge9" class="edge">
<title>E&#45;&gt;select</title>
<path fill="none" stroke="black" d="M173.36,-257.8C187.58,-260.28 214.2,-264.92 238.93,-269.23"/>
<polygon fill="black" stroke="black" points="238.55,-272.72 249,-270.98 239.75,-265.82 238.55,-272.72"/>
</g>
</g>
</svg>
