<?xml version="1.0" encoding="UTF-8" standalone="no"?>
<!DOCTYPE svg PUBLIC "-//W3C//DTD SVG 1.1//EN"
 "http://www.w3.org/Graphics/SVG/1.1/DTD/svg11.dtd">
<!-- Generated by graphviz version 2.43.0 (0)
 -->
<!-- Title: %3 Pages: 1 -->
<svg width="487pt" height="360pt"
 viewBox="0.00 0.00 487.43 360.00" xmlns="http://www.w3.org/2000/svg" xmlns:xlink="http://www.w3.org/1999/xlink">
<g id="graph0" class="graph" transform="scale(1 1) rotate(0) translate(4 356)">
<title>%3</title>
<g id="clust1" class="cluster">
<title>cluster0</title>
<polygon fill="white" stroke="black" points="320.43,-148 320.43,-223 415.43,-223 415.43,-148 320.43,-148"/>
<text text-anchor="middle" x="367.93" y="-207.8" font-family="Lato" font-size="14.00">Marco global</text>
</g>
<g id="clust2" class="cluster">
<title>cluster1</title>
<polygon fill="white" stroke="black" points="123,-8 123,-83 224,-83 224,-8 123,-8"/>
<text text-anchor="middle" x="173.5" y="-67.8" font-family="Lato" font-size="14.00">Marco de uno</text>
</g>
<g id="clust3" class="cluster">
<title>cluster3</title>
<polygon fill="white" stroke="black" points="123,-269 123,-344 224,-344 224,-269 123,-269"/>
<text text-anchor="middle" x="173.5" y="-328.8" font-family="Lato" font-size="14.00">Marco de tres</text>
</g>
<g id="clust4" class="cluster">
<title>cluster2</title>
<polygon fill="white" stroke="black" points="123,-121 123,-250 223,-250 223,-121 123,-121"/>
<text text-anchor="middle" x="173" y="-234.8" font-family="Lato" font-size="14.00">Marco de dos</text>
</g>
<!-- pila -->
<g id="node1" class="node">
<title>pila</title>
<polygon fill="white" stroke="black" points="41,-118 41,-206 95,-206 95,-118 41,-118"/>
<text text-anchor="middle" x="68" y="-191.6" font-family="Lato" font-size="13.00">Tres</text>
<polyline fill="none" stroke="black" points="41,-184 95,-184 "/>
<text text-anchor="middle" x="68" y="-169.6" font-family="Lato" font-size="13.00">Dos</text>
<polyline fill="none" stroke="black" points="41,-162 95,-162 "/>
<text text-anchor="middle" x="68" y="-147.6" font-family="Lato" font-size="13.00">Uno</text>
<polyline fill="none" stroke="black" points="41,-140 95,-140 "/>
<text text-anchor="middle" x="68" y="-125.6" font-family="Lato" font-size="13.00">Global</text>
<text text-anchor="middle" x="20.5" y="-107.1" font-family="Lato" font-size="13.00">Pila de</text>
<text text-anchor="middle" x="20.5" y="-93.1" font-family="Lato" font-size="13.00">control</text>
</g>
<!-- g -->
<g id="node3" class="node">
<title>g</title>
<polygon fill="transparent" stroke="transparent" points="379.43,-192 355.43,-192 355.43,-156 379.43,-156 379.43,-192"/>
<text text-anchor="middle" x="367.43" y="-170.6" font-family="monospace" font-size="13.00">g</text>
</g>
<!-- pila&#45;&gt;g -->
<g id="edge6" class="edge">
<title>pila:f0&#45;&gt;g</title>
<path fill="none" stroke="black" d="M95,-129C108.54,-129 109.74,-119.72 123,-117 196.77,-101.86 221.35,-95.09 292.43,-120 306.14,-124.81 319.5,-133.06 331,-141.7"/>
<polygon fill="black" stroke="black" points="329,-144.58 339.03,-148 333.33,-139.07 329,-144.58"/>
</g>
<!-- x -->
<g id="node5" class="node">
<title>x</title>
<polygon fill="transparent" stroke="transparent" points="185,-52 161,-52 161,-16 185,-16 185,-52"/>
<text text-anchor="middle" x="173" y="-30.6" font-family="monospace" font-size="13.00">x</text>
</g>
<!-- pila&#45;&gt;x -->
<g id="edge7" class="edge">
<title>pila:f1&#45;&gt;x</title>
<path fill="none" stroke="black" d="M95,-151C123.02,-151 109.43,-120.04 121,-91.97"/>
<polygon fill="black" stroke="black" points="124.16,-93.48 125.72,-83 117.97,-90.21 124.16,-93.48"/>
</g>
<!-- w -->
<g id="node7" class="node">
<title>w</title>
<polygon fill="transparent" stroke="transparent" points="185,-313 161,-313 161,-277 185,-277 185,-313"/>
<text text-anchor="middle" x="173" y="-291.6" font-family="monospace" font-size="13.00">w</text>
</g>
<!-- pila&#45;&gt;w -->
<g id="edge9" class="edge">
<title>pila:f3&#45;&gt;w</title>
<path fill="none" stroke="black" d="M95,-195C124.03,-195 105.24,-231.04 123,-254 125.04,-256.64 127.28,-259.23 129.64,-261.73"/>
<polygon fill="black" stroke="black" points="127.44,-264.48 137.02,-269 132.35,-259.49 127.44,-264.48"/>
</g>
<!-- y -->
<g id="node10" class="node">
<title>y</title>
<polygon fill="transparent" stroke="transparent" points="185,-219 161,-219 161,-183 185,-183 185,-219"/>
<text text-anchor="middle" x="173" y="-197.6" font-family="monospace" font-size="13.00">y</text>
</g>
<!-- pila&#45;&gt;y -->
<g id="edge8" class="edge">
<title>pila:f2&#45;&gt;y</title>
<path fill="none" stroke="black" d="M95,-173C100.97,-173 107.04,-173.75 113.03,-175.01"/>
<polygon fill="black" stroke="black" points="112.45,-178.47 123,-177.56 114.18,-171.69 112.45,-178.47"/>
</g>
<!-- 1 -->
<g id="node2" class="node">
<title>1</title>
<ellipse fill="white" stroke="black" cx="461.43" cy="-174" rx="18" ry="18"/>
<text text-anchor="middle" x="461.43" y="-170.6" font-family="Lato" font-size="13.00">1</text>
</g>
<!-- g&#45;&gt;1 -->
<g id="edge1" class="edge">
<title>g&#45;&gt;1</title>
<path fill="none" stroke="black" d="M379.71,-174C392.96,-174 415.41,-174 433.27,-174"/>
<polygon fill="black" stroke="black" points="433.42,-177.5 443.42,-174 433.42,-170.5 433.42,-177.5"/>
</g>
<!-- 3 -->
<g id="node4" class="node">
<title>3</title>
<ellipse fill="white" stroke="black" cx="272.21" cy="-55" rx="18" ry="18"/>
<text text-anchor="middle" x="272.21" y="-51.6" font-family="Lato" font-size="13.00">3</text>
</g>
<!-- x&#45;&gt;g -->
<g id="edge10" class="edge">
<title>x&#45;&gt;g:s</title>
<path fill="none" stroke="black" d="M224,-19.78C246.27,-16.28 272.02,-16.35 292.43,-28 346.36,-58.78 365.41,-86.38 367.27,-144.93"/>
<polygon fill="black" stroke="black" points="363.43,-138.19 367.43,-148 370.42,-137.84 363.43,-138.19"/>
</g>
<!-- x&#45;&gt;3 -->
<g id="edge2" class="edge">
<title>x&#45;&gt;3</title>
<path fill="none" stroke="black" d="M185.15,-36.41C199.53,-39.51 224.99,-45.01 244.5,-49.23"/>
<polygon fill="black" stroke="black" points="243.83,-52.67 254.34,-51.36 245.31,-45.82 243.83,-52.67"/>
</g>
<!-- 11 -->
<g id="node6" class="node">
<title>11</title>
<ellipse fill="white" stroke="black" cx="272.21" cy="-295" rx="20.43" ry="20.43"/>
<text text-anchor="middle" x="272.21" y="-291.6" font-family="Lato" font-size="13.00">11</text>
</g>
<!-- w&#45;&gt;g -->
<g id="edge12" class="edge">
<title>w&#45;&gt;g</title>
<path fill="none" stroke="black" d="M224,-323.64C246.23,-332.39 271.94,-336.74 292.43,-324 324.54,-304.03 343.13,-265.56 353.65,-232.58"/>
<polygon fill="black" stroke="black" points="357,-233.58 356.53,-223 350.3,-231.56 357,-233.58"/>
</g>
<!-- w&#45;&gt;11 -->
<g id="edge3" class="edge">
<title>w&#45;&gt;11</title>
<path fill="none" stroke="black" d="M185.15,-295C198.87,-295 222.69,-295 241.79,-295"/>
<polygon fill="black" stroke="black" points="241.83,-298.5 251.83,-295 241.83,-291.5 241.83,-298.5"/>
</g>
<!-- 6 -->
<g id="node8" class="node">
<title>6</title>
<ellipse fill="white" stroke="black" cx="272.21" cy="-201" rx="18" ry="18"/>
<text text-anchor="middle" x="272.21" y="-197.6" font-family="Lato" font-size="13.00">6</text>
</g>
<!-- 4 -->
<g id="node9" class="node">
<title>4</title>
<ellipse fill="white" stroke="black" cx="272.21" cy="-147" rx="18" ry="18"/>
<text text-anchor="middle" x="272.21" y="-143.6" font-family="Lato" font-size="13.00">4</text>
</g>
<!-- y&#45;&gt;g -->
<g id="edge11" class="edge">
<title>y&#45;&gt;g</title>
<path fill="none" stroke="black" d="M223,-223.99C244.54,-231.08 269.99,-235.32 292.43,-228 298.96,-225.87 305.39,-222.92 311.57,-219.5"/>
<polygon fill="black" stroke="black" points="313.67,-222.32 320.43,-214.17 310.06,-216.32 313.67,-222.32"/>
</g>
<!-- y&#45;&gt;6 -->
<g id="edge4" class="edge">
<title>y&#45;&gt;6</title>
<path fill="none" stroke="black" d="M185.15,-201C199.37,-201 224.45,-201 243.88,-201"/>
<polygon fill="black" stroke="black" points="243.99,-204.5 253.99,-201 243.99,-197.5 243.99,-204.5"/>
</g>
<!-- z -->
<g id="node11" class="node">
<title>z</title>
<polygon fill="transparent" stroke="transparent" points="185,-165 161,-165 161,-129 185,-129 185,-165"/>
<text text-anchor="middle" x="173" y="-143.6" font-family="monospace" font-size="13.00">z</text>
</g>
<!-- z&#45;&gt;4 -->
<g id="edge5" class="edge">
<title>z&#45;&gt;4</title>
<path fill="none" stroke="black" d="M185.15,-147C199.37,-147 224.45,-147 243.88,-147"/>
<polygon fill="black" stroke="black" points="243.99,-150.5 253.99,-147 243.99,-143.5 243.99,-150.5"/>
</g>
</g>
</svg>
