<?xml version="1.0" encoding="UTF-8" standalone="no"?>
<!DOCTYPE svg PUBLIC "-//W3C//DTD SVG 1.1//EN"
 "http://www.w3.org/Graphics/SVG/1.1/DTD/svg11.dtd">
<!-- Generated by graphviz version 14.1.1 (0)
 -->
<!-- Pages: 1 -->
<svg width="254pt" height="613pt"
 viewBox="0.00 0.00 254.00 613.00" xmlns="http://www.w3.org/2000/svg" xmlns:xlink="http://www.w3.org/1999/xlink">
<g id="graph0" class="graph" transform="scale(1 1) rotate(0) translate(4 609)">
<g id="clust1" class="cluster">
<title>cluster9</title>
<polygon fill="#f2f2f2" stroke="black" points="49.78,-8 49.78,-597 176.28,-597 176.28,-8 49.78,-8"/>
<text xml:space="preserve" text-anchor="middle" x="113.03" y="-579.7" font-family="Lato" font-size="14.00">Pila de control</text>
</g>
<g id="clust2" class="cluster">
<title>cluster3</title>
<polygon fill="white" stroke="black" points="57.78,-487 57.78,-564 168.28,-564 168.28,-487 57.78,-487"/>
<text xml:space="preserve" text-anchor="start" x="65.78" y="-547.7" font-family="Lato" font-size="14.00">Marco de </text>
<text xml:space="preserve" text-anchor="start" x="127.28" y="-547.7" font-family="monospace" font-size="14.00">tres</text>
</g>
<g id="clust3" class="cluster">
<title>cluster2</title>
<polygon fill="white" stroke="black" points="61.9,-348 61.9,-479 164.15,-479 164.15,-348 61.9,-348"/>
<text xml:space="preserve" text-anchor="start" x="69.9" y="-462.7" font-family="Lato" font-size="14.00">Marco de </text>
<text xml:space="preserve" text-anchor="start" x="131.4" y="-462.7" font-family="monospace" font-size="14.00">dos</text>
</g>
<g id="clust4" class="cluster">
<title>cluster1</title>
<polygon fill="white" stroke="black" points="61.9,-263 61.9,-340 164.15,-340 164.15,-263 61.9,-263"/>
<text xml:space="preserve" text-anchor="start" x="69.9" y="-323.7" font-family="Lato" font-size="14.00">Marco de </text>
<text xml:space="preserve" text-anchor="start" x="131.4" y="-323.7" font-family="monospace" font-size="14.00">uno</text>
</g>
<g id="clust5" class="cluster">
<title>cluster0</title>
<polygon fill="white" stroke="black" points="65.65,-16 65.65,-255 160.4,-255 160.4,-16 65.65,-16"/>
<text xml:space="preserve" text-anchor="middle" x="113.03" y="-237.7" font-family="Lato" font-size="14.00">Marco global</text>
</g>
<!-- 1 -->
<g id="node1" class="node">
<title>1</title>
<ellipse fill="white" stroke="black" cx="225.3" cy="-204" rx="18" ry="18"/>
<text xml:space="preserve" text-anchor="middle" x="225.3" y="-199.9" font-family="monospace" font-size="13.00">1</text>
</g>
<!-- 3 -->
<g id="node2" class="node">
<title>3</title>
<ellipse fill="white" stroke="black" cx="225.3" cy="-289" rx="18" ry="18"/>
<text xml:space="preserve" text-anchor="middle" x="225.3" y="-284.9" font-family="monospace" font-size="13.00">3</text>
</g>
<!-- 11 -->
<g id="node3" class="node">
<title>11</title>
<ellipse fill="white" stroke="black" cx="225.3" cy="-513" rx="21.15" ry="21.15"/>
<text xml:space="preserve" text-anchor="middle" x="225.3" y="-508.9" font-family="monospace" font-size="13.00">11</text>
</g>
<!-- 6 -->
<g id="node4" class="node">
<title>6</title>
<ellipse fill="white" stroke="black" cx="225.3" cy="-428" rx="18" ry="18"/>
<text xml:space="preserve" text-anchor="middle" x="225.3" y="-423.9" font-family="monospace" font-size="13.00">6</text>
</g>
<!-- 4 -->
<g id="node5" class="node">
<title>4</title>
<ellipse fill="white" stroke="black" cx="225.3" cy="-374" rx="18" ry="18"/>
<text xml:space="preserve" text-anchor="middle" x="225.3" y="-369.9" font-family="monospace" font-size="13.00">4</text>
</g>
<!-- l1 -->
<g id="node6" class="node">
<title>l1</title>
<ellipse fill="white" stroke="black" cx="225.3" cy="-150" rx="18" ry="18"/>
<text xml:space="preserve" text-anchor="middle" x="225.3" y="-145.9" font-family="monospace" font-size="13.00">λ</text>
</g>
<!-- l2 -->
<g id="node7" class="node">
<title>l2</title>
<ellipse fill="white" stroke="black" cx="225.3" cy="-96" rx="18" ry="18"/>
<text xml:space="preserve" text-anchor="middle" x="225.3" y="-91.9" font-family="monospace" font-size="13.00">λ</text>
</g>
<!-- l3 -->
<g id="node8" class="node">
<title>l3</title>
<ellipse fill="white" stroke="black" cx="225.3" cy="-42" rx="18" ry="18"/>
<text xml:space="preserve" text-anchor="middle" x="225.3" y="-37.9" font-family="monospace" font-size="13.00">λ</text>
</g>
<!-- w -->
<g id="node9" class="node">
<title>w</title>
<polygon fill="none" stroke="none" points="124.28,-531 100.78,-531 100.78,-495 124.28,-495 124.28,-531"/>
<text xml:space="preserve" text-anchor="middle" x="112.53" y="-508.9" font-family="monospace" font-size="13.00">w</text>
</g>
<!-- w&#45;&gt;11 -->
<g id="edge6" class="edge">
<title>w&#45;&gt;11</title>
<path fill="none" stroke="black" d="M124.15,-513C139.73,-513 169.45,-513 192.48,-513"/>
<polygon fill="black" stroke="black" points="192.29,-516.5 202.29,-513 192.29,-509.5 192.29,-516.5"/>
</g>
<!-- uno -->
<g id="node14" class="node">
<title>uno</title>
<polygon fill="none" stroke="none" points="131.78,-168 93.28,-168 93.28,-132 131.78,-132 131.78,-168"/>
<text xml:space="preserve" text-anchor="middle" x="112.53" y="-145.9" font-family="monospace" font-size="13.00">uno</text>
</g>
<!-- w&#45;&gt;uno -->
<g id="edge11" class="edge">
<title>w&#45;&gt;uno</title>
<path fill="none" stroke="black" d="M57.78,-495.67C48.81,-490.23 40.83,-483.17 35.84,-474 20.53,-445.9 20.53,-214.1 35.84,-186 40.35,-177.72 47.4,-171.33 55.45,-166.41"/>
<polygon fill="black" stroke="black" points="57.06,-169.51 64.31,-161.79 53.82,-163.31 57.06,-169.51"/>
</g>
<!-- y -->
<g id="node10" class="node">
<title>y</title>
<polygon fill="none" stroke="none" points="124.28,-446 100.78,-446 100.78,-410 124.28,-410 124.28,-446"/>
<text xml:space="preserve" text-anchor="middle" x="112.53" y="-423.9" font-family="monospace" font-size="13.00">y</text>
</g>
<!-- y&#45;&gt;6 -->
<g id="edge7" class="edge">
<title>y&#45;&gt;6</title>
<path fill="none" stroke="black" d="M124.15,-428C140.47,-428 172.29,-428 195.71,-428"/>
<polygon fill="black" stroke="black" points="195.54,-431.5 205.54,-428 195.54,-424.5 195.54,-431.5"/>
</g>
<!-- g -->
<g id="node13" class="node">
<title>g</title>
<polygon fill="none" stroke="none" points="124.28,-222 100.78,-222 100.78,-186 124.28,-186 124.28,-222"/>
<text xml:space="preserve" text-anchor="middle" x="112.53" y="-199.9" font-family="monospace" font-size="13.00">g</text>
</g>
<!-- y&#45;&gt;g -->
<g id="edge10" class="edge">
<title>y&#45;&gt;g</title>
<path fill="none" stroke="black" d="M61.9,-415.15C51.25,-409.86 41.52,-402.43 35.84,-392 22.66,-367.8 24.16,-292.96 35.84,-268 40.81,-257.38 48.51,-247.9 57.14,-239.7"/>
<polygon fill="black" stroke="black" points="59.3,-242.46 64.52,-233.24 54.69,-237.2 59.3,-242.46"/>
</g>
<!-- z -->
<g id="node11" class="node">
<title>z</title>
<polygon fill="none" stroke="none" points="124.28,-392 100.78,-392 100.78,-356 124.28,-356 124.28,-392"/>
<text xml:space="preserve" text-anchor="middle" x="112.53" y="-369.9" font-family="monospace" font-size="13.00">z</text>
</g>
<!-- z&#45;&gt;4 -->
<g id="edge8" class="edge">
<title>z&#45;&gt;4</title>
<path fill="none" stroke="black" d="M124.15,-374C140.47,-374 172.29,-374 195.71,-374"/>
<polygon fill="black" stroke="black" points="195.54,-377.5 205.54,-374 195.54,-370.5 195.54,-377.5"/>
</g>
<!-- x -->
<g id="node12" class="node">
<title>x</title>
<polygon fill="none" stroke="none" points="124.28,-307 100.78,-307 100.78,-271 124.28,-271 124.28,-307"/>
<text xml:space="preserve" text-anchor="middle" x="112.53" y="-284.9" font-family="monospace" font-size="13.00">x</text>
</g>
<!-- x&#45;&gt;3 -->
<g id="edge5" class="edge">
<title>x&#45;&gt;3</title>
<path fill="none" stroke="black" d="M124.15,-289C140.47,-289 172.29,-289 195.71,-289"/>
<polygon fill="black" stroke="black" points="195.54,-292.5 205.54,-289 195.54,-285.5 195.54,-292.5"/>
</g>
<!-- dos -->
<g id="node15" class="node">
<title>dos</title>
<polygon fill="none" stroke="none" points="131.78,-114 93.28,-114 93.28,-78 131.78,-78 131.78,-114"/>
<text xml:space="preserve" text-anchor="middle" x="112.53" y="-91.9" font-family="monospace" font-size="13.00">dos</text>
</g>
<!-- x&#45;&gt;dos -->
<g id="edge9" class="edge">
<title>x&#45;&gt;dos</title>
<path fill="none" stroke="black" d="M61.9,-274.02C51.29,-268.32 41.58,-260.55 35.84,-250 23.3,-226.97 23.3,-155.03 35.84,-132 40.35,-123.72 47.4,-117.33 55.45,-112.41"/>
<polygon fill="black" stroke="black" points="57.06,-115.51 64.31,-107.79 53.82,-109.31 57.06,-115.51"/>
</g>
<!-- g&#45;&gt;1 -->
<g id="edge4" class="edge">
<title>g&#45;&gt;1</title>
<path fill="none" stroke="black" d="M124.15,-204C140.47,-204 172.29,-204 195.71,-204"/>
<polygon fill="black" stroke="black" points="195.54,-207.5 205.54,-204 195.54,-200.5 195.54,-207.5"/>
</g>
<!-- uno&#45;&gt;l1 -->
<g id="edge1" class="edge">
<title>uno&#45;&gt;l1</title>
<path fill="none" stroke="black" d="M131.32,-150C148.63,-150 175.19,-150 195.51,-150"/>
<polygon fill="black" stroke="black" points="195.4,-153.5 205.4,-150 195.4,-146.5 195.4,-153.5"/>
</g>
<!-- dos&#45;&gt;l2 -->
<g id="edge2" class="edge">
<title>dos&#45;&gt;l2</title>
<path fill="none" stroke="black" d="M131.32,-96C148.63,-96 175.19,-96 195.51,-96"/>
<polygon fill="black" stroke="black" points="195.4,-99.5 205.4,-96 195.4,-92.5 195.4,-99.5"/>
</g>
<!-- tres -->
<g id="node16" class="node">
<title>tres</title>
<polygon fill="none" stroke="none" points="135.53,-60 89.53,-60 89.53,-24 135.53,-24 135.53,-60"/>
<text xml:space="preserve" text-anchor="middle" x="112.53" y="-37.9" font-family="monospace" font-size="13.00">tres</text>
</g>
<!-- tres&#45;&gt;l3 -->
<g id="edge3" class="edge">
<title>tres&#45;&gt;l3</title>
<path fill="none" stroke="black" d="M135.41,-42C152.58,-42 176.64,-42 195.4,-42"/>
<polygon fill="black" stroke="black" points="195.32,-45.5 205.32,-42 195.32,-38.5 195.32,-45.5"/>
</g>
<!-- E -->
<g id="node17" class="node">
<title>E</title>
<polygon fill="none" stroke="none" points="21.9,-531 0,-531 0,-495 21.9,-495 21.9,-531"/>
<text xml:space="preserve" text-anchor="middle" x="10.95" y="-508.9" font-family="monospace" font-size="13.00">E</text>
</g>
<!-- E&#45;&gt;w -->
<g id="edge12" class="edge">
<title>E&#45;&gt;w</title>
<path fill="none" stroke="black" d="M21.86,-513C28.12,-513 36.8,-513 46.32,-513"/>
<polygon fill="black" stroke="black" points="46.27,-516.5 56.27,-513 46.27,-509.5 46.27,-516.5"/>
</g>
</g>
</svg>
