<?xml version="1.0" encoding="UTF-8" standalone="no"?>
<!DOCTYPE svg PUBLIC "-//W3C//DTD SVG 1.1//EN"
 "http://www.w3.org/Graphics/SVG/1.1/DTD/svg11.dtd">
<!-- Generated by graphviz version 2.42.4 (0)
 -->
<!-- Pages: 1 -->
<svg width="282pt" height="551pt"
 viewBox="0.00 0.00 281.87 551.00" xmlns="http://www.w3.org/2000/svg" xmlns:xlink="http://www.w3.org/1999/xlink">
<g id="graph0" class="graph" transform="scale(1 1) rotate(0) translate(4 547)">
<g id="clust1" class="cluster">
<title>cluster9</title>
<polygon fill="#f2f2f2" stroke="black" points="28.87,-8 28.87,-535 217.87,-535 217.87,-8 28.87,-8"/>
<text text-anchor="middle" x="123.37" y="-519.8" font-family="Lato" font-size="14.00">Pila de control</text>
</g>
<g id="clust2" class="cluster">
<title>cluster3</title>
<polygon fill="white" stroke="black" points="36.87,-429 36.87,-504 209.87,-504 209.87,-429 36.87,-429"/>
<text text-anchor="middle" x="123.37" y="-488.8" font-family="Lato" font-size="14.00">Marco del lambda interior</text>
</g>
<g id="clust3" class="cluster">
<title>cluster2</title>
<polygon fill="white" stroke="black" points="72.87,-290 72.87,-421 172.87,-421 172.87,-290 72.87,-290"/>
<text text-anchor="middle" x="122.87" y="-405.8" font-family="Lato" font-size="14.00">Marco de dos</text>
</g>
<g id="clust4" class="cluster">
<title>cluster1</title>
<polygon fill="white" stroke="black" points="72.87,-207 72.87,-282 173.87,-282 173.87,-207 72.87,-207"/>
<text text-anchor="middle" x="123.37" y="-266.8" font-family="Lato" font-size="14.00">Marco de uno</text>
</g>
<g id="clust5" class="cluster">
<title>cluster0</title>
<polygon fill="white" stroke="black" points="75.37,-16 75.37,-199 170.37,-199 170.37,-16 75.37,-16"/>
<text text-anchor="middle" x="122.87" y="-183.8" font-family="Lato" font-size="14.00">Marco global</text>
</g>
<!-- z -->
<g id="node1" class="node">
<title>z</title>
<polygon fill="transparent" stroke="transparent" points="134.87,-473 110.87,-473 110.87,-437 134.87,-437 134.87,-473"/>
<text text-anchor="middle" x="122.87" y="-451.6" font-family="monospace" font-size="13.00">z</text>
</g>
<!-- dummy -->
<!-- z&#45;&gt;dummy -->
<g id="edge9" class="edge">
<title>z&#45;&gt;dummy</title>
<path fill="none" stroke="black" d="M36.87,-439.38C26.38,-433.76 17.16,-426.19 10.87,-416 -3.62,-392.56 -3.62,-377.44 10.87,-354 22.02,-335.96 42.48,-326.46 62.89,-321.54"/>
<polygon fill="black" stroke="black" points="63.79,-324.93 72.87,-319.48 62.37,-318.08 63.79,-324.93"/>
</g>
<!-- 8 -->
<g id="node9" class="node">
<title>8</title>
<ellipse fill="white" stroke="black" cx="255.87" cy="-455" rx="18" ry="18"/>
<text text-anchor="middle" x="255.87" y="-451.6" font-family="Lato" font-size="13.00">8</text>
</g>
<!-- z&#45;&gt;8 -->
<g id="edge5" class="edge">
<title>z&#45;&gt;8</title>
<path fill="none" stroke="black" d="M135.03,-455C155.33,-455 198.82,-455 227.45,-455"/>
<polygon fill="black" stroke="black" points="227.61,-458.5 237.61,-455 227.61,-451.5 227.61,-458.5"/>
</g>
<!-- y -->
<g id="node2" class="node">
<title>y</title>
<polygon fill="transparent" stroke="transparent" points="134.87,-390 110.87,-390 110.87,-354 134.87,-354 134.87,-390"/>
<text text-anchor="middle" x="122.87" y="-368.6" font-family="monospace" font-size="13.00">y</text>
</g>
<!-- g -->
<g id="node5" class="node">
<title>g</title>
<polygon fill="transparent" stroke="transparent" points="134.87,-168 110.87,-168 110.87,-132 134.87,-132 134.87,-168"/>
<text text-anchor="middle" x="122.87" y="-146.6" font-family="monospace" font-size="13.00">g</text>
</g>
<!-- y&#45;&gt;g -->
<g id="edge8" class="edge">
<title>y&#45;&gt;g</title>
<path fill="none" stroke="black" d="M72.87,-370.02C49.41,-366.15 23.81,-356.95 10.87,-336 -3.62,-312.56 -3.13,-235.74 10.87,-212 23.05,-191.33 44.88,-177.07 66.04,-167.48"/>
<polygon fill="black" stroke="black" points="67.53,-170.66 75.37,-163.53 64.79,-164.21 67.53,-170.66"/>
</g>
<!-- 2 -->
<g id="node11" class="node">
<title>2</title>
<ellipse fill="white" stroke="black" cx="255.87" cy="-372" rx="18" ry="18"/>
<text text-anchor="middle" x="255.87" y="-368.6" font-family="Lato" font-size="13.00">2</text>
</g>
<!-- y&#45;&gt;2 -->
<g id="edge6" class="edge">
<title>y&#45;&gt;2</title>
<path fill="none" stroke="black" d="M135.03,-372C155.33,-372 198.82,-372 227.45,-372"/>
<polygon fill="black" stroke="black" points="227.61,-375.5 237.61,-372 227.61,-368.5 227.61,-375.5"/>
</g>
<!-- x -->
<g id="node4" class="node">
<title>x</title>
<polygon fill="transparent" stroke="transparent" points="134.87,-251 110.87,-251 110.87,-215 134.87,-215 134.87,-251"/>
<text text-anchor="middle" x="122.87" y="-229.6" font-family="monospace" font-size="13.00">x</text>
</g>
<!-- uno -->
<g id="node6" class="node">
<title>uno</title>
<polygon fill="transparent" stroke="transparent" points="142.37,-114 103.37,-114 103.37,-78 142.37,-78 142.37,-114"/>
<text text-anchor="middle" x="122.87" y="-92.6" font-family="monospace" font-size="13.00">uno</text>
</g>
<!-- x&#45;&gt;uno -->
<g id="edge7" class="edge">
<title>x&#45;&gt;uno</title>
<path fill="none" stroke="black" d="M72.87,-229.52C49.46,-224.97 23.9,-215.09 10.87,-194 -3.62,-170.56 -3.62,-155.44 10.87,-132 22.44,-113.27 44.13,-103.93 65.36,-99.4"/>
<polygon fill="black" stroke="black" points="66.15,-102.81 75.37,-97.58 64.91,-95.92 66.15,-102.81"/>
</g>
<!-- 3 -->
<g id="node8" class="node">
<title>3</title>
<ellipse fill="white" stroke="black" cx="255.87" cy="-233" rx="18" ry="18"/>
<text text-anchor="middle" x="255.87" y="-229.6" font-family="Lato" font-size="13.00">3</text>
</g>
<!-- x&#45;&gt;3 -->
<g id="edge4" class="edge">
<title>x&#45;&gt;3</title>
<path fill="none" stroke="black" d="M135.03,-233C155.33,-233 198.82,-233 227.45,-233"/>
<polygon fill="black" stroke="black" points="227.61,-236.5 237.61,-233 227.61,-229.5 227.61,-236.5"/>
</g>
<!-- 1 -->
<g id="node10" class="node">
<title>1</title>
<ellipse fill="white" stroke="black" cx="255.87" cy="-150" rx="18" ry="18"/>
<text text-anchor="middle" x="255.87" y="-146.6" font-family="Lato" font-size="13.00">1</text>
</g>
<!-- g&#45;&gt;1 -->
<g id="edge3" class="edge">
<title>g&#45;&gt;1</title>
<path fill="none" stroke="black" d="M135.03,-150C155.33,-150 198.82,-150 227.45,-150"/>
<polygon fill="black" stroke="black" points="227.61,-153.5 237.61,-150 227.61,-146.5 227.61,-153.5"/>
</g>
<!-- l1 -->
<g id="node12" class="node">
<title>l1</title>
<ellipse fill="white" stroke="black" cx="255.87" cy="-96" rx="18" ry="18"/>
<text text-anchor="middle" x="255.87" y="-92.6" font-family="Lato" font-size="13.00">λ</text>
</g>
<!-- uno&#45;&gt;l1 -->
<g id="edge1" class="edge">
<title>uno&#45;&gt;l1</title>
<path fill="none" stroke="black" d="M142.63,-96C164.92,-96 202.26,-96 227.7,-96"/>
<polygon fill="black" stroke="black" points="227.8,-99.5 237.8,-96 227.8,-92.5 227.8,-99.5"/>
</g>
<!-- dos -->
<g id="node7" class="node">
<title>dos</title>
<polygon fill="transparent" stroke="transparent" points="142.37,-60 103.37,-60 103.37,-24 142.37,-24 142.37,-60"/>
<text text-anchor="middle" x="122.87" y="-38.6" font-family="monospace" font-size="13.00">dos</text>
</g>
<!-- l2 -->
<g id="node13" class="node">
<title>l2</title>
<ellipse fill="white" stroke="black" cx="255.87" cy="-42" rx="18" ry="18"/>
<text text-anchor="middle" x="255.87" y="-38.6" font-family="Lato" font-size="13.00">λ</text>
</g>
<!-- dos&#45;&gt;l2 -->
<g id="edge2" class="edge">
<title>dos&#45;&gt;l2</title>
<path fill="none" stroke="black" d="M142.63,-42C164.92,-42 202.26,-42 227.7,-42"/>
<polygon fill="black" stroke="black" points="227.8,-45.5 237.8,-42 227.8,-38.5 227.8,-45.5"/>
</g>
</g>
</svg>
