<?xml version="1.0" encoding="UTF-8" standalone="no"?>
<!DOCTYPE svg PUBLIC "-//W3C//DTD SVG 1.1//EN"
 "http://www.w3.org/Graphics/SVG/1.1/DTD/svg11.dtd">
<!-- Generated by graphviz version 2.43.0 (0)
 -->
<!-- Title: %3 Pages: 1 -->
<svg width="537pt" height="295pt"
 viewBox="0.00 0.00 537.00 295.42" xmlns="http://www.w3.org/2000/svg" xmlns:xlink="http://www.w3.org/1999/xlink">
<g id="graph0" class="graph" transform="scale(1 1) rotate(0) translate(4 291.42)">
<title>%3</title>
<g id="clust1" class="cluster">
<title>cluster1</title>
<polygon fill="white" stroke="black" points="160,-30.42 160,-105.42 278,-105.42 278,-30.42 160,-30.42"/>
<text text-anchor="middle" x="219" y="-90.22" font-family="Lato" font-size="14.00">Marco de fact(4)</text>
</g>
<g id="clust2" class="cluster">
<title>cluster2</title>
<polygon fill="white" stroke="black" points="160,-113.42 160,-188.42 278,-188.42 278,-113.42 160,-113.42"/>
<text text-anchor="middle" x="219" y="-173.22" font-family="Lato" font-size="14.00">Marco de fact(3)</text>
</g>
<g id="clust3" class="cluster">
<title>cluster3</title>
<polygon fill="white" stroke="black" points="160,-204.42 160,-279.42 278,-279.42 278,-204.42 160,-204.42"/>
<text text-anchor="middle" x="219" y="-264.22" font-family="Lato" font-size="14.00">Marco de fact(2)</text>
</g>
<g id="clust4" class="cluster">
<title>cluster0</title>
<polygon fill="white" stroke="black" points="370,-85.42 370,-160.42 465,-160.42 465,-85.42 370,-85.42"/>
<text text-anchor="middle" x="417.5" y="-145.22" font-family="Lato" font-size="14.00">Marco global</text>
</g>
<!-- pila -->
<g id="node1" class="node">
<title>pila</title>
<polygon fill="white" stroke="black" points="41,-53.42 41,-141.42 95,-141.42 95,-53.42 41,-53.42"/>
<text text-anchor="middle" x="68" y="-127.02" font-family="Lato" font-size="13.00">fact(2)</text>
<polyline fill="none" stroke="black" points="41,-119.42 95,-119.42 "/>
<text text-anchor="middle" x="68" y="-105.02" font-family="Lato" font-size="13.00">fact(3)</text>
<polyline fill="none" stroke="black" points="41,-97.42 95,-97.42 "/>
<text text-anchor="middle" x="68" y="-83.02" font-family="Lato" font-size="13.00">fact(4)</text>
<polyline fill="none" stroke="black" points="41,-75.42 95,-75.42 "/>
<text text-anchor="middle" x="68" y="-61.02" font-family="Lato" font-size="13.00">Global</text>
<text text-anchor="middle" x="20.5" y="-42.52" font-family="Lato" font-size="13.00">Pila de</text>
<text text-anchor="middle" x="20.5" y="-28.52" font-family="Lato" font-size="13.00">control</text>
</g>
<!-- n4 -->
<g id="node3" class="node">
<title>n4</title>
<polygon fill="transparent" stroke="transparent" points="246,-74.42 192,-74.42 192,-38.42 246,-38.42 246,-74.42"/>
<text text-anchor="middle" x="219" y="-53.02" font-family="monospace" font-size="13.00">n</text>
</g>
<!-- pila&#45;&gt;n4 -->
<g id="edge6" class="edge">
<title>pila:f1&#45;&gt;n4</title>
<path fill="none" stroke="black" d="M95,-86.42C113.21,-86.42 132.51,-83.28 150.3,-79.03"/>
<polygon fill="black" stroke="black" points="151.17,-82.42 160,-76.56 149.45,-75.63 151.17,-82.42"/>
</g>
<!-- n3 -->
<g id="node5" class="node">
<title>n3</title>
<polygon fill="transparent" stroke="transparent" points="246,-157.42 192,-157.42 192,-121.42 246,-121.42 246,-157.42"/>
<text text-anchor="middle" x="219" y="-136.02" font-family="monospace" font-size="13.00">n</text>
</g>
<!-- pila&#45;&gt;n3 -->
<g id="edge7" class="edge">
<title>pila:f2&#45;&gt;n3</title>
<path fill="none" stroke="black" d="M95,-108.42C113.23,-108.42 132.53,-111.66 150.3,-116.05"/>
<polygon fill="black" stroke="black" points="149.44,-119.44 160,-118.59 151.22,-112.67 149.44,-119.44"/>
</g>
<!-- n2 -->
<g id="node7" class="node">
<title>n2</title>
<polygon fill="transparent" stroke="transparent" points="246,-248.42 192,-248.42 192,-212.42 246,-212.42 246,-248.42"/>
<text text-anchor="middle" x="219" y="-227.02" font-family="monospace" font-size="13.00">n</text>
</g>
<!-- pila&#45;&gt;n2 -->
<g id="edge8" class="edge">
<title>pila:f3&#45;&gt;n2</title>
<path fill="none" stroke="black" d="M95,-130.42C134.92,-130.42 128.73,-167.6 160,-192.42 162.57,-194.45 165.24,-196.49 167.98,-198.5"/>
<polygon fill="black" stroke="black" points="166.13,-201.47 176.3,-204.42 170.18,-195.77 166.13,-201.47"/>
</g>
<!-- fact -->
<g id="node9" class="node">
<title>fact</title>
<polygon fill="transparent" stroke="transparent" points="444,-129.42 390,-129.42 390,-93.42 444,-93.42 444,-129.42"/>
<text text-anchor="middle" x="417" y="-108.02" font-family="monospace" font-size="13.00">fact</text>
</g>
<!-- pila&#45;&gt;fact -->
<g id="edge5" class="edge">
<title>pila:f0&#45;&gt;fact</title>
<path fill="none" stroke="black" d="M95,-64.42C128.46,-64.42 127.92,-35.94 160,-26.42 237.6,-3.39 268.99,15.55 342,-19.42 369.82,-32.74 390.51,-62.2 402.83,-84.21"/>
<polygon fill="black" stroke="black" points="395.28,-78.85 403.6,-85.42 401.19,-75.1 395.28,-78.85"/>
</g>
<!-- 4 -->
<g id="node2" class="node">
<title>4</title>
<ellipse fill="white" stroke="black" cx="324" cy="-46.42" rx="18" ry="18"/>
<text text-anchor="middle" x="324" y="-43.02" font-family="Lato" font-size="13.00">4</text>
</g>
<!-- n4&#45;&gt;4 -->
<g id="edge1" class="edge">
<title>n4&#45;&gt;4</title>
<path fill="none" stroke="black" d="M246.26,-53.87C261.32,-52.41 280.2,-50.57 295.47,-49.09"/>
<polygon fill="black" stroke="black" points="296.23,-52.53 305.84,-48.08 295.55,-45.57 296.23,-52.53"/>
</g>
<!-- n4&#45;&gt;fact -->
<g id="edge9" class="edge">
<title>n4&#45;&gt;fact</title>
<path fill="none" stroke="black" d="M278,-72.69C303.98,-79.98 334.5,-88.55 360.21,-95.76"/>
<polygon fill="black" stroke="black" points="359.43,-99.18 370,-98.51 361.32,-92.44 359.43,-99.18"/>
</g>
<!-- 3 -->
<g id="node4" class="node">
<title>3</title>
<ellipse fill="white" stroke="black" cx="324" cy="-176.42" rx="18" ry="18"/>
<text text-anchor="middle" x="324" y="-173.02" font-family="Lato" font-size="13.00">3</text>
</g>
<!-- n3&#45;&gt;3 -->
<g id="edge2" class="edge">
<title>n3&#45;&gt;3</title>
<path fill="none" stroke="black" d="M246.26,-148.85C261.9,-154.47 281.68,-161.57 297.24,-167.16"/>
<polygon fill="black" stroke="black" points="296.17,-170.5 306.76,-170.59 298.54,-163.91 296.17,-170.5"/>
</g>
<!-- n3&#45;&gt;fact -->
<g id="edge10" class="edge">
<title>n3&#45;&gt;fact</title>
<path fill="none" stroke="black" d="M278,-131.13C303.82,-127.44 334.12,-123.12 359.73,-119.46"/>
<polygon fill="black" stroke="black" points="360.6,-122.87 370,-117.99 359.61,-115.94 360.6,-122.87"/>
</g>
<!-- 2 -->
<g id="node6" class="node">
<title>2</title>
<ellipse fill="white" stroke="black" cx="324" cy="-230.42" rx="18" ry="18"/>
<text text-anchor="middle" x="324" y="-227.02" font-family="Lato" font-size="13.00">2</text>
</g>
<!-- n2&#45;&gt;2 -->
<g id="edge3" class="edge">
<title>n2&#45;&gt;2</title>
<path fill="none" stroke="black" d="M246.26,-230.42C261.32,-230.42 280.2,-230.42 295.47,-230.42"/>
<polygon fill="black" stroke="black" points="295.84,-233.92 305.84,-230.42 295.84,-226.92 295.84,-233.92"/>
</g>
<!-- n2&#45;&gt;fact -->
<g id="edge11" class="edge">
<title>n2&#45;&gt;fact</title>
<path fill="none" stroke="black" d="M278,-260.28C299.31,-267.01 322.89,-269.16 342,-257.42 373.01,-238.37 391.51,-201.84 402.26,-170.09"/>
<polygon fill="black" stroke="black" points="405.64,-171 405.35,-160.41 398.98,-168.87 405.64,-171"/>
</g>
<!-- lambda -->
<g id="node8" class="node">
<title>lambda</title>
<ellipse fill="white" stroke="black" cx="511" cy="-111.42" rx="18" ry="18"/>
<text text-anchor="middle" x="511" y="-108.02" font-family="Lato" font-size="13.00">λ</text>
</g>
<!-- fact&#45;&gt;lambda -->
<g id="edge4" class="edge">
<title>fact&#45;&gt;lambda</title>
<path fill="none" stroke="black" d="M444.12,-111.42C456.2,-111.42 470.54,-111.42 482.76,-111.42"/>
<polygon fill="black" stroke="black" points="482.83,-114.92 492.83,-111.42 482.83,-107.92 482.83,-114.92"/>
</g>
</g>
</svg>
