<?xml version="1.0" encoding="UTF-8" standalone="no"?>
<!DOCTYPE svg PUBLIC "-//W3C//DTD SVG 1.1//EN"
 "http://www.w3.org/Graphics/SVG/1.1/DTD/svg11.dtd">
<!-- Generated by graphviz version 2.43.0 (0)
 -->
<!-- Title: %3 Pages: 1 -->
<svg width="522pt" height="265pt"
 viewBox="0.00 0.00 522.33 265.00" xmlns="http://www.w3.org/2000/svg" xmlns:xlink="http://www.w3.org/1999/xlink">
<g id="graph0" class="graph" transform="scale(1 1) rotate(0) translate(4 261)">
<title>%3</title>
<g id="clust1" class="cluster">
<title>cluster1</title>
<polygon fill="white" stroke="black" points="160,-8 160,-83 302,-83 302,-8 160,-8"/>
<text text-anchor="middle" x="231" y="-67.8" font-family="Lato" font-size="14.00">Marco de fact(4)</text>
</g>
<g id="clust2" class="cluster">
<title>cluster2</title>
<polygon fill="white" stroke="black" points="160,-91 160,-166 302,-166 302,-91 160,-91"/>
<text text-anchor="middle" x="231" y="-150.8" font-family="Lato" font-size="14.00">Marco de fact(3)</text>
</g>
<g id="clust3" class="cluster">
<title>cluster3</title>
<polygon fill="white" stroke="black" points="160,-174 160,-249 302,-249 302,-174 160,-174"/>
<text text-anchor="middle" x="231" y="-233.8" font-family="Lato" font-size="14.00">Marco de fact(2)</text>
</g>
<g id="clust4" class="cluster">
<title>cluster0</title>
<polygon fill="white" stroke="black" points="322,-91 322,-166 506.33,-166 506.33,-91 322,-91"/>
<text text-anchor="middle" x="414.16" y="-150.8" font-family="Lato" font-size="14.00">Marco global</text>
</g>
<!-- pila -->
<g id="node1" class="node">
<title>pila</title>
<polygon fill="white" stroke="black" points="41,-84 41,-150 95,-150 95,-84 41,-84"/>
<text text-anchor="middle" x="68" y="-135.6" font-family="Lato" font-size="13.00">fact(2)</text>
<polyline fill="none" stroke="black" points="41,-128 95,-128 "/>
<text text-anchor="middle" x="68" y="-113.6" font-family="Lato" font-size="13.00">fact(3)</text>
<polyline fill="none" stroke="black" points="41,-106 95,-106 "/>
<text text-anchor="middle" x="68" y="-91.6" font-family="Lato" font-size="13.00">fact(4)</text>
<text text-anchor="middle" x="20.5" y="-73.1" font-family="Lato" font-size="13.00">Pila de</text>
<text text-anchor="middle" x="20.5" y="-59.1" font-family="Lato" font-size="13.00">control</text>
</g>
<!-- n4 -->
<g id="node3" class="node">
<title>n4</title>
<polygon fill="transparent" stroke="transparent" points="222,-52 168,-52 168,-16 222,-16 222,-52"/>
<text text-anchor="middle" x="195" y="-30.6" font-family="monospace" font-size="13.00">n</text>
</g>
<!-- pila&#45;&gt;n4 -->
<g id="edge5" class="edge">
<title>pila:f1&#45;&gt;n4</title>
<path fill="none" stroke="black" d="M95,-95C115.49,-95 135.29,-85.42 151.73,-73.84"/>
<polygon fill="black" stroke="black" points="154.09,-76.45 160,-67.65 149.9,-70.84 154.09,-76.45"/>
</g>
<!-- n3 -->
<g id="node5" class="node">
<title>n3</title>
<polygon fill="transparent" stroke="transparent" points="222,-135 168,-135 168,-99 222,-99 222,-135"/>
<text text-anchor="middle" x="195" y="-113.6" font-family="monospace" font-size="13.00">n</text>
</g>
<!-- pila&#45;&gt;n3 -->
<g id="edge6" class="edge">
<title>pila:f2&#45;&gt;n3</title>
<path fill="none" stroke="black" d="M95,-117C115.79,-117 139.03,-117 157.76,-117"/>
<polygon fill="black" stroke="black" points="150,-120.5 160,-117 150,-113.5 150,-120.5"/>
</g>
<!-- n2 -->
<g id="node7" class="node">
<title>n2</title>
<polygon fill="transparent" stroke="transparent" points="222,-218 168,-218 168,-182 222,-182 222,-218"/>
<text text-anchor="middle" x="195" y="-196.6" font-family="monospace" font-size="13.00">n</text>
</g>
<!-- pila&#45;&gt;n2 -->
<g id="edge7" class="edge">
<title>pila:f3&#45;&gt;n2</title>
<path fill="none" stroke="black" d="M95,-139C107.53,-139 131.19,-153.35 152.24,-168.13"/>
<polygon fill="black" stroke="black" points="150.28,-171.03 160.45,-174 154.36,-165.34 150.28,-171.03"/>
</g>
<!-- 4 -->
<g id="node2" class="node">
<title>4</title>
<ellipse fill="white" stroke="black" cx="276" cy="-34" rx="18" ry="18"/>
<text text-anchor="middle" x="276" y="-30.6" font-family="monospace" font-size="13.00">4</text>
</g>
<!-- fact -->
<g id="node9" class="node">
<title>fact</title>
<polygon fill="transparent" stroke="transparent" points="384,-135 330,-135 330,-99 384,-99 384,-135"/>
<text text-anchor="middle" x="357" y="-113.6" font-family="monospace" font-size="13.00">fact</text>
</g>
<!-- 4&#45;&gt;fact -->
<g id="edge8" class="edge">
<title>4&#45;&gt;fact</title>
<path fill="none" stroke="black" d="M302,-60.26C309.02,-67.64 316.76,-75.77 324.13,-83.51"/>
<polygon fill="black" stroke="black" points="321.82,-86.17 331.25,-91 326.9,-81.35 321.82,-86.17"/>
</g>
<!-- n4&#45;&gt;4 -->
<g id="edge1" class="edge">
<title>n4&#45;&gt;4</title>
<path fill="none" stroke="black" d="M222.31,-34C230.42,-34 239.37,-34 247.56,-34"/>
<polygon fill="black" stroke="black" points="247.75,-37.5 257.75,-34 247.75,-30.5 247.75,-37.5"/>
</g>
<!-- 3 -->
<g id="node4" class="node">
<title>3</title>
<ellipse fill="white" stroke="black" cx="276" cy="-117" rx="18" ry="18"/>
<text text-anchor="middle" x="276" y="-113.6" font-family="monospace" font-size="13.00">3</text>
</g>
<!-- 3&#45;&gt;fact -->
<g id="edge9" class="edge">
<title>3&#45;&gt;fact</title>
<path fill="none" stroke="black" d="M302,-117C307.61,-117 313.67,-117 319.64,-117"/>
<polygon fill="black" stroke="black" points="312,-120.5 322,-117 312,-113.5 312,-120.5"/>
</g>
<!-- n3&#45;&gt;3 -->
<g id="edge2" class="edge">
<title>n3&#45;&gt;3</title>
<path fill="none" stroke="black" d="M222.31,-117C230.42,-117 239.37,-117 247.56,-117"/>
<polygon fill="black" stroke="black" points="247.75,-120.5 257.75,-117 247.75,-113.5 247.75,-120.5"/>
</g>
<!-- 2 -->
<g id="node6" class="node">
<title>2</title>
<ellipse fill="white" stroke="black" cx="276" cy="-200" rx="18" ry="18"/>
<text text-anchor="middle" x="276" y="-196.6" font-family="monospace" font-size="13.00">2</text>
</g>
<!-- 2&#45;&gt;fact -->
<g id="edge10" class="edge">
<title>2&#45;&gt;fact</title>
<path fill="none" stroke="black" d="M301.75,-174C306,-169.53 310.52,-164.78 315.06,-160.01"/>
<polygon fill="black" stroke="black" points="317.64,-162.38 322,-152.72 312.57,-157.55 317.64,-162.38"/>
</g>
<!-- n2&#45;&gt;2 -->
<g id="edge3" class="edge">
<title>n2&#45;&gt;2</title>
<path fill="none" stroke="black" d="M222.31,-200C230.42,-200 239.37,-200 247.56,-200"/>
<polygon fill="black" stroke="black" points="247.75,-203.5 257.75,-200 247.75,-196.5 247.75,-203.5"/>
</g>
<!-- lambda -->
<g id="node8" class="node">
<title>lambda</title>
<ellipse fill="white" stroke="black" cx="459.16" cy="-117" rx="39.33" ry="18"/>
<text text-anchor="middle" x="459.16" y="-113.6" font-family="monospace" font-size="13.00">lambda</text>
</g>
<!-- fact&#45;&gt;lambda -->
<g id="edge4" class="edge">
<title>fact&#45;&gt;lambda</title>
<path fill="none" stroke="black" d="M384.06,-117C391.89,-117 400.75,-117 409.55,-117"/>
<polygon fill="black" stroke="black" points="409.78,-120.5 419.78,-117 409.78,-113.5 409.78,-120.5"/>
</g>
</g>
</svg>
