<?xml version="1.0" encoding="UTF-8" standalone="no"?>
<!DOCTYPE svg PUBLIC "-//W3C//DTD SVG 1.1//EN"
 "http://www.w3.org/Graphics/SVG/1.1/DTD/svg11.dtd">
<!-- Generated by graphviz version 2.43.0 (0)
 -->
<!-- Title: %3 Pages: 1 -->
<svg width="484pt" height="323pt"
 viewBox="0.00 0.00 484.43 323.00" xmlns="http://www.w3.org/2000/svg" xmlns:xlink="http://www.w3.org/1999/xlink">
<g id="graph0" class="graph" transform="scale(1 1) rotate(0) translate(4 319)">
<title>%3</title>
<g id="clust1" class="cluster">
<title>cluster1</title>
<polygon fill="white" stroke="black" points="160,-8 160,-83 304.21,-83 304.21,-8 160,-8"/>
<text text-anchor="middle" x="232.11" y="-67.8" font-family="Lato" font-size="14.00">Marco de uno</text>
</g>
<g id="clust2" class="cluster">
<title>cluster2</title>
<polygon fill="white" stroke="black" points="160,-91 160,-220 304.21,-220 304.21,-91 160,-91"/>
<text text-anchor="middle" x="232.11" y="-204.8" font-family="Lato" font-size="14.00">Marco de dos</text>
</g>
<g id="clust3" class="cluster">
<title>cluster3</title>
<polygon fill="white" stroke="black" points="160,-228 160,-307 306.43,-307 306.43,-228 160,-228"/>
<text text-anchor="middle" x="233.21" y="-291.8" font-family="Lato" font-size="14.00">Marco de tres</text>
</g>
<g id="clust4" class="cluster">
<title>cluster0</title>
<polygon fill="white" stroke="black" points="326.43,-145 326.43,-220 468.43,-220 468.43,-145 326.43,-145"/>
<text text-anchor="middle" x="397.43" y="-204.8" font-family="Lato" font-size="14.00">Marco global</text>
</g>
<!-- pila -->
<g id="node1" class="node">
<title>pila</title>
<polygon fill="white" stroke="black" points="41,-138 41,-204 95,-204 95,-138 41,-138"/>
<text text-anchor="middle" x="68" y="-189.6" font-family="Lato" font-size="13.00">Tres</text>
<polyline fill="none" stroke="black" points="41,-182 95,-182 "/>
<text text-anchor="middle" x="68" y="-167.6" font-family="Lato" font-size="13.00">Dos</text>
<polyline fill="none" stroke="black" points="41,-160 95,-160 "/>
<text text-anchor="middle" x="68" y="-145.6" font-family="Lato" font-size="13.00">Uno</text>
<text text-anchor="middle" x="20.5" y="-127.1" font-family="Lato" font-size="13.00">Pila de</text>
<text text-anchor="middle" x="20.5" y="-113.1" font-family="Lato" font-size="13.00">control</text>
</g>
<!-- x -->
<g id="node3" class="node">
<title>x</title>
<polygon fill="transparent" stroke="transparent" points="222,-52 168,-52 168,-16 222,-16 222,-52"/>
<text text-anchor="middle" x="195" y="-30.6" font-family="monospace" font-size="13.00">x</text>
</g>
<!-- pila&#45;&gt;x -->
<g id="edge6" class="edge">
<title>pila:f1&#45;&gt;x</title>
<path fill="none" stroke="black" d="M95,-149C103.8,-149 130.4,-117.65 153.82,-87.68"/>
<polygon fill="black" stroke="black" points="156.64,-89.75 160,-79.71 151.11,-85.46 156.64,-89.75"/>
</g>
<!-- y -->
<g id="node5" class="node">
<title>y</title>
<polygon fill="transparent" stroke="transparent" points="222,-189 168,-189 168,-153 222,-153 222,-189"/>
<text text-anchor="middle" x="195" y="-167.6" font-family="monospace" font-size="13.00">y</text>
</g>
<!-- pila&#45;&gt;y -->
<g id="edge7" class="edge">
<title>pila:f2&#45;&gt;y</title>
<path fill="none" stroke="black" d="M95,-171C115.79,-171 139.03,-171 157.76,-171"/>
<polygon fill="black" stroke="black" points="150,-174.5 160,-171 150,-167.5 150,-174.5"/>
</g>
<!-- w -->
<g id="node8" class="node">
<title>w</title>
<polygon fill="transparent" stroke="transparent" points="222,-273 168,-273 168,-237 222,-237 222,-273"/>
<text text-anchor="middle" x="195" y="-251.6" font-family="monospace" font-size="13.00">w</text>
</g>
<!-- pila&#45;&gt;w -->
<g id="edge8" class="edge">
<title>pila:f3&#45;&gt;w</title>
<path fill="none" stroke="black" d="M95,-193C107.5,-193 130.91,-207.37 151.83,-222.28"/>
<polygon fill="black" stroke="black" points="149.85,-225.17 160,-228.21 153.97,-219.5 149.85,-225.17"/>
</g>
<!-- 3 -->
<g id="node2" class="node">
<title>3</title>
<ellipse fill="white" stroke="black" cx="278.21" cy="-34" rx="18" ry="18"/>
<text text-anchor="middle" x="278.21" y="-30.6" font-family="monospace" font-size="13.00">3</text>
</g>
<!-- g -->
<g id="node11" class="node">
<title>g</title>
<polygon fill="transparent" stroke="transparent" points="388.43,-189 334.43,-189 334.43,-153 388.43,-153 388.43,-189"/>
<text text-anchor="middle" x="361.43" y="-167.6" font-family="monospace" font-size="13.00">g</text>
</g>
<!-- 3&#45;&gt;g -->
<g id="edge9" class="edge">
<title>3&#45;&gt;g</title>
<path fill="none" stroke="black" d="M304.21,-76.17C317.33,-98.29 333.01,-124.74 344.47,-144.08"/>
<polygon fill="black" stroke="black" points="335.64,-141.33 345.58,-145 340.1,-135.93 335.64,-141.33"/>
</g>
<!-- x&#45;&gt;3 -->
<g id="edge1" class="edge">
<title>x&#45;&gt;3</title>
<path fill="none" stroke="black" d="M222.14,-34C230.98,-34 240.86,-34 249.79,-34"/>
<polygon fill="black" stroke="black" points="250.08,-37.5 260.08,-34 250.08,-30.5 250.08,-37.5"/>
</g>
<!-- 6 -->
<g id="node4" class="node">
<title>6</title>
<ellipse fill="white" stroke="black" cx="278.21" cy="-171" rx="18" ry="18"/>
<text text-anchor="middle" x="278.21" y="-167.6" font-family="monospace" font-size="13.00">6</text>
</g>
<!-- 6&#45;&gt;g -->
<g id="edge10" class="edge">
<title>6&#45;&gt;g</title>
<path fill="none" stroke="black" d="M304.21,-171C310.49,-171 317.35,-171 324.06,-171"/>
<polygon fill="black" stroke="black" points="316.43,-174.5 326.43,-171 316.43,-167.5 316.43,-174.5"/>
</g>
<!-- y&#45;&gt;6 -->
<g id="edge2" class="edge">
<title>y&#45;&gt;6</title>
<path fill="none" stroke="black" d="M222.14,-171C230.98,-171 240.86,-171 249.79,-171"/>
<polygon fill="black" stroke="black" points="250.08,-174.5 260.08,-171 250.08,-167.5 250.08,-174.5"/>
</g>
<!-- 4 -->
<g id="node6" class="node">
<title>4</title>
<ellipse fill="white" stroke="black" cx="278.21" cy="-117" rx="18" ry="18"/>
<text text-anchor="middle" x="278.21" y="-113.6" font-family="monospace" font-size="13.00">4</text>
</g>
<!-- z -->
<g id="node7" class="node">
<title>z</title>
<polygon fill="transparent" stroke="transparent" points="222,-135 168,-135 168,-99 222,-99 222,-135"/>
<text text-anchor="middle" x="195" y="-113.6" font-family="monospace" font-size="13.00">z</text>
</g>
<!-- z&#45;&gt;4 -->
<g id="edge3" class="edge">
<title>z&#45;&gt;4</title>
<path fill="none" stroke="black" d="M222.14,-117C230.98,-117 240.86,-117 249.79,-117"/>
<polygon fill="black" stroke="black" points="250.08,-120.5 260.08,-117 250.08,-113.5 250.08,-120.5"/>
</g>
<!-- 11 -->
<g id="node9" class="node">
<title>11</title>
<ellipse fill="white" stroke="black" cx="278.21" cy="-256" rx="20.43" ry="20.43"/>
<text text-anchor="middle" x="278.21" y="-252.6" font-family="monospace" font-size="13.00">11</text>
</g>
<!-- w&#45;&gt;11 -->
<g id="edge4" class="edge">
<title>w&#45;&gt;11</title>
<path fill="none" stroke="black" d="M222.14,-255.32C230.29,-255.42 239.34,-255.53 247.7,-255.64"/>
<polygon fill="black" stroke="black" points="247.78,-259.14 257.82,-255.76 247.86,-252.14 247.78,-259.14"/>
</g>
<!-- 11&#45;&gt;g -->
<g id="edge11" class="edge">
<title>11&#45;&gt;g</title>
<path fill="none" stroke="black" d="M305.96,-228C310.31,-223.45 314.9,-218.65 319.49,-213.84"/>
<polygon fill="black" stroke="black" points="322.05,-216.23 326.43,-206.58 316.99,-211.39 322.05,-216.23"/>
</g>
<!-- 1 -->
<g id="node10" class="node">
<title>1</title>
<ellipse fill="white" stroke="black" cx="442.43" cy="-171" rx="18" ry="18"/>
<text text-anchor="middle" x="442.43" y="-167.6" font-family="monospace" font-size="13.00">1</text>
</g>
<!-- g&#45;&gt;1 -->
<g id="edge5" class="edge">
<title>g&#45;&gt;1</title>
<path fill="none" stroke="black" d="M388.73,-171C396.85,-171 405.8,-171 413.99,-171"/>
<polygon fill="black" stroke="black" points="414.18,-174.5 424.18,-171 414.18,-167.5 414.18,-174.5"/>
</g>
</g>
</svg>
