<?xml version="1.0" encoding="UTF-8" standalone="no"?>
<!DOCTYPE svg PUBLIC "-//W3C//DTD SVG 1.1//EN"
 "http://www.w3.org/Graphics/SVG/1.1/DTD/svg11.dtd">
<!-- Generated by graphviz version 14.1.1 (0)
 -->
<!-- Pages: 1 -->
<svg width="313pt" height="565pt"
 viewBox="0.00 0.00 313.00 565.00" xmlns="http://www.w3.org/2000/svg" xmlns:xlink="http://www.w3.org/1999/xlink">
<g id="graph0" class="graph" transform="scale(1 1) rotate(0) translate(4 561)">
<g id="clust1" class="cluster">
<title>cluster9</title>
<polygon fill="#f2f2f2" stroke="black" points="51.27,-8 51.27,-549 239.27,-549 239.27,-8 51.27,-8"/>
<text xml:space="preserve" text-anchor="middle" x="145.27" y="-531.7" font-family="Lato" font-size="14.00">Pila de control</text>
</g>
<g id="clust2" class="cluster">
<title>cluster3</title>
<polygon fill="white" stroke="black" points="59.27,-439 59.27,-516 231.27,-516 231.27,-439 59.27,-439"/>
<text xml:space="preserve" text-anchor="middle" x="145.27" y="-498.7" font-family="Lato" font-size="14.00">Marco del lambda interior</text>
</g>
<g id="clust3" class="cluster">
<title>cluster2</title>
<polygon fill="white" stroke="black" points="64.15,-294 64.15,-427 226.4,-427 226.4,-294 64.15,-294"/>
<text xml:space="preserve" text-anchor="start" x="72.15" y="-410.7" font-family="Lato" font-size="14.00"> &#160;&#160;&#160;&#160;&#160;&#160;&#160;Marco de </text>
<text xml:space="preserve" text-anchor="start" x="163.65" y="-410.7" font-family="monospace" font-size="14.00">dos</text>
<text xml:space="preserve" text-anchor="start" x="188.4" y="-410.7" font-family="Lato" font-size="14.00"> &#160;&#160;&#160;&#160;&#160;&#160;&#160;</text>
</g>
<g id="clust4" class="cluster">
<title>cluster1</title>
<polygon fill="white" stroke="black" points="64.15,-209 64.15,-286 226.4,-286 226.4,-209 64.15,-209"/>
<text xml:space="preserve" text-anchor="start" x="72.15" y="-269.7" font-family="Lato" font-size="14.00"> &#160;&#160;&#160;&#160;&#160;&#160;&#160;Marco de </text>
<text xml:space="preserve" text-anchor="start" x="163.65" y="-269.7" font-family="monospace" font-size="14.00">uno</text>
<text xml:space="preserve" text-anchor="start" x="188.4" y="-269.7" font-family="Lato" font-size="14.00"> &#160;&#160;&#160;&#160;&#160;&#160;&#160;</text>
</g>
<g id="clust5" class="cluster">
<title>cluster0</title>
<polygon fill="white" stroke="black" points="64.15,-16 64.15,-201 226.4,-201 226.4,-16 64.15,-16"/>
<text xml:space="preserve" text-anchor="middle" x="145.27" y="-183.7" font-family="Lato" font-size="14.00"> &#160;&#160;&#160;&#160;&#160;&#160;&#160;&#160;Marco global &#160;&#160;&#160;&#160;&#160;&#160;&#160;&#160;</text>
</g>
<!-- z -->
<g id="node1" class="node">
<title>z</title>
<polygon fill="none" stroke="none" points="156.52,-483 133.02,-483 133.02,-447 156.52,-447 156.52,-483"/>
<text xml:space="preserve" text-anchor="middle" x="144.77" y="-460.9" font-family="monospace" font-size="13.00">z</text>
</g>
<!-- dummy -->
<!-- 8 -->
<g id="node9" class="node">
<title>8</title>
<ellipse fill="white" stroke="black" cx="286.65" cy="-465" rx="18" ry="18"/>
<text xml:space="preserve" text-anchor="middle" x="286.65" y="-460.9" font-family="Lato" font-size="13.00">8</text>
</g>
<!-- z&#45;&gt;8 -->
<g id="edge5" class="edge">
<title>z&#45;&gt;8</title>
<path fill="none" stroke="black" d="M156.29,-465C177.38,-465 225.49,-465 256.73,-465"/>
<polygon fill="black" stroke="black" points="256.66,-468.5 266.66,-465 256.66,-461.5 256.66,-468.5"/>
</g>
<!-- y -->
<g id="node2" class="node">
<title>y</title>
<polygon fill="none" stroke="none" points="156.52,-338 133.02,-338 133.02,-302 156.52,-302 156.52,-338"/>
<text xml:space="preserve" text-anchor="middle" x="144.77" y="-315.9" font-family="monospace" font-size="13.00">y</text>
</g>
<!-- g -->
<g id="node5" class="node">
<title>g</title>
<polygon fill="none" stroke="none" points="156.52,-168 133.02,-168 133.02,-132 156.52,-132 156.52,-168"/>
<text xml:space="preserve" text-anchor="middle" x="144.77" y="-145.9" font-family="monospace" font-size="13.00">g</text>
</g>
<!-- y&#45;&gt;g -->
<g id="edge8" class="edge">
<title>y&#45;&gt;g</title>
<path fill="none" stroke="black" d="M64.15,-305.97C52.79,-300.22 42.85,-292.19 36.59,-281 22.04,-255.02 22.04,-239.98 36.59,-214 41.47,-205.27 48.08,-197.62 55.63,-190.94"/>
<polygon fill="black" stroke="black" points="57.39,-194.01 62.98,-185.01 52.99,-188.57 57.39,-194.01"/>
</g>
<!-- 2 -->
<g id="node11" class="node">
<title>2</title>
<ellipse fill="white" stroke="black" cx="286.65" cy="-320" rx="18" ry="18"/>
<text xml:space="preserve" text-anchor="middle" x="286.65" y="-315.9" font-family="Lato" font-size="13.00">2</text>
</g>
<!-- y&#45;&gt;2 -->
<g id="edge6" class="edge">
<title>y&#45;&gt;2</title>
<path fill="none" stroke="black" d="M156.29,-320C177.38,-320 225.49,-320 256.73,-320"/>
<polygon fill="black" stroke="black" points="256.66,-323.5 266.66,-320 256.66,-316.5 256.66,-323.5"/>
</g>
<!-- x -->
<g id="node4" class="node">
<title>x</title>
<polygon fill="none" stroke="none" points="156.52,-253 133.02,-253 133.02,-217 156.52,-217 156.52,-253"/>
<text xml:space="preserve" text-anchor="middle" x="144.77" y="-230.9" font-family="monospace" font-size="13.00">x</text>
</g>
<!-- uno -->
<g id="node6" class="node">
<title>uno</title>
<polygon fill="none" stroke="none" points="164.02,-114 125.52,-114 125.52,-78 164.02,-78 164.02,-114"/>
<text xml:space="preserve" text-anchor="middle" x="144.77" y="-91.9" font-family="monospace" font-size="13.00">uno</text>
</g>
<!-- x&#45;&gt;uno -->
<g id="edge7" class="edge">
<title>x&#45;&gt;uno</title>
<path fill="none" stroke="black" d="M64.15,-220.97C52.79,-215.22 42.85,-207.19 36.59,-196 22.69,-171.18 22.69,-156.82 36.59,-132 40.97,-124.18 47.18,-118 54.45,-113.12"/>
<polygon fill="black" stroke="black" points="55.86,-116.34 62.84,-108.37 52.41,-110.25 55.86,-116.34"/>
</g>
<!-- 3 -->
<g id="node8" class="node">
<title>3</title>
<ellipse fill="white" stroke="black" cx="286.65" cy="-235" rx="18" ry="18"/>
<text xml:space="preserve" text-anchor="middle" x="286.65" y="-230.9" font-family="Lato" font-size="13.00">3</text>
</g>
<!-- x&#45;&gt;3 -->
<g id="edge4" class="edge">
<title>x&#45;&gt;3</title>
<path fill="none" stroke="black" d="M156.29,-235C177.38,-235 225.49,-235 256.73,-235"/>
<polygon fill="black" stroke="black" points="256.66,-238.5 266.66,-235 256.66,-231.5 256.66,-238.5"/>
</g>
<!-- 1 -->
<g id="node10" class="node">
<title>1</title>
<ellipse fill="white" stroke="black" cx="286.65" cy="-150" rx="18" ry="18"/>
<text xml:space="preserve" text-anchor="middle" x="286.65" y="-145.9" font-family="Lato" font-size="13.00">1</text>
</g>
<!-- g&#45;&gt;1 -->
<g id="edge3" class="edge">
<title>g&#45;&gt;1</title>
<path fill="none" stroke="black" d="M156.29,-150C177.38,-150 225.49,-150 256.73,-150"/>
<polygon fill="black" stroke="black" points="256.66,-153.5 266.66,-150 256.66,-146.5 256.66,-153.5"/>
</g>
<!-- l1 -->
<g id="node12" class="node">
<title>l1</title>
<ellipse fill="white" stroke="black" cx="286.65" cy="-96" rx="18" ry="18"/>
<text xml:space="preserve" text-anchor="middle" x="286.65" y="-91.9" font-family="Lato" font-size="13.00">λ</text>
</g>
<!-- uno&#45;&gt;l1 -->
<g id="edge1" class="edge">
<title>uno&#45;&gt;l1</title>
<path fill="none" stroke="black" d="M163.77,-96C187.3,-96 228.78,-96 256.74,-96"/>
<polygon fill="black" stroke="black" points="256.65,-99.5 266.65,-96 256.65,-92.5 256.65,-99.5"/>
</g>
<!-- dos -->
<g id="node7" class="node">
<title>dos</title>
<polygon fill="none" stroke="none" points="164.02,-60 125.52,-60 125.52,-24 164.02,-24 164.02,-60"/>
<text xml:space="preserve" text-anchor="middle" x="144.77" y="-37.9" font-family="monospace" font-size="13.00">dos</text>
</g>
<!-- l2 -->
<g id="node13" class="node">
<title>l2</title>
<ellipse fill="white" stroke="black" cx="286.65" cy="-42" rx="18" ry="18"/>
<text xml:space="preserve" text-anchor="middle" x="286.65" y="-37.9" font-family="Lato" font-size="13.00">λ</text>
</g>
<!-- dos&#45;&gt;l2 -->
<g id="edge2" class="edge">
<title>dos&#45;&gt;l2</title>
<path fill="none" stroke="black" d="M163.77,-42C187.3,-42 228.78,-42 256.74,-42"/>
<polygon fill="black" stroke="black" points="256.65,-45.5 266.65,-42 256.65,-38.5 256.65,-45.5"/>
</g>
<!-- E -->
<g id="node14" class="node">
<title>E</title>
<polygon fill="none" stroke="none" points="21.9,-483 0,-483 0,-447 21.9,-447 21.9,-483"/>
<text xml:space="preserve" text-anchor="middle" x="10.95" y="-460.9" font-family="Lato" font-size="13.00">E</text>
</g>
<!-- E&#45;&gt;z -->
<g id="edge10" class="edge">
<title>E&#45;&gt;z</title>
<path fill="none" stroke="black" d="M21.86,-465C28.34,-465 37.52,-465 47.98,-465"/>
<polygon fill="black" stroke="black" points="47.76,-468.5 57.76,-465 47.76,-461.5 47.76,-468.5"/>
</g>
</g>
</svg>
