<?xml version="1.0" encoding="UTF-8" standalone="no"?>
<!DOCTYPE svg PUBLIC "-//W3C//DTD SVG 1.1//EN"
 "http://www.w3.org/Graphics/SVG/1.1/DTD/svg11.dtd">
<!-- Generated by graphviz version 14.1.1 (0)
 -->
<!-- Pages: 1 -->
<svg width="626pt" height="258pt"
 viewBox="0.00 0.00 626.00 258.00" xmlns="http://www.w3.org/2000/svg" xmlns:xlink="http://www.w3.org/1999/xlink">
<g id="graph0" class="graph" transform="scale(1 1) rotate(0) translate(4 253.98)">
<g id="clust1" class="cluster">
<title>cluster9</title>
<polygon fill="#f2f2f2" stroke="black" points="41.9,-43.98 41.9,-236.98 158.4,-236.98 158.4,-43.98 41.9,-43.98"/>
<text xml:space="preserve" text-anchor="middle" x="100.15" y="-219.68" font-family="Lato" font-size="14.00">Pila de control</text>
</g>
<g id="clust2" class="cluster">
<title>cluster2</title>
<polygon fill="white" stroke="black" points="49.9,-51.98 49.9,-203.98 150.4,-203.98 150.4,-51.98 49.9,-51.98"/>
<text xml:space="preserve" text-anchor="start" x="60.77" y="-186.68" font-family="Lato" font-size="14.00">Marco global</text>
</g>
<g id="clust3" class="cluster">
<title>cluster8</title>
<path fill="#f2f2f2" stroke="black" d="M182.4,-38.98C182.4,-38.98 598.02,-38.98 598.02,-38.98 604.02,-38.98 610.02,-44.98 610.02,-50.98 610.02,-50.98 610.02,-229.98 610.02,-229.98 610.02,-235.98 604.02,-241.98 598.02,-241.98 598.02,-241.98 182.4,-241.98 182.4,-241.98 176.4,-241.98 170.4,-235.98 170.4,-229.98 170.4,-229.98 170.4,-50.98 170.4,-50.98 170.4,-44.98 176.4,-38.98 182.4,-38.98"/>
<text xml:space="preserve" text-anchor="middle" x="390.21" y="-224.68" font-family="Lato" font-size="14.00">Montículo</text>
</g>
<g id="clust4" class="cluster">
<title>cluster0</title>
<path fill="white" stroke="black" d="M342.71,-60.98C342.71,-60.98 511.71,-60.98 511.71,-60.98 517.71,-60.98 523.71,-66.98 523.71,-72.98 523.71,-72.98 523.71,-196.98 523.71,-196.98 523.71,-202.98 517.71,-208.98 511.71,-208.98 511.71,-208.98 342.71,-208.98 342.71,-208.98 336.71,-208.98 330.71,-202.98 330.71,-196.98 330.71,-196.98 330.71,-72.98 330.71,-72.98 330.71,-66.98 336.71,-60.98 342.71,-60.98"/>
<text xml:space="preserve" text-anchor="start" x="338.71" y="-192.68" font-family="Lato" font-size="14.00">Marco de </text>
<text xml:space="preserve" text-anchor="start" x="400.21" y="-192.68" font-family="monospace" font-size="14.00">pareja(20, 14)</text>
</g>
<!-- pareja -->
<g id="node1" class="node">
<title>pareja</title>
<polygon fill="white" stroke="black" points="57.9,-60.73 57.9,-85.23 142.4,-85.23 142.4,-60.73 57.9,-60.73"/>
<text xml:space="preserve" text-anchor="middle" x="88.4" y="-68.88" font-family="monospace" font-size="13.00">pareja</text>
<polyline fill="none" stroke="black" points="118.9,-60.73 118.9,-85.23"/>
<text xml:space="preserve" text-anchor="middle" x="130.65" y="-67.38" font-family="monospace" font-size="13.00">⬤</text>
</g>
<!-- f1 -->
<g id="node4" class="node">
<title>f1</title>
<ellipse fill="white" stroke="black" cx="199.55" cy="-67.98" rx="21.15" ry="21.15"/>
<text xml:space="preserve" text-anchor="middle" x="199.55" y="-63.88" font-family="monospace" font-size="13.00">λ1</text>
</g>
<!-- pareja&#45;&gt;f1 -->
<g id="edge1" class="edge">
<title>pareja:f1&#45;&gt;f1</title>
<path fill="none" stroke="black" d="M143.4,-72.98C150.97,-72.98 159.1,-72.5 166.74,-71.85"/>
<polygon fill="black" stroke="black" points="167.05,-75.33 176.66,-70.86 166.36,-68.37 167.05,-75.33"/>
</g>
<!-- select -->
<g id="node2" class="node">
<title>select</title>
<polygon fill="white" stroke="black" points="57.9,-104.73 57.9,-129.23 142.4,-129.23 142.4,-104.73 57.9,-104.73"/>
<text xml:space="preserve" text-anchor="middle" x="88.4" y="-112.88" font-family="monospace" font-size="13.00">select</text>
<polyline fill="none" stroke="black" points="118.9,-104.73 118.9,-129.23"/>
<text xml:space="preserve" text-anchor="middle" x="130.65" y="-111.38" font-family="monospace" font-size="13.00">⬤</text>
</g>
<!-- f2 -->
<g id="node5" class="node">
<title>f2</title>
<ellipse fill="white" stroke="black" cx="199.55" cy="-127.98" rx="21.15" ry="21.15"/>
<text xml:space="preserve" text-anchor="middle" x="199.55" y="-123.88" font-family="monospace" font-size="13.00">λ2</text>
</g>
<!-- select&#45;&gt;f2 -->
<g id="edge2" class="edge">
<title>select:f1&#45;&gt;f2</title>
<path fill="none" stroke="black" d="M143.4,-116.98C151.4,-116.98 159.94,-118.1 167.84,-119.64"/>
<polygon fill="black" stroke="black" points="166.83,-123 177.35,-121.76 168.36,-116.17 166.83,-123"/>
</g>
<!-- p -->
<g id="node3" class="node">
<title>p</title>
<polygon fill="white" stroke="black" points="82.15,-148.18 82.15,-169.78 118.15,-169.78 118.15,-148.18 82.15,-148.18"/>
<text xml:space="preserve" text-anchor="middle" x="91.4" y="-154.43" font-family="monospace" font-size="13.00">p</text>
<polyline fill="none" stroke="black" points="100.65,-147.28 100.65,-169.78"/>
<text xml:space="preserve" text-anchor="middle" x="109.4" y="-152.93" font-family="monospace" font-size="13.00">⬤</text>
</g>
<!-- f3 -->
<g id="node6" class="node">
<title>f3</title>
<ellipse fill="white" stroke="red" cx="199.55" cy="-187.98" rx="21.15" ry="21.15"/>
<text xml:space="preserve" text-anchor="middle" x="199.55" y="-183.88" font-family="monospace" font-size="13.00">λ3</text>
</g>
<!-- p&#45;&gt;f3 -->
<g id="edge3" class="edge">
<title>p:f1&#45;&gt;f3</title>
<path fill="none" stroke="black" d="M119.15,-158.53C137.13,-158.53 156.06,-165.25 170.92,-172.27"/>
<polygon fill="black" stroke="black" points="169.1,-175.27 179.6,-176.66 172.26,-169.02 169.1,-175.27"/>
</g>
<!-- y -->
<g id="node8" class="node">
<title>y</title>
<polygon fill="white" stroke="black" points="408.71,-110.18 408.71,-131.78 444.71,-131.78 444.71,-110.18 408.71,-110.18"/>
<text xml:space="preserve" text-anchor="middle" x="417.96" y="-116.43" font-family="monospace" font-size="13.00">y</text>
<polyline fill="none" stroke="black" points="427.21,-109.28 427.21,-131.78"/>
<text xml:space="preserve" text-anchor="middle" x="435.96" y="-114.93" font-family="monospace" font-size="13.00">⬤</text>
</g>
<!-- f3&#45;&gt;y -->
<g id="edge9" class="edge">
<title>f3&#45;&gt;y</title>
<path fill="none" stroke="blue" d="M219.69,-180.12C242.56,-170.92 282.46,-155.51 319.76,-144.2"/>
<polygon fill="blue" stroke="blue" points="320.65,-147.58 329.26,-141.4 318.68,-140.87 320.65,-147.58"/>
</g>
<!-- x -->
<g id="node7" class="node">
<title>x</title>
<polygon fill="white" stroke="black" points="408.71,-69.18 408.71,-90.78 444.71,-90.78 444.71,-69.18 408.71,-69.18"/>
<text xml:space="preserve" text-anchor="middle" x="417.96" y="-75.43" font-family="monospace" font-size="13.00">x</text>
<polyline fill="none" stroke="black" points="427.21,-68.28 427.21,-90.78"/>
<text xml:space="preserve" text-anchor="middle" x="435.96" y="-73.93" font-family="monospace" font-size="13.00">⬤</text>
</g>
<!-- x&#45;&gt;pareja -->
<g id="edge7" class="edge">
<title>x&#45;&gt;pareja:s</title>
<path fill="none" stroke="black" d="M385.22,-60.98C301.09,-23.58 114.1,47.96 100.89,-48.36"/>
<polygon fill="black" stroke="black" points="96.83,-40.74 101.04,-50.47 103.81,-40.24 96.83,-40.74"/>
</g>
<!-- 20 -->
<g id="node11" class="node">
<title>20</title>
<ellipse fill="white" stroke="grey" cx="580.86" cy="-67.98" rx="21.15" ry="21.15"/>
<text xml:space="preserve" text-anchor="middle" x="580.86" y="-63.88" font-family="monospace" font-size="13.00">20</text>
</g>
<!-- x&#45;&gt;20 -->
<g id="edge4" class="edge">
<title>x:f1&#45;&gt;20</title>
<path fill="none" stroke="black" d="M445.71,-79.53C480.94,-79.53 521.18,-75.52 548.32,-72.23"/>
<polygon fill="black" stroke="black" points="548.47,-75.74 557.95,-71.02 547.6,-68.79 548.47,-75.74"/>
</g>
<!-- 14 -->
<g id="node10" class="node">
<title>14</title>
<ellipse fill="white" stroke="grey" cx="580.86" cy="-127.98" rx="21.15" ry="21.15"/>
<text xml:space="preserve" text-anchor="middle" x="580.86" y="-123.88" font-family="monospace" font-size="13.00">14</text>
</g>
<!-- y&#45;&gt;14 -->
<g id="edge5" class="edge">
<title>y:f1&#45;&gt;14</title>
<path fill="none" stroke="black" d="M445.71,-120.53C480.86,-120.53 521.12,-123.11 548.29,-125.23"/>
<polygon fill="black" stroke="black" points="547.67,-128.69 557.92,-126.01 548.24,-121.71 547.67,-128.69"/>
</g>
<!-- get -->
<g id="node9" class="node">
<title>get</title>
<polygon fill="white" stroke="black" points="395.71,-150.73 395.71,-175.23 457.71,-175.23 457.71,-150.73 395.71,-150.73"/>
<text xml:space="preserve" text-anchor="middle" x="414.96" y="-158.88" font-family="monospace" font-size="13.00">get</text>
<polyline fill="none" stroke="black" points="434.21,-150.73 434.21,-175.23"/>
<text xml:space="preserve" text-anchor="middle" x="445.96" y="-157.38" font-family="monospace" font-size="13.00">⬤</text>
</g>
<!-- f4 -->
<g id="node12" class="node">
<title>f4</title>
<ellipse fill="white" stroke="black" cx="580.86" cy="-187.98" rx="21.15" ry="21.15"/>
<text xml:space="preserve" text-anchor="middle" x="580.86" y="-183.88" font-family="monospace" font-size="13.00">λ3</text>
</g>
<!-- get&#45;&gt;f4 -->
<g id="edge6" class="edge">
<title>get:f1&#45;&gt;f4</title>
<path fill="none" stroke="black" d="M458.71,-162.98C490.09,-162.98 525.11,-171.12 549.4,-178.11"/>
<polygon fill="black" stroke="black" points="548.36,-181.45 558.94,-180.97 550.37,-174.75 548.36,-181.45"/>
</g>
<!-- E -->
<g id="node13" class="node">
<title>E</title>
<polygon fill="none" stroke="none" points="21.9,-134.98 0,-134.98 0,-98.98 21.9,-98.98 21.9,-134.98"/>
<text xml:space="preserve" text-anchor="middle" x="10.95" y="-112.88" font-family="monospace" font-size="13.00">E</text>
</g>
<!-- E&#45;&gt;select -->
<g id="edge8" class="edge">
<title>E&#45;&gt;select</title>
<path fill="none" stroke="black" d="M21.62,-116.98C27.99,-116.98 36.9,-116.98 46.41,-116.98"/>
<polygon fill="black" stroke="black" points="38.39,-120.48 48.39,-116.98 38.39,-113.48 38.39,-120.48"/>
</g>
</g>
</svg>
