<?xml version="1.0" encoding="UTF-8" standalone="no"?>
<!DOCTYPE svg PUBLIC "-//W3C//DTD SVG 1.1//EN"
 "http://www.w3.org/Graphics/SVG/1.1/DTD/svg11.dtd">
<!-- Generated by graphviz version 2.40.1 (20161225.0304)
 -->
<!-- Title: %3 Pages: 1 -->
<svg width="576pt" height="293pt"
 viewBox="0.00 0.00 576.00 292.79" xmlns="http://www.w3.org/2000/svg" xmlns:xlink="http://www.w3.org/1999/xlink">
<g id="graph0" class="graph" transform="scale(1.1049 1.1049) rotate(0) translate(4 261)">
<title>%3</title>
<g id="clust1" class="cluster">
<title>cluster1</title>
<polygon fill="#ffffff" stroke="#000000" points="159,-8 159,-83 301,-83 301,-8 159,-8"/>
<text text-anchor="middle" x="230" y="-67.8" font-family="Lato" font-size="14.00" fill="#000000">Marco de fact(4)</text>
</g>
<g id="clust2" class="cluster">
<title>cluster2</title>
<polygon fill="#ffffff" stroke="#000000" points="159,-91 159,-166 301,-166 301,-91 159,-91"/>
<text text-anchor="middle" x="230" y="-150.8" font-family="Lato" font-size="14.00" fill="#000000">Marco de fact(3)</text>
</g>
<g id="clust3" class="cluster">
<title>cluster3</title>
<polygon fill="#ffffff" stroke="#000000" points="159,-174 159,-249 301,-249 301,-174 159,-174"/>
<text text-anchor="middle" x="230" y="-233.8" font-family="Lato" font-size="14.00" fill="#000000">Marco de fact(2)</text>
</g>
<g id="clust4" class="cluster">
<title>cluster0</title>
<polygon fill="#ffffff" stroke="#000000" points="321,-91 321,-166 505.3278,-166 505.3278,-91 321,-91"/>
<text text-anchor="middle" x="413.1639" y="-150.8" font-family="Lato" font-size="14.00" fill="#000000">Marco global</text>
</g>
<!-- pila -->
<g id="node1" class="node">
<title>pila</title>
<polygon fill="#ffffff" stroke="#000000" points="40,-84 40,-150 94,-150 94,-84 40,-84"/>
<text text-anchor="middle" x="67" y="-135.6" font-family="Lato" font-size="13.00" fill="#000000">fact(2)</text>
<polyline fill="none" stroke="#000000" points="40,-128 94,-128 "/>
<text text-anchor="middle" x="67" y="-113.6" font-family="Lato" font-size="13.00" fill="#000000">fact(3)</text>
<polyline fill="none" stroke="#000000" points="40,-106 94,-106 "/>
<text text-anchor="middle" x="67" y="-91.6" font-family="Lato" font-size="13.00" fill="#000000">fact(4)</text>
<text text-anchor="middle" x="20" y="-73.1" font-family="Lato" font-size="13.00" fill="#000000">Pila de</text>
<text text-anchor="middle" x="20" y="-59.1" font-family="Lato" font-size="13.00" fill="#000000">control</text>
</g>
<!-- n4 -->
<g id="node3" class="node">
<title>n4</title>
<polygon fill="transparent" stroke="transparent" points="221,-52 167,-52 167,-16 221,-16 221,-52"/>
<text text-anchor="middle" x="194" y="-30.6" font-family="monospace" font-size="13.00" fill="#000000">n</text>
</g>
<!-- pila&#45;&gt;n4 -->
<g id="edge5" class="edge">
<title>pila:f1&#45;&gt;n4</title>
<path fill="none" stroke="#000000" d="M94,-95C114.4088,-95 134.1842,-85.6256 150.6864,-74.2267"/>
<polygon fill="#000000" stroke="#000000" points="153.0143,-76.8596 159.0037,-68.1202 148.8715,-71.2171 153.0143,-76.8596"/>
</g>
<!-- n3 -->
<g id="node5" class="node">
<title>n3</title>
<polygon fill="transparent" stroke="transparent" points="221,-135 167,-135 167,-99 221,-99 221,-135"/>
<text text-anchor="middle" x="194" y="-113.6" font-family="monospace" font-size="13.00" fill="#000000">n</text>
</g>
<!-- pila&#45;&gt;n3 -->
<g id="edge6" class="edge">
<title>pila:f2&#45;&gt;n3</title>
<path fill="none" stroke="#000000" d="M94,-117C114.7045,-117 137.8203,-117 156.6075,-117"/>
<polygon fill="#000000" stroke="#000000" points="149.0001,-120.5004 159,-117 148.9999,-113.5004 149.0001,-120.5004"/>
</g>
<!-- n2 -->
<g id="node7" class="node">
<title>n2</title>
<polygon fill="transparent" stroke="transparent" points="221,-218 167,-218 167,-182 221,-182 221,-218"/>
<text text-anchor="middle" x="194" y="-196.6" font-family="monospace" font-size="13.00" fill="#000000">n</text>
</g>
<!-- pila&#45;&gt;n2 -->
<g id="edge7" class="edge">
<title>pila:f3&#45;&gt;n2</title>
<path fill="none" stroke="#000000" d="M94,-139C106.6242,-139 130.5239,-153.3475 151.7931,-168.126"/>
<polygon fill="#000000" stroke="#000000" points="149.9076,-171.0794 160.0915,-174.0014 153.9525,-165.3664 149.9076,-171.0794"/>
</g>
<!-- 4 -->
<g id="node2" class="node">
<title>4</title>
<ellipse fill="#ffffff" stroke="#000000" cx="275" cy="-34" rx="18" ry="18"/>
<text text-anchor="middle" x="275" y="-30.6" font-family="monospace" font-size="13.00" fill="#000000">4</text>
</g>
<!-- fact -->
<g id="node9" class="node">
<title>fact</title>
<polygon fill="transparent" stroke="transparent" points="383,-135 329,-135 329,-99 383,-99 383,-135"/>
<text text-anchor="middle" x="356" y="-113.6" font-family="monospace" font-size="13.00" fill="#000000">fact</text>
</g>
<!-- 4&#45;&gt;fact -->
<g id="edge8" class="edge">
<title>4&#45;&gt;fact</title>
<path fill="none" stroke="#000000" d="M300.9985,-60.6405C308.1284,-67.9463 315.949,-75.9601 323.3987,-83.5937"/>
<polygon fill="#000000" stroke="#000000" points="321.1412,-86.2918 330.6304,-91.004 326.151,-81.4027 321.1412,-86.2918"/>
</g>
<!-- n4&#45;&gt;4 -->
<g id="edge1" class="edge">
<title>n4&#45;&gt;4</title>
<path fill="none" stroke="#000000" d="M221.4229,-34C229.4647,-34 238.2772,-34 246.3909,-34"/>
<polygon fill="#000000" stroke="#000000" points="246.5312,-37.5001 256.5312,-34 246.5311,-30.5001 246.5312,-37.5001"/>
</g>
<!-- 3 -->
<g id="node4" class="node">
<title>3</title>
<ellipse fill="#ffffff" stroke="#000000" cx="275" cy="-117" rx="18" ry="18"/>
<text text-anchor="middle" x="275" y="-113.6" font-family="monospace" font-size="13.00" fill="#000000">3</text>
</g>
<!-- 3&#45;&gt;fact -->
<g id="edge9" class="edge">
<title>3&#45;&gt;fact</title>
<path fill="none" stroke="#000000" d="M300.998,-117C306.6279,-117 312.6885,-117 318.6572,-117"/>
<polygon fill="#000000" stroke="#000000" points="311.0001,-120.5004 321,-117 310.9999,-113.5004 311.0001,-120.5004"/>
</g>
<!-- n3&#45;&gt;3 -->
<g id="edge2" class="edge">
<title>n3&#45;&gt;3</title>
<path fill="none" stroke="#000000" d="M221.4229,-117C229.4647,-117 238.2772,-117 246.3909,-117"/>
<polygon fill="#000000" stroke="#000000" points="246.5312,-120.5001 256.5312,-117 246.5311,-113.5001 246.5312,-120.5001"/>
</g>
<!-- 2 -->
<g id="node6" class="node">
<title>2</title>
<ellipse fill="#ffffff" stroke="#000000" cx="275" cy="-200" rx="18" ry="18"/>
<text text-anchor="middle" x="275" y="-196.6" font-family="monospace" font-size="13.00" fill="#000000">2</text>
</g>
<!-- 2&#45;&gt;fact -->
<g id="edge10" class="edge">
<title>2&#45;&gt;fact</title>
<path fill="none" stroke="#000000" d="M300.3724,-174.0011C304.7271,-169.5389 309.3542,-164.7976 314.0076,-160.0292"/>
<polygon fill="#000000" stroke="#000000" points="316.523,-162.463 321.0024,-152.8617 311.5132,-157.574 316.523,-162.463"/>
</g>
<!-- n2&#45;&gt;2 -->
<g id="edge3" class="edge">
<title>n2&#45;&gt;2</title>
<path fill="none" stroke="#000000" d="M221.4229,-200C229.4647,-200 238.2772,-200 246.3909,-200"/>
<polygon fill="#000000" stroke="#000000" points="246.5312,-203.5001 256.5312,-200 246.5311,-196.5001 246.5312,-203.5001"/>
</g>
<!-- lambda -->
<g id="node8" class="node">
<title>lambda</title>
<ellipse fill="#ffffff" stroke="#000000" cx="458.1639" cy="-117" rx="39.3285" ry="18"/>
<text text-anchor="middle" x="458.1639" y="-113.6" font-family="monospace" font-size="13.00" fill="#000000">lambda</text>
</g>
<!-- fact&#45;&gt;lambda -->
<g id="edge4" class="edge">
<title>fact&#45;&gt;lambda</title>
<path fill="none" stroke="#000000" d="M383.1098,-117C390.9277,-117 399.7144,-117 408.4478,-117"/>
<polygon fill="#000000" stroke="#000000" points="408.6145,-120.5001 418.6144,-117 408.6144,-113.5001 408.6145,-120.5001"/>
</g>
</g>
</svg>
