<?xml version="1.0" encoding="UTF-8" standalone="no"?>
<!DOCTYPE svg PUBLIC "-//W3C//DTD SVG 1.1//EN"
 "http://www.w3.org/Graphics/SVG/1.1/DTD/svg11.dtd">
<!-- Generated by graphviz version 2.43.0 (0)
 -->
<!-- Title: %3 Pages: 1 -->
<svg width="537pt" height="293pt"
 viewBox="0.00 0.00 537.00 293.48" xmlns="http://www.w3.org/2000/svg" xmlns:xlink="http://www.w3.org/1999/xlink">
<g id="graph0" class="graph" transform="scale(1 1) rotate(0) translate(4 289.48)">
<title>%3</title>
<g id="clust1" class="cluster">
<title>cluster1</title>
<polygon fill="white" stroke="black" points="160,-28.48 160,-103.48 278,-103.48 278,-28.48 160,-28.48"/>
<text text-anchor="middle" x="219" y="-88.28" font-family="Lato" font-size="14.00">Marco de fact(4)</text>
</g>
<g id="clust2" class="cluster">
<title>cluster2</title>
<polygon fill="white" stroke="black" points="160,-111.48 160,-186.48 278,-186.48 278,-111.48 160,-111.48"/>
<text text-anchor="middle" x="219" y="-171.28" font-family="Lato" font-size="14.00">Marco de fact(3)</text>
</g>
<g id="clust3" class="cluster">
<title>cluster3</title>
<polygon fill="white" stroke="black" points="160,-202.48 160,-277.48 278,-277.48 278,-202.48 160,-202.48"/>
<text text-anchor="middle" x="219" y="-262.28" font-family="Lato" font-size="14.00">Marco de fact(2)</text>
</g>
<g id="clust4" class="cluster">
<title>cluster0</title>
<polygon fill="white" stroke="black" points="370,-83.48 370,-158.48 465,-158.48 465,-83.48 370,-83.48"/>
<text text-anchor="middle" x="417.5" y="-143.28" font-family="Lato" font-size="14.00">Marco global</text>
</g>
<!-- pila -->
<g id="node1" class="node">
<title>pila</title>
<polygon fill="white" stroke="black" points="41,-51.48 41,-139.48 95,-139.48 95,-51.48 41,-51.48"/>
<text text-anchor="middle" x="68" y="-125.08" font-family="Lato" font-size="13.00">fact(2)</text>
<polyline fill="none" stroke="black" points="41,-117.48 95,-117.48 "/>
<text text-anchor="middle" x="68" y="-103.08" font-family="Lato" font-size="13.00">fact(3)</text>
<polyline fill="none" stroke="black" points="41,-95.48 95,-95.48 "/>
<text text-anchor="middle" x="68" y="-81.08" font-family="Lato" font-size="13.00">fact(4)</text>
<polyline fill="none" stroke="black" points="41,-73.48 95,-73.48 "/>
<text text-anchor="middle" x="68" y="-59.08" font-family="Lato" font-size="13.00">Global</text>
<text text-anchor="middle" x="20.5" y="-40.58" font-family="Lato" font-size="13.00">Pila de</text>
<text text-anchor="middle" x="20.5" y="-26.58" font-family="Lato" font-size="13.00">control</text>
</g>
<!-- n4 -->
<g id="node3" class="node">
<title>n4</title>
<polygon fill="transparent" stroke="transparent" points="231,-72.48 207,-72.48 207,-36.48 231,-36.48 231,-72.48"/>
<text text-anchor="middle" x="219" y="-51.08" font-family="monospace" font-size="13.00">n</text>
</g>
<!-- pila&#45;&gt;n4 -->
<g id="edge6" class="edge">
<title>pila:f1&#45;&gt;n4</title>
<path fill="none" stroke="black" d="M95,-84.48C113.21,-84.48 132.51,-81.34 150.3,-77.09"/>
<polygon fill="black" stroke="black" points="151.17,-80.48 160,-74.63 149.45,-73.7 151.17,-80.48"/>
</g>
<!-- n3 -->
<g id="node5" class="node">
<title>n3</title>
<polygon fill="transparent" stroke="transparent" points="231,-155.48 207,-155.48 207,-119.48 231,-119.48 231,-155.48"/>
<text text-anchor="middle" x="219" y="-134.08" font-family="monospace" font-size="13.00">n</text>
</g>
<!-- pila&#45;&gt;n3 -->
<g id="edge7" class="edge">
<title>pila:f2&#45;&gt;n3</title>
<path fill="none" stroke="black" d="M95,-106.48C113.23,-106.48 132.53,-109.73 150.3,-114.11"/>
<polygon fill="black" stroke="black" points="149.44,-117.5 160,-116.65 151.22,-110.73 149.44,-117.5"/>
</g>
<!-- n2 -->
<g id="node7" class="node">
<title>n2</title>
<polygon fill="transparent" stroke="transparent" points="231,-246.48 207,-246.48 207,-210.48 231,-210.48 231,-246.48"/>
<text text-anchor="middle" x="219" y="-225.08" font-family="monospace" font-size="13.00">n</text>
</g>
<!-- pila&#45;&gt;n2 -->
<g id="edge8" class="edge">
<title>pila:f3&#45;&gt;n2</title>
<path fill="none" stroke="black" d="M95,-128.48C134.92,-128.48 128.73,-165.67 160,-190.48 162.57,-192.52 165.24,-194.56 167.98,-196.56"/>
<polygon fill="black" stroke="black" points="166.12,-199.54 176.3,-202.49 170.18,-193.84 166.12,-199.54"/>
</g>
<!-- fact -->
<g id="node9" class="node">
<title>fact</title>
<polygon fill="transparent" stroke="transparent" points="444,-127.48 390,-127.48 390,-91.48 444,-91.48 444,-127.48"/>
<text text-anchor="middle" x="417" y="-106.08" font-family="monospace" font-size="13.00">fact</text>
</g>
<!-- pila&#45;&gt;fact -->
<g id="edge5" class="edge">
<title>pila:f0&#45;&gt;fact:s</title>
<path fill="none" stroke="black" d="M95,-62.48C128.46,-62.48 127.92,-34 160,-24.48 237.6,-1.46 267.01,12.99 342,-17.48 381.73,-33.63 411.95,-42.51 416.43,-80.25"/>
<polygon fill="black" stroke="black" points="411.81,-74.25 417,-83.48 418.7,-73.03 411.81,-74.25"/>
</g>
<!-- 4 -->
<g id="node2" class="node">
<title>4</title>
<ellipse fill="white" stroke="black" cx="324" cy="-44.48" rx="18" ry="18"/>
<text text-anchor="middle" x="324" y="-41.08" font-family="Lato" font-size="13.00">4</text>
</g>
<!-- n4&#45;&gt;4 -->
<g id="edge1" class="edge">
<title>n4&#45;&gt;4</title>
<path fill="none" stroke="black" d="M231.02,-53.41C246.38,-51.92 274.72,-49.17 295.9,-47.12"/>
<polygon fill="black" stroke="black" points="296.31,-50.59 305.93,-46.14 295.64,-43.63 296.31,-50.59"/>
</g>
<!-- n4&#45;&gt;fact -->
<g id="edge9" class="edge">
<title>n4&#45;&gt;fact</title>
<path fill="none" stroke="black" d="M278,-70.76C304.03,-78.06 334.6,-86.64 360.35,-93.87"/>
<polygon fill="black" stroke="black" points="359.43,-97.25 370,-96.58 361.32,-90.51 359.43,-97.25"/>
</g>
<!-- 3 -->
<g id="node4" class="node">
<title>3</title>
<ellipse fill="white" stroke="black" cx="324" cy="-174.48" rx="18" ry="18"/>
<text text-anchor="middle" x="324" y="-171.08" font-family="Lato" font-size="13.00">3</text>
</g>
<!-- n3&#45;&gt;3 -->
<g id="edge2" class="edge">
<title>n3&#45;&gt;3</title>
<path fill="none" stroke="black" d="M231.02,-141.44C246.7,-147.08 275.91,-157.57 297.21,-165.22"/>
<polygon fill="black" stroke="black" points="296.06,-168.53 306.66,-168.61 298.43,-161.94 296.06,-168.53"/>
</g>
<!-- n3&#45;&gt;fact -->
<g id="edge10" class="edge">
<title>n3&#45;&gt;fact</title>
<path fill="none" stroke="black" d="M278,-129.2C303.93,-125.49 334.38,-121.15 360.06,-117.48"/>
<polygon fill="black" stroke="black" points="360.6,-120.94 370,-116.06 359.61,-114.01 360.6,-120.94"/>
</g>
<!-- 2 -->
<g id="node6" class="node">
<title>2</title>
<ellipse fill="white" stroke="black" cx="324" cy="-228.48" rx="18" ry="18"/>
<text text-anchor="middle" x="324" y="-225.08" font-family="Lato" font-size="13.00">2</text>
</g>
<!-- n2&#45;&gt;2 -->
<g id="edge3" class="edge">
<title>n2&#45;&gt;2</title>
<path fill="none" stroke="black" d="M231.02,-228.48C246.38,-228.48 274.72,-228.48 295.9,-228.48"/>
<polygon fill="black" stroke="black" points="295.93,-231.98 305.93,-228.48 295.93,-224.98 295.93,-231.98"/>
</g>
<!-- n2&#45;&gt;fact -->
<g id="edge11" class="edge">
<title>n2&#45;&gt;fact</title>
<path fill="none" stroke="black" d="M278,-258.34C299.31,-265.08 322.89,-267.22 342,-255.48 373.01,-236.44 391.51,-199.91 402.26,-168.16"/>
<polygon fill="black" stroke="black" points="405.64,-169.07 405.35,-158.48 398.98,-166.94 405.64,-169.07"/>
</g>
<!-- lambda -->
<g id="node8" class="node">
<title>lambda</title>
<ellipse fill="white" stroke="black" cx="511" cy="-109.48" rx="18" ry="18"/>
<text text-anchor="middle" x="511" y="-106.08" font-family="Lato" font-size="13.00">λ</text>
</g>
<!-- fact&#45;&gt;lambda -->
<g id="edge4" class="edge">
<title>fact&#45;&gt;lambda</title>
<path fill="none" stroke="black" d="M444.12,-109.48C456.2,-109.48 470.54,-109.48 482.76,-109.48"/>
<polygon fill="black" stroke="black" points="482.83,-112.98 492.83,-109.48 482.83,-105.98 482.83,-112.98"/>
</g>
</g>
</svg>
