<?xml version="1.0" encoding="UTF-8" standalone="no"?>
<!DOCTYPE svg PUBLIC "-//W3C//DTD SVG 1.1//EN"
 "http://www.w3.org/Graphics/SVG/1.1/DTD/svg11.dtd">
<!-- Generated by graphviz version 14.1.1 (0)
 -->
<!-- Pages: 1 -->
<svg width="302pt" height="508pt"
 viewBox="0.00 0.00 302.00 508.00" xmlns="http://www.w3.org/2000/svg" xmlns:xlink="http://www.w3.org/1999/xlink">
<g id="graph0" class="graph" transform="scale(1 1) rotate(0) translate(4 504)">
<g id="clust1" class="cluster">
<title>cluster9</title>
<polygon fill="#f2f2f2" stroke="black" points="64.4,-8 64.4,-492 215.65,-492 215.65,-8 64.4,-8"/>
<text xml:space="preserve" text-anchor="middle" x="140.02" y="-474.7" font-family="Lato" font-size="14.00">Pila de control</text>
</g>
<g id="clust2" class="cluster">
<title>cluster1</title>
<polygon fill="white" stroke="black" points="72.4,-382 72.4,-459 207.65,-459 207.65,-382 72.4,-382"/>
<text xml:space="preserve" text-anchor="start" x="80.4" y="-442.7" font-family="Lato" font-size="14.00">Marco de </text>
<text xml:space="preserve" text-anchor="start" x="141.9" y="-442.7" font-family="monospace" font-size="14.00">fact(4)</text>
</g>
<g id="clust3" class="cluster">
<title>cluster2</title>
<polygon fill="white" stroke="black" points="72.4,-297 72.4,-374 207.65,-374 207.65,-297 72.4,-297"/>
<text xml:space="preserve" text-anchor="start" x="80.4" y="-357.7" font-family="Lato" font-size="14.00">Marco de </text>
<text xml:space="preserve" text-anchor="start" x="141.9" y="-357.7" font-family="monospace" font-size="14.00">fact(3)</text>
</g>
<g id="clust4" class="cluster">
<title>cluster3</title>
<polygon fill="white" stroke="black" points="72.4,-212 72.4,-289 207.65,-289 207.65,-212 72.4,-212"/>
<text xml:space="preserve" text-anchor="start" x="80.4" y="-272.7" font-family="Lato" font-size="14.00">Marco de </text>
<text xml:space="preserve" text-anchor="start" x="141.9" y="-272.7" font-family="monospace" font-size="14.00">fact(2)</text>
</g>
<g id="clust5" class="cluster">
<title>cluster0</title>
<polygon fill="white" stroke="black" points="73.9,-16 73.9,-204 206.15,-204 206.15,-16 73.9,-16"/>
<text xml:space="preserve" text-anchor="middle" x="140.02" y="-186.7" font-family="Lato" font-size="14.00"> &#160;&#160;&#160;&#160;Marco global &#160;&#160;&#160;&#160;</text>
</g>
<!-- n4 -->
<g id="node1" class="node">
<title>n4</title>
<polygon fill="none" stroke="none" points="151.27,-426 127.77,-426 127.77,-390 151.27,-390 151.27,-426"/>
<text xml:space="preserve" text-anchor="middle" x="139.52" y="-403.9" font-family="monospace" font-size="13.00">n</text>
</g>
<!-- fact -->
<g id="node4" class="node">
<title>fact</title>
<polygon fill="none" stroke="none" points="166.52,-60 112.52,-60 112.52,-24 166.52,-24 166.52,-60"/>
<text xml:space="preserve" text-anchor="middle" x="139.52" y="-37.9" font-family="monospace" font-size="13.00">fact</text>
</g>
<!-- n4&#45;&gt;fact -->
<g id="edge5" class="edge">
<title>n4&#45;&gt;fact</title>
<path fill="none" stroke="black" d="M72.4,-393.09C60.81,-387.46 50.23,-379.69 43.15,-369 25.35,-342.14 25.35,-105.86 43.15,-79 48.44,-71.02 55.71,-64.76 63.91,-59.85"/>
<polygon fill="black" stroke="black" points="65.28,-63.08 72.56,-55.38 62.07,-56.86 65.28,-63.08"/>
</g>
<!-- 4 -->
<g id="node7" class="node">
<title>4</title>
<ellipse fill="white" stroke="black" cx="276.15" cy="-408" rx="18" ry="18"/>
<text xml:space="preserve" text-anchor="middle" x="276.15" y="-403.9" font-family="monospace" font-size="13.00">4</text>
</g>
<!-- n4&#45;&gt;4 -->
<g id="edge1" class="edge">
<title>n4&#45;&gt;4</title>
<path fill="none" stroke="black" d="M151.09,-408C171.46,-408 216.81,-408 246.67,-408"/>
<polygon fill="black" stroke="black" points="246.51,-411.5 256.51,-408 246.51,-404.5 246.51,-411.5"/>
</g>
<!-- n3 -->
<g id="node2" class="node">
<title>n3</title>
<polygon fill="none" stroke="none" points="151.27,-341 127.77,-341 127.77,-305 151.27,-305 151.27,-341"/>
<text xml:space="preserve" text-anchor="middle" x="139.52" y="-318.9" font-family="monospace" font-size="13.00">n</text>
</g>
<!-- dummy -->
<!-- n3&#45;&gt;dummy -->
<g id="edge6" class="edge">
<title>n3&#45;&gt;dummy</title>
<path fill="none" stroke="black" d="M72.4,-308.09C60.81,-302.46 50.23,-294.69 43.15,-284 24.74,-256.21 24.74,-161.79 43.15,-134 48.44,-126.02 55.71,-119.76 63.91,-114.85"/>
<polygon fill="black" stroke="black" points="65.28,-118.08 72.56,-110.38 62.07,-111.86 65.28,-118.08"/>
</g>
<!-- 3 -->
<g id="node8" class="node">
<title>3</title>
<ellipse fill="white" stroke="black" cx="276.15" cy="-323" rx="18" ry="18"/>
<text xml:space="preserve" text-anchor="middle" x="276.15" y="-318.9" font-family="monospace" font-size="13.00">3</text>
</g>
<!-- n3&#45;&gt;3 -->
<g id="edge2" class="edge">
<title>n3&#45;&gt;3</title>
<path fill="none" stroke="black" d="M151.09,-323C171.46,-323 216.81,-323 246.67,-323"/>
<polygon fill="black" stroke="black" points="246.51,-326.5 256.51,-323 246.51,-319.5 246.51,-326.5"/>
</g>
<!-- n2 -->
<g id="node3" class="node">
<title>n2</title>
<polygon fill="none" stroke="none" points="151.27,-256 127.77,-256 127.77,-220 151.27,-220 151.27,-256"/>
<text xml:space="preserve" text-anchor="middle" x="139.52" y="-233.9" font-family="monospace" font-size="13.00">n</text>
</g>
<!-- dummy2 -->
<!-- 2 -->
<g id="node9" class="node">
<title>2</title>
<ellipse fill="white" stroke="black" cx="276.15" cy="-238" rx="18" ry="18"/>
<text xml:space="preserve" text-anchor="middle" x="276.15" y="-233.9" font-family="monospace" font-size="13.00">2</text>
</g>
<!-- n2&#45;&gt;2 -->
<g id="edge3" class="edge">
<title>n2&#45;&gt;2</title>
<path fill="none" stroke="black" d="M151.09,-238C171.46,-238 216.81,-238 246.67,-238"/>
<polygon fill="black" stroke="black" points="246.51,-241.5 256.51,-238 246.51,-234.5 246.51,-241.5"/>
</g>
<!-- lambda -->
<g id="node10" class="node">
<title>lambda</title>
<ellipse fill="white" stroke="black" cx="276.15" cy="-42" rx="18" ry="18"/>
<text xml:space="preserve" text-anchor="middle" x="276.15" y="-37.9" font-family="monospace" font-size="13.00">λ</text>
</g>
<!-- fact&#45;&gt;lambda -->
<g id="edge4" class="edge">
<title>fact&#45;&gt;lambda</title>
<path fill="none" stroke="black" d="M166.48,-42C189.39,-42 222.72,-42 246.42,-42"/>
<polygon fill="black" stroke="black" points="246.31,-45.5 256.31,-42 246.31,-38.5 246.31,-45.5"/>
</g>
<!-- E -->
<g id="node11" class="node">
<title>E</title>
<polygon fill="none" stroke="none" points="21.9,-426 0,-426 0,-390 21.9,-390 21.9,-426"/>
<text xml:space="preserve" text-anchor="middle" x="10.95" y="-403.9" font-family="monospace" font-size="13.00">E</text>
</g>
<!-- E&#45;&gt;n4 -->
<g id="edge8" class="edge">
<title>E&#45;&gt;n4</title>
<path fill="none" stroke="black" d="M21.88,-408C30.96,-408 45.32,-408 60.9,-408"/>
<polygon fill="black" stroke="black" points="60.89,-411.5 70.89,-408 60.89,-404.5 60.89,-411.5"/>
</g>
</g>
</svg>
