<?xml version="1.0" encoding="UTF-8" standalone="no"?>
<!DOCTYPE svg PUBLIC "-//W3C//DTD SVG 1.1//EN"
 "http://www.w3.org/Graphics/SVG/1.1/DTD/svg11.dtd">
<!-- Generated by graphviz version 2.43.0 (0)
 -->
<!-- Title: %3 Pages: 1 -->
<svg width="487pt" height="360pt"
 viewBox="0.00 0.00 487.43 360.00" xmlns="http://www.w3.org/2000/svg" xmlns:xlink="http://www.w3.org/1999/xlink">
<g id="graph0" class="graph" transform="scale(1 1) rotate(0) translate(4 356)">
<title>%3</title>
<g id="clust1" class="cluster">
<title>cluster0</title>
<polygon fill="white" stroke="black" points="320.43,-148 320.43,-223 415.43,-223 415.43,-148 320.43,-148"/>
<text text-anchor="middle" x="367.93" y="-207.8" font-family="Lato" font-size="14.00">Marco global</text>
</g>
<g id="clust2" class="cluster">
<title>cluster1</title>
<polygon fill="white" stroke="black" points="123,-8 123,-83 224,-83 224,-8 123,-8"/>
<text text-anchor="middle" x="173.5" y="-67.8" font-family="Lato" font-size="14.00">Marco de uno</text>
</g>
<g id="clust3" class="cluster">
<title>cluster3</title>
<polygon fill="white" stroke="black" points="123,-269 123,-344 224,-344 224,-269 123,-269"/>
<text text-anchor="middle" x="173.5" y="-328.8" font-family="Lato" font-size="14.00">Marco de tres</text>
</g>
<g id="clust4" class="cluster">
<title>cluster2</title>
<polygon fill="white" stroke="black" points="123,-121 123,-250 223,-250 223,-121 123,-121"/>
<text text-anchor="middle" x="173" y="-234.8" font-family="Lato" font-size="14.00">Marco de dos</text>
</g>
<!-- pila -->
<g id="node1" class="node">
<title>pila</title>
<polygon fill="white" stroke="black" points="41,-118 41,-206 95,-206 95,-118 41,-118"/>
<text text-anchor="middle" x="68" y="-191.6" font-family="Lato" font-size="13.00">Tres</text>
<polyline fill="none" stroke="black" points="41,-184 95,-184 "/>
<text text-anchor="middle" x="68" y="-169.6" font-family="Lato" font-size="13.00">Dos</text>
<polyline fill="none" stroke="black" points="41,-162 95,-162 "/>
<text text-anchor="middle" x="68" y="-147.6" font-family="Lato" font-size="13.00">Uno</text>
<polyline fill="none" stroke="black" points="41,-140 95,-140 "/>
<text text-anchor="middle" x="68" y="-125.6" font-family="Lato" font-size="13.00">Global</text>
<text text-anchor="middle" x="20.5" y="-107.1" font-family="Lato" font-size="13.00">Pila de</text>
<text text-anchor="middle" x="20.5" y="-93.1" font-family="Lato" font-size="13.00">control</text>
</g>
<!-- g -->
<g id="node3" class="node">
<title>g</title>
<polygon fill="transparent" stroke="transparent" points="394.43,-192 340.43,-192 340.43,-156 394.43,-156 394.43,-192"/>
<text text-anchor="middle" x="367.43" y="-170.6" font-family="monospace" font-size="13.00">g</text>
</g>
<!-- pila&#45;&gt;g -->
<g id="edge6" class="edge">
<title>pila:f0&#45;&gt;g</title>
<path fill="none" stroke="black" d="M95,-129C108.54,-129 109.74,-119.72 123,-117 196.77,-101.86 221.35,-95.09 292.43,-120 306.14,-124.81 319.5,-133.06 331,-141.7"/>
<polygon fill="black" stroke="black" points="329,-144.58 339.03,-148 333.33,-139.07 329,-144.58"/>
</g>
<!-- x -->
<g id="node5" class="node">
<title>x</title>
<polygon fill="transparent" stroke="transparent" points="200,-52 146,-52 146,-16 200,-16 200,-52"/>
<text text-anchor="middle" x="173" y="-30.6" font-family="monospace" font-size="13.00">x</text>
</g>
<!-- pila&#45;&gt;x -->
<g id="edge7" class="edge">
<title>pila:f1&#45;&gt;x</title>
<path fill="none" stroke="black" d="M95,-151C123.02,-151 109.43,-120.04 121,-91.97"/>
<polygon fill="black" stroke="black" points="124.16,-93.48 125.72,-83 117.97,-90.21 124.16,-93.48"/>
</g>
<!-- w -->
<g id="node7" class="node">
<title>w</title>
<polygon fill="transparent" stroke="transparent" points="200,-313 146,-313 146,-277 200,-277 200,-313"/>
<text text-anchor="middle" x="173" y="-291.6" font-family="monospace" font-size="13.00">w</text>
</g>
<!-- pila&#45;&gt;w -->
<g id="edge9" class="edge">
<title>pila:f3&#45;&gt;w</title>
<path fill="none" stroke="black" d="M95,-195C124.03,-195 105.24,-231.04 123,-254 125.04,-256.64 127.28,-259.23 129.65,-261.74"/>
<polygon fill="black" stroke="black" points="127.45,-264.48 137.03,-269 132.36,-259.49 127.45,-264.48"/>
</g>
<!-- y -->
<g id="node10" class="node">
<title>y</title>
<polygon fill="transparent" stroke="transparent" points="200,-219 146,-219 146,-183 200,-183 200,-219"/>
<text text-anchor="middle" x="173" y="-197.6" font-family="monospace" font-size="13.00">y</text>
</g>
<!-- pila&#45;&gt;y -->
<g id="edge8" class="edge">
<title>pila:f2&#45;&gt;y</title>
<path fill="none" stroke="black" d="M95,-173C100.97,-173 107.04,-173.75 113.03,-175.01"/>
<polygon fill="black" stroke="black" points="112.45,-178.47 123,-177.56 114.18,-171.69 112.45,-178.47"/>
</g>
<!-- 1 -->
<g id="node2" class="node">
<title>1</title>
<ellipse fill="white" stroke="black" cx="461.43" cy="-174" rx="18" ry="18"/>
<text text-anchor="middle" x="461.43" y="-170.6" font-family="Lato" font-size="13.00">1</text>
</g>
<!-- g&#45;&gt;1 -->
<g id="edge1" class="edge">
<title>g&#45;&gt;1</title>
<path fill="none" stroke="black" d="M394.54,-174C406.62,-174 420.97,-174 433.18,-174"/>
<polygon fill="black" stroke="black" points="433.26,-177.5 443.26,-174 433.26,-170.5 433.26,-177.5"/>
</g>
<!-- 3 -->
<g id="node4" class="node">
<title>3</title>
<ellipse fill="white" stroke="black" cx="272.21" cy="-55" rx="18" ry="18"/>
<text text-anchor="middle" x="272.21" y="-51.6" font-family="Lato" font-size="13.00">3</text>
</g>
<!-- x&#45;&gt;g -->
<g id="edge10" class="edge">
<title>x&#45;&gt;g</title>
<path fill="none" stroke="black" d="M224,-19.24C246.43,-15.56 272.3,-15.64 292.43,-28 334.23,-53.68 353.31,-111.12 361.3,-145.81"/>
<polygon fill="black" stroke="black" points="354.72,-140.73 362.43,-148 360.93,-137.51 354.72,-140.73"/>
</g>
<!-- x&#45;&gt;3 -->
<g id="edge2" class="edge">
<title>x&#45;&gt;3</title>
<path fill="none" stroke="black" d="M200.05,-39.63C213.86,-42.61 230.78,-46.27 244.66,-49.26"/>
<polygon fill="black" stroke="black" points="244.06,-52.72 254.57,-51.41 245.54,-45.87 244.06,-52.72"/>
</g>
<!-- 11 -->
<g id="node6" class="node">
<title>11</title>
<ellipse fill="white" stroke="black" cx="272.21" cy="-295" rx="20.43" ry="20.43"/>
<text text-anchor="middle" x="272.21" y="-291.6" font-family="Lato" font-size="13.00">11</text>
</g>
<!-- w&#45;&gt;g -->
<g id="edge12" class="edge">
<title>w&#45;&gt;g</title>
<path fill="none" stroke="black" d="M224,-323.64C246.23,-332.39 271.94,-336.74 292.43,-324 324.54,-304.03 343.13,-265.56 353.65,-232.58"/>
<polygon fill="black" stroke="black" points="357,-233.58 356.53,-223 350.3,-231.56 357,-233.58"/>
</g>
<!-- w&#45;&gt;11 -->
<g id="edge3" class="edge">
<title>w&#45;&gt;11</title>
<path fill="none" stroke="black" d="M200.05,-295C212.92,-295 228.5,-295 241.8,-295"/>
<polygon fill="black" stroke="black" points="241.88,-298.5 251.88,-295 241.88,-291.5 241.88,-298.5"/>
</g>
<!-- 6 -->
<g id="node8" class="node">
<title>6</title>
<ellipse fill="white" stroke="black" cx="272.21" cy="-201" rx="18" ry="18"/>
<text text-anchor="middle" x="272.21" y="-197.6" font-family="Lato" font-size="13.00">6</text>
</g>
<!-- 4 -->
<g id="node9" class="node">
<title>4</title>
<ellipse fill="white" stroke="black" cx="272.21" cy="-147" rx="18" ry="18"/>
<text text-anchor="middle" x="272.21" y="-143.6" font-family="Lato" font-size="13.00">4</text>
</g>
<!-- y&#45;&gt;g -->
<g id="edge11" class="edge">
<title>y&#45;&gt;g</title>
<path fill="none" stroke="black" d="M223,-223.99C244.54,-231.08 269.99,-235.32 292.43,-228 298.96,-225.87 305.39,-222.92 311.57,-219.49"/>
<polygon fill="black" stroke="black" points="313.67,-222.32 320.43,-214.17 310.06,-216.32 313.67,-222.32"/>
</g>
<!-- y&#45;&gt;6 -->
<g id="edge4" class="edge">
<title>y&#45;&gt;6</title>
<path fill="none" stroke="black" d="M200.05,-201C213.54,-201 230.01,-201 243.71,-201"/>
<polygon fill="black" stroke="black" points="243.99,-204.5 253.99,-201 243.99,-197.5 243.99,-204.5"/>
</g>
<!-- z -->
<g id="node11" class="node">
<title>z</title>
<polygon fill="transparent" stroke="transparent" points="200,-165 146,-165 146,-129 200,-129 200,-165"/>
<text text-anchor="middle" x="173" y="-143.6" font-family="monospace" font-size="13.00">z</text>
</g>
<!-- z&#45;&gt;4 -->
<g id="edge5" class="edge">
<title>z&#45;&gt;4</title>
<path fill="none" stroke="black" d="M200.05,-147C213.54,-147 230.01,-147 243.71,-147"/>
<polygon fill="black" stroke="black" points="243.99,-150.5 253.99,-147 243.99,-143.5 243.99,-150.5"/>
</g>
</g>
</svg>
