<?xml version="1.0" encoding="UTF-8" standalone="no"?>
<!DOCTYPE svg PUBLIC "-//W3C//DTD SVG 1.1//EN"
 "http://www.w3.org/Graphics/SVG/1.1/DTD/svg11.dtd">
<!-- Generated by graphviz version 2.43.0 (0)
 -->
<!-- Title: %3 Pages: 1 -->
<svg width="507pt" height="331pt"
 viewBox="0.00 0.00 507.43 331.21" xmlns="http://www.w3.org/2000/svg" xmlns:xlink="http://www.w3.org/1999/xlink">
<g id="graph0" class="graph" transform="scale(1 1) rotate(0) translate(4 327.21)">
<title>%3</title>
<g id="clust1" class="cluster">
<title>cluster2</title>
<polygon fill="white" stroke="black" points="283,-170.21 283,-315.21 385,-315.21 385,-170.21 283,-170.21"/>
<text text-anchor="start" x="294.5" y="-300.01" font-family="Lato" font-size="14.00">Marco global</text>
</g>
<g id="clust2" class="cluster">
<title>cluster0</title>
<polygon fill="white" stroke="grey" points="237.5,-17.21 237.5,-162.21 431.5,-162.21 431.5,-17.21 237.5,-17.21"/>
<text text-anchor="start" x="245.5" y="-148.01" font-family="Lato" font-size="14.00" fill="grey">Marco de </text>
<text text-anchor="start" x="307.5" y="-148.01" font-family="monospace" font-size="14.00" fill="grey">pareja(20, 14)</text>
</g>
<!-- pila -->
<g id="node1" class="node">
<title>pila</title>
<polygon fill="white" stroke="black" points="53,-257.21 53,-293.21 115,-293.21 115,-257.21 53,-257.21"/>
<text text-anchor="middle" x="84" y="-271.81" font-family="monospace" font-size="13.00">Global</text>
<text text-anchor="middle" x="26.5" y="-246.31" font-family="monospace" font-size="13.00">Pila de</text>
<text text-anchor="middle" x="26.5" y="-232.31" font-family="monospace" font-size="13.00">control</text>
</g>
<!-- pareja -->
<g id="node7" class="node">
<title>pareja</title>
<polygon fill="white" stroke="black" points="291,-261.21 291,-283.21 377,-283.21 377,-261.21 291,-261.21"/>
<text text-anchor="middle" x="322" y="-268.81" font-family="monospace" font-size="13.00">pareja</text>
<polyline fill="none" stroke="black" points="353,-261.21 353,-283.21 "/>
<text text-anchor="middle" x="365" y="-268.81" font-family="monospace" font-size="13.00">⬤</text>
</g>
<!-- pila&#45;&gt;pareja -->
<g id="edge8" class="edge">
<title>pila:f0&#45;&gt;pareja</title>
<path fill="none" stroke="black" d="M115.03,-274.84C156.5,-274.34 230.57,-273.45 280.73,-272.84"/>
<polygon fill="black" stroke="black" points="273.2,-276.75 283,-272.72 272.83,-269.76 273.2,-276.75"/>
</g>
<!-- 14 -->
<g id="node2" class="node">
<title>14</title>
<ellipse fill="white" stroke="grey" cx="479.21" cy="-78.21" rx="20.43" ry="20.43"/>
<text text-anchor="middle" x="479.21" y="-74.81" font-family="monospace" font-size="13.00" fill="grey">14</text>
</g>
<!-- 20 -->
<g id="node3" class="node">
<title>20</title>
<ellipse fill="white" stroke="grey" cx="479.21" cy="-20.21" rx="20.43" ry="20.43"/>
<text text-anchor="middle" x="479.21" y="-16.81" font-family="monospace" font-size="13.00" fill="grey">20</text>
</g>
<!-- f1 -->
<g id="node4" class="node">
<title>f1</title>
<ellipse fill="white" stroke="black" cx="479.21" cy="-278.21" rx="18" ry="18"/>
<text text-anchor="middle" x="479.21" y="-274.81" font-family="monospace" font-size="13.00">λ</text>
</g>
<!-- f2 -->
<g id="node5" class="node">
<title>f2</title>
<ellipse fill="white" stroke="black" cx="479.21" cy="-224.21" rx="18" ry="18"/>
<text text-anchor="middle" x="479.21" y="-220.81" font-family="monospace" font-size="13.00">λ</text>
</g>
<!-- f3 -->
<g id="node6" class="node">
<title>f3</title>
<ellipse fill="white" stroke="red" cx="479.21" cy="-134.21" rx="18" ry="18"/>
<text text-anchor="middle" x="479.21" y="-130.81" font-family="monospace" font-size="13.00">λ</text>
</g>
<!-- y -->
<g id="node11" class="node">
<title>y</title>
<polygon fill="white" stroke="black" points="316,-67.21 316,-89.21 352,-89.21 352,-67.21 316,-67.21"/>
<text text-anchor="middle" x="325" y="-74.81" font-family="monospace" font-size="13.00" fill="grey">y</text>
<polyline fill="none" stroke="black" points="334,-67.21 334,-89.21 "/>
<text text-anchor="middle" x="343" y="-74.81" font-family="monospace" font-size="13.00" fill="grey">⬤</text>
</g>
<!-- f3&#45;&gt;y -->
<g id="edge10" class="edge">
<title>f3&#45;&gt;y</title>
<path fill="none" stroke="blue" d="M465.77,-122.08C458.99,-115.98 450.03,-108.69 440.44,-102.96"/>
<polygon fill="blue" stroke="blue" points="441.97,-99.81 431.5,-98.21 438.69,-105.99 441.97,-99.81"/>
</g>
<!-- pareja&#45;&gt;f1 -->
<g id="edge1" class="edge">
<title>pareja:f1&#45;&gt;f1</title>
<path fill="none" stroke="black" d="M378,-272.21C402.82,-272.21 431.04,-274.07 451.19,-275.72"/>
<polygon fill="black" stroke="black" points="450.95,-279.21 461.21,-276.57 451.54,-272.24 450.95,-279.21"/>
</g>
<!-- select -->
<g id="node8" class="node">
<title>select</title>
<polygon fill="white" stroke="black" points="291,-220.21 291,-242.21 377,-242.21 377,-220.21 291,-220.21"/>
<text text-anchor="middle" x="322" y="-227.81" font-family="monospace" font-size="13.00">select</text>
<polyline fill="none" stroke="black" points="353,-220.21 353,-242.21 "/>
<text text-anchor="middle" x="365" y="-227.81" font-family="monospace" font-size="13.00">⬤</text>
</g>
<!-- select&#45;&gt;f2 -->
<g id="edge2" class="edge">
<title>select:f1&#45;&gt;f2</title>
<path fill="none" stroke="black" d="M378,-231.21C402.84,-231.21 431.05,-229.05 451.2,-227.13"/>
<polygon fill="black" stroke="black" points="451.61,-230.6 461.22,-226.13 450.92,-223.64 451.61,-230.6"/>
</g>
<!-- p -->
<g id="node9" class="node">
<title>p</title>
<polygon fill="white" stroke="black" points="316,-179.21 316,-201.21 352,-201.21 352,-179.21 316,-179.21"/>
<text text-anchor="middle" x="325" y="-186.81" font-family="monospace" font-size="13.00">p</text>
<polyline fill="none" stroke="black" points="334,-179.21 334,-201.21 "/>
<text text-anchor="middle" x="343" y="-186.81" font-family="monospace" font-size="13.00">⬤</text>
</g>
<!-- p&#45;&gt;f3 -->
<g id="edge3" class="edge">
<title>p:f1&#45;&gt;f3</title>
<path fill="none" stroke="black" d="M353,-190.21C391.85,-190.21 432.04,-167.47 456.08,-150.97"/>
<polygon fill="black" stroke="black" points="458.34,-153.66 464.47,-145.01 454.29,-147.95 458.34,-153.66"/>
</g>
<!-- x -->
<g id="node10" class="node">
<title>x</title>
<polygon fill="white" stroke="black" points="316,-26.21 316,-48.21 352,-48.21 352,-26.21 316,-26.21"/>
<text text-anchor="middle" x="325" y="-33.81" font-family="monospace" font-size="13.00" fill="grey">x</text>
<polyline fill="none" stroke="black" points="334,-26.21 334,-48.21 "/>
<text text-anchor="middle" x="343" y="-33.81" font-family="monospace" font-size="13.00" fill="grey">⬤</text>
</g>
<!-- x&#45;&gt;20 -->
<g id="edge4" class="edge">
<title>x:f1&#45;&gt;20</title>
<path fill="none" stroke="grey" d="M353,-37.21C386.21,-37.21 423.92,-31.27 449.21,-26.41"/>
<polygon fill="grey" stroke="grey" points="450.11,-29.8 459.23,-24.42 448.74,-22.94 450.11,-29.8"/>
</g>
<!-- x&#45;&gt;pareja -->
<g id="edge7" class="edge">
<title>x&#45;&gt;pareja</title>
<path fill="none" stroke="grey" d="M237.5,-50.53C231.93,-54.67 227.2,-59.82 223.75,-66.21 214.4,-83.51 214.4,-225.91 223.75,-243.21 234.61,-263.29 258.06,-271.17 280.55,-273.76"/>
<polygon fill="grey" stroke="grey" points="272.41,-274.65 283,-274.6 274.69,-268.03 272.41,-274.65"/>
</g>
<!-- y&#45;&gt;14 -->
<g id="edge5" class="edge">
<title>y:f1&#45;&gt;14</title>
<path fill="none" stroke="grey" d="M353,-78.21C385.72,-78.21 423.24,-78.21 448.61,-78.21"/>
<polygon fill="grey" stroke="grey" points="448.69,-81.71 458.69,-78.21 448.69,-74.71 448.69,-81.71"/>
</g>
<!-- get -->
<g id="node12" class="node">
<title>get</title>
<polygon fill="white" stroke="black" points="302.5,-108.21 302.5,-130.21 365.5,-130.21 365.5,-108.21 302.5,-108.21"/>
<text text-anchor="middle" x="322" y="-115.81" font-family="monospace" font-size="13.00" fill="grey">get</text>
<polyline fill="none" stroke="black" points="341.5,-108.21 341.5,-130.21 "/>
<text text-anchor="middle" x="353.5" y="-115.81" font-family="monospace" font-size="13.00" fill="grey">⬤</text>
</g>
<!-- get&#45;&gt;f3 -->
<g id="edge6" class="edge">
<title>get:f1&#45;&gt;f3</title>
<path fill="none" stroke="grey" d="M367,-119.21C396.1,-119.21 429.1,-124.32 451.54,-128.57"/>
<polygon fill="grey" stroke="grey" points="450.86,-132.01 461.35,-130.51 452.22,-125.14 450.86,-132.01"/>
</g>
<!-- E -->
<g id="node13" class="node">
<title>E</title>
<polygon fill="transparent" stroke="transparent" points="173,-247.21 151,-247.21 151,-211.21 173,-211.21 173,-247.21"/>
<text text-anchor="middle" x="162" y="-225.81" font-family="monospace" font-size="13.00">E</text>
</g>
<!-- E&#45;&gt;select -->
<g id="edge9" class="edge">
<title>E&#45;&gt;select</title>
<path fill="none" stroke="black" d="M173.13,-229.33C193.84,-229.58 242.31,-230.15 280.49,-230.6"/>
<polygon fill="black" stroke="black" points="272.84,-233.72 283,-230.72 273.18,-226.73 272.84,-233.72"/>
</g>
</g>
</svg>
