<?xml version="1.0" encoding="UTF-8" standalone="no"?>
<!DOCTYPE svg PUBLIC "-//W3C//DTD SVG 1.1//EN"
 "http://www.w3.org/Graphics/SVG/1.1/DTD/svg11.dtd">
<!-- Generated by graphviz version 2.43.0 (0)
 -->
<!-- Title: %3 Pages: 1 -->
<svg width="801pt" height="249pt"
 viewBox="0.00 0.00 801.00 249.06" xmlns="http://www.w3.org/2000/svg" xmlns:xlink="http://www.w3.org/1999/xlink">
<g id="graph0" class="graph" transform="scale(1 1) rotate(0) translate(4 245.06)">
<title>%3</title>
<g id="clust1" class="cluster">
<title>cluster0</title>
<polygon fill="white" stroke="black" points="634,-21.06 634,-96.06 729,-96.06 729,-21.06 634,-21.06"/>
<text text-anchor="middle" x="681.5" y="-80.86" font-family="Lato" font-size="14.00">Marco global</text>
</g>
<g id="clust2" class="cluster">
<title>cluster1</title>
<polygon fill="white" stroke="black" points="441,-67.06 441,-142.06 542,-142.06 542,-67.06 441,-67.06"/>
<text text-anchor="middle" x="491.5" y="-126.86" font-family="Lato" font-size="14.00">Marco de uno</text>
</g>
<g id="clust3" class="cluster">
<title>cluster3</title>
<polygon fill="white" stroke="black" points="176,-147.06 176,-222.06 349,-222.06 349,-147.06 176,-147.06"/>
<text text-anchor="middle" x="262.5" y="-206.86" font-family="Lato" font-size="14.00">Marco del lambda interior</text>
</g>
<g id="clust4" class="cluster">
<title>cluster2</title>
<polygon fill="white" stroke="black" points="441,-158.06 441,-233.06 541,-233.06 541,-158.06 441,-158.06"/>
<text text-anchor="middle" x="491" y="-217.86" font-family="Lato" font-size="14.00">Marco de dos</text>
</g>
<!-- pila -->
<g id="node1" class="node">
<title>pila</title>
<polygon fill="white" stroke="black" points="41,-64.06 41,-152.06 148,-152.06 148,-64.06 41,-64.06"/>
<text text-anchor="middle" x="94.5" y="-137.66" font-family="Lato" font-size="13.00">Lambda interior</text>
<polyline fill="none" stroke="black" points="41,-130.06 148,-130.06 "/>
<text text-anchor="middle" x="94.5" y="-115.66" font-family="Lato" font-size="13.00">Dos</text>
<polyline fill="none" stroke="black" points="41,-108.06 148,-108.06 "/>
<text text-anchor="middle" x="94.5" y="-93.66" font-family="Lato" font-size="13.00">Uno</text>
<polyline fill="none" stroke="black" points="41,-86.06 148,-86.06 "/>
<text text-anchor="middle" x="94.5" y="-71.66" font-family="Lato" font-size="13.00">Global</text>
<text text-anchor="middle" x="20.5" y="-53.16" font-family="Lato" font-size="13.00">Pila de</text>
<text text-anchor="middle" x="20.5" y="-39.16" font-family="Lato" font-size="13.00">control</text>
</g>
<!-- g -->
<g id="node3" class="node">
<title>g</title>
<polygon fill="transparent" stroke="transparent" points="693,-65.06 669,-65.06 669,-29.06 693,-29.06 693,-65.06"/>
<text text-anchor="middle" x="681" y="-43.66" font-family="monospace" font-size="13.00">g</text>
</g>
<!-- pila&#45;&gt;g -->
<g id="edge5" class="edge">
<title>pila:f0&#45;&gt;g</title>
<path fill="none" stroke="black" d="M148,-75.06C258.04,-75.06 283.96,-47.06 394,-47.06 394,-47.06 394,-47.06 492,-47.06 536.29,-47.06 586.46,-47.06 623.82,-47.06"/>
<polygon fill="black" stroke="black" points="624,-50.56 634,-47.06 624,-43.56 624,-50.56"/>
</g>
<!-- x -->
<g id="node5" class="node">
<title>x</title>
<polygon fill="transparent" stroke="transparent" points="503,-111.06 479,-111.06 479,-75.06 503,-75.06 503,-111.06"/>
<text text-anchor="middle" x="491" y="-89.66" font-family="monospace" font-size="13.00">x</text>
</g>
<!-- pila&#45;&gt;x -->
<g id="edge6" class="edge">
<title>pila:f1&#45;&gt;x</title>
<path fill="none" stroke="black" d="M148,-97.06C247.26,-97.06 362.71,-95.36 430.89,-94.17"/>
<polygon fill="black" stroke="black" points="431.07,-97.67 441,-93.99 430.94,-90.67 431.07,-97.67"/>
</g>
<!-- z -->
<g id="node7" class="node">
<title>z</title>
<polygon fill="transparent" stroke="transparent" points="274,-191.06 250,-191.06 250,-155.06 274,-155.06 274,-191.06"/>
<text text-anchor="middle" x="262" y="-169.66" font-family="monospace" font-size="13.00">z</text>
</g>
<!-- pila&#45;&gt;z -->
<g id="edge8" class="edge">
<title>pila:f3&#45;&gt;z</title>
<path fill="none" stroke="black" d="M148,-141.06C159.18,-141.06 170.76,-142.53 182.05,-144.84"/>
<polygon fill="black" stroke="black" points="181.35,-148.27 191.88,-147.07 182.9,-141.44 181.35,-148.27"/>
</g>
<!-- y -->
<g id="node9" class="node">
<title>y</title>
<polygon fill="transparent" stroke="transparent" points="503,-202.06 479,-202.06 479,-166.06 503,-166.06 503,-202.06"/>
<text text-anchor="middle" x="491" y="-180.66" font-family="monospace" font-size="13.00">y</text>
</g>
<!-- pila&#45;&gt;y -->
<g id="edge7" class="edge">
<title>pila:f2&#45;&gt;y</title>
<path fill="none" stroke="black" d="M148,-119.06C266.39,-119.06 299.22,-113.35 413,-146.06 420.13,-148.11 427.4,-150.8 434.49,-153.81"/>
<polygon fill="black" stroke="black" points="433.45,-157.17 444,-158.06 436.31,-150.78 433.45,-157.17"/>
</g>
<!-- 1 -->
<g id="node2" class="node">
<title>1</title>
<ellipse fill="white" stroke="black" cx="775" cy="-47.06" rx="18" ry="18"/>
<text text-anchor="middle" x="775" y="-43.66" font-family="Lato" font-size="13.00">1</text>
</g>
<!-- g&#45;&gt;1 -->
<g id="edge1" class="edge">
<title>g&#45;&gt;1</title>
<path fill="none" stroke="black" d="M693.28,-47.06C706.54,-47.06 728.98,-47.06 746.85,-47.06"/>
<polygon fill="black" stroke="black" points="746.99,-50.56 756.99,-47.06 746.99,-43.56 746.99,-50.56"/>
</g>
<!-- 3 -->
<g id="node4" class="node">
<title>3</title>
<ellipse fill="white" stroke="black" cx="588" cy="-93.06" rx="18" ry="18"/>
<text text-anchor="middle" x="588" y="-89.66" font-family="Lato" font-size="13.00">3</text>
</g>
<!-- x&#45;&gt;g -->
<g id="edge9" class="edge">
<title>x&#45;&gt;g:s</title>
<path fill="none" stroke="black" d="M526.12,-67.06C577.33,-29.85 669.25,29.17 679.97,-17.87"/>
<polygon fill="black" stroke="black" points="674.6,-12.62 681,-21.06 681.26,-10.47 674.6,-12.62"/>
</g>
<!-- x&#45;&gt;3 -->
<g id="edge2" class="edge">
<title>x&#45;&gt;3</title>
<path fill="none" stroke="black" d="M503.27,-93.06C517.14,-93.06 541.16,-93.06 559.92,-93.06"/>
<polygon fill="black" stroke="black" points="559.97,-96.56 569.97,-93.06 559.97,-89.56 559.97,-96.56"/>
</g>
<!-- 8 -->
<g id="node6" class="node">
<title>8</title>
<ellipse fill="white" stroke="black" cx="395" cy="-173.06" rx="18" ry="18"/>
<text text-anchor="middle" x="395" y="-169.66" font-family="Lato" font-size="13.00">8</text>
</g>
<!-- z&#45;&gt;8 -->
<g id="edge3" class="edge">
<title>z&#45;&gt;8</title>
<path fill="none" stroke="black" d="M274.17,-173.06C294.47,-173.06 337.96,-173.06 366.58,-173.06"/>
<polygon fill="black" stroke="black" points="366.74,-176.56 376.74,-173.06 366.74,-169.56 366.74,-176.56"/>
</g>
<!-- z&#45;&gt;y -->
<g id="edge11" class="edge">
<title>z&#45;&gt;y</title>
<path fill="none" stroke="black" d="M349,-196.98C369.86,-200.44 392.16,-202.2 413,-200.06 418.84,-199.46 424.9,-198.61 430.92,-197.61"/>
<polygon fill="black" stroke="black" points="431.78,-201.01 441,-195.81 430.54,-194.12 431.78,-201.01"/>
</g>
<!-- 2 -->
<g id="node8" class="node">
<title>2</title>
<ellipse fill="white" stroke="black" cx="588" cy="-147.06" rx="18" ry="18"/>
<text text-anchor="middle" x="588" y="-143.66" font-family="Lato" font-size="13.00">2</text>
</g>
<!-- y&#45;&gt;g -->
<g id="edge10" class="edge">
<title>y&#45;&gt;g</title>
<path fill="none" stroke="black" d="M541,-189.44C562.43,-189.47 586.97,-186.13 606,-174.06 630.98,-158.21 648.51,-130.68 660.21,-105.29"/>
<polygon fill="black" stroke="black" points="663.45,-106.62 664.27,-96.06 657.04,-103.81 663.45,-106.62"/>
</g>
<!-- y&#45;&gt;2 -->
<g id="edge4" class="edge">
<title>y&#45;&gt;2</title>
<path fill="none" stroke="black" d="M503.27,-179.67C517.52,-174.12 542.48,-164.4 561.45,-157.01"/>
<polygon fill="black" stroke="black" points="562.95,-160.18 571,-153.29 560.41,-153.66 562.95,-160.18"/>
</g>
</g>
</svg>
