<?xml version="1.0" encoding="UTF-8" standalone="no"?>
<!DOCTYPE svg PUBLIC "-//W3C//DTD SVG 1.1//EN"
 "http://www.w3.org/Graphics/SVG/1.1/DTD/svg11.dtd">
<!-- Generated by graphviz version 2.43.0 (0)
 -->
<!-- Title: %3 Pages: 1 -->
<svg width="801pt" height="256pt"
 viewBox="0.00 0.00 801.00 256.00" xmlns="http://www.w3.org/2000/svg" xmlns:xlink="http://www.w3.org/1999/xlink">
<g id="graph0" class="graph" transform="scale(1 1) rotate(0) translate(4 252)">
<title>%3</title>
<g id="clust1" class="cluster">
<title>cluster0</title>
<polygon fill="white" stroke="black" points="634,-8 634,-191 729,-191 729,-8 634,-8"/>
<text text-anchor="middle" x="681.5" y="-175.8" font-family="Lato" font-size="14.00">Marco global</text>
</g>
<g id="clust2" class="cluster">
<title>cluster1</title>
<polygon fill="white" stroke="black" points="441,-54 441,-129 542,-129 542,-54 441,-54"/>
<text text-anchor="middle" x="491.5" y="-113.8" font-family="Lato" font-size="14.00">Marco de uno</text>
</g>
<g id="clust3" class="cluster">
<title>cluster3</title>
<polygon fill="white" stroke="black" points="176,-134 176,-209 349,-209 349,-134 176,-134"/>
<text text-anchor="middle" x="262.5" y="-193.8" font-family="Lato" font-size="14.00">Marco del lambda interior</text>
</g>
<g id="clust4" class="cluster">
<title>cluster2</title>
<polygon fill="white" stroke="black" points="441,-165 441,-240 541,-240 541,-165 441,-165"/>
<text text-anchor="middle" x="491" y="-224.8" font-family="Lato" font-size="14.00">Marco de dos</text>
</g>
<!-- pila -->
<g id="node1" class="node">
<title>pila</title>
<polygon fill="white" stroke="black" points="41,-51 41,-139 148,-139 148,-51 41,-51"/>
<text text-anchor="middle" x="94.5" y="-124.6" font-family="Lato" font-size="13.00">Lambda interior</text>
<polyline fill="none" stroke="black" points="41,-117 148,-117 "/>
<text text-anchor="middle" x="94.5" y="-102.6" font-family="Lato" font-size="13.00">Dos</text>
<polyline fill="none" stroke="black" points="41,-95 148,-95 "/>
<text text-anchor="middle" x="94.5" y="-80.6" font-family="Lato" font-size="13.00">Uno</text>
<polyline fill="none" stroke="black" points="41,-73 148,-73 "/>
<text text-anchor="middle" x="94.5" y="-58.6" font-family="Lato" font-size="13.00">Global</text>
<text text-anchor="middle" x="20.5" y="-40.1" font-family="Lato" font-size="13.00">Pila de</text>
<text text-anchor="middle" x="20.5" y="-26.1" font-family="Lato" font-size="13.00">control</text>
</g>
<!-- dos -->
<g id="node7" class="node">
<title>dos</title>
<polygon fill="transparent" stroke="transparent" points="701,-52 662,-52 662,-16 701,-16 701,-52"/>
<text text-anchor="middle" x="681.5" y="-30.6" font-family="monospace" font-size="13.00">dos</text>
</g>
<!-- pila&#45;&gt;dos -->
<g id="edge7" class="edge">
<title>pila:f0&#45;&gt;dos</title>
<path fill="none" stroke="black" d="M148,-62C258.04,-62 283.96,-34 394,-34 394,-34 394,-34 492,-34 536.27,-34 586.38,-34 623.8,-34"/>
<polygon fill="black" stroke="black" points="624,-37.5 634,-34 624,-30.5 624,-37.5"/>
</g>
<!-- x -->
<g id="node9" class="node">
<title>x</title>
<polygon fill="transparent" stroke="transparent" points="503,-98 479,-98 479,-62 503,-62 503,-98"/>
<text text-anchor="middle" x="491" y="-76.6" font-family="monospace" font-size="13.00">x</text>
</g>
<!-- pila&#45;&gt;x -->
<g id="edge8" class="edge">
<title>pila:f1&#45;&gt;x</title>
<path fill="none" stroke="black" d="M148,-84C247.26,-84 362.71,-82.29 430.89,-81.11"/>
<polygon fill="black" stroke="black" points="431.07,-84.61 441,-80.93 430.94,-77.61 431.07,-84.61"/>
</g>
<!-- z -->
<g id="node11" class="node">
<title>z</title>
<polygon fill="transparent" stroke="transparent" points="274,-178 250,-178 250,-142 274,-142 274,-178"/>
<text text-anchor="middle" x="262" y="-156.6" font-family="monospace" font-size="13.00">z</text>
</g>
<!-- pila&#45;&gt;z -->
<g id="edge10" class="edge">
<title>pila:f3&#45;&gt;z</title>
<path fill="none" stroke="black" d="M148,-128C159.18,-128 170.76,-129.47 182.05,-131.78"/>
<polygon fill="black" stroke="black" points="181.35,-135.21 191.88,-134 182.9,-128.38 181.35,-135.21"/>
</g>
<!-- y -->
<g id="node13" class="node">
<title>y</title>
<polygon fill="transparent" stroke="transparent" points="503,-209 479,-209 479,-173 503,-173 503,-209"/>
<text text-anchor="middle" x="491" y="-187.6" font-family="monospace" font-size="13.00">y</text>
</g>
<!-- pila&#45;&gt;y -->
<g id="edge9" class="edge">
<title>pila:f2&#45;&gt;y</title>
<path fill="none" stroke="black" d="M148,-106C266.39,-106 302.78,-89.8 413,-133 428.13,-138.93 442.86,-148.71 455.32,-158.56"/>
<polygon fill="black" stroke="black" points="453.21,-161.35 463.15,-165 457.65,-155.95 453.21,-161.35"/>
</g>
<!-- 1 -->
<g id="node2" class="node">
<title>1</title>
<ellipse fill="white" stroke="black" cx="775" cy="-142" rx="18" ry="18"/>
<text text-anchor="middle" x="775" y="-138.6" font-family="Lato" font-size="13.00">1</text>
</g>
<!-- l1 -->
<g id="node3" class="node">
<title>l1</title>
<ellipse fill="white" stroke="black" cx="775" cy="-88" rx="18" ry="18"/>
<text text-anchor="middle" x="775" y="-84.6" font-family="Lato" font-size="13.00">λ</text>
</g>
<!-- l2 -->
<g id="node4" class="node">
<title>l2</title>
<ellipse fill="white" stroke="black" cx="775" cy="-34" rx="18" ry="18"/>
<text text-anchor="middle" x="775" y="-30.6" font-family="Lato" font-size="13.00">λ</text>
</g>
<!-- g -->
<g id="node5" class="node">
<title>g</title>
<polygon fill="transparent" stroke="transparent" points="693.5,-160 669.5,-160 669.5,-124 693.5,-124 693.5,-160"/>
<text text-anchor="middle" x="681.5" y="-138.6" font-family="monospace" font-size="13.00">g</text>
</g>
<!-- g&#45;&gt;1 -->
<g id="edge3" class="edge">
<title>g&#45;&gt;1</title>
<path fill="none" stroke="black" d="M693.72,-142C706.76,-142 728.75,-142 746.42,-142"/>
<polygon fill="black" stroke="black" points="746.75,-145.5 756.75,-142 746.75,-138.5 746.75,-145.5"/>
</g>
<!-- uno -->
<g id="node6" class="node">
<title>uno</title>
<polygon fill="transparent" stroke="transparent" points="701,-106 662,-106 662,-70 701,-70 701,-106"/>
<text text-anchor="middle" x="681.5" y="-84.6" font-family="monospace" font-size="13.00">uno</text>
</g>
<!-- uno&#45;&gt;l1 -->
<g id="edge1" class="edge">
<title>uno&#45;&gt;l1</title>
<path fill="none" stroke="black" d="M701.02,-88C714.13,-88 731.93,-88 746.67,-88"/>
<polygon fill="black" stroke="black" points="746.75,-91.5 756.75,-88 746.75,-84.5 746.75,-91.5"/>
</g>
<!-- dos&#45;&gt;l2 -->
<g id="edge2" class="edge">
<title>dos&#45;&gt;l2</title>
<path fill="none" stroke="black" d="M701.02,-34C714.13,-34 731.93,-34 746.67,-34"/>
<polygon fill="black" stroke="black" points="746.75,-37.5 756.75,-34 746.75,-30.5 746.75,-37.5"/>
</g>
<!-- 3 -->
<g id="node8" class="node">
<title>3</title>
<ellipse fill="white" stroke="black" cx="588" cy="-122" rx="18" ry="18"/>
<text text-anchor="middle" x="588" y="-118.6" font-family="Lato" font-size="13.00">3</text>
</g>
<!-- x&#45;&gt;uno -->
<g id="edge11" class="edge">
<title>x&#45;&gt;uno</title>
<path fill="none" stroke="black" d="M542,-82.12C567.14,-83.19 597.73,-84.49 623.75,-85.59"/>
<polygon fill="black" stroke="black" points="623.86,-89.1 634,-86.03 624.16,-82.11 623.86,-89.1"/>
</g>
<!-- x&#45;&gt;3 -->
<g id="edge4" class="edge">
<title>x&#45;&gt;3</title>
<path fill="none" stroke="black" d="M503.27,-84.98C517.67,-91.35 543,-102.55 562.04,-110.97"/>
<polygon fill="black" stroke="black" points="560.77,-114.23 571.33,-115.07 563.6,-107.83 560.77,-114.23"/>
</g>
<!-- 8 -->
<g id="node10" class="node">
<title>8</title>
<ellipse fill="white" stroke="black" cx="395" cy="-160" rx="18" ry="18"/>
<text text-anchor="middle" x="395" y="-156.6" font-family="Lato" font-size="13.00">8</text>
</g>
<!-- z&#45;&gt;8 -->
<g id="edge5" class="edge">
<title>z&#45;&gt;8</title>
<path fill="none" stroke="black" d="M274.17,-160C294.47,-160 337.96,-160 366.58,-160"/>
<polygon fill="black" stroke="black" points="366.74,-163.5 376.74,-160 366.74,-156.5 366.74,-163.5"/>
</g>
<!-- z&#45;&gt;y -->
<g id="edge13" class="edge">
<title>z&#45;&gt;y</title>
<path fill="none" stroke="black" d="M349,-182.26C358.4,-184.13 367.87,-185.77 377,-187 394.44,-189.35 413.52,-190.55 430.95,-191.11"/>
<polygon fill="black" stroke="black" points="430.92,-194.61 441,-191.37 431.1,-187.61 430.92,-194.61"/>
</g>
<!-- 2 -->
<g id="node12" class="node">
<title>2</title>
<ellipse fill="white" stroke="black" cx="588" cy="-176" rx="18" ry="18"/>
<text text-anchor="middle" x="588" y="-172.6" font-family="Lato" font-size="13.00">2</text>
</g>
<!-- y&#45;&gt;g -->
<g id="edge12" class="edge">
<title>y&#45;&gt;g</title>
<path fill="none" stroke="black" d="M541,-205.47C561.57,-209.19 585.44,-210.34 606,-203 612.76,-200.59 619.35,-197.26 625.63,-193.41"/>
<polygon fill="black" stroke="black" points="627.61,-196.3 634,-187.86 623.73,-190.47 627.61,-196.3"/>
</g>
<!-- y&#45;&gt;2 -->
<g id="edge6" class="edge">
<title>y&#45;&gt;2</title>
<path fill="none" stroke="black" d="M503.27,-189.22C517.14,-187.03 541.16,-183.24 559.92,-180.28"/>
<polygon fill="black" stroke="black" points="560.64,-183.71 569.97,-178.69 559.55,-176.79 560.64,-183.71"/>
</g>
</g>
</svg>
