<?xml version="1.0" encoding="UTF-8" standalone="no"?>
<!DOCTYPE svg PUBLIC "-//W3C//DTD SVG 1.1//EN"
 "http://www.w3.org/Graphics/SVG/1.1/DTD/svg11.dtd">
<!-- Generated by graphviz version 2.43.0 (0)
 -->
<!-- Title: %3 Pages: 1 -->
<svg width="303pt" height="498pt"
 viewBox="0.00 0.00 303.00 498.00" xmlns="http://www.w3.org/2000/svg" xmlns:xlink="http://www.w3.org/1999/xlink">
<g id="graph0" class="graph" transform="scale(1 1) rotate(0) translate(4 494)">
<title>%3</title>
<g id="clust1" class="cluster">
<title>cluster9</title>
<polygon fill="#f2f2f2" stroke="black" points="64,-8 64,-482 216,-482 216,-8 64,-8"/>
<text text-anchor="middle" x="140" y="-466.8" font-family="Lato" font-size="14.00">Pila de control</text>
</g>
<g id="clust2" class="cluster">
<title>cluster1</title>
<polygon fill="white" stroke="black" points="72,-376 72,-451 208,-451 208,-376 72,-376"/>
<text text-anchor="start" x="80" y="-436.8" font-family="Lato" font-size="14.00">Marco de </text>
<text text-anchor="start" x="142" y="-436.8" font-family="monospace" font-size="14.00">fact(4)</text>
</g>
<g id="clust3" class="cluster">
<title>cluster2</title>
<polygon fill="white" stroke="black" points="72,-293 72,-368 208,-368 208,-293 72,-293"/>
<text text-anchor="start" x="80" y="-353.8" font-family="Lato" font-size="14.00">Marco de </text>
<text text-anchor="start" x="142" y="-353.8" font-family="monospace" font-size="14.00">fact(3)</text>
</g>
<g id="clust4" class="cluster">
<title>cluster3</title>
<polygon fill="white" stroke="black" points="72,-210 72,-285 208,-285 208,-210 72,-210"/>
<text text-anchor="start" x="80" y="-270.8" font-family="Lato" font-size="14.00">Marco de </text>
<text text-anchor="start" x="142" y="-270.8" font-family="monospace" font-size="14.00">fact(2)</text>
</g>
<g id="clust5" class="cluster">
<title>cluster0</title>
<polygon fill="white" stroke="black" points="74,-16 74,-202 207,-202 207,-16 74,-16"/>
<text text-anchor="middle" x="140.5" y="-186.8" font-family="Lato" font-size="14.00"> &#160;&#160;&#160;&#160;Marco global &#160;&#160;&#160;&#160;</text>
</g>
<!-- n4 -->
<g id="node1" class="node">
<title>n4</title>
<polygon fill="transparent" stroke="transparent" points="152,-420 128,-420 128,-384 152,-384 152,-420"/>
<text text-anchor="middle" x="140" y="-398.6" font-family="monospace" font-size="13.00">n</text>
</g>
<!-- fact -->
<g id="node4" class="node">
<title>fact</title>
<polygon fill="transparent" stroke="transparent" points="167,-171 113,-171 113,-135 167,-135 167,-171"/>
<text text-anchor="middle" x="140" y="-149.6" font-family="monospace" font-size="13.00">fact</text>
</g>
<!-- n4&#45;&gt;fact -->
<g id="edge5" class="edge">
<title>n4&#45;&gt;fact</title>
<path fill="none" stroke="black" d="M72,-387.02C60.5,-381.39 50.02,-373.65 43,-363 24.89,-335.54 27.2,-243.85 43,-215 48.58,-204.8 56.64,-196.04 65.75,-188.58"/>
<polygon fill="black" stroke="black" points="68.12,-191.18 74,-182.36 63.91,-185.59 68.12,-191.18"/>
</g>
<!-- 4 -->
<g id="node7" class="node">
<title>4</title>
<ellipse fill="white" stroke="black" cx="277" cy="-402" rx="18" ry="18"/>
<text text-anchor="middle" x="277" y="-398.6" font-family="monospace" font-size="13.00">4</text>
</g>
<!-- n4&#45;&gt;4 -->
<g id="edge1" class="edge">
<title>n4&#45;&gt;4</title>
<path fill="none" stroke="black" d="M152.05,-402C173.02,-402 219.17,-402 248.86,-402"/>
<polygon fill="black" stroke="black" points="248.97,-405.5 258.97,-402 248.97,-398.5 248.97,-405.5"/>
</g>
<!-- n3 -->
<g id="node2" class="node">
<title>n3</title>
<polygon fill="transparent" stroke="transparent" points="152,-337 128,-337 128,-301 152,-301 152,-337"/>
<text text-anchor="middle" x="140" y="-315.6" font-family="monospace" font-size="13.00">n</text>
</g>
<!-- dummy -->
<!-- n3&#45;&gt;dummy -->
<g id="edge6" class="edge">
<title>n3&#45;&gt;dummy</title>
<path fill="none" stroke="black" d="M72,-304.02C60.5,-298.39 50.02,-290.65 43,-280 25.26,-253.1 25.26,-161.9 43,-135 48.54,-126.59 56.28,-120.1 65,-115.07"/>
<polygon fill="black" stroke="black" points="66.66,-118.16 74,-110.52 63.5,-111.91 66.66,-118.16"/>
</g>
<!-- 3 -->
<g id="node8" class="node">
<title>3</title>
<ellipse fill="white" stroke="black" cx="277" cy="-319" rx="18" ry="18"/>
<text text-anchor="middle" x="277" y="-315.6" font-family="monospace" font-size="13.00">3</text>
</g>
<!-- n3&#45;&gt;3 -->
<g id="edge2" class="edge">
<title>n3&#45;&gt;3</title>
<path fill="none" stroke="black" d="M152.05,-319C173.02,-319 219.17,-319 248.86,-319"/>
<polygon fill="black" stroke="black" points="248.97,-322.5 258.97,-319 248.97,-315.5 248.97,-322.5"/>
</g>
<!-- n2 -->
<g id="node3" class="node">
<title>n2</title>
<polygon fill="transparent" stroke="transparent" points="152,-254 128,-254 128,-218 152,-218 152,-254"/>
<text text-anchor="middle" x="140" y="-232.6" font-family="monospace" font-size="13.00">n</text>
</g>
<!-- dummy2 -->
<!-- n2&#45;&gt;dummy2 -->
<g id="edge7" class="edge">
<title>n2&#45;&gt;dummy2</title>
<path fill="none" stroke="black" d="M72,-221.02C60.5,-215.39 50.02,-207.65 43,-197 28.56,-175.11 28.56,-100.89 43,-79 48.53,-70.61 56.27,-64.17 65,-59.23"/>
<polygon fill="black" stroke="black" points="66.6,-62.34 74,-54.77 63.49,-56.07 66.6,-62.34"/>
</g>
<!-- 2 -->
<g id="node9" class="node">
<title>2</title>
<ellipse fill="white" stroke="black" cx="277" cy="-236" rx="18" ry="18"/>
<text text-anchor="middle" x="277" y="-232.6" font-family="monospace" font-size="13.00">2</text>
</g>
<!-- n2&#45;&gt;2 -->
<g id="edge3" class="edge">
<title>n2&#45;&gt;2</title>
<path fill="none" stroke="black" d="M152.05,-236C173.02,-236 219.17,-236 248.86,-236"/>
<polygon fill="black" stroke="black" points="248.97,-239.5 258.97,-236 248.97,-232.5 248.97,-239.5"/>
</g>
<!-- lambda -->
<g id="node10" class="node">
<title>lambda</title>
<ellipse fill="white" stroke="black" cx="277" cy="-153" rx="18" ry="18"/>
<text text-anchor="middle" x="277" y="-149.6" font-family="monospace" font-size="13.00">λ</text>
</g>
<!-- fact&#45;&gt;lambda -->
<g id="edge4" class="edge">
<title>fact&#45;&gt;lambda</title>
<path fill="none" stroke="black" d="M167.03,-153C190.42,-153 224.65,-153 248.48,-153"/>
<polygon fill="black" stroke="black" points="248.63,-156.5 258.63,-153 248.63,-149.5 248.63,-156.5"/>
</g>
<!-- E -->
<g id="node11" class="node">
<title>E</title>
<polygon fill="transparent" stroke="transparent" points="22,-420 0,-420 0,-384 22,-384 22,-420"/>
<text text-anchor="middle" x="11" y="-398.6" font-family="monospace" font-size="13.00">E</text>
</g>
<!-- E&#45;&gt;n4 -->
<g id="edge8" class="edge">
<title>E&#45;&gt;n4</title>
<path fill="none" stroke="black" d="M22.39,-402C31.63,-402 46.04,-402 61.63,-402"/>
<polygon fill="black" stroke="black" points="62,-405.5 72,-402 62,-398.5 62,-405.5"/>
</g>
</g>
</svg>
