<?xml version="1.0" encoding="UTF-8" standalone="no"?>
<!DOCTYPE svg PUBLIC "-//W3C//DTD SVG 1.1//EN"
 "http://www.w3.org/Graphics/SVG/1.1/DTD/svg11.dtd">
<!-- Generated by graphviz version 2.43.0 (0)
 -->
<!-- Title: %3 Pages: 1 -->
<svg width="537pt" height="284pt"
 viewBox="0.00 0.00 537.00 283.88" xmlns="http://www.w3.org/2000/svg" xmlns:xlink="http://www.w3.org/1999/xlink">
<g id="graph0" class="graph" transform="scale(1 1) rotate(0) translate(4 279.88)">
<title>%3</title>
<g id="clust1" class="cluster">
<title>cluster1</title>
<polygon fill="white" stroke="black" points="160,-48.88 160,-111.88 278,-111.88 278,-48.88 160,-48.88"/>
<text text-anchor="middle" x="219" y="-96.68" font-family="Lato" font-size="14.00">Marco de fact(4)</text>
</g>
<g id="clust2" class="cluster">
<title>cluster2</title>
<polygon fill="white" stroke="black" points="160,-119.88 160,-182.88 278,-182.88 278,-119.88 160,-119.88"/>
<text text-anchor="middle" x="219" y="-167.68" font-family="Lato" font-size="14.00">Marco de fact(3)</text>
</g>
<g id="clust3" class="cluster">
<title>cluster3</title>
<polygon fill="white" stroke="black" points="160,-204.88 160,-267.88 278,-267.88 278,-204.88 160,-204.88"/>
<text text-anchor="middle" x="219" y="-252.68" font-family="Lato" font-size="14.00">Marco de fact(2)</text>
</g>
<g id="clust4" class="cluster">
<title>cluster0</title>
<polygon fill="white" stroke="black" points="370,-85.88 370,-148.88 465,-148.88 465,-85.88 370,-85.88"/>
<text text-anchor="middle" x="417.5" y="-133.68" font-family="Lato" font-size="14.00">Marco global</text>
</g>
<!-- pila -->
<g id="node1" class="node">
<title>pila</title>
<polygon fill="white" stroke="black" points="41,-59.88 41,-147.88 95,-147.88 95,-59.88 41,-59.88"/>
<text text-anchor="middle" x="68" y="-133.48" font-family="Lato" font-size="13.00">fact(2)</text>
<polyline fill="none" stroke="black" points="41,-125.88 95,-125.88 "/>
<text text-anchor="middle" x="68" y="-111.48" font-family="Lato" font-size="13.00">fact(3)</text>
<polyline fill="none" stroke="black" points="41,-103.88 95,-103.88 "/>
<text text-anchor="middle" x="68" y="-89.48" font-family="Lato" font-size="13.00">fact(4)</text>
<polyline fill="none" stroke="black" points="41,-81.88 95,-81.88 "/>
<text text-anchor="middle" x="68" y="-67.48" font-family="Lato" font-size="13.00">Global</text>
<text text-anchor="middle" x="20.5" y="-48.98" font-family="Lato" font-size="13.00">Pila de</text>
<text text-anchor="middle" x="20.5" y="-34.98" font-family="Lato" font-size="13.00">control</text>
</g>
<!-- n4 -->
<g id="node3" class="node">
<title>n4</title>
<polygon fill="white" stroke="black" points="201,-57.88 201,-79.88 237,-79.88 237,-57.88 201,-57.88"/>
<text text-anchor="middle" x="210" y="-65.48" font-family="monospace" font-size="13.00">n</text>
<polyline fill="none" stroke="black" points="219,-57.88 219,-79.88 "/>
<text text-anchor="middle" x="228" y="-65.48" font-family="monospace" font-size="13.00">⬤</text>
</g>
<!-- pila&#45;&gt;n4 -->
<g id="edge6" class="edge">
<title>pila:f1&#45;&gt;n4</title>
<path fill="none" stroke="black" d="M95,-92.88C112.93,-92.88 132.06,-90.39 149.76,-87.02"/>
<polygon fill="black" stroke="black" points="150.9,-90.36 160,-84.94 149.51,-83.5 150.9,-90.36"/>
</g>
<!-- n3 -->
<g id="node5" class="node">
<title>n3</title>
<polygon fill="white" stroke="black" points="201,-128.88 201,-150.88 237,-150.88 237,-128.88 201,-128.88"/>
<text text-anchor="middle" x="210" y="-136.48" font-family="monospace" font-size="13.00">n</text>
<polyline fill="none" stroke="black" points="219,-128.88 219,-150.88 "/>
<text text-anchor="middle" x="228" y="-136.48" font-family="monospace" font-size="13.00">⬤</text>
</g>
<!-- pila&#45;&gt;n3 -->
<g id="edge7" class="edge">
<title>pila:f2&#45;&gt;n3</title>
<path fill="none" stroke="black" d="M95,-114.88C112.95,-114.88 132.08,-117.47 149.77,-120.98"/>
<polygon fill="black" stroke="black" points="149.5,-124.5 160,-123.14 150.94,-117.65 149.5,-124.5"/>
</g>
<!-- n2 -->
<g id="node7" class="node">
<title>n2</title>
<polygon fill="white" stroke="black" points="201,-213.88 201,-235.88 237,-235.88 237,-213.88 201,-213.88"/>
<text text-anchor="middle" x="210" y="-221.48" font-family="monospace" font-size="13.00">n</text>
<polyline fill="none" stroke="black" points="219,-213.88 219,-235.88 "/>
<text text-anchor="middle" x="228" y="-221.48" font-family="monospace" font-size="13.00">⬤</text>
</g>
<!-- pila&#45;&gt;n2 -->
<g id="edge8" class="edge">
<title>pila:f3&#45;&gt;n2</title>
<path fill="none" stroke="black" d="M95,-136.88C131.45,-136.88 130.29,-165.77 160,-186.88 165.7,-190.93 171.8,-195.1 177.82,-199.12"/>
<polygon fill="black" stroke="black" points="176.26,-202.29 186.53,-204.88 180.12,-196.45 176.26,-202.29"/>
</g>
<!-- fact -->
<g id="node9" class="node">
<title>fact</title>
<polygon fill="white" stroke="black" points="382,-94.88 382,-116.88 453,-116.88 453,-94.88 382,-94.88"/>
<text text-anchor="middle" x="405.5" y="-102.48" font-family="monospace" font-size="13.00">fact</text>
<polyline fill="none" stroke="black" points="429,-94.88 429,-116.88 "/>
<text text-anchor="middle" x="441" y="-102.48" font-family="monospace" font-size="13.00">⬤</text>
</g>
<!-- pila&#45;&gt;fact -->
<g id="edge5" class="edge">
<title>pila:f0&#45;&gt;fact:s</title>
<path fill="none" stroke="black" d="M95,-70.88C126.11,-70.88 130.23,-53.92 160,-44.88 238.51,-21.03 268.11,21.81 342,-13.88 379.68,-32.08 401.85,-46.13 405.09,-83.78"/>
<polygon fill="black" stroke="black" points="400.14,-76.74 405.5,-85.88 407.01,-75.39 400.14,-76.74"/>
</g>
<!-- 4 -->
<g id="node2" class="node">
<title>4</title>
<ellipse fill="white" stroke="black" cx="324" cy="-40.88" rx="18" ry="18"/>
<text text-anchor="middle" x="324" y="-37.48" font-family="Lato" font-size="13.00">4</text>
</g>
<!-- n4&#45;&gt;4 -->
<g id="edge1" class="edge">
<title>n4:f1&#45;&gt;4</title>
<path fill="none" stroke="black" d="M238,-68.88C259.1,-68.88 281.74,-61 298.34,-53.6"/>
<polygon fill="black" stroke="black" points="300.27,-56.56 307.83,-49.13 297.29,-50.22 300.27,-56.56"/>
</g>
<!-- n4&#45;&gt;fact -->
<g id="edge9" class="edge">
<title>n4&#45;&gt;fact</title>
<path fill="none" stroke="black" d="M278,-79.8C303.87,-84.67 334.25,-90.39 359.96,-95.23"/>
<polygon fill="black" stroke="black" points="359.53,-98.71 370,-97.12 360.82,-91.83 359.53,-98.71"/>
</g>
<!-- 3 -->
<g id="node4" class="node">
<title>3</title>
<ellipse fill="white" stroke="black" cx="324" cy="-170.88" rx="18" ry="18"/>
<text text-anchor="middle" x="324" y="-167.48" font-family="Lato" font-size="13.00">3</text>
</g>
<!-- n3&#45;&gt;3 -->
<g id="edge2" class="edge">
<title>n3:f1&#45;&gt;3</title>
<path fill="none" stroke="black" d="M238,-139.88C259.67,-139.88 282.66,-148.88 299.26,-157.18"/>
<polygon fill="black" stroke="black" points="297.76,-160.34 308.24,-161.91 301.03,-154.15 297.76,-160.34"/>
</g>
<!-- n3&#45;&gt;fact -->
<g id="edge10" class="edge">
<title>n3&#45;&gt;fact</title>
<path fill="none" stroke="black" d="M278,-129.84C303.87,-125.37 334.25,-120.11 359.96,-115.66"/>
<polygon fill="black" stroke="black" points="360.75,-119.08 370,-113.92 359.55,-112.18 360.75,-119.08"/>
</g>
<!-- 2 -->
<g id="node6" class="node">
<title>2</title>
<ellipse fill="white" stroke="black" cx="324" cy="-224.88" rx="18" ry="18"/>
<text text-anchor="middle" x="324" y="-221.48" font-family="Lato" font-size="13.00">2</text>
</g>
<!-- n2&#45;&gt;2 -->
<g id="edge3" class="edge">
<title>n2:f1&#45;&gt;2</title>
<path fill="none" stroke="black" d="M238,-224.88C257.25,-224.88 278.95,-224.88 295.6,-224.88"/>
<polygon fill="black" stroke="black" points="295.74,-228.38 305.74,-224.88 295.74,-221.38 295.74,-228.38"/>
</g>
<!-- n2&#45;&gt;fact -->
<g id="edge11" class="edge">
<title>n2&#45;&gt;fact</title>
<path fill="none" stroke="black" d="M278,-254.72C299.31,-261.44 322.88,-263.59 342,-251.88 374.96,-231.7 393.91,-191.84 404.45,-158.86"/>
<polygon fill="black" stroke="black" points="407.92,-159.46 407.45,-148.88 401.22,-157.44 407.92,-159.46"/>
</g>
<!-- lambda -->
<g id="node8" class="node">
<title>lambda</title>
<ellipse fill="white" stroke="black" cx="511" cy="-105.88" rx="18" ry="18"/>
<text text-anchor="middle" x="511" y="-102.48" font-family="Lato" font-size="13.00">λ</text>
</g>
<!-- fact&#45;&gt;lambda -->
<g id="edge4" class="edge">
<title>fact:f1&#45;&gt;lambda</title>
<path fill="none" stroke="black" d="M454.5,-105.88C463.78,-105.88 473.93,-105.88 482.99,-105.88"/>
<polygon fill="black" stroke="black" points="483,-109.38 493,-105.88 483,-102.38 483,-109.38"/>
</g>
</g>
</svg>
