<?xml version="1.0" encoding="UTF-8" standalone="no"?>
<!DOCTYPE svg PUBLIC "-//W3C//DTD SVG 1.1//EN"
 "http://www.w3.org/Graphics/SVG/1.1/DTD/svg11.dtd">
<!-- Generated by graphviz version 2.42.4 (0)
 -->
<!-- Pages: 1 -->
<svg width="263pt" height="443pt"
 viewBox="0.00 0.00 262.71 443.00" xmlns="http://www.w3.org/2000/svg" xmlns:xlink="http://www.w3.org/1999/xlink">
<g id="graph0" class="graph" transform="scale(1 1) rotate(0) translate(4 439)">
<g id="clust1" class="cluster">
<title>cluster9</title>
<polygon fill="#f2f2f2" stroke="black" points="30.71,-8 30.71,-427 182.71,-427 182.71,-8 30.71,-8"/>
<text text-anchor="middle" x="106.71" y="-411.8" font-family="Lato" font-size="14.00">Pila de control</text>
</g>
<g id="clust2" class="cluster">
<title>cluster1</title>
<polygon fill="white" stroke="black" points="38.71,-321 38.71,-396 174.71,-396 174.71,-321 38.71,-321"/>
<text text-anchor="start" x="46.71" y="-381.8" font-family="Lato" font-size="14.00">Marco de </text>
<text text-anchor="start" x="108.71" y="-381.8" font-family="monospace" font-size="14.00">fact(4)</text>
</g>
<g id="clust3" class="cluster">
<title>cluster2</title>
<polygon fill="white" stroke="black" points="38.71,-238 38.71,-313 174.71,-313 174.71,-238 38.71,-238"/>
<text text-anchor="start" x="46.71" y="-298.8" font-family="Lato" font-size="14.00">Marco de </text>
<text text-anchor="start" x="108.71" y="-298.8" font-family="monospace" font-size="14.00">fact(3)</text>
</g>
<g id="clust4" class="cluster">
<title>cluster3</title>
<polygon fill="white" stroke="black" points="38.71,-155 38.71,-230 174.71,-230 174.71,-155 38.71,-155"/>
<text text-anchor="start" x="46.71" y="-215.8" font-family="Lato" font-size="14.00">Marco de </text>
<text text-anchor="start" x="108.71" y="-215.8" font-family="monospace" font-size="14.00">fact(2)</text>
</g>
<g id="clust5" class="cluster">
<title>cluster0</title>
<polygon fill="white" stroke="black" points="59.71,-16 59.71,-147 154.71,-147 154.71,-16 59.71,-16"/>
<text text-anchor="middle" x="107.21" y="-131.8" font-family="Lato" font-size="14.00">Marco global</text>
</g>
<!-- n4 -->
<g id="node1" class="node">
<title>n4</title>
<polygon fill="transparent" stroke="transparent" points="118.71,-365 94.71,-365 94.71,-329 118.71,-329 118.71,-365"/>
<text text-anchor="middle" x="106.71" y="-343.6" font-family="monospace" font-size="13.00">n</text>
</g>
<!-- fact -->
<g id="node4" class="node">
<title>fact</title>
<polygon fill="transparent" stroke="transparent" points="133.71,-116 79.71,-116 79.71,-80 133.71,-80 133.71,-116"/>
<text text-anchor="middle" x="106.71" y="-94.6" font-family="monospace" font-size="13.00">fact</text>
</g>
<!-- n4&#45;&gt;fact -->
<g id="edge5" class="edge">
<title>n4&#45;&gt;fact</title>
<path fill="none" stroke="black" d="M38.71,-331.02C28.26,-325.48 18.9,-318.03 12.71,-308 -4.59,-280.02 -2.89,-188.96 12.71,-160 21.21,-144.2 35.7,-131.76 50.79,-122.3"/>
<polygon fill="black" stroke="black" points="52.85,-125.15 59.71,-117.07 49.31,-119.11 52.85,-125.15"/>
</g>
<!-- 4 -->
<g id="node6" class="node">
<title>4</title>
<ellipse fill="white" stroke="black" cx="236.71" cy="-347" rx="18" ry="18"/>
<text text-anchor="middle" x="236.71" y="-343.6" font-family="monospace" font-size="13.00">4</text>
</g>
<!-- n4&#45;&gt;4 -->
<g id="edge1" class="edge">
<title>n4&#45;&gt;4</title>
<path fill="none" stroke="black" d="M119.06,-347C138.94,-347 180.56,-347 208.32,-347"/>
<polygon fill="black" stroke="black" points="208.56,-350.5 218.56,-347 208.56,-343.5 208.56,-350.5"/>
</g>
<!-- n3 -->
<g id="node2" class="node">
<title>n3</title>
<polygon fill="transparent" stroke="transparent" points="118.71,-282 94.71,-282 94.71,-246 118.71,-246 118.71,-282"/>
<text text-anchor="middle" x="106.71" y="-260.6" font-family="monospace" font-size="13.00">n</text>
</g>
<!-- dummy -->
<!-- n3&#45;&gt;dummy -->
<g id="edge6" class="edge">
<title>n3&#45;&gt;dummy</title>
<path fill="none" stroke="black" d="M38.71,-248.02C28.26,-242.48 18.9,-235.03 12.71,-225 -4.24,-197.59 -4.24,-107.41 12.71,-80 21.02,-66.55 35.14,-57.98 49.94,-52.53"/>
<polygon fill="black" stroke="black" points="51.27,-55.78 59.71,-49.38 49.12,-49.12 51.27,-55.78"/>
</g>
<!-- 3 -->
<g id="node7" class="node">
<title>3</title>
<ellipse fill="white" stroke="black" cx="236.71" cy="-264" rx="18" ry="18"/>
<text text-anchor="middle" x="236.71" y="-260.6" font-family="monospace" font-size="13.00">3</text>
</g>
<!-- n3&#45;&gt;3 -->
<g id="edge2" class="edge">
<title>n3&#45;&gt;3</title>
<path fill="none" stroke="black" d="M119.06,-264C138.94,-264 180.56,-264 208.32,-264"/>
<polygon fill="black" stroke="black" points="208.56,-267.5 218.56,-264 208.56,-260.5 208.56,-267.5"/>
</g>
<!-- n2 -->
<g id="node3" class="node">
<title>n2</title>
<polygon fill="transparent" stroke="transparent" points="118.71,-199 94.71,-199 94.71,-163 118.71,-163 118.71,-199"/>
<text text-anchor="middle" x="106.71" y="-177.6" font-family="monospace" font-size="13.00">n</text>
</g>
<!-- n2&#45;&gt;dummy -->
<g id="edge7" class="edge">
<title>n2&#45;&gt;dummy</title>
<path fill="none" stroke="black" d="M38.71,-165.02C28.26,-159.48 18.9,-152.03 12.71,-142 -1.78,-118.56 -1.78,-103.44 12.71,-80 21.02,-66.55 35.14,-57.98 49.94,-52.53"/>
<polygon fill="black" stroke="black" points="51.27,-55.78 59.71,-49.38 49.12,-49.12 51.27,-55.78"/>
</g>
<!-- 2 -->
<g id="node8" class="node">
<title>2</title>
<ellipse fill="white" stroke="black" cx="236.71" cy="-181" rx="18" ry="18"/>
<text text-anchor="middle" x="236.71" y="-177.6" font-family="monospace" font-size="13.00">2</text>
</g>
<!-- n2&#45;&gt;2 -->
<g id="edge3" class="edge">
<title>n2&#45;&gt;2</title>
<path fill="none" stroke="black" d="M119.06,-181C138.94,-181 180.56,-181 208.32,-181"/>
<polygon fill="black" stroke="black" points="208.56,-184.5 218.56,-181 208.56,-177.5 208.56,-184.5"/>
</g>
<!-- lambda -->
<g id="node9" class="node">
<title>lambda</title>
<ellipse fill="white" stroke="black" cx="236.71" cy="-98" rx="18" ry="18"/>
<text text-anchor="middle" x="236.71" y="-94.6" font-family="monospace" font-size="13.00">λ</text>
</g>
<!-- fact&#45;&gt;lambda -->
<g id="edge4" class="edge">
<title>fact&#45;&gt;lambda</title>
<path fill="none" stroke="black" d="M133.92,-98C155.66,-98 186.48,-98 208.5,-98"/>
<polygon fill="black" stroke="black" points="208.52,-101.5 218.52,-98 208.52,-94.5 208.52,-101.5"/>
</g>
</g>
</svg>
