<?xml version="1.0" encoding="UTF-8" standalone="no"?>
<!DOCTYPE svg PUBLIC "-//W3C//DTD SVG 1.1//EN"
 "http://www.w3.org/Graphics/SVG/1.1/DTD/svg11.dtd">
<!-- Generated by graphviz version 2.42.4 (0)
 -->
<!-- Pages: 1 -->
<svg width="625pt" height="250pt"
 viewBox="0.00 0.00 624.85 250.07" xmlns="http://www.w3.org/2000/svg" xmlns:xlink="http://www.w3.org/1999/xlink">
<g id="graph0" class="graph" transform="scale(1 1) rotate(0) translate(4 246.07)">
<g id="clust1" class="cluster">
<title>cluster9</title>
<polygon fill="#f2f2f2" stroke="black" points="42,-44.07 42,-228.07 160,-228.07 160,-44.07 42,-44.07"/>
<text text-anchor="middle" x="101" y="-212.87" font-family="Lato" font-size="14.00">Pila de control</text>
</g>
<g id="clust2" class="cluster">
<title>cluster2</title>
<polygon fill="white" stroke="black" points="50,-52.07 50,-197.07 152,-197.07 152,-52.07 50,-52.07"/>
<text text-anchor="start" x="61.5" y="-181.87" font-family="Lato" font-size="14.00">Marco global</text>
</g>
<g id="clust3" class="cluster">
<title>cluster8</title>
<path fill="#f2f2f2" stroke="black" d="M184,-39.07C184,-39.07 596.85,-39.07 596.85,-39.07 602.85,-39.07 608.85,-45.07 608.85,-51.07 608.85,-51.07 608.85,-222.07 608.85,-222.07 608.85,-228.07 602.85,-234.07 596.85,-234.07 596.85,-234.07 184,-234.07 184,-234.07 178,-234.07 172,-228.07 172,-222.07 172,-222.07 172,-51.07 172,-51.07 172,-45.07 178,-39.07 184,-39.07"/>
<text text-anchor="middle" x="390.43" y="-218.87" font-family="Lato" font-size="14.00">Montículo</text>
</g>
<g id="clust4" class="cluster">
<title>cluster0</title>
<path fill="white" stroke="black" d="M342.43,-58.07C342.43,-58.07 512.43,-58.07 512.43,-58.07 518.43,-58.07 524.43,-64.07 524.43,-70.07 524.43,-70.07 524.43,-191.07 524.43,-191.07 524.43,-197.07 518.43,-203.07 512.43,-203.07 512.43,-203.07 342.43,-203.07 342.43,-203.07 336.43,-203.07 330.43,-197.07 330.43,-191.07 330.43,-191.07 330.43,-70.07 330.43,-70.07 330.43,-64.07 336.43,-58.07 342.43,-58.07"/>
<text text-anchor="start" x="338.43" y="-188.87" font-family="Lato" font-size="14.00">Marco de </text>
<text text-anchor="start" x="400.43" y="-188.87" font-family="monospace" font-size="14.00">pareja(20, 14)</text>
</g>
<!-- pareja -->
<g id="node1" class="node">
<title>pareja</title>
<polygon fill="white" stroke="black" points="58,-61.07 58,-83.07 144,-83.07 144,-61.07 58,-61.07"/>
<text text-anchor="middle" x="89" y="-68.67" font-family="monospace" font-size="13.00">pareja</text>
<polyline fill="none" stroke="black" points="120,-61.07 120,-83.07 "/>
<text text-anchor="middle" x="132" y="-68.67" font-family="monospace" font-size="13.00">⬤</text>
</g>
<!-- f1 -->
<g id="node4" class="node">
<title>f1</title>
<ellipse fill="white" stroke="black" cx="200.21" cy="-67.07" rx="20.43" ry="20.43"/>
<text text-anchor="middle" x="200.21" y="-63.67" font-family="monospace" font-size="13.00">λ1</text>
</g>
<!-- pareja&#45;&gt;f1 -->
<g id="edge1" class="edge">
<title>pareja:f1&#45;&gt;f1</title>
<path fill="none" stroke="black" d="M145,-72.07C153.08,-72.07 161.82,-71.51 169.86,-70.77"/>
<polygon fill="black" stroke="black" points="170.35,-74.24 179.93,-69.72 169.62,-67.28 170.35,-74.24"/>
</g>
<!-- select -->
<g id="node2" class="node">
<title>select</title>
<polygon fill="white" stroke="black" points="58,-102.07 58,-124.07 144,-124.07 144,-102.07 58,-102.07"/>
<text text-anchor="middle" x="89" y="-109.67" font-family="monospace" font-size="13.00">select</text>
<polyline fill="none" stroke="black" points="120,-102.07 120,-124.07 "/>
<text text-anchor="middle" x="132" y="-109.67" font-family="monospace" font-size="13.00">⬤</text>
</g>
<!-- f2 -->
<g id="node5" class="node">
<title>f2</title>
<ellipse fill="white" stroke="black" cx="200.21" cy="-125.07" rx="20.43" ry="20.43"/>
<text text-anchor="middle" x="200.21" y="-121.67" font-family="monospace" font-size="13.00">λ2</text>
</g>
<!-- select&#45;&gt;f2 -->
<g id="edge2" class="edge">
<title>select:f1&#45;&gt;f2</title>
<path fill="none" stroke="black" d="M145,-113.07C153.54,-113.07 162.66,-114.51 170.94,-116.39"/>
<polygon fill="black" stroke="black" points="170.31,-119.84 180.87,-118.93 172.05,-113.06 170.31,-119.84"/>
</g>
<!-- p -->
<g id="node3" class="node">
<title>p</title>
<polygon fill="white" stroke="black" points="83,-143.07 83,-165.07 119,-165.07 119,-143.07 83,-143.07"/>
<text text-anchor="middle" x="92" y="-150.67" font-family="monospace" font-size="13.00">p</text>
<polyline fill="none" stroke="black" points="101,-143.07 101,-165.07 "/>
<text text-anchor="middle" x="110" y="-150.67" font-family="monospace" font-size="13.00">⬤</text>
</g>
<!-- f3 -->
<g id="node6" class="node">
<title>f3</title>
<ellipse fill="white" stroke="red" cx="200.21" cy="-183.07" rx="20.43" ry="20.43"/>
<text text-anchor="middle" x="200.21" y="-179.67" font-family="monospace" font-size="13.00">λ3</text>
</g>
<!-- p&#45;&gt;f3 -->
<g id="edge3" class="edge">
<title>p:f1&#45;&gt;f3</title>
<path fill="none" stroke="black" d="M120,-154.07C138.62,-154.07 158.29,-161.22 173.36,-168.43"/>
<polygon fill="black" stroke="black" points="172.05,-171.69 182.55,-173.09 175.22,-165.44 172.05,-171.69"/>
</g>
<!-- y -->
<g id="node8" class="node">
<title>y</title>
<polygon fill="white" stroke="black" points="408.93,-108.07 408.93,-130.07 444.93,-130.07 444.93,-108.07 408.93,-108.07"/>
<text text-anchor="middle" x="417.93" y="-115.67" font-family="monospace" font-size="13.00">y</text>
<polyline fill="none" stroke="black" points="426.93,-108.07 426.93,-130.07 "/>
<text text-anchor="middle" x="435.93" y="-115.67" font-family="monospace" font-size="13.00">⬤</text>
</g>
<!-- f3&#45;&gt;y -->
<g id="edge9" class="edge">
<title>f3&#45;&gt;y</title>
<path fill="none" stroke="blue" d="M219.43,-176.34C242.24,-168.04 282.9,-153.73 320.45,-142.89"/>
<polygon fill="blue" stroke="blue" points="321.75,-146.16 330.43,-140.07 319.85,-139.42 321.75,-146.16"/>
</g>
<!-- x -->
<g id="node7" class="node">
<title>x</title>
<polygon fill="white" stroke="black" points="408.93,-67.07 408.93,-89.07 444.93,-89.07 444.93,-67.07 408.93,-67.07"/>
<text text-anchor="middle" x="417.93" y="-74.67" font-family="monospace" font-size="13.00">x</text>
<polyline fill="none" stroke="black" points="426.93,-67.07 426.93,-89.07 "/>
<text text-anchor="middle" x="435.93" y="-74.67" font-family="monospace" font-size="13.00">⬤</text>
</g>
<!-- x&#45;&gt;pareja -->
<g id="edge7" class="edge">
<title>x&#45;&gt;pareja:s</title>
<path fill="none" stroke="black" d="M382.49,-58.07C296.77,-20.85 113.11,46.92 101.57,-50.03"/>
<polygon fill="black" stroke="black" points="100.32,-41.5 101,-52.07 107.06,-43.38 100.32,-41.5"/>
</g>
<!-- 20 -->
<g id="node11" class="node">
<title>20</title>
<ellipse fill="white" stroke="grey" cx="580.64" cy="-67.07" rx="20.43" ry="20.43"/>
<text text-anchor="middle" x="580.64" y="-63.67" font-family="monospace" font-size="13.00">20</text>
</g>
<!-- x&#45;&gt;20 -->
<g id="edge4" class="edge">
<title>x:f1&#45;&gt;20</title>
<path fill="none" stroke="black" d="M445.93,-78.07C481.91,-78.07 523.16,-74.06 550.22,-70.89"/>
<polygon fill="black" stroke="black" points="550.69,-74.36 560.2,-69.68 549.85,-67.41 550.69,-74.36"/>
</g>
<!-- 14 -->
<g id="node10" class="node">
<title>14</title>
<ellipse fill="white" stroke="grey" cx="580.64" cy="-125.07" rx="20.43" ry="20.43"/>
<text text-anchor="middle" x="580.64" y="-121.67" font-family="monospace" font-size="13.00">14</text>
</g>
<!-- y&#45;&gt;14 -->
<g id="edge5" class="edge">
<title>y:f1&#45;&gt;14</title>
<path fill="none" stroke="black" d="M445.93,-119.07C481.83,-119.07 523.09,-121.26 550.18,-122.99"/>
<polygon fill="black" stroke="black" points="549.96,-126.48 560.17,-123.65 550.42,-119.5 549.96,-126.48"/>
</g>
<!-- get -->
<g id="node9" class="node">
<title>get</title>
<polygon fill="white" stroke="black" points="395.43,-149.07 395.43,-171.07 458.43,-171.07 458.43,-149.07 395.43,-149.07"/>
<text text-anchor="middle" x="414.93" y="-156.67" font-family="monospace" font-size="13.00">get</text>
<polyline fill="none" stroke="black" points="434.43,-149.07 434.43,-171.07 "/>
<text text-anchor="middle" x="446.43" y="-156.67" font-family="monospace" font-size="13.00">⬤</text>
</g>
<!-- f4 -->
<g id="node12" class="node">
<title>f4</title>
<ellipse fill="white" stroke="black" cx="580.64" cy="-183.07" rx="20.43" ry="20.43"/>
<text text-anchor="middle" x="580.64" y="-179.67" font-family="monospace" font-size="13.00">λ3</text>
</g>
<!-- get&#45;&gt;f4 -->
<g id="edge6" class="edge">
<title>get:f1&#45;&gt;f4</title>
<path fill="none" stroke="black" d="M459.93,-160.07C491.64,-160.07 527.24,-167.95 551.31,-174.48"/>
<polygon fill="black" stroke="black" points="550.62,-177.92 561.19,-177.27 552.51,-171.19 550.62,-177.92"/>
</g>
<!-- E -->
<g id="node13" class="node">
<title>E</title>
<polygon fill="transparent" stroke="transparent" points="22,-131.07 0,-131.07 0,-95.07 22,-95.07 22,-131.07"/>
<text text-anchor="middle" x="11" y="-109.67" font-family="monospace" font-size="13.00">E</text>
</g>
<!-- E&#45;&gt;select -->
<g id="edge8" class="edge">
<title>E&#45;&gt;select</title>
<path fill="none" stroke="black" d="M22.09,-113.07C28.66,-113.07 37.79,-113.07 47.48,-113.07"/>
<polygon fill="black" stroke="black" points="40,-116.57 50,-113.07 40,-109.57 40,-116.57"/>
</g>
</g>
</svg>
