<?xml version="1.0" encoding="UTF-8" standalone="no"?>
<!DOCTYPE svg PUBLIC "-//W3C//DTD SVG 1.1//EN"
 "http://www.w3.org/Graphics/SVG/1.1/DTD/svg11.dtd">
<!-- Generated by graphviz version 2.43.0 (0)
 -->
<!-- Title: %3 Pages: 1 -->
<svg width="487pt" height="349pt"
 viewBox="0.00 0.00 487.43 349.21" xmlns="http://www.w3.org/2000/svg" xmlns:xlink="http://www.w3.org/1999/xlink">
<g id="graph0" class="graph" transform="scale(1 1) rotate(0) translate(4 345.21)">
<title>%3</title>
<g id="clust1" class="cluster">
<title>cluster0</title>
<polygon fill="white" stroke="black" points="320.43,-115 320.43,-178 415.43,-178 415.43,-115 320.43,-115"/>
<text text-anchor="middle" x="367.93" y="-162.8" font-family="Lato" font-size="14.00">Marco global</text>
</g>
<g id="clust2" class="cluster">
<title>cluster1</title>
<polygon fill="white" stroke="black" points="123,-8 123,-71 224,-71 224,-8 123,-8"/>
<text text-anchor="middle" x="173.5" y="-55.8" font-family="Lato" font-size="14.00">Marco de uno</text>
</g>
<g id="clust3" class="cluster">
<title>cluster3</title>
<polygon fill="white" stroke="black" points="123,-253 123,-316 224,-316 224,-253 123,-253"/>
<text text-anchor="middle" x="173.5" y="-300.8" font-family="Lato" font-size="14.00">Marco de tres</text>
</g>
<g id="clust4" class="cluster">
<title>cluster2</title>
<polygon fill="white" stroke="black" points="123,-117 123,-221 223,-221 223,-117 123,-117"/>
<text text-anchor="middle" x="173" y="-205.8" font-family="Lato" font-size="14.00">Marco de dos</text>
</g>
<!-- pila -->
<g id="node1" class="node">
<title>pila</title>
<polygon fill="white" stroke="black" points="41,-99 41,-187 95,-187 95,-99 41,-99"/>
<text text-anchor="middle" x="68" y="-172.6" font-family="Lato" font-size="13.00">Tres</text>
<polyline fill="none" stroke="black" points="41,-165 95,-165 "/>
<text text-anchor="middle" x="68" y="-150.6" font-family="Lato" font-size="13.00">Dos</text>
<polyline fill="none" stroke="black" points="41,-143 95,-143 "/>
<text text-anchor="middle" x="68" y="-128.6" font-family="Lato" font-size="13.00">Uno</text>
<polyline fill="none" stroke="black" points="41,-121 95,-121 "/>
<text text-anchor="middle" x="68" y="-106.6" font-family="Lato" font-size="13.00">Global</text>
<text text-anchor="middle" x="20.5" y="-88.1" font-family="Lato" font-size="13.00">Pila de</text>
<text text-anchor="middle" x="20.5" y="-74.1" font-family="Lato" font-size="13.00">control</text>
</g>
<!-- g -->
<g id="node3" class="node">
<title>g</title>
<polygon fill="white" stroke="black" points="349.43,-124 349.43,-146 385.43,-146 385.43,-124 349.43,-124"/>
<text text-anchor="middle" x="358.43" y="-131.6" font-family="monospace" font-size="13.00">g</text>
<polyline fill="none" stroke="black" points="367.43,-124 367.43,-146 "/>
<text text-anchor="middle" x="376.43" y="-131.6" font-family="monospace" font-size="13.00">⬤</text>
</g>
<!-- pila&#45;&gt;g -->
<g id="edge6" class="edge">
<title>pila:f0&#45;&gt;g</title>
<path fill="none" stroke="black" d="M95,-110C182.75,-110 206.02,-92.73 292.43,-108 298.5,-109.07 304.74,-110.61 310.88,-112.41"/>
<polygon fill="black" stroke="black" points="309.84,-115.75 320.43,-115.42 311.95,-109.07 309.84,-115.75"/>
</g>
<!-- x -->
<g id="node5" class="node">
<title>x</title>
<polygon fill="white" stroke="black" points="155,-17 155,-39 191,-39 191,-17 155,-17"/>
<text text-anchor="middle" x="164" y="-24.6" font-family="monospace" font-size="13.00">x</text>
<polyline fill="none" stroke="black" points="173,-17 173,-39 "/>
<text text-anchor="middle" x="182" y="-24.6" font-family="monospace" font-size="13.00">⬤</text>
</g>
<!-- pila&#45;&gt;x -->
<g id="edge7" class="edge">
<title>pila:f1&#45;&gt;x</title>
<path fill="none" stroke="black" d="M95,-132C120.25,-132 109.4,-104.62 120.94,-79.67"/>
<polygon fill="black" stroke="black" points="123.99,-81.39 126.05,-71 117.96,-77.84 123.99,-81.39"/>
</g>
<!-- w -->
<g id="node7" class="node">
<title>w</title>
<polygon fill="white" stroke="black" points="155,-262 155,-284 191,-284 191,-262 155,-262"/>
<text text-anchor="middle" x="164" y="-269.6" font-family="monospace" font-size="13.00">w</text>
<polyline fill="none" stroke="black" points="173,-262 173,-284 "/>
<text text-anchor="middle" x="182" y="-269.6" font-family="monospace" font-size="13.00">⬤</text>
</g>
<!-- pila&#45;&gt;w -->
<g id="edge9" class="edge">
<title>pila:f3&#45;&gt;w</title>
<path fill="none" stroke="black" d="M95,-176C120.08,-176 107.67,-205.15 123,-225 128.51,-232.14 135.04,-239.25 141.52,-245.73"/>
<polygon fill="black" stroke="black" points="139.41,-248.56 149.02,-253 144.28,-243.53 139.41,-248.56"/>
</g>
<!-- y -->
<g id="node10" class="node">
<title>y</title>
<polygon fill="white" stroke="black" points="155,-167 155,-189 191,-189 191,-167 155,-167"/>
<text text-anchor="middle" x="164" y="-174.6" font-family="monospace" font-size="13.00">y</text>
<polyline fill="none" stroke="black" points="173,-167 173,-189 "/>
<text text-anchor="middle" x="182" y="-174.6" font-family="monospace" font-size="13.00">⬤</text>
</g>
<!-- pila&#45;&gt;y -->
<g id="edge8" class="edge">
<title>pila:f2&#45;&gt;y</title>
<path fill="none" stroke="black" d="M95,-154C99.21,-154 105.69,-155.32 113.14,-157.35"/>
<polygon fill="black" stroke="black" points="112.42,-160.79 123,-160.25 114.39,-154.07 112.42,-160.79"/>
</g>
<!-- 1 -->
<g id="node2" class="node">
<title>1</title>
<ellipse fill="white" stroke="black" cx="461.43" cy="-135" rx="18" ry="18"/>
<text text-anchor="middle" x="461.43" y="-131.6" font-family="Lato" font-size="13.00">1</text>
</g>
<!-- g&#45;&gt;1 -->
<g id="edge1" class="edge">
<title>g:f1&#45;&gt;1</title>
<path fill="none" stroke="black" d="M386.43,-135C401.84,-135 419.05,-135 432.99,-135"/>
<polygon fill="black" stroke="black" points="433.38,-138.5 443.38,-135 433.38,-131.5 433.38,-138.5"/>
</g>
<!-- 3 -->
<g id="node4" class="node">
<title>3</title>
<ellipse fill="white" stroke="black" cx="272.21" cy="-43" rx="18" ry="18"/>
<text text-anchor="middle" x="272.21" y="-39.6" font-family="Lato" font-size="13.00">3</text>
</g>
<!-- x&#45;&gt;g -->
<g id="edge10" class="edge">
<title>x&#45;&gt;g:s</title>
<path fill="none" stroke="black" d="M224,-10.4C246.2,-5.64 271.89,-4.54 292.43,-16 338.17,-41.53 356.15,-64.13 358.22,-112.89"/>
<polygon fill="black" stroke="black" points="353.98,-105.39 358.43,-115 360.94,-104.71 353.98,-105.39"/>
</g>
<!-- x&#45;&gt;3 -->
<g id="edge2" class="edge">
<title>x:f1&#45;&gt;3</title>
<path fill="none" stroke="black" d="M192,-28C209.85,-28 229.58,-31.72 244.89,-35.46"/>
<polygon fill="black" stroke="black" points="244.14,-38.88 254.7,-38.01 245.89,-32.11 244.14,-38.88"/>
</g>
<!-- 11 -->
<g id="node6" class="node">
<title>11</title>
<ellipse fill="white" stroke="black" cx="272.21" cy="-321" rx="20.43" ry="20.43"/>
<text text-anchor="middle" x="272.21" y="-317.6" font-family="Lato" font-size="13.00">11</text>
</g>
<!-- w&#45;&gt;g -->
<g id="edge12" class="edge">
<title>w&#45;&gt;g</title>
<path fill="none" stroke="black" d="M224,-274.13C246.52,-272.45 272.47,-267.27 292.43,-254 316.51,-237.99 334.18,-211.19 346.2,-187.08"/>
<polygon fill="black" stroke="black" points="349.39,-188.53 350.53,-178 343.07,-185.51 349.39,-188.53"/>
</g>
<!-- w&#45;&gt;11 -->
<g id="edge3" class="edge">
<title>w:f1&#45;&gt;11</title>
<path fill="none" stroke="black" d="M192,-273C214.12,-273 235.33,-286.85 250.23,-299.68"/>
<polygon fill="black" stroke="black" points="248.08,-302.45 257.82,-306.6 252.79,-297.27 248.08,-302.45"/>
</g>
<!-- 6 -->
<g id="node8" class="node">
<title>6</title>
<ellipse fill="white" stroke="black" cx="272.21" cy="-227" rx="18" ry="18"/>
<text text-anchor="middle" x="272.21" y="-223.6" font-family="Lato" font-size="13.00">6</text>
</g>
<!-- 4 -->
<g id="node9" class="node">
<title>4</title>
<ellipse fill="white" stroke="black" cx="272.21" cy="-135" rx="18" ry="18"/>
<text text-anchor="middle" x="272.21" y="-131.6" font-family="Lato" font-size="13.00">4</text>
</g>
<!-- y&#45;&gt;g -->
<g id="edge11" class="edge">
<title>y&#45;&gt;g</title>
<path fill="none" stroke="black" d="M223,-173.78C244.5,-171.31 269.92,-167.56 292.43,-162 298.46,-160.51 304.69,-158.7 310.85,-156.72"/>
<polygon fill="black" stroke="black" points="312.06,-160.01 320.43,-153.51 309.83,-153.37 312.06,-160.01"/>
</g>
<!-- y&#45;&gt;6 -->
<g id="edge4" class="edge">
<title>y:f1&#45;&gt;6</title>
<path fill="none" stroke="black" d="M192,-178C215.06,-178 237.01,-193.2 251.93,-206.67"/>
<polygon fill="black" stroke="black" points="249.81,-209.49 259.45,-213.87 254.64,-204.43 249.81,-209.49"/>
</g>
<!-- z -->
<g id="node11" class="node">
<title>z</title>
<polygon fill="white" stroke="black" points="155,-126 155,-148 191,-148 191,-126 155,-126"/>
<text text-anchor="middle" x="164" y="-133.6" font-family="monospace" font-size="13.00">z</text>
<polyline fill="none" stroke="black" points="173,-126 173,-148 "/>
<text text-anchor="middle" x="182" y="-133.6" font-family="monospace" font-size="13.00">⬤</text>
</g>
<!-- z&#45;&gt;4 -->
<g id="edge5" class="edge">
<title>z:f1&#45;&gt;4</title>
<path fill="none" stroke="black" d="M192,-137C209.27,-137 228.65,-136.52 243.92,-136.03"/>
<polygon fill="black" stroke="black" points="244.34,-139.52 254.22,-135.68 244.11,-132.52 244.34,-139.52"/>
</g>
</g>
</svg>
