<?xml version="1.0" encoding="UTF-8" standalone="no"?>
<!DOCTYPE svg PUBLIC "-//W3C//DTD SVG 1.1//EN"
 "http://www.w3.org/Graphics/SVG/1.1/DTD/svg11.dtd">
<!-- Generated by graphviz version 2.40.1 (20161225.0304)
 -->
<!-- Title: %3 Pages: 1 -->
<svg width="576pt" height="385pt"
 viewBox="0.00 0.00 576.00 384.85" xmlns="http://www.w3.org/2000/svg" xmlns:xlink="http://www.w3.org/1999/xlink">
<g id="graph0" class="graph" transform="scale(1.1915 1.1915) rotate(0) translate(4 319)">
<title>%3</title>
<g id="clust1" class="cluster">
<title>cluster1</title>
<polygon fill="#ffffff" stroke="#000000" points="159,-8 159,-83 303.2136,-83 303.2136,-8 159,-8"/>
<text text-anchor="middle" x="231.1068" y="-67.8" font-family="Lato" font-size="14.00" fill="#000000">Marco de uno</text>
</g>
<g id="clust2" class="cluster">
<title>cluster2</title>
<polygon fill="#ffffff" stroke="#000000" points="159,-91 159,-220 303.2136,-220 303.2136,-91 159,-91"/>
<text text-anchor="middle" x="231.1068" y="-204.8" font-family="Lato" font-size="14.00" fill="#000000">Marco de dos</text>
</g>
<g id="clust3" class="cluster">
<title>cluster3</title>
<polygon fill="#ffffff" stroke="#000000" points="159,-228 159,-307 305.4273,-307 305.4273,-228 159,-228"/>
<text text-anchor="middle" x="232.2136" y="-291.8" font-family="Lato" font-size="14.00" fill="#000000">Marco de tres</text>
</g>
<g id="clust4" class="cluster">
<title>cluster0</title>
<polygon fill="#ffffff" stroke="#000000" points="325.4273,-145 325.4273,-220 467.4273,-220 467.4273,-145 325.4273,-145"/>
<text text-anchor="middle" x="396.4273" y="-204.8" font-family="Lato" font-size="14.00" fill="#000000">Marco global</text>
</g>
<!-- pila -->
<g id="node1" class="node">
<title>pila</title>
<polygon fill="#ffffff" stroke="#000000" points="40,-138 40,-204 94,-204 94,-138 40,-138"/>
<text text-anchor="middle" x="67" y="-189.6" font-family="Lato" font-size="13.00" fill="#000000">Tres</text>
<polyline fill="none" stroke="#000000" points="40,-182 94,-182 "/>
<text text-anchor="middle" x="67" y="-167.6" font-family="Lato" font-size="13.00" fill="#000000">Dos</text>
<polyline fill="none" stroke="#000000" points="40,-160 94,-160 "/>
<text text-anchor="middle" x="67" y="-145.6" font-family="Lato" font-size="13.00" fill="#000000">Uno</text>
<text text-anchor="middle" x="20" y="-127.1" font-family="Lato" font-size="13.00" fill="#000000">Pila de</text>
<text text-anchor="middle" x="20" y="-113.1" font-family="Lato" font-size="13.00" fill="#000000">control</text>
</g>
<!-- x -->
<g id="node3" class="node">
<title>x</title>
<polygon fill="transparent" stroke="transparent" points="221,-52 167,-52 167,-16 221,-16 221,-52"/>
<text text-anchor="middle" x="194" y="-30.6" font-family="monospace" font-size="13.00" fill="#000000">x</text>
</g>
<!-- pila&#45;&gt;x -->
<g id="edge6" class="edge">
<title>pila:f1&#45;&gt;x</title>
<path fill="none" stroke="#000000" d="M94,-149C102.7676,-149 129.2655,-118.1688 152.7823,-88.4341"/>
<polygon fill="#000000" stroke="#000000" points="155.5796,-90.539 159.0007,-80.5117 150.0731,-86.217 155.5796,-90.539"/>
</g>
<!-- y -->
<g id="node5" class="node">
<title>y</title>
<polygon fill="transparent" stroke="transparent" points="221,-189 167,-189 167,-153 221,-153 221,-189"/>
<text text-anchor="middle" x="194" y="-167.6" font-family="monospace" font-size="13.00" fill="#000000">y</text>
</g>
<!-- pila&#45;&gt;y -->
<g id="edge7" class="edge">
<title>pila:f2&#45;&gt;y</title>
<path fill="none" stroke="#000000" d="M94,-171C114.7045,-171 137.8203,-171 156.6075,-171"/>
<polygon fill="#000000" stroke="#000000" points="149.0001,-174.5004 159,-171 148.9999,-167.5004 149.0001,-174.5004"/>
</g>
<!-- w -->
<g id="node8" class="node">
<title>w</title>
<polygon fill="transparent" stroke="transparent" points="221,-273 167,-273 167,-237 221,-237 221,-273"/>
<text text-anchor="middle" x="194" y="-251.6" font-family="monospace" font-size="13.00" fill="#000000">w</text>
</g>
<!-- pila&#45;&gt;w -->
<g id="edge8" class="edge">
<title>pila:f3&#45;&gt;w</title>
<path fill="none" stroke="#000000" d="M94,-193C106.5374,-193 130.0434,-207.255 151.1166,-222.0945"/>
<polygon fill="#000000" stroke="#000000" points="149.1837,-225.0154 159.3486,-228.003 153.2654,-219.3286 149.1837,-225.0154"/>
</g>
<!-- 3 -->
<g id="node2" class="node">
<title>3</title>
<ellipse fill="#ffffff" stroke="#000000" cx="277.2136" cy="-34" rx="18" ry="18"/>
<text text-anchor="middle" x="277.2136" y="-30.6" font-family="monospace" font-size="13.00" fill="#000000">3</text>
</g>
<!-- g -->
<g id="node11" class="node">
<title>g</title>
<polygon fill="transparent" stroke="transparent" points="387.4273,-189 333.4273,-189 333.4273,-153 387.4273,-153 387.4273,-189"/>
<text text-anchor="middle" x="360.4273" y="-167.6" font-family="monospace" font-size="13.00" fill="#000000">g</text>
</g>
<!-- 3&#45;&gt;g -->
<g id="edge9" class="edge">
<title>3&#45;&gt;g</title>
<path fill="none" stroke="#000000" d="M303.2093,-76.7984C316.5972,-98.8398 332.5074,-125.0336 344.148,-144.1984"/>
<polygon fill="#000000" stroke="#000000" points="335.0884,-142.422 345.3651,-145 338.9391,-136.5761 335.0884,-142.422"/>
</g>
<!-- x&#45;&gt;3 -->
<g id="edge1" class="edge">
<title>x&#45;&gt;3</title>
<path fill="none" stroke="#000000" d="M221.2473,-34C230.1732,-34 240.1041,-34 249.0933,-34"/>
<polygon fill="#000000" stroke="#000000" points="249.0966,-37.5001 259.0966,-34 249.0966,-30.5001 249.0966,-37.5001"/>
</g>
<!-- 6 -->
<g id="node4" class="node">
<title>6</title>
<ellipse fill="#ffffff" stroke="#000000" cx="277.2136" cy="-171" rx="18" ry="18"/>
<text text-anchor="middle" x="277.2136" y="-167.6" font-family="monospace" font-size="13.00" fill="#000000">6</text>
</g>
<!-- 6&#45;&gt;g -->
<g id="edge10" class="edge">
<title>6&#45;&gt;g</title>
<path fill="none" stroke="#000000" d="M303.2108,-171C309.4832,-171 316.3091,-171 322.9902,-171"/>
<polygon fill="#000000" stroke="#000000" points="315.4274,-174.5004 325.4273,-171 315.4271,-167.5004 315.4274,-174.5004"/>
</g>
<!-- y&#45;&gt;6 -->
<g id="edge2" class="edge">
<title>y&#45;&gt;6</title>
<path fill="none" stroke="#000000" d="M221.2473,-171C230.1732,-171 240.1041,-171 249.0933,-171"/>
<polygon fill="#000000" stroke="#000000" points="249.0966,-174.5001 259.0966,-171 249.0966,-167.5001 249.0966,-174.5001"/>
</g>
<!-- 4 -->
<g id="node6" class="node">
<title>4</title>
<ellipse fill="#ffffff" stroke="#000000" cx="277.2136" cy="-117" rx="18" ry="18"/>
<text text-anchor="middle" x="277.2136" y="-113.6" font-family="monospace" font-size="13.00" fill="#000000">4</text>
</g>
<!-- z -->
<g id="node7" class="node">
<title>z</title>
<polygon fill="transparent" stroke="transparent" points="221,-135 167,-135 167,-99 221,-99 221,-135"/>
<text text-anchor="middle" x="194" y="-113.6" font-family="monospace" font-size="13.00" fill="#000000">z</text>
</g>
<!-- z&#45;&gt;4 -->
<g id="edge3" class="edge">
<title>z&#45;&gt;4</title>
<path fill="none" stroke="#000000" d="M221.2473,-117C230.1732,-117 240.1041,-117 249.0933,-117"/>
<polygon fill="#000000" stroke="#000000" points="249.0966,-120.5001 259.0966,-117 249.0966,-113.5001 249.0966,-120.5001"/>
</g>
<!-- 11 -->
<g id="node9" class="node">
<title>11</title>
<ellipse fill="#ffffff" stroke="#000000" cx="277.2136" cy="-256" rx="20.4296" ry="20.4296"/>
<text text-anchor="middle" x="277.2136" y="-252.6" font-family="monospace" font-size="13.00" fill="#000000">11</text>
</g>
<!-- w&#45;&gt;11 -->
<g id="edge4" class="edge">
<title>w&#45;&gt;11</title>
<path fill="none" stroke="#000000" d="M221.2473,-255.3274C229.3793,-255.4252 238.3454,-255.5329 246.6736,-255.633"/>
<polygon fill="#000000" stroke="#000000" points="246.7293,-259.1338 256.7707,-255.7543 246.8135,-252.1343 246.7293,-259.1338"/>
</g>
<!-- 11&#45;&gt;g -->
<g id="edge11" class="edge">
<title>11&#45;&gt;g</title>
<path fill="none" stroke="#000000" d="M304.623,-228.0022C308.9763,-223.5555 313.5652,-218.8681 318.1648,-214.1697"/>
<polygon fill="#000000" stroke="#000000" points="320.9352,-216.343 325.4298,-206.7488 315.9332,-211.4461 320.9352,-216.343"/>
</g>
<!-- 1 -->
<g id="node10" class="node">
<title>1</title>
<ellipse fill="#ffffff" stroke="#000000" cx="441.4273" cy="-171" rx="18" ry="18"/>
<text text-anchor="middle" x="441.4273" y="-167.6" font-family="monospace" font-size="13.00" fill="#000000">1</text>
</g>
<!-- g&#45;&gt;1 -->
<g id="edge5" class="edge">
<title>g&#45;&gt;1</title>
<path fill="none" stroke="#000000" d="M387.8502,-171C395.892,-171 404.7044,-171 412.8182,-171"/>
<polygon fill="#000000" stroke="#000000" points="412.9585,-174.5001 422.9584,-171 412.9584,-167.5001 412.9585,-174.5001"/>
</g>
</g>
</svg>
