<?xml version="1.0" encoding="UTF-8" standalone="no"?>
<!DOCTYPE svg PUBLIC "-//W3C//DTD SVG 1.1//EN"
 "http://www.w3.org/Graphics/SVG/1.1/DTD/svg11.dtd">
<!-- Generated by graphviz version 2.43.0 (0)
 -->
<!-- Title: %3 Pages: 1 -->
<svg width="314pt" height="551pt"
 viewBox="0.00 0.00 314.00 551.00" xmlns="http://www.w3.org/2000/svg" xmlns:xlink="http://www.w3.org/1999/xlink">
<g id="graph0" class="graph" transform="scale(1 1) rotate(0) translate(4 547)">
<title>%3</title>
<g id="clust1" class="cluster">
<title>cluster9</title>
<polygon fill="#f2f2f2" stroke="black" points="53,-8 53,-535 242,-535 242,-8 53,-8"/>
<text text-anchor="middle" x="147.5" y="-519.8" font-family="Lato" font-size="14.00">Pila de control</text>
</g>
<g id="clust2" class="cluster">
<title>cluster3</title>
<polygon fill="white" stroke="black" points="61,-429 61,-504 234,-504 234,-429 61,-429"/>
<text text-anchor="middle" x="147.5" y="-488.8" font-family="Lato" font-size="14.00">Marco del lambda interior</text>
</g>
<g id="clust3" class="cluster">
<title>cluster2</title>
<polygon fill="white" stroke="black" points="65,-290 65,-421 229,-421 229,-290 65,-290"/>
<text text-anchor="start" x="73" y="-406.8" font-family="Lato" font-size="14.00"> &#160;&#160;&#160;&#160;&#160;&#160;&#160;Marco de </text>
<text text-anchor="start" x="165" y="-406.8" font-family="monospace" font-size="14.00">dos</text>
<text text-anchor="start" x="190" y="-406.8" font-family="Lato" font-size="14.00"> &#160;&#160;&#160;&#160;&#160;&#160;&#160;</text>
</g>
<g id="clust4" class="cluster">
<title>cluster1</title>
<polygon fill="white" stroke="black" points="65,-207 65,-282 229,-282 229,-207 65,-207"/>
<text text-anchor="start" x="73" y="-267.8" font-family="Lato" font-size="14.00"> &#160;&#160;&#160;&#160;&#160;&#160;&#160;Marco de </text>
<text text-anchor="start" x="165" y="-267.8" font-family="monospace" font-size="14.00">uno</text>
<text text-anchor="start" x="190" y="-267.8" font-family="Lato" font-size="14.00"> &#160;&#160;&#160;&#160;&#160;&#160;&#160;</text>
</g>
<g id="clust5" class="cluster">
<title>cluster0</title>
<polygon fill="white" stroke="black" points="65.5,-16 65.5,-199 228.5,-199 228.5,-16 65.5,-16"/>
<text text-anchor="middle" x="147" y="-183.8" font-family="Lato" font-size="14.00"> &#160;&#160;&#160;&#160;&#160;&#160;&#160;&#160;Marco global &#160;&#160;&#160;&#160;&#160;&#160;&#160;&#160;</text>
</g>
<!-- z -->
<g id="node1" class="node">
<title>z</title>
<polygon fill="transparent" stroke="transparent" points="159,-473 135,-473 135,-437 159,-437 159,-473"/>
<text text-anchor="middle" x="147" y="-451.6" font-family="monospace" font-size="13.00">z</text>
</g>
<!-- dummy -->
<!-- z&#45;&gt;dummy -->
<g id="edge9" class="edge">
<title>z&#45;&gt;dummy</title>
<path fill="none" stroke="black" d="M61,-438.57C51.41,-433.04 43.09,-425.71 37.5,-416 23.75,-392.12 23.75,-377.88 37.5,-354 42.05,-346.1 48.43,-339.84 55.86,-334.88"/>
<polygon fill="black" stroke="black" points="58.07,-337.65 65,-329.64 54.59,-331.57 58.07,-337.65"/>
</g>
<!-- 8 -->
<g id="node9" class="node">
<title>8</title>
<ellipse fill="white" stroke="black" cx="288" cy="-455" rx="18" ry="18"/>
<text text-anchor="middle" x="288" y="-451.6" font-family="Lato" font-size="13.00">8</text>
</g>
<!-- z&#45;&gt;8 -->
<g id="edge5" class="edge">
<title>z&#45;&gt;8</title>
<path fill="none" stroke="black" d="M159.37,-455C181.09,-455 228.99,-455 259.54,-455"/>
<polygon fill="black" stroke="black" points="259.93,-458.5 269.93,-455 259.93,-451.5 259.93,-458.5"/>
</g>
<!-- y -->
<g id="node2" class="node">
<title>y</title>
<polygon fill="transparent" stroke="transparent" points="159,-390 135,-390 135,-354 159,-354 159,-390"/>
<text text-anchor="middle" x="147" y="-368.6" font-family="monospace" font-size="13.00">y</text>
</g>
<!-- g -->
<g id="node5" class="node">
<title>g</title>
<polygon fill="transparent" stroke="transparent" points="159,-168 135,-168 135,-132 159,-132 159,-168"/>
<text text-anchor="middle" x="147" y="-146.6" font-family="monospace" font-size="13.00">g</text>
</g>
<!-- y&#45;&gt;g -->
<g id="edge8" class="edge">
<title>y&#45;&gt;g</title>
<path fill="none" stroke="black" d="M65,-359.36C53.71,-353.82 43.83,-345.99 37.5,-335 23.86,-311.31 23.86,-235.69 37.5,-212 42.6,-203.14 49.49,-195.45 57.35,-188.8"/>
<polygon fill="black" stroke="black" points="59.74,-191.37 65.5,-182.48 55.45,-185.84 59.74,-191.37"/>
</g>
<!-- 2 -->
<g id="node11" class="node">
<title>2</title>
<ellipse fill="white" stroke="black" cx="288" cy="-372" rx="18" ry="18"/>
<text text-anchor="middle" x="288" y="-368.6" font-family="Lato" font-size="13.00">2</text>
</g>
<!-- y&#45;&gt;2 -->
<g id="edge6" class="edge">
<title>y&#45;&gt;2</title>
<path fill="none" stroke="black" d="M159.37,-372C181.09,-372 228.99,-372 259.54,-372"/>
<polygon fill="black" stroke="black" points="259.93,-375.5 269.93,-372 259.93,-368.5 259.93,-375.5"/>
</g>
<!-- x -->
<g id="node4" class="node">
<title>x</title>
<polygon fill="transparent" stroke="transparent" points="159,-251 135,-251 135,-215 159,-215 159,-251"/>
<text text-anchor="middle" x="147" y="-229.6" font-family="monospace" font-size="13.00">x</text>
</g>
<!-- uno -->
<g id="node6" class="node">
<title>uno</title>
<polygon fill="transparent" stroke="transparent" points="166.5,-114 127.5,-114 127.5,-78 166.5,-78 166.5,-114"/>
<text text-anchor="middle" x="147" y="-92.6" font-family="monospace" font-size="13.00">uno</text>
</g>
<!-- x&#45;&gt;uno -->
<g id="edge7" class="edge">
<title>x&#45;&gt;uno</title>
<path fill="none" stroke="black" d="M65,-218.74C53.73,-213 43.85,-205.04 37.5,-194 23.75,-170.12 23.75,-155.88 37.5,-132 42.21,-123.82 48.9,-117.44 56.67,-112.46"/>
<polygon fill="black" stroke="black" points="58.43,-115.49 65.5,-107.59 55.06,-109.36 58.43,-115.49"/>
</g>
<!-- 3 -->
<g id="node8" class="node">
<title>3</title>
<ellipse fill="white" stroke="black" cx="288" cy="-233" rx="18" ry="18"/>
<text text-anchor="middle" x="288" y="-229.6" font-family="Lato" font-size="13.00">3</text>
</g>
<!-- x&#45;&gt;3 -->
<g id="edge4" class="edge">
<title>x&#45;&gt;3</title>
<path fill="none" stroke="black" d="M159.37,-233C181.09,-233 228.99,-233 259.54,-233"/>
<polygon fill="black" stroke="black" points="259.93,-236.5 269.93,-233 259.93,-229.5 259.93,-236.5"/>
</g>
<!-- 1 -->
<g id="node10" class="node">
<title>1</title>
<ellipse fill="white" stroke="black" cx="288" cy="-150" rx="18" ry="18"/>
<text text-anchor="middle" x="288" y="-146.6" font-family="Lato" font-size="13.00">1</text>
</g>
<!-- g&#45;&gt;1 -->
<g id="edge3" class="edge">
<title>g&#45;&gt;1</title>
<path fill="none" stroke="black" d="M159.37,-150C181.09,-150 228.99,-150 259.54,-150"/>
<polygon fill="black" stroke="black" points="259.93,-153.5 269.93,-150 259.93,-146.5 259.93,-153.5"/>
</g>
<!-- l1 -->
<g id="node12" class="node">
<title>l1</title>
<ellipse fill="white" stroke="black" cx="288" cy="-96" rx="18" ry="18"/>
<text text-anchor="middle" x="288" y="-92.6" font-family="Lato" font-size="13.00">λ</text>
</g>
<!-- uno&#45;&gt;l1 -->
<g id="edge1" class="edge">
<title>uno&#45;&gt;l1</title>
<path fill="none" stroke="black" d="M166.75,-96C190.69,-96 232.3,-96 259.75,-96"/>
<polygon fill="black" stroke="black" points="259.86,-99.5 269.86,-96 259.86,-92.5 259.86,-99.5"/>
</g>
<!-- dos -->
<g id="node7" class="node">
<title>dos</title>
<polygon fill="transparent" stroke="transparent" points="166.5,-60 127.5,-60 127.5,-24 166.5,-24 166.5,-60"/>
<text text-anchor="middle" x="147" y="-38.6" font-family="monospace" font-size="13.00">dos</text>
</g>
<!-- l2 -->
<g id="node13" class="node">
<title>l2</title>
<ellipse fill="white" stroke="black" cx="288" cy="-42" rx="18" ry="18"/>
<text text-anchor="middle" x="288" y="-38.6" font-family="Lato" font-size="13.00">λ</text>
</g>
<!-- dos&#45;&gt;l2 -->
<g id="edge2" class="edge">
<title>dos&#45;&gt;l2</title>
<path fill="none" stroke="black" d="M166.75,-42C190.69,-42 232.3,-42 259.75,-42"/>
<polygon fill="black" stroke="black" points="259.86,-45.5 269.86,-42 259.86,-38.5 259.86,-45.5"/>
</g>
<!-- E -->
<g id="node14" class="node">
<title>E</title>
<polygon fill="transparent" stroke="transparent" points="22,-473 0,-473 0,-437 22,-437 22,-473"/>
<text text-anchor="middle" x="11" y="-451.6" font-family="Lato" font-size="13.00">E</text>
</g>
<!-- E&#45;&gt;z -->
<g id="edge10" class="edge">
<title>E&#45;&gt;z</title>
<path fill="none" stroke="black" d="M22.07,-455C29.14,-455 39.37,-455 50.97,-455"/>
<polygon fill="black" stroke="black" points="51,-458.5 61,-455 51,-451.5 51,-458.5"/>
</g>
</g>
</svg>
