<?xml version="1.0" encoding="UTF-8" standalone="no"?>
<!DOCTYPE svg PUBLIC "-//W3C//DTD SVG 1.1//EN"
 "http://www.w3.org/Graphics/SVG/1.1/DTD/svg11.dtd">
<!-- Generated by graphviz version 2.42.4 (0)
 -->
<!-- Pages: 1 -->
<svg width="234pt" height="603pt"
 viewBox="0.00 0.00 234.28 603.00" xmlns="http://www.w3.org/2000/svg" xmlns:xlink="http://www.w3.org/1999/xlink">
<g id="graph0" class="graph" transform="scale(1 1) rotate(0) translate(4 599)">
<g id="clust1" class="cluster">
<title>cluster9</title>
<polygon fill="#f2f2f2" stroke="black" points="30.35,-8 30.35,-587 158.35,-587 158.35,-8 30.35,-8"/>
<text text-anchor="middle" x="94.35" y="-571.8" font-family="Lato" font-size="14.00">Pila de control</text>
</g>
<g id="clust2" class="cluster">
<title>cluster3</title>
<polygon fill="white" stroke="black" points="38.35,-481 38.35,-556 150.35,-556 150.35,-481 38.35,-481"/>
<text text-anchor="start" x="46.35" y="-541.8" font-family="Lato" font-size="14.00">Marco de </text>
<text text-anchor="start" x="108.35" y="-541.8" font-family="monospace" font-size="14.00">tres</text>
</g>
<g id="clust3" class="cluster">
<title>cluster2</title>
<polygon fill="white" stroke="black" points="43.35,-344 43.35,-473 146.35,-473 146.35,-344 43.35,-344"/>
<text text-anchor="start" x="51.35" y="-458.8" font-family="Lato" font-size="14.00">Marco de </text>
<text text-anchor="start" x="113.35" y="-458.8" font-family="monospace" font-size="14.00">dos</text>
</g>
<g id="clust4" class="cluster">
<title>cluster1</title>
<polygon fill="white" stroke="black" points="43.35,-261 43.35,-336 146.35,-336 146.35,-261 43.35,-261"/>
<text text-anchor="start" x="51.35" y="-321.8" font-family="Lato" font-size="14.00">Marco de </text>
<text text-anchor="start" x="113.35" y="-321.8" font-family="monospace" font-size="14.00">uno</text>
</g>
<g id="clust5" class="cluster">
<title>cluster0</title>
<polygon fill="white" stroke="black" points="46.85,-16 46.85,-253 141.85,-253 141.85,-16 46.85,-16"/>
<text text-anchor="middle" x="94.35" y="-237.8" font-family="Lato" font-size="14.00">Marco global</text>
</g>
<!-- 1 -->
<g id="node1" class="node">
<title>1</title>
<ellipse fill="white" stroke="black" cx="206.07" cy="-204" rx="18" ry="18"/>
<text text-anchor="middle" x="206.07" y="-200.6" font-family="monospace" font-size="13.00">1</text>
</g>
<!-- 3 -->
<g id="node2" class="node">
<title>3</title>
<ellipse fill="white" stroke="black" cx="206.07" cy="-287" rx="18" ry="18"/>
<text text-anchor="middle" x="206.07" y="-283.6" font-family="monospace" font-size="13.00">3</text>
</g>
<!-- 11 -->
<g id="node3" class="node">
<title>11</title>
<ellipse fill="white" stroke="black" cx="206.07" cy="-507" rx="20.43" ry="20.43"/>
<text text-anchor="middle" x="206.07" y="-503.6" font-family="monospace" font-size="13.00">11</text>
</g>
<!-- 6 -->
<g id="node4" class="node">
<title>6</title>
<ellipse fill="white" stroke="black" cx="206.07" cy="-424" rx="18" ry="18"/>
<text text-anchor="middle" x="206.07" y="-420.6" font-family="monospace" font-size="13.00">6</text>
</g>
<!-- 4 -->
<g id="node5" class="node">
<title>4</title>
<ellipse fill="white" stroke="black" cx="206.07" cy="-370" rx="18" ry="18"/>
<text text-anchor="middle" x="206.07" y="-366.6" font-family="monospace" font-size="13.00">4</text>
</g>
<!-- l1 -->
<g id="node6" class="node">
<title>l1</title>
<ellipse fill="white" stroke="black" cx="206.07" cy="-150" rx="18" ry="18"/>
<text text-anchor="middle" x="206.07" y="-146.6" font-family="monospace" font-size="13.00">λ</text>
</g>
<!-- l2 -->
<g id="node7" class="node">
<title>l2</title>
<ellipse fill="white" stroke="black" cx="206.07" cy="-96" rx="18" ry="18"/>
<text text-anchor="middle" x="206.07" y="-92.6" font-family="monospace" font-size="13.00">λ</text>
</g>
<!-- l3 -->
<g id="node8" class="node">
<title>l3</title>
<ellipse fill="white" stroke="black" cx="206.07" cy="-42" rx="18" ry="18"/>
<text text-anchor="middle" x="206.07" y="-38.6" font-family="monospace" font-size="13.00">λ</text>
</g>
<!-- w -->
<g id="node9" class="node">
<title>w</title>
<polygon fill="transparent" stroke="transparent" points="106.35,-525 82.35,-525 82.35,-489 106.35,-489 106.35,-525"/>
<text text-anchor="middle" x="94.35" y="-503.6" font-family="monospace" font-size="13.00">w</text>
</g>
<!-- w&#45;&gt;11 -->
<g id="edge6" class="edge">
<title>w&#45;&gt;11</title>
<path fill="none" stroke="black" d="M106.68,-507C122.75,-507 152.73,-507 175.39,-507"/>
<polygon fill="black" stroke="black" points="175.52,-510.5 185.52,-507 175.52,-503.5 175.52,-510.5"/>
</g>
<!-- uno -->
<g id="node14" class="node">
<title>uno</title>
<polygon fill="transparent" stroke="transparent" points="113.85,-168 74.85,-168 74.85,-132 113.85,-132 113.85,-168"/>
<text text-anchor="middle" x="94.35" y="-146.6" font-family="monospace" font-size="13.00">uno</text>
</g>
<!-- w&#45;&gt;uno -->
<g id="edge11" class="edge">
<title>w&#45;&gt;uno</title>
<path fill="none" stroke="black" d="M38.36,-491C27.99,-485.42 18.51,-477.96 12.35,-468 -4.12,-441.35 -4.12,-212.65 12.35,-186 18.27,-176.43 27.39,-169.39 37.44,-164.22"/>
<polygon fill="black" stroke="black" points="39.18,-167.28 46.86,-159.98 36.3,-160.89 39.18,-167.28"/>
</g>
<!-- y -->
<g id="node10" class="node">
<title>y</title>
<polygon fill="transparent" stroke="transparent" points="106.35,-442 82.35,-442 82.35,-406 106.35,-406 106.35,-442"/>
<text text-anchor="middle" x="94.35" y="-420.6" font-family="monospace" font-size="13.00">y</text>
</g>
<!-- y&#45;&gt;6 -->
<g id="edge7" class="edge">
<title>y&#45;&gt;6</title>
<path fill="none" stroke="black" d="M106.68,-424C123.32,-424 154.86,-424 177.76,-424"/>
<polygon fill="black" stroke="black" points="177.9,-427.5 187.9,-424 177.9,-420.5 177.9,-427.5"/>
</g>
<!-- g -->
<g id="node13" class="node">
<title>g</title>
<polygon fill="transparent" stroke="transparent" points="106.35,-222 82.35,-222 82.35,-186 106.35,-186 106.35,-222"/>
<text text-anchor="middle" x="94.35" y="-200.6" font-family="monospace" font-size="13.00">g</text>
</g>
<!-- y&#45;&gt;g -->
<g id="edge10" class="edge">
<title>y&#45;&gt;g</title>
<path fill="none" stroke="black" d="M43.36,-412.58C31.05,-407.24 19.41,-399.42 12.35,-388 -1.9,-364.94 0.28,-290.27 12.35,-266 18.38,-253.89 28.03,-243.52 38.62,-234.91"/>
<polygon fill="black" stroke="black" points="41,-237.5 46.86,-228.68 36.77,-231.92 41,-237.5"/>
</g>
<!-- z -->
<g id="node11" class="node">
<title>z</title>
<polygon fill="transparent" stroke="transparent" points="106.35,-388 82.35,-388 82.35,-352 106.35,-352 106.35,-388"/>
<text text-anchor="middle" x="94.35" y="-366.6" font-family="monospace" font-size="13.00">z</text>
</g>
<!-- z&#45;&gt;4 -->
<g id="edge8" class="edge">
<title>z&#45;&gt;4</title>
<path fill="none" stroke="black" d="M106.68,-370C123.32,-370 154.86,-370 177.76,-370"/>
<polygon fill="black" stroke="black" points="177.9,-373.5 187.9,-370 177.9,-366.5 177.9,-373.5"/>
</g>
<!-- x -->
<g id="node12" class="node">
<title>x</title>
<polygon fill="transparent" stroke="transparent" points="106.35,-305 82.35,-305 82.35,-269 106.35,-269 106.35,-305"/>
<text text-anchor="middle" x="94.35" y="-283.6" font-family="monospace" font-size="13.00">x</text>
</g>
<!-- x&#45;&gt;3 -->
<g id="edge5" class="edge">
<title>x&#45;&gt;3</title>
<path fill="none" stroke="black" d="M106.68,-287C123.32,-287 154.86,-287 177.76,-287"/>
<polygon fill="black" stroke="black" points="177.9,-290.5 187.9,-287 177.9,-283.5 177.9,-290.5"/>
</g>
<!-- dos -->
<g id="node15" class="node">
<title>dos</title>
<polygon fill="transparent" stroke="transparent" points="113.85,-114 74.85,-114 74.85,-78 113.85,-78 113.85,-114"/>
<text text-anchor="middle" x="94.35" y="-92.6" font-family="monospace" font-size="13.00">dos</text>
</g>
<!-- x&#45;&gt;dos -->
<g id="edge9" class="edge">
<title>x&#45;&gt;dos</title>
<path fill="none" stroke="black" d="M43.36,-273.52C31.09,-267.73 19.49,-259.54 12.35,-248 -1.2,-226.07 -1.2,-153.93 12.35,-132 18.27,-122.43 27.39,-115.39 37.44,-110.22"/>
<polygon fill="black" stroke="black" points="39.18,-113.28 46.86,-105.98 36.3,-106.89 39.18,-113.28"/>
</g>
<!-- g&#45;&gt;1 -->
<g id="edge4" class="edge">
<title>g&#45;&gt;1</title>
<path fill="none" stroke="black" d="M106.68,-204C123.32,-204 154.86,-204 177.76,-204"/>
<polygon fill="black" stroke="black" points="177.9,-207.5 187.9,-204 177.9,-200.5 177.9,-207.5"/>
</g>
<!-- uno&#45;&gt;l1 -->
<g id="edge1" class="edge">
<title>uno&#45;&gt;l1</title>
<path fill="none" stroke="black" d="M113.97,-150C131.48,-150 157.92,-150 177.81,-150"/>
<polygon fill="black" stroke="black" points="177.81,-153.5 187.81,-150 177.81,-146.5 177.81,-153.5"/>
</g>
<!-- dos&#45;&gt;l2 -->
<g id="edge2" class="edge">
<title>dos&#45;&gt;l2</title>
<path fill="none" stroke="black" d="M113.97,-96C131.48,-96 157.92,-96 177.81,-96"/>
<polygon fill="black" stroke="black" points="177.81,-99.5 187.81,-96 177.81,-92.5 177.81,-99.5"/>
</g>
<!-- tres -->
<g id="node16" class="node">
<title>tres</title>
<polygon fill="transparent" stroke="transparent" points="117.85,-60 70.85,-60 70.85,-24 117.85,-24 117.85,-60"/>
<text text-anchor="middle" x="94.35" y="-38.6" font-family="monospace" font-size="13.00">tres</text>
</g>
<!-- tres&#45;&gt;l3 -->
<g id="edge3" class="edge">
<title>tres&#45;&gt;l3</title>
<path fill="none" stroke="black" d="M118.09,-42C135.4,-42 159.31,-42 177.68,-42"/>
<polygon fill="black" stroke="black" points="177.76,-45.5 187.76,-42 177.76,-38.5 177.76,-45.5"/>
</g>
</g>
</svg>
