<?xml version="1.0" encoding="UTF-8" standalone="no"?>
<!DOCTYPE svg PUBLIC "-//W3C//DTD SVG 1.1//EN"
 "http://www.w3.org/Graphics/SVG/1.1/DTD/svg11.dtd">
<!-- Generated by graphviz version 2.43.0 (0)
 -->
<!-- Title: %3 Pages: 1 -->
<svg width="602pt" height="377pt"
 viewBox="0.00 0.00 602.43 377.21" xmlns="http://www.w3.org/2000/svg" xmlns:xlink="http://www.w3.org/1999/xlink">
<g id="graph0" class="graph" transform="scale(1 1) rotate(0) translate(4 373.21)">
<title>%3</title>
<g id="clust1" class="cluster">
<title>cluster2</title>
<polygon fill="white" stroke="black" points="378,-216.21 378,-361.21 480,-361.21 480,-216.21 378,-216.21"/>
<text text-anchor="start" x="389.5" y="-346.01" font-family="Lato" font-size="14.00">Marco global</text>
</g>
<g id="clust2" class="cluster">
<title>cluster1</title>
<polygon fill="white" stroke="red" points="201,-168.21 201,-231.21 313,-231.21 313,-168.21 201,-168.21"/>
<text text-anchor="start" x="209" y="-217.01" font-family="Lato" font-size="14.00" fill="red">Marco de </text>
<text text-anchor="start" x="271" y="-217.01" font-family="monospace" font-size="14.00" fill="red">p(0)</text>
</g>
<g id="clust3" class="cluster">
<title>cluster0</title>
<polygon fill="white" stroke="grey" points="332.5,-17.21 332.5,-162.21 526.5,-162.21 526.5,-17.21 332.5,-17.21"/>
<text text-anchor="start" x="340.5" y="-148.01" font-family="Lato" font-size="14.00" fill="grey">Marco de </text>
<text text-anchor="start" x="402.5" y="-148.01" font-family="monospace" font-size="14.00" fill="grey">pareja(20, 14)</text>
</g>
<!-- pila -->
<g id="node1" class="node">
<title>pila</title>
<polygon fill="white" stroke="black" points="53,-280.21 53,-324.21 115,-324.21 115,-280.21 53,-280.21"/>
<text text-anchor="middle" x="84" y="-309.81" font-family="monospace" font-size="13.00">p(0)</text>
<polyline fill="none" stroke="black" points="53,-302.21 115,-302.21 "/>
<text text-anchor="middle" x="84" y="-287.81" font-family="monospace" font-size="13.00">Global</text>
<text text-anchor="middle" x="26.5" y="-269.31" font-family="monospace" font-size="13.00">Pila de</text>
<text text-anchor="middle" x="26.5" y="-255.31" font-family="monospace" font-size="13.00">control</text>
</g>
<!-- select -->
<g id="node8" class="node">
<title>select</title>
<polygon fill="white" stroke="black" points="386,-307.21 386,-329.21 472,-329.21 472,-307.21 386,-307.21"/>
<text text-anchor="middle" x="417" y="-314.81" font-family="monospace" font-size="13.00">select</text>
<polyline fill="none" stroke="black" points="448,-307.21 448,-329.21 "/>
<text text-anchor="middle" x="460" y="-314.81" font-family="monospace" font-size="13.00">⬤</text>
</g>
<!-- pila&#45;&gt;select -->
<g id="edge10" class="edge">
<title>pila:f0&#45;&gt;select</title>
<path fill="none" stroke="black" d="M115,-291.21C207.09,-291.21 313.87,-302.96 375.89,-310.96"/>
<polygon fill="black" stroke="black" points="367.61,-313.32 378,-311.25 368.59,-306.39 367.61,-313.32"/>
</g>
<!-- indice -->
<g id="node10" class="node">
<title>indice</title>
<polygon fill="white" stroke="black" points="214,-177.21 214,-199.21 300,-199.21 300,-177.21 214,-177.21"/>
<text text-anchor="middle" x="245" y="-184.81" font-family="monospace" font-size="13.00">indice</text>
<polyline fill="none" stroke="black" points="276,-177.21 276,-199.21 "/>
<text text-anchor="middle" x="288" y="-184.81" font-family="monospace" font-size="13.00">⬤</text>
</g>
<!-- pila&#45;&gt;indice -->
<g id="edge11" class="edge">
<title>pila:f1&#45;&gt;indice:n</title>
<path fill="none" stroke="black" d="M115,-313.21C176.41,-313.21 222.95,-289.76 238.96,-240.96"/>
<polygon fill="black" stroke="black" points="242.37,-241.78 241.67,-231.21 235.62,-239.91 242.37,-241.78"/>
</g>
<!-- 14 -->
<g id="node2" class="node">
<title>14</title>
<ellipse fill="white" stroke="grey" cx="574.21" cy="-78.21" rx="20.43" ry="20.43"/>
<text text-anchor="middle" x="574.21" y="-74.81" font-family="monospace" font-size="13.00" fill="grey">14</text>
</g>
<!-- 20 -->
<g id="node3" class="node">
<title>20</title>
<ellipse fill="white" stroke="grey" cx="574.21" cy="-20.21" rx="20.43" ry="20.43"/>
<text text-anchor="middle" x="574.21" y="-16.81" font-family="monospace" font-size="13.00" fill="grey">20</text>
</g>
<!-- f1 -->
<g id="node4" class="node">
<title>f1</title>
<ellipse fill="white" stroke="black" cx="574.21" cy="-270.21" rx="18" ry="18"/>
<text text-anchor="middle" x="574.21" y="-266.81" font-family="monospace" font-size="13.00">λ</text>
</g>
<!-- f2 -->
<g id="node5" class="node">
<title>f2</title>
<ellipse fill="white" stroke="black" cx="574.21" cy="-324.21" rx="18" ry="18"/>
<text text-anchor="middle" x="574.21" y="-320.81" font-family="monospace" font-size="13.00">λ</text>
</g>
<!-- f3 -->
<g id="node6" class="node">
<title>f3</title>
<ellipse fill="white" stroke="red" cx="574.21" cy="-134.21" rx="18" ry="18"/>
<text text-anchor="middle" x="574.21" y="-130.81" font-family="monospace" font-size="13.00">λ</text>
</g>
<!-- y -->
<g id="node13" class="node">
<title>y</title>
<polygon fill="white" stroke="black" points="411,-67.21 411,-89.21 447,-89.21 447,-67.21 411,-67.21"/>
<text text-anchor="middle" x="420" y="-74.81" font-family="monospace" font-size="13.00" fill="grey">y</text>
<polyline fill="none" stroke="black" points="429,-67.21 429,-89.21 "/>
<text text-anchor="middle" x="438" y="-74.81" font-family="monospace" font-size="13.00" fill="grey">⬤</text>
</g>
<!-- f3&#45;&gt;y -->
<g id="edge13" class="edge">
<title>f3&#45;&gt;y</title>
<path fill="none" stroke="blue" d="M560.31,-122.13C553.58,-116.32 544.83,-109.44 535.54,-103.96"/>
<polygon fill="blue" stroke="blue" points="536.98,-100.77 526.5,-99.21 533.72,-106.96 536.98,-100.77"/>
</g>
<!-- pareja -->
<g id="node7" class="node">
<title>pareja</title>
<polygon fill="white" stroke="black" points="386,-266.21 386,-288.21 472,-288.21 472,-266.21 386,-266.21"/>
<text text-anchor="middle" x="417" y="-273.81" font-family="monospace" font-size="13.00">pareja</text>
<polyline fill="none" stroke="black" points="448,-266.21 448,-288.21 "/>
<text text-anchor="middle" x="460" y="-273.81" font-family="monospace" font-size="13.00">⬤</text>
</g>
<!-- pareja&#45;&gt;f1 -->
<g id="edge1" class="edge">
<title>pareja:f1&#45;&gt;f1</title>
<path fill="none" stroke="black" d="M473,-277.21C497.84,-277.21 526.05,-275.05 546.2,-273.13"/>
<polygon fill="black" stroke="black" points="546.61,-276.6 556.22,-272.13 545.92,-269.64 546.61,-276.6"/>
</g>
<!-- select&#45;&gt;f2 -->
<g id="edge2" class="edge">
<title>select:f1&#45;&gt;f2</title>
<path fill="none" stroke="black" d="M473,-318.21C497.82,-318.21 526.04,-320.07 546.19,-321.72"/>
<polygon fill="black" stroke="black" points="545.95,-325.21 556.21,-322.57 546.54,-318.24 545.95,-325.21"/>
</g>
<!-- p -->
<g id="node9" class="node">
<title>p</title>
<polygon fill="white" stroke="black" points="411,-225.21 411,-247.21 447,-247.21 447,-225.21 411,-225.21"/>
<text text-anchor="middle" x="420" y="-232.81" font-family="monospace" font-size="13.00">p</text>
<polyline fill="none" stroke="black" points="429,-225.21 429,-247.21 "/>
<text text-anchor="middle" x="438" y="-232.81" font-family="monospace" font-size="13.00">⬤</text>
</g>
<!-- p&#45;&gt;f3 -->
<g id="edge3" class="edge">
<title>p:e&#45;&gt;f3</title>
<path fill="none" stroke="black" d="M448,-236.21C484.12,-236.21 497.85,-237.2 526.5,-215.21 544.54,-201.37 556.82,-178.43 564.25,-160.49"/>
<polygon fill="black" stroke="black" points="567.53,-161.71 567.88,-151.13 561,-159.18 567.53,-161.71"/>
</g>
<!-- 0 -->
<g id="node11" class="node">
<title>0</title>
<ellipse fill="white" stroke="black" cx="429" cy="-188.21" rx="18" ry="18"/>
<text text-anchor="middle" x="429" y="-184.81" font-family="monospace" font-size="13.00">0</text>
</g>
<!-- indice&#45;&gt;0 -->
<g id="edge4" class="edge">
<title>indice:f1&#45;&gt;0</title>
<path fill="none" stroke="black" d="M301,-188.21C335.34,-188.21 374.9,-188.21 400.63,-188.21"/>
<polygon fill="black" stroke="black" points="400.74,-191.71 410.74,-188.21 400.74,-184.71 400.74,-191.71"/>
</g>
<!-- x -->
<g id="node12" class="node">
<title>x</title>
<polygon fill="white" stroke="black" points="411,-26.21 411,-48.21 447,-48.21 447,-26.21 411,-26.21"/>
<text text-anchor="middle" x="420" y="-33.81" font-family="monospace" font-size="13.00" fill="grey">x</text>
<polyline fill="none" stroke="black" points="429,-26.21 429,-48.21 "/>
<text text-anchor="middle" x="438" y="-33.81" font-family="monospace" font-size="13.00" fill="grey">⬤</text>
</g>
<!-- indice&#45;&gt;x -->
<g id="edge9" class="edge">
<title>indice:s&#45;&gt;x</title>
<path fill="none" stroke="blue" d="M245.17,-168.21C247.65,-112.68 276.55,-94.23 324.02,-63.68"/>
<polygon fill="blue" stroke="blue" points="325.99,-66.57 332.5,-58.21 322.2,-60.69 325.99,-66.57"/>
</g>
<!-- x&#45;&gt;20 -->
<g id="edge5" class="edge">
<title>x:f1&#45;&gt;20</title>
<path fill="none" stroke="grey" d="M448,-37.21C481.21,-37.21 518.92,-31.27 544.21,-26.41"/>
<polygon fill="grey" stroke="grey" points="545.11,-29.8 554.23,-24.42 543.74,-22.94 545.11,-29.8"/>
</g>
<!-- y&#45;&gt;14 -->
<g id="edge6" class="edge">
<title>y:f1&#45;&gt;14</title>
<path fill="none" stroke="grey" d="M448,-78.21C480.72,-78.21 518.24,-78.21 543.61,-78.21"/>
<polygon fill="grey" stroke="grey" points="543.69,-81.71 553.69,-78.21 543.69,-74.71 543.69,-81.71"/>
</g>
<!-- get -->
<g id="node14" class="node">
<title>get</title>
<polygon fill="white" stroke="black" points="397.5,-108.21 397.5,-130.21 460.5,-130.21 460.5,-108.21 397.5,-108.21"/>
<text text-anchor="middle" x="417" y="-115.81" font-family="monospace" font-size="13.00" fill="grey">get</text>
<polyline fill="none" stroke="black" points="436.5,-108.21 436.5,-130.21 "/>
<text text-anchor="middle" x="448.5" y="-115.81" font-family="monospace" font-size="13.00" fill="grey">⬤</text>
</g>
<!-- get&#45;&gt;f3 -->
<g id="edge7" class="edge">
<title>get:f1&#45;&gt;f3</title>
<path fill="none" stroke="grey" d="M462,-119.21C491.1,-119.21 524.1,-124.32 546.54,-128.57"/>
<polygon fill="grey" stroke="grey" points="545.86,-132.01 556.35,-130.51 547.22,-125.14 545.86,-132.01"/>
</g>
<!-- get&#45;&gt;pareja -->
<g id="edge8" class="edge">
<title>get&#45;&gt;pareja</title>
<path fill="none" stroke="grey" d="M332.5,-155.17C328.53,-159.62 325.2,-164.61 322.75,-170.21 315.8,-186.09 315.8,-232.34 322.75,-248.21 331.56,-268.34 353.87,-276.24 375.78,-278.84"/>
<polygon fill="grey" stroke="grey" points="367.41,-279.4 378,-279.68 369.9,-272.86 367.41,-279.4"/>
</g>
<!-- E -->
<g id="node15" class="node">
<title>E</title>
<polygon fill="transparent" stroke="transparent" points="173,-206.21 151,-206.21 151,-170.21 173,-170.21 173,-206.21"/>
<text text-anchor="middle" x="162" y="-184.81" font-family="monospace" font-size="13.00">E</text>
</g>
<!-- E&#45;&gt;indice -->
<g id="edge12" class="edge">
<title>E&#45;&gt;indice</title>
<path fill="none" stroke="black" d="M173.31,-188.21C178.06,-188.21 184.14,-188.21 190.83,-188.21"/>
<polygon fill="black" stroke="black" points="191,-191.71 201,-188.21 191,-184.71 191,-191.71"/>
</g>
</g>
</svg>
