<?xml version="1.0" encoding="UTF-8" standalone="no"?>
<!DOCTYPE svg PUBLIC "-//W3C//DTD SVG 1.1//EN"
 "http://www.w3.org/Graphics/SVG/1.1/DTD/svg11.dtd">
<!-- Generated by graphviz version 2.43.0 (0)
 -->
<!-- Title: %3 Pages: 1 -->
<svg width="430pt" height="331pt"
 viewBox="0.00 0.00 430.43 331.21" xmlns="http://www.w3.org/2000/svg" xmlns:xlink="http://www.w3.org/1999/xlink">
<g id="graph0" class="graph" transform="scale(1 1) rotate(0) translate(4 327.21)">
<title>%3</title>
<g id="clust1" class="cluster">
<title>cluster2</title>
<polygon fill="white" stroke="black" points="245,-170.21 245,-315.21 347,-315.21 347,-170.21 245,-170.21"/>
<text text-anchor="start" x="256.5" y="-300.01" font-family="Lato" font-size="14.00">Marco global</text>
</g>
<g id="clust2" class="cluster">
<title>cluster0</title>
<polygon fill="white" stroke="grey" points="237.5,-17.21 237.5,-162.21 354.5,-162.21 354.5,-17.21 237.5,-17.21"/>
<text text-anchor="start" x="245.5" y="-148.01" font-family="Lato" font-size="14.00" fill="grey">Marco de </text>
<text text-anchor="start" x="307.5" y="-148.01" font-family="Lato" font-weight="bold" font-size="14.00" fill="grey">pareja</text>
</g>
<!-- pila -->
<g id="node1" class="node">
<title>pila</title>
<polygon fill="white" stroke="black" points="53,-257.21 53,-293.21 115,-293.21 115,-257.21 53,-257.21"/>
<text text-anchor="middle" x="84" y="-271.81" font-family="monospace" font-size="13.00">Global</text>
<text text-anchor="middle" x="26.5" y="-246.31" font-family="monospace" font-size="13.00">Pila de</text>
<text text-anchor="middle" x="26.5" y="-232.31" font-family="monospace" font-size="13.00">control</text>
</g>
<!-- pareja -->
<g id="node7" class="node">
<title>pareja</title>
<polygon fill="white" stroke="black" points="253,-261.21 253,-283.21 339,-283.21 339,-261.21 253,-261.21"/>
<text text-anchor="middle" x="284" y="-268.81" font-family="monospace" font-size="13.00">pareja</text>
<polyline fill="none" stroke="black" points="315,-261.21 315,-283.21 "/>
<text text-anchor="middle" x="327" y="-268.81" font-family="monospace" font-size="13.00">⬤</text>
</g>
<!-- pila&#45;&gt;pareja -->
<g id="edge8" class="edge">
<title>pila:f0&#45;&gt;pareja</title>
<path fill="none" stroke="black" d="M115.13,-274.77C148.67,-274.29 202.6,-273.53 242.67,-272.96"/>
<polygon fill="black" stroke="black" points="235.24,-276.92 245,-272.81 234.8,-269.94 235.24,-276.92"/>
</g>
<!-- 14 -->
<g id="node2" class="node">
<title>14</title>
<ellipse fill="white" stroke="grey" cx="402.21" cy="-78.21" rx="20.43" ry="20.43"/>
<text text-anchor="middle" x="402.21" y="-74.81" font-family="monospace" font-size="13.00" fill="grey">14</text>
</g>
<!-- 20 -->
<g id="node3" class="node">
<title>20</title>
<ellipse fill="white" stroke="grey" cx="402.21" cy="-20.21" rx="20.43" ry="20.43"/>
<text text-anchor="middle" x="402.21" y="-16.81" font-family="monospace" font-size="13.00" fill="grey">20</text>
</g>
<!-- f1 -->
<g id="node4" class="node">
<title>f1</title>
<ellipse fill="white" stroke="black" cx="402.21" cy="-278.21" rx="18" ry="18"/>
<text text-anchor="middle" x="402.21" y="-274.81" font-family="monospace" font-size="13.00">λ</text>
</g>
<!-- f2 -->
<g id="node5" class="node">
<title>f2</title>
<ellipse fill="white" stroke="black" cx="402.21" cy="-224.21" rx="18" ry="18"/>
<text text-anchor="middle" x="402.21" y="-220.81" font-family="monospace" font-size="13.00">λ</text>
</g>
<!-- f3 -->
<g id="node6" class="node">
<title>f3</title>
<ellipse fill="white" stroke="red" cx="402.21" cy="-134.21" rx="18" ry="18"/>
<text text-anchor="middle" x="402.21" y="-130.81" font-family="monospace" font-size="13.00">λ</text>
</g>
<!-- y -->
<g id="node11" class="node">
<title>y</title>
<polygon fill="white" stroke="black" points="278,-67.21 278,-89.21 314,-89.21 314,-67.21 278,-67.21"/>
<text text-anchor="middle" x="287" y="-74.81" font-family="monospace" font-size="13.00">y</text>
<polyline fill="none" stroke="black" points="296,-67.21 296,-89.21 "/>
<text text-anchor="middle" x="305" y="-74.81" font-family="monospace" font-size="13.00">⬤</text>
</g>
<!-- f3&#45;&gt;y -->
<g id="edge10" class="edge">
<title>f3&#45;&gt;y</title>
<path fill="none" stroke="blue" d="M388.12,-122.26C381.34,-116.44 372.56,-109.44 363.38,-103.5"/>
<polygon fill="blue" stroke="blue" points="364.88,-100.32 354.5,-98.21 361.3,-106.34 364.88,-100.32"/>
</g>
<!-- pareja&#45;&gt;f1 -->
<g id="edge1" class="edge">
<title>pareja:f1&#45;&gt;f1</title>
<path fill="none" stroke="black" d="M340,-272.21C351.29,-272.21 363.7,-273.24 374.38,-274.44"/>
<polygon fill="black" stroke="black" points="374.02,-277.92 384.37,-275.67 374.87,-270.97 374.02,-277.92"/>
</g>
<!-- select -->
<g id="node8" class="node">
<title>select</title>
<polygon fill="white" stroke="black" points="253,-220.21 253,-242.21 339,-242.21 339,-220.21 253,-220.21"/>
<text text-anchor="middle" x="284" y="-227.81" font-family="monospace" font-size="13.00">select</text>
<polyline fill="none" stroke="black" points="315,-220.21 315,-242.21 "/>
<text text-anchor="middle" x="327" y="-227.81" font-family="monospace" font-size="13.00">⬤</text>
</g>
<!-- select&#45;&gt;f2 -->
<g id="edge2" class="edge">
<title>select:f1&#45;&gt;f2</title>
<path fill="none" stroke="black" d="M340,-231.21C351.31,-231.21 363.72,-230.02 374.4,-228.62"/>
<polygon fill="black" stroke="black" points="374.98,-232.07 384.38,-227.18 373.99,-225.14 374.98,-232.07"/>
</g>
<!-- p -->
<g id="node9" class="node">
<title>p</title>
<polygon fill="white" stroke="black" points="278,-179.21 278,-201.21 314,-201.21 314,-179.21 278,-179.21"/>
<text text-anchor="middle" x="287" y="-186.81" font-family="monospace" font-size="13.00">p</text>
<polyline fill="none" stroke="black" points="296,-179.21 296,-201.21 "/>
<text text-anchor="middle" x="305" y="-186.81" font-family="monospace" font-size="13.00">⬤</text>
</g>
<!-- p&#45;&gt;f3 -->
<g id="edge3" class="edge">
<title>p:f1&#45;&gt;f3</title>
<path fill="none" stroke="black" d="M315,-190.21C341.69,-190.21 366.61,-171.11 382.73,-155.22"/>
<polygon fill="black" stroke="black" points="385.49,-157.4 389.9,-147.77 380.44,-152.54 385.49,-157.4"/>
</g>
<!-- x -->
<g id="node10" class="node">
<title>x</title>
<polygon fill="white" stroke="black" points="278,-26.21 278,-48.21 314,-48.21 314,-26.21 278,-26.21"/>
<text text-anchor="middle" x="287" y="-33.81" font-family="monospace" font-size="13.00">x</text>
<polyline fill="none" stroke="black" points="296,-26.21 296,-48.21 "/>
<text text-anchor="middle" x="305" y="-33.81" font-family="monospace" font-size="13.00">⬤</text>
</g>
<!-- x&#45;&gt;20 -->
<g id="edge4" class="edge">
<title>x:f1&#45;&gt;20</title>
<path fill="none" stroke="grey" d="M315,-37.21C334.58,-37.21 356.2,-32.94 372.89,-28.68"/>
<polygon fill="grey" stroke="grey" points="373.84,-32.05 382.59,-26.06 372.02,-25.29 373.84,-32.05"/>
</g>
<!-- x&#45;&gt;pareja -->
<g id="edge7" class="edge">
<title>x&#45;&gt;pareja</title>
<path fill="none" stroke="grey" d="M237.5,-51.56C231.86,-55.36 227.03,-60.15 223.75,-66.21 214.4,-83.51 214.4,-225.91 223.75,-243.21 228.14,-251.33 235.33,-257.19 243.51,-261.4"/>
<polygon fill="grey" stroke="grey" points="234.7,-259.87 245,-262.36 238.51,-253.99 234.7,-259.87"/>
</g>
<!-- y&#45;&gt;14 -->
<g id="edge5" class="edge">
<title>y:f1&#45;&gt;14</title>
<path fill="none" stroke="grey" d="M315,-78.21C333.79,-78.21 354.87,-78.21 371.49,-78.21"/>
<polygon fill="grey" stroke="grey" points="371.7,-81.71 381.7,-78.21 371.7,-74.71 371.7,-81.71"/>
</g>
<!-- get -->
<g id="node12" class="node">
<title>get</title>
<polygon fill="white" stroke="black" points="264.5,-108.21 264.5,-130.21 327.5,-130.21 327.5,-108.21 264.5,-108.21"/>
<text text-anchor="middle" x="284" y="-115.81" font-family="monospace" font-size="13.00">get</text>
<polyline fill="none" stroke="black" points="303.5,-108.21 303.5,-130.21 "/>
<text text-anchor="middle" x="315.5" y="-115.81" font-family="monospace" font-size="13.00">⬤</text>
</g>
<!-- get&#45;&gt;f3 -->
<g id="edge6" class="edge">
<title>get:f1&#45;&gt;f3</title>
<path fill="none" stroke="grey" d="M329,-119.21C344.51,-119.21 361.51,-122.57 375.12,-126.11"/>
<polygon fill="grey" stroke="grey" points="374.21,-129.49 384.78,-128.8 376.08,-122.75 374.21,-129.49"/>
</g>
<!-- E -->
<g id="node13" class="node">
<title>E</title>
<polygon fill="transparent" stroke="transparent" points="173,-247.21 151,-247.21 151,-211.21 173,-211.21 173,-247.21"/>
<text text-anchor="middle" x="162" y="-225.81" font-family="monospace" font-size="13.00">E</text>
</g>
<!-- E&#45;&gt;select -->
<g id="edge9" class="edge">
<title>E&#45;&gt;select</title>
<path fill="none" stroke="black" d="M173.36,-229.37C188.33,-229.6 217.05,-230.03 242.82,-230.42"/>
<polygon fill="black" stroke="black" points="234.78,-233.37 245,-230.58 235.27,-226.39 234.78,-233.37"/>
</g>
</g>
</svg>
