<?xml version="1.0" encoding="UTF-8" standalone="no"?>
<!DOCTYPE svg PUBLIC "-//W3C//DTD SVG 1.1//EN"
 "http://www.w3.org/Graphics/SVG/1.1/DTD/svg11.dtd">
<!-- Generated by graphviz version 2.40.1 (20161225.0304)
 -->
<!-- Title: %3 Pages: 1 -->
<svg width="576pt" height="383pt"
 viewBox="0.00 0.00 576.00 382.52" xmlns="http://www.w3.org/2000/svg" xmlns:xlink="http://www.w3.org/1999/xlink">
<g id="graph0" class="graph" transform="scale(1.1556 1.1556) rotate(0) translate(4 327)">
<title>%3</title>
<g id="clust1" class="cluster">
<title>cluster1</title>
<polygon fill="#ffffff" stroke="#000000" points="122,-8 122,-145 292.2136,-145 292.2136,-8 122,-8"/>
<text text-anchor="middle" x="207.1068" y="-129.8" font-family="Lato" font-size="14.00" fill="#000000">Marco de uno</text>
</g>
<g id="clust2" class="cluster">
<title>cluster2</title>
<polygon fill="#ffffff" stroke="#000000" points="122,-153 122,-232 292.2136,-232 292.2136,-153 122,-153"/>
<text text-anchor="middle" x="207.1068" y="-216.8" font-family="Lato" font-size="14.00" fill="#000000">Marco de dos</text>
</g>
<g id="clust3" class="cluster">
<title>cluster3</title>
<polygon fill="#ffffff" stroke="#000000" points="212,-240 212,-315 316,-315 316,-240 212,-240"/>
<text text-anchor="middle" x="264" y="-299.8" font-family="Lato" font-size="14.00" fill="#000000">Marco de tres</text>
</g>
<g id="clust4" class="cluster">
<title>cluster0</title>
<polygon fill="#ffffff" stroke="#000000" points="336,-153 336,-232 482.4273,-232 482.4273,-153 336,-153"/>
<text text-anchor="middle" x="409.2136" y="-216.8" font-family="Lato" font-size="14.00" fill="#000000">Marco global</text>
</g>
<!-- pila -->
<g id="node1" class="node">
<title>pila</title>
<polygon fill="#ffffff" stroke="#000000" points="40,-148 40,-214 94,-214 94,-148 40,-148"/>
<text text-anchor="middle" x="67" y="-199.6" font-family="Lato" font-size="13.00" fill="#000000">Tres</text>
<polyline fill="none" stroke="#000000" points="40,-192 94,-192 "/>
<text text-anchor="middle" x="67" y="-177.6" font-family="Lato" font-size="13.00" fill="#000000">Dos</text>
<polyline fill="none" stroke="#000000" points="40,-170 94,-170 "/>
<text text-anchor="middle" x="67" y="-155.6" font-family="Lato" font-size="13.00" fill="#000000">Uno</text>
<text text-anchor="middle" x="20" y="-137.1" font-family="Lato" font-size="13.00" fill="#000000">Pila de</text>
<text text-anchor="middle" x="20" y="-123.1" font-family="Lato" font-size="13.00" fill="#000000">control</text>
</g>
<!-- x -->
<g id="node4" class="node">
<title>x</title>
<polygon fill="transparent" stroke="transparent" points="184,-113 130,-113 130,-77 184,-77 184,-113"/>
<text text-anchor="middle" x="157" y="-91.6" font-family="monospace" font-size="13.00" fill="#000000">x</text>
</g>
<!-- pila&#45;&gt;x -->
<g id="edge6" class="edge">
<title>pila:f1&#45;&gt;x</title>
<path fill="none" stroke="#000000" d="M94,-159C102.6688,-159 110.5439,-155.981 117.5611,-151.2544"/>
<polygon fill="#000000" stroke="#000000" points="119.7664,-153.9724 125.4008,-145 115.4009,-148.5005 119.7664,-153.9724"/>
</g>
<!-- y -->
<g id="node7" class="node">
<title>y</title>
<polygon fill="transparent" stroke="transparent" points="184,-199 130,-199 130,-163 184,-163 184,-199"/>
<text text-anchor="middle" x="157" y="-177.6" font-family="monospace" font-size="13.00" fill="#000000">y</text>
</g>
<!-- pila&#45;&gt;y -->
<g id="edge7" class="edge">
<title>pila:f2&#45;&gt;y</title>
<path fill="none" stroke="#000000" d="M94,-181C102.2288,-181 111.0621,-181 119.434,-181"/>
<polygon fill="#000000" stroke="#000000" points="112.0001,-184.5004 122,-181 111.9999,-177.5004 112.0001,-184.5004"/>
</g>
<!-- w -->
<g id="node8" class="node">
<title>w</title>
<polygon fill="transparent" stroke="transparent" points="291,-284 237,-284 237,-248 291,-248 291,-284"/>
</g>
<!-- pila&#45;&gt;w -->
<g id="edge8" class="edge">
<title>pila:f3&#45;&gt;w</title>
<path fill="none" stroke="#000000" d="M94,-203C113.2347,-203 105.4794,-226.1488 122,-236 145.9514,-250.2822 175.7332,-257.8224 201.8277,-261.7808"/>
<polygon fill="#000000" stroke="#000000" points="201.6196,-265.2849 212.0022,-263.1751 202.5701,-258.3497 201.6196,-265.2849"/>
</g>
<!-- 30 -->
<g id="node2" class="node">
<title>30</title>
<ellipse fill="#ffffff" stroke="#000000" cx="264" cy="-94" rx="20.4296" ry="20.4296"/>
<text text-anchor="middle" x="264" y="-90.6" font-family="monospace" font-size="13.00" fill="#000000">30</text>
</g>
<!-- g -->
<g id="node10" class="node">
<title>g</title>
<polygon fill="transparent" stroke="transparent" points="398,-199 344,-199 344,-163 398,-163 398,-199"/>
<text text-anchor="middle" x="371" y="-177.6" font-family="monospace" font-size="13.00" fill="#000000">g</text>
</g>
<!-- 30&#45;&gt;g -->
<g id="edge5" class="edge">
<title>30&#45;&gt;g</title>
<path fill="none" stroke="#000000" d="M292.2115,-116.9384C303.4039,-126.0387 316.5141,-136.6984 328.7928,-146.682"/>
<polygon fill="#000000" stroke="#000000" points="326.5997,-149.4098 336.5667,-153.0028 331.0158,-143.9785 326.5997,-149.4098"/>
</g>
<!-- sesenta1 -->
<g id="node3" class="node">
<title>sesenta1</title>
<ellipse fill="#ffffff" stroke="#000000" cx="264" cy="-36" rx="20.4296" ry="20.4296"/>
<text text-anchor="middle" x="264" y="-32.6" font-family="monospace" font-size="13.00" fill="#000000">60</text>
</g>
<!-- x&#45;&gt;30 -->
<g id="edge1" class="edge">
<title>x&#45;&gt;30</title>
<path fill="none" stroke="#000000" d="M184.0006,-94.7477C199.0912,-94.6066 217.9449,-94.4304 233.5584,-94.2845"/>
<polygon fill="#000000" stroke="#000000" points="233.7972,-97.7825 243.7641,-94.1891 233.7318,-90.7828 233.7972,-97.7825"/>
</g>
<!-- u -->
<g id="node5" class="node">
<title>u</title>
<polygon fill="transparent" stroke="transparent" points="184,-54 130,-54 130,-18 184,-18 184,-54"/>
<text text-anchor="middle" x="157" y="-32.6" font-family="monospace" font-size="13.00" fill="#000000">u</text>
</g>
<!-- u&#45;&gt;sesenta1 -->
<g id="edge2" class="edge">
<title>u&#45;&gt;sesenta1</title>
<path fill="none" stroke="#000000" d="M184.0006,-36C199.0912,-36 217.9449,-36 233.5584,-36"/>
<polygon fill="#000000" stroke="#000000" points="233.7641,-39.5001 243.7641,-36 233.764,-32.5001 233.7641,-39.5001"/>
</g>
<!-- sesenta2 -->
<g id="node6" class="node">
<title>sesenta2</title>
<ellipse fill="#ffffff" stroke="#000000" cx="264" cy="-181" rx="20.4296" ry="20.4296"/>
<text text-anchor="middle" x="264" y="-177.6" font-family="monospace" font-size="13.00" fill="#000000">60</text>
</g>
<!-- sesenta2&#45;&gt;g -->
<g id="edge9" class="edge">
<title>sesenta2&#45;&gt;g</title>
<path fill="none" stroke="#000000" d="M292.2115,-181C304.812,-181 319.8434,-181 333.3824,-181"/>
<polygon fill="#000000" stroke="#000000" points="326.0001,-184.5004 336,-181 325.9999,-177.5004 326.0001,-184.5004"/>
</g>
<!-- y&#45;&gt;sesenta2 -->
<g id="edge3" class="edge">
<title>y&#45;&gt;sesenta2</title>
<path fill="none" stroke="#000000" d="M184.0006,-181C199.0912,-181 217.9449,-181 233.5584,-181"/>
<polygon fill="#000000" stroke="#000000" points="233.7641,-184.5001 243.7641,-181 233.764,-177.5001 233.7641,-184.5001"/>
</g>
<!-- w&#45;&gt;g -->
<g id="edge10" class="edge">
<title>w&#45;&gt;g</title>
<path fill="none" stroke="#000000" d="M310.5271,-240.0034C312.4029,-238.6905 314.235,-237.3539 316,-236 320.1437,-232.8215 324.2906,-229.3482 328.3452,-225.7416"/>
<polygon fill="#000000" stroke="#000000" points="331.0216,-228.0347 336.0035,-218.6842 326.2779,-222.8871 331.0216,-228.0347"/>
</g>
<!-- 25 -->
<g id="node9" class="node">
<title>25</title>
<ellipse fill="#ffffff" stroke="#000000" cx="454.2136" cy="-181" rx="20.4296" ry="20.4296"/>
<text text-anchor="middle" x="454.2136" y="-177.6" font-family="monospace" font-size="13.00" fill="#000000">25</text>
</g>
<!-- g&#45;&gt;25 -->
<g id="edge4" class="edge">
<title>g&#45;&gt;25</title>
<path fill="none" stroke="#000000" d="M398.2473,-181C406.3793,-181 415.3454,-181 423.6736,-181"/>
<polygon fill="#000000" stroke="#000000" points="423.7707,-184.5001 433.7707,-181 423.7707,-177.5001 423.7707,-184.5001"/>
</g>
</g>
</svg>
