<?xml version="1.0" encoding="UTF-8" standalone="no"?>
<!DOCTYPE svg PUBLIC "-//W3C//DTD SVG 1.1//EN"
 "http://www.w3.org/Graphics/SVG/1.1/DTD/svg11.dtd">
<!-- Generated by graphviz version 2.42.4 (0)
 -->
<!-- Pages: 1 -->
<svg width="251pt" height="603pt"
 viewBox="0.00 0.00 251.43 603.00" xmlns="http://www.w3.org/2000/svg" xmlns:xlink="http://www.w3.org/1999/xlink">
<g id="graph0" class="graph" transform="scale(1 1) rotate(0) translate(4 599)">
<g id="clust1" class="cluster">
<title>cluster9</title>
<polygon fill="#f2f2f2" stroke="black" points="47.5,-8 47.5,-587 175.5,-587 175.5,-8 47.5,-8"/>
<text text-anchor="middle" x="111.5" y="-571.8" font-family="Lato" font-size="14.00">Pila de control</text>
</g>
<g id="clust2" class="cluster">
<title>cluster3</title>
<polygon fill="white" stroke="black" points="55.5,-481 55.5,-556 167.5,-556 167.5,-481 55.5,-481"/>
<text text-anchor="start" x="63.5" y="-541.8" font-family="Lato" font-size="14.00">Marco de </text>
<text text-anchor="start" x="125.5" y="-541.8" font-family="monospace" font-size="14.00">tres</text>
</g>
<g id="clust3" class="cluster">
<title>cluster2</title>
<polygon fill="white" stroke="black" points="60.5,-344 60.5,-473 163.5,-473 163.5,-344 60.5,-344"/>
<text text-anchor="start" x="68.5" y="-458.8" font-family="Lato" font-size="14.00">Marco de </text>
<text text-anchor="start" x="130.5" y="-458.8" font-family="monospace" font-size="14.00">dos</text>
</g>
<g id="clust4" class="cluster">
<title>cluster1</title>
<polygon fill="white" stroke="black" points="60.5,-261 60.5,-336 163.5,-336 163.5,-261 60.5,-261"/>
<text text-anchor="start" x="68.5" y="-321.8" font-family="Lato" font-size="14.00">Marco de </text>
<text text-anchor="start" x="130.5" y="-321.8" font-family="monospace" font-size="14.00">uno</text>
</g>
<g id="clust5" class="cluster">
<title>cluster0</title>
<polygon fill="white" stroke="black" points="64,-16 64,-253 159,-253 159,-16 64,-16"/>
<text text-anchor="middle" x="111.5" y="-237.8" font-family="Lato" font-size="14.00">Marco global</text>
</g>
<!-- 1 -->
<g id="node1" class="node">
<title>1</title>
<ellipse fill="white" stroke="black" cx="223.21" cy="-204" rx="18" ry="18"/>
<text text-anchor="middle" x="223.21" y="-200.6" font-family="monospace" font-size="13.00">1</text>
</g>
<!-- 3 -->
<g id="node2" class="node">
<title>3</title>
<ellipse fill="white" stroke="black" cx="223.21" cy="-287" rx="18" ry="18"/>
<text text-anchor="middle" x="223.21" y="-283.6" font-family="monospace" font-size="13.00">3</text>
</g>
<!-- 11 -->
<g id="node3" class="node">
<title>11</title>
<ellipse fill="white" stroke="black" cx="223.21" cy="-507" rx="20.43" ry="20.43"/>
<text text-anchor="middle" x="223.21" y="-503.6" font-family="monospace" font-size="13.00">11</text>
</g>
<!-- 6 -->
<g id="node4" class="node">
<title>6</title>
<ellipse fill="white" stroke="black" cx="223.21" cy="-424" rx="18" ry="18"/>
<text text-anchor="middle" x="223.21" y="-420.6" font-family="monospace" font-size="13.00">6</text>
</g>
<!-- 4 -->
<g id="node5" class="node">
<title>4</title>
<ellipse fill="white" stroke="black" cx="223.21" cy="-370" rx="18" ry="18"/>
<text text-anchor="middle" x="223.21" y="-366.6" font-family="monospace" font-size="13.00">4</text>
</g>
<!-- l1 -->
<g id="node6" class="node">
<title>l1</title>
<ellipse fill="white" stroke="black" cx="223.21" cy="-150" rx="18" ry="18"/>
<text text-anchor="middle" x="223.21" y="-146.6" font-family="monospace" font-size="13.00">λ</text>
</g>
<!-- l2 -->
<g id="node7" class="node">
<title>l2</title>
<ellipse fill="white" stroke="black" cx="223.21" cy="-96" rx="18" ry="18"/>
<text text-anchor="middle" x="223.21" y="-92.6" font-family="monospace" font-size="13.00">λ</text>
</g>
<!-- l3 -->
<g id="node8" class="node">
<title>l3</title>
<ellipse fill="white" stroke="black" cx="223.21" cy="-42" rx="18" ry="18"/>
<text text-anchor="middle" x="223.21" y="-38.6" font-family="monospace" font-size="13.00">λ</text>
</g>
<!-- w -->
<g id="node9" class="node">
<title>w</title>
<polygon fill="transparent" stroke="transparent" points="123.5,-525 99.5,-525 99.5,-489 123.5,-489 123.5,-525"/>
<text text-anchor="middle" x="111.5" y="-503.6" font-family="monospace" font-size="13.00">w</text>
</g>
<!-- w&#45;&gt;11 -->
<g id="edge6" class="edge">
<title>w&#45;&gt;11</title>
<path fill="none" stroke="black" d="M123.83,-507C139.9,-507 169.88,-507 192.54,-507"/>
<polygon fill="black" stroke="black" points="192.67,-510.5 202.67,-507 192.67,-503.5 192.67,-510.5"/>
</g>
<!-- uno -->
<g id="node14" class="node">
<title>uno</title>
<polygon fill="transparent" stroke="transparent" points="131,-168 92,-168 92,-132 131,-132 131,-168"/>
<text text-anchor="middle" x="111.5" y="-146.6" font-family="monospace" font-size="13.00">uno</text>
</g>
<!-- w&#45;&gt;uno -->
<g id="edge11" class="edge">
<title>w&#45;&gt;uno</title>
<path fill="none" stroke="black" d="M55.5,-489.28C46.93,-483.91 39.39,-476.96 34.75,-468 20.33,-440.18 20.33,-213.82 34.75,-186 39.25,-177.32 46.57,-170.73 54.95,-165.72"/>
<polygon fill="black" stroke="black" points="56.72,-168.74 64,-161.04 53.51,-162.52 56.72,-168.74"/>
</g>
<!-- y -->
<g id="node10" class="node">
<title>y</title>
<polygon fill="transparent" stroke="transparent" points="123.5,-442 99.5,-442 99.5,-406 123.5,-406 123.5,-442"/>
<text text-anchor="middle" x="111.5" y="-420.6" font-family="monospace" font-size="13.00">y</text>
</g>
<!-- y&#45;&gt;6 -->
<g id="edge7" class="edge">
<title>y&#45;&gt;6</title>
<path fill="none" stroke="black" d="M123.83,-424C140.47,-424 172.01,-424 194.91,-424"/>
<polygon fill="black" stroke="black" points="195.04,-427.5 205.04,-424 195.04,-420.5 195.04,-427.5"/>
</g>
<!-- g -->
<g id="node13" class="node">
<title>g</title>
<polygon fill="transparent" stroke="transparent" points="123.5,-222 99.5,-222 99.5,-186 123.5,-186 123.5,-222"/>
<text text-anchor="middle" x="111.5" y="-200.6" font-family="monospace" font-size="13.00">g</text>
</g>
<!-- y&#45;&gt;g -->
<g id="edge10" class="edge">
<title>y&#45;&gt;g</title>
<path fill="none" stroke="black" d="M60.5,-411.31C49.86,-406.02 40.21,-398.54 34.75,-388 22.28,-363.93 23.06,-290.46 34.75,-266 39.76,-255.51 47.5,-246.23 56.18,-238.25"/>
<polygon fill="black" stroke="black" points="58.67,-240.73 64,-231.58 54.13,-235.4 58.67,-240.73"/>
</g>
<!-- z -->
<g id="node11" class="node">
<title>z</title>
<polygon fill="transparent" stroke="transparent" points="123.5,-388 99.5,-388 99.5,-352 123.5,-352 123.5,-388"/>
<text text-anchor="middle" x="111.5" y="-366.6" font-family="monospace" font-size="13.00">z</text>
</g>
<!-- z&#45;&gt;4 -->
<g id="edge8" class="edge">
<title>z&#45;&gt;4</title>
<path fill="none" stroke="black" d="M123.83,-370C140.47,-370 172.01,-370 194.91,-370"/>
<polygon fill="black" stroke="black" points="195.04,-373.5 205.04,-370 195.04,-366.5 195.04,-373.5"/>
</g>
<!-- x -->
<g id="node12" class="node">
<title>x</title>
<polygon fill="transparent" stroke="transparent" points="123.5,-305 99.5,-305 99.5,-269 123.5,-269 123.5,-305"/>
<text text-anchor="middle" x="111.5" y="-283.6" font-family="monospace" font-size="13.00">x</text>
</g>
<!-- x&#45;&gt;3 -->
<g id="edge5" class="edge">
<title>x&#45;&gt;3</title>
<path fill="none" stroke="black" d="M123.83,-287C140.47,-287 172.01,-287 194.91,-287"/>
<polygon fill="black" stroke="black" points="195.04,-290.5 205.04,-287 195.04,-283.5 195.04,-290.5"/>
</g>
<!-- dos -->
<g id="node15" class="node">
<title>dos</title>
<polygon fill="transparent" stroke="transparent" points="131,-114 92,-114 92,-78 131,-78 131,-114"/>
<text text-anchor="middle" x="111.5" y="-92.6" font-family="monospace" font-size="13.00">dos</text>
</g>
<!-- x&#45;&gt;dos -->
<g id="edge9" class="edge">
<title>x&#45;&gt;dos</title>
<path fill="none" stroke="black" d="M60.5,-272.18C49.9,-266.48 40.28,-258.67 34.75,-248 22.89,-225.11 22.89,-154.89 34.75,-132 39.25,-123.32 46.57,-116.73 54.95,-111.72"/>
<polygon fill="black" stroke="black" points="56.72,-114.74 64,-107.04 53.51,-108.52 56.72,-114.74"/>
</g>
<!-- g&#45;&gt;1 -->
<g id="edge4" class="edge">
<title>g&#45;&gt;1</title>
<path fill="none" stroke="black" d="M123.83,-204C140.47,-204 172.01,-204 194.91,-204"/>
<polygon fill="black" stroke="black" points="195.04,-207.5 205.04,-204 195.04,-200.5 195.04,-207.5"/>
</g>
<!-- uno&#45;&gt;l1 -->
<g id="edge1" class="edge">
<title>uno&#45;&gt;l1</title>
<path fill="none" stroke="black" d="M131.11,-150C148.63,-150 175.07,-150 194.96,-150"/>
<polygon fill="black" stroke="black" points="194.96,-153.5 204.96,-150 194.96,-146.5 194.96,-153.5"/>
</g>
<!-- dos&#45;&gt;l2 -->
<g id="edge2" class="edge">
<title>dos&#45;&gt;l2</title>
<path fill="none" stroke="black" d="M131.11,-96C148.63,-96 175.07,-96 194.96,-96"/>
<polygon fill="black" stroke="black" points="194.96,-99.5 204.96,-96 194.96,-92.5 194.96,-99.5"/>
</g>
<!-- tres -->
<g id="node16" class="node">
<title>tres</title>
<polygon fill="transparent" stroke="transparent" points="135,-60 88,-60 88,-24 135,-24 135,-60"/>
<text text-anchor="middle" x="111.5" y="-38.6" font-family="monospace" font-size="13.00">tres</text>
</g>
<!-- tres&#45;&gt;l3 -->
<g id="edge3" class="edge">
<title>tres&#45;&gt;l3</title>
<path fill="none" stroke="black" d="M135.23,-42C152.55,-42 176.45,-42 194.82,-42"/>
<polygon fill="black" stroke="black" points="194.91,-45.5 204.91,-42 194.91,-38.5 194.91,-45.5"/>
</g>
<!-- E -->
<g id="node17" class="node">
<title>E</title>
<polygon fill="transparent" stroke="transparent" points="22,-525 0,-525 0,-489 22,-489 22,-525"/>
<text text-anchor="middle" x="11" y="-503.6" font-family="monospace" font-size="13.00">E</text>
</g>
<!-- E&#45;&gt;w -->
<g id="edge12" class="edge">
<title>E&#45;&gt;w</title>
<path fill="none" stroke="black" d="M22.17,-507C28.21,-507 36.44,-507 45.47,-507"/>
<polygon fill="black" stroke="black" points="45.5,-510.5 55.5,-507 45.5,-503.5 45.5,-510.5"/>
</g>
</g>
</svg>
