<?xml version="1.0" encoding="UTF-8" standalone="no"?>
<!DOCTYPE svg PUBLIC "-//W3C//DTD SVG 1.1//EN"
 "http://www.w3.org/Graphics/SVG/1.1/DTD/svg11.dtd">
<!-- Generated by graphviz version 14.1.1 (0)
 -->
<!-- Pages: 1 -->
<svg width="302pt" height="439pt"
 viewBox="0.00 0.00 302.00 439.00" xmlns="http://www.w3.org/2000/svg" xmlns:xlink="http://www.w3.org/1999/xlink">
<g id="graph0" class="graph" transform="scale(1 1) rotate(0) translate(4 435)">
<g id="clust1" class="cluster">
<title>cluster9</title>
<polygon fill="#f2f2f2" stroke="black" points="64.4,-8 64.4,-423 215.65,-423 215.65,-8 64.4,-8"/>
<text xml:space="preserve" text-anchor="middle" x="140.02" y="-405.7" font-family="Lato" font-size="14.00">Pila de control</text>
</g>
<g id="clust2" class="cluster">
<title>cluster1</title>
<polygon fill="white" stroke="black" points="72.4,-313 72.4,-390 207.65,-390 207.65,-313 72.4,-313"/>
<text xml:space="preserve" text-anchor="start" x="80.4" y="-373.7" font-family="Lato" font-size="14.00">Marco de </text>
<text xml:space="preserve" text-anchor="start" x="141.9" y="-373.7" font-family="monospace" font-size="14.00">fact(4)</text>
</g>
<g id="clust3" class="cluster">
<title>cluster2</title>
<polygon fill="white" stroke="black" points="72.4,-228 72.4,-305 207.65,-305 207.65,-228 72.4,-228"/>
<text xml:space="preserve" text-anchor="start" x="80.4" y="-288.7" font-family="Lato" font-size="14.00">Marco de </text>
<text xml:space="preserve" text-anchor="start" x="141.9" y="-288.7" font-family="monospace" font-size="14.00">fact(3)</text>
</g>
<g id="clust4" class="cluster">
<title>cluster3</title>
<polygon fill="white" stroke="black" points="72.4,-101 72.4,-220 207.65,-220 207.65,-101 72.4,-101"/>
<text xml:space="preserve" text-anchor="start" x="80.4" y="-203.7" font-family="Lato" font-size="14.00">Marco de </text>
<text xml:space="preserve" text-anchor="start" x="141.9" y="-203.7" font-family="monospace" font-size="14.00">fact(2)</text>
</g>
<g id="clust5" class="cluster">
<title>cluster0</title>
<polygon fill="white" stroke="black" points="73.9,-16 73.9,-93 206.15,-93 206.15,-16 73.9,-16"/>
<text xml:space="preserve" text-anchor="middle" x="140.02" y="-75.7" font-family="Lato" font-size="14.00"> &#160;&#160;&#160;&#160;Marco global &#160;&#160;&#160;&#160;</text>
</g>
<!-- n4 -->
<g id="node1" class="node">
<title>n4</title>
<polygon fill="none" stroke="none" points="151.27,-357 127.77,-357 127.77,-321 151.27,-321 151.27,-357"/>
<text xml:space="preserve" text-anchor="middle" x="139.52" y="-334.9" font-family="monospace" font-size="13.00">n</text>
</g>
<!-- fact -->
<g id="node5" class="node">
<title>fact</title>
<polygon fill="none" stroke="none" points="166.52,-60 112.52,-60 112.52,-24 166.52,-24 166.52,-60"/>
<text xml:space="preserve" text-anchor="middle" x="139.52" y="-37.9" font-family="monospace" font-size="13.00">fact</text>
</g>
<!-- n4&#45;&gt;fact -->
<g id="edge5" class="edge">
<title>n4&#45;&gt;fact</title>
<path fill="none" stroke="black" d="M72.4,-324.09C60.81,-318.46 50.23,-310.69 43.15,-300 19.34,-264.06 22.77,-143.99 43.15,-106 48.51,-96.02 56.18,-87.32 64.89,-79.84"/>
<polygon fill="black" stroke="black" points="67.01,-82.62 72.71,-73.69 62.69,-77.12 67.01,-82.62"/>
</g>
<!-- 4 -->
<g id="node6" class="node">
<title>4</title>
<ellipse fill="white" stroke="black" cx="276.15" cy="-339" rx="18" ry="18"/>
<text xml:space="preserve" text-anchor="middle" x="276.15" y="-334.9" font-family="monospace" font-size="13.00">4</text>
</g>
<!-- n4&#45;&gt;4 -->
<g id="edge1" class="edge">
<title>n4&#45;&gt;4</title>
<path fill="none" stroke="black" d="M151.09,-339C171.46,-339 216.81,-339 246.67,-339"/>
<polygon fill="black" stroke="black" points="246.51,-342.5 256.51,-339 246.51,-335.5 246.51,-342.5"/>
</g>
<!-- n3 -->
<g id="node2" class="node">
<title>n3</title>
<polygon fill="none" stroke="none" points="151.27,-272 127.77,-272 127.77,-236 151.27,-236 151.27,-272"/>
<text xml:space="preserve" text-anchor="middle" x="139.52" y="-249.9" font-family="monospace" font-size="13.00">n</text>
</g>
<!-- n3&#45;&gt;fact -->
<g id="edge6" class="edge">
<title>n3&#45;&gt;fact</title>
<path fill="none" stroke="black" d="M72.4,-239.09C60.81,-233.46 50.23,-225.69 43.15,-215 16.4,-174.61 20.25,-148.69 43.15,-106 48.51,-96.02 56.18,-87.32 64.89,-79.84"/>
<polygon fill="black" stroke="black" points="67.01,-82.62 72.71,-73.69 62.69,-77.12 67.01,-82.62"/>
</g>
<!-- 3 -->
<g id="node7" class="node">
<title>3</title>
<ellipse fill="white" stroke="black" cx="276.15" cy="-254" rx="18" ry="18"/>
<text xml:space="preserve" text-anchor="middle" x="276.15" y="-249.9" font-family="monospace" font-size="13.00">3</text>
</g>
<!-- n3&#45;&gt;3 -->
<g id="edge2" class="edge">
<title>n3&#45;&gt;3</title>
<path fill="none" stroke="black" d="M151.09,-254C171.46,-254 216.81,-254 246.67,-254"/>
<polygon fill="black" stroke="black" points="246.51,-257.5 256.51,-254 246.51,-250.5 246.51,-257.5"/>
</g>
<!-- n2_gate -->
<!-- n2 -->
<g id="node4" class="node">
<title>n2</title>
<polygon fill="none" stroke="none" points="151.27,-187 127.77,-187 127.77,-151 151.27,-151 151.27,-187"/>
<text xml:space="preserve" text-anchor="middle" x="139.52" y="-164.9" font-family="monospace" font-size="13.00">n</text>
</g>
<!-- n2&#45;&gt;fact -->
<g id="edge7" class="edge">
<title>n2&#45;&gt;fact</title>
<path fill="none" stroke="black" d="M72.4,-156.4C60.78,-151.11 50.18,-143.62 43.15,-133 29.81,-112.86 43.62,-93.93 64.55,-78.61"/>
<polygon fill="black" stroke="black" points="66.34,-81.63 72.65,-73.13 62.41,-75.84 66.34,-81.63"/>
</g>
<!-- 2 -->
<g id="node8" class="node">
<title>2</title>
<ellipse fill="white" stroke="black" cx="276.15" cy="-169" rx="18" ry="18"/>
<text xml:space="preserve" text-anchor="middle" x="276.15" y="-164.9" font-family="monospace" font-size="13.00">2</text>
</g>
<!-- n2&#45;&gt;2 -->
<g id="edge3" class="edge">
<title>n2&#45;&gt;2</title>
<path fill="none" stroke="black" d="M151.09,-169C171.46,-169 216.81,-169 246.67,-169"/>
<polygon fill="black" stroke="black" points="246.51,-172.5 256.51,-169 246.51,-165.5 246.51,-172.5"/>
</g>
<!-- lambda -->
<g id="node9" class="node">
<title>lambda</title>
<ellipse fill="white" stroke="black" cx="276.15" cy="-42" rx="18" ry="18"/>
<text xml:space="preserve" text-anchor="middle" x="276.15" y="-37.9" font-family="monospace" font-size="13.00">λ</text>
</g>
<!-- fact&#45;&gt;lambda -->
<g id="edge4" class="edge">
<title>fact&#45;&gt;lambda</title>
<path fill="none" stroke="black" d="M166.48,-42C189.39,-42 222.72,-42 246.42,-42"/>
<polygon fill="black" stroke="black" points="246.31,-45.5 256.31,-42 246.31,-38.5 246.31,-45.5"/>
</g>
<!-- E -->
<g id="node10" class="node">
<title>E</title>
<polygon fill="none" stroke="none" points="21.9,-357 0,-357 0,-321 21.9,-321 21.9,-357"/>
<text xml:space="preserve" text-anchor="middle" x="10.95" y="-334.9" font-family="monospace" font-size="13.00">E</text>
</g>
<!-- E&#45;&gt;n4 -->
<g id="edge8" class="edge">
<title>E&#45;&gt;n4</title>
<path fill="none" stroke="black" d="M21.88,-339C30.96,-339 45.32,-339 60.9,-339"/>
<polygon fill="black" stroke="black" points="60.89,-342.5 70.89,-339 60.89,-335.5 60.89,-342.5"/>
</g>
</g>
</svg>
