<?xml version="1.0" encoding="UTF-8" standalone="no"?>
<!DOCTYPE svg PUBLIC "-//W3C//DTD SVG 1.1//EN"
 "http://www.w3.org/Graphics/SVG/1.1/DTD/svg11.dtd">
<!-- Generated by graphviz version 14.0.5 (0)
 -->
<!-- Pages: 1 -->
<svg width="744pt" height="44pt"
 viewBox="0.00 0.00 744.00 44.00" xmlns="http://www.w3.org/2000/svg" xmlns:xlink="http://www.w3.org/1999/xlink">
<g id="graph0" class="graph" transform="scale(1 1) rotate(0) translate(4 40)">
<!-- range(n + 1) -->
<g id="node1" class="node">
<title>range(n + 1)</title>
<polygon fill="white" stroke="black" points="109,-36 0,-36 0,0 109,0 109,-36"/>
<text xml:space="preserve" text-anchor="middle" x="54.5" y="-13.45" font-family="monospace" font-size="13.00">range(n + 1)</text>
</g>
<!-- filter(lambda x: x % 2 == 0) -->
<g id="node2" class="node">
<title>filter(lambda x: x % 2 == 0)</title>
<polygon fill="white" stroke="black" points="381,-36 145,-36 145,0 381,0 381,-36"/>
<text xml:space="preserve" text-anchor="middle" x="263" y="-13.45" font-family="monospace" font-size="13.00">filter(lambda x: x % 2 == 0)</text>
</g>
<!-- range(n + 1)&#45;&gt;filter(lambda x: x % 2 == 0) -->
<g id="edge1" class="edge">
<title>range(n + 1)&#45;&gt;filter(lambda x: x % 2 == 0)</title>
<path fill="none" stroke="black" d="M109.49,-18C117.04,-18 125.06,-18 133.31,-18"/>
<polygon fill="black" stroke="black" points="133.17,-21.5 143.17,-18 133.17,-14.5 133.17,-21.5"/>
</g>
<!-- map(lambda x: x ** 2) -->
<g id="node3" class="node">
<title>map(lambda x: x ** 2)</title>
<polygon fill="white" stroke="black" points="599,-36 417,-36 417,0 599,0 599,-36"/>
<text xml:space="preserve" text-anchor="middle" x="508" y="-13.45" font-family="monospace" font-size="13.00">map(lambda x: x ** 2)</text>
</g>
<!-- filter(lambda x: x % 2 == 0)&#45;&gt;map(lambda x: x ** 2) -->
<g id="edge2" class="edge">
<title>filter(lambda x: x % 2 == 0)&#45;&gt;map(lambda x: x ** 2)</title>
<path fill="none" stroke="black" d="M381.23,-18C389.22,-18 397.24,-18 405.14,-18"/>
<polygon fill="black" stroke="black" points="405.1,-21.5 415.1,-18 405.1,-14.5 405.1,-21.5"/>
</g>
<!-- reduce(add) -->
<g id="node4" class="node">
<title>reduce(add)</title>
<polygon fill="white" stroke="black" points="736,-36 635,-36 635,0 736,0 736,-36"/>
<text xml:space="preserve" text-anchor="middle" x="685.5" y="-13.45" font-family="monospace" font-size="13.00">reduce(add)</text>
</g>
<!-- map(lambda x: x ** 2)&#45;&gt;reduce(add) -->
<g id="edge3" class="edge">
<title>map(lambda x: x ** 2)&#45;&gt;reduce(add)</title>
<path fill="none" stroke="black" d="M599.32,-18C607.56,-18 615.77,-18 623.65,-18"/>
<polygon fill="black" stroke="black" points="623.43,-21.5 633.43,-18 623.43,-14.5 623.43,-21.5"/>
</g>
</g>
</svg>
