<?xml version="1.0" encoding="UTF-8" standalone="no"?>
<!DOCTYPE svg PUBLIC "-//W3C//DTD SVG 1.1//EN"
 "http://www.w3.org/Graphics/SVG/1.1/DTD/svg11.dtd">
<!-- Generated by graphviz version 14.1.1 (0)
 -->
<!-- Pages: 1 -->
<svg width="720pt" height="44pt"
 viewBox="0.00 0.00 720.00 44.00" xmlns="http://www.w3.org/2000/svg" xmlns:xlink="http://www.w3.org/1999/xlink">
<g id="graph0" class="graph" transform="scale(1 1) rotate(0) translate(4 40)">
<!-- range(n + 1) -->
<g id="node1" class="node">
<title>range(n + 1)</title>
<polygon fill="white" stroke="black" points="106,-36 0,-36 0,0 106,0 106,-36"/>
<text xml:space="preserve" text-anchor="middle" x="53" y="-13.9" font-family="monospace" font-size="13.00">range(n + 1)</text>
</g>
<!-- filter(lambda x: x % 2 == 0) -->
<g id="node2" class="node">
<title>filter(lambda x: x % 2 == 0)</title>
<polygon fill="white" stroke="black" points="368,-36 142,-36 142,0 368,0 368,-36"/>
<text xml:space="preserve" text-anchor="middle" x="255" y="-13.9" font-family="monospace" font-size="13.00">filter(lambda x: x % 2 == 0)</text>
</g>
<!-- range(n + 1)&#45;&gt;filter(lambda x: x % 2 == 0) -->
<g id="edge1" class="edge">
<title>range(n + 1)&#45;&gt;filter(lambda x: x % 2 == 0)</title>
<path fill="none" stroke="black" d="M106.29,-18C113.85,-18 121.88,-18 130.15,-18"/>
<polygon fill="black" stroke="black" points="130.02,-21.5 140.02,-18 130.02,-14.5 130.02,-21.5"/>
</g>
<!-- map(lambda x: x ** 2) -->
<g id="node3" class="node">
<title>map(lambda x: x ** 2)</title>
<polygon fill="white" stroke="black" points="577.5,-36 404,-36 404,0 577.5,0 577.5,-36"/>
<text xml:space="preserve" text-anchor="middle" x="490.75" y="-13.9" font-family="monospace" font-size="13.00">map(lambda x: x ** 2)</text>
</g>
<!-- filter(lambda x: x % 2 == 0)&#45;&gt;map(lambda x: x ** 2) -->
<g id="edge2" class="edge">
<title>filter(lambda x: x % 2 == 0)&#45;&gt;map(lambda x: x ** 2)</title>
<path fill="none" stroke="black" d="M368.42,-18C376.36,-18 384.33,-18 392.17,-18"/>
<polygon fill="black" stroke="black" points="392.05,-21.5 402.05,-18 392.05,-14.5 392.05,-21.5"/>
</g>
<!-- reduce(add) -->
<g id="node4" class="node">
<title>reduce(add)</title>
<polygon fill="white" stroke="black" points="712,-36 613.5,-36 613.5,0 712,0 712,-36"/>
<text xml:space="preserve" text-anchor="middle" x="662.75" y="-13.9" font-family="monospace" font-size="13.00">reduce(add)</text>
</g>
<!-- map(lambda x: x ** 2)&#45;&gt;reduce(add) -->
<g id="edge3" class="edge">
<title>map(lambda x: x ** 2)&#45;&gt;reduce(add)</title>
<path fill="none" stroke="black" d="M577.75,-18C585.94,-18 594.11,-18 601.97,-18"/>
<polygon fill="black" stroke="black" points="601.71,-21.5 611.71,-18 601.71,-14.5 601.71,-21.5"/>
</g>
</g>
</svg>
