<?xml version="1.0" encoding="UTF-8" standalone="no"?>
<!DOCTYPE svg PUBLIC "-//W3C//DTD SVG 1.1//EN"
 "http://www.w3.org/Graphics/SVG/1.1/DTD/svg11.dtd">
<!-- Generated by graphviz version 2.42.4 (0)
 -->
<!-- Pages: 1 -->
<svg width="723pt" height="44pt"
 viewBox="0.00 0.00 723.00 44.00" xmlns="http://www.w3.org/2000/svg" xmlns:xlink="http://www.w3.org/1999/xlink">
<g id="graph0" class="graph" transform="scale(1 1) rotate(0) translate(4 40)">
<!-- range(n + 1) -->
<g id="node1" class="node">
<title>range(n + 1)</title>
<polygon fill="white" stroke="black" points="107,-36 0,-36 0,0 107,0 107,-36"/>
<text text-anchor="middle" x="53.5" y="-14.6" font-family="monospace" font-size="13.00">range(n + 1)</text>
</g>
<!-- filter(lambda x: x % 2 == 0) -->
<g id="node2" class="node">
<title>filter(lambda x: x % 2 == 0)</title>
<polygon fill="white" stroke="black" points="370,-36 143,-36 143,0 370,0 370,-36"/>
<text text-anchor="middle" x="256.5" y="-14.6" font-family="monospace" font-size="13.00">filter(lambda x: x % 2 == 0)</text>
</g>
<!-- range(n + 1)&#45;&gt;filter(lambda x: x % 2 == 0) -->
<g id="edge1" class="edge">
<title>range(n + 1)&#45;&gt;filter(lambda x: x % 2 == 0)</title>
<path fill="none" stroke="black" d="M107.05,-18C115.16,-18 123.82,-18 132.72,-18"/>
<polygon fill="black" stroke="black" points="132.86,-21.5 142.86,-18 132.86,-14.5 132.86,-21.5"/>
</g>
<!-- map(lambda x: x ** 2) -->
<g id="node3" class="node">
<title>map(lambda x: x ** 2)</title>
<polygon fill="white" stroke="black" points="580,-36 406,-36 406,0 580,0 580,-36"/>
<text text-anchor="middle" x="493" y="-14.6" font-family="monospace" font-size="13.00">map(lambda x: x ** 2)</text>
</g>
<!-- filter(lambda x: x % 2 == 0)&#45;&gt;map(lambda x: x ** 2) -->
<g id="edge2" class="edge">
<title>filter(lambda x: x % 2 == 0)&#45;&gt;map(lambda x: x ** 2)</title>
<path fill="none" stroke="black" d="M370.29,-18C378.79,-18 387.33,-18 395.73,-18"/>
<polygon fill="black" stroke="black" points="395.88,-21.5 405.88,-18 395.88,-14.5 395.88,-21.5"/>
</g>
<!-- reduce(add) -->
<g id="node4" class="node">
<title>reduce(add)</title>
<polygon fill="white" stroke="black" points="715,-36 616,-36 616,0 715,0 715,-36"/>
<text text-anchor="middle" x="665.5" y="-14.6" font-family="monospace" font-size="13.00">reduce(add)</text>
</g>
<!-- map(lambda x: x ** 2)&#45;&gt;reduce(add) -->
<g id="edge3" class="edge">
<title>map(lambda x: x ** 2)&#45;&gt;reduce(add)</title>
<path fill="none" stroke="black" d="M580.25,-18C588.84,-18 597.43,-18 605.64,-18"/>
<polygon fill="black" stroke="black" points="605.83,-21.5 615.83,-18 605.83,-14.5 605.83,-21.5"/>
</g>
</g>
</svg>
