<?xml version="1.0" encoding="UTF-8" standalone="no"?>
<!DOCTYPE svg PUBLIC "-//W3C//DTD SVG 1.1//EN"
 "http://www.w3.org/Graphics/SVG/1.1/DTD/svg11.dtd">
<!-- Generated by graphviz version 2.42.4 (0)
 -->
<!-- Pages: 1 -->
<svg width="258pt" height="44pt"
 viewBox="0.00 0.00 258.00 44.00" xmlns="http://www.w3.org/2000/svg" xmlns:xlink="http://www.w3.org/1999/xlink">
<g id="graph0" class="graph" transform="scale(1 1) rotate(0) translate(4 40)">
<!-- E -->
<g id="node1" class="node">
<title>E</title>
<polygon fill="transparent" stroke="transparent" points="62,-36 0,-36 0,0 62,0 62,-36"/>
<text text-anchor="middle" x="31" y="-14.6" font-family="Lato" font-size="13.00">Entrada</text>
</g>
<!-- Proceso -->
<g id="node3" class="node">
<title>Proceso</title>
<polygon fill="white" stroke="black" points="160,-36 98,-36 98,0 160,0 160,-36"/>
<text text-anchor="middle" x="129" y="-14.6" font-family="Lato" font-size="13.00">Proceso</text>
</g>
<!-- E&#45;&gt;Proceso -->
<g id="edge1" class="edge">
<title>E&#45;&gt;Proceso</title>
<path fill="none" stroke="black" d="M62.11,-18C70.24,-18 79.17,-18 87.76,-18"/>
<polygon fill="black" stroke="black" points="88,-21.5 98,-18 88,-14.5 88,-21.5"/>
</g>
<!-- S -->
<g id="node2" class="node">
<title>S</title>
<polygon fill="transparent" stroke="transparent" points="250,-36 196,-36 196,0 250,0 250,-36"/>
<text text-anchor="middle" x="223" y="-14.6" font-family="Lato" font-size="13.00">Salida</text>
</g>
<!-- Proceso&#45;&gt;S -->
<g id="edge2" class="edge">
<title>Proceso&#45;&gt;S</title>
<path fill="none" stroke="black" d="M160.12,-18C168.32,-18 177.28,-18 185.78,-18"/>
<polygon fill="black" stroke="black" points="185.83,-21.5 195.83,-18 185.83,-14.5 185.83,-21.5"/>
</g>
</g>
</svg>
