<?xml version="1.0" encoding="UTF-8" standalone="no"?>
<!DOCTYPE svg PUBLIC "-//W3C//DTD SVG 1.1//EN"
 "http://www.w3.org/Graphics/SVG/1.1/DTD/svg11.dtd">
<!-- Generated by graphviz version 2.40.1 (20161225.0304)
 -->
<!-- Title: %3 Pages: 1 -->
<svg width="576pt" height="99pt"
 viewBox="0.00 0.00 576.00 99.39" xmlns="http://www.w3.org/2000/svg" xmlns:xlink="http://www.w3.org/1999/xlink">
<g id="graph0" class="graph" transform="scale(2.2588 2.2588) rotate(0) translate(4 40)">
<title>%3</title>
<!-- E -->
<g id="node1" class="node">
<title>E</title>
<polygon fill="transparent" stroke="transparent" points="59,-36 0,-36 0,0 59,0 59,-36"/>
<text text-anchor="middle" x="29.5" y="-14.6" font-family="Lato" font-size="13.00" fill="#000000">Entrada</text>
</g>
<!-- Proceso -->
<g id="node3" class="node">
<title>Proceso</title>
<polygon fill="#ffffff" stroke="#000000" points="157,-36 95,-36 95,0 157,0 157,-36"/>
<text text-anchor="middle" x="126" y="-14.6" font-family="Lato" font-size="13.00" fill="#000000">Proceso</text>
</g>
<!-- E&#45;&gt;Proceso -->
<g id="edge1" class="edge">
<title>E&#45;&gt;Proceso</title>
<path fill="none" stroke="#000000" d="M59.2406,-18C67.2723,-18 76.1104,-18 84.6538,-18"/>
<polygon fill="#000000" stroke="#000000" points="84.8545,-21.5001 94.8545,-18 84.8545,-14.5001 84.8545,-21.5001"/>
</g>
<!-- S -->
<g id="node2" class="node">
<title>S</title>
<polygon fill="transparent" stroke="transparent" points="247,-36 193,-36 193,0 247,0 247,-36"/>
<text text-anchor="middle" x="220" y="-14.6" font-family="Lato" font-size="13.00" fill="#000000">Salida</text>
</g>
<!-- Proceso&#45;&gt;S -->
<g id="edge2" class="edge">
<title>Proceso&#45;&gt;S</title>
<path fill="none" stroke="#000000" d="M157.0396,-18C165.2517,-18 174.2013,-18 182.7075,-18"/>
<polygon fill="#000000" stroke="#000000" points="182.7837,-21.5001 192.7837,-18 182.7837,-14.5001 182.7837,-21.5001"/>
</g>
</g>
</svg>
