<?xml version="1.0" encoding="UTF-8" standalone="no"?>
<!DOCTYPE svg PUBLIC "-//W3C//DTD SVG 1.1//EN"
 "http://www.w3.org/Graphics/SVG/1.1/DTD/svg11.dtd">
<!-- Generated by graphviz version 14.1.1 (0)
 -->
<!-- Pages: 1 -->
<svg width="453pt" height="44pt"
 viewBox="0.00 0.00 453.00 44.00" xmlns="http://www.w3.org/2000/svg" xmlns:xlink="http://www.w3.org/1999/xlink">
<g id="graph0" class="graph" transform="scale(1 1) rotate(0) translate(4 40)">
<!-- Generación -->
<g id="node1" class="node">
<title>Generación</title>
<polygon fill="white" stroke="black" points="82,-36 0,-36 0,0 82,0 82,-36"/>
<text xml:space="preserve" text-anchor="middle" x="41" y="-13.9" font-family="Lato" font-size="13.00">Generación</text>
</g>
<!-- Filtrado -->
<g id="node2" class="node">
<title>Filtrado</title>
<polygon fill="white" stroke="black" points="178.25,-36 118,-36 118,0 178.25,0 178.25,-36"/>
<text xml:space="preserve" text-anchor="middle" x="148.12" y="-13.9" font-family="Lato" font-size="13.00">Filtrado</text>
</g>
<!-- Generación&#45;&gt;Filtrado -->
<g id="edge1" class="edge">
<title>Generación&#45;&gt;Filtrado</title>
<path fill="none" stroke="black" d="M82.34,-18C90.11,-18 98.25,-18 106.04,-18"/>
<polygon fill="black" stroke="black" points="105.99,-21.5 115.99,-18 105.99,-14.5 105.99,-21.5"/>
</g>
<!-- Transformación -->
<g id="node3" class="node">
<title>Transformación</title>
<polygon fill="white" stroke="black" points="318.75,-36 214.25,-36 214.25,0 318.75,0 318.75,-36"/>
<text xml:space="preserve" text-anchor="middle" x="266.5" y="-13.9" font-family="Lato" font-size="13.00">Transformación</text>
</g>
<!-- Filtrado&#45;&gt;Transformación -->
<g id="edge2" class="edge">
<title>Filtrado&#45;&gt;Transformación</title>
<path fill="none" stroke="black" d="M178.49,-18C185.9,-18 194.14,-18 202.51,-18"/>
<polygon fill="black" stroke="black" points="202.43,-21.5 212.43,-18 202.43,-14.5 202.43,-21.5"/>
</g>
<!-- Acumulación -->
<g id="node4" class="node">
<title>Acumulación</title>
<polygon fill="white" stroke="black" points="445,-36 354.75,-36 354.75,0 445,0 445,-36"/>
<text xml:space="preserve" text-anchor="middle" x="399.88" y="-13.9" font-family="Lato" font-size="13.00">Acumulación</text>
</g>
<!-- Transformación&#45;&gt;Acumulación -->
<g id="edge3" class="edge">
<title>Transformación&#45;&gt;Acumulación</title>
<path fill="none" stroke="black" d="M319.05,-18C326.87,-18 334.98,-18 342.89,-18"/>
<polygon fill="black" stroke="black" points="342.78,-21.5 352.78,-18 342.78,-14.5 342.78,-21.5"/>
</g>
</g>
</svg>
