<?xml version="1.0" encoding="UTF-8" standalone="no"?>
<!DOCTYPE svg PUBLIC "-//W3C//DTD SVG 1.1//EN"
 "http://www.w3.org/Graphics/SVG/1.1/DTD/svg11.dtd">
<!-- Generated by graphviz version 14.0.5 (0)
 -->
<!-- Pages: 1 -->
<svg width="451pt" height="44pt"
 viewBox="0.00 0.00 451.00 44.00" xmlns="http://www.w3.org/2000/svg" xmlns:xlink="http://www.w3.org/1999/xlink">
<g id="graph0" class="graph" transform="scale(1 1) rotate(0) translate(4 40)">
<!-- Generación -->
<g id="node1" class="node">
<title>Generación</title>
<polygon fill="white" stroke="black" points="81,-36 0,-36 0,0 81,0 81,-36"/>
<text xml:space="preserve" text-anchor="middle" x="40.5" y="-13.45" font-family="Lato" font-size="13.00">Generación</text>
</g>
<!-- Filtrado -->
<g id="node2" class="node">
<title>Filtrado</title>
<polygon fill="white" stroke="black" points="177,-36 117,-36 117,0 177,0 177,-36"/>
<text xml:space="preserve" text-anchor="middle" x="147" y="-13.45" font-family="Lato" font-size="13.00">Filtrado</text>
</g>
<!-- Generación&#45;&gt;Filtrado -->
<g id="edge1" class="edge">
<title>Generación&#45;&gt;Filtrado</title>
<path fill="none" stroke="black" d="M81.31,-18C89.21,-18 97.52,-18 105.45,-18"/>
<polygon fill="black" stroke="black" points="105.19,-21.5 115.19,-18 105.19,-14.5 105.19,-21.5"/>
</g>
<!-- Transformación -->
<g id="node3" class="node">
<title>Transformación</title>
<polygon fill="white" stroke="black" points="318,-36 213,-36 213,0 318,0 318,-36"/>
<text xml:space="preserve" text-anchor="middle" x="265.5" y="-13.45" font-family="Lato" font-size="13.00">Transformación</text>
</g>
<!-- Filtrado&#45;&gt;Transformación -->
<g id="edge2" class="edge">
<title>Filtrado&#45;&gt;Transformación</title>
<path fill="none" stroke="black" d="M177.4,-18C184.81,-18 193.06,-18 201.44,-18"/>
<polygon fill="black" stroke="black" points="201.38,-21.5 211.38,-18 201.38,-14.5 201.38,-21.5"/>
</g>
<!-- Acumulación -->
<g id="node4" class="node">
<title>Acumulación</title>
<polygon fill="white" stroke="black" points="443,-36 354,-36 354,0 443,0 443,-36"/>
<text xml:space="preserve" text-anchor="middle" x="398.5" y="-13.45" font-family="Lato" font-size="13.00">Acumulación</text>
</g>
<!-- Transformación&#45;&gt;Acumulación -->
<g id="edge3" class="edge">
<title>Transformación&#45;&gt;Acumulación</title>
<path fill="none" stroke="black" d="M318.27,-18C326.15,-18 334.31,-18 342.26,-18"/>
<polygon fill="black" stroke="black" points="342.19,-21.5 352.19,-18 342.19,-14.5 342.19,-21.5"/>
</g>
</g>
</svg>
