<?xml version="1.0" encoding="UTF-8" standalone="no"?>
<!DOCTYPE svg PUBLIC "-//W3C//DTD SVG 1.1//EN"
 "http://www.w3.org/Graphics/SVG/1.1/DTD/svg11.dtd">
<!-- Generated by graphviz version 14.1.1 (0)
 -->
<!-- Pages: 1 -->
<svg width="346pt" height="44pt"
 viewBox="0.00 0.00 346.00 44.00" xmlns="http://www.w3.org/2000/svg" xmlns:xlink="http://www.w3.org/1999/xlink">
<g id="graph0" class="graph" transform="scale(1 1) rotate(0) translate(4 40)">
<!-- range -->
<g id="node1" class="node">
<title>range</title>
<polygon fill="white" stroke="black" points="54,-36 0,-36 0,0 54,0 54,-36"/>
<text xml:space="preserve" text-anchor="middle" x="27" y="-13.9" font-family="monospace" font-size="13.00">range</text>
</g>
<!-- filter -->
<g id="node2" class="node">
<title>filter</title>
<polygon fill="white" stroke="black" points="151,-36 90,-36 90,0 151,0 151,-36"/>
<text xml:space="preserve" text-anchor="middle" x="120.5" y="-13.9" font-family="monospace" font-size="13.00">filter</text>
</g>
<!-- range&#45;&gt;filter -->
<g id="edge1" class="edge">
<title>range&#45;&gt;filter</title>
<path fill="none" stroke="black" d="M54.47,-18C61.84,-18 70.04,-18 78.05,-18"/>
<polygon fill="black" stroke="black" points="78.04,-21.5 88.04,-18 78.04,-14.5 78.04,-21.5"/>
</g>
<!-- map -->
<g id="node3" class="node">
<title>map</title>
<polygon fill="white" stroke="black" points="241,-36 187,-36 187,0 241,0 241,-36"/>
<text xml:space="preserve" text-anchor="middle" x="214" y="-13.9" font-family="monospace" font-size="13.00">map</text>
</g>
<!-- filter&#45;&gt;map -->
<g id="edge2" class="edge">
<title>filter&#45;&gt;map</title>
<path fill="none" stroke="black" d="M151.46,-18C159.09,-18 167.4,-18 175.36,-18"/>
<polygon fill="black" stroke="black" points="175.16,-21.5 185.16,-18 175.16,-14.5 175.16,-21.5"/>
</g>
<!-- reduce -->
<g id="node4" class="node">
<title>reduce</title>
<polygon fill="white" stroke="black" points="338,-36 277,-36 277,0 338,0 338,-36"/>
<text xml:space="preserve" text-anchor="middle" x="307.5" y="-13.9" font-family="monospace" font-size="13.00">reduce</text>
</g>
<!-- map&#45;&gt;reduce -->
<g id="edge3" class="edge">
<title>map&#45;&gt;reduce</title>
<path fill="none" stroke="black" d="M241.47,-18C248.84,-18 257.04,-18 265.05,-18"/>
<polygon fill="black" stroke="black" points="265.04,-21.5 275.04,-18 265.04,-14.5 265.04,-21.5"/>
</g>
</g>
</svg>
