<?xml version="1.0" encoding="UTF-8" standalone="no"?>
<!DOCTYPE svg PUBLIC "-//W3C//DTD SVG 1.1//EN"
 "http://www.w3.org/Graphics/SVG/1.1/DTD/svg11.dtd">
<!-- Generated by graphviz version 2.42.4 (0)
 -->
<!-- Pages: 1 -->
<svg width="348pt" height="44pt"
 viewBox="0.00 0.00 348.00 44.00" xmlns="http://www.w3.org/2000/svg" xmlns:xlink="http://www.w3.org/1999/xlink">
<g id="graph0" class="graph" transform="scale(1 1) rotate(0) translate(4 40)">
<!-- range -->
<g id="node1" class="node">
<title>range</title>
<polygon fill="white" stroke="black" points="54,-36 0,-36 0,0 54,0 54,-36"/>
<text text-anchor="middle" x="27" y="-14.6" font-family="monospace" font-size="13.00">range</text>
</g>
<!-- filter -->
<g id="node2" class="node">
<title>filter</title>
<polygon fill="white" stroke="black" points="152,-36 90,-36 90,0 152,0 152,-36"/>
<text text-anchor="middle" x="121" y="-14.6" font-family="monospace" font-size="13.00">filter</text>
</g>
<!-- range&#45;&gt;filter -->
<g id="edge1" class="edge">
<title>range&#45;&gt;filter</title>
<path fill="none" stroke="black" d="M54.12,-18C62.14,-18 71.15,-18 79.88,-18"/>
<polygon fill="black" stroke="black" points="79.92,-21.5 89.92,-18 79.92,-14.5 79.92,-21.5"/>
</g>
<!-- map -->
<g id="node3" class="node">
<title>map</title>
<polygon fill="white" stroke="black" points="242,-36 188,-36 188,0 242,0 242,-36"/>
<text text-anchor="middle" x="215" y="-14.6" font-family="monospace" font-size="13.00">map</text>
</g>
<!-- filter&#45;&gt;map -->
<g id="edge2" class="edge">
<title>filter&#45;&gt;map</title>
<path fill="none" stroke="black" d="M152.12,-18C160.32,-18 169.28,-18 177.78,-18"/>
<polygon fill="black" stroke="black" points="177.83,-21.5 187.83,-18 177.83,-14.5 177.83,-21.5"/>
</g>
<!-- reduce -->
<g id="node4" class="node">
<title>reduce</title>
<polygon fill="white" stroke="black" points="340,-36 278,-36 278,0 340,0 340,-36"/>
<text text-anchor="middle" x="309" y="-14.6" font-family="monospace" font-size="13.00">reduce</text>
</g>
<!-- map&#45;&gt;reduce -->
<g id="edge3" class="edge">
<title>map&#45;&gt;reduce</title>
<path fill="none" stroke="black" d="M242.12,-18C250.14,-18 259.15,-18 267.88,-18"/>
<polygon fill="black" stroke="black" points="267.92,-21.5 277.92,-18 267.92,-14.5 267.92,-21.5"/>
</g>
</g>
</svg>
