<?xml version="1.0" encoding="UTF-8" standalone="no"?>
<!DOCTYPE svg PUBLIC "-//W3C//DTD SVG 1.1//EN"
 "http://www.w3.org/Graphics/SVG/1.1/DTD/svg11.dtd">
<!-- Generated by graphviz version 14.1.1 (0)
 -->
<!-- Pages: 1 -->
<svg width="257pt" height="44pt"
 viewBox="0.00 0.00 257.00 44.00" xmlns="http://www.w3.org/2000/svg" xmlns:xlink="http://www.w3.org/1999/xlink">
<g id="graph0" class="graph" transform="scale(1 1) rotate(0) translate(4 40)">
<!-- E -->
<g id="node1" class="node">
<title>E</title>
<polygon fill="none" stroke="none" points="61,-36 0,-36 0,0 61,0 61,-36"/>
<text xml:space="preserve" text-anchor="middle" x="30.5" y="-13.9" font-family="Lato" font-size="13.00">Entrada</text>
</g>
<!-- Proceso -->
<g id="node3" class="node">
<title>Proceso</title>
<polygon fill="white" stroke="black" points="158.75,-36 97,-36 97,0 158.75,0 158.75,-36"/>
<text xml:space="preserve" text-anchor="middle" x="127.88" y="-13.9" font-family="Lato" font-size="13.00">Proceso</text>
</g>
<!-- E&#45;&gt;Proceso -->
<g id="edge1" class="edge">
<title>E&#45;&gt;Proceso</title>
<path fill="none" stroke="black" d="M60.89,-18C68.63,-18 77.13,-18 85.37,-18"/>
<polygon fill="black" stroke="black" points="85.24,-21.5 95.24,-18 85.24,-14.5 85.24,-21.5"/>
</g>
<!-- S -->
<g id="node2" class="node">
<title>S</title>
<polygon fill="none" stroke="none" points="248.75,-36 194.75,-36 194.75,0 248.75,0 248.75,-36"/>
<text xml:space="preserve" text-anchor="middle" x="221.75" y="-13.9" font-family="Lato" font-size="13.00">Salida</text>
</g>
<!-- Proceso&#45;&gt;S -->
<g id="edge2" class="edge">
<title>Proceso&#45;&gt;S</title>
<path fill="none" stroke="black" d="M159.21,-18C166.94,-18 175.33,-18 183.36,-18"/>
<polygon fill="black" stroke="black" points="183.24,-21.5 193.24,-18 183.24,-14.5 183.24,-21.5"/>
</g>
</g>
</svg>
