<?xml version="1.0" encoding="UTF-8" standalone="no"?>
<!DOCTYPE svg PUBLIC "-//W3C//DTD SVG 1.1//EN"
 "http://www.w3.org/Graphics/SVG/1.1/DTD/svg11.dtd">
<!-- Generated by graphviz version 14.0.5 (0)
 -->
<!-- Pages: 1 -->
<svg width="347pt" height="44pt"
 viewBox="0.00 0.00 347.00 44.00" xmlns="http://www.w3.org/2000/svg" xmlns:xlink="http://www.w3.org/1999/xlink">
<g id="graph0" class="graph" transform="scale(1 1) rotate(0) translate(4 40)">
<!-- range -->
<g id="node1" class="node">
<title>range</title>
<polygon fill="white" stroke="black" points="54,-36 0,-36 0,0 54,0 54,-36"/>
<text xml:space="preserve" text-anchor="middle" x="27" y="-13.45" font-family="monospace" font-size="13.00">range</text>
</g>
<!-- filter -->
<g id="node2" class="node">
<title>filter</title>
<polygon fill="white" stroke="black" points="152,-36 90,-36 90,0 152,0 152,-36"/>
<text xml:space="preserve" text-anchor="middle" x="121" y="-13.45" font-family="monospace" font-size="13.00">filter</text>
</g>
<!-- range&#45;&gt;filter -->
<g id="edge1" class="edge">
<title>range&#45;&gt;filter</title>
<path fill="none" stroke="black" d="M54.12,-18C61.63,-18 70.01,-18 78.22,-18"/>
<polygon fill="black" stroke="black" points="78.08,-21.5 88.08,-18 78.08,-14.5 78.08,-21.5"/>
</g>
<!-- map -->
<g id="node3" class="node">
<title>map</title>
<polygon fill="white" stroke="black" points="242,-36 188,-36 188,0 242,0 242,-36"/>
<text xml:space="preserve" text-anchor="middle" x="215" y="-13.45" font-family="monospace" font-size="13.00">map</text>
</g>
<!-- filter&#45;&gt;map -->
<g id="edge2" class="edge">
<title>filter&#45;&gt;map</title>
<path fill="none" stroke="black" d="M152.38,-18C160.05,-18 168.37,-18 176.34,-18"/>
<polygon fill="black" stroke="black" points="176.15,-21.5 186.15,-18 176.15,-14.5 176.15,-21.5"/>
</g>
<!-- reduce -->
<g id="node4" class="node">
<title>reduce</title>
<polygon fill="white" stroke="black" points="339,-36 278,-36 278,0 339,0 339,-36"/>
<text xml:space="preserve" text-anchor="middle" x="308.5" y="-13.45" font-family="monospace" font-size="13.00">reduce</text>
</g>
<!-- map&#45;&gt;reduce -->
<g id="edge3" class="edge">
<title>map&#45;&gt;reduce</title>
<path fill="none" stroke="black" d="M242.47,-18C249.84,-18 258.04,-18 266.05,-18"/>
<polygon fill="black" stroke="black" points="266.04,-21.5 276.04,-18 266.04,-14.5 266.04,-21.5"/>
</g>
</g>
</svg>
