<?xml version="1.0" encoding="UTF-8" standalone="no"?>
<!DOCTYPE svg PUBLIC "-//W3C//DTD SVG 1.1//EN"
 "http://www.w3.org/Graphics/SVG/1.1/DTD/svg11.dtd">
<!-- Generated by graphviz version 2.42.4 (0)
 -->
<!-- Pages: 1 -->
<svg width="422pt" height="44pt"
 viewBox="0.00 0.00 422.00 44.00" xmlns="http://www.w3.org/2000/svg" xmlns:xlink="http://www.w3.org/1999/xlink">
<g id="graph0" class="graph" transform="scale(1 1) rotate(0) translate(4 40)">
<!-- Generación -->
<g id="node1" class="node">
<title>Generación</title>
<polygon fill="white" stroke="black" points="83,-36 0,-36 0,0 83,0 83,-36"/>
<text text-anchor="middle" x="41.5" y="-14.6" font-family="Lato" font-size="13.00">Generación</text>
</g>
<!-- Filtrado -->
<g id="node2" class="node">
<title>Filtrado</title>
<polygon fill="white" stroke="black" points="180,-36 119,-36 119,0 180,0 180,-36"/>
<text text-anchor="middle" x="149.5" y="-14.6" font-family="Lato" font-size="13.00">Filtrado</text>
</g>
<!-- Generación&#45;&gt;Filtrado -->
<g id="edge1" class="edge">
<title>Generación&#45;&gt;Filtrado</title>
<path fill="none" stroke="black" d="M83.18,-18C91.55,-18 100.36,-18 108.71,-18"/>
<polygon fill="black" stroke="black" points="108.96,-21.5 118.96,-18 108.96,-14.5 108.96,-21.5"/>
</g>
<!-- Mapeado -->
<g id="node3" class="node">
<title>Mapeado</title>
<polygon fill="white" stroke="black" points="287,-36 216,-36 216,0 287,0 287,-36"/>
<text text-anchor="middle" x="251.5" y="-14.6" font-family="Lato" font-size="13.00">Mapeado</text>
</g>
<!-- Filtrado&#45;&gt;Mapeado -->
<g id="edge2" class="edge">
<title>Filtrado&#45;&gt;Mapeado</title>
<path fill="none" stroke="black" d="M180.23,-18C188.17,-18 196.93,-18 205.5,-18"/>
<polygon fill="black" stroke="black" points="205.78,-21.5 215.78,-18 205.78,-14.5 205.78,-21.5"/>
</g>
<!-- Acumulación -->
<g id="node4" class="node">
<title>Acumulación</title>
<polygon fill="white" stroke="black" points="414,-36 323,-36 323,0 414,0 414,-36"/>
<text text-anchor="middle" x="368.5" y="-14.6" font-family="Lato" font-size="13.00">Acumulación</text>
</g>
<!-- Mapeado&#45;&gt;Acumulación -->
<g id="edge3" class="edge">
<title>Mapeado&#45;&gt;Acumulación</title>
<path fill="none" stroke="black" d="M287,-18C295.09,-18 303.9,-18 312.63,-18"/>
<polygon fill="black" stroke="black" points="312.79,-21.5 322.79,-18 312.79,-14.5 312.79,-21.5"/>
</g>
</g>
</svg>
