<?xml version="1.0" encoding="UTF-8" standalone="no"?>
<!DOCTYPE svg PUBLIC "-//W3C//DTD SVG 1.1//EN"
 "http://www.w3.org/Graphics/SVG/1.1/DTD/svg11.dtd">
<!-- Generated by graphviz version 2.42.4 (0)
 -->
<!-- Pages: 1 -->
<svg width="456pt" height="44pt"
 viewBox="0.00 0.00 456.00 44.00" xmlns="http://www.w3.org/2000/svg" xmlns:xlink="http://www.w3.org/1999/xlink">
<g id="graph0" class="graph" transform="scale(1 1) rotate(0) translate(4 40)">
<!-- Generación -->
<g id="node1" class="node">
<title>Generación</title>
<polygon fill="white" stroke="black" points="83,-36 0,-36 0,0 83,0 83,-36"/>
<text text-anchor="middle" x="41.5" y="-14.6" font-family="Lato" font-size="13.00">Generación</text>
</g>
<!-- Filtrado -->
<g id="node2" class="node">
<title>Filtrado</title>
<polygon fill="white" stroke="black" points="180,-36 119,-36 119,0 180,0 180,-36"/>
<text text-anchor="middle" x="149.5" y="-14.6" font-family="Lato" font-size="13.00">Filtrado</text>
</g>
<!-- Generación&#45;&gt;Filtrado -->
<g id="edge1" class="edge">
<title>Generación&#45;&gt;Filtrado</title>
<path fill="none" stroke="black" d="M83.18,-18C91.55,-18 100.36,-18 108.71,-18"/>
<polygon fill="black" stroke="black" points="108.96,-21.5 118.96,-18 108.96,-14.5 108.96,-21.5"/>
</g>
<!-- Transformación -->
<g id="node3" class="node">
<title>Transformación</title>
<polygon fill="white" stroke="black" points="321,-36 216,-36 216,0 321,0 321,-36"/>
<text text-anchor="middle" x="268.5" y="-14.6" font-family="Lato" font-size="13.00">Transformación</text>
</g>
<!-- Filtrado&#45;&gt;Transformación -->
<g id="edge2" class="edge">
<title>Filtrado&#45;&gt;Transformación</title>
<path fill="none" stroke="black" d="M180.02,-18C187.89,-18 196.7,-18 205.61,-18"/>
<polygon fill="black" stroke="black" points="205.67,-21.5 215.67,-18 205.67,-14.5 205.67,-21.5"/>
</g>
<!-- Acumulación -->
<g id="node4" class="node">
<title>Acumulación</title>
<polygon fill="white" stroke="black" points="448,-36 357,-36 357,0 448,0 448,-36"/>
<text text-anchor="middle" x="402.5" y="-14.6" font-family="Lato" font-size="13.00">Acumulación</text>
</g>
<!-- Transformación&#45;&gt;Acumulación -->
<g id="edge3" class="edge">
<title>Transformación&#45;&gt;Acumulación</title>
<path fill="none" stroke="black" d="M321.29,-18C329.61,-18 338.24,-18 346.63,-18"/>
<polygon fill="black" stroke="black" points="346.7,-21.5 356.7,-18 346.7,-14.5 346.7,-21.5"/>
</g>
</g>
</svg>
