<?xml version="1.0" encoding="UTF-8" standalone="no"?>
<!DOCTYPE svg PUBLIC "-//W3C//DTD SVG 1.1//EN"
 "http://www.w3.org/Graphics/SVG/1.1/DTD/svg11.dtd">
<!-- Generated by graphviz version 14.1.1 (0)
 -->
<!-- Pages: 1 -->
<svg width="134pt" height="98pt"
 viewBox="0.00 0.00 134.00 98.00" xmlns="http://www.w3.org/2000/svg" xmlns:xlink="http://www.w3.org/1999/xlink">
<g id="graph0" class="graph" transform="scale(1 1) rotate(0) translate(4 94)">
<!-- 4 -->
<g id="node1" class="node">
<title>4</title>
<ellipse fill="white" stroke="black" cx="108" cy="-72" rx="18" ry="18"/>
<text xml:space="preserve" text-anchor="middle" x="108" y="-67.9" font-family="monospace" font-size="13.00">4</text>
</g>
<!-- 7 -->
<g id="node2" class="node">
<title>7</title>
<ellipse fill="white" stroke="black" cx="108" cy="-18" rx="18" ry="18"/>
<text xml:space="preserve" text-anchor="middle" x="108" y="-13.9" font-family="monospace" font-size="13.00">7</text>
</g>
<!-- x -->
<g id="node3" class="node">
<title>x</title>
<polygon fill="none" stroke="none" points="54,-63 0,-63 0,-27 54,-27 54,-63"/>
<text xml:space="preserve" text-anchor="middle" x="27" y="-40.9" font-family="monospace" font-size="13.00">x</text>
</g>
<!-- x&#45;&gt;4 -->
<g id="edge1" class="edge">
<title>x&#45;&gt;4</title>
<path fill="none" stroke="grey" stroke-dasharray="5,2" d="M44.75,-50.73C55.12,-54.27 68.66,-58.89 80.46,-62.93"/>
<polygon fill="grey" stroke="grey" points="79.05,-66.15 89.65,-66.07 81.32,-59.52 79.05,-66.15"/>
</g>
<!-- x&#45;&gt;7 -->
<g id="edge2" class="edge">
<title>x&#45;&gt;7</title>
<path fill="none" stroke="black" d="M44.75,-39.27C55.12,-35.73 68.66,-31.11 80.46,-27.07"/>
<polygon fill="black" stroke="black" points="81.32,-30.48 89.65,-23.93 79.05,-23.85 81.32,-30.48"/>
</g>
</g>
</svg>
