<?xml version="1.0" encoding="UTF-8" standalone="no"?>
<!DOCTYPE svg PUBLIC "-//W3C//DTD SVG 1.1//EN"
 "http://www.w3.org/Graphics/SVG/1.1/DTD/svg11.dtd">
<!-- Generated by graphviz version 2.43.0 (0)
 -->
<!-- Title: %3 Pages: 1 -->
<svg width="134pt" height="98pt"
 viewBox="0.00 0.00 134.00 98.00" xmlns="http://www.w3.org/2000/svg" xmlns:xlink="http://www.w3.org/1999/xlink">
<g id="graph0" class="graph" transform="scale(1 1) rotate(0) translate(4 94)">
<title>%3</title>
<!-- 4 -->
<g id="node1" class="node">
<title>4</title>
<ellipse fill="white" stroke="black" cx="108" cy="-72" rx="18" ry="18"/>
<text text-anchor="middle" x="108" y="-68.6" font-family="monospace" font-size="13.00">4</text>
</g>
<!-- 7 -->
<g id="node2" class="node">
<title>7</title>
<ellipse fill="white" stroke="black" cx="108" cy="-18" rx="18" ry="18"/>
<text text-anchor="middle" x="108" y="-14.6" font-family="monospace" font-size="13.00">7</text>
</g>
<!-- x -->
<g id="node3" class="node">
<title>x</title>
<polygon fill="transparent" stroke="transparent" points="54,-63 0,-63 0,-27 54,-27 54,-63"/>
<text text-anchor="middle" x="27" y="-41.6" font-family="monospace" font-size="13.00">x</text>
</g>
<!-- x&#45;&gt;4 -->
<g id="edge1" class="edge">
<title>x&#45;&gt;4</title>
<path fill="none" stroke="grey" stroke-dasharray="5,2" d="M45.14,-50.86C55.6,-54.43 69.18,-59.07 80.95,-63.1"/>
<polygon fill="grey" stroke="grey" points="80.11,-66.51 90.7,-66.43 82.37,-59.88 80.11,-66.51"/>
</g>
<!-- x&#45;&gt;7 -->
<g id="edge2" class="edge">
<title>x&#45;&gt;7</title>
<path fill="none" stroke="black" d="M45.14,-39.14C55.6,-35.57 69.18,-30.93 80.95,-26.9"/>
<polygon fill="black" stroke="black" points="82.37,-30.12 90.7,-23.57 80.11,-23.49 82.37,-30.12"/>
</g>
</g>
</svg>
