<?xml version="1.0" encoding="UTF-8" standalone="no"?>
<!DOCTYPE svg PUBLIC "-//W3C//DTD SVG 1.1//EN"
 "http://www.w3.org/Graphics/SVG/1.1/DTD/svg11.dtd">
<!-- Generated by graphviz version 2.40.1 (20161225.0304)
 -->
<!-- Title: %3 Pages: 1 -->
<svg width="576pt" height="421pt"
 viewBox="0.00 0.00 576.00 421.25" xmlns="http://www.w3.org/2000/svg" xmlns:xlink="http://www.w3.org/1999/xlink">
<g id="graph0" class="graph" transform="scale(4.2985 4.2985) rotate(0) translate(4 94)">
<title>%3</title>
<!-- 4 -->
<g id="node1" class="node">
<title>4</title>
<ellipse fill="#ffffff" stroke="#000000" cx="108" cy="-72" rx="18" ry="18"/>
<text text-anchor="middle" x="108" y="-68.6" font-family="Lato" font-size="13.00" fill="#000000">4</text>
</g>
<!-- 7 -->
<g id="node2" class="node">
<title>7</title>
<ellipse fill="#ffffff" stroke="#000000" cx="108" cy="-18" rx="18" ry="18"/>
<text text-anchor="middle" x="108" y="-14.6" font-family="Lato" font-size="13.00" fill="#000000">7</text>
</g>
<!-- x -->
<g id="node3" class="node">
<title>x</title>
<polygon fill="#ffffff" stroke="#000000" points="54,-63 0,-63 0,-27 54,-27 54,-63"/>
<text text-anchor="middle" x="27" y="-41.6" font-family="Lato" font-size="13.00" fill="#000000">x</text>
</g>
<!-- x&#45;&gt;4 -->
<g id="edge1" class="edge">
<title>x&#45;&gt;4</title>
<path fill="none" stroke="#c0c0c0" stroke-dasharray="5,2" d="M54.4229,-54.141C62.9997,-56.9999 72.453,-60.151 81.0005,-63.0002"/>
<polygon fill="#c0c0c0" stroke="#c0c0c0" points="79.9178,-66.3285 90.5115,-66.1705 82.1315,-59.6878 79.9178,-66.3285"/>
</g>
<!-- x&#45;&gt;7 -->
<g id="edge2" class="edge">
<title>x&#45;&gt;7</title>
<path fill="none" stroke="#000000" d="M54.4229,-35.859C62.9997,-33.0001 72.453,-29.849 81.0005,-26.9998"/>
<polygon fill="#000000" stroke="#000000" points="82.1315,-30.3122 90.5115,-23.8295 79.9178,-23.6715 82.1315,-30.3122"/>
</g>
</g>
</svg>
