<?xml version="1.0" encoding="UTF-8" standalone="no"?>
<!DOCTYPE svg PUBLIC "-//W3C//DTD SVG 1.1//EN"
 "http://www.w3.org/Graphics/SVG/1.1/DTD/svg11.dtd">
<!-- Generated by graphviz version 2.40.1 (20161225.0304)
 -->
<!-- Title: %3 Pages: 1 -->
<svg width="864pt" height="91pt"
 viewBox="0.00 0.00 864.00 91.38" xmlns="http://www.w3.org/2000/svg" xmlns:xlink="http://www.w3.org/1999/xlink">
<g id="graph0" class="graph" transform="scale(2.0769 2.0769) rotate(0) translate(4 40)">
<title>%3</title>
<!-- Problema -->
<g id="node1" class="node">
<title>Problema</title>
<polygon fill="#ffffff" stroke="#000000" points="70,-36 0,-36 0,0 70,0 70,-36"/>
<text text-anchor="middle" x="35" y="-14.6" font-family="Lato" font-size="13.00" fill="#000000">Problema</text>
</g>
<!-- Diseño de algoritmo -->
<g id="node2" class="node">
<title>Diseño de algoritmo</title>
<polygon fill="#ffffff" stroke="#000000" points="235,-36 106,-36 106,0 235,0 235,-36"/>
<text text-anchor="middle" x="170.5" y="-14.6" font-family="Lato" font-size="13.00" fill="#000000">Diseño de algoritmo</text>
</g>
<!-- Problema&#45;&gt;Diseño de algoritmo -->
<g id="edge1" class="edge">
<title>Problema&#45;&gt;Diseño de algoritmo</title>
<path fill="none" stroke="#000000" d="M70.2473,-18C78.1665,-18 86.8622,-18 95.7199,-18"/>
<polygon fill="#000000" stroke="#000000" points="95.7567,-21.5001 105.7567,-18 95.7566,-14.5001 95.7567,-21.5001"/>
</g>
<!-- Programa informático -->
<g id="node3" class="node">
<title>Programa informático</title>
<polygon fill="#ffffff" stroke="#000000" points="408,-36 271,-36 271,0 408,0 408,-36"/>
<text text-anchor="middle" x="339.5" y="-14.6" font-family="Lato" font-size="13.00" fill="#000000">Programa informático</text>
</g>
<!-- Diseño de algoritmo&#45;&gt;Programa informático -->
<g id="edge2" class="edge">
<title>Diseño de algoritmo&#45;&gt;Programa informático</title>
<path fill="none" stroke="#000000" d="M235.3565,-18C243.6286,-18 252.1666,-18 260.6289,-18"/>
<polygon fill="#000000" stroke="#000000" points="260.8907,-21.5001 270.8907,-18 260.8906,-14.5001 260.8907,-21.5001"/>
</g>
</g>
</svg>
