<?xml version="1.0" encoding="UTF-8" standalone="no"?>
<!DOCTYPE svg PUBLIC "-//W3C//DTD SVG 1.1//EN"
 "http://www.w3.org/Graphics/SVG/1.1/DTD/svg11.dtd">
<!-- Generated by graphviz version 2.42.4 (0)
 -->
<!-- Pages: 1 -->
<svg width="422pt" height="44pt"
 viewBox="0.00 0.00 422.00 44.00" xmlns="http://www.w3.org/2000/svg" xmlns:xlink="http://www.w3.org/1999/xlink">
<g id="graph0" class="graph" transform="scale(1 1) rotate(0) translate(4 40)">
<!-- Problema -->
<g id="node1" class="node">
<title>Problema</title>
<polygon fill="white" stroke="black" points="71,-36 0,-36 0,0 71,0 71,-36"/>
<text text-anchor="middle" x="35.5" y="-14.6" font-family="Lato" font-size="13.00">Problema</text>
</g>
<!-- Diseño de algoritmo -->
<g id="node2" class="node">
<title>Diseño de algoritmo</title>
<polygon fill="white" stroke="black" points="238,-36 107,-36 107,0 238,0 238,-36"/>
<text text-anchor="middle" x="172.5" y="-14.6" font-family="Lato" font-size="13.00">Diseño de algoritmo</text>
</g>
<!-- Problema&#45;&gt;Diseño de algoritmo -->
<g id="edge1" class="edge">
<title>Problema&#45;&gt;Diseño de algoritmo</title>
<path fill="none" stroke="black" d="M71.27,-18C79.21,-18 87.96,-18 96.87,-18"/>
<polygon fill="black" stroke="black" points="96.97,-21.5 106.97,-18 96.97,-14.5 96.97,-21.5"/>
</g>
<!-- Programa informático -->
<g id="node3" class="node">
<title>Programa informático</title>
<polygon fill="white" stroke="black" points="414,-36 274,-36 274,0 414,0 414,-36"/>
<text text-anchor="middle" x="344" y="-14.6" font-family="Lato" font-size="13.00">Programa informático</text>
</g>
<!-- Diseño de algoritmo&#45;&gt;Programa informático -->
<g id="edge2" class="edge">
<title>Diseño de algoritmo&#45;&gt;Programa informático</title>
<path fill="none" stroke="black" d="M238.06,-18C246.47,-18 255.16,-18 263.77,-18"/>
<polygon fill="black" stroke="black" points="263.82,-21.5 273.82,-18 263.82,-14.5 263.82,-21.5"/>
</g>
</g>
</svg>
