<?xml version="1.0" encoding="UTF-8" standalone="no"?>
<!DOCTYPE svg PUBLIC "-//W3C//DTD SVG 1.1//EN"
 "http://www.w3.org/Graphics/SVG/1.1/DTD/svg11.dtd">
<!-- Generated by graphviz version 14.1.1 (0)
 -->
<!-- Pages: 1 -->
<svg width="421pt" height="44pt"
 viewBox="0.00 0.00 421.00 44.00" xmlns="http://www.w3.org/2000/svg" xmlns:xlink="http://www.w3.org/1999/xlink">
<g id="graph0" class="graph" transform="scale(1 1) rotate(0) translate(4 40)">
<!-- Problema -->
<g id="node1" class="node">
<title>Problema</title>
<polygon fill="white" stroke="black" points="70,-36 0,-36 0,0 70,0 70,-36"/>
<text xml:space="preserve" text-anchor="middle" x="35" y="-13.9" font-family="Lato" font-size="13.00">Problema</text>
</g>
<!-- Diseño de algoritmo -->
<g id="node2" class="node">
<title>Diseño de algoritmo</title>
<polygon fill="white" stroke="black" points="236.75,-36 106,-36 106,0 236.75,0 236.75,-36"/>
<text xml:space="preserve" text-anchor="middle" x="171.38" y="-13.9" font-family="Lato" font-size="13.00">Diseño de algoritmo</text>
</g>
<!-- Problema&#45;&gt;Diseño de algoritmo -->
<g id="edge1" class="edge">
<title>Problema&#45;&gt;Diseño de algoritmo</title>
<path fill="none" stroke="black" d="M70.26,-18C77.69,-18 85.83,-18 94.16,-18"/>
<polygon fill="black" stroke="black" points="94.08,-21.5 104.08,-18 94.08,-14.5 94.08,-21.5"/>
</g>
<!-- Programa informático -->
<g id="node3" class="node">
<title>Programa informático</title>
<polygon fill="white" stroke="black" points="412.5,-36 272.75,-36 272.75,0 412.5,0 412.5,-36"/>
<text xml:space="preserve" text-anchor="middle" x="342.62" y="-13.9" font-family="Lato" font-size="13.00">Programa informático</text>
</g>
<!-- Diseño de algoritmo&#45;&gt;Programa informático -->
<g id="edge2" class="edge">
<title>Diseño de algoritmo&#45;&gt;Programa informático</title>
<path fill="none" stroke="black" d="M236.84,-18C244.72,-18 252.84,-18 260.91,-18"/>
<polygon fill="black" stroke="black" points="260.75,-21.5 270.75,-18 260.75,-14.5 260.75,-21.5"/>
</g>
</g>
</svg>
