<?xml version="1.0" encoding="UTF-8" standalone="no"?>
<!DOCTYPE svg PUBLIC "-//W3C//DTD SVG 1.1//EN"
 "http://www.w3.org/Graphics/SVG/1.1/DTD/svg11.dtd">
<!-- Generated by graphviz version 2.42.4 (0)
 -->
<!-- Pages: 1 -->
<svg width="331pt" height="152pt"
 viewBox="0.00 0.00 331.00 152.00" xmlns="http://www.w3.org/2000/svg" xmlns:xlink="http://www.w3.org/1999/xlink">
<g id="graph0" class="graph" transform="scale(1 1) rotate(0) translate(4 148)">
<!-- suma -->
<g id="node1" class="node">
<title>suma</title>
<polygon fill="white" stroke="black" points="233,-90 90,-90 90,-54 233,-54 233,-90"/>
<text text-anchor="middle" x="161.5" y="-68.6" font-family="Lato" font-size="13.00">suma de tres números</text>
</g>
<!-- res -->
<g id="node2" class="node">
<title>res</title>
<polygon fill="transparent" stroke="transparent" points="323,-90 269,-90 269,-54 323,-54 323,-90"/>
<text text-anchor="middle" x="296" y="-68.6" font-family="Lato" font-size="13.00">x + y</text>
</g>
<!-- suma&#45;&gt;res -->
<g id="edge4" class="edge">
<title>suma&#45;&gt;res</title>
<path fill="none" stroke="black" d="M233.08,-72C233.08,-72 258.98,-72 258.98,-72"/>
<polygon fill="black" stroke="black" points="258.98,-75.5 268.98,-72 258.98,-68.5 258.98,-75.5"/>
</g>
<!-- x -->
<g id="node3" class="node">
<title>x</title>
<polygon fill="transparent" stroke="transparent" points="54,-144 0,-144 0,-108 54,-108 54,-144"/>
<text text-anchor="middle" x="27" y="-122.6" font-family="Lato" font-size="13.00">x</text>
</g>
<!-- x&#45;&gt;suma -->
<g id="edge1" class="edge">
<title>x&#45;&gt;suma</title>
<path fill="none" stroke="black" d="M54.32,-126C93.77,-126 162,-126 162,-126 162,-126 162,-100.28 162,-100.28"/>
<polygon fill="black" stroke="black" points="165.5,-100.28 162,-90.28 158.5,-100.28 165.5,-100.28"/>
</g>
<!-- y -->
<g id="node4" class="node">
<title>y</title>
<polygon fill="transparent" stroke="transparent" points="54,-90 0,-90 0,-54 54,-54 54,-90"/>
<text text-anchor="middle" x="27" y="-68.6" font-family="Lato" font-size="13.00">y</text>
</g>
<!-- y&#45;&gt;suma -->
<g id="edge2" class="edge">
<title>y&#45;&gt;suma</title>
<path fill="none" stroke="black" d="M54.22,-72C54.22,-72 79.8,-72 79.8,-72"/>
<polygon fill="black" stroke="black" points="79.8,-75.5 89.8,-72 79.8,-68.5 79.8,-75.5"/>
</g>
<!-- z -->
<g id="node5" class="node">
<title>z</title>
<polygon fill="transparent" stroke="transparent" points="54,-36 0,-36 0,0 54,0 54,-36"/>
<text text-anchor="middle" x="27" y="-14.6" font-family="Lato" font-size="13.00">z = 0</text>
</g>
<!-- z&#45;&gt;suma -->
<g id="edge3" class="edge">
<title>z&#45;&gt;suma</title>
<path fill="none" stroke="black" d="M54.32,-18C93.77,-18 162,-18 162,-18 162,-18 162,-43.72 162,-43.72"/>
<polygon fill="black" stroke="black" points="158.5,-43.72 162,-53.72 165.5,-43.72 158.5,-43.72"/>
</g>
</g>
</svg>
