<?xml version="1.0" encoding="UTF-8" standalone="no"?>
<!DOCTYPE svg PUBLIC "-//W3C//DTD SVG 1.1//EN"
 "http://www.w3.org/Graphics/SVG/1.1/DTD/svg11.dtd">
<!-- Generated by graphviz version 14.1.1 (0)
 -->
<!-- Pages: 1 -->
<svg width="330pt" height="152pt"
 viewBox="0.00 0.00 330.00 152.00" xmlns="http://www.w3.org/2000/svg" xmlns:xlink="http://www.w3.org/1999/xlink">
<g id="graph0" class="graph" transform="scale(1 1) rotate(0) translate(4 148)">
<!-- suma -->
<g id="node1" class="node">
<title>suma</title>
<polygon fill="white" stroke="black" points="232,-90 90,-90 90,-54 232,-54 232,-90"/>
<text xml:space="preserve" text-anchor="middle" x="161" y="-67.9" font-family="Lato" font-size="13.00">suma de tres números</text>
</g>
<!-- res -->
<g id="node2" class="node">
<title>res</title>
<polygon fill="none" stroke="none" points="322,-90 268,-90 268,-54 322,-54 322,-90"/>
<text xml:space="preserve" text-anchor="middle" x="295" y="-67.9" font-family="Lato" font-size="13.00">x + y</text>
</g>
<!-- suma&#45;&gt;res -->
<g id="edge4" class="edge">
<title>suma&#45;&gt;res</title>
<path fill="none" stroke="black" d="M232.32,-72C232.32,-72 256.57,-72 256.57,-72"/>
<polygon fill="black" stroke="black" points="256.57,-75.5 266.57,-72 256.57,-68.5 256.57,-75.5"/>
</g>
<!-- x -->
<g id="node3" class="node">
<title>x</title>
<polygon fill="none" stroke="none" points="54,-144 0,-144 0,-108 54,-108 54,-144"/>
<text xml:space="preserve" text-anchor="middle" x="27" y="-121.9" font-family="Lato" font-size="13.00">x</text>
</g>
<!-- x&#45;&gt;suma -->
<g id="edge1" class="edge">
<title>x&#45;&gt;suma</title>
<path fill="none" stroke="black" d="M53.79,-126C92.9,-126 161,-126 161,-126 161,-126 161,-101.8 161,-101.8"/>
<polygon fill="black" stroke="black" points="164.5,-101.8 161,-91.8 157.5,-101.8 164.5,-101.8"/>
</g>
<!-- y -->
<g id="node4" class="node">
<title>y</title>
<polygon fill="none" stroke="none" points="54,-90 0,-90 0,-54 54,-54 54,-90"/>
<text xml:space="preserve" text-anchor="middle" x="27" y="-67.9" font-family="Lato" font-size="13.00">y</text>
</g>
<!-- y&#45;&gt;suma -->
<g id="edge2" class="edge">
<title>y&#45;&gt;suma</title>
<path fill="none" stroke="black" d="M53.79,-72C53.79,-72 78.04,-72 78.04,-72"/>
<polygon fill="black" stroke="black" points="78.04,-75.5 88.04,-72 78.04,-68.5 78.04,-75.5"/>
</g>
<!-- z -->
<g id="node5" class="node">
<title>z</title>
<polygon fill="none" stroke="none" points="54,-36 0,-36 0,0 54,0 54,-36"/>
<text xml:space="preserve" text-anchor="middle" x="27" y="-13.9" font-family="Lato" font-size="13.00">z = 0</text>
</g>
<!-- z&#45;&gt;suma -->
<g id="edge3" class="edge">
<title>z&#45;&gt;suma</title>
<path fill="none" stroke="black" d="M53.79,-18C92.9,-18 161,-18 161,-18 161,-18 161,-42.2 161,-42.2"/>
<polygon fill="black" stroke="black" points="157.5,-42.2 161,-52.2 164.5,-42.2 157.5,-42.2"/>
</g>
</g>
</svg>
