<?xml version="1.0" encoding="UTF-8" standalone="no"?>
<!DOCTYPE svg PUBLIC "-//W3C//DTD SVG 1.1//EN"
 "http://www.w3.org/Graphics/SVG/1.1/DTD/svg11.dtd">
<!-- Generated by graphviz version 2.40.1 (20161225.0304)
 -->
<!-- Title: %3 Pages: 1 -->
<svg width="576pt" height="269pt"
 viewBox="0.00 0.00 576.00 269.39" xmlns="http://www.w3.org/2000/svg" xmlns:xlink="http://www.w3.org/1999/xlink">
<g id="graph0" class="graph" transform="scale(1.7723 1.7723) rotate(0) translate(4 148)">
<title>%3</title>
<!-- suma -->
<g id="node1" class="node">
<title>suma</title>
<polygon fill="#ffffff" stroke="#000000" points="227,-90 90,-90 90,-54 227,-54 227,-90"/>
<text text-anchor="middle" x="158.5" y="-68.6" font-family="Lato" font-size="13.00" fill="#000000">suma de tres números</text>
</g>
<!-- res -->
<g id="node2" class="node">
<title>res</title>
<polygon fill="transparent" stroke="transparent" points="317,-90 263,-90 263,-54 317,-54 317,-90"/>
<text text-anchor="middle" x="290" y="-68.6" font-family="Lato" font-size="13.00" fill="#000000">x + y</text>
</g>
<!-- suma&#45;&gt;res -->
<g id="edge4" class="edge">
<title>suma&#45;&gt;res</title>
<path fill="none" stroke="#000000" d="M227.331,-72C227.331,-72 252.7032,-72 252.7032,-72"/>
<polygon fill="#000000" stroke="#000000" points="252.7033,-75.5001 262.7032,-72 252.7032,-68.5001 252.7033,-75.5001"/>
</g>
<!-- x -->
<g id="node3" class="node">
<title>x</title>
<polygon fill="transparent" stroke="transparent" points="54,-144 0,-144 0,-108 54,-108 54,-144"/>
<text text-anchor="middle" x="27" y="-122.6" font-family="Lato" font-size="13.00" fill="#000000">x</text>
</g>
<!-- x&#45;&gt;suma -->
<g id="edge1" class="edge">
<title>x&#45;&gt;suma</title>
<path fill="none" stroke="#000000" d="M54.0307,-126C92.649,-126 159,-126 159,-126 159,-126 159,-100.2819 159,-100.2819"/>
<polygon fill="#000000" stroke="#000000" points="162.5001,-100.2819 159,-90.2819 155.5001,-100.282 162.5001,-100.2819"/>
</g>
<!-- y -->
<g id="node4" class="node">
<title>y</title>
<polygon fill="transparent" stroke="transparent" points="54,-90 0,-90 0,-54 54,-54 54,-90"/>
<text text-anchor="middle" x="27" y="-68.6" font-family="Lato" font-size="13.00" fill="#000000">y</text>
</g>
<!-- y&#45;&gt;suma -->
<g id="edge2" class="edge">
<title>y&#45;&gt;suma</title>
<path fill="none" stroke="#000000" d="M54.2469,-72C54.2469,-72 79.7757,-72 79.7757,-72"/>
<polygon fill="#000000" stroke="#000000" points="79.7758,-75.5001 89.7757,-72 79.7757,-68.5001 79.7758,-75.5001"/>
</g>
<!-- z -->
<g id="node5" class="node">
<title>z</title>
<polygon fill="transparent" stroke="transparent" points="54,-36 0,-36 0,0 54,0 54,-36"/>
<text text-anchor="middle" x="27" y="-14.6" font-family="Lato" font-size="13.00" fill="#000000">z = 0</text>
</g>
<!-- z&#45;&gt;suma -->
<g id="edge3" class="edge">
<title>z&#45;&gt;suma</title>
<path fill="none" stroke="#000000" d="M54.0307,-18C92.649,-18 159,-18 159,-18 159,-18 159,-43.7181 159,-43.7181"/>
<polygon fill="#000000" stroke="#000000" points="155.5001,-43.718 159,-53.7181 162.5001,-43.7181 155.5001,-43.718"/>
</g>
</g>
</svg>
