<?xml version="1.0" encoding="UTF-8" standalone="no"?>
<!DOCTYPE svg PUBLIC "-//W3C//DTD SVG 1.1//EN"
 "http://www.w3.org/Graphics/SVG/1.1/DTD/svg11.dtd">
<!-- Generated by graphviz version 14.1.1 (0)
 -->
<!-- Pages: 1 -->
<svg width="373pt" height="104pt"
 viewBox="0.00 0.00 373.00 104.00" xmlns="http://www.w3.org/2000/svg" xmlns:xlink="http://www.w3.org/1999/xlink">
<g id="graph0" class="graph" transform="scale(1 1) rotate(0) translate(4 99.5)">
<!-- F -->
<g id="node1" class="node">
<title>F</title>
<polygon fill="aliceblue" stroke="black" points="106,-66.5 0,-66.5 0,-25.5 112,-25.5 112,-60.5 106,-66.5"/>
<polyline fill="none" stroke="black" points="106,-66.5 106,-60.5"/>
<polyline fill="none" stroke="black" points="112,-60.5 106,-60.5"/>
<text xml:space="preserve" text-anchor="middle" x="56" y="-50.15" font-family="Lato" font-size="13.00">Código fuente</text>
<text xml:space="preserve" text-anchor="middle" x="56" y="-33.65" font-family="Lato" font-size="13.00">(lenguaje fuente)</text>
</g>
<!-- Traductor -->
<g id="node4" class="node">
<title>Traductor</title>
<polygon fill="white" stroke="black" points="218.75,-64 148,-64 148,-28 218.75,-28 218.75,-64"/>
<text xml:space="preserve" text-anchor="middle" x="183.38" y="-41.9" font-family="Lato" font-size="13.00">Traductor</text>
</g>
<!-- F&#45;&gt;Traductor -->
<g id="edge1" class="edge">
<title>F&#45;&gt;Traductor</title>
<path fill="none" stroke="black" d="M112.36,-46C120.37,-46 128.55,-46 136.35,-46"/>
<polygon fill="black" stroke="black" points="136.33,-49.5 146.33,-46 136.33,-42.5 136.33,-49.5"/>
</g>
<!-- O -->
<g id="node2" class="node">
<title>O</title>
<polygon fill="aliceblue" stroke="black" points="359.25,-95.5 254.75,-95.5 254.75,-54.5 365.25,-54.5 365.25,-89.5 359.25,-95.5"/>
<polyline fill="none" stroke="black" points="359.25,-95.5 359.25,-89.5"/>
<polyline fill="none" stroke="black" points="365.25,-89.5 359.25,-89.5"/>
<text xml:space="preserve" text-anchor="middle" x="310" y="-79.15" font-family="Lato" font-size="13.00">Código objeto</text>
<text xml:space="preserve" text-anchor="middle" x="310" y="-62.65" font-family="Lato" font-size="13.00">(lenguaje objeto)</text>
</g>
<!-- E -->
<g id="node3" class="node">
<title>E</title>
<polygon fill="none" stroke="none" points="338.62,-36 281.38,-36 281.38,0 338.62,0 338.62,-36"/>
<text xml:space="preserve" text-anchor="middle" x="310" y="-13.9" font-family="Lato" font-size="13.00">Errores</text>
</g>
<!-- Traductor&#45;&gt;O -->
<g id="edge2" class="edge">
<title>Traductor&#45;&gt;O</title>
<path fill="none" stroke="black" d="M219.09,-54.08C226.7,-55.85 235,-57.78 243.38,-59.73"/>
<polygon fill="black" stroke="black" points="242.39,-63.09 252.92,-61.95 243.97,-56.27 242.39,-63.09"/>
</g>
<!-- Traductor&#45;&gt;E -->
<g id="edge3" class="edge">
<title>Traductor&#45;&gt;E</title>
<path fill="none" stroke="black" d="M219.09,-38.2C235.12,-34.6 254.21,-30.31 270.67,-26.61"/>
<polygon fill="black" stroke="black" points="271.1,-30.1 280.09,-24.49 269.57,-23.27 271.1,-30.1"/>
</g>
</g>
</svg>
