<?xml version="1.0" encoding="UTF-8" standalone="no"?>
<!DOCTYPE svg PUBLIC "-//W3C//DTD SVG 1.1//EN"
 "http://www.w3.org/Graphics/SVG/1.1/DTD/svg11.dtd">
<!-- Generated by graphviz version 2.43.0 (0)
 -->
<!-- Title: %3 Pages: 1 -->
<svg width="502pt" height="99pt"
 viewBox="0.00 0.00 502.00 99.00" xmlns="http://www.w3.org/2000/svg" xmlns:xlink="http://www.w3.org/1999/xlink">
<g id="graph0" class="graph" transform="scale(1 1) rotate(0) translate(4 95)">
<title>%3</title>
<g id="clust1" class="cluster">
<title>cluster0</title>
<polygon fill="transparent" stroke="black" points="141,-8 141,-83 486,-83 486,-8 141,-8"/>
<text text-anchor="middle" x="313.5" y="-67.8" font-family="Lato" font-size="14.00">Intérprete</text>
</g>
<!-- F -->
<g id="node1" class="node">
<title>F</title>
<polygon fill="aliceblue" stroke="black" points="107,-52 0,-52 0,-16 113,-16 113,-46 107,-52"/>
<polyline fill="none" stroke="black" points="107,-52 107,-46 "/>
<polyline fill="none" stroke="black" points="113,-46 107,-46 "/>
<text text-anchor="middle" x="56.5" y="-37.6" font-family="Lato" font-size="13.00">Código fuente</text>
<text text-anchor="middle" x="56.5" y="-23.6" font-family="Lato" font-size="13.00">(lenguaje fuente)</text>
</g>
<!-- Traductor -->
<g id="node3" class="node">
<title>Traductor</title>
<polygon fill="white" stroke="black" points="220,-52 149,-52 149,-16 220,-16 220,-52"/>
<text text-anchor="middle" x="184.5" y="-30.6" font-family="Lato" font-size="13.00">Traductor</text>
</g>
<!-- F&#45;&gt;Traductor -->
<g id="edge3" class="edge">
<title>F&#45;&gt;Traductor</title>
<path fill="none" stroke="black" d="M113.13,-34C121.66,-34 130.37,-34 138.63,-34"/>
<polygon fill="black" stroke="black" points="138.8,-37.5 148.8,-34 138.8,-30.5 138.8,-37.5"/>
</g>
<!-- I -->
<g id="node2" class="node">
<title>I</title>
<polygon fill="aliceblue" stroke="black" points="372,-52 256,-52 256,-16 378,-16 378,-46 372,-52"/>
<polyline fill="none" stroke="black" points="372,-52 372,-46 "/>
<polyline fill="none" stroke="black" points="378,-46 372,-46 "/>
<text text-anchor="middle" x="317" y="-30.6" font-family="Lato" font-size="13.00">Código intermedio</text>
</g>
<!-- Ejecutor -->
<g id="node4" class="node">
<title>Ejecutor</title>
<polygon fill="white" stroke="black" points="478,-52 414,-52 414,-16 478,-16 478,-52"/>
<text text-anchor="middle" x="446" y="-30.6" font-family="Lato" font-size="13.00">Ejecutor</text>
</g>
<!-- I&#45;&gt;Ejecutor -->
<g id="edge2" class="edge">
<title>I&#45;&gt;Ejecutor</title>
<path fill="none" stroke="black" d="M378.15,-34C386.81,-34 395.55,-34 403.72,-34"/>
<polygon fill="black" stroke="black" points="403.73,-37.5 413.73,-34 403.73,-30.5 403.73,-37.5"/>
</g>
<!-- Traductor&#45;&gt;I -->
<g id="edge1" class="edge">
<title>Traductor&#45;&gt;I</title>
<path fill="none" stroke="black" d="M220.13,-34C228.14,-34 236.95,-34 245.87,-34"/>
<polygon fill="black" stroke="black" points="245.97,-37.5 255.97,-34 245.97,-30.5 245.97,-37.5"/>
</g>
</g>
</svg>
