<?xml version="1.0" encoding="UTF-8" standalone="no"?>
<!DOCTYPE svg PUBLIC "-//W3C//DTD SVG 1.1//EN"
 "http://www.w3.org/Graphics/SVG/1.1/DTD/svg11.dtd">
<!-- Generated by graphviz version 2.43.0 (0)
 -->
<!-- Title: %3 Pages: 1 -->
<svg width="487pt" height="99pt"
 viewBox="0.00 0.00 487.00 99.00" xmlns="http://www.w3.org/2000/svg" xmlns:xlink="http://www.w3.org/1999/xlink">
<g id="graph0" class="graph" transform="scale(1 1) rotate(0) translate(4 95)">
<title>%3</title>
<g id="clust1" class="cluster">
<title>cluster0</title>
<polygon fill="transparent" stroke="black" points="141,-8 141,-83 471,-83 471,-8 141,-8"/>
<text text-anchor="middle" x="306" y="-67.8" font-family="Lato" font-size="14.00">Intérprete</text>
</g>
<!-- F -->
<g id="node1" class="node">
<title>F</title>
<polygon fill="aliceblue" stroke="black" points="107,-52 0,-52 0,-16 113,-16 113,-46 107,-52"/>
<polyline fill="none" stroke="black" points="107,-52 107,-46 "/>
<polyline fill="none" stroke="black" points="113,-46 107,-46 "/>
<text text-anchor="middle" x="56.5" y="-37.6" font-family="Lato" font-size="13.00">Código fuente</text>
<text text-anchor="middle" x="56.5" y="-23.6" font-family="Lato" font-size="13.00">(lenguaje fuente)</text>
</g>
<!-- Traductor -->
<g id="node3" class="node">
<title>Traductor</title>
<polygon fill="white" stroke="black" points="220,-52 149,-52 149,-16 220,-16 220,-52"/>
<text text-anchor="middle" x="184.5" y="-30.6" font-family="Lato" font-size="13.00">Traductor</text>
</g>
<!-- F&#45;&gt;Traductor -->
<g id="edge3" class="edge">
<title>F&#45;&gt;Traductor</title>
<path fill="none" stroke="black" d="M113.13,-34C121.66,-34 130.37,-34 138.63,-34"/>
<polygon fill="black" stroke="black" points="138.8,-37.5 148.8,-34 138.8,-30.5 138.8,-37.5"/>
</g>
<!-- I -->
<g id="node2" class="node">
<title>I</title>
<polygon fill="aliceblue" stroke="black" points="357,-52 256,-52 256,-16 363,-16 363,-46 357,-52"/>
<polyline fill="none" stroke="black" points="357,-52 357,-46 "/>
<polyline fill="none" stroke="black" points="363,-46 357,-46 "/>
<text text-anchor="middle" x="309.5" y="-30.6" font-family="Lato" font-size="13.00">Árbol sintáctico</text>
</g>
<!-- Ejecutor -->
<g id="node4" class="node">
<title>Ejecutor</title>
<polygon fill="white" stroke="black" points="463,-52 399,-52 399,-16 463,-16 463,-52"/>
<text text-anchor="middle" x="431" y="-30.6" font-family="Lato" font-size="13.00">Ejecutor</text>
</g>
<!-- I&#45;&gt;Ejecutor -->
<g id="edge2" class="edge">
<title>I&#45;&gt;Ejecutor</title>
<path fill="none" stroke="black" d="M363.26,-34C371.79,-34 380.51,-34 388.72,-34"/>
<polygon fill="black" stroke="black" points="388.78,-37.5 398.78,-34 388.78,-30.5 388.78,-37.5"/>
</g>
<!-- Traductor&#45;&gt;I -->
<g id="edge1" class="edge">
<title>Traductor&#45;&gt;I</title>
<path fill="none" stroke="black" d="M220.09,-34C228.06,-34 236.77,-34 245.53,-34"/>
<polygon fill="black" stroke="black" points="245.79,-37.5 255.79,-34 245.79,-30.5 245.79,-37.5"/>
</g>
</g>
</svg>
