<?xml version="1.0" encoding="UTF-8" standalone="no"?>
<!DOCTYPE svg PUBLIC "-//W3C//DTD SVG 1.1//EN"
 "http://www.w3.org/Graphics/SVG/1.1/DTD/svg11.dtd">
<!-- Generated by graphviz version 2.42.4 (0)
 -->
<!-- Pages: 1 -->
<svg width="375pt" height="98pt"
 viewBox="0.00 0.00 375.00 98.00" xmlns="http://www.w3.org/2000/svg" xmlns:xlink="http://www.w3.org/1999/xlink">
<g id="graph0" class="graph" transform="scale(1 1) rotate(0) translate(4 94)">
<!-- F -->
<g id="node1" class="node">
<title>F</title>
<polygon fill="aliceblue" stroke="black" points="107,-63 0,-63 0,-27 113,-27 113,-57 107,-63"/>
<polyline fill="none" stroke="black" points="107,-63 107,-57 "/>
<polyline fill="none" stroke="black" points="113,-57 107,-57 "/>
<text text-anchor="middle" x="56.5" y="-48.6" font-family="Lato" font-size="13.00">Código fuente</text>
<text text-anchor="middle" x="56.5" y="-34.6" font-family="Lato" font-size="13.00">(lenguaje fuente)</text>
</g>
<!-- Traductor -->
<g id="node4" class="node">
<title>Traductor</title>
<polygon fill="white" stroke="black" points="220,-63 149,-63 149,-27 220,-27 220,-63"/>
<text text-anchor="middle" x="184.5" y="-41.6" font-family="Lato" font-size="13.00">Traductor</text>
</g>
<!-- F&#45;&gt;Traductor -->
<g id="edge1" class="edge">
<title>F&#45;&gt;Traductor</title>
<path fill="none" stroke="black" d="M113.13,-45C121.66,-45 130.37,-45 138.63,-45"/>
<polygon fill="black" stroke="black" points="138.8,-48.5 148.8,-45 138.8,-41.5 138.8,-48.5"/>
</g>
<!-- O -->
<g id="node2" class="node">
<title>O</title>
<polygon fill="aliceblue" stroke="black" points="361,-90 256,-90 256,-54 367,-54 367,-84 361,-90"/>
<polyline fill="none" stroke="black" points="361,-90 361,-84 "/>
<polyline fill="none" stroke="black" points="367,-84 361,-84 "/>
<text text-anchor="middle" x="311.5" y="-75.6" font-family="Lato" font-size="13.00">Código objeto</text>
<text text-anchor="middle" x="311.5" y="-61.6" font-family="Lato" font-size="13.00">(lenguaje objeto)</text>
</g>
<!-- E -->
<g id="node3" class="node">
<title>E</title>
<polygon fill="transparent" stroke="transparent" points="340.5,-36 282.5,-36 282.5,0 340.5,0 340.5,-36"/>
<text text-anchor="middle" x="311.5" y="-14.6" font-family="Lato" font-size="13.00">Errores</text>
</g>
<!-- Traductor&#45;&gt;O -->
<g id="edge2" class="edge">
<title>Traductor&#45;&gt;O</title>
<path fill="none" stroke="black" d="M220.32,-52.52C228.3,-54.24 237.03,-56.13 245.82,-58.03"/>
<polygon fill="black" stroke="black" points="245.22,-61.48 255.73,-60.17 246.69,-54.64 245.22,-61.48"/>
</g>
<!-- Traductor&#45;&gt;E -->
<g id="edge3" class="edge">
<title>Traductor&#45;&gt;E</title>
<path fill="none" stroke="black" d="M220.32,-37.48C236.47,-33.99 255.71,-29.83 272.27,-26.26"/>
<polygon fill="black" stroke="black" points="273.14,-29.65 282.18,-24.12 271.66,-22.81 273.14,-29.65"/>
</g>
</g>
</svg>
