<?xml version="1.0" encoding="UTF-8" standalone="no"?>
<!DOCTYPE svg PUBLIC "-//W3C//DTD SVG 1.1//EN"
 "http://www.w3.org/Graphics/SVG/1.1/DTD/svg11.dtd">
<!-- Generated by graphviz version 2.40.1 (20161225.0304)
 -->
<!-- Title: %3 Pages: 1 -->
<svg width="576pt" height="153pt"
 viewBox="0.00 0.00 576.00 153.39" xmlns="http://www.w3.org/2000/svg" xmlns:xlink="http://www.w3.org/1999/xlink">
<g id="graph0" class="graph" transform="scale(1.5652 1.5652) rotate(0) translate(4 94)">
<title>%3</title>
<!-- F -->
<g id="node1" class="node">
<title>F</title>
<polygon fill="#f0f8ff" stroke="#000000" points="103,-63 0,-63 0,-27 109,-27 109,-57 103,-63"/>
<polyline fill="none" stroke="#000000" points="103,-63 103,-57 "/>
<polyline fill="none" stroke="#000000" points="109,-57 103,-57 "/>
<text text-anchor="middle" x="54.5" y="-48.6" font-family="Lato" font-size="13.00" fill="#000000">Código fuente</text>
<text text-anchor="middle" x="54.5" y="-34.6" font-family="Lato" font-size="13.00" fill="#000000">(lenguaje fuente)</text>
</g>
<!-- Traductor -->
<g id="node4" class="node">
<title>Traductor</title>
<polygon fill="#ffffff" stroke="#000000" points="215,-63 145,-63 145,-27 215,-27 215,-63"/>
<text text-anchor="middle" x="180" y="-41.6" font-family="Lato" font-size="13.00" fill="#000000">Traductor</text>
</g>
<!-- F&#45;&gt;Traductor -->
<g id="edge1" class="edge">
<title>F&#45;&gt;Traductor</title>
<path fill="none" stroke="#000000" d="M109.181,-45C117.6339,-45 126.2854,-45 134.5082,-45"/>
<polygon fill="#000000" stroke="#000000" points="134.6472,-48.5001 144.6472,-45 134.6471,-41.5001 134.6472,-48.5001"/>
</g>
<!-- O -->
<g id="node2" class="node">
<title>O</title>
<polygon fill="#f0f8ff" stroke="#000000" points="354,-90 251,-90 251,-54 360,-54 360,-84 354,-90"/>
<polyline fill="none" stroke="#000000" points="354,-90 354,-84 "/>
<polyline fill="none" stroke="#000000" points="360,-84 354,-84 "/>
<text text-anchor="middle" x="305.5" y="-75.6" font-family="Lato" font-size="13.00" fill="#000000">Código objeto</text>
<text text-anchor="middle" x="305.5" y="-61.6" font-family="Lato" font-size="13.00" fill="#000000">(lenguaje objeto)</text>
</g>
<!-- E -->
<g id="node3" class="node">
<title>E</title>
<polygon fill="transparent" stroke="transparent" points="334,-36 277,-36 277,0 334,0 334,-36"/>
<text text-anchor="middle" x="305.5" y="-14.6" font-family="Lato" font-size="13.00" fill="#000000">Errores</text>
</g>
<!-- Traductor&#45;&gt;O -->
<g id="edge2" class="edge">
<title>Traductor&#45;&gt;O</title>
<path fill="none" stroke="#000000" d="M215.2927,-52.5929C223.2994,-54.3154 232.049,-56.1978 240.8485,-58.0909"/>
<polygon fill="#000000" stroke="#000000" points="240.2551,-61.5433 250.7676,-60.2249 241.7275,-54.6999 240.2551,-61.5433"/>
</g>
<!-- Traductor&#45;&gt;E -->
<g id="edge3" class="edge">
<title>Traductor&#45;&gt;E</title>
<path fill="none" stroke="#000000" d="M215.2927,-37.4071C231.3831,-33.9455 250.4738,-29.8383 266.9403,-26.2957"/>
<polygon fill="#000000" stroke="#000000" points="267.7635,-29.6988 276.8037,-24.1737 266.2912,-22.8554 267.7635,-29.6988"/>
</g>
</g>
</svg>
